<?xml version="1.0" standalone="no"?>
<!DOCTYPE svg PUBLIC "-//W3C//DTD SVG 1.1//EN" "http://www.w3.org/Graphics/SVG/1.1/DTD/svg11.dtd" >
<svg xmlns="http://www.w3.org/2000/svg" version="1.1">
<metadata>
Created by FontForge 20170731 at Wed Oct  9 20:17:00 2019
 By Aleksey,,,
Copyright (c) 2019 by Fontastica. All rights reserved.
</metadata>
<defs>
<font id="Walter-HeavyItalic" horiz-adv-x="943" >
  <font-face
    font-family="Walter Heavy Italic"
    font-weight="900"
    font-style="italic"
    font-stretch="normal"
    units-per-em="1067"
    panose-1="0 0 10 0 0 0 0 0 0 0"
    ascent="853"
    descent="-214"
    x-height="798"
    cap-height="798"
    bbox="48 -109 1492 1059"
    underline-thickness="50"
    underline-position="-200"
    slope="-9"
    unicode-range="U+0020-2122"
  />
<missing-glyph horiz-adv-x="812"
d="M247 981l-154 -972h628l154 972h-628zM495 557l-163 383h448zM448 493l-276 -381l124 762zM522 493l272 381l-117 -740zM191 48l284 383l164 -383h-448z" />
    <glyph glyph-name=".notdef" horiz-adv-x="812"
d="M247 981l-154 -972h628l154 972h-628zM495 557l-163 383h448zM448 493l-276 -381l124 762zM522 493l272 381l-117 -740zM191 48l284 383l164 -383h-448z" />
    <glyph glyph-name=".null" horiz-adv-x="404"
 />
    <glyph glyph-name="nonmarkingreturn" horiz-adv-x="355"
 />
    <glyph glyph-name="space" unicode=" " horiz-adv-x="800"
 />
    <glyph glyph-name="exclam" unicode="!" horiz-adv-x="291"
d="M280 792h-18q-23 0 -41.5 -16t-21.5 -37l-3 -17q-3 -21 10.5 -37.5t36.5 -16.5h18q24 0 42 16t21 38l3 17q3 22 -10.5 37.5t-36.5 15.5zM304 656h-108l-104 -656h108z" />
    <glyph glyph-name="quotedbl" unicode="&#x22;" horiz-adv-x="380"
d="M218 793l-30 -184h88l30 184h-88zM326 793l-30 -184h88l30 184h-88z" />
    <glyph glyph-name="numbersign" unicode="#" horiz-adv-x="1300"
d="M1333 787h-156l-236 -247h-176l233 247h-151l-236 -247h-222l-99 -102h221l-54 -53h-220l-96 -105h216l-263 -265h161l261 265h175l-269 -265h157l261 265h196l100 105h-196l52 53h199l94 102h-191zM792 385h-175l51 53h173z" />
    <glyph glyph-name="dollar" unicode="$" horiz-adv-x="899"
d="M515 -96l17 106q119 18 209 78.5t104 148.5q14 95 -68 160q-56 45 -174 63l33 206h263l20 130h-262l19 124h-138l-20 -128q-125 -14 -223 -73t-113 -151q-6 -39 5.5 -73t36 -58.5t60.5 -43.5t76.5 -30t86.5 -16l-33 -212h-301l-20 -131h300l-16 -100h138zM497 660
l-30 -185q-59 13 -103.5 38t-39.5 56q6 35 72 62q48 21 101 29zM554 146l29 186q42 -7 68 -21q59 -32 52 -75q-5 -29 -48 -52.5t-101 -37.5z" />
    <glyph glyph-name="percent" unicode="%" horiz-adv-x="1009"
d="M429 481q91 0 156.5 55t76.5 124t-36.5 125t-139.5 56q-91 0 -154 -56t-74 -125q-11 -67 35.5 -123t135.5 -56zM1034 800h-163l-778 -794l159 -6zM447 598q-28 0 -44.5 18.5t-12.5 43.5q4 27 26 46.5t52 19.5q31 0 48.5 -19.5t12.5 -46.5q-4 -26 -27.5 -44t-54.5 -18z
M668 -2q91 0 155 56t75 124q11 69 -35.5 125t-137.5 56t-154.5 -56t-75.5 -125q-11 -67 36 -123.5t137 -56.5zM686 114q-29 0 -46 19t-13 45t26.5 45.5t52.5 19.5q31 0 48.5 -19.5t13.5 -45.5q-4 -25 -28 -44.5t-54 -19.5z" />
    <glyph glyph-name="ampersand" unicode="&#x26;" horiz-adv-x="922"
d="M268 532l68 -96q-194 -118 -212 -236q-7 -34 5 -75q16 -55 45 -84.5t95 -48.5q22 -6 33 -8q15 -4 37 -4q143 0 295 97l93 -104l14 11q40 29 72 50l5 4l6 38l-74 80l118 83l-89 80l-99 -69l-138 166q49 34 76.5 56t55.5 60t34 78q7 46 -8.5 92t-61 80t-112.5 34
q-111 0 -183.5 -61.5t-86.5 -146.5q-3 -17 0 -40.5t12 -35.5zM399 594q-3 8 -1 15q5 37 34 60t74 23q32 0 51 -26t14 -55q-5 -25 -31 -46q-39 -32 -77 -59q-8 9 -17 22q-6 8 -24 35q-2 3 -6.5 8.5t-6.5 8.5q-7 7 -10 14zM414 341l147 -171q-110 -65 -191 -65q-50 0 -77.5 27
t-20.5 67q9 62 142 142z" />
    <glyph glyph-name="quotesingle" unicode="'" horiz-adv-x="293"
d="M218 797l-31 -200h109l31 200h-109z" />
    <glyph glyph-name="parenleft" unicode="(" horiz-adv-x="584"
d="M295 0h198l-45 38q-193 165 -161 361q31 196 275 360l58 39h-199l-9 -8q-112 -95 -175.5 -187.5t-81.5 -203.5t17.5 -204t118.5 -190z" />
    <glyph glyph-name="parenright" unicode=")" horiz-adv-x="582"
d="M414 798h-193l40 -38q94 -88 135.5 -172t24.5 -189q-32 -202 -298 -378l-31 -21h196l9 8q112 95 176 187t82 203q17 112 -18.5 205t-118.5 190z" />
    <glyph glyph-name="asterisk" unicode="*" horiz-adv-x="517"
d="M524 626l11 68h-63l53 36l-53 44l-60 -39l9 57h-75l-9 -57l-46 39l-67 -44l40 -36h-62l-11 -68h61l-50 -34l53 -45l59 39l-9 -57h75l9 57l47 -39l67 45l-41 34h62z" />
    <glyph glyph-name="plus" unicode="+" horiz-adv-x="778"
d="M743 360l19 124h-226l25 159h-142l-25 -159h-225l-20 -124h225l-25 -158h142l25 158h227z" />
    <glyph glyph-name="comma" unicode="," horiz-adv-x="432"
d="M75 -109h146l143 261h-148z" />
    <glyph glyph-name="hyphen" unicode="-"
d="M151 369l-21 -127h759l20 127h-758z" />
    <glyph glyph-name="period" unicode="." horiz-adv-x="342"
d="M204 151h-18q-33 0 -54.5 -21t-25.5 -44l-3 -16q-4 -23 11.5 -43.5t48.5 -20.5h18q34 0 55.5 20t24.5 44l3 16q4 23 -11.5 44t-48.5 21z" />
    <glyph glyph-name="slash" unicode="/" horiz-adv-x="1001"
d="M1036 798h-170l-774 -798h168z" />
    <glyph glyph-name="zero" unicode="0"
d="M886 221l56 358q15 95 -94 161q-99 58 -250 58t-270 -58q-129 -65 -144 -161l-57 -358q-16 -100 93 -163q99 -58 251 -58q153 0 268 58q130 63 147 163zM799 577l-57 -358q-7 -44 -91 -71t-161 -27q-45 0 -96.5 11t-90.5 34.5t-34 52.5l57 358q7 44 91.5 72t161.5 28
q47 0 98 -10.5t89 -34.5t33 -55z" />
    <glyph glyph-name="one" unicode="1" horiz-adv-x="664"
d="M179 550h258l87 49l-95 -599h143l132 835z" />
    <glyph glyph-name="two" unicode="2" horiz-adv-x="1002"
d="M931 127h-463l422 326q64 50 76 124q11 72 -42.5 123t-142.5 76q-65 18 -119 18q-90 0 -177.5 -28.5t-144.5 -82.5q-54 -51 -62 -97v-13t-1 -14q-2 -6 -2 -9l-4 -13h143l6 42q4 21 30 42q30 24 84 37t104 13q40 0 85.5 -10.5t78.5 -32.5t29 -48q-4 -25 -44 -54l-695 -526
h818z" />
    <glyph glyph-name="three" unicode="3"
d="M220 58q98 -58 251 -58t268 58q130 63 147 163l3 22q16 93 -87 155q122 65 137 157l3 24q15 95 -94 161q-98 58 -250 58q-151 0 -270 -58q-129 -65 -144 -161l-7 -42h140l2 13l3 21q2 10 4 14q5 13 25 28q41 30 105.5 48.5t122.5 18.5q91 0 165 -38q62 -33 57 -63l-4 -24
q-4 -28 -74 -58q-65 -26 -136 -31q-23 -2 -145 -2h-16l-20 -128h16q108 0 143 -3q76 -7 126 -32q32 -17 41 -26q19 -17 16 -32l-4 -22q-5 -30 -76 -63q-86 -39 -178 -39q-94 0 -167 39q-27 14 -43 28q-20 18 -18 35l7 41h-135l-7 -41q-16 -100 93 -163z" />
    <glyph glyph-name="four" unicode="4" horiz-adv-x="1016"
d="M504 306l527 371l27 173l-938 -671h695l-29 -179h138l69 440h-137l-21 -134h-331z" />
    <glyph glyph-name="five" unicode="5"
d="M338 669h619l20 129h-759l-69 -441h380q62 0 121.5 -16.5t92.5 -47.5q17 -16 16 -25q0 -2 -3.5 -18.5t-5.5 -24.5q-12 -38 -83 -69q-86 -40 -176 -40q-92 0 -164 40q-65 34 -60 65l7 41h-140l-7 -41q-16 -99 93 -163q97 -58 252 -58q91 0 175.5 21.5t152.5 73t84 124.5
q6 26 9 50q15 93 -93 158q-98 58 -251 58h-240z" />
    <glyph glyph-name="six" unicode="6"
d="M885 219l15 91q14 98 -92 163q-92 57 -234 57q-151 0 -265 -46l15 93q5 30 79 65q85 40 176 40q92 0 164 -40q61 -36 56 -65l-7 -40h144l6 40q15 98 -94 163q-98 58 -250 58q-153 0 -270 -58q-129 -66 -145 -163l-56 -358q-15 -97 93 -161q98 -58 251 -58q152 0 268 58
q131 63 146 161zM762 310l-14 -91q-3 -17 -26 -32q-15 -10 -50 -25q-87 -35 -181 -35q-93 0 -168 35q-61 28 -56 57l14 91q5 30 75 58q84 35 179 35q91 0 168 -36q29 -13 44 -25q18 -15 15 -32z" />
    <glyph glyph-name="seven" unicode="7" horiz-adv-x="988"
d="M1022 798h-801l-20 -123h532l-641 -675h165z" />
    <glyph glyph-name="eight" unicode="8"
d="M220 58q99 -58 251 -58q153 0 268 58q130 63 147 163l3 22q16 93 -87 155q122 65 137 157l3 24q15 95 -94 161q-100 58 -250 58q-151 0 -270 -58q-129 -65 -144 -161l-4 -24q-14 -92 86 -156q-121 -63 -135 -156l-4 -22q-16 -100 93 -163zM401 645q94 41 179 41
q88 0 167 -41q63 -35 58 -66l-4 -24q-5 -30 -79 -64q-90 -40 -179 -40q-88 0 -166 40q-66 34 -61 64l4 24q5 31 81 66zM671 158q-86 -39 -181 -39q-93 0 -168 39q-24 11 -44 28q-19 18 -18 35l4 22q3 16 26 31q26 16 51 25q87 34 183 34q60 0 121 -15.5t94 -43.5
q17 -16 16 -31l-4 -22q-1 -14 -28 -34q-23 -16 -52 -29z" />
    <glyph glyph-name="nine" unicode="9"
d="M184 579l-15 -91q-15 -96 94 -163q94 -58 232 -58q148 0 264 46l-15 -92q-5 -32 -77 -64q-89 -41 -177 -41q-59 0 -115.5 19.5t-88.5 51.5q-19 19 -17 34l7 41h-142l-7 -41q-16 -100 93 -163q99 -58 251 -58q153 0 268 58q130 63 147 163l56 358q15 95 -94 161
q-99 58 -250 58t-270 -58q-129 -65 -144 -161zM306 488l14 91q3 16 25 30q41 28 106.5 44t125.5 16t119 -15.5t90 -44.5q18 -16 15 -30l-14 -91q-5 -29 -76 -58q-85 -35 -177 -35q-95 0 -171 35q-62 30 -57 58z" />
    <glyph glyph-name="colon" unicode=":" horiz-adv-x="342"
d="M249 437h-18q-33 0 -54.5 -20.5t-25.5 -43.5l-3 -17q-4 -23 11.5 -43.5t48.5 -20.5h18q33 0 54.5 20.5t25.5 43.5l3 17q4 23 -11 43.5t-49 20.5zM204 151h-18q-33 0 -54.5 -21t-25.5 -44l-3 -16q-4 -23 11.5 -43.5t48.5 -20.5h18q34 0 55.5 20t24.5 44l3 16
q4 23 -11.5 44t-48.5 21z" />
    <glyph glyph-name="semicolon" unicode=";" horiz-adv-x="419"
d="M333 438h-18q-33 0 -54.5 -20.5t-25.5 -43.5l-3 -17q-4 -23 11.5 -43.5t48.5 -20.5h18q33 0 54.5 21t25.5 43l3 17q3 23 -12.5 43.5t-47.5 20.5zM75 -109h146l143 261h-148z" />
    <glyph glyph-name="less" unicode="&#x3c;" horiz-adv-x="985"
d="M888 -32l22 141l-502 289l595 296l21 136l-869 -432z" />
    <glyph glyph-name="equal" unicode="=" horiz-adv-x="665"
d="M173 509l-13 -77h481l13 77h-481zM156 403l-13 -78h481l13 78h-481z" />
    <glyph glyph-name="greater" unicode="&#x3e;" horiz-adv-x="985"
d="M703 398l-594 -289l-22 -141l869 430l-732 432l-22 -136z" />
    <glyph glyph-name="question" unicode="?" horiz-adv-x="847"
d="M460 128l34 215q1 2 7 5q11 3 20 3q134 0 224 70q87 68 103 168q16 103 -70 169t-222 66q-134 0 -244 -66t-127 -169l-6 -42h125l5 32q8 51 72 91q61 38 148 38q117 0 166 -42q37 -34 31 -77q-8 -47 -47 -83q-29 -27 -70 -35q-16 -3 -48 -6t-42 -4l-35 -6q-7 -2 -19 -4
q-14 -5 -20 -8q-29 -14 -49 -44t-24 -56l-34 -215q-21 -18 -24 -44l-3 -16q-4 -24 11 -44t49 -20h18q33 0 54.5 20.5t25.5 43.5q2 10 2 15q1 6 1 16q-2 17 -12 29z" />
    <glyph glyph-name="at" unicode="@" horiz-adv-x="1172"
d="M1046 714q127 -124 99 -296q-9 -56 -44 -130q-44 -89 -98 -132l-67 -52l-44 -28q-62 -30 -93 -42q-101 -40 -213 -40q-206 0 -331 123q-126 123 -98 300q27 172 192 297q166 123 371 123q200 0 326 -123zM767 141q4 0 64 16q-42 11 -65 37q-78 -37 -172 -37
q-59 0 -112.5 16t-89 52.5t-27.5 85.5l35 221q8 49 55 85t105 51.5t117 15.5q67 0 123 -19l3 17h60q-74 36 -162 36q-147 0 -272 -92t-144 -210q-19 -122 77 -209q96 -90 244 -90q54 0 161 24zM922 643l-57 -357q14 -7 37 -7q57 0 74 21q22 25 38 118q19 118 -74 208
q-12 12 -18 17zM731 297q14 9 13 13l36 226h-1l-1 1q0 1 -1 2l-1 1q-38 34 -116 34q-34 0 -82 -14q-26 -6 -40 -15q-11 -6 -13 -13l-35 -221q0 -6 7 -10q5 -5 19 -11q48 -21 96 -21q35 0 81 13q17 5 38 15z" />
    <glyph glyph-name="A" unicode="A" horiz-adv-x="1168"
d="M92 0h161l419 570l243 -570h161l-360 847z" />
    <glyph glyph-name="B" unicode="B" horiz-adv-x="908"
d="M92 0h337q170 0 285 65q124 72 142 178q17 118 -85 182q113 61 128 154q16 98 -92 161q-100 58 -252 58h-337zM449 127h-197l86 542h197q100 0 166 -33q57 -29 53 -57q-5 -30 -71 -58q-63 -28 -147 -33q-12 -1 -68.5 -2.5t-89.5 -5.5l-14 -1l-19 -122h16q16 0 48 0.5
t48 0.5q137 0 204 -40q57 -34 50 -75q-7 -42 -74 -76q-79 -40 -188 -40z" />
    <glyph glyph-name="C" unicode="C"
d="M892 262h-145l-7 -41q-4 -28 -73 -58q-86 -36 -176 -36q-91 0 -165 36q-59 28 -55 58l57 358q5 28 72 57q81 33 177 33q95 0 166 -33q59 -28 54 -57l-6 -42h145l6 42q15 95 -94 161q-98 58 -250 58q-151 0 -270 -58q-129 -65 -144 -161l-57 -358q-16 -99 93 -163
q98 -58 251 -58t268 58q130 63 147 163z" />
    <glyph glyph-name="D" unicode="D" horiz-adv-x="942"
d="M218 798l-126 -798h16q318 0 543 111q235 116 262 288q27 170 -171 288q-185 111 -477 111h-47zM251 130l85 538q185 -9 316 -88q138 -85 123 -180t-181 -179q-158 -80 -343 -91z" />
    <glyph glyph-name="E" unicode="E"
d="M340 669h617l20 129h-759l-126 -798h759l20 127h-617l33 209h450l20 128h-449z" />
    <glyph glyph-name="F" unicode="F"
d="M342 669h615l20 129h-759l-126 -798h144l53 336h448l20 128h-447z" />
    <glyph glyph-name="G" unicode="G"
d="M753 302l-13 -81q-4 -28 -73 -58q-86 -36 -176 -36q-91 0 -165 36q-59 28 -55 58l57 358q5 28 72 57q81 33 177 33q95 0 166 -33q59 -28 54 -57l-6 -42h145l6 42q15 95 -94 161q-98 58 -250 58q-151 0 -270 -58q-129 -65 -144 -161l-57 -358q-16 -99 93 -163
q98 -58 251 -58t268 58q130 63 147 163l33 213h-420l-20 -132h274z" />
    <glyph glyph-name="H" unicode="H"
d="M977 798h-147l-53 -334h-465l53 334h-147l-126 -798h146l53 336h466l-54 -336h148z" />
    <glyph glyph-name="I" unicode="I"
d="M647 669h310l20 129h-759l-20 -129h311l-86 -542h-311l-20 -127h759l20 127h-309z" />
    <glyph glyph-name="J" unicode="J"
d="M977 798h-759l-20 -129h613l-71 -448q-4 -28 -73 -58q-86 -36 -175 -36q-93 0 -168 36q-57 28 -53 58l7 41h-144l-7 -41q-15 -97 93 -163q96 -58 252 -58q159 0 271 58q128 66 143 163z" />
    <glyph glyph-name="K" unicode="K" horiz-adv-x="1167"
d="M547 398l655 400h-227l-548 -334h-121l53 334h-141l-126 -798h140l53 336h122l440 -336h229z" />
    <glyph glyph-name="L" unicode="L"
d="M871 126h-619l107 674h-140l-127 -800h759z" />
    <glyph glyph-name="M" unicode="M" horiz-adv-x="1089"
d="M1133 857l-517 -400l-388 400l-136 -857h131l90 568l276 -278l368 280l-92 -570h132z" />
    <glyph glyph-name="N" unicode="N" horiz-adv-x="1089"
d="M1123 798h-140l-89 -562l-667 614l-135 -850h136l90 566l670 -618z" />
    <glyph glyph-name="O" unicode="O"
d="M886 221l56 358q15 96 -91 161q-98 58 -252 58q-152 0 -271 -58q-129 -65 -144 -161l-57 -358q-15 -97 93 -163q96 -58 252 -58q158 0 271 58q127 64 143 163zM797 579l-57 -358q-4 -28 -73 -58q-85 -36 -175 -36q-93 0 -168 36q-57 28 -53 58l57 358q5 29 71 57
q83 33 179 33q92 0 166 -33q58 -26 53 -57z" />
    <glyph glyph-name="P" unicode="P" horiz-adv-x="934"
d="M356 357h173q150 0 265 59q123 64 139 162t-88 162q-96 58 -246 58h-381l-126 -798h142l106 669h238q92 0 160 -33q57 -28 52 -57q-5 -28 -71 -58q-63 -29 -139 -35q-40 -2 -61 -2q-16 0 -48.5 0.5t-48.5 0.5h-46z" />
    <glyph glyph-name="Q" unicode="Q" horiz-adv-x="958"
d="M886 221l56 358q15 96 -91 161q-98 58 -252 58q-152 0 -271 -58q-129 -65 -144 -161l-57 -358q-15 -97 93 -163q96 -58 252 -58q131 0 234 43l68 -62l104 98l-45 43q44 45 53 99zM797 579l-57 -358q0 -4 -4 -12l-182 167l-102 -103l146 -133q-57 -13 -106 -13
q-93 0 -168 36q-57 28 -53 58l57 358q5 29 71 57q79 33 179 33q94 0 165 -33q59 -28 54 -57z" />
    <glyph glyph-name="R" unicode="R" horiz-adv-x="981"
d="M707 0h182l-227 372q109 24 183.5 75.5t87.5 131.5q16 95 -88 161q-94 58 -246 58h-381l-126 -798h140l106 669h240q92 0 160 -33q57 -28 52 -57q-6 -35 -84 -64q-62 -22 -132 -29q-42 -2 -62 -2q-16 0 -50 0.5t-50 0.5h-36l-20 -128h141z" />
    <glyph glyph-name="S" unicode="S" horiz-adv-x="899"
d="M93 4h345q153 0 267 63q124 68 140 170q7 45 -11 88t-57 73q-76 56 -213 68q-78 6 -100 10q-49 8 -87 29q-58 31 -53 64q6 33 73 63q77 34 170 34h332l20 130h-332q-152 0 -265 -60q-124 -70 -140 -168q-16 -100 87 -167q68 -43 167 -54q8 -1 50.5 -4t65.5 -5
q65 -7 99 -27q59 -32 52 -75q-3 -20 -21 -34.5t-52 -29.5q-83 -37 -171 -37h-346z" />
    <glyph glyph-name="T" unicode="T"
d="M977 798h-759l-19 -123h311l-107 -675h136l107 675h312z" />
    <glyph glyph-name="U" unicode="U"
d="M977 798h-141l-92 -577q-4 -30 -75 -58q-88 -36 -178 -36q-91 0 -164 36q-61 29 -56 58l92 577h-145l-91 -577q-16 -100 93 -163q98 -58 251 -58t268 58q130 63 147 163z" />
    <glyph glyph-name="V" unicode="V" horiz-adv-x="1168"
d="M1202 798h-156l-429 -583l-240 583h-159l355 -848z" />
    <glyph glyph-name="W" unicode="W" horiz-adv-x="1456"
d="M867 -50l625 848h-157l-424 -571l-47 116l338 455h-163l-232 -319l-131 319h-166l191 -455l-84 -116l-245 571h-154l356 -847l187 250z" />
    <glyph glyph-name="X" unicode="X" horiz-adv-x="1210"
d="M1115 0l-353 397l482 401h-184l-379 -313l-277 313h-186l354 -401l-477 -397h188l370 311l274 -311h188z" />
    <glyph glyph-name="Y" unicode="Y" horiz-adv-x="1252"
d="M751 390l535 408h-196l-386 -293l-291 293h-195l398 -408l-58 -390h135z" />
    <glyph glyph-name="Z" unicode="Z" horiz-adv-x="1175"
d="M421 122l789 678h-934l-19 -123h630l-795 -677h920l19 122h-610z" />
    <glyph glyph-name="bracketleft" unicode="[" horiz-adv-x="444"
d="M329 680h130l19 118h-260l-126 -798h260l18 117h-130z" />
    <glyph glyph-name="backslash" unicode="\" horiz-adv-x="1001"
d="M218 798l522 -798h169l-523 798h-168z" />
    <glyph glyph-name="bracketright" unicode="]" horiz-adv-x="444"
d="M241 117h-131l-18 -117h260l126 798h-260l-18 -118h130z" />
    <glyph glyph-name="asciicircum" unicode="^" horiz-adv-x="803"
d="M533 835l128 -302h134l-226 526l-393 -526h132z" />
    <glyph glyph-name="underscore" unicode="_" horiz-adv-x="1182"
d="M112 127l-20 -127h998l20 127h-998z" />
    <glyph glyph-name="a" unicode="a" horiz-adv-x="1168"
d="M92 0h161l419 570l243 -570h161l-360 847z" />
    <glyph glyph-name="b" unicode="b" horiz-adv-x="908"
d="M92 0h337q170 0 285 65q124 72 142 178q17 118 -85 182q113 61 128 154q16 98 -92 161q-100 58 -252 58h-337zM449 127h-197l86 542h197q100 0 166 -33q57 -29 53 -57q-5 -30 -71 -58q-63 -28 -147 -33q-12 -1 -68.5 -2.5t-89.5 -5.5l-14 -1l-19 -122h16q16 0 48 0.5
t48 0.5q137 0 204 -40q57 -34 50 -75q-7 -42 -74 -76q-79 -40 -188 -40z" />
    <glyph glyph-name="c" unicode="c"
d="M892 262h-145l-7 -41q-4 -28 -73 -58q-86 -36 -176 -36q-91 0 -165 36q-59 28 -55 58l57 358q5 28 72 57q81 33 177 33q95 0 166 -33q59 -28 54 -57l-6 -42h145l6 42q15 95 -94 161q-98 58 -250 58q-151 0 -270 -58q-129 -65 -144 -161l-57 -358q-16 -99 93 -163
q98 -58 251 -58t268 58q130 63 147 163z" />
    <glyph glyph-name="d" unicode="d" horiz-adv-x="942"
d="M218 798l-126 -798h16q318 0 543 111q235 116 262 288q27 170 -171 288q-185 111 -477 111h-47zM251 130l85 538q185 -9 316 -88q138 -85 123 -180t-181 -179q-158 -80 -343 -91z" />
    <glyph glyph-name="e" unicode="e"
d="M340 669h617l20 129h-759l-126 -798h759l20 127h-617l33 209h450l20 128h-449z" />
    <glyph glyph-name="f" unicode="f"
d="M342 669h615l20 129h-759l-126 -798h144l53 336h448l20 128h-447z" />
    <glyph glyph-name="g" unicode="g"
d="M753 302l-13 -81q-4 -28 -73 -58q-86 -36 -176 -36q-91 0 -165 36q-59 28 -55 58l57 358q5 28 72 57q81 33 177 33q95 0 166 -33q59 -28 54 -57l-6 -42h145l6 42q15 95 -94 161q-98 58 -250 58q-151 0 -270 -58q-129 -65 -144 -161l-57 -358q-16 -99 93 -163
q98 -58 251 -58t268 58q130 63 147 163l33 213h-420l-20 -132h274z" />
    <glyph glyph-name="h" unicode="h"
d="M977 798h-147l-53 -334h-465l53 334h-147l-126 -798h146l53 336h466l-54 -336h148z" />
    <glyph glyph-name="i" unicode="i"
d="M647 669h310l20 129h-759l-20 -129h311l-86 -542h-311l-20 -127h759l20 127h-309z" />
    <glyph glyph-name="j" unicode="j"
d="M977 798h-759l-20 -129h613l-71 -448q-4 -28 -73 -58q-86 -36 -175 -36q-93 0 -168 36q-57 28 -53 58l7 41h-144l-7 -41q-15 -97 93 -163q96 -58 252 -58q159 0 271 58q128 66 143 163z" />
    <glyph glyph-name="k" unicode="k" horiz-adv-x="1167"
d="M547 398l655 400h-227l-548 -334h-121l53 334h-141l-126 -798h140l53 336h122l440 -336h229z" />
    <glyph glyph-name="l" unicode="l"
d="M871 126h-619l107 674h-140l-127 -800h759z" />
    <glyph glyph-name="m" unicode="m" horiz-adv-x="1089"
d="M1133 857l-517 -400l-388 400l-136 -857h131l90 568l276 -278l368 280l-92 -570h132z" />
    <glyph glyph-name="n" unicode="n" horiz-adv-x="1089"
d="M1123 798h-140l-89 -562l-667 614l-135 -850h136l90 566l670 -618z" />
    <glyph glyph-name="o" unicode="o"
d="M886 221l56 358q15 96 -91 161q-98 58 -252 58q-152 0 -271 -58q-129 -65 -144 -161l-57 -358q-15 -97 93 -163q96 -58 252 -58q158 0 271 58q127 64 143 163zM797 579l-57 -358q-4 -28 -73 -58q-85 -36 -175 -36q-93 0 -168 36q-57 28 -53 58l57 358q5 29 71 57
q83 33 179 33q92 0 166 -33q58 -26 53 -57z" />
    <glyph glyph-name="p" unicode="p" horiz-adv-x="934"
d="M356 357h173q150 0 265 59q123 64 139 162t-88 162q-96 58 -246 58h-381l-126 -798h142l106 669h238q92 0 160 -33q57 -28 52 -57q-5 -28 -71 -58q-63 -29 -139 -35q-40 -2 -61 -2q-16 0 -48.5 0.5t-48.5 0.5h-46z" />
    <glyph glyph-name="q" unicode="q" horiz-adv-x="958"
d="M886 221l56 358q15 96 -91 161q-98 58 -252 58q-152 0 -271 -58q-129 -65 -144 -161l-57 -358q-15 -97 93 -163q96 -58 252 -58q131 0 234 43l68 -62l104 98l-45 43q44 45 53 99zM797 579l-57 -358q0 -4 -4 -12l-182 167l-102 -103l146 -133q-57 -13 -106 -13
q-93 0 -168 36q-57 28 -53 58l57 358q5 29 71 57q79 33 179 33q94 0 165 -33q59 -28 54 -57z" />
    <glyph glyph-name="r" unicode="r" horiz-adv-x="981"
d="M707 0h182l-227 372q109 24 183.5 75.5t87.5 131.5q16 95 -88 161q-94 58 -246 58h-381l-126 -798h140l106 669h240q92 0 160 -33q57 -28 52 -57q-6 -35 -84 -64q-62 -22 -132 -29q-42 -2 -62 -2q-16 0 -50 0.5t-50 0.5h-36l-20 -128h141z" />
    <glyph glyph-name="s" unicode="s" horiz-adv-x="899"
d="M93 4h345q153 0 267 63q124 68 140 170q7 45 -11 88t-57 73q-76 56 -213 68q-78 6 -100 10q-49 8 -87 29q-58 31 -53 64q6 33 73 63q77 34 170 34h332l20 130h-332q-152 0 -265 -60q-124 -70 -140 -168q-16 -100 87 -167q68 -43 167 -54q8 -1 50.5 -4t65.5 -5
q65 -7 99 -27q59 -32 52 -75q-3 -20 -21 -34.5t-52 -29.5q-83 -37 -171 -37h-346z" />
    <glyph glyph-name="t" unicode="t"
d="M977 798h-759l-19 -123h311l-107 -675h136l107 675h312z" />
    <glyph glyph-name="u" unicode="u"
d="M977 798h-141l-92 -577q-4 -30 -75 -58q-88 -36 -178 -36q-91 0 -164 36q-61 29 -56 58l92 577h-145l-91 -577q-16 -100 93 -163q98 -58 251 -58t268 58q130 63 147 163z" />
    <glyph glyph-name="v" unicode="v" horiz-adv-x="1168"
d="M1202 798h-156l-429 -583l-240 583h-159l355 -848z" />
    <glyph glyph-name="w" unicode="w" horiz-adv-x="1456"
d="M867 -50l625 848h-157l-424 -571l-47 116l338 455h-163l-232 -319l-131 319h-166l191 -455l-84 -116l-245 571h-154l356 -847l187 250z" />
    <glyph glyph-name="x" unicode="x" horiz-adv-x="1210"
d="M1115 0l-353 397l482 401h-184l-379 -313l-277 313h-186l354 -401l-477 -397h188l370 311l274 -311h188z" />
    <glyph glyph-name="y" unicode="y" horiz-adv-x="1252"
d="M751 390l535 408h-196l-386 -293l-291 293h-195l398 -408l-58 -390h135z" />
    <glyph glyph-name="z" unicode="z" horiz-adv-x="1175"
d="M421 122l789 678h-934l-19 -123h630l-795 -677h920l19 122h-610z" />
    <glyph glyph-name="bar" unicode="|" horiz-adv-x="316"
d="M218 798l-126 -798h133l127 798h-134z" />
    <glyph glyph-name="exclamdown" unicode="&#xa1;" horiz-adv-x="291"
d="M218 795l-104 -656h108l104 656h-108zM175 126h-18q-23 0 -41.5 -16.5t-22.5 -37.5l-2 -16q-4 -22 9.5 -38t36.5 -16h18q24 0 42 16t22 38l2 16q4 22 -9 38t-37 16z" />
    <glyph glyph-name="sterling" unicode="&#xa3;" horiz-adv-x="1031"
d="M934 123l-470 -2q46 68 60 135h390l19 117h-406q-27 85 -95 139q-1 1 -19 16q-9 7 -16 16q-14 16 -11 35q6 41 92 75q82 35 187 35q60 0 120.5 -22.5t81.5 -56.5l3 -6h164l-12 18q-14 23 -33 49q-46 66 -133 97t-196 31q-88 0 -175.5 -24t-157 -77.5t-80.5 -125.5
q-11 -70 63 -134q42 -37 61 -65h-115l-18 -117h154q-20 -70 -92 -127q-33 -27 -80 -55q-4 -3 -91 -53l-37 -21h822z" />
    <glyph glyph-name="yen" unicode="&#xa5;" horiz-adv-x="1054"
d="M652 383l7 40l430 375h-179l-299 -276l-217 276h-176l310 -375l-6 -40h-313l-18 -115h313l-3 -21h-314l-17 -112h313l-22 -135h131l21 135h314l18 112h-314l3 21h314l19 115h-315z" />
    <glyph glyph-name="copyright" unicode="&#xa9;" horiz-adv-x="1130"
d="M1002 233q36 82 36 171q0 88 -36 171q-50 117 -166.5 197.5t-270.5 80.5q-155 0 -270.5 -80t-166.5 -198q-36 -83 -36 -171t36 -171q51 -117 167 -197.5t270 -80.5t270.5 80.5t166.5 197.5zM250 277q-27 62 -27 127q0 72 31 135q39 84 121.5 139.5t189.5 55.5
q106 0 189 -56t122 -139q30 -64 30 -135q0 -65 -27 -127q-38 -86 -121.5 -144.5t-192.5 -58.5t-193 58.5t-122 144.5zM436 290v222q0 6 11 13q13 7 38 14q43 13 79 13q28 0 63.5 -8.5t53.5 -20.5q10 -6 10 -11v-43h125v43q0 69 -83 114q-67 37 -169 37q-94 0 -173 -39.5
t-79 -111.5v-222q0 -73 77.5 -113t174.5 -40q60 0 115.5 15.5t96 52t40.5 85.5v41h-125v-41q0 -16 -48 -29q-45 -14 -79 -14q-49 0 -97 20q-16 8 -22 12q-9 6 -9 11z" />
    <glyph glyph-name="guillemotleft" unicode="&#xab;" horiz-adv-x="1366"
d="M888 -32l22 141l-502 289l595 296l21 136l-869 -432zM1270 -32l22 141l-502 289l595 296l22 136l-870 -432z" />
    <glyph glyph-name="registered" unicode="&#xae;" horiz-adv-x="1130"
d="M1002 233q36 82 36 171q0 88 -36 171q-50 117 -166.5 197.5t-270.5 80.5q-155 0 -270.5 -80t-166.5 -198q-36 -83 -36 -171t36 -171q51 -117 167 -197.5t270 -80.5t270.5 80.5t166.5 197.5zM800 166q-97 -92 -235 -92q-109 0 -193 58.5t-122 144.5q-27 62 -27 127
q0 72 31 135q39 84 121.5 139.5t189.5 55.5q106 0 189 -56t122 -139q30 -64 30 -135q0 -65 -27 -127q-19 -45 -51 -81l-142 186q120 38 120 128q0 66 -69 102.5t-156 36.5h-235v-483h121v200h83l151 -200h99zM467 475v66h114q30 0 66 -10q22 -7 31 -12q9 -6 9 -9q0 -1 -2 -3
q-1 -3 -6 -6q-34 -27 -137 -27q-42 0 -63 1h-12z" />
    <glyph glyph-name="degree" unicode="&#xb0;" horiz-adv-x="657"
d="M415 566q106 0 183 65t90 146t-43 147t-163 66q-105 0 -180 -67t-87 -146q-12 -80 41.5 -145.5t158.5 -65.5zM434 690q-39 0 -62 26.5t-18 60.5q6 35 37 62t71 27q43 0 67 -26.5t19 -62.5q-5 -35 -38.5 -61t-75.5 -26z" />
    <glyph glyph-name="guillemotright" unicode="&#xbb;" horiz-adv-x="1366"
d="M703 398l-594 -289l-22 -141l869 430l-732 432l-22 -136zM1087 398l-595 -289l-23 -141l869 430l-732 432l-22 -137z" />
    <glyph glyph-name="questiondown" unicode="&#xbf;" horiz-adv-x="847"
d="M641 719h-120l-38 -237q-2 -2 -3 -2q-8 -4 -23 -4q-140 0 -226 -70t-101 -167q-16 -102 69.5 -169.5t219.5 -67.5q133 0 245 67.5t128 167.5l7 42h-127l-5 -33q-4 -29 -20.5 -48.5t-51.5 -41.5q-63 -39 -149 -39q-111 0 -162 44q-40 34 -33 76q8 48 48 83q35 31 85 38
q8 1 24.5 2.5t24.5 2.5q23 1 59 8l20 5q14 4 21 8q29 14 48 43t23 55z" />
    <glyph glyph-name="multiply" unicode="&#xd7;" horiz-adv-x="815"
d="M705 269l-135 152l176 145l-84 96l-175 -146l-136 151l-108 -91l133 -152l-177 -153l83 -94l179 152l136 -152z" />
    <glyph glyph-name="divide" unicode="&#xf7;" horiz-adv-x="737"
d="M401 543l-3 -18q-3 -18 8 -31t30 -13h18q19 0 34 13t18 31l3 18q3 18 -8 31t-30 13h-18q-19 0 -34 -13t-18 -31zM718 462h-553l-13 -85h553zM363 310l-3 -18q-3 -18 8 -31t30 -13h18q19 0 34 13t18 31l3 18q3 18 -8 31t-30 13h-18q-19 0 -34 -13t-18 -31z" />
    <glyph glyph-name="quoteleft" unicode="&#x2018;" horiz-adv-x="282"
d="M198 610h98l-13 178h-87z" />
    <glyph glyph-name="quoteright" unicode="&#x2019;" horiz-adv-x="282"
d="M235 788l-67 -178h96l60 178h-89z" />
    <glyph glyph-name="quotedblleft" unicode="&#x201c;" horiz-adv-x="389"
d="M198 610h98l-13 178h-87zM309 608h95l-12 180h-91z" />
    <glyph glyph-name="quotedblright" unicode="&#x201d;" horiz-adv-x="389"
d="M236 788l-69 -180h94l66 180h-91zM345 788l-67 -178h96l59 178h-88z" />
    <glyph glyph-name="guilsinglleft" unicode="&#x2039;" horiz-adv-x="985"
d="M888 -32l22 141l-502 289l595 296l21 136l-869 -432z" />
    <glyph glyph-name="guilsinglright" unicode="&#x203a;" horiz-adv-x="985"
d="M224 830l-23 -140l502 -292l-594 -293l-22 -137l869 430z" />
    <glyph glyph-name="trademark" unicode="&#x2122;" horiz-adv-x="975"
d="M883 840l-223 -200l-223 200v-47h-345v-83h141v-313h94v313h110v-313h91v245l132 -116l133 117l-1 -246h91v443z" />
    <glyph glyph-name="_FSHallmark" horiz-adv-x="949"
d="M50 751h851v-101h-851v101zM791 461q0 9 -8 23q-8 10 -19 18q-23 10 -24 10q-18 4 -24 4q-24 0 -50 -14q-21 -14 -21 -29q0 -31 20 -42q29 -14 45 -17l37 -9l31 -7q21 -7 30 -7q16 -3 25 -7q3 -2 10.5 -5.5t10.5 -5.5q23 -14 32 -28q10 -16 13 -45q3 -26 -11 -50
q-23 -44 -75 -61q-48 -15 -95 -15q-44 0 -71 8q-31 10 -59 30q-25 16 -43 47q-16 28 -16 68l99 -2q0 -6 5 -16q1 -13 14 -26t26 -18q18 -10 48 -10q33 0 54 12q21 11 21 27q0 32 -81 47q-84 23 -125 46q-51 26 -51 85q0 48 33 76q31 25 75 41q35 8 71 8q50 0 95 -19
q49 -19 68 -67q12 -31 12 -50h-102zM162 174h-112v422h359v-96h-247v-95h205v-94h-205v-137zM398 224q0 24 15 37q14 13 36 13q23 0 41 -15q17 -12 17 -35q0 -20 -17 -35q-17 -13 -41 -13q-19 0 -34 15q-17 15 -17 33zM48 121h851v-101h-851v101z" />
    <glyph glyph-name="_Fontastica" horiz-adv-x="736"
d="M154 127h-105q-1 2 -1 5v618h463v-95h-357v-254h357v-96h-357v-178zM221 573h358v177h105v-621h-463v94h358v255h-358v95zM579 66q-6 -4 -6 -8q0 -10 4 -14q6 -6 11 -6q10 0 18 6l6 -6q-11 -11 -24 -11q-5 0 -19 6q-7 12 -8 21q0 12 7 20q10 10 20 10q12 0 24 -10l-6 -8
l-5 5q-1 1 -9 1h-4q-8 -4 -9 -6zM49 82h39v-10h-26v-13h25v-9h-25v-21h-13v53zM137 82q18 0 26 -14q8 -12 2 -24q-4 -14 -24 -17l-5 -2q-8 0 -12 4q-16 6 -16 24q0 14 7 21q7 8 22 8zM240 29h-4q-3 -2 -4 -2q-2 0 -8 6l-7 8q0 1 -1 2.5t-2 2.5t-1 2l-10 13v-32h-13v53h10
q5 -1 6 -7q6 -7 11 -14q5 -5 11 -15v36h12v-53zM261 82h45v-10h-16v-43h-11v43h-18v10zM428 58q11 0 11 -14q2 -11 -10 -15q-1 -2 -11 -2q-16 0 -23 9v2l1 2q0 1 2 4l17 -6h7l4 3q0 9 -12 12q-3 0 -3 1h-4q-9 4 -9 12q-3 9 8 14q6 2 11 2q14 0 22 -4l-4 -10l-4 2h-3
q-1 1 -4 1q-1 0 -2 1h-7q-4 0 -4 -2q-1 -2 4 -9q2 0 5 -1t5 -1.5t3 -0.5zM456 82h47v-10h-16v-43h-13v43h-18v10zM525 82h13v-53h-13v53zM665 82l12 -24q1 -4 6 -17q3 -10 5 -12h-11l-6 11h-26l-4 -11h-12q11 19 21 53h15zM354 80l6 -12q4 -8 6 -11q3 -6 5 -16
q0 -1 0.5 -3.5t2 -5t1.5 -3.5h-12q-1 1 -1 4l-2 7h-27v-8l-3 -3h-10l21 51h13zM151 57q0 7 -4 11t-11 4q-2 -1 -5 -1q-1 0 -2 -1.5t-3 -4t-4 -4.5q-8 -3 -2 -11q4 -12 17 -12h4q10 3 10 16v3zM356 50l-2 4q-3 5 -4 5q-1 1 -1 5q-1 1 -1 3t-1 3l-10 -20h19zM667 50l-2 4
q0 3 -2 5q-2 1 -2 5l-3 6l-9 -20h18z" />
    </font>
</defs>
</svg>
