<?xml version="1.0" standalone="no"?>
<!DOCTYPE svg PUBLIC "-//W3C//DTD SVG 1.1//EN" "http://www.w3.org/Graphics/SVG/1.1/DTD/svg11.dtd" >
<svg xmlns="http://www.w3.org/2000/svg" version="1.1">
<metadata>
Created by FontForge 20170731 at Wed Oct  9 20:16:07 2019
 By Aleksey,,,
Copyright (c) 2019 by Fontastica. All rights reserved.
</metadata>
<defs>
<font id="Walter-Heavy" horiz-adv-x="943" >
  <font-face
    font-family="Walter Heavy"
    font-weight="900"
    font-stretch="normal"
    units-per-em="1067"
    panose-1="0 0 10 0 0 0 0 0 0 0"
    ascent="853"
    descent="-214"
    x-height="798"
    cap-height="798"
    bbox="48 -109 1365 1059"
    underline-thickness="50"
    underline-position="-200"
    unicode-range="U+0020-2122"
  />
<missing-glyph horiz-adv-x="812"
d="M92 981v-972h628v972h-628zM407 557l-224 383h448zM370 493l-216 -381l4 762zM444 493l212 381v-740zM183 48l224 383l224 -383h-448z" />
    <glyph glyph-name=".notdef" horiz-adv-x="812"
d="M92 981v-972h628v972h-628zM407 557l-224 383h448zM370 493l-216 -381l4 762zM444 493l212 381v-740zM183 48l224 383l224 -383h-448z" />
    <glyph glyph-name=".null" horiz-adv-x="404"
 />
    <glyph glyph-name="nonmarkingreturn" horiz-adv-x="355"
 />
    <glyph glyph-name="space" unicode=" " horiz-adv-x="800"
 />
    <glyph glyph-name="exclam" unicode="!" horiz-adv-x="291"
d="M155 792h-18q-23 0 -39 -16t-16 -37v-17q0 -21 16 -37.5t39 -16.5h18q24 0 39.5 16t15.5 38v17q0 21 -16 37t-39 16zM200 656h-108v-656h108v656z" />
    <glyph glyph-name="quotedbl" unicode="&#x22;" horiz-adv-x="380"
d="M92 793v-184h88v184h-88zM200 793v-184h88v184h-88z" />
    <glyph glyph-name="numbersign" unicode="#" horiz-adv-x="1300"
d="M1209 787h-157l-196 -247h-176l194 247h-152l-196 -247h-223l-82 -102h220l-44 -53h-221l-80 -105h216l-220 -265h161l218 265h176l-228 -265h158l218 265h197l83 105h-196l44 53h198l78 102h-191zM731 385h-175l43 53h173z" />
    <glyph glyph-name="dollar" unicode="$" horiz-adv-x="899"
d="M531 -96v106q115 18 195.5 78.5t80.5 148.5q0 95 -93 160q-63 45 -183 63v206h262v130h-262v124h-139v-128q-123 -14 -211.5 -73t-88.5 -151q0 -64 44.5 -112.5t110 -74.5t145.5 -34v-212h-300v-131h300v-100h139zM392 660v-185q-61 13 -109.5 38t-48.5 56q0 35 62 62
q45 20 96 29zM531 146v186q43 -7 71 -21q64 -32 64 -75q0 -29 -40 -52.5t-95 -37.5z" />
    <glyph glyph-name="percent" unicode="%" horiz-adv-x="1009"
d="M353 481q90 0 147 55t57 124t-56 125t-148 56q-91 0 -145.5 -56t-54.5 -125q0 -67 55 -123t145 -56zM908 800h-164l-652 -794l160 -6zM353 598q-29 0 -48 18.5t-19 43.5q0 27 18.5 46.5t48.5 19.5q31 0 51.5 -19.5t20.5 -46.5q0 -26 -20.5 -44t-51.5 -18zM668 -2
q90 0 146 56t56 124q0 69 -55.5 125t-146.5 56t-146 -56.5t-55 -124.5q0 -67 55.5 -123.5t145.5 -56.5zM668 114q-29 0 -49 19.5t-20 44.5q0 26 19.5 45.5t49.5 19.5q31 0 51.5 -19.5t20.5 -45.5q0 -25 -21 -44.5t-51 -19.5z" />
    <glyph glyph-name="ampersand" unicode="&#x26;" horiz-adv-x="922"
d="M184 532l83 -96q-175 -118 -175 -236q0 -34 18 -75q25 -55 58.5 -84.5t101.5 -48.5q27 -7 34 -8q16 -4 38 -4q144 0 280 97l109 -104l13 11q34 29 63 50l5 4v38l-87 80l105 83l-102 80l-87 -69l-165 166q43 34 67.5 56.5t46.5 60t22 77.5q0 75 -58 140.5t-157 65.5
q-111 0 -174 -61.5t-63 -146.5q0 -17 6.5 -40.5t17.5 -35.5zM305 594q-4 6 -4 15q0 37 25 60t70 23q32 0 55 -26t23 -55q0 -25 -24 -46q-44 -40 -68 -59q-4 4 -10.5 11.5t-9.5 10.5l-30 35q-2 3 -7.5 9t-7.5 8q-9 9 -12 14zM360 341l174 -171q-100 -65 -180 -65
q-51 0 -82.5 27t-31.5 67q0 62 120 142z" />
    <glyph glyph-name="quotesingle" unicode="'" horiz-adv-x="293"
d="M92 797v-200h109v200h-109z" />
    <glyph glyph-name="parenleft" unicode="(" horiz-adv-x="584"
d="M295 0h198l-51 38q-219 164 -219 361q0 196 219 360l51 39h-198l-8 -8q-97 -96 -146 -188t-49 -203q0 -112 49.5 -204.5t148.5 -189.5z" />
    <glyph glyph-name="parenright" unicode=")" horiz-adv-x="582"
d="M288 798h-194l47 -38q108 -87 162.5 -171.5t54.5 -189.5q0 -202 -238 -378l-28 -21h196l8 8q97 95 146 187t49 203t-50 204.5t-148 190.5z" />
    <glyph glyph-name="asterisk" unicode="*" horiz-adv-x="517"
d="M425 626v68h-63l47 36l-60 44l-53 -39v57h-75v-57l-53 39l-60 -44l46 -36h-62v-68h61l-45 -34l60 -45l53 39v-57h75v57l53 -39l60 45l-46 34h62z" />
    <glyph glyph-name="plus" unicode="+" horiz-adv-x="778"
d="M686 360v124h-227v159h-142v-159h-225v-124h225v-158h142v158h227z" />
    <glyph glyph-name="comma" unicode="," horiz-adv-x="432"
d="M92 -109h146l102 261h-148z" />
    <glyph glyph-name="hyphen" unicode="-"
d="M92 369v-127h759v127h-759z" />
    <glyph glyph-name="period" unicode="." horiz-adv-x="342"
d="M180 151h-18q-33 0 -51.5 -21.5t-18.5 -43.5v-16q0 -23 18.5 -43.5t51.5 -20.5h18q34 0 52 20t18 44v16q0 23 -18.5 44t-51.5 21z" />
    <glyph glyph-name="slash" unicode="/" horiz-adv-x="1001"
d="M909 798h-169l-648 -798h168z" />
    <glyph glyph-name="zero" unicode="0"
d="M851 221v358q0 95 -121 161q-108 58 -259 58t-260 -58q-119 -65 -119 -161v-358q0 -100 119 -163q108 -58 260 -58q153 0 259 58q121 64 121 163zM707 577v-358q0 -44 -79.5 -71t-156.5 -27q-75 0 -156 27.5t-81 70.5v358q0 44 80 72t157 28q48 0 100.5 -10.5t94 -34.5
t41.5 -55z" />
    <glyph glyph-name="one" unicode="1" horiz-adv-x="664"
d="M92 550h258l79 49v-599h143v835z" />
    <glyph glyph-name="two" unicode="2" horiz-adv-x="1002"
d="M910 127h-462l371 326q56 50 56 124q0 72 -62 123t-155 76q-68 18 -122 18q-90 0 -173 -28.5t-131 -82.5q-47 -51 -47 -97q0 -4 1.5 -13t1.5 -14q0 -6 -1 -9l-1 -13h143v42q0 22 22 42q28 24 79 37t102 13q66 0 136.5 -26t70.5 -65q0 -25 -35 -54l-612 -526h818v127z" />
    <glyph glyph-name="three" unicode="3"
d="M211 58q108 -58 260 -58q154 0 259 58q121 64 121 163v22q0 93 -112 155q112 65 112 157v24q0 95 -121 161q-106 58 -259 58q-151 0 -260 -58q-119 -65 -119 -161v-42h140v13v21q0 10 1 14q3 13 21 28q37 30 98.5 48.5t118.5 18.5q89 0 172 -38q66 -33 66 -63v-24
q0 -28 -65 -58q-59 -26 -131 -31q-23 -2 -144 -2h-16v-128h16q109 0 143 -3q77 -7 131 -32q34 -16 46 -26q20 -17 20 -32v-22q0 -31 -66 -63q-80 -39 -172 -39q-93 0 -173 39q-30 14 -48 28q-23 20 -23 35v41h-135v-41q0 -100 119 -163z" />
    <glyph glyph-name="four" unicode="4" horiz-adv-x="1016"
d="M455 306l469 371v173l-832 -671h694v-179h138v440h-138v-134h-331z" />
    <glyph glyph-name="five" unicode="5"
d="M232 669h619v129h-759v-441h380q63 0 125 -16.5t100 -47.5q19 -15 19 -25q0 -34 -2 -43q-3 -22 -20.5 -37.5t-51.5 -31.5q-80 -40 -170 -40t-170 40q-70 33 -70 65v41h-140v-41q0 -99 119 -163q107 -58 261 -58q91 0 172 21.5t141 73t65 124.5q1 17 1 50q0 94 -119 158
q-108 58 -260 58h-240v184z" />
    <glyph glyph-name="six" unicode="6"
d="M851 219v91q0 97 -118 163q-100 57 -243 57q-151 0 -258 -46v93q0 29 69 65q80 40 170 40q92 0 170 -40q66 -35 66 -65v-40h144v40q0 97 -121 163q-106 58 -259 58q-151 0 -260 -58q-119 -65 -119 -163v-358q0 -96 119 -161q108 -58 260 -58q153 0 259 58q121 63 121 161
zM713 310v-91q0 -17 -20 -32q-13 -10 -47 -25q-81 -35 -175 -35q-93 0 -174 35q-65 28 -65 57v91q0 30 65 58q79 35 174 35q91 0 174 -36q33 -14 48 -25q20 -14 20 -32z" />
    <glyph glyph-name="seven" unicode="7" horiz-adv-x="988"
d="M896 798h-802v-123h532l-534 -675h165z" />
    <glyph glyph-name="eight" unicode="8"
d="M211 58q108 -58 260 -58q153 0 259 58q121 64 121 163v22q0 93 -112 155q112 65 112 157v24q0 95 -121 161q-108 58 -259 58t-260 -58q-119 -65 -119 -161v-24q0 -92 111 -156q-111 -62 -111 -156v-22q0 -100 119 -163zM299 645q87 41 172 41q89 0 173 -41q69 -35 69 -66
v-24q0 -29 -68 -64q-83 -40 -174 -40q-87 0 -172 40q-71 34 -71 64v24q0 32 71 66zM646 158q-80 -39 -175 -39q-93 0 -174 39q-27 12 -49 28q-23 20 -23 35v22q0 15 22 31q21 15 46 25q82 34 178 34q60 0 123.5 -15.5t100.5 -43.5q21 -16 21 -31v-22q0 -16 -23 -34
q-15 -13 -47 -29z" />
    <glyph glyph-name="nine" unicode="9"
d="M92 579v-91q0 -96 119 -163q104 -58 242 -58q147 0 256 46v-92q0 -32 -67 -64q-82 -41 -171 -41q-59 0 -118 19t-97 52q-22 19 -22 34v41h-142v-41q0 -100 119 -163q108 -58 260 -58q153 0 259 58q121 64 121 163v358q0 95 -121 161q-106 58 -259 58q-151 0 -260 -58
q-119 -65 -119 -161zM228 488v91q0 15 20 30q37 28 100 44t123 16t121 -15.5t97 -44.5q20 -15 20 -30v-91q0 -29 -66 -58q-79 -35 -172 -35q-94 0 -176 35q-67 30 -67 58z" />
    <glyph glyph-name="colon" unicode=":" horiz-adv-x="342"
d="M180 437h-18q-33 0 -51.5 -20.5t-18.5 -43.5v-17q0 -23 18.5 -43.5t51.5 -20.5h18q33 0 51.5 20.5t18.5 43.5v17q0 23 -18.5 43.5t-51.5 20.5zM180 151h-18q-33 0 -51.5 -21.5t-18.5 -43.5v-16q0 -23 18.5 -43.5t51.5 -20.5h18q34 0 52 20t18 44v16q0 23 -18.5 44
t-51.5 21z" />
    <glyph glyph-name="semicolon" unicode=";" horiz-adv-x="419"
d="M263 438h-18q-32 0 -51 -20.5t-19 -43.5v-17q0 -22 18.5 -43t51.5 -21h18q33 0 51.5 20.5t18.5 43.5v17q0 23 -18.5 43.5t-51.5 20.5zM92 -109h146l102 261h-148z" />
    <glyph glyph-name="less" unicode="&#x3c;" horiz-adv-x="985"
d="M893 -32v141l-549 289l549 296v136l-801 -432z" />
    <glyph glyph-name="equal" unicode="=" horiz-adv-x="665"
d="M92 509v-77h481v77h-481zM92 403v-78h481v78h-481z" />
    <glyph glyph-name="greater" unicode="&#x3e;" horiz-adv-x="985"
d="M640 398l-548 -289v-141l801 430l-801 432v-136z" />
    <glyph glyph-name="question" unicode="?" horiz-adv-x="847"
d="M440 128v215q0 2 6 5q9 3 19 3q135 0 213 70q77 68 77 168q0 102 -97 168.5t-232 66.5t-234.5 -66.5t-99.5 -168.5v-42h125v32q0 51 58 91q53 38 142 38q118 0 172 -42q43 -33 43 -77q0 -47 -33 -83q-25 -27 -64 -35q-16 -3 -47.5 -6t-41.5 -4l-34 -6q-8 -2 -18 -4
q-14 -5 -20 -8q-26 -14 -41 -44.5t-15 -55.5v-215q-18 -18 -18 -44v-16q0 -24 18.5 -44t52.5 -20h17q33 0 51.5 20.5t18.5 43.5v8q1 7 0 7q0 11 -2 16q-3 16 -16 29z" />
    <glyph glyph-name="at" unicode="@" horiz-adv-x="1172"
d="M933 714q146 -124 146 -296q0 -58 -24 -130q-30 -89 -77 -132l-58 -52l-40 -28q-62 -32 -86 -42q-94 -40 -207 -40q-206 0 -351 123t-145 300q0 173 145 297q147 123 351 123q201 0 346 -123zM745 141q5 0 61 16q-43 11 -71 37q-73 -37 -166 -37q-59 0 -115 16t-97 52.5
t-41 85.5v221q0 38 24 68t62 47.5t81 27t86 9.5q68 0 126 -19v17h60q-80 36 -168 36q-146 0 -257 -92q-111 -93 -111 -210q0 -121 110 -209q110 -90 258 -90q55 0 158 24zM820 643v-357q14 -7 38 -7q57 0 70 21q20 27 20 118q0 118 -107 208q-14 12 -21 17zM684 297
q13 8 11 13v226q-1 0 -1 0.5t-1 0.5l-3 3q-43 34 -121 34q-33 0 -80 -14q-24 -6 -37 -15q-11 -6 -11 -13v-221q0 -5 8 -10q5 -4 21 -11q51 -21 99 -21q36 0 79 13q17 5 36 15z" />
    <glyph glyph-name="A" unicode="A" horiz-adv-x="1168"
d="M92 0h161l329 570l333 -570h161l-494 847z" />
    <glyph glyph-name="B" unicode="B" horiz-adv-x="908"
d="M92 0h337q170 0 275 65q113 72 113 178q0 117 -113 182q103 60 103 154q0 98 -117 161q-109 58 -261 58h-337v-798zM429 127h-197v542h197q99 0 171 -33q62 -29 62 -57q0 -30 -62 -58q-58 -28 -141 -33q-12 -1 -68.5 -2.5t-88.5 -5.5l-13 -1v-122h15q16 0 48.5 0.5
t48.5 0.5q137 0 209 -40q63 -35 63 -75q0 -42 -63 -76q-72 -40 -181 -40z" />
    <glyph glyph-name="C" unicode="C"
d="M851 262h-146v-41q0 -29 -64 -58q-80 -36 -170 -36q-92 0 -170 36q-65 28 -65 58v358q0 27 63 57q77 33 172 33q96 0 171 -33q63 -28 63 -57v-42h146v42q0 95 -121 161q-106 58 -259 58q-151 0 -260 -58q-119 -65 -119 -161v-358q0 -99 119 -163q106 -58 260 -58
q153 0 259 58q121 64 121 163v41z" />
    <glyph glyph-name="D" unicode="D" horiz-adv-x="942"
d="M92 798v-798h16q319 0 526 111q216 117 216 288q0 170 -216 288q-204 111 -496 111h-46zM230 130v538q187 -9 330 -88q151 -85 151 -180t-152 -179q-145 -80 -329 -91z" />
    <glyph glyph-name="E" unicode="E"
d="M234 669h617v129h-759v-798h759v127h-617v209h450v128h-450v205z" />
    <glyph glyph-name="F" unicode="F"
d="M236 669h615v129h-759v-798h144v336h448v128h-448v205z" />
    <glyph glyph-name="G" unicode="G"
d="M705 302v-81q0 -29 -64 -58q-80 -36 -170 -36q-92 0 -170 36q-65 28 -65 58v358q0 27 63 57q77 33 172 33q96 0 171 -33q63 -28 63 -57v-42h146v42q0 95 -121 161q-106 58 -259 58q-151 0 -260 -58q-119 -65 -119 -161v-358q0 -99 119 -163q106 -58 260 -58q153 0 259 58
q121 64 121 163v213h-420v-132h274z" />
    <glyph glyph-name="H" unicode="H"
d="M851 798h-148v-334h-465v334h-146v-798h146v336h465v-336h148v798z" />
    <glyph glyph-name="I" unicode="I"
d="M541 669h310v129h-759v-129h311v-542h-311v-127h759v127h-310v542z" />
    <glyph glyph-name="J" unicode="J"
d="M851 798h-759v-129h613v-448q0 -29 -64 -58q-80 -36 -169 -36q-93 0 -173 36q-63 27 -63 58v41h-144v-41q0 -98 119 -163q104 -58 261 -58q158 0 262 58q117 66 117 163v577z" />
    <glyph glyph-name="K" unicode="K" horiz-adv-x="1167"
d="M484 398l592 400h-227l-495 -334h-122v334h-140v-798h140v336h122l493 -336h229z" />
    <glyph glyph-name="L" unicode="L"
d="M851 126h-619v674h-140v-800h759v126z" />
    <glyph glyph-name="M" unicode="M" horiz-adv-x="1089"
d="M997 857l-454 -400l-451 400v-857h131v568l320 -278l323 280l-1 -570h132v857z" />
    <glyph glyph-name="N" unicode="N" horiz-adv-x="1089"
d="M997 798h-140v-562l-765 614v-850h136v566l769 -618v850z" />
    <glyph glyph-name="O" unicode="O"
d="M851 221v358q0 96 -118 161q-106 58 -261 58q-152 0 -261 -58q-119 -65 -119 -161v-358q0 -98 119 -163q105 -58 261 -58q158 0 261 58q118 64 118 163zM705 579v-358q0 -29 -64 -58q-78 -36 -169 -36q-93 0 -173 36q-63 27 -63 58v358q0 29 62 57q78 33 174 33
q92 0 171 -33q62 -26 62 -57z" />
    <glyph glyph-name="P" unicode="P" horiz-adv-x="934"
d="M299 357h173q151 0 256 59q114 64 114 162t-114 162q-106 58 -256 58h-380v-798h142v669h238q93 0 165 -33q61 -29 61 -57t-61 -58q-59 -29 -134 -35q-40 -2 -60 -2q-17 0 -49.5 0.5t-48.5 0.5h-46v-128z" />
    <glyph glyph-name="Q" unicode="Q" horiz-adv-x="958"
d="M851 221v358q0 96 -118 161q-106 58 -261 58q-152 0 -261 -58q-119 -65 -119 -161v-358q0 -98 119 -163q105 -58 261 -58q131 0 228 43l76 -62l90 98l-53 43q38 46 38 99zM705 579v-358q0 -4 -2 -12l-209 167l-85 -103l166 -133q-54 -13 -103 -13q-93 0 -173 36
q-63 27 -63 58v358q0 28 63 57q73 33 173 33q95 0 170 -33q63 -28 63 -57z" />
    <glyph glyph-name="R" unicode="R" horiz-adv-x="981"
d="M707 0h182l-286 372q105 24 172 75.5t67 131.5q0 95 -114 161q-102 58 -256 58h-380v-798h140v669h240q93 0 165 -33q61 -28 61 -57q0 -35 -74 -64q-58 -22 -127 -29q-42 -2 -61 -2q-17 0 -50.5 0.5t-50.5 0.5h-36v-128h141z" />
    <glyph glyph-name="S" unicode="S" horiz-adv-x="899"
d="M92 4h346q152 0 256 63q113 68 113 170q0 45 -24.5 88t-68.5 73q-85 56 -224 68q-79 6 -102 10q-51 9 -91 29q-63 31 -63 64q0 32 63 63q71 34 164 34h332v130h-332q-153 0 -255 -60q-114 -69 -114 -168q0 -100 114 -167q74 -43 175 -54q6 0 50 -3.5t67 -5.5
q66 -7 104 -27q64 -33 64 -75q0 -20 -15.5 -34.5t-47.5 -29.5q-77 -37 -165 -37h-346v-131z" />
    <glyph glyph-name="T" unicode="T"
d="M851 798h-759v-123h311v-675h136v675h312v123z" />
    <glyph glyph-name="U" unicode="U"
d="M851 798h-142v-577q0 -30 -66 -58q-81 -36 -172 -36t-169 36q-66 29 -66 58v577h-144v-577q0 -100 119 -163q108 -58 260 -58q154 0 259 58q121 64 121 163v577z" />
    <glyph glyph-name="V" unicode="V" horiz-adv-x="1168"
d="M1076 798h-156l-337 -583l-332 583h-159l489 -848z" />
    <glyph glyph-name="W" unicode="W" horiz-adv-x="1456"
d="M875 -50l490 848h-157l-333 -571l-65 116l266 455h-163l-182 -319l-182 319h-166l264 -455l-66 -116l-335 571h-154l489 -847l148 250z" />
    <glyph glyph-name="X" unicode="X" horiz-adv-x="1210"
d="M1115 0l-416 397l419 401h-184l-330 -313l-326 313h-186l418 -401l-415 -397h188l321 311l323 -311h188z" />
    <glyph glyph-name="Y" unicode="Y" horiz-adv-x="1252"
d="M690 390l470 408h-196l-340 -293l-337 293h-195l462 -408l4 -390h135z" />
    <glyph glyph-name="Z" unicode="Z" horiz-adv-x="1175"
d="M402 122l682 678h-934v-123h629l-687 -677h920v122h-610z" />
    <glyph glyph-name="bracketleft" unicode="[" horiz-adv-x="444"
d="M221 680h131v118h-260v-798h260v117h-131v563z" />
    <glyph glyph-name="backslash" unicode="\" horiz-adv-x="1001"
d="M92 798l648 -798h169l-649 798h-168z" />
    <glyph glyph-name="bracketright" unicode="]" horiz-adv-x="444"
d="M222 117h-130v-117h260v798h-260v-118h130v-563z" />
    <glyph glyph-name="asciicircum" unicode="^" horiz-adv-x="803"
d="M401 835l175 -302h135l-310 526l-309 -526h131z" />
    <glyph glyph-name="underscore" unicode="_" horiz-adv-x="1182"
d="M92 127v-127h998v127h-998z" />
    <glyph glyph-name="a" unicode="a" horiz-adv-x="1168"
d="M92 0h161l329 570l333 -570h161l-494 847z" />
    <glyph glyph-name="b" unicode="b" horiz-adv-x="908"
d="M92 0h337q170 0 275 65q113 72 113 178q0 117 -113 182q103 60 103 154q0 98 -117 161q-109 58 -261 58h-337v-798zM429 127h-197v542h197q99 0 171 -33q62 -29 62 -57q0 -30 -62 -58q-58 -28 -141 -33q-12 -1 -68.5 -2.5t-88.5 -5.5l-13 -1v-122h15q16 0 48.5 0.5
t48.5 0.5q137 0 209 -40q63 -35 63 -75q0 -42 -63 -76q-72 -40 -181 -40z" />
    <glyph glyph-name="c" unicode="c"
d="M851 262h-146v-41q0 -29 -64 -58q-80 -36 -170 -36q-92 0 -170 36q-65 28 -65 58v358q0 27 63 57q77 33 172 33q96 0 171 -33q63 -28 63 -57v-42h146v42q0 95 -121 161q-106 58 -259 58q-151 0 -260 -58q-119 -65 -119 -161v-358q0 -99 119 -163q106 -58 260 -58
q153 0 259 58q121 64 121 163v41z" />
    <glyph glyph-name="d" unicode="d" horiz-adv-x="942"
d="M92 798v-798h16q319 0 526 111q216 117 216 288q0 170 -216 288q-204 111 -496 111h-46zM230 130v538q187 -9 330 -88q151 -85 151 -180t-152 -179q-145 -80 -329 -91z" />
    <glyph glyph-name="e" unicode="e"
d="M234 669h617v129h-759v-798h759v127h-617v209h450v128h-450v205z" />
    <glyph glyph-name="f" unicode="f"
d="M236 669h615v129h-759v-798h144v336h448v128h-448v205z" />
    <glyph glyph-name="g" unicode="g"
d="M705 302v-81q0 -29 -64 -58q-80 -36 -170 -36q-92 0 -170 36q-65 28 -65 58v358q0 27 63 57q77 33 172 33q96 0 171 -33q63 -28 63 -57v-42h146v42q0 95 -121 161q-106 58 -259 58q-151 0 -260 -58q-119 -65 -119 -161v-358q0 -99 119 -163q106 -58 260 -58q153 0 259 58
q121 64 121 163v213h-420v-132h274z" />
    <glyph glyph-name="h" unicode="h"
d="M851 798h-148v-334h-465v334h-146v-798h146v336h465v-336h148v798z" />
    <glyph glyph-name="i" unicode="i"
d="M541 669h310v129h-759v-129h311v-542h-311v-127h759v127h-310v542z" />
    <glyph glyph-name="j" unicode="j"
d="M851 798h-759v-129h613v-448q0 -29 -64 -58q-80 -36 -169 -36q-93 0 -173 36q-63 27 -63 58v41h-144v-41q0 -98 119 -163q104 -58 261 -58q158 0 262 58q117 66 117 163v577z" />
    <glyph glyph-name="k" unicode="k" horiz-adv-x="1167"
d="M484 398l592 400h-227l-495 -334h-122v334h-140v-798h140v336h122l493 -336h229z" />
    <glyph glyph-name="l" unicode="l"
d="M851 126h-619v674h-140v-800h759v126z" />
    <glyph glyph-name="m" unicode="m" horiz-adv-x="1089"
d="M997 857l-454 -400l-451 400v-857h131v568l320 -278l323 280l-1 -570h132v857z" />
    <glyph glyph-name="n" unicode="n" horiz-adv-x="1089"
d="M997 798h-140v-562l-765 614v-850h136v566l769 -618v850z" />
    <glyph glyph-name="o" unicode="o"
d="M851 221v358q0 96 -118 161q-106 58 -261 58q-152 0 -261 -58q-119 -65 -119 -161v-358q0 -98 119 -163q105 -58 261 -58q158 0 261 58q118 64 118 163zM705 579v-358q0 -29 -64 -58q-78 -36 -169 -36q-93 0 -173 36q-63 27 -63 58v358q0 29 62 57q78 33 174 33
q92 0 171 -33q62 -26 62 -57z" />
    <glyph glyph-name="p" unicode="p" horiz-adv-x="934"
d="M299 357h173q151 0 256 59q114 64 114 162t-114 162q-106 58 -256 58h-380v-798h142v669h238q93 0 165 -33q61 -29 61 -57t-61 -58q-59 -29 -134 -35q-40 -2 -60 -2q-17 0 -49.5 0.5t-48.5 0.5h-46v-128z" />
    <glyph glyph-name="q" unicode="q" horiz-adv-x="958"
d="M851 221v358q0 96 -118 161q-106 58 -261 58q-152 0 -261 -58q-119 -65 -119 -161v-358q0 -98 119 -163q105 -58 261 -58q131 0 228 43l76 -62l90 98l-53 43q38 46 38 99zM705 579v-358q0 -4 -2 -12l-209 167l-85 -103l166 -133q-54 -13 -103 -13q-93 0 -173 36
q-63 27 -63 58v358q0 28 63 57q73 33 173 33q95 0 170 -33q63 -28 63 -57z" />
    <glyph glyph-name="r" unicode="r" horiz-adv-x="981"
d="M707 0h182l-286 372q105 24 172 75.5t67 131.5q0 95 -114 161q-102 58 -256 58h-380v-798h140v669h240q93 0 165 -33q61 -28 61 -57q0 -35 -74 -64q-58 -22 -127 -29q-42 -2 -61 -2q-17 0 -50.5 0.5t-50.5 0.5h-36v-128h141z" />
    <glyph glyph-name="s" unicode="s" horiz-adv-x="899"
d="M92 4h346q152 0 256 63q113 68 113 170q0 45 -24.5 88t-68.5 73q-85 56 -224 68q-79 6 -102 10q-51 9 -91 29q-63 31 -63 64q0 32 63 63q71 34 164 34h332v130h-332q-153 0 -255 -60q-114 -69 -114 -168q0 -100 114 -167q74 -43 175 -54q6 0 50 -3.5t67 -5.5
q66 -7 104 -27q64 -33 64 -75q0 -20 -15.5 -34.5t-47.5 -29.5q-77 -37 -165 -37h-346v-131z" />
    <glyph glyph-name="t" unicode="t"
d="M851 798h-759v-123h311v-675h136v675h312v123z" />
    <glyph glyph-name="u" unicode="u"
d="M851 798h-142v-577q0 -30 -66 -58q-81 -36 -172 -36t-169 36q-66 29 -66 58v577h-144v-577q0 -100 119 -163q108 -58 260 -58q154 0 259 58q121 64 121 163v577z" />
    <glyph glyph-name="v" unicode="v" horiz-adv-x="1168"
d="M1076 798h-156l-337 -583l-332 583h-159l489 -848z" />
    <glyph glyph-name="w" unicode="w" horiz-adv-x="1456"
d="M875 -50l490 848h-157l-333 -571l-65 116l266 455h-163l-182 -319l-182 319h-166l264 -455l-66 -116l-335 571h-154l489 -847l148 250z" />
    <glyph glyph-name="x" unicode="x" horiz-adv-x="1210"
d="M1115 0l-416 397l419 401h-184l-330 -313l-326 313h-186l418 -401l-415 -397h188l321 311l323 -311h188z" />
    <glyph glyph-name="y" unicode="y" horiz-adv-x="1252"
d="M690 390l470 408h-196l-340 -293l-337 293h-195l462 -408l4 -390h135z" />
    <glyph glyph-name="z" unicode="z" horiz-adv-x="1175"
d="M402 122l682 678h-934v-123h629l-687 -677h920v122h-610z" />
    <glyph glyph-name="bar" unicode="|" horiz-adv-x="316"
d="M92 798v-798h133v798h-133z" />
    <glyph glyph-name="exclamdown" unicode="&#xa1;" horiz-adv-x="291"
d="M92 795v-656h108v656h-108zM155 126h-18q-23 0 -39 -16.5t-16 -37.5v-16q0 -22 16 -38t39 -16h18q24 0 39.5 16t15.5 38v16q0 22 -15.5 38t-39.5 16z" />
    <glyph glyph-name="sterling" unicode="&#xa3;" horiz-adv-x="1031"
d="M914 123l-469 -2q35 66 38 135h391v117h-406q-41 85 -117 139q-7 6 -21 16t-19 16q-17 17 -17 35q0 41 80 75q77 35 182 35q59 0 123 -22.5t91 -56.5l5 -6h164l-15 18q-13 17 -41 49q-111 128 -350 128q-88 0 -171.5 -24t-144 -77.5t-60.5 -125.5q0 -70 83 -134
q48 -36 71 -65h-114v-117h154q-8 -69 -71 -127q-29 -27 -71 -55q-16 -10 -45.5 -29t-37.5 -24l-34 -21h822v123z" />
    <glyph glyph-name="yen" unicode="&#xa5;" horiz-adv-x="1054"
d="M592 383v40l370 375h-178l-256 -276l-260 276h-176l369 -375v-40h-313v-115h313v-21h-313v-112h313v-135h131v135h314v112h-314v21h314v115h-314z" />
    <glyph glyph-name="copyright" unicode="&#xa9;" horiz-adv-x="1130"
d="M1002 233q36 82 36 171q0 88 -36 171q-50 117 -166.5 197.5t-270.5 80.5q-155 0 -270.5 -80t-166.5 -198q-36 -83 -36 -171t36 -171q51 -117 167 -197.5t270 -80.5t270.5 80.5t166.5 197.5zM250 277q-27 62 -27 127q0 72 31 135q39 84 121.5 139.5t189.5 55.5
q106 0 189 -56t122 -139q30 -64 30 -135q0 -65 -27 -127q-38 -86 -121.5 -144.5t-192.5 -58.5t-193 58.5t-122 144.5zM436 290v222q0 6 11 13q13 7 38 14q43 13 79 13q28 0 63.5 -8.5t53.5 -20.5q10 -6 10 -11v-43h125v43q0 69 -83 114q-67 37 -169 37q-94 0 -173 -39.5
t-79 -111.5v-222q0 -73 77.5 -113t174.5 -40q60 0 115.5 15.5t96 52t40.5 85.5v41h-125v-41q0 -16 -48 -29q-45 -14 -79 -14q-49 0 -97 20q-16 8 -22 12q-9 6 -9 11z" />
    <glyph glyph-name="guillemotleft" unicode="&#xab;" horiz-adv-x="1366"
d="M893 -32v141l-549 289l549 296v136l-801 -432zM1275 -32v141l-548 289l548 296v136l-801 -432z" />
    <glyph glyph-name="registered" unicode="&#xae;" horiz-adv-x="1130"
d="M1002 233q36 82 36 171q0 88 -36 171q-50 117 -166.5 197.5t-270.5 80.5q-155 0 -270.5 -80t-166.5 -198q-36 -83 -36 -171t36 -171q51 -117 167 -197.5t270 -80.5t270.5 80.5t166.5 197.5zM800 166q-97 -92 -235 -92q-109 0 -193 58.5t-122 144.5q-27 62 -27 127
q0 72 31 135q39 84 121.5 139.5t189.5 55.5q106 0 189 -56t122 -139q30 -64 30 -135q0 -65 -27 -127q-19 -45 -51 -81l-142 186q120 38 120 128q0 66 -69 102.5t-156 36.5h-235v-483h121v200h83l151 -200h99zM467 475v66h114q30 0 66 -10q22 -7 31 -12q9 -6 9 -9q0 -1 -2 -3
q-1 -3 -6 -6q-34 -27 -137 -27q-42 0 -63 1h-12z" />
    <glyph glyph-name="degree" unicode="&#xb0;" horiz-adv-x="657"
d="M325 566q106 0 173 65t67 146t-66.5 147t-173.5 66q-105 0 -169 -66.5t-64 -146.5t64.5 -145.5t168.5 -65.5zM325 690q-39 0 -66.5 27t-27.5 60q0 35 27 62t67 27q43 0 71.5 -26.5t28.5 -62.5q0 -35 -29 -61t-71 -26z" />
    <glyph glyph-name="guillemotright" unicode="&#xbb;" horiz-adv-x="1366"
d="M640 398l-548 -289v-141l801 430l-801 432v-136zM1024 398l-550 -289v-141l801 430l-801 432v-137z" />
    <glyph glyph-name="questiondown" unicode="&#xbf;" horiz-adv-x="847"
d="M528 719h-121v-237q-2 -2 -3 -2q-6 -4 -23 -4q-139 0 -214 -70q-75 -69 -75 -167q0 -102 96.5 -169.5t230.5 -67.5q133 0 234.5 67.5t101.5 167.5v42h-127v-33q0 -29 -13.5 -48.5t-44.5 -41.5q-57 -39 -142 -39q-113 0 -170 44q-44 33 -44 76q0 47 34 83q30 31 79 38
q8 1 24.5 2.5t24.5 2.5q24 1 57 8q3 1 9.5 2.5t9.5 2.5q14 4 21 8q26 14 40.5 43t14.5 55v237z" />
    <glyph glyph-name="multiply" unicode="&#xd7;" horiz-adv-x="815"
d="M662 269l-159 152l153 145l-99 96l-152 -146l-160 151l-93 -91l157 -152l-153 -153l98 -94l155 152l160 -152z" />
    <glyph glyph-name="divide" unicode="&#xf7;" horiz-adv-x="737"
d="M315 543v-18q0 -18 13 -31t32 -13h18q19 0 32 13t13 31v18q0 18 -13 31t-32 13h-18q-19 0 -32 -13t-13 -31zM645 462h-553v-85h553v85zM314 310v-18q0 -18 13 -31t32 -13h18q19 0 32 13t13 31v18q0 18 -13 31t-32 13h-18q-19 0 -32 -13t-13 -31z" />
    <glyph glyph-name="quoteleft" unicode="&#x2018;" horiz-adv-x="282"
d="M101 610h98l-41 178h-87z" />
    <glyph glyph-name="quoteright" unicode="&#x2019;" horiz-adv-x="282"
d="M110 788l-39 -178h96l32 178h-89z" />
    <glyph glyph-name="quotedblleft" unicode="&#x201c;" horiz-adv-x="389"
d="M101 610h98l-41 178h-87zM213 608h95l-41 180h-91z" />
    <glyph glyph-name="quotedblright" unicode="&#x201d;" horiz-adv-x="389"
d="M111 788l-40 -180h94l37 180h-91zM220 788l-39 -178h96l31 178h-88z" />
    <glyph glyph-name="guilsinglleft" unicode="&#x2039;" horiz-adv-x="985"
d="M893 -32v141l-549 289l549 296v136l-801 -432z" />
    <glyph glyph-name="guilsinglright" unicode="&#x203a;" horiz-adv-x="985"
d="M92 830v-140l548 -292l-548 -293v-137l801 430z" />
    <glyph glyph-name="trademark" unicode="&#x2122;" horiz-adv-x="975"
d="M883 840l-223 -200l-223 200v-47h-345v-83h141v-313h94v313h110v-313h91v245l132 -116l133 117l-1 -246h91v443z" />
    <glyph glyph-name="_FSHallmark" horiz-adv-x="949"
d="M50 751h851v-101h-851v101zM791 461q0 9 -8 23q-8 10 -19 18q-23 10 -24 10q-18 4 -24 4q-24 0 -50 -14q-21 -14 -21 -29q0 -31 20 -42q29 -14 45 -17l37 -9l31 -7q21 -7 30 -7q16 -3 25 -7q3 -2 10.5 -5.5t10.5 -5.5q23 -14 32 -28q10 -16 13 -45q3 -26 -11 -50
q-23 -44 -75 -61q-48 -15 -95 -15q-44 0 -71 8q-31 10 -59 30q-25 16 -43 47q-16 28 -16 68l99 -2q0 -6 5 -16q1 -13 14 -26t26 -18q18 -10 48 -10q33 0 54 12q21 11 21 27q0 32 -81 47q-84 23 -125 46q-51 26 -51 85q0 48 33 76q31 25 75 41q35 8 71 8q50 0 95 -19
q49 -19 68 -67q12 -31 12 -50h-102zM162 174h-112v422h359v-96h-247v-95h205v-94h-205v-137zM398 224q0 24 15 37q14 13 36 13q23 0 41 -15q17 -12 17 -35q0 -20 -17 -35q-17 -13 -41 -13q-19 0 -34 15q-17 15 -17 33zM48 121h851v-101h-851v101z" />
    <glyph glyph-name="_Fontastica" horiz-adv-x="736"
d="M154 127h-105q-1 2 -1 5v618h463v-95h-357v-254h357v-96h-357v-178zM221 573h358v177h105v-621h-463v94h358v255h-358v95zM579 66q-6 -4 -6 -8q0 -10 4 -14q6 -6 11 -6q10 0 18 6l6 -6q-11 -11 -24 -11q-5 0 -19 6q-7 12 -8 21q0 12 7 20q10 10 20 10q12 0 24 -10l-6 -8
l-5 5q-1 1 -9 1h-4q-8 -4 -9 -6zM49 82h39v-10h-26v-13h25v-9h-25v-21h-13v53zM137 82q18 0 26 -14q8 -12 2 -24q-4 -14 -24 -17l-5 -2q-8 0 -12 4q-16 6 -16 24q0 14 7 21q7 8 22 8zM240 29h-4q-3 -2 -4 -2q-2 0 -8 6l-7 8q0 1 -1 2.5t-2 2.5t-1 2l-10 13v-32h-13v53h10
q5 -1 6 -7q6 -7 11 -14q5 -5 11 -15v36h12v-53zM261 82h45v-10h-16v-43h-11v43h-18v10zM428 58q11 0 11 -14q2 -11 -10 -15q-1 -2 -11 -2q-16 0 -23 9v2l1 2q0 1 2 4l17 -6h7l4 3q0 9 -12 12q-3 0 -3 1h-4q-9 4 -9 12q-3 9 8 14q6 2 11 2q14 0 22 -4l-4 -10l-4 2h-3
q-1 1 -4 1q-1 0 -2 1h-7q-4 0 -4 -2q-1 -2 4 -9q2 0 5 -1t5 -1.5t3 -0.5zM456 82h47v-10h-16v-43h-13v43h-18v10zM525 82h13v-53h-13v53zM665 82l12 -24q1 -4 6 -17q3 -10 5 -12h-11l-6 11h-26l-4 -11h-12q11 19 21 53h15zM354 80l6 -12q4 -8 6 -11q3 -6 5 -16
q0 -1 0.5 -3.5t2 -5t1.5 -3.5h-12q-1 1 -1 4l-2 7h-27v-8l-3 -3h-10l21 51h13zM151 57q0 7 -4 11t-11 4q-2 -1 -5 -1q-1 0 -2 -1.5t-3 -4t-4 -4.5q-8 -3 -2 -11q4 -12 17 -12h4q10 3 10 16v3zM356 50l-2 4q-3 5 -4 5q-1 1 -1 5q-1 1 -1 3t-1 3l-10 -20h19zM667 50l-2 4
q0 3 -2 5q-2 1 -2 5l-3 6l-9 -20h18z" />
    </font>
</defs>
</svg>
