<?xml version="1.0" standalone="no"?>
<!DOCTYPE svg PUBLIC "-//W3C//DTD SVG 1.1//EN" "http://www.w3.org/Graphics/SVG/1.1/DTD/svg11.dtd" >
<svg xmlns="http://www.w3.org/2000/svg" version="1.1">
<metadata>
Created by FontForge 20170731 at Wed Oct  9 20:13:19 2019
 By Aleksey,,,
Copyright (c) 2019 by Fontastica. All rights reserved.
</metadata>
<defs>
<font id="Walter-LightItalic" horiz-adv-x="892" >
  <font-face
    font-family="Walter Light Italic"
    font-weight="300"
    font-style="italic"
    font-stretch="normal"
    units-per-em="1067"
    panose-1="0 0 4 0 0 0 0 0 0 0"
    ascent="853"
    descent="-214"
    x-height="785"
    cap-height="785"
    bbox="48 -116 1411 1023"
    underline-thickness="50"
    underline-position="-200"
    slope="-9"
    unicode-range="U+0020-2122"
  />
<missing-glyph horiz-adv-x="812"
d="M247 981l-154 -972h628l154 972h-628zM495 557l-163 383h448zM448 493l-276 -381l124 762zM522 493l272 381l-117 -740zM191 48l284 383l164 -383h-448z" />
    <glyph glyph-name=".notdef" horiz-adv-x="812"
d="M247 981l-154 -972h628l154 972h-628zM495 557l-163 383h448zM448 493l-276 -381l124 762zM522 493l272 381l-117 -740zM191 48l284 383l164 -383h-448z" />
    <glyph glyph-name=".null" horiz-adv-x="404"
 />
    <glyph glyph-name="nonmarkingreturn" horiz-adv-x="355"
 />
    <glyph glyph-name="space" unicode=" " horiz-adv-x="800"
 />
    <glyph glyph-name="exclam" unicode="!" horiz-adv-x="251"
d="M242 784q-15 0 -27 -10t-14 -25l-3 -17q-2 -15 6.5 -25t23.5 -10h17q15 0 27 10t14 25l3 17q2 15 -6.5 25t-23.5 10h-17zM261 642h-67l-102 -642h68z" />
    <glyph glyph-name="quotedbl" unicode="&#x22;" horiz-adv-x="361"
d="M217 789l-26 -167h67l27 167h-68zM326 789l-27 -167h69l26 167h-68z" />
    <glyph glyph-name="numbersign" unicode="#" horiz-adv-x="1191"
d="M1223 774h-71l-244 -264h-272l242 264h-65l-245 -264h-230l-40 -42h230l-120 -124h-227l-41 -45h226l-272 -284h74l270 284h276l-280 -284h68l272 284h203l40 45h-202l116 124h205l38 42h-200zM754 344h-274l117 124h269z" />
    <glyph glyph-name="dollar" unicode="$" horiz-adv-x="848"
d="M666 66q111 65 125 154q13 86 -60 145q-2 2 -16 11q-5 2 -15 8q-62 33 -162 45l45 283h272l11 71h-272l21 133h-68l-21 -133q-127 -9 -218 -59q-111 -61 -125 -150q-6 -38 6.5 -70.5t37 -55t58 -39.5t66.5 -26t65 -12q14 -2 44 -4l-46 -290h-310l-11 -73h309l-16 -106h68
l17 108q107 10 195 60zM514 712l-44 -278q-79 7 -151.5 45.5t-63.5 95.5q6 40 54.5 71.5t101 46t103.5 19.5zM653 328q33 -18 52.5 -47t13.5 -62q-6 -38 -48.5 -69t-91.5 -47.5t-96 -22.5l44 281q83 -9 126 -33z" />
    <glyph glyph-name="percent" unicode="%"
d="M229 672q-11 -67 32.5 -112.5t111.5 -45.5t127.5 45.5t69.5 112.5q11 69 -33 114.5t-114 45.5q-69 0 -126.5 -46t-67.5 -114zM915 787h-75l-748 -784l74 -3zM510 672q-7 -43 -45 -72t-83 -29q-44 0 -72 29.5t-21 71.5q7 44 43.5 73.5t81.5 29.5q46 0 74.5 -29.5
t21.5 -73.5zM472 156q-11 -67 32 -112.5t111 -45.5t127.5 45t70.5 113q11 69 -33 114.5t-114 45.5q-69 0 -126.5 -46t-67.5 -114zM753 156q-7 -43 -45.5 -72t-83.5 -29q-43 0 -71 29.5t-21 71.5q7 44 43.5 73.5t81.5 29.5q46 0 74.5 -29.5t21.5 -73.5z" />
    <glyph glyph-name="ampersand" unicode="&#x26;" horiz-adv-x="853"
d="M295 -20q3 0 8 -0.5t7 -0.5q147 0 311 117l93 -110l8 7q6 5 18 13q9 5 20 13l5 3l2 12l-89 100l118 88l-43 40l-106 -77l-182 228q106 81 115 88q26 20 47 53.5t25 64.5q12 75 -34 130.5t-122 55.5q-87 0 -154 -51t-81 -138q-2 -7 -1 -30.5t6 -30.5l89 -128
q-142 -87 -206 -176q-22 -31 -29 -71q-4 -34 4 -68q13 -51 42.5 -80t81.5 -43q41 -8 47 -9zM538 547q-88 -69 -114 -87l-8 9q-5 5 -13 15q-11 15 -22.5 32t-25 38t-21.5 32t-3 32q9 56 52.5 89t101.5 33q48 0 78 -36t22 -84q-7 -43 -47 -73zM588 144q-56 -40 -128.5 -69.5
t-127.5 -29.5q-69 0 -101 35q-22 23 -29.5 44.5t-2.5 54.5q14 92 199 197z" />
    <glyph glyph-name="quotesingle" unicode="'" horiz-adv-x="253"
d="M217 789l-26 -167h68l27 167h-69z" />
    <glyph glyph-name="parenleft" unicode="(" horiz-adv-x="459"
d="M281 0h87l-18 18q-167 172 -135 375q32 204 254 374l23 18h-86l-4 -3q-214 -178 -248 -389q-32 -210 125 -390z" />
    <glyph glyph-name="parenright" unicode=")" horiz-adv-x="459"
d="M303 785h-87l18 -18q166 -170 134 -374q-32 -203 -252 -375l-24 -18h86l4 3q214 180 248 389q33 210 -125 390z" />
    <glyph glyph-name="asterisk" unicode="*" horiz-adv-x="499"
d="M508 639l8 49h-84l68 47l-37 32l-72 -48l11 69h-56l-11 -69l-55 48l-49 -32l52 -47h-82l-8 -49h82l-66 -45l38 -33l71 48l-11 -69h56l11 69l56 -48l48 33l-53 45h83z" />
    <glyph glyph-name="plus" unicode="+" horiz-adv-x="722"
d="M690 385l11 66h-234l27 169h-72l-27 -169h-232l-10 -66h231l-26 -169h72l27 169h233z" />
    <glyph glyph-name="comma" unicode="," horiz-adv-x="335"
d="M74 -116h71l113 210h-73z" />
    <glyph glyph-name="hyphen" unicode="-"
d="M144 327l-11 -69h708l11 69h-708z" />
    <glyph glyph-name="period" unicode="." horiz-adv-x="272"
d="M142 93q-15 0 -27 -10t-14 -25l-3 -17q-2 -15 7 -25t23 -10h18q15 0 27 10t14 25l3 17q2 15 -7 25t-23 10h-18z" />
    <glyph glyph-name="slash" unicode="/" horiz-adv-x="883"
d="M915 785h-83l-740 -785h81z" />
    <glyph glyph-name="zero" unicode="0"
d="M314 728q-116 -59 -129 -143l-61 -383q-13 -85 83 -145q94 -57 239 -57q147 0 258 57q115 60 128 145l60 383q13 84 -82 143q-91 57 -240 57q-147 0 -256 -57zM456 62q-38 0 -82.5 7.5t-88 23t-70 43.5t-20.5 64l61 383q6 36 40.5 65t83 44t95.5 23t85 8q39 0 83 -7.5
t88 -23t69.5 -44t19.5 -65.5l-60 -383q-6 -36 -41 -64t-83.5 -43.5t-95 -23t-84.5 -7.5z" />
    <glyph glyph-name="one" unicode="1" horiz-adv-x="520"
d="M185 588h132l145 84l-106 -672h72l125 794z" />
    <glyph glyph-name="two" unicode="2" horiz-adv-x="900"
d="M819 69h-530l511 405q53 42 64 109q9 56 -22 92t-86 65q-79 41 -174 41q-77 0 -163 -26.5t-137 -78.5q-47 -47 -53 -84q0 -2 -0.5 -4.5t-0.5 -3.5v-10h70l2 11q5 36 46 68q83 64 223 64q71 0 142.5 -27t87.5 -76q5 -15 2 -28q-6 -38 -61 -81l-648 -505h716z" />
    <glyph glyph-name="three" unicode="3"
d="M706 392q68 26 120.5 68t61.5 99l4 26q13 84 -82 143q-91 57 -240 57q-147 0 -256 -57q-116 -59 -129 -143l-2 -11h70l1 11q8 51 105 96q96 45 202 45q107 0 189 -45q81 -43 73 -96l-4 -26q-8 -51 -102 -91q-98 -40 -202 -40h-85l-11 -69h85q107 0 189 -41q81 -41 73 -92
l-4 -24q-8 -51 -103 -96q-96 -46 -204 -46q-104 0 -190 46q-84 45 -76 96l1 11h-64l-2 -11q-13 -85 83 -145q94 -57 239 -57q147 0 258 57q115 60 128 145l3 24q9 58 -29.5 99.5t-99.5 66.5z" />
    <glyph glyph-name="four" unicode="4" horiz-adv-x="910"
d="M316 260l614 445l14 92l-822 -605h661l-31 -192h66l64 403h-66l-22 -143h-478z" />
    <glyph glyph-name="five" unicode="5"
d="M275 715h638l11 70h-708l-64 -403h355q107 0 190 -40q38 -19 57 -37q27 -24 23 -53q-7 -36 -10 -49q-10 -53 -109 -99q-99 -47 -202 -47q-106 0 -188 47t-74 98l1 11h-69l-2 -11q-13 -85 83 -145q93 -57 240 -57q148 0 258 57q110 58 126 145l9 51q13 82 -82 141
q-93 58 -240 58h-285z" />
    <glyph glyph-name="six" unicode="6"
d="M831 200l16 97q14 86 -82 147q-83 55 -221 55q-193 0 -315 -75l25 159q8 53 105 98q95 47 202 47t188 -47q81 -45 71 -98l-1 -10h71l2 10q13 85 -82 145q-91 57 -240 57q-147 0 -256 -57q-116 -60 -130 -145l-60 -383q-13 -84 83 -143q94 -57 239 -57q147 0 258 57
q115 60 127 143zM781 297l-15 -97q-8 -50 -104 -90q-102 -41 -205 -41q-106 0 -189 41q-83 39 -75 90l16 97q8 52 103 93q99 41 202 41q106 0 192 -42q83 -40 75 -92z" />
    <glyph glyph-name="seven" unicode="7" horiz-adv-x="903"
d="M935 785h-719l-10 -64h584l-667 -721h79z" />
    <glyph glyph-name="eight" unicode="8"
d="M706 392q68 26 120.5 68t61.5 99l4 26q13 84 -82 143q-91 57 -240 57q-147 0 -256 -57q-116 -59 -129 -143l-4 -26q-10 -56 29.5 -99t99.5 -68q-69 -24 -121 -65.5t-61 -100.5l-4 -24q-13 -85 83 -145q94 -57 239 -57q147 0 258 57q115 60 128 145l3 24q9 58 -29.5 99.5
t-99.5 66.5zM322 462q-84 47 -76 97l4 26q8 53 107 99q101 48 205 48q108 0 190 -48q84 -45 75 -99l-4 -26q-9 -51 -106 -97q-102 -47 -205 -47q-104 0 -190 47zM696 316q85 -39 77 -90l-4 -24q-8 -50 -107 -96q-103 -46 -207 -46q-105 0 -192 46q-84 45 -76 96l3 24
q8 51 106 90q100 39 206 39q107 0 194 -39z" />
    <glyph glyph-name="nine" unicode="9"
d="M185 585l-16 -97q-13 -83 83 -146q87 -56 220 -56q193 0 315 75l-25 -159q-8 -52 -104 -97q-101 -48 -203 -48t-186 48q-81 47 -73 97l1 11h-71l-2 -11q-13 -85 83 -145q94 -57 239 -57q147 0 258 57q115 60 128 145l60 383q13 84 -82 143q-91 57 -240 57
q-147 0 -256 -57q-116 -59 -129 -143zM235 488l15 97q8 51 105 90q98 40 204 40q107 0 190 -40q82 -38 74 -90l-16 -97q-8 -52 -102 -92q-95 -41 -203 -41t-191 41q-84 40 -76 92z" />
    <glyph glyph-name="colon" unicode=":" horiz-adv-x="272"
d="M191 400q-15 0 -27 -10.5t-14 -24.5l-3 -18q-2 -14 6.5 -24.5t23.5 -10.5h18q14 0 26 10.5t14 24.5l3 18q2 14 -6.5 24.5t-23.5 10.5h-17zM142 93q-15 0 -27 -10t-14 -25l-3 -17q-2 -15 7 -25t23 -10h18q15 0 27 10t14 25l3 17q2 15 -7 25t-23 10h-18z" />
    <glyph glyph-name="semicolon" unicode=";" horiz-adv-x="330"
d="M262 401q-15 0 -27 -10.5t-14 -24.5l-3 -18q-2 -14 6.5 -24.5t23.5 -10.5h18q14 0 26 10.5t14 24.5l3 18q2 14 -6.5 24.5t-23.5 10.5h-17zM74 -116h71l113 210h-73z" />
    <glyph glyph-name="less" unicode="&#x3c;" horiz-adv-x="903"
d="M810 -7l11 71l-549 328l654 334l10 67l-782 -401z" />
    <glyph glyph-name="equal" unicode="=" horiz-adv-x="649"
d="M171 499l-9 -58h465l9 58h-465zM154 391l-9 -59h465l9 59h-465z" />
    <glyph glyph-name="greater" unicode="&#x3e;" horiz-adv-x="903"
d="M755 392l-653 -328l-11 -71l782 399l-655 401l-11 -67z" />
    <glyph glyph-name="question" unicode="?" horiz-adv-x="793"
d="M302 751q-101 -65 -116 -155l-1 -11h53l2 11q9 58 92 113q74 48 179 48q135 0 193 -54q51 -47 41 -107q-9 -62 -60 -110t-133 -55q-44 -4 -60 -6q-45 -6 -61 -14q-20 -11 -34.5 -33.5t-18.5 -44.5l-34 -218h51l34 218q3 20 23.5 31t46.5 11q126 0 204 64q77 65 92 156
q15 92 -63 156q-76 63 -203 63q-128 0 -227 -63zM356 91q-14 0 -26 -10t-14 -25l-3 -17q-2 -15 6.5 -25t23.5 -10h17q15 0 27 10t14 25l3 17q2 15 -6.5 25t-23.5 10h-18z" />
    <glyph glyph-name="at" unicode="@" horiz-adv-x="1130"
d="M1050 268q42 79 52 144q27 170 -92 293q-119 122 -314 122q-197 0 -354 -122q-159 -122 -186 -294q-27 -173 92 -295q121 -122 316 -122q148 0 278 73l38 21l-41 -2q-78 -2 -117 -4q-1 -1 -5 -1l-6 -2q-11 -3 -14 -4q-18 -5 -26 -7q-46 -10 -97 -10q-168 0 -276 104
t-85 248t164 250q141 107 309 107q167 0 273 -107q107 -107 84 -248l-3 -17q-5 -28 -18.5 -67.5t-26.5 -58.5q-14 -20 -47 -29.5t-66 -9.5q-26 0 -49 10q-24 9 -22 28l63 393h-54l-6 -41q-59 44 -162 44q-94 0 -161 -36q-74 -37 -83 -93l-37 -237q-10 -55 53 -93
q59 -37 149 -37q115 0 188 52q11 -26 41 -42.5t59 -16.5q56 0 97.5 20t78.5 67l6 7q4 6 6 10l3 7zM802 545l-39 -247q-4 -36 -73 -59q-54 -19 -108 -19q-65 0 -115 25q-47 23 -43 53l38 237q6 36 74 59q57 19 108 19q65 0 115 -25q11 -5 29 -19q14 -14 14 -24z" />
    <glyph glyph-name="A" unicode="A" horiz-adv-x="1079"
d="M92 0h82l467 652l264 -652h82l-323 796z" />
    <glyph glyph-name="B" unicode="B" horiz-adv-x="857"
d="M802 226q21 135 -127 194q65 24 114.5 65.5t59.5 99.5q13 84 -82 143q-90 57 -239 57h-312l-124 -785h311q164 0 272 64q111 68 127 162zM414 69h-242l103 646h242q107 0 187 -40q77 -39 69 -90q-8 -52 -98 -92q-68 -31 -148 -38q-26 -3 -151 -5l-10 -1l-11 -67h11
q116 0 157 -4q85 -9 140 -43q74 -45 64 -109t-99 -110q-93 -47 -214 -47z" />
    <glyph glyph-name="C" unicode="C"
d="M270 111q-80 41 -72 91l60 383q8 51 101 90q93 40 200 40q108 0 188 -40q80 -39 72 -90l-2 -11h74l1 11q13 84 -82 143q-91 57 -240 57q-147 0 -256 -57q-116 -59 -129 -143l-61 -383q-13 -85 83 -145q94 -57 239 -57q147 0 258 57q115 60 128 145l1 11h-73l-2 -11
q-8 -51 -100 -91q-98 -42 -201 -42t-187 42z" />
    <glyph glyph-name="D" unicode="D" horiz-adv-x="891"
d="M699 672q-179 113 -472 113h-11l-124 -785h11q288 0 508 114q225 117 250 279q25 161 -162 279zM586 173q-191 -100 -415 -102l102 643q231 -2 383 -100q157 -100 139 -220q-19 -119 -209 -221z" />
    <glyph glyph-name="E" unicode="E"
d="M277 715h636l11 70h-708l-124 -785h708l11 69h-637l46 290h464l11 69h-464z" />
    <glyph glyph-name="F" unicode="F"
d="M279 715h634l11 70h-708l-124 -785h74l56 359h462l11 69h-462z" />
    <glyph glyph-name="G" unicode="G"
d="M270 111q-80 41 -72 91l60 383q8 51 101 90q93 40 200 40q108 0 188 -40q80 -39 72 -90l-2 -11h74l1 11q13 84 -82 143q-91 57 -240 57q-147 0 -256 -57q-116 -59 -129 -143l-61 -383q-13 -85 83 -145q94 -57 239 -57q147 0 258 57q115 60 128 145l30 194h-356l-12 -73
h283l-19 -121q-9 -52 -100 -91q-98 -42 -201 -42t-187 42z" />
    <glyph glyph-name="H" unicode="H"
d="M924 785h-75l-57 -357h-557l57 357h-76l-124 -785h76l56 359h557l-57 -359h76z" />
    <glyph glyph-name="I" unicode="I"
d="M594 715h319l11 70h-708l-11 -70h321l-103 -646h-320l-11 -69h708l11 69h-319z" />
    <glyph glyph-name="J" unicode="J"
d="M924 785h-708l-11 -70h634l-81 -513q-9 -52 -100 -91q-98 -42 -200 -42q-105 0 -189 42q-80 39 -71 91l1 11h-73l-2 -11q-13 -85 83 -145q93 -57 240 -57q148 0 258 57q114 61 127 145z" />
    <glyph glyph-name="K" unicode="K" horiz-adv-x="1052"
d="M460 392l625 393h-111l-570 -357h-175l57 357h-70l-124 -785h70l56 359h176l454 -359h113z" />
    <glyph glyph-name="L" unicode="L"
d="M810 68h-638l114 719h-69l-125 -787h708z" />
    <glyph glyph-name="M" unicode="M" horiz-adv-x="1044"
d="M1079 799l-494 -393l-367 393l-126 -799h61l104 656l315 -332l426 334l-107 -658h61z" />
    <glyph glyph-name="N" unicode="N" horiz-adv-x="1044"
d="M1076 785h-69l-102 -643l-687 655l-126 -797h66l102 649l690 -661z" />
    <glyph glyph-name="O" unicode="O"
d="M832 202l60 383q13 83 -81 143q-91 57 -240 57q-147 0 -257 -57q-116 -59 -129 -143l-61 -383q-13 -85 83 -145q93 -57 240 -57q148 0 258 57q114 61 127 145zM819 585l-61 -383q-9 -52 -100 -91q-98 -42 -200 -42q-104 0 -189 42q-80 39 -71 91l60 383q8 53 100 90
q98 40 202 40t187 -40q81 -36 72 -90z" />
    <glyph glyph-name="P" unicode="P" horiz-adv-x="883"
d="M805 728q-87 57 -234 57h-355l-124 -785h72l113 715h283q106 0 183 -40q77 -39 69 -90q-8 -52 -98 -92q-72 -33 -161 -40q-14 -1 -165 -1h-11l-11 -70h141q146 0 252 57q110 59 124 145q13 84 -78 144z" />
    <glyph glyph-name="Q" unicode="Q" horiz-adv-x="895"
d="M832 202l60 383q13 83 -81 143q-91 57 -240 57q-148 0 -257 -57q-116 -59 -129 -143l-61 -383q-13 -85 83 -145q91 -57 240 -57q140 0 249 53l60 -57l55 52l-49 46q61 47 70 108zM819 585l-61 -383q-5 -33 -45 -62l-187 178l-52 -55l167 -159q-91 -35 -183 -35
q-104 0 -189 42q-80 39 -71 91l60 383q8 51 100 90q98 40 202 40t187 -40q80 -38 72 -90z" />
    <glyph glyph-name="R" unicode="R" horiz-adv-x="899"
d="M710 0h97l-226 386q45 6 90 19.5t92.5 36t80 60t39.5 83.5q13 83 -78 143q-86 57 -234 57h-355l-124 -785h70l113 715h285q104 0 183 -40q77 -38 69 -90q-8 -53 -98 -91q-94 -42 -196 -42h-141l-11 -70h129z" />
    <glyph glyph-name="S" unicode="S" horiz-adv-x="848"
d="M322 477q-75 44 -67 98t98 96q92 41 196 41h306l11 71h-306q-147 0 -252 -59q-111 -63 -125 -150q-14 -88 77 -151q63 -42 156 -52q16 -2 58.5 -5t65.5 -6q77 -11 113 -32q77 -44 66 -109q-8 -57 -99 -98q-94 -44 -196 -44h-320l-11 -73h320q146 0 253 62q111 65 125 154
q13 86 -60 145q-68 54 -202 65q-71 5 -109 12q-56 12 -98 35z" />
    <glyph glyph-name="T" unicode="T"
d="M924 785h-708l-10 -64h321l-114 -721h66l114 721h321z" />
    <glyph glyph-name="U" unicode="U"
d="M924 785h-70l-92 -583q-8 -51 -102 -91q-98 -42 -203 -42q-103 0 -187 42q-80 41 -72 91l92 583h-74l-92 -583q-13 -85 83 -145q94 -57 239 -57q147 0 258 57q115 60 128 145z" />
    <glyph glyph-name="V" unicode="V" horiz-adv-x="1079"
d="M1111 785h-77l-476 -665l-262 665h-80l320 -796z" />
    <glyph glyph-name="W" unicode="W" horiz-adv-x="1377"
d="M838 -11l573 796h-79l-471 -652l-77 200l327 452h-84l-274 -383l-148 383h-88l183 -452l-142 -200l-267 652h-75l319 -796l195 267z" />
    <glyph glyph-name="X" unicode="X" horiz-adv-x="1074"
d="M979 0l-333 391l460 394h-88l-413 -351l-298 351h-91l336 -394l-457 -391h92l404 349l296 -349h92z" />
    <glyph glyph-name="Y" unicode="Y" horiz-adv-x="1107"
d="M645 397l494 388h-95l-419 -327l-312 327h-97l365 -388l-59 -397h63z" />
    <glyph glyph-name="Z" unicode="Z" horiz-adv-x="1041"
d="M256 63l819 724h-844l-10 -64h696l-825 -723h830l10 63h-676z" />
    <glyph glyph-name="bracketleft" unicode="[" horiz-adv-x="377"
d="M266 726h134l10 59h-194l-124 -785h193l9 58h-134z" />
    <glyph glyph-name="backslash" unicode="\" horiz-adv-x="883"
d="M216 785l492 -785h83l-494 785h-81z" />
    <glyph glyph-name="bracketright" unicode="]" horiz-adv-x="377"
d="M235 58h-134l-9 -58h193l125 785h-194l-9 -59h134z" />
    <glyph glyph-name="asciicircum" unicode="^" horiz-adv-x="700"
d="M498 934l146 -365h54l-185 454l-331 -454h51z" />
    <glyph glyph-name="underscore" unicode="_" horiz-adv-x="1140"
d="M103 69l-11 -69h956l11 69h-956z" />
    <glyph glyph-name="a" unicode="a" horiz-adv-x="1079"
d="M92 0h82l467 652l264 -652h82l-323 796z" />
    <glyph glyph-name="b" unicode="b" horiz-adv-x="857"
d="M802 226q21 135 -127 194q65 24 114.5 65.5t59.5 99.5q13 84 -82 143q-90 57 -239 57h-312l-124 -785h311q164 0 272 64q111 68 127 162zM414 69h-242l103 646h242q107 0 187 -40q77 -39 69 -90q-8 -52 -98 -92q-68 -31 -148 -38q-26 -3 -151 -5l-10 -1l-11 -67h11
q116 0 157 -4q85 -9 140 -43q74 -45 64 -109t-99 -110q-93 -47 -214 -47z" />
    <glyph glyph-name="c" unicode="c"
d="M270 111q-80 41 -72 91l60 383q8 51 101 90q93 40 200 40q108 0 188 -40q80 -39 72 -90l-2 -11h74l1 11q13 84 -82 143q-91 57 -240 57q-147 0 -256 -57q-116 -59 -129 -143l-61 -383q-13 -85 83 -145q94 -57 239 -57q147 0 258 57q115 60 128 145l1 11h-73l-2 -11
q-8 -51 -100 -91q-98 -42 -201 -42t-187 42z" />
    <glyph glyph-name="d" unicode="d" horiz-adv-x="891"
d="M699 672q-179 113 -472 113h-11l-124 -785h11q288 0 508 114q225 117 250 279q25 161 -162 279zM586 173q-191 -100 -415 -102l102 643q231 -2 383 -100q157 -100 139 -220q-19 -119 -209 -221z" />
    <glyph glyph-name="e" unicode="e"
d="M277 715h636l11 70h-708l-124 -785h708l11 69h-637l46 290h464l11 69h-464z" />
    <glyph glyph-name="f" unicode="f"
d="M279 715h634l11 70h-708l-124 -785h74l56 359h462l11 69h-462z" />
    <glyph glyph-name="g" unicode="g"
d="M270 111q-80 41 -72 91l60 383q8 51 101 90q93 40 200 40q108 0 188 -40q80 -39 72 -90l-2 -11h74l1 11q13 84 -82 143q-91 57 -240 57q-147 0 -256 -57q-116 -59 -129 -143l-61 -383q-13 -85 83 -145q94 -57 239 -57q147 0 258 57q115 60 128 145l30 194h-356l-12 -73
h283l-19 -121q-9 -52 -100 -91q-98 -42 -201 -42t-187 42z" />
    <glyph glyph-name="h" unicode="h"
d="M924 785h-75l-57 -357h-557l57 357h-76l-124 -785h76l56 359h557l-57 -359h76z" />
    <glyph glyph-name="i" unicode="i"
d="M594 715h319l11 70h-708l-11 -70h321l-103 -646h-320l-11 -69h708l11 69h-319z" />
    <glyph glyph-name="j" unicode="j"
d="M924 785h-708l-11 -70h634l-81 -513q-9 -52 -100 -91q-98 -42 -200 -42q-105 0 -189 42q-80 39 -71 91l1 11h-73l-2 -11q-13 -85 83 -145q93 -57 240 -57q148 0 258 57q114 61 127 145z" />
    <glyph glyph-name="k" unicode="k" horiz-adv-x="1052"
d="M460 392l625 393h-111l-570 -357h-175l57 357h-70l-124 -785h70l56 359h176l454 -359h113z" />
    <glyph glyph-name="l" unicode="l"
d="M810 68h-638l114 719h-69l-125 -787h708z" />
    <glyph glyph-name="m" unicode="m" horiz-adv-x="1044"
d="M1079 799l-494 -393l-367 393l-126 -799h61l104 656l315 -332l426 334l-107 -658h61z" />
    <glyph glyph-name="n" unicode="n" horiz-adv-x="1044"
d="M1076 785h-69l-102 -643l-687 655l-126 -797h66l102 649l690 -661z" />
    <glyph glyph-name="o" unicode="o"
d="M832 202l60 383q13 83 -81 143q-91 57 -240 57q-147 0 -257 -57q-116 -59 -129 -143l-61 -383q-13 -85 83 -145q93 -57 240 -57q148 0 258 57q114 61 127 145zM819 585l-61 -383q-9 -52 -100 -91q-98 -42 -200 -42q-104 0 -189 42q-80 39 -71 91l60 383q8 53 100 90
q98 40 202 40t187 -40q81 -36 72 -90z" />
    <glyph glyph-name="p" unicode="p" horiz-adv-x="883"
d="M805 728q-87 57 -234 57h-355l-124 -785h72l113 715h283q106 0 183 -40q77 -39 69 -90q-8 -52 -98 -92q-72 -33 -161 -40q-14 -1 -165 -1h-11l-11 -70h141q146 0 252 57q110 59 124 145q13 84 -78 144z" />
    <glyph glyph-name="q" unicode="q" horiz-adv-x="895"
d="M832 202l60 383q13 83 -81 143q-91 57 -240 57q-148 0 -257 -57q-116 -59 -129 -143l-61 -383q-13 -85 83 -145q91 -57 240 -57q140 0 249 53l60 -57l55 52l-49 46q61 47 70 108zM819 585l-61 -383q-5 -33 -45 -62l-187 178l-52 -55l167 -159q-91 -35 -183 -35
q-104 0 -189 42q-80 39 -71 91l60 383q8 51 100 90q98 40 202 40t187 -40q80 -38 72 -90z" />
    <glyph glyph-name="r" unicode="r" horiz-adv-x="899"
d="M710 0h97l-226 386q45 6 90 19.5t92.5 36t80 60t39.5 83.5q13 83 -78 143q-86 57 -234 57h-355l-124 -785h70l113 715h285q104 0 183 -40q77 -38 69 -90q-8 -53 -98 -91q-94 -42 -196 -42h-141l-11 -70h129z" />
    <glyph glyph-name="s" unicode="s" horiz-adv-x="848"
d="M322 477q-75 44 -67 98t98 96q92 41 196 41h306l11 71h-306q-147 0 -252 -59q-111 -63 -125 -150q-14 -88 77 -151q63 -42 156 -52q16 -2 58.5 -5t65.5 -6q77 -11 113 -32q77 -44 66 -109q-8 -57 -99 -98q-94 -44 -196 -44h-320l-11 -73h320q146 0 253 62q111 65 125 154
q13 86 -60 145q-68 54 -202 65q-71 5 -109 12q-56 12 -98 35z" />
    <glyph glyph-name="t" unicode="t"
d="M924 785h-708l-10 -64h321l-114 -721h66l114 721h321z" />
    <glyph glyph-name="u" unicode="u"
d="M924 785h-70l-92 -583q-8 -51 -102 -91q-98 -42 -203 -42q-103 0 -187 42q-80 41 -72 91l92 583h-74l-92 -583q-13 -85 83 -145q94 -57 239 -57q147 0 258 57q115 60 128 145z" />
    <glyph glyph-name="v" unicode="v" horiz-adv-x="1079"
d="M1111 785h-77l-476 -665l-262 665h-80l320 -796z" />
    <glyph glyph-name="w" unicode="w" horiz-adv-x="1377"
d="M838 -11l573 796h-79l-471 -652l-77 200l327 452h-84l-274 -383l-148 383h-88l183 -452l-142 -200l-267 652h-75l319 -796l195 267z" />
    <glyph glyph-name="x" unicode="x" horiz-adv-x="1074"
d="M979 0l-333 391l460 394h-88l-413 -351l-298 351h-91l336 -394l-457 -391h92l404 349l296 -349h92z" />
    <glyph glyph-name="y" unicode="y" horiz-adv-x="1107"
d="M645 397l494 388h-95l-419 -327l-312 327h-97l365 -388l-59 -397h63z" />
    <glyph glyph-name="z" unicode="z" horiz-adv-x="1041"
d="M256 63l819 724h-844l-10 -64h696l-825 -723h830l10 63h-676z" />
    <glyph glyph-name="bar" unicode="|" horiz-adv-x="246"
d="M216 785l-124 -785h63l124 785h-63z" />
    <glyph glyph-name="exclamdown" unicode="&#xa1;" horiz-adv-x="251"
d="M217 787l-102 -642h67l102 642h-67zM131 89q-14 0 -26 -10t-14 -25l-3 -17q-2 -15 6.5 -25t23.5 -10h17q15 0 27 10t14 25l3 17q2 15 -6.5 25t-23.5 10h-18z" />
    <glyph glyph-name="sterling" unicode="&#xa3;"
d="M810 64l-509 -2q79 95 94 195l3 16h403l10 58h-409q-7 41 -29 78q-31 50 -64 79q-3 3 -11 8.5t-11 8.5q-42 37 -35 80q9 63 121 111q93 41 211 41q65 0 128.5 -23.5t99.5 -64.5l3 -3h76l-11 17q-82 123 -313 123q-115 0 -215 -41q-64 -25 -111.5 -66.5t-56.5 -100.5
q-11 -63 55 -119q73 -61 91 -128h-144l-9 -58h160q0 -6 -2 -16q-20 -132 -200 -238l-32 -19h697z" />
    <glyph glyph-name="yen" unicode="&#xa5;" horiz-adv-x="920"
d="M543 342l14 89l395 354h-84l-333 -314l-237 314h-82l283 -354l-14 -89h-325l-9 -55h325l-14 -90h-325l-8 -53h324l-23 -144h59l23 144h324l9 53h-325l15 90h324l9 55h-325z" />
    <glyph glyph-name="copyright" unicode="&#xa9;" horiz-adv-x="1086"
d="M92 398q0 -121 60.5 -223.5t164.5 -162.5t226 -60t226 60t164.5 162.5t60.5 223.5t-60.5 223.5t-164.5 162.5t-226 60t-226 -60t-164.5 -162.5t-60.5 -223.5zM933 398q0 -160 -114.5 -273t-275.5 -113q-162 0 -276 113t-114 273t114 273t276 113q161 0 275.5 -113
t114.5 -273zM372 276v237q0 35 65 58q50 19 105 19t105 -19q64 -21 64 -58v-11h54v11q0 54 -68 93q-62 35 -155 35t-156 -35q-67 -40 -67 -93v-237q0 -55 67 -94q66 -36 156 -36t155 36q68 38 68 94v10h-54v-10q0 -35 -64 -60q-54 -19 -105 -19q-65 0 -118 25q-52 25 -52 54
z" />
    <glyph glyph-name="guillemotleft" unicode="&#xab;" horiz-adv-x="1297"
d="M810 -7l11 71l-549 328l654 334l10 67l-782 -401zM1205 -7l12 71l-551 328l655 334l11 67l-783 -401z" />
    <glyph glyph-name="registered" unicode="&#xae;" horiz-adv-x="1086"
d="M92 398q0 -121 60.5 -223.5t164.5 -162.5t226 -60t226 60t164.5 162.5t60.5 223.5t-60.5 223.5t-164.5 162.5t-226 60t-226 -60t-164.5 -162.5t-60.5 -223.5zM933 398q0 -160 -114.5 -273t-275.5 -113q-162 0 -276 113t-114 273t114 273t276 113q161 0 275.5 -113
t114.5 -273zM769 178l-161 217q57 10 102 37.5t45 77.5q0 32 -21.5 56.5t-54.5 37t-63.5 18t-56.5 5.5h-204v-449h49v400h155q49 0 92 -16q55 -19 55 -52q0 -31 -55 -52q-46 -18 -92 -18h-84v-49h74l155 -213h65z" />
    <glyph glyph-name="degree" unicode="&#xb0;" horiz-adv-x="597"
d="M218 796q-12 -81 40 -136t134 -55q83 0 154.5 54.5t84.5 136.5q13 83 -40.5 138.5t-137.5 55.5q-83 0 -152.5 -55.5t-82.5 -138.5zM562 796q-8 -54 -55.5 -90t-103.5 -36q-55 0 -90 37t-26 89q8 55 54 92t102 37q57 0 92.5 -37t26.5 -92z" />
    <glyph glyph-name="guillemotright" unicode="&#xbb;" horiz-adv-x="1297"
d="M755 392l-653 -328l-11 -71l782 399l-655 401l-11 -67zM1151 392l-654 -328l-11 -71l783 399l-657 401l-10 -67z" />
    <glyph glyph-name="questiondown" unicode="&#xbf;" horiz-adv-x="793"
d="M620 66q101 63 116 154l1 10h-54l-1 -10q-10 -59 -92 -112q-78 -50 -178 -50q-131 0 -193 55q-51 48 -42 107q9 60 61 109q51 49 132 56q44 4 60 6q48 6 61 14q20 11 34.5 33.5t18.5 43.5l34 218h-51l-34 -218q-3 -19 -23.5 -30t-46.5 -11q-127 0 -204 -64
q-77 -65 -92 -155q-15 -92 64 -156q76 -64 203 -64q126 0 226 64z" />
    <glyph glyph-name="multiply" unicode="&#xd7;" horiz-adv-x="731"
d="M618 253l-138 164l182 155l-43 51l-182 -155l-139 161l-54 -47l138 -162l-185 -164l42 -50l186 163l140 -163z" />
    <glyph glyph-name="divide" unicode="&#xf7;" horiz-adv-x="722"
d="M403 544l-3 -18q-2 -14 6.5 -24.5t23.5 -10.5h17q15 0 27 10.5t14 24.5l3 18q2 14 -6.5 24.5t-23.5 10.5h-17q-15 0 -27 -10.5t-14 -24.5zM701 451h-538l-10 -66h537zM364 306l-3 -18q-2 -14 6.5 -24.5t23.5 -10.5h18q14 0 26.5 10.5t14.5 24.5l2 18q3 14 -6 24.5
t-23 10.5h-18q-15 0 -27 -10.5t-14 -24.5z" />
    <glyph glyph-name="quoteleft" unicode="&#x2018;" horiz-adv-x="257"
d="M197 623h75l-9 161h-68z" />
    <glyph glyph-name="quoteright" unicode="&#x2019;" horiz-adv-x="257"
d="M230 784l-60 -161h75l53 161h-68z" />
    <glyph glyph-name="quotedblleft" unicode="&#x201c;" horiz-adv-x="366"
d="M197 623h75l-9 161h-68zM310 621h73l-11 163h-69z" />
    <glyph glyph-name="quotedblright" unicode="&#x201d;" horiz-adv-x="366"
d="M232 784l-63 -163h74l58 163h-69zM341 784l-60 -161h75l53 161h-68z" />
    <glyph glyph-name="guilsinglleft" unicode="&#x2039;" horiz-adv-x="903"
d="M810 -7l11 71l-549 328l654 334l10 67l-782 -401z" />
    <glyph glyph-name="guilsinglright" unicode="&#x203a;" horiz-adv-x="903"
d="M218 793l-12 -71l549 -330l-654 -332l-10 -67l782 399z" />
    <glyph glyph-name="trademark" unicode="&#x2122;" horiz-adv-x="940"
d="M848 798l-202 -184l-201 184v-382h39v291l162 -146l164 147l-1 -292h39v382zM426 784h-334v-40h145v-328h42v328h147v40z" />
    <glyph glyph-name="_FSHallmark" horiz-adv-x="949"
d="M50 751h851v-101h-851v101zM791 461q0 9 -8 23q-8 10 -19 18q-23 10 -24 10q-18 4 -24 4q-24 0 -50 -14q-21 -14 -21 -29q0 -31 20 -42q29 -14 45 -17l37 -9l31 -7q21 -7 30 -7q16 -3 25 -7q3 -2 10.5 -5.5t10.5 -5.5q23 -14 32 -28q10 -16 13 -45q3 -26 -11 -50
q-23 -44 -75 -61q-48 -15 -95 -15q-44 0 -71 8q-31 10 -59 30q-25 16 -43 47q-16 28 -16 68l99 -2q0 -6 5 -16q1 -13 14 -26t26 -18q18 -10 48 -10q33 0 54 12q21 11 21 27q0 32 -81 47q-84 23 -125 46q-51 26 -51 85q0 48 33 76q31 25 75 41q35 8 71 8q50 0 95 -19
q49 -19 68 -67q12 -31 12 -50h-102zM162 174h-112v422h359v-96h-247v-95h205v-94h-205v-137zM398 224q0 24 15 37q14 13 36 13q23 0 41 -15q17 -12 17 -35q0 -20 -17 -35q-17 -13 -41 -13q-19 0 -34 15q-17 15 -17 33zM48 121h851v-101h-851v101z" />
    <glyph glyph-name="_Fontastica" horiz-adv-x="736"
d="M154 127h-105q-1 2 -1 5v618h463v-95h-357v-254h357v-96h-357v-178zM221 573h358v177h105v-621h-463v94h358v255h-358v95zM579 66q-6 -4 -6 -8q0 -10 4 -14q6 -6 11 -6q10 0 18 6l6 -6q-11 -11 -24 -11q-5 0 -19 6q-7 12 -8 21q0 12 7 20q10 10 20 10q12 0 24 -10l-6 -8
l-5 5q-1 1 -9 1h-4q-8 -4 -9 -6zM49 82h39v-10h-26v-13h25v-9h-25v-21h-13v53zM137 82q18 0 26 -14q8 -12 2 -24q-4 -14 -24 -17l-5 -2q-8 0 -12 4q-16 6 -16 24q0 14 7 21q7 8 22 8zM240 29h-4q-3 -2 -4 -2q-2 0 -8 6l-7 8q0 1 -1 2.5t-2 2.5t-1 2l-10 13v-32h-13v53h10
q5 -1 6 -7q6 -7 11 -14q5 -5 11 -15v36h12v-53zM261 82h45v-10h-16v-43h-11v43h-18v10zM428 58q11 0 11 -14q2 -11 -10 -15q-1 -2 -11 -2q-16 0 -23 9v2l1 2q0 1 2 4l17 -6h7l4 3q0 9 -12 12q-3 0 -3 1h-4q-9 4 -9 12q-3 9 8 14q6 2 11 2q14 0 22 -4l-4 -10l-4 2h-3
q-1 1 -4 1q-1 0 -2 1h-7q-4 0 -4 -2q-1 -2 4 -9q2 0 5 -1t5 -1.5t3 -0.5zM456 82h47v-10h-16v-43h-13v43h-18v10zM525 82h13v-53h-13v53zM665 82l12 -24q1 -4 6 -17q3 -10 5 -12h-11l-6 11h-26l-4 -11h-12q11 19 21 53h15zM354 80l6 -12q4 -8 6 -11q3 -6 5 -16
q0 -1 0.5 -3.5t2 -5t1.5 -3.5h-12q-1 1 -1 4l-2 7h-27v-7v-1l-3 -3h-10l21 51h13zM151 57q0 7 -4 11t-11 4q-2 -1 -5 -1q-1 0 -2 -1.5t-3 -4t-4 -4.5q-8 -3 -2 -11q4 -12 17 -12h4q10 3 10 16v3zM356 50l-2 4q-3 5 -4 5q-1 1 -1 5q-1 1 -1 3t-1 3l-10 -20h19zM667 50l-2 4
q0 3 -2 5q-2 1 -2 5l-3 6l-9 -20h18z" />
    </font>
</defs>
</svg>
