<?xml version="1.0" encoding="UTF-8"?>
<svg xmlns="http://www.w3.org/2000/svg" version="1.2">
<font id="Edingu Round">
<font-face  font-family="Edingu" units-per-em="1024" ascent="750" descent="-140" font-style="normal" font-weight="400" font-stretch="normal" cap-height="810" x-height="375" underline-position="-125" underline-thickness="50" />
<missing-glyph  horiz-adv-x="100" d="" />
<glyph glyph-name="uni0000" d="" />
<glyph glyph-name="uni000D" unicode="&#xd;" horiz-adv-x="256" d="" />
<glyph glyph-name="space" unicode="&#x20;" horiz-adv-x="149" d="" />
<glyph glyph-name="exclam" unicode="&#x21;" horiz-adv-x="124" d="M62 67 Q76 67 85.5 57.5 Q95 48 95 34 Q95 20 85.5 10 Q76 0 62 0 L61 0 Q47 0 37 10 Q27 20 27 34 Q27 48 37 57.5 Q47 67 61 67 L62 67 Z M94 464 L78 178 Q77 172 72.5 167.5 Q68 163 62 163 Q55 163 50.5 167.5 Q46 172 45 178 L29 464 L29 668 Q29 681 38.5 690.5 Q48 700 62 700 Q75 700 84.5 690.5 Q94 681 94 668 L94 464 Z " />
<glyph glyph-name="quotedbl" unicode="&#x22;" horiz-adv-x="289" d="M209 537 Q209 530 204 525 Q199 520 192 520 Q185 520 180 525 Q175 530 175 537 L175 683 Q175 690 180 695 Q185 700 192 700 Q199 700 204 695 Q209 690 209 683 L209 537 Z M114 537 Q114 530 109 525 Q104 520 97 520 Q90 520 85 525 Q80 530 80 537 L80 683 Q80 690 85 695 Q90 700 97 700 Q104 700 109 695 Q114 690 114 683 L114 537 Z " />
<glyph glyph-name="numbersign" unicode="&#x23;" horiz-adv-x="375" d="M41 451 Q41 458 46 463 Q51 468 59 468 L75 468 Q89 468 99.5 477.5 Q110 487 112 501 L133 686 Q134 691 139 695.5 Q144 700 150 700 Q155 700 159 695.5 Q163 691 162 686 L144 525 Q141 502 156 485 Q171 468 195 468 L209 468 Q228 468 243 481 Q258 494 260 513 L280 686 Q281 691 286 695.5 Q291 700 297 700 Q302 700 306 695.5 Q310 691 309 686 L288 498 Q286 486 294 477 Q302 468 315 468 L328 468 Q335 468 340 463 Q345 458 345 451 Q345 443 340 438 Q335 433 328 433 L313 433 Q299 433 288.5 423.5 Q278 414 276 401 L263 288 Q261 272 271 261 Q281 250 297 250 L318 250 Q325 250 330 245 Q335 240 335 233 Q335 226 330 221 Q325 216 318 216 L295 216 Q278 216 265 204.5 Q252 193 250 176 L232 14 Q231 9 226 4.5 Q221 0 216 0 Q210 0 206 4.5 Q202 9 203 14 L219 159 Q222 182 207 199 Q192 216 169 216 L155 216 Q136 216 121 203 Q106 190 104 171 L86 15 Q85 9 80 4.5 Q75 0 69 0 Q63 0 59 4.5 Q55 9 56 15 L76 192 Q78 202 71.5 209 Q65 216 55 216 L48 216 Q41 216 36 221 Q31 226 31 233 Q31 240 36 245 Q41 250 48 250 L57 250 Q68 250 76 257.5 Q84 265 86 276 L100 402 Q102 415 94 424 Q86 433 73 433 L59 433 Q51 433 46 438 Q41 443 41 451 Z M184 250 Q203 250 218 263 Q233 276 235 295 L244 376 Q247 399 232 416 Q217 433 194 433 L179 433 Q160 433 145 419.5 Q130 406 128 387 L119 307 Q117 284 132 267 Q147 250 170 250 L184 250 Z " />
<glyph glyph-name="dollar" unicode="&#x24;" horiz-adv-x="312" d="M52 180 Q63 180 71 172 Q79 164 79 153 L79 89 Q79 70 93 59 Q107 48 124 44 Q130 44 134.5 46.5 Q139 49 139 56 L139 323 L139 326 Q139 327 138.5 327 Q138 327 138 328 Q138 328 138 329 L137 331 L134 334 Q133 336 131 339 Q26 477 26 583 Q26 630 52 664.5 Q78 699 125 707 Q130 708 135 713.5 Q140 719 140 725 Q140 731 144.5 736 Q149 741 155 741 L157 742 Q163 742 167.5 738 Q172 734 172 728 Q172 722 177 716.5 Q182 711 187 710 Q230 704 258.5 676.5 Q287 649 287 604 L287 550 Q287 538 279 530 Q271 522 260 522 Q248 522 240 530 Q232 538 232 550 L232 604 Q232 627 218.5 639.5 Q205 652 185 657 Q178 657 175 655 Q172 653 172 645 L172 378 Q172 377 173 375 Q173 374 173.5 373.5 Q174 373 174 372 Q175 370 176 369 Q178 365 178 365 Q196 341 215 312 Q234 283 250 251 Q266 219 276 186 Q286 153 286 122 Q286 74 262.5 39.5 Q239 5 191 -6 Q184 -8 177.5 -15 Q171 -22 171 -30 L171 -34 Q171 -50 155 -50 Q139 -50 139 -34 L139 -30 Q139 -22 133 -15 Q127 -8 119 -7 Q100 -3 82.5 4.5 Q65 12 52 23.5 Q39 35 31.5 51.5 Q24 68 24 89 L24 153 Q24 164 32 172 Q40 180 52 180 Z M140 645 Q140 656 131 656 Q128 656 126 655 Q105 648 92.5 632 Q80 616 80 593 Q80 538 112 472 Q116 462 126 462 Q131 462 135.5 465.5 Q140 469 140 477 L140 645 Z M172 59 Q172 48 181 48 Q184 48 186 49 Q231 65 231 114 Q231 152 217 189 Q203 226 186 259 Q183 263 180 263 Q172 263 172 255 L172 59 Z " />
<glyph glyph-name="percent" unicode="&#x25;" horiz-adv-x="426" d="M10 382 L10 646 Q10 661 17 671.5 Q24 682 34.5 688.5 Q45 695 58 698 Q71 701 84 701 Q97 701 110.5 698 Q124 695 134.5 688.5 Q145 682 152 671.5 Q159 661 159 646 L159 382 Q159 367 152 356.5 Q145 346 134.5 339.5 Q124 333 110.5 330 Q97 327 84 327 Q71 327 58 330 Q45 333 34.5 339.5 Q24 346 17 356.5 Q10 367 10 382 Z M274 315 Q274 330 281 340.5 Q288 351 298.5 357.5 Q309 364 322 367 Q335 370 348 370 Q361 370 374.5 367 Q388 364 398.5 357.5 Q409 351 416 340.5 Q423 330 423 315 L423 51 Q423 36 416 25.5 Q409 15 398.5 8.5 Q388 2 374.5 -1 Q361 -4 348 -4 Q335 -4 322 -1 Q309 2 298.5 8.5 Q288 15 281 25.5 Q274 36 274 51 L274 315 Z M17 16 L378 688 Q380 693 387.5 697.5 Q395 702 401 702 Q406 702 408.5 697.5 Q411 693 409 688 L48 16 Q46 11 38.5 6.5 Q31 2 26 2 Q20 2 17.5 6.5 Q15 11 17 16 Z M319 49 Q319 41 328 38 Q336 34 348 34 Q360 34 369 38 Q378 41 378 49 L378 316 Q378 324 369 328 Q360 331 349 331 Q338 331 329 328 Q319 324 319 316 L319 49 Z M55 647 L55 380 Q55 372 64 369 Q72 365 84 365 Q96 365 105 369 Q114 372 114 380 L114 647 Q114 655 105 659 Q96 662 85 662 Q74 662 65 659 Q55 655 55 647 Z " />
<glyph glyph-name="ampersand" unicode="&#x26;" horiz-adv-x="349" d="M103 330 Q88 298 82.5 268 Q77 238 77 203 Q77 177 79.5 144.5 Q82 112 93 88 Q100 67 115 56 Q129 44 151 44 Q190 44 214 82 Q219 90 219 103 Q219 116 214 125 Q165 227 118 329 Q115 335 110 335 Q106 335 103 330 Z M194 292 Q205 270 215 248.5 Q225 227 236 206 Q238 203 241 203 Q246 203 248 210 Q250 227 252 245 Q254 263 255 283 Q257 303 257 324.5 Q257 346 258 369 Q258 380 266 388 Q274 396 285 396 Q296 396 304 389 Q312 382 312 371 Q310 311 306 252 Q302 193 287 135 Q285 130 286.5 116.5 Q288 103 290 98 Q296 86 302 74.5 Q308 63 314 52 L328 25 Q333 16 328 7.5 Q323 -1 312 -1 L289 -1 Q284 -1 278 2.5 Q272 6 270 11 L256 36 Q253 41 248 41 Q244 41 241 38 Q202 -11 138 -11 Q99 -11 75 4 Q51 19 38 43 Q25 67 21 97.5 Q17 128 17 159 Q17 216 29.5 266 Q42 316 75 363 Q78 367 79.5 374 Q81 381 82 388.5 Q83 396 82.5 403.5 Q82 411 80 415 Q76 426 67.5 447.5 Q59 469 50.5 492.5 Q42 516 36 537.5 Q30 559 30 570 Q30 599 36.5 624 Q43 649 56.5 668 Q70 687 92.5 698 Q115 709 146 709 Q205 709 232 673 Q259 637 259 582 Q259 561 250 538.5 Q241 516 227.5 494 Q214 472 198 452.5 Q182 433 169 418 Q161 409 158.5 391.5 Q156 374 161 363 L194 292 Z M146 455 Q166 481 184.5 512 Q203 543 203 577 Q203 607 190 630 Q177 653 143 653 Q125 653 112.5 646 Q100 639 93 627.5 Q86 616 83 601 Q80 586 80 570 Q80 562 84.5 546.5 Q89 531 95.5 514 Q102 497 108.5 481.5 Q115 466 119 458 Q124 447 133 447 Q140 447 146 455 Z " />
<glyph glyph-name="quotesingle" unicode="&#x27;" horiz-adv-x="194" d="M114 537 Q114 530 109 525 Q104 520 97 520 Q90 520 85 525 Q80 530 80 537 L80 683 Q80 690 85 695 Q90 700 97 700 Q104 700 109 695 Q114 690 114 683 L114 537 Z " />
<glyph glyph-name="parenleft" unicode="&#x28;" horiz-adv-x="184" d="M173 682 Q126 594 105 503 Q84 412 84 314 Q84 262 89 215 Q94 168 105 123 Q116 78 132.5 34 Q149 -10 173 -55 Q177 -62 173.5 -67.5 Q170 -73 162 -73 Q154 -73 144.5 -67.5 Q135 -62 131 -55 Q123 -40 115.5 -25 Q108 -10 102 6 Q70 77 57.5 157 Q45 237 45 314 Q45 411 64.5 504 Q84 597 131 682 Q135 689 144.5 694.5 Q154 700 162 700 Q170 700 173.5 694.5 Q177 689 173 682 Z " />
<glyph glyph-name="parenright" unicode="&#x29;" horiz-adv-x="184" d="M8 -55 Q56 33 76.5 123.5 Q97 214 97 313 Q97 415 76 504 Q55 593 8 682 Q4 689 7.5 694.5 Q11 700 19 700 Q27 700 36.5 694.5 Q46 689 50 682 Q97 596 116.5 503 Q136 410 136 313 Q136 216 116.5 123 Q97 30 50 -55 Q46 -62 36.5 -67.5 Q27 -73 19 -73 Q11 -73 7.5 -67.5 Q4 -62 8 -55 Z " />
<glyph glyph-name="asterisk" unicode="&#x2a;" horiz-adv-x="159" d="M58 650 Q54 655 50.5 659 Q47 663 42 667 L36 674 Q30 680 37 685 L51 695 Q55 697 56 697 Q59 697 63 693 L80 664 Q82 661 84 661 Q88 661 89 664 L106 693 Q108 697 112 697 Q113 697 117 695 L131 685 Q138 680 132 674 L109 649 Q105 642 113 640 L121 639 L146 633 Q149 632 151 629 Q153 626 151 623 L146 607 Q144 602 139 602 Q137 602 136 603 L106 615 L104 615 Q97 615 99 610 L100 602 L100 585 L101 577 Q103 568 93 568 L76 568 Q66 568 68 577 L71 602 L71 610 Q71 613 68 614 Q65 615 63 615 L32 603 Q31 602 29 602 Q23 602 21 607 L16 623 Q12 631 22 633 L47 639 L55 640 Q58 641 59 644 Q60 647 58 650 Z " />
<glyph glyph-name="plus" unicode="&#x2b;" horiz-adv-x="290" d="M166 363 Q166 346 178.5 333.5 Q191 321 208 321 L229 321 Q238 321 244 315 Q250 309 250 300 Q250 291 244 285 Q238 279 229 279 L208 279 Q191 279 178.5 266.5 Q166 254 166 237 L166 216 Q166 207 160 201 Q154 195 145 195 Q136 195 130 201 Q124 207 124 216 L124 237 Q124 254 111.5 266.5 Q99 279 82 279 L61 279 Q52 279 46 285 Q40 291 40 300 Q40 309 46 315 Q52 321 61 321 L82 321 Q99 321 111.5 333.5 Q124 346 124 363 L124 384 Q124 393 130 399 Q136 405 145 405 Q154 405 160 399 Q166 393 166 384 L166 363 Z " />
<glyph glyph-name="comma" unicode="&#x2c;" horiz-adv-x="133" d="M60 -51 Q58 -59 50 -64.5 Q42 -70 34 -70 Q26 -70 21 -64 Q16 -58 18 -50 L37 59 Q39 72 50.5 81 Q62 90 75 90 Q88 90 94.5 81 Q101 72 97 60 L60 -51 Z " />
<glyph glyph-name="hyphen" unicode="&#x2d;" horiz-adv-x="238" d="M200 428 Q211 428 218.5 420.5 Q226 413 226 402 Q226 391 218.5 383.5 Q211 376 200 376 L38 376 Q27 376 19.5 383.5 Q12 391 12 402 Q12 413 19.5 420.5 Q27 428 38 428 L200 428 Z " />
<glyph glyph-name="period" unicode="&#x2e;" horiz-adv-x="221" d="M111 76 Q126 76 137 65 Q148 54 148 39 L148 38 Q148 22 137 11 Q126 0 111 0 Q95 0 84 11 Q73 22 73 38 L73 39 Q73 54 84 65 Q95 76 111 76 Z " />
<glyph glyph-name="slash" unicode="&#x2f;" horiz-adv-x="151" d="M126 700 Q132 700 136 695.5 Q140 691 139 685 L43 -75 Q42 -81 37 -85.5 Q32 -90 26 -90 Q19 -90 15 -85.5 Q11 -81 12 -75 L108 685 Q109 691 114 695.5 Q119 700 126 700 Z " />
<glyph glyph-name="zero" unicode="0" horiz-adv-x="344" d="M240 606 Q240 620 233.5 629.5 Q227 639 217 644.5 Q207 650 195 652.5 Q183 655 171 655 Q160 655 148 652.5 Q136 650 126.5 644.5 Q117 639 110.5 630 Q104 621 104 607 L104 94 Q104 81 110.5 71.5 Q117 62 126.5 56 Q136 50 148 47.5 Q160 45 171 45 Q182 45 194.5 47.5 Q207 50 217 56 Q227 62 233.5 71.5 Q240 81 240 94 L240 606 Z M304 97 Q304 69 292.5 48.5 Q281 28 262.5 15 Q244 2 220 -4 Q196 -10 171 -10 Q146 -10 122.5 -3.5 Q99 3 80.5 16 Q62 29 51 49 Q40 69 40 97 L40 603 Q40 631 51 651.5 Q62 672 80.5 685 Q99 698 122.5 704 Q146 710 171 710 Q196 710 220 704 Q244 698 262.5 685 Q281 672 292.5 651.5 Q304 631 304 603 L304 97 Z " />
<glyph glyph-name="one" unicode="1" horiz-adv-x="227" d="M8 502 Q31 504 50.5 515 Q70 526 84 543 Q98 560 105.5 581.5 Q113 603 113 625 L113 664 Q113 679 123.5 689.5 Q134 700 150 700 Q165 700 175.5 689.5 Q186 679 186 664 L186 33 Q186 19 176.5 9.5 Q167 0 153 0 Q139 0 129.5 9.5 Q120 19 120 33 L120 528 Q120 535 114 535 Q112 535 110 533 Q102 526 92.5 520 Q83 514 72 509 Q47 497 13 495 Q8 495 6 499 Q3 502 8 502 Z " />
<glyph glyph-name="two" unicode="2" horiz-adv-x="323" d="M28 604 Q28 631 39 651 Q50 671 68 684 Q86 697 109.5 703.5 Q133 710 158 710 Q218 710 254 675.5 Q290 641 290 581 Q290 521 262 462 Q248 432 228.5 399 Q209 366 186 330 Q165 298 148 268.5 Q131 239 118 213 Q92 159 92 114 L92 85 Q92 73 100.5 64.5 Q109 56 121 56 L270 56 Q281 56 289.5 47.5 Q298 39 298 28 Q298 17 289.5 8.5 Q281 0 270 0 L79 0 Q58 0 43 15 Q28 30 28 51 L28 114 Q28 149 37 182 Q46 215 61 246.5 Q76 278 94.5 307.5 Q113 337 131 365 Q147 389 163.5 416.5 Q180 444 193.5 473 Q207 502 216 532 Q225 562 225 592 Q225 622 206 638 Q187 654 158 654 Q147 654 135.5 651.5 Q124 649 114 643.5 Q104 638 98 629 Q92 620 92 607 L92 538 Q92 524 83 515 Q74 506 60 506 Q46 506 37 515 Q28 524 28 538 L28 604 Z " />
<glyph glyph-name="three" unicode="3" horiz-adv-x="307" d="M277 105 Q277 48 239 18.5 Q201 -11 147 -11 Q120 -11 96.5 -4 Q73 3 55 17 Q37 31 26.5 52.5 Q16 74 16 103 L16 118 Q16 132 31 132 L72 132 Q80 132 80 124 L80 115 L81 103 L81 95 Q81 82 87 72.5 Q93 63 102.5 57 Q112 51 123.5 48 Q135 45 147 45 Q158 45 170 47.5 Q182 50 191.5 56 Q201 62 207 71.5 Q213 81 213 94 L213 288 Q213 302 207 312 Q201 322 191 328 Q181 334 169 336.5 Q157 339 145 339 L119 339 Q108 339 100.5 346.5 Q93 354 93 365 L93 369 Q93 380 100.5 387.5 Q108 395 119 395 L145 395 Q174 395 193.5 410.5 Q213 426 213 457 L212 611 Q212 630 194 642 Q174 653 145 653 Q135 653 123.5 651 Q112 649 102.5 643.5 Q93 638 87 629.5 Q81 621 81 608 L81 579 Q79 572 73 572 L22 572 Q16 572 16 578 L16 582 L16 586 L15 592 L15 597 L15 604 Q15 632 26 652 Q37 672 55 684.5 Q73 697 96.5 703 Q120 709 145 709 Q170 709 193.5 703 Q217 697 235.5 684 Q254 671 265.5 651 Q277 631 277 603 L277 468 Q277 442 267.5 420.5 Q258 399 237 383 Q234 380 234 375 Q234 370 237 367 Q253 355 264 338 Q277 315 277 284 L277 105 Z " />
<glyph glyph-name="four" unicode="4" horiz-adv-x="332" d="M246 256 Q246 241 256.5 230.5 Q267 220 282 220 L290 220 Q301 220 309.5 211.5 Q318 203 318 192 Q318 181 309.5 172.5 Q301 164 290 164 L282 164 Q267 164 256.5 153.5 Q246 143 246 128 L246 32 Q246 18 237 9 Q228 0 215 0 Q201 0 192 9 Q183 18 183 32 L183 113 Q183 134 168 149 Q153 164 132 164 L46 164 Q35 164 27 172 Q19 180 19 191 L19 207 Q19 209 21 217.5 Q23 226 23 228 Q91 398 155 567 Q166 597 177 624 Q188 651 198 676 Q202 686 212.5 693 Q223 700 234 700 Q245 700 250 692.5 Q255 685 252 675 L211 565 Q184 490 156 415.5 Q128 341 98 267 Q91 248 101.5 234 Q112 220 132 220 L136 220 Q156 220 169.5 234 Q183 248 183 268 L183 315 Q183 336 188 362.5 Q193 389 200.5 416 Q208 443 217 469.5 Q226 496 233 517 Q235 522 241 522 Q246 522 246 517 L246 256 Z " />
<glyph glyph-name="five" unicode="5" horiz-adv-x="316" d="M89 94 Q89 81 95.5 71.5 Q102 62 111.5 56.5 Q121 51 133 48.5 Q145 46 156 46 Q167 46 179 48.5 Q191 51 200.5 56.5 Q210 62 216 71.5 Q222 81 222 94 L223 157 L223 328 Q223 340 215.5 348 Q208 356 197 360.5 Q186 365 173.5 366.5 Q161 368 152 368 Q134 368 114 360.5 Q94 353 89 332 Q88 329 84.5 326 Q81 323 78 323 L62 323 Q51 323 43.5 330.5 Q36 338 36 349 L36 668 Q36 682 45 691 Q54 700 68 700 L91 700 Q93 700 96.5 697 Q100 694 101 692 Q106 678 121 672 Q140 662 166 662 Q193 662 213 672 Q228 678 233 692 Q234 694 237.5 697 Q241 700 244 700 L269 700 Q280 700 285 695 Q290 690 288 679 Q284 660 273 646.5 Q262 633 246.5 624.5 Q231 616 213 612 Q195 608 177 608 Q139 608 114 628 Q112 630 109 630 Q106 630 103 627.5 Q100 625 100 622 L100 426 L96 394 L94 385 Q94 383 95.5 383 Q97 383 98 384 Q123 422 170 422 Q220 422 253.5 396 Q287 370 287 317 L287 103 Q287 74 276.5 53 Q266 32 248 18 Q230 4 206.5 -3 Q183 -10 156 -10 Q130 -10 106 -3 Q82 4 64 18 Q46 32 35.5 53.5 Q25 75 25 103 L25 118 Q25 132 40 132 L70 132 Q78 132 83.5 126.5 Q89 121 89 113 L89 94 Z " />
<glyph glyph-name="six" unicode="6" horiz-adv-x="334" d="M40 599 Q40 627 50.5 647.5 Q61 668 79 681.5 Q97 695 120.5 702 Q144 709 169 709 Q196 709 219.5 702.5 Q243 696 261 682 Q279 668 289.5 647 Q300 626 300 597 L301 581 Q301 565 285 565 L257 565 Q249 565 243 571 Q237 577 237 585 L237 605 Q237 619 231 628 Q225 637 215 642.5 Q205 648 193 650.5 Q181 653 170 653 Q159 653 147.5 650.5 Q136 648 126 642.5 Q116 637 110 628 Q104 619 104 606 L104 389 Q104 385 107.5 382.5 Q111 380 115 380 Q119 380 120 381 Q148 401 187 401 Q238 401 270 372 Q301 342 300 293 Q299 274 299 255.5 Q299 237 299 219 L299 156 L298 101 Q298 73 287.5 52 Q277 31 259.5 17 Q242 3 218.5 -4 Q195 -11 169 -11 Q144 -11 120.5 -4.5 Q97 2 79 15.5 Q61 29 50 50 Q39 71 39 99 Q39 130 39 165 Q39 200 40 238 L40 599 Z M103 90 Q103 70 121 58 Q138 45 168 45 Q179 45 191.5 47 Q204 49 214.5 54.5 Q225 60 232 69 Q239 78 239 92 L239 152 L235 304 Q235 316 228 323.5 Q221 331 210.5 335.5 Q200 340 188.5 342 Q177 344 168 344 Q143 344 123 335 Q103 324 103 305 L103 90 Z " />
<glyph glyph-name="seven" unicode="7" horiz-adv-x="315" d="M295 651 Q295 650 294 644 Q293 638 293 637 Q250 492 215 367 L186 257 Q161 163 141 63 Q138 47 136 34.5 Q134 22 133 11 Q131 1 121 1 L82 1 Q69 1 71 14 Q72 36 80 75 Q101 172 126.5 266 Q152 360 178 455 L211 569 Q217 589 221.5 604.5 Q226 620 230 632 Q232 637 229 640.5 Q226 644 221 644 L48 644 Q37 644 28.5 652.5 Q20 661 20 672 Q20 683 28.5 691.5 Q37 700 48 700 L267 700 Q278 700 286.5 691.5 Q295 683 295 672 L295 651 Z " />
<glyph glyph-name="eight" unicode="8" horiz-adv-x="344" d="M240 609 Q240 630 221 643 Q202 655 171 655 Q160 655 148 652.5 Q136 650 126.5 645 Q117 640 110.5 631 Q104 622 104 609 L104 441 Q104 429 111.5 421.5 Q119 414 129.5 409.5 Q140 405 151.5 403 Q163 401 172 401 Q181 401 193 403 Q205 405 215.5 409.5 Q226 414 233 421.5 Q240 429 240 441 L240 609 Z M240 229 L239 279 Q239 311 221 330 Q203 349 171 349 Q139 349 121.5 329.5 Q104 310 104 279 L104 92 Q104 79 110.5 70 Q117 61 126.5 55.5 Q136 50 148 47.5 Q160 45 171 45 Q182 45 194 47.5 Q206 50 216.5 55 Q227 60 233.5 69.5 Q240 79 240 92 L240 229 Z M304 95 Q304 67 292.5 47 Q281 27 262.5 14.5 Q244 2 220 -4 Q196 -10 171 -10 Q147 -10 123.5 -4 Q100 2 81.5 15 Q63 28 51.5 47.5 Q40 67 40 95 L40 268 Q40 320 68 351 Q73 356 72 367 Q71 378 66 383 Q40 407 40 445 L40 606 Q40 634 51 654 Q62 674 80.5 686.5 Q99 699 122.5 705 Q146 711 171 711 Q196 711 220 705.5 Q244 700 262.5 687 Q281 674 292.5 654.5 Q304 635 304 606 L304 445 Q304 421 292 401 Q287 393 280.5 386.5 Q274 380 266 375 Q263 372 263.5 367 Q264 362 267 359 Q281 345 292 326 Q304 301 304 268 L304 95 Z " />
<glyph glyph-name="nine" unicode="9" horiz-adv-x="337" d="M100 94 Q100 81 106.5 71.5 Q113 62 122.5 56.5 Q132 51 144 48.5 Q156 46 167 46 Q178 46 190 48.5 Q202 51 211.5 56.5 Q221 62 227 71.5 Q233 81 233 94 L233 320 Q233 324 229 324 Q227 324 226 323 Q210 307 188 299.5 Q166 292 144 292 Q93 292 64 324.5 Q35 357 35 406 L35 602 Q35 630 46 650.5 Q57 671 75 684 Q93 697 117 703.5 Q141 710 166 710 Q191 710 214.5 704.5 Q238 699 256.5 686 Q275 673 286 653.5 Q297 634 297 605 L297 103 Q297 74 286.5 53 Q276 32 258 18 Q240 4 216.5 -3 Q193 -10 166 -10 Q140 -10 116 -3 Q92 4 74 18 Q56 32 45.5 53.5 Q35 75 35 103 L35 118 Q35 132 50 132 L81 132 Q89 132 94.5 126.5 Q100 121 100 113 L100 94 Z M234 493 L234 601 Q234 630 213.5 642.5 Q193 655 167 655 Q157 655 145 653 Q133 651 123 646 Q113 641 106.5 632.5 Q100 624 100 611 L100 553 Q99 539 99 522.5 Q99 506 99 486 L99 395 Q99 374 117 362 Q134 349 165 349 Q176 349 188 351.5 Q200 354 210 359 Q220 364 226.5 373 Q233 382 233 395 L234 493 Z " />
<glyph glyph-name="colon" unicode="&#x3a;" horiz-adv-x="197" d="M99 363 Q113 363 122.5 353.5 Q132 344 132 330 Q132 316 122.5 306 Q113 296 99 296 Q85 296 75 306 Q65 316 65 330 Q65 344 75 353.5 Q85 363 99 363 Z M99 67 Q113 67 122.5 57.5 Q132 48 132 34 Q132 20 122.5 10 Q113 0 99 0 Q85 0 75 10 Q65 20 65 34 Q65 48 75 57.5 Q85 67 99 67 Z " />
<glyph glyph-name="semicolon" unicode="&#x3b;" horiz-adv-x="198" d="M117 363 Q131 363 140.5 353.5 Q150 344 150 330 Q150 316 140.5 306 Q131 296 117 296 L116 296 Q102 296 92 306 Q82 316 82 330 Q82 344 92 353.5 Q102 363 116 363 L117 363 Z M101 -51 Q99 -59 91 -64.5 Q83 -70 75 -70 Q67 -70 62 -64 Q57 -58 59 -50 L78 59 Q80 72 91.5 81 Q103 90 116 90 Q129 90 135.5 81 Q142 72 138 60 L101 -51 Z " />
<glyph glyph-name="less" unicode="&#x3c;" horiz-adv-x="355" d="M290 180 Q297 175 303.5 161.5 Q310 148 310 140 L310 138 Q310 132 306.5 128 Q303 124 298 124 Q293 124 289 128 L45 316 Q42 319 38.5 325.5 Q35 332 35 337 Q35 342 38.5 348.5 Q42 355 45 358 L289 546 Q293 550 298 550 Q303 550 306.5 546 Q310 542 310 536 L310 534 Q310 526 303.5 512.5 Q297 499 290 494 L141 377 Q120 361 120 337 Q120 313 141 297 L290 180 Z " />
<glyph glyph-name="equal" unicode="&#x3d;" horiz-adv-x="353" d="M313 236 Q313 227 307 221 Q301 215 293 215 L61 215 Q52 215 46 221 Q40 227 40 236 Q40 244 46 250 Q52 256 61 256 L293 256 Q301 256 307 250 Q313 244 313 236 Z M313 365 Q313 356 307 350 Q301 344 293 344 L61 344 Q52 344 46 350 Q40 356 40 365 Q40 373 46 379 Q52 385 61 385 L293 385 Q301 385 307 379 Q313 373 313 365 Z " />
<glyph glyph-name="greater" unicode="&#x3e;" horiz-adv-x="368" d="M322 359 Q326 357 329.5 349.5 Q333 342 333 337 Q333 332 329.5 324.5 Q326 317 322 315 L67 127 Q63 124 58 124 Q45 124 45 138 L45 139 Q45 148 52 161.5 Q59 175 66 180 L223 296 Q245 312 245 337 Q245 362 223 378 L66 494 Q59 499 52 512.5 Q45 526 45 535 L45 536 Q45 550 58 550 Q63 550 67 547 L322 359 Z " />
<glyph glyph-name="question" unicode="&#x3f;" horiz-adv-x="298" d="M147 67 Q161 67 170.5 57.5 Q180 48 180 34 Q180 20 170.5 10 Q161 0 147 0 L146 0 Q132 0 122 10 Q112 20 112 34 Q112 48 122 57.5 Q132 67 146 67 L147 67 Z M16 552 L15 584 L15 611 Q15 638 27 657 Q39 676 57.5 687.5 Q76 699 99.5 704.5 Q123 710 146 710 Q205 710 241 677 Q277 644 277 584 Q277 559 274 535 Q263 481 236 440.5 Q209 400 175 359 Q172 356 167.5 344.5 Q163 333 163 329 L159 240 Q158 227 158 213.5 Q158 200 158 185 Q158 179 153.5 174.5 Q149 170 143 170 Q137 170 132.5 174.5 Q128 179 128 185 Q128 225 127 273.5 Q126 322 119 362 Q119 365 121 372.5 Q123 380 125 382 Q154 416 179.5 457 Q205 498 211 544 Q212 555 212.5 567 Q213 579 213 591 Q213 621 194 637.5 Q175 654 146 654 Q136 654 124.5 652 Q113 650 103 645.5 Q93 641 86 632.5 Q79 624 79 612 L79 585 L77 533 Q76 525 70.5 519.5 Q65 514 57 514 L35 514 Q27 514 21.5 519.5 Q16 525 16 533 L16 552 Z " />
<glyph glyph-name="at" unicode="&#x40;" horiz-adv-x="392" d="M349 75 Q340 52 324 36 Q308 20 287.5 9.5 Q267 -1 244 -5.5 Q221 -10 198 -10 Q169 -10 140.5 -3 Q112 4 89.5 19 Q67 34 53 57.5 Q39 81 39 114 L39 586 Q39 619 53 642.5 Q67 666 89.5 681 Q112 696 140.5 703 Q169 710 198 710 Q227 710 254.5 703 Q282 696 304 681 Q326 666 339 642.5 Q352 619 352 586 L352 150 Q352 136 345.5 126.5 Q339 117 328.5 111 Q318 105 306 102.5 Q294 100 282 100 Q265 100 252 109 Q239 118 235 135 Q235 137 232 137 Q231 137 229 135 Q211 100 178 100 Q148 100 130 124 Q111 146 111 185 L111 279 Q111 307 129 327 Q147 347 173 354 Q181 356 191.5 360.5 Q202 365 211 371.5 Q220 378 226.5 386.5 Q233 395 233 405 L233 528 Q233 543 224 552 Q214 561 198 561 Q182 561 173 551 Q163 541 163 523 L163 445 Q163 435 156.5 428.5 Q150 422 140 422 Q130 422 123.5 428.5 Q117 435 117 445 L117 511 Q117 549 136.5 576.5 Q156 604 198 604 Q238 604 259.5 579.5 Q281 555 281 517 L281 148 Q281 141 284 131 Q287 121 296 121 Q312 121 323 129 Q332 137 332 150 L332 586 Q332 614 320 634 Q308 654 289 666.5 Q270 679 246 684.5 Q222 690 198 690 Q174 690 149 684.5 Q124 679 104.5 666.5 Q85 654 72.5 634.5 Q60 615 60 586 L60 114 Q60 86 72.5 66 Q85 46 105 33.5 Q125 21 149.5 15.5 Q174 10 198 10 Q216 10 236 13.5 Q256 17 274 24.5 Q292 32 306.5 44.5 Q321 57 329 75 Q330 78 334.5 81.5 Q339 85 342 85 Q353 85 349 75 Z M224 343 Q213 335 197 330 Q180 325 169.5 310.5 Q159 296 159 279 L159 219 L158 197 Q158 188 160 178.5 Q162 169 166.5 161 Q171 153 178.5 147.5 Q186 142 196 142 Q207 142 214.5 148.5 Q222 155 226 165 Q230 175 231.5 185.5 Q233 196 233 205 L233 339 Q233 344 227 344 Q225 344 224 343 Z " />
<glyph glyph-name="A" unicode="A" horiz-adv-x="312" d="M108 661 Q110 678 124 689.5 Q138 701 155 701 Q172 701 185.5 689.5 Q199 678 201 661 L291 33 Q293 19 285 10 Q277 1 264 1 Q250 1 240 10 Q230 19 228 33 L214 145 Q212 164 197 177 Q182 190 163 190 L148 190 Q129 190 114 177 Q99 164 97 145 L91 95 L82 32 Q80 18 70 9 Q60 0 46 0 Q33 0 25 9 Q17 18 19 32 L108 661 Z M116 292 Q114 273 125 260 Q136 247 155 247 Q174 247 185 260 Q196 273 194 292 L178 422 Q176 431 169.5 435.5 Q163 440 155 440 Q147 440 141 435.5 Q135 431 133 422 L116 292 Z " />
<glyph glyph-name="B" unicode="B" horiz-adv-x="351" d="M167 700 Q192 700 216.5 694.5 Q241 689 260.5 677 Q280 665 292 645 Q304 625 304 596 L304 459 Q304 412 268 382 Q265 380 265.5 375.5 Q266 371 269 369 Q289 355 300 336.5 Q311 318 311 293 L311 105 Q311 78 300 58 Q289 38 271 25.5 Q253 13 230 6.5 Q207 0 183 0 L91 0 Q70 0 55 15 Q40 30 40 51 L40 649 Q40 670 55 685 Q70 700 91 700 L167 700 Z M104 97 Q104 80 115.5 68.5 Q127 57 144 57 L183 57 Q206 57 226.5 68.5 Q247 80 247 106 L247 291 Q247 304 241 312.5 Q235 321 225.5 326 Q216 331 205 333 Q194 335 183 335 L144 335 Q127 335 115.5 323.5 Q104 312 104 296 L104 97 Z M167 390 Q179 390 192 393 Q205 396 215.5 402 Q226 408 233 418 Q240 428 240 442 L240 593 Q240 607 233 617 Q226 627 215.5 633 Q205 639 192 641.5 Q179 644 167 644 L136 644 Q122 644 113 635 Q104 626 104 613 L104 422 Q104 408 113 399 Q122 390 136 390 L167 390 Z " />
<glyph glyph-name="C" unicode="C" horiz-adv-x="322" d="M302 583 Q302 567 286 567 L249 567 Q238 567 238 578 L238 589 L237 610 Q237 623 230.5 631.5 Q224 640 214 645 Q204 650 192.5 652 Q181 654 171 654 Q161 654 149.5 652 Q138 650 127.5 645.5 Q117 641 110 633 Q103 625 103 613 L103 396 Q103 347 103 306 Q103 265 104 230 L104 87 Q104 75 111 67 Q118 59 128 54.5 Q138 50 149.5 48 Q161 46 171 46 Q182 46 194 48.5 Q206 51 215.5 56 Q225 61 231.5 70 Q238 79 238 92 L238 112 Q238 120 244 125.5 Q250 131 258 131 L287 131 Q293 131 297.5 126.5 Q302 122 302 116 L302 100 Q302 72 291 51 Q280 30 262 16.5 Q244 3 220.5 -3.5 Q197 -10 171 -10 Q146 -10 122.5 -3.5 Q99 3 80.5 16.5 Q62 30 51 50 Q40 70 40 98 L40 602 Q40 630 51 650.5 Q62 671 80 684 Q98 697 122 703.5 Q146 710 171 710 Q197 710 221 703.5 Q245 697 263 683.5 Q281 670 291.5 649 Q302 628 302 599 L302 583 Z " />
<glyph glyph-name="D" unicode="D" horiz-adv-x="351" d="M40 649 Q40 670 55 685 Q70 700 91 700 L170 700 Q195 700 220 694.5 Q245 689 265.5 677 Q286 665 298.5 645 Q311 625 311 596 L311 105 Q311 76 298.5 56 Q286 36 265.5 23.5 Q245 11 220 5.5 Q195 0 170 0 L91 0 Q70 0 55 15 Q40 30 40 51 L40 649 Z M170 56 Q181 56 194.5 58.5 Q208 61 219.5 66.5 Q231 72 239 81.5 Q247 91 247 105 L247 593 Q247 608 239.5 617.5 Q232 627 220.5 633 Q209 639 195.5 641.5 Q182 644 170 644 L137 644 Q123 644 113.5 634.5 Q104 625 104 611 L104 89 Q104 75 113.5 65.5 Q123 56 137 56 L170 56 Z " />
<glyph glyph-name="E" unicode="E" horiz-adv-x="289" d="M91 0 Q70 0 55 15 Q40 30 40 51 L40 649 Q40 670 55 685 Q70 700 91 700 L234 700 Q247 700 255.5 691.5 Q264 683 264 670 Q264 657 255.5 648.5 Q247 640 234 640 L155 640 Q134 640 119 625 Q104 610 104 589 L104 446 Q104 425 119 410 Q134 395 155 395 L191 395 Q204 395 212.5 386.5 Q221 378 221 365 Q221 352 212.5 343.5 Q204 335 191 335 L155 335 Q134 335 119 320 Q104 305 104 284 L104 111 Q104 90 119 75 Q134 60 155 60 L239 60 Q252 60 260.5 51.5 Q269 43 269 30 Q269 17 260.5 8.5 Q252 0 239 0 L91 0 Z " />
<glyph glyph-name="F" unicode="F" horiz-adv-x="274" d="M104 32 Q104 18 95 9 Q86 0 72 0 Q58 0 49 9 Q40 18 40 32 L40 649 Q40 670 55 685 Q70 700 91 700 L224 700 Q237 700 245.5 691.5 Q254 683 254 670 Q254 657 245.5 648.5 Q237 640 224 640 L155 640 Q134 640 119 625 Q104 610 104 589 L104 426 Q104 405 119 390 Q134 375 155 375 L198 375 Q211 375 219.5 366.5 Q228 358 228 345 Q228 332 219.5 323.5 Q211 315 198 315 L155 315 Q134 315 119 300 Q104 285 104 264 L104 32 Z " />
<glyph glyph-name="G" unicode="G" horiz-adv-x="342" d="M303 100 Q303 93 303.5 78.5 Q304 64 306 49 Q308 34 311 20.5 Q314 7 319 1 Q320 1 320 0 Q320 0 320 -1 Q320 -2 320 -3 Q317 -7 315 -5 Q295 4 281 19 Q280 21 273 21 Q267 21 264 19 Q246 2 220.5 -4 Q195 -10 171 -10 Q146 -10 122.5 -3.5 Q99 3 80.5 16.5 Q62 30 51 50 Q40 70 40 98 L40 602 Q40 630 51 650.5 Q62 671 80 684 Q98 697 122 703.5 Q146 710 171 710 Q197 710 221 703.5 Q245 697 263 683.5 Q281 670 291.5 649 Q302 628 302 599 L302 583 Q302 567 286 567 L249 567 Q238 567 238 578 L238 589 L237 610 Q237 623 230.5 631.5 Q224 640 214 645 Q204 650 192.5 652 Q181 654 171 654 Q161 654 149.5 652 Q138 650 127.5 645.5 Q117 641 110 633 Q103 625 103 613 L103 396 Q103 347 103 306 Q103 265 104 230 L104 87 Q104 75 111 67 Q118 59 128 54.5 Q138 50 149.5 48 Q161 46 171 46 Q182 46 194 48.5 Q206 51 215.5 56 Q225 61 231.5 70 Q238 79 238 92 L238 262 Q238 270 232 276 Q226 282 218 282 Q210 282 204 288 Q198 294 198 302 L198 310 Q198 321 206.5 329.5 Q215 338 226 338 L252 338 Q273 338 288 323 Q303 308 303 287 L303 100 Z " />
<glyph glyph-name="H" unicode="H" horiz-adv-x="351" d="M247 285 Q247 306 232 321 Q217 336 196 336 L155 336 Q134 336 119 321 Q104 306 104 285 L104 32 Q104 18 95 9 Q86 0 72 0 Q58 0 49 9 Q40 18 40 32 L40 668 Q40 682 49 691 Q58 700 72 700 Q86 700 95 691 Q104 682 104 668 L104 443 Q104 422 119 407 Q134 392 155 392 L196 392 Q217 392 232 407 Q247 422 247 443 L247 668 Q247 682 256 691 Q265 700 279 700 Q293 700 302 691 Q311 682 311 668 L311 32 Q311 18 302 9 Q293 0 279 0 Q265 0 256 9 Q247 18 247 32 L247 285 Z " />
<glyph glyph-name="I" unicode="I" horiz-adv-x="144" d="M39 668 Q39 681 48.5 690.5 Q58 700 72 700 Q85 700 94.5 690.5 Q104 681 104 668 L104 33 Q104 19 94.5 9.5 Q85 0 72 0 Q58 0 48.5 9.5 Q39 19 39 33 L39 668 Z " />
<glyph glyph-name="J" unicode="J" horiz-adv-x="308" d="M268 95 Q268 67 257 47.5 Q246 28 228 15 Q210 2 186.5 -4 Q163 -10 138 -10 Q78 -10 43 19 Q7 48 8 94 L9 109 L9 126 Q9 142 26 142 L45 142 Q56 142 64.5 133.5 Q73 125 73 114 L73 86 Q73 74 80 66.5 Q87 59 97.5 54.5 Q108 50 119.5 48 Q131 46 140 46 Q151 46 162.5 48.5 Q174 51 184 56 Q194 61 200.5 69.5 Q207 78 207 91 L207 670 Q207 682 216 691 Q225 700 238 700 Q250 700 259 691 Q268 682 268 670 L268 95 Z " />
<glyph glyph-name="K" unicode="K" horiz-adv-x="335" d="M72 700 Q86 700 95 691 Q104 682 104 668 L104 529 Q104 511 116 501.5 Q128 492 142 492 Q152 492 161 497 Q170 502 175 513 L247 670 Q252 681 266.5 690.5 Q281 700 294 700 L328 699 L192 421 Q190 415 189 401 Q188 387 190 381 L317 34 Q322 21 315 11 Q308 1 294 1 Q280 0 266.5 9.5 Q253 19 248 32 L203 161 Q192 192 181.5 222 Q171 252 160 282 Q155 295 144 295 Q133 295 127 284 L109 247 Q108 245 106 235.5 Q104 226 104 224 L104 32 Q104 18 95 9 Q86 0 72 0 Q58 0 49 9 Q40 18 40 32 L40 668 Q40 682 49 691 Q58 700 72 700 Z " />
<glyph glyph-name="L" unicode="L" horiz-adv-x="269" d="M91 0 Q70 0 55 15 Q40 30 40 51 L40 668 Q40 682 49 691 Q58 700 72 700 Q86 700 95 691 Q104 682 104 668 L104 111 Q104 90 119 75 Q134 60 155 60 L224 60 Q237 60 245.5 51.5 Q254 43 254 30 Q254 17 245.5 8.5 Q237 0 224 0 L91 0 Z " />
<glyph glyph-name="M" unicode="M" horiz-adv-x="426" d="M40 657 Q40 675 52.5 687.5 Q65 700 83 700 L84 700 Q101 700 116 688 Q131 676 134 659 L170 475 Q173 458 186 449.5 Q199 441 213 441 Q228 441 241 449.5 Q254 458 257 475 L292 659 Q295 676 310 688 Q325 700 342 700 L343 700 Q361 700 373.5 687.5 Q386 675 386 657 L386 32 Q386 18 377 9 Q368 0 354 0 Q340 0 331 9 Q322 18 322 32 L322 503 Q322 510 315 510 Q309 510 309 505 Q298 450 288.5 396.5 Q279 343 268 289 Q258 235 248 181 Q238 127 227 73 Q226 68 222 65 Q218 62 213 62 Q202 62 199 73 L158 294 Q156 304 148.5 308.5 Q141 313 132 313 Q121 313 112.5 307 Q104 301 104 289 L104 32 Q104 18 95 9 Q86 0 72 0 Q58 0 49 9 Q40 18 40 32 L40 657 Z " />
<glyph glyph-name="N" unicode="N" horiz-adv-x="353" d="M42 660 Q42 677 54.5 689 Q67 701 84 701 Q101 701 115.5 689.5 Q130 678 134 661 L193 405 Q196 393 204.5 387.5 Q213 382 224 382 Q236 382 246.5 389.5 Q257 397 257 412 L257 673 Q257 684 265.5 692.5 Q274 701 285 701 Q296 701 304.5 692.5 Q313 684 313 673 L313 44 Q313 27 301 14.5 Q289 2 272 2 L271 2 Q254 2 239.5 13.5 Q225 25 221 42 L162 297 Q160 309 151 314.5 Q142 320 132 320 Q119 320 108.5 312.5 Q98 305 98 290 L98 29 Q98 18 89.5 9.5 Q81 1 70 1 Q59 1 50.5 9.5 Q42 18 42 29 L42 660 Z " />
<glyph glyph-name="O" unicode="O" horiz-adv-x="340" d="M236 613 Q236 625 229.5 633 Q223 641 213 645.5 Q203 650 191.5 652 Q180 654 170 654 Q160 654 148.5 652 Q137 650 127 645.5 Q117 641 110 633 Q103 625 103 613 L103 87 Q103 75 110 67 Q117 59 127 54.5 Q137 50 148.5 48 Q160 46 170 46 Q180 46 191.5 48 Q203 50 213 54.5 Q223 59 229.5 67 Q236 75 236 87 L236 613 Z M300 98 Q300 70 289 50 Q278 30 260 16.5 Q242 3 218.5 -3.5 Q195 -10 170 -10 Q145 -10 121.5 -3.5 Q98 3 79.5 16.5 Q61 30 50 50 Q39 70 39 98 L39 602 Q39 630 50 650.5 Q61 671 79 684 Q97 697 121 703.5 Q145 710 170 710 Q196 710 219.5 703.5 Q243 697 261 684 Q279 671 289.5 650.5 Q300 630 300 602 L300 98 Z " />
<glyph glyph-name="P" unicode="P" horiz-adv-x="336" d="M40 649 Q40 670 55 685 Q70 700 91 700 L181 700 Q206 700 229.5 694 Q253 688 271 675.5 Q289 663 300 643.5 Q311 624 311 596 L311 391 Q311 333 273.5 302.5 Q236 272 181 272 L143 272 Q126 272 115 261 Q104 250 104 234 L104 32 Q104 18 95 9 Q86 0 72 0 Q58 0 49 9 Q40 18 40 32 L40 649 Z M181 328 Q210 328 228.5 344.5 Q247 361 247 391 L247 593 Q247 621 226 632.5 Q205 644 181 644 L143 644 Q126 644 115 633 Q104 622 104 606 L104 367 Q104 350 115 339 Q126 328 143 328 L181 328 Z " />
<glyph glyph-name="Q" unicode="Q" horiz-adv-x="353" d="M236 613 Q236 625 229.5 633 Q223 641 213 645.5 Q203 650 191.5 652 Q180 654 170 654 Q160 654 148.5 652 Q137 650 127 645.5 Q117 641 110 633 Q103 625 103 613 L103 87 Q103 75 110 67 Q117 59 127 54.5 Q137 50 148.5 48 Q160 46 170 46 Q180 46 191.5 48 Q203 50 213 54.5 Q223 59 229.5 67 Q236 75 236 87 L236 613 Z M318 -14 Q307 -10 291.5 -3 Q276 4 267 12 Q265 14 260 14 Q257 14 253 12 Q221 -10 170 -10 Q145 -10 121.5 -3.5 Q98 3 79.5 16.5 Q61 30 50 50 Q39 70 39 98 L39 602 Q39 630 50 650.5 Q61 671 79 684 Q97 697 121 703.5 Q145 710 170 710 Q196 710 219.5 703.5 Q243 697 261 684 Q279 671 289.5 650.5 Q300 630 300 602 L300 98 Q300 74 307 43.5 Q314 13 326 -8 Q328 -10 325 -12.5 Q322 -15 320 -15 Q319 -15 319 -14.5 Q319 -14 318 -14 Z " />
<glyph glyph-name="R" unicode="R" horiz-adv-x="351" d="M247 269 Q247 282 240.5 290.5 Q234 299 224 304 Q214 309 202.5 311 Q191 313 181 313 L143 313 Q126 313 115 302 Q104 291 104 275 L104 32 Q104 18 95 9 Q86 0 72 0 Q58 0 49 9 Q40 18 40 32 L40 649 Q40 670 55 685 Q70 700 91 700 L181 700 Q206 700 229.5 694 Q253 688 271 675.5 Q289 663 300 643.5 Q311 624 311 596 L311 460 Q311 402 284 364 Q280 359 281 348.5 Q282 338 287 333 Q311 309 311 272 L311 32 Q311 18 302 9 Q293 0 279 0 Q265 0 256 9 Q247 18 247 32 L247 269 Z M181 369 Q199 369 212 377.5 Q225 386 232.5 399 Q240 412 243.5 428.5 Q247 445 247 460 L247 593 Q247 621 226 632.5 Q205 644 181 644 L143 644 Q126 644 115 633 Q104 622 104 606 L104 408 Q104 391 115 380 Q126 369 143 369 L181 369 Z " />
<glyph glyph-name="S" unicode="S" horiz-adv-x="309" d="M88 89 Q88 69 106 58 Q124 46 154 46 Q180 46 199.5 60.5 Q219 75 219 103 Q219 133 211 164 Q203 195 189.5 224.5 Q176 254 159.5 281.5 Q143 309 126 333 Q25 473 25 588 Q25 646 61.5 678 Q98 710 155 710 Q178 710 201 704.5 Q224 699 242.5 687.5 Q261 676 272.5 657 Q284 638 284 611 L284 592 Q284 584 278.5 578.5 Q273 573 265 573 L239 573 Q231 573 225.5 578.5 Q220 584 220 592 L220 611 Q220 631 202 643 Q183 654 155 654 Q129 654 108.5 641 Q88 628 88 599 Q88 505 182 375 Q202 348 220 317 Q238 286 252 252 Q266 218 274.5 183.5 Q283 149 283 114 Q283 56 247 23 Q211 -10 154 -10 Q131 -10 107.5 -4.5 Q84 1 65.5 12.5 Q47 24 35.5 43 Q24 62 24 89 L24 111 Q24 120 30.5 126.5 Q37 133 46 133 L66 133 Q75 133 81.5 126.5 Q88 120 88 111 L88 89 Z " />
<glyph glyph-name="T" unicode="T" horiz-adv-x="299" d="M33 644 Q22 644 13.5 652.5 Q5 661 5 672 Q5 683 13.5 691.5 Q22 700 33 700 L266 700 Q277 700 285.5 691.5 Q294 683 294 672 Q294 661 285.5 652.5 Q277 644 266 644 L233 644 Q212 644 197 629 Q182 614 182 593 L182 33 Q182 19 172.5 9.5 Q163 0 150 0 Q136 0 126.5 9.5 Q117 19 117 33 L117 593 Q117 614 102 629 Q87 644 66 644 L33 644 Z " />
<glyph glyph-name="U" unicode="U" horiz-adv-x="340" d="M300 98 Q300 70 289 50 Q278 30 260 16.5 Q242 3 218.5 -3.5 Q195 -10 170 -10 Q145 -10 121.5 -3.5 Q98 3 79.5 16.5 Q61 30 50 50 Q39 70 39 98 L39 668 Q39 682 48 691 Q57 700 71 700 Q85 700 94 691 Q103 682 103 668 L103 87 Q103 75 110 67 Q117 59 127 54.5 Q137 50 148.5 48 Q160 46 170 46 Q180 46 191.5 48 Q203 50 213 54.5 Q223 59 229.5 67 Q236 75 236 87 L236 668 Q236 682 245 691 Q254 700 268 700 Q282 700 291 691 Q300 682 300 668 L300 98 Z " />
<glyph glyph-name="V" unicode="V" horiz-adv-x="312" d="M266 700 Q279 700 287.5 691 Q296 682 294 668 L205 42 Q203 25 188.5 12.5 Q174 0 157 0 Q139 0 124.5 12.5 Q110 25 108 42 L19 668 Q17 682 25.5 691 Q34 700 47 700 Q61 700 71 691 Q81 682 83 668 L118 395 Q120 379 131.5 371.5 Q143 364 157 364 Q171 364 182 371.5 Q193 379 195 395 L230 668 Q232 682 242 691 Q252 700 266 700 Z " />
<glyph glyph-name="W" unicode="W" horiz-adv-x="470" d="M440 674 L404 44 Q403 26 390 13 Q377 0 359 0 Q341 0 326.5 12.5 Q312 25 310 43 L276 298 Q274 315 261.5 323.5 Q249 332 235 332 Q221 332 209 324 Q197 316 195 299 L160 42 Q158 25 143.5 12.5 Q129 0 112 0 Q94 0 81 12.5 Q68 25 67 42 L29 695 L29 700 L59 700 Q72 700 81 691.5 Q90 683 90 670 L102 389 Q103 378 110.5 372.5 Q118 367 128 367 Q137 367 144.5 371.5 Q152 376 154 387 L188 658 Q190 675 204 687.5 Q218 700 236 700 Q253 700 267 687.5 Q281 675 283 658 L317 384 Q319 374 326 369 Q333 364 342 364 Q352 364 360 370 Q368 376 369 387 L380 670 Q380 682 389.5 691 Q399 700 412 700 Q424 700 432.5 693.5 Q441 687 440 674 Z " />
<glyph glyph-name="X" unicode="X" horiz-adv-x="295" d="M129 238 Q121 212 114.5 187 Q108 162 100 136 Q92 108 84.5 81 Q77 54 69 26 Q66 15 54.5 7 Q43 -1 32 -1 Q20 -1 13.5 7.5 Q7 16 11 27 L111 332 Q113 336 113 348 Q113 360 111 364 L14 669 Q10 681 16.5 690 Q23 699 36 699 Q49 699 61.5 690 Q74 681 78 668 L144 457 Q147 450 155 450 Q162 450 165 458 Q173 484 180 510 Q187 536 194 562 Q202 590 209.5 617.5 Q217 645 225 672 Q228 683 239.5 691.5 Q251 700 263 700 Q274 700 280.5 691.5 Q287 683 283 672 L182 366 Q181 362 180.5 350 Q180 338 182 334 L279 31 Q283 19 276.5 9.5 Q270 0 257 0 Q243 0 230.5 9.5 Q218 19 214 31 L150 238 Q147 246 139 246 Q132 246 129 238 Z " />
<glyph glyph-name="Y" unicode="Y" horiz-adv-x="364" d="M42 668 Q38 681 45.5 690.5 Q53 700 67 700 Q80 700 92.5 689.5 Q105 679 108 666 Q116 632 124.5 598 Q133 564 142 530 Q150 498 157.5 466.5 Q165 435 173 403 Q175 395 183 395 Q191 395 193 403 Q201 435 208 466.5 Q215 498 222 530 Q230 564 237.5 598 Q245 632 253 666 Q256 680 268.5 690 Q281 700 295 700 Q309 700 316 689 Q323 678 319 665 Q307 623 295 581.5 Q283 540 272 498 Q258 448 243.5 399 Q229 350 215 301 Q215 300 214.5 295 Q214 290 214 289 L214 32 Q214 18 205 9 Q196 0 182 0 Q168 0 159 9 Q150 18 150 32 L150 289 Q150 290 149 296 Q148 302 148 303 L42 668 Z " />
<glyph glyph-name="Z" unicode="Z" horiz-adv-x="304" d="M16 32 Q16 33 17 39.5 Q18 46 18 48 Q42 122 65.5 195.5 Q89 269 113 342 Q132 401 151 458.5 Q170 516 189 576 Q197 602 183 623 Q169 644 141 644 L44 644 Q33 644 24.5 652.5 Q16 661 16 672 Q16 683 24.5 691.5 Q33 700 44 700 L259 700 Q268 700 274.5 693.5 Q281 687 281 678 L281 663 Q281 662 280 655.5 Q279 649 279 647 L110 123 Q101 97 115.5 76.5 Q130 56 158 56 L254 56 Q265 56 273.5 47.5 Q282 39 282 28 Q282 17 273.5 8.5 Q265 0 254 0 L36 0 Q28 0 22 6 Q16 12 16 20 L16 32 Z " />
<glyph glyph-name="bracketleft" unicode="&#x5b;" horiz-adv-x="185" d="M158 -38 Q165 -38 170 -43 Q175 -48 175 -56 Q175 -63 170 -68 Q165 -73 158 -73 L100 -73 Q79 -73 64 -58 Q49 -43 49 -22 L49 649 Q49 670 64 685 Q79 700 100 700 L158 700 Q165 700 170 695 Q175 690 175 683 Q175 675 170 670 Q165 665 158 665 L132 665 Q114 665 101.5 652.5 Q89 640 89 622 L89 5 Q89 -13 101.5 -25.5 Q114 -38 132 -38 L158 -38 Z " />
<glyph glyph-name="backslash" unicode="&#x5c;" horiz-adv-x="151" d="M26 700 Q32 700 37 695.5 Q42 691 43 685 L139 -75 Q140 -81 136 -85.5 Q132 -90 126 -90 Q119 -90 114 -85.5 Q109 -81 108 -75 L12 685 Q11 691 15 695.5 Q19 700 26 700 Z " />
<glyph glyph-name="bracketright" unicode="&#x5d;" horiz-adv-x="170" d="M10 683 Q10 690 15 695 Q20 700 28 700 L79 700 Q100 700 115 685 Q130 670 130 649 L130 -22 Q130 -43 115 -58 Q100 -73 79 -73 L28 -73 Q20 -73 15 -68 Q10 -63 10 -56 Q10 -48 15 -43 Q20 -38 28 -38 L51 -38 Q68 -38 79.5 -26 Q91 -14 91 3 L91 625 Q91 642 79.5 653.5 Q68 665 51 665 L28 665 Q20 665 15 670 Q10 675 10 683 Z " />
<glyph glyph-name="asciicircum" unicode="&#x5e;" horiz-adv-x="499" d="M328 654 Q332 650 330 645 Q328 640 322 640 L318 640 Q314 640 303 643.5 Q292 647 289 649 L276 659 Q266 666 250 666 Q234 666 224 659 L211 649 Q208 647 197 643.5 Q186 640 182 640 L178 640 Q172 640 169.5 645 Q167 650 172 654 L203 685 Q208 690 220.5 695 Q233 700 239 700 L261 700 Q267 700 279.5 695 Q292 690 297 685 L328 654 Z " />
<glyph glyph-name="underscore" unicode="&#x5f;" horiz-adv-x="324" d="M314 -76 Q314 -83 309 -88 Q304 -93 297 -93 L27 -93 Q20 -93 15 -88 Q10 -83 10 -76 Q10 -69 15 -64 Q20 -59 27 -59 L297 -59 Q304 -59 309 -64 Q314 -69 314 -76 Z " />
<glyph glyph-name="grave" unicode="&#x60;" horiz-adv-x="499" d="M198 700 Q206 700 219.5 693.5 Q233 687 238 680 L257 655 Q261 650 258.5 645 Q256 640 250 640 L249 640 Q244 640 232 644.5 Q220 649 216 652 L183 679 Q176 685 179 692.5 Q182 700 191 700 L198 700 Z " />
<glyph glyph-name="a" unicode="a" horiz-adv-x="316" d="M29 217 Q29 262 58.5 289.5 Q88 317 130 325 Q169 332 196 345 Q220 357 220 388 L220 515 Q220 534 205 546 Q188 557 157 557 Q129 557 112 546 Q95 534 95 514 L95 421 Q94 411 87.5 404.5 Q81 398 71 398 L64 398 Q51 398 42.5 406.5 Q34 415 34 428 L34 506 Q34 533 44 552.5 Q54 572 71 584.5 Q88 597 110.5 603.5 Q133 610 157 610 Q183 610 205.5 604.5 Q228 599 245 586.5 Q262 574 271.5 554.5 Q281 535 281 506 L281 31 Q281 18 272 9 Q263 0 251 0 L245 0 Q234 0 227 7 Q220 14 220 25 L220 34 Q220 37 216 37 Q214 37 214 36 Q208 27 201 19 Q194 11 185 6 Q163 -10 131 -10 Q83 -10 57.5 19 Q32 48 30 95 L30 129 L29 169 L29 217 Z M155 42 Q185 42 202.5 60.5 Q220 79 220 108 L220 306 Q220 310 215 310 Q213 310 212 309 Q197 296 177.5 289.5 Q158 283 139 280 Q116 275 103 257 Q90 239 90 217 L90 108 Q90 79 107.5 60.5 Q125 42 155 42 Z " />
<glyph glyph-name="b" unicode="b" horiz-adv-x="329" d="M34 672 Q34 684 43 693 Q52 702 65 702 Q77 702 86 693 Q95 684 95 672 L95 590 Q95 586 98.5 583.5 Q102 581 106 581 Q109 581 111 583 Q138 611 183 611 Q233 611 263.5 584 Q294 557 294 506 L294 96 Q294 46 262.5 18.5 Q231 -9 183 -9 Q133 -9 106 24 Q104 26 102 26 Q95 26 95 20 Q95 12 89 6 Q83 0 75 1 L65 1 Q52 2 43 11 Q34 20 34 33 L34 672 Z M95 113 Q95 82 112.5 62.5 Q130 43 162 43 Q194 43 214 61.5 Q234 80 234 112 L234 494 Q234 526 213.5 542 Q193 558 163 558 Q133 558 114 540.5 Q95 523 95 492 L95 113 Z " />
<glyph glyph-name="c" unicode="c" horiz-adv-x="329" d="M294 100 Q294 72 283.5 51 Q273 30 255 16.5 Q237 3 213.5 -3.5 Q190 -10 164 -10 Q139 -10 115.5 -3.5 Q92 3 74 16.5 Q56 30 45 50.5 Q34 71 34 99 L34 501 Q34 529 45 549.5 Q56 570 74 583.5 Q92 597 115.5 603.5 Q139 610 164 610 Q190 610 213.5 603.5 Q237 597 255 583.5 Q273 570 283.5 549.5 Q294 529 294 501 L294 401 Q294 388 285 379 Q276 370 264 370 Q251 370 242 379 Q233 388 233 401 L233 501 Q233 530 211.5 543.5 Q190 557 164 557 Q139 557 117 545 Q95 533 95 504 L95 96 Q95 68 117 55.5 Q139 43 164 43 Q189 43 211 55.5 Q233 68 233 96 L233 195 Q233 207 242 216 Q251 225 264 225 Q276 225 285 216 Q294 207 294 195 L294 100 Z " />
<glyph glyph-name="d" unicode="d" horiz-adv-x="330" d="M35 501 Q35 551 64.5 580.5 Q94 610 144 610 Q194 610 219 582 Q221 580 223 580 Q227 580 230.5 582.5 Q234 585 234 589 L234 670 Q234 682 243 691 Q252 700 265 700 Q277 700 286 691 Q295 682 295 670 L295 30 Q295 17 286.5 8.5 Q278 0 265 0 L262 0 Q251 0 243 8 Q235 16 235 27 L235 38 Q235 41 231 41 Q228 41 228 39 Q213 15 193 2.5 Q173 -10 144 -10 Q96 -10 66 18 Q36 46 36 95 L36 298 L35 403 L35 501 Z M165 43 Q195 43 215 60 Q235 77 235 108 L235 504 Q235 533 213 545 Q191 557 166 557 Q140 557 118 545 Q96 533 96 504 L96 108 Q96 77 116 60 Q136 43 165 43 Z " />
<glyph glyph-name="e" unicode="e" horiz-adv-x="329" d="M294 100 Q294 72 283.5 51 Q273 30 255 16.5 Q237 3 213.5 -3.5 Q190 -10 164 -10 Q139 -10 115.5 -3.5 Q92 3 74 16.5 Q56 30 45 50.5 Q34 71 34 99 L34 501 Q34 529 45 549.5 Q56 570 74 583.5 Q92 597 115.5 603.5 Q139 610 164 610 Q190 610 213.5 603.5 Q237 597 255 583.5 Q273 570 283.5 549.5 Q294 529 294 501 L294 363 Q294 342 279 327 Q264 312 243 312 L146 312 Q125 312 110 297 Q95 282 95 261 L95 96 Q95 68 117 55.5 Q139 43 164 43 Q189 43 211 55.5 Q233 68 233 96 L233 195 Q233 207 242 216 Q251 225 264 225 Q276 225 285 216 Q294 207 294 195 L294 100 Z M233 501 Q233 530 211.5 543.5 Q190 557 164 557 Q139 557 117 545 Q95 533 95 504 L95 416 Q95 395 110 380 Q125 365 146 365 L182 365 Q203 365 218 380 Q233 395 233 416 L233 501 Z " />
<glyph glyph-name="f" unicode="f" horiz-adv-x="255" d="M86 504 Q86 521 75 532 Q64 543 47 543 L36 543 Q25 543 16.5 551.5 Q8 560 8 571 Q8 582 16.5 590.5 Q25 599 36 599 L66 599 Q73 599 80 606 Q87 613 89 619 Q97 655 125 674.5 Q153 694 188 700 L193 700 L218 700 Q229 700 236.5 692.5 Q244 685 244 674 L244 663 Q244 647 228 647 L212 647 L200 646 L194 646 Q179 643 164 634.5 Q149 626 147 609 Q146 600 157 600 L212 600 Q223 600 231.5 591.5 Q240 583 240 572 Q240 561 231.5 552.5 Q223 544 212 544 L194 544 Q174 544 160.5 530.5 Q147 517 147 498 L147 31 Q147 18 138 9 Q129 0 117 -1 Q104 -1 95 8 Q86 17 86 30 L86 504 Z " />
<glyph glyph-name="g" unicode="g" horiz-adv-x="330" d="M294 12 Q294 -17 283.5 -37.5 Q273 -58 255 -72 Q237 -86 213.5 -92.5 Q190 -99 164 -99 Q139 -99 115 -92.5 Q91 -86 73 -72.5 Q55 -59 44 -38.5 Q33 -18 33 10 L33 19 Q33 28 42 28 L80 28 Q94 28 94 14 L94 0 Q94 -21 113 -34 Q133 -46 164 -46 Q176 -46 188 -43.5 Q200 -41 210.5 -35.5 Q221 -30 227.5 -20.5 Q234 -11 234 3 L234 98 Q234 101 230 101 Q228 101 227 100 Q221 91 214 83 Q207 75 198 70 Q176 54 143 54 Q97 54 65.5 80 Q34 106 34 154 L34 328 L33 419 L33 502 Q33 552 63 581.5 Q93 611 143 611 Q175 611 197 599 Q205 594 212.5 588.5 Q220 583 225 575 Q227 573 229 573 Q233 573 233 576 L233 582 Q233 590 238 595 Q243 600 251 600 L264 601 Q276 601 285 592 Q294 583 294 570 L294 12 Z M164 107 Q190 107 210.5 120 Q231 133 233 161 L233 352 L232 441 L232 510 Q232 512 231.5 516.5 Q231 521 230 522 Q222 542 203.5 550 Q185 558 165 558 Q153 558 140 555 Q127 552 117 546 Q107 540 100.5 530 Q94 520 94 505 L94 167 Q94 137 115 122 Q136 107 164 107 Z " />
<glyph glyph-name="h" unicode="h" horiz-adv-x="329" d="M233 119 L234 212 L234 492 Q234 524 213.5 540 Q193 556 163 556 Q133 556 114 538.5 Q95 521 95 490 L95 31 Q95 18 86 9 Q77 0 65 0 Q52 0 43 9 Q34 18 34 31 L34 670 Q34 682 43 691 Q52 700 65 700 Q77 700 86 691 Q95 682 95 670 L95 573 Q95 570 100 570 Q102 570 103 571 Q133 610 184 610 Q233 610 263.5 583 Q294 556 294 505 L294 31 Q294 18 285 9 Q276 0 264 0 L255 0 Q246 0 239.5 7 Q233 14 233 23 L233 119 Z " />
<glyph glyph-name="i" unicode="i" horiz-adv-x="131" d="M66 698 Q79 698 88.5 688.5 Q98 679 98 666 Q98 652 88.5 642.5 Q79 633 66 633 Q52 633 42.5 642.5 Q33 652 33 666 Q33 679 42.5 688.5 Q52 698 66 698 Z M35 570 Q35 582 44 591 Q53 600 66 600 Q78 600 87 591 Q96 582 96 570 L96 31 Q96 18 87 9 Q78 0 66 0 Q53 0 44 9 Q35 18 35 31 L35 570 Z " />
<glyph glyph-name="j" unicode="j" horiz-adv-x="140" d="M75 698 Q88 698 97.5 688.5 Q107 679 107 666 Q107 652 97.5 642.5 Q88 633 75 633 Q61 633 51.5 642.5 Q42 652 42 666 Q42 679 51.5 688.5 Q61 698 75 698 Z M75 600 Q87 600 96 591 Q105 582 105 570 L105 -8 Q105 -28 96.5 -42.5 Q88 -57 74 -68 Q60 -79 43 -85.5 Q26 -92 9 -95 L5 -96 L0 -96 L-16 -96 Q-32 -96 -32 -80 L-32 -79 Q-32 -72 -27.5 -67.5 Q-23 -63 -17 -63 L-5 -63 Q-4 -63 -0.5 -62.5 Q3 -62 4 -62 Q19 -59 32 -48 Q44 -35 44 -17 L44 570 Q44 582 53 591 Q62 600 75 600 Z " />
<glyph glyph-name="k" unicode="k" horiz-adv-x="307" d="M35 670 Q35 682 44 691 Q53 700 66 700 Q78 700 87 691 Q96 682 96 670 L96 475 Q96 457 108 447 Q120 437 135 437 Q145 437 154 442 Q163 447 169 458 L227 572 Q232 583 246.5 591.5 Q261 600 273 600 L274 600 Q285 599 290.5 590 Q296 581 291 570 L180 364 Q177 357 176 342.5 Q175 328 178 321 L295 30 Q300 18 293.5 9 Q287 0 275 0 Q263 0 249.5 9 Q236 18 231 30 L149 239 Q144 252 132 252 Q121 252 115 241 L102 216 Q100 214 98 204.5 Q96 195 96 192 L96 31 Q96 18 87 9 Q78 0 66 0 Q53 0 44 9 Q35 18 35 31 L35 670 Z " />
<glyph glyph-name="l" unicode="l" horiz-adv-x="131" d="M35 670 Q35 682 44 691 Q53 700 66 700 Q78 700 87 691 Q96 682 96 670 L96 31 Q96 18 87 9 Q78 0 66 0 Q53 0 44 9 Q35 18 35 31 L35 670 Z " />
<glyph glyph-name="m" unicode="m" horiz-adv-x="528" d="M432 120 L433 213 L433 493 Q433 525 412.5 541 Q392 557 362 557 Q332 557 313 539.5 Q294 522 294 491 L294 32 Q294 19 285 10 Q276 1 264 2 L255 2 Q246 2 239.5 8.5 Q233 15 233 24 L233 120 L234 213 L234 493 Q234 525 213.5 541 Q193 557 163 557 Q133 557 114 539.5 Q95 522 95 491 L95 32 Q95 19 86 10 Q77 1 65 1 Q52 1 43 10 Q34 19 34 32 L34 571 Q34 583 43 592 Q52 601 65 601 L75 601 Q83 601 89 595 Q95 589 95 581 L95 574 Q95 571 100 571 Q102 571 103 572 Q133 611 184 611 Q221 611 249 594 Q270 579 280 561 Q284 557 287 557 Q292 557 294 561 Q324 610 383 610 Q432 610 462.5 583 Q493 556 493 505 L493 31 Q493 18 484 9 Q475 0 463 1 L454 1 Q445 1 438.5 8 Q432 15 432 24 L432 120 Z " />
<glyph glyph-name="n" unicode="n" horiz-adv-x="329" d="M233 119 L234 212 L234 492 Q234 524 213.5 540 Q193 556 163 556 Q133 556 114 538.5 Q95 521 95 490 L95 31 Q95 18 86 9 Q77 0 65 0 Q52 0 43 9 Q34 18 34 31 L34 570 Q34 582 43 591 Q52 600 65 600 L75 600 Q83 600 89 594 Q95 588 95 580 L95 573 Q95 570 100 570 Q102 570 103 571 Q133 610 184 610 Q233 610 263.5 583 Q294 556 294 505 L294 31 Q294 18 285 9 Q276 0 264 0 L255 0 Q246 0 239.5 7 Q233 14 233 23 L233 119 Z " />
<glyph glyph-name="o" unicode="o" horiz-adv-x="330" d="M235 510 Q235 524 228 533 Q221 542 210.5 547 Q200 552 188 554.5 Q176 557 165 557 Q154 557 141.5 554.5 Q129 552 118.5 547 Q108 542 101 533 Q94 524 94 510 L94 90 Q94 77 101 67.5 Q108 58 118.5 53 Q129 48 141.5 45.5 Q154 43 165 43 Q176 43 188 45.5 Q200 48 210.5 53 Q221 58 228 67.5 Q235 77 235 90 L235 510 Z M295 101 Q295 73 284.5 52 Q274 31 256 17 Q238 3 214.5 -3.5 Q191 -10 165 -10 Q139 -10 115.5 -3 Q92 4 74 17.5 Q56 31 45.5 52 Q35 73 35 101 L35 499 Q35 527 45.5 548 Q56 569 74 582.5 Q92 596 115.5 603 Q139 610 165 610 Q191 610 214.5 603.5 Q238 597 256 583 Q274 569 284.5 548.5 Q295 528 295 499 L295 101 Z " />
<glyph glyph-name="p" unicode="p" horiz-adv-x="329" d="M65 -88 Q52 -88 43 -79 Q34 -70 34 -58 L34 572 Q34 584 43 593 Q52 602 65 602 L75 602 Q83 602 89 596 Q95 590 95 582 Q95 576 102 576 Q104 576 106 578 Q133 611 183 611 Q233 611 263.5 584 Q294 557 294 506 L294 96 Q294 46 262.5 18.5 Q231 -9 183 -9 Q138 -9 111 19 Q109 21 106 21 Q102 21 98.5 18.5 Q95 16 95 12 L95 -58 Q95 -70 86 -79 Q77 -88 65 -88 Z M95 113 Q95 82 112.5 62.5 Q130 43 162 43 Q194 43 214 61.5 Q234 80 234 112 L234 494 Q234 526 213.5 542 Q193 558 163 558 Q133 558 114 540.5 Q95 523 95 492 L95 113 Z " />
<glyph glyph-name="q" unicode="q" horiz-adv-x="330" d="M35 501 Q35 551 64.5 580.5 Q94 610 144 610 Q170 610 191.5 600 Q213 590 227 567 Q228 566 230 566 Q234 566 234 569 L234 578 Q234 587 240.5 593.5 Q247 600 257 600 L265 600 Q277 600 286 591 Q295 582 295 570 L295 -60 Q295 -73 286.5 -81.5 Q278 -90 265 -90 Q252 -90 243.5 -81.5 Q235 -73 235 -60 L235 38 Q235 41 231 41 Q228 41 228 39 Q213 15 193 2.5 Q173 -10 144 -10 Q96 -10 66 18 Q36 46 36 95 L36 298 L35 403 L35 501 Z M165 43 Q195 43 215 60 Q235 77 235 108 L235 504 Q235 533 213 545 Q191 557 166 557 Q140 557 118 545 Q96 533 96 504 L96 108 Q96 77 116 60 Q136 43 165 43 Z " />
<glyph glyph-name="r" unicode="r" horiz-adv-x="295" d="M226 492 Q226 522 207.5 539 Q189 556 160 556 Q131 556 113.5 537.5 Q96 519 96 490 L96 31 Q96 18 87 9 Q78 0 66 0 Q53 0 44 9 Q35 18 35 31 L35 570 Q35 582 44 591 Q53 600 66 600 L77 600 Q85 600 90.5 594.5 Q96 589 96 581 L96 575 Q96 572 100 572 Q102 572 104 574 Q109 582 115.5 587.5 Q122 593 130 598 Q151 610 179 610 Q228 610 256.5 582 Q285 554 285 505 L285 439 Q285 427 276 418 Q267 409 255 409 L241 409 Q234 409 229.5 413.5 Q225 418 226 425 L226 492 Z " />
<glyph glyph-name="s" unicode="s" horiz-adv-x="297" d="M80 93 Q80 80 86.5 70.5 Q93 61 102.5 55 Q112 49 124 46 Q136 43 148 43 Q178 43 197.5 60.5 Q217 78 217 109 Q217 132 208.5 155 Q200 178 186.5 200 Q173 222 157 242 Q141 262 126 277 Q20 387 20 485 Q20 543 56 576.5 Q92 610 149 610 Q173 610 196.5 604 Q220 598 238 585 Q256 572 267 553 Q278 534 278 507 L278 445 Q278 432 269 423 Q260 414 248 414 Q235 414 226 423 Q217 432 217 445 L217 507 Q217 521 211 530.5 Q205 540 195 546 Q185 552 173 554.5 Q161 557 149 557 Q120 557 100.5 540.5 Q81 524 81 494 Q81 418 171 323 Q189 304 208 280 Q227 256 242.5 230 Q258 204 267.5 176 Q277 148 277 120 Q277 61 242 25.5 Q207 -10 148 -10 Q124 -10 100.5 -4 Q77 2 59 15 Q41 28 30 47 Q19 66 19 93 L19 165 Q19 177 28 186 Q37 195 50 195 Q62 195 71 186 Q80 177 80 165 L80 93 Z " />
<glyph glyph-name="t" unicode="t" horiz-adv-x="338" d="M328 100 Q328 73 318 52 Q308 31 291 17.5 Q274 4 251.5 -3 Q229 -10 203 -10 Q178 -10 155 -3 Q132 4 115 17.5 Q98 31 88 51.5 Q78 72 78 99 L78 508 Q78 523 67.5 533.5 Q57 544 42 544 L33 544 Q22 544 13.5 552.5 Q5 561 5 572 Q5 583 13.5 591.5 Q22 600 33 600 L58 600 Q66 600 72 606 Q78 612 78 620 L78 631 Q78 633 81 636.5 Q84 640 87 641 Q104 646 111.5 664.5 Q119 683 120 699 Q120 703 123 706.5 Q126 710 130 710 Q139 710 139 701 L139 651 Q139 630 154 615 Q169 600 190 600 L268 600 Q279 600 287.5 591.5 Q296 583 296 572 Q296 561 287.5 552.5 Q279 544 268 544 L190 544 Q169 544 154 529 Q139 514 139 493 L139 96 Q139 72 157 58 Q174 43 203 43 Q228 43 247.5 56 Q267 69 267 96 L267 185 Q267 197 276 206 Q285 215 298 215 Q310 215 319 206 Q328 197 328 185 L328 100 Z " />
<glyph glyph-name="u" unicode="u" horiz-adv-x="330" d="M34 600 L65 600 Q77 600 86 591 Q95 582 95 570 L95 108 Q95 77 115 60 Q135 43 164 43 Q194 43 214 60 Q234 77 234 108 L234 570 Q234 582 243 591 Q252 600 265 600 Q277 600 286 591 Q295 582 295 570 L295 31 Q295 18 286 9 Q277 0 265 0 L261 0 Q250 0 242 8 Q234 16 234 27 L234 38 Q234 41 230 41 Q227 41 227 39 Q212 15 192 2.5 Q172 -10 143 -10 Q95 -10 65 18 Q35 46 35 95 L34 595 L34 600 Z " />
<glyph glyph-name="v" unicode="v" horiz-adv-x="313" d="M209 43 Q206 26 191 13 Q176 0 158 0 L155 0 Q137 0 122 13 Q107 26 104 43 L16 595 L16 598 Q14 600 18 600 L46 598 Q59 597 69 587.5 Q79 578 81 566 L117 321 Q119 305 131 297.5 Q143 290 157 290 Q171 290 182.5 297.5 Q194 305 196 322 L231 568 Q233 580 242.5 589 Q252 598 265 599 L292 600 Q295 600 295 598 L209 43 Z " />
<glyph glyph-name="w" unicode="w" horiz-adv-x="469" d="M437 570 Q427 437 419 300 Q414 235 410.5 171.5 Q407 108 402 45 Q400 28 387 14 Q374 0 357 0 Q340 0 325.5 12.5 Q311 25 309 42 L275 262 Q273 279 260.5 286.5 Q248 294 234 294 Q220 294 208 286.5 Q196 279 194 262 L159 42 Q157 25 142.5 12.5 Q128 0 111 0 Q94 0 81 12.5 Q68 25 66 42 L29 595 L29 600 L60 600 Q72 600 81.5 591 Q91 582 91 570 L102 330 Q103 319 111 313 Q119 307 129 307 Q139 307 146.5 311.5 Q154 316 156 327 L192 564 Q194 579 206.5 589.5 Q219 600 234 600 Q249 600 261.5 589.5 Q274 579 276 564 L312 327 Q314 316 321.5 311.5 Q329 307 339 307 Q349 307 357 313 Q365 319 366 330 L377 570 Q377 582 386.5 591 Q396 600 409 600 Q421 600 429.5 591.5 Q438 583 437 570 Z " />
<glyph glyph-name="x" unicode="x" horiz-adv-x="308" d="M39 0 Q27 0 21 8.5 Q15 17 19 28 L116 282 Q118 287 118 300 Q118 313 116 318 L24 568 Q19 580 25.5 589.5 Q32 599 45 599 L46 599 Q58 600 70.5 591 Q83 582 88 571 Q96 549 104 527 Q112 505 121 482 Q129 459 137 437 Q145 415 153 393 Q156 386 164 386 Q171 386 174 393 L232 572 Q236 583 247.5 591.5 Q259 600 271 600 Q282 600 288 591.5 Q294 583 290 572 L193 318 Q191 313 191 300 Q191 287 193 282 L286 30 Q291 18 284.5 9 Q278 0 265 0 Q252 0 239.5 9 Q227 18 222 30 L169 175 Q166 183 160 186.5 Q154 190 148 190 Q133 190 127 174 L77 28 Q74 17 62 8.5 Q50 0 39 0 Z " />
<glyph glyph-name="y" unicode="y" horiz-adv-x="330" d="M81 27 Q95 27 95 13 L95 -1 Q95 -22 114 -35 Q134 -47 165 -47 Q177 -47 189 -44.5 Q201 -42 211.5 -36.5 Q222 -31 228.5 -21.5 Q235 -12 235 2 L235 97 Q235 100 231 100 Q229 100 228 99 Q222 90 215 82 Q208 74 199 69 Q177 53 144 53 Q98 53 66.5 79 Q35 105 35 153 L35 224 L34 295 L34 600 L65 600 Q77 600 86 591 Q95 582 95 570 L95 166 Q95 136 116 121 Q137 106 165 106 Q191 106 212 119 Q233 132 235 160 L235 301 L233 540 L233 570 Q233 583 241.5 591.5 Q250 600 263 600 L264 600 Q277 600 286 591 Q295 582 295 569 L295 11 Q295 -18 284.5 -38.5 Q274 -59 256 -73 Q238 -87 214.5 -93.5 Q191 -100 165 -100 Q140 -100 116 -93.5 Q92 -87 74 -73.5 Q56 -60 45 -39.5 Q34 -19 34 9 L34 18 Q34 27 43 27 L81 27 Z " />
<glyph glyph-name="z" unicode="z" horiz-adv-x="289" d="M8 29 Q8 31 9.5 38.5 Q11 46 12 48 L180 477 Q191 504 176 525.5 Q161 547 132 547 L35 547 Q24 547 16 555 Q8 563 8 574 Q8 585 16 592.5 Q24 600 35 600 L251 600 Q260 600 266.5 593.5 Q273 587 273 578 L273 566 Q273 564 271.5 556.5 Q270 549 269 547 L103 123 Q92 96 107 74.5 Q122 53 151 53 L248 53 Q259 53 266.5 45.5 Q274 38 274 27 Q274 16 266.5 8 Q259 0 248 0 L28 0 Q20 0 14 6 Q8 12 8 20 L8 29 Z " />
<glyph glyph-name="braceleft" unicode="&#x7b;" horiz-adv-x="188" d="M5 308 L5 313 Q5 319 9.5 323.5 Q14 328 21 328 L36 328 Q54 328 60 344.5 Q66 361 66 375 L66 621 Q66 656 87.5 678 Q109 700 144 700 L161 700 Q168 700 173 695 Q178 690 178 683 L178 679 Q178 673 174 669 Q170 665 164 666 L150 666 Q130 666 118 652 Q105 639 105 615 L106 554 L106 388 Q106 378 104 365.5 Q102 353 96.5 342 Q91 331 82.5 322.5 Q74 314 62 312 L61 312 L62 309 Q84 305 95.5 289 Q107 273 107 251 L107 64 L106 -9 Q106 -27 119 -37 Q132 -48 151 -48 L165 -48 Q171 -47 175 -51 Q179 -55 179 -61 L179 -65 Q179 -72 174 -77 Q169 -82 162 -82 L145 -82 Q110 -82 88.5 -60 Q67 -38 67 -3 L67 238 Q67 261 59 277 Q50 292 36 292 L21 292 Q5 292 5 308 Z " />
<glyph glyph-name="bar" unicode="&#x7c;" horiz-adv-x="136" d="M60 700 Q76 700 76 684 L76 -74 Q76 -90 60 -90 Q44 -90 44 -74 L44 684 Q44 700 60 700 Z " />
<glyph glyph-name="braceright" unicode="&#x7d;" horiz-adv-x="188" d="M4 -65 L4 -61 Q4 -55 8 -51 Q12 -47 18 -48 L32 -48 Q51 -48 65 -37 Q77 -27 77 -9 L77 64 Q76 81 76 102 Q76 123 76 147 L76 251 Q76 278 92 294 Q103 306 121 309 L121 312 L120 312 Q104 315 93 332 Q77 352 77 388 L77 483 Q77 504 77 522 Q77 540 78 554 L78 615 Q78 639 66 652 Q52 666 33 666 L19 666 Q13 665 9 669 Q5 673 5 679 L5 683 Q5 690 10 695 Q15 700 22 700 L39 700 Q74 700 95.5 678 Q117 656 117 621 L117 375 Q117 361 123 344.5 Q129 328 147 328 L163 328 Q169 328 173.5 323.5 Q178 319 178 313 L178 308 Q178 301 173.5 296.5 Q169 292 163 292 L147 292 Q133 292 125 277 Q116 262 116 238 L116 -3 Q116 -38 94.5 -60 Q73 -82 38 -82 L21 -82 Q14 -82 9 -77 Q4 -72 4 -65 Z " />
<glyph glyph-name="asciitilde" unicode="&#x7e;" horiz-adv-x="499" d="M147 306 Q147 328 160 339.5 Q173 351 195 351 Q205 351 225 346 Q233 343 241.5 340 Q250 337 258 333 L262 331 L273 327 Q274 327 278.5 326 Q283 325 284 325 L296 323 L302 323 Q311 323 317 329 Q322 332 322 342 Q322 350 329 350 L338 350 Q353 350 353 335 Q353 314 339.5 302 Q326 290 305 290 Q292 290 274 296 Q258 301 241 308 L237 310 L226 314 Q225 314 220.5 315 Q216 316 215 316 L204 318 L199 318 Q189 318 183 312 Q177 308 177 298 Q177 290 170 290 L162 290 Q147 290 147 306 Z " />
<glyph glyph-name="exclamdown" unicode="&#xa1;" horiz-adv-x="124" d="M95 567 Q95 553 85.5 543 Q76 533 62 533 L61 533 Q47 533 37 543 Q27 553 27 567 Q27 581 37 590.5 Q47 600 61 600 L62 600 Q76 600 85.5 590.5 Q95 581 95 567 Z M45 422 Q46 428 50.5 432.5 Q55 437 62 437 Q68 437 72.5 432.5 Q77 428 78 422 L94 136 L94 -68 Q94 -81 84.5 -90.5 Q75 -100 62 -100 Q48 -100 38.5 -90.5 Q29 -81 29 -68 L29 136 L45 422 Z " />
<glyph glyph-name="cent" unicode="&#xa2;" horiz-adv-x="328" d="M35 502 Q35 547 62 573.5 Q89 600 131 608 Q138 609 143.5 615 Q149 621 149 628 L149 631 Q149 637 153.5 641.5 Q158 646 164 646 Q170 646 174.5 641.5 Q179 637 179 631 L179 628 Q179 621 184.5 615 Q190 609 197 608 Q239 600 266 573.5 Q293 547 293 502 L293 398 Q293 387 285.5 379 Q278 371 267 371 Q256 371 248 379 Q240 387 240 398 L240 502 Q240 526 227.5 539 Q215 552 193 560 Q192 560 191 560.5 Q190 561 189 561 Q179 561 179 549 L179 51 Q179 40 193 40 Q213 45 226.5 59.5 Q240 74 240 96 L240 199 Q240 210 248 217.5 Q256 225 267 225 Q278 225 285.5 217.5 Q293 210 293 199 L293 100 Q293 57 267 29 Q241 1 199 -6 Q191 -8 185 -15 Q179 -22 179 -30 L179 -35 Q179 -41 174.5 -45.5 Q170 -50 164 -50 Q158 -50 153.5 -45.5 Q149 -41 149 -35 L149 -30 Q149 -22 143 -15 Q137 -8 129 -6 Q87 1 61 28.5 Q35 56 35 99 L35 502 Z M149 549 Q149 557 145 559 Q141 561 134 561 Q114 554 100.5 540 Q87 526 87 503 L87 96 Q87 75 100.5 60 Q114 45 134 40 Q141 40 145 42 Q149 44 149 52 L149 549 Z " />
<glyph glyph-name="brokenbar" unicode="&#xa6;" horiz-adv-x="151" d="M76 700 Q82 700 86.5 695.5 Q91 691 91 685 L91 421 Q91 414 86.5 409.5 Q82 405 76 405 Q60 405 60 421 L60 685 Q60 691 64.5 695.5 Q69 700 76 700 Z M76 205 Q82 205 86.5 200.5 Q91 196 91 190 L91 -75 Q91 -81 86.5 -85.5 Q82 -90 76 -90 Q69 -90 64.5 -85.5 Q60 -81 60 -75 L60 190 Q60 196 64.5 200.5 Q69 205 76 205 Z " />
<glyph glyph-name="section" unicode="&#xa7;" horiz-adv-x="245" d="M10 23 Q20 57 29.5 91 Q39 125 49 160 Q59 197 69 233.5 Q79 270 89 305 Q91 308 91 320 Q91 332 90 335 L13 614 Q10 625 16 633 Q22 641 34 641 Q45 641 56 633 Q67 625 70 614 L113 458 Q118 445 129 445 Q142 445 145 458 L184 616 Q186 626 195.5 633.5 Q205 641 216 641 Q227 641 232.5 634.5 Q238 628 235 618 Q215 548 195.5 478 Q176 408 156 337 Q154 334 154 322 Q154 310 155 307 L232 29 Q235 18 228.5 9.5 Q222 1 211 1 Q200 1 189 9 Q178 17 174 28 Q162 75 149.5 120.5 Q137 166 123 212 Q122 218 115 218 Q110 218 107 212 L61 25 Q59 15 49.5 7.5 Q40 0 29 0 Q18 0 12.5 6.5 Q7 13 10 23 Z " />
<glyph glyph-name="ordfeminine" unicode="&#xaa;" horiz-adv-x="307" d="M287 -27 Q298 -27 306 -35 Q314 -43 314 -54 Q314 -65 306 -73 Q298 -81 287 -81 L32 -81 Q21 -81 13 -73 Q5 -65 5 -54 Q5 -43 13 -35 Q21 -27 32 -27 L287 -27 Z M30 505 Q30 532 40.5 552 Q51 572 68 585 Q85 598 107.5 604 Q130 610 155 610 Q181 610 204.5 604.5 Q228 599 245 586.5 Q262 574 272 554 Q282 534 282 505 L282 41 Q282 24 270 12 Q258 0 241 0 L221 0 Q212 0 206 6 Q200 12 200 21 L200 28 Q200 30 197 30 Q194 30 193 29 Q183 13 168 4 Q150 -10 122 -10 Q76 -10 51.5 19 Q27 48 27 93 L27 217 Q27 260 52.5 291.5 Q78 323 120 332 Q138 336 152.5 341 Q167 346 178 351 Q200 361 200 388 L200 518 Q200 525 195 529 Q190 533 183.5 535.5 Q177 538 169.5 538.5 Q162 539 157 539 Q141 539 126 534 Q112 528 112 517 L112 439 Q112 422 100 410 Q88 398 71 398 Q54 398 42 410 Q30 422 30 439 L30 505 Z M193 296 Q185 289 171 284 L137 274 L132 273 Q118 268 113.5 249 Q109 230 109 217 L109 112 Q109 92 119.5 76.5 Q130 61 153 61 Q176 61 188 75.5 Q200 90 200 112 L200 294 Q200 297 196 297 Q194 297 193 296 Z " />
<glyph glyph-name="guillemotleft" unicode="&#xab;" horiz-adv-x="355" d="M107 514 Q112 522 125.5 528.5 Q139 535 148 535 L153 535 Q163 535 167 527 Q171 519 165 511 L100 424 Q91 411 91 393 Q91 375 100 362 L165 275 Q171 267 167 259 Q163 251 153 251 L149 251 Q140 251 126.5 257.5 Q113 264 108 271 L39 362 Q30 375 30 393 Q30 411 39 424 L107 514 Z M305 535 Q315 535 319 527 Q323 519 317 511 L251 424 Q242 411 242 393 Q242 375 251 362 L317 275 Q323 267 319 259 Q315 251 305 251 L301 251 Q292 251 278.5 257.5 Q265 264 260 271 L191 362 Q182 375 182 393 Q182 411 191 424 L259 514 Q264 522 277.5 528.5 Q291 535 300 535 L305 535 Z " />
<glyph glyph-name="twosuperior" unicode="&#xb2;" horiz-adv-x="168" d="M28 664 Q28 684 45 698 Q62 710 90 710 Q116 710 134 696 Q152 682 152 654 Q152 623 138 596 Q124 569 106 545 Q97 532 89.5 521 Q82 510 77 500 Q66 478 66 459 L66 446 Q66 433 79 433 L140 433 Q156 433 156 417 Q156 400 140 400 L58 400 Q45 400 36.5 408.5 Q28 417 28 430 L28 459 Q28 491 42.5 517.5 Q57 544 75 568 Q91 589 102.5 610.5 Q114 632 114 660 Q114 677 90 677 Q66 677 66 665 L66 640 Q66 632 60.5 626.5 Q55 621 47 621 Q39 621 33.5 626.5 Q28 632 28 640 L28 664 Z " />
<glyph glyph-name="threesuperior" unicode="&#xb3;" horiz-adv-x="170" d="M90 391 Q61 391 44 406.5 Q27 422 27 451 L27 457 Q27 463 33 463 L58 463 Q66 463 66 455 L66 446 Q66 435 74 430 Q82 424 91 424 Q101 424 107.5 429 Q114 434 114 445 L114 524 Q114 546 90 546 L79 546 Q67 546 67 558 L67 568 Q67 579 79 579 L90 579 Q100 579 108 587 Q114 595 114 605 L114 663 Q114 671 107 673 Q100 675 92 675 L85 675 L78 674 Q75 672 70.5 671 Q66 670 66 665 L66 657 Q66 648 58 648 L34 648 Q27 648 27 655 L27 662 Q27 689 47 699 Q67 709 90 709 Q101 709 112 706.5 Q123 704 132 698.5 Q141 693 147 684 Q153 675 153 662 L153 611 Q153 590 141 575 Q139 573 139 566.5 Q139 560 141 557 Q153 542 153 520 L153 451 Q153 423 135 407 Q117 391 90 391 Z " />
<glyph glyph-name="acute" unicode="&#xb4;" horiz-adv-x="499" d="M309 700 Q317 700 320 692.5 Q323 685 316 679 L283 652 Q279 649 267 644.5 Q255 640 250 640 Q243 640 240.5 645 Q238 650 242 655 L261 680 Q266 687 279.5 693.5 Q293 700 301 700 L309 700 Z " />
<glyph glyph-name="middot" unicode="&#xb7;" horiz-adv-x="221" d="M111 352 Q126 352 136.5 341.5 Q147 331 147 316 Q147 301 136.5 290.5 Q126 280 111 280 Q96 280 85.5 290.5 Q75 301 75 316 Q75 331 85.5 341.5 Q96 352 111 352 Z " />
<glyph glyph-name="onesuperior" unicode="&#xb9;" horiz-adv-x="166" d="M36 616 Q54 619 66 634 Q78 649 78 668 L78 684 Q78 700 94 700 L99 700 Q108 700 114 694 Q120 688 120 679 L120 419 Q120 411 114.5 405.5 Q109 400 101 400 Q93 400 87.5 405.5 Q82 411 82 419 L82 622 Q82 624 78 624 L76 624 Q72 621 68 619.5 Q64 618 59 616 Q51 612 38 612 Q37 613 37 614 Q36 615 36 616 Z " />
<glyph glyph-name="ordmasculine" unicode="&#xba;" horiz-adv-x="318" d="M293 -27 Q304 -27 312 -35 Q320 -43 320 -54 Q320 -65 312 -73 Q304 -81 293 -81 L38 -81 Q27 -81 19 -73 Q11 -65 11 -54 Q11 -43 19 -35 Q27 -27 38 -27 L293 -27 Z M212 513 Q212 526 196 533 Q180 539 161 539 Q142 539 125 533 Q108 525 108 513 L108 87 Q108 74 125 68 Q140 61 161 61 Q181 61 196 68 Q212 74 212 87 L212 513 Z M293 102 Q293 74 282 52.5 Q271 31 253 17.5 Q235 4 211 -3 Q187 -10 161 -10 Q135 -10 111 -3 Q87 4 68.5 17.5 Q50 31 39 52.5 Q28 74 28 102 L28 498 Q28 527 39 548 Q50 569 68.5 583 Q87 597 111 603.5 Q135 610 161 610 Q187 610 211 603.5 Q235 597 253 583 Q271 569 282 548 Q293 527 293 498 L293 102 Z " />
<glyph glyph-name="guillemotright" unicode="&#xbb;" horiz-adv-x="371" d="M38 511 Q32 519 35.5 527 Q39 535 50 535 L55 535 Q63 535 76.5 528.5 Q90 522 95 515 L166 425 Q177 412 176.5 393 Q176 374 166 361 L94 270 Q89 264 75.5 257.5 Q62 251 54 251 L49 251 Q39 251 35 259 Q31 267 37 275 L105 361 Q116 374 116 393 Q116 412 105 425 L38 511 Z M338 425 Q348 412 348 393 Q348 374 338 361 L266 270 Q261 264 247.5 257.5 Q234 251 226 251 L221 251 Q211 251 207 259 Q203 267 209 275 L277 361 Q288 374 288 393 Q288 412 277 425 L209 511 Q203 519 207 527 Q211 535 221 535 L226 535 Q234 535 247.5 528.5 Q261 522 266 516 L338 425 Z " />
<glyph glyph-name="onequarter" unicode="&#xbc;" horiz-adv-x="426" d="M412 137 Q412 129 418 123 Q424 117 432 117 Q440 117 446 111 Q452 105 452 97 Q452 89 446 83 Q440 77 432 77 Q424 77 418 71 Q412 65 412 57 L412 22 Q412 13 405.5 6.5 Q399 0 390 0 Q381 0 374.5 6.5 Q368 13 368 22 L368 39 Q368 55 357 66 Q346 77 330 77 L294 77 Q286 77 280 83 Q274 89 274 97 L274 106 Q274 108 276 117 Q278 126 279 128 Q290 153 300 175.5 Q310 198 319 219 L374 347 Q376 353 384 358.5 Q392 364 400 364 Q408 364 411.5 358.5 Q415 353 412 346 L360 216 Q352 199 344 180 Q336 161 328 141 Q324 132 328.5 124.5 Q333 117 343 117 L353 117 Q359 117 363.5 121.5 Q368 126 368 133 L368 148 Q368 162 374 183 L386 223 L403 267 Q403 271 408 271 Q412 271 412 267 L412 137 Z M12 587 Q38 589 55.5 607 Q73 625 73 651 L73 671 Q73 679 79 684.5 Q85 690 93 690 L98 690 Q109 690 116 683 Q123 676 123 665 L123 349 Q123 339 116.5 332.5 Q110 326 100 326 Q90 326 83.5 332.5 Q77 339 77 349 L77 595 Q77 597 75.5 598.5 Q74 600 72 598 Q67 595 61 592.5 Q55 590 49 588 Q34 582 15 582 Q12 582 12 585 Q10 587 12 587 Z M401 700 Q406 700 408.5 695.5 Q411 691 409 686 L48 14 Q46 9 38.5 4.5 Q31 0 26 0 Q20 0 17.5 4.5 Q15 9 17 14 L378 686 Q380 691 387.5 695.5 Q395 700 401 700 Z " />
<glyph glyph-name="onehalf" unicode="&#xbd;" horiz-adv-x="426" d="M274 314 Q274 329 280.5 339.5 Q287 350 297.5 356.5 Q308 363 321.5 366 Q335 369 348 369 Q381 369 402 351 Q422 331 422 302 Q422 264 405 233 Q388 202 366 172 Q350 150 334.5 124 Q319 98 319 70 L319 55 Q319 49 323.5 44.5 Q328 40 334 40 L406 40 Q414 40 420 34 Q426 28 426 20 Q426 12 420 6 Q414 0 406 0 L309 0 Q295 0 284.5 10.5 Q274 21 274 35 L274 70 Q274 108 290.5 139.5 Q307 171 329 200 Q347 223 362 250.5 Q377 278 377 309 Q377 320 367.5 325 Q358 330 348 330 Q319 330 319 316 L319 286 Q319 276 312.5 269.5 Q306 263 297 263 Q287 263 280.5 269.5 Q274 276 274 286 L274 314 Z M378 686 Q380 691 387.5 695.5 Q395 700 401 700 Q406 700 408.5 695.5 Q411 691 409 686 L48 14 Q46 9 38.5 4.5 Q31 0 26 0 Q20 0 17.5 4.5 Q15 9 17 14 L378 686 Z M73 671 Q73 679 79 684.5 Q85 690 93 690 L98 690 Q109 690 116 683 Q123 676 123 665 L123 349 Q123 339 116.5 332.5 Q110 326 100 326 Q90 326 83.5 332.5 Q77 339 77 349 L77 595 Q77 597 75.5 598.5 Q74 600 72 598 Q67 595 61 592.5 Q55 590 49 588 Q34 582 15 582 Q12 582 12 585 Q10 587 12 587 Q38 589 55.5 607 Q73 625 73 651 L73 671 Z " />
<glyph glyph-name="threequarters" unicode="&#xbe;" horiz-adv-x="426" d="M412 137 Q412 129 418 123 Q424 117 432 117 Q440 117 446 111 Q452 105 452 97 Q452 89 446 83 Q440 77 432 77 Q424 77 418 71 Q412 65 412 57 L412 22 Q412 13 405.5 6.5 Q399 0 390 0 Q381 0 374.5 6.5 Q368 13 368 22 L368 39 Q368 55 357 66 Q346 77 330 77 L294 77 Q286 77 280 83 Q274 89 274 97 L274 106 Q274 108 276 117 Q278 126 279 128 Q290 153 300 175.5 Q310 198 319 219 L374 347 Q376 353 384 358.5 Q392 364 400 364 Q408 364 411.5 358.5 Q415 353 412 346 L360 216 Q352 199 344 180 Q336 161 328 141 Q324 132 328.5 124.5 Q333 117 343 117 L353 117 Q359 117 363.5 121.5 Q368 126 368 133 L368 148 Q368 162 374 183 L386 223 L403 267 Q403 271 408 271 Q412 271 412 267 L412 137 Z M84 321 Q52 321 31 338 Q10 355 10 389 L10 397 Q10 404 18 404 L45 404 Q55 404 55 394 L55 383 Q55 371 64 365 Q72 358 84 358 Q95 358 104 364 Q112 370 112 382 L112 475 Q112 483 109 487 Q107 490 104 492 L100 494 Q99 494 93 496.5 Q87 499 86 499 L78 500 L72 501 L66 501 Q56 501 56 511 L56 527 Q56 540 70 540 L83 540 Q112 540 112 570 L112 643 Q112 648 108 649 Q105 652 99 652 L90 653 L78 653 L68 652 Q67 652 64.5 651.5 Q62 651 61 651 Q55 648 55 643 L55 633 Q55 623 45 623 L18 623 Q10 623 10 631 L10 639 Q10 671 32.5 683 Q55 695 83 695 Q96 695 109.5 692 Q123 689 133.5 682.5 Q144 676 150.5 665.5 Q157 655 157 640 L157 580 Q157 555 143 538 Q141 535 141 527.5 Q141 520 143 517 Q157 498 157 473 L157 391 Q157 358 136.5 339.5 Q116 321 84 321 Z M401 700 Q406 700 408.5 695.5 Q411 691 409 686 L48 14 Q46 9 38.5 4.5 Q31 0 26 0 Q20 0 17.5 4.5 Q15 9 17 14 L378 686 Q380 691 387.5 695.5 Q395 700 401 700 Z " />
<glyph glyph-name="questiondown" unicode="&#xbf;" horiz-adv-x="357" d="M186 533 Q172 533 162 543 Q152 553 152 567 Q152 581 162 590.5 Q172 600 186 600 L187 600 Q201 600 210.5 590.5 Q220 581 220 567 Q220 553 210.5 543 Q201 533 187 533 L186 533 Z M317 -11 Q317 -38 305.5 -57 Q294 -76 275 -88 Q256 -100 233 -105 Q210 -110 186 -110 Q128 -110 91.5 -77 Q55 -44 55 16 Q55 29 56 41 Q57 53 59 65 Q62 88 72 112 Q82 136 96 158.5 Q110 181 126 202 Q142 223 157 241 Q160 245 164.5 256 Q169 267 169 272 L171 305 Q172 316 172.5 330 Q173 344 174 360 L174 415 Q174 421 178.5 425.5 Q183 430 189 430 Q195 430 199.5 425.5 Q204 421 204 415 Q204 395 204.5 377 Q205 359 206 343 L209 279 Q210 267 210.5 256 Q211 245 213 236 Q213 233 211 226.5 Q209 220 207 218 Q185 192 168.5 169 Q152 146 141 121.5 Q130 97 124.5 70 Q119 43 119 9 Q119 -21 138 -37.5 Q157 -54 186 -54 Q215 -54 235 -43 Q253 -31 253 -12 L256 67 Q256 75 261.5 80.5 Q267 86 275 86 L297 86 Q305 86 310.5 80.5 Q316 75 317 67 L317 -11 Z " />
<glyph glyph-name="Agrave" unicode="&#xc0;" horiz-adv-x="312" d="M105 800 Q113 800 126.5 793.5 Q140 787 145 780 L164 756 Q168 751 165.5 745.5 Q163 740 156 740 L155 740 Q150 740 138 744.5 Q126 749 122 752 L90 779 Q83 784 86 792 Q89 800 98 800 L105 800 Z M108 661 Q110 678 124 689.5 Q138 701 155 701 Q172 701 185.5 689.5 Q199 678 201 661 L291 33 Q293 19 285 10 Q277 1 264 1 Q250 1 240 10 Q230 19 228 33 L214 145 Q212 164 197 177 Q182 190 163 190 L148 190 Q129 190 114 177 Q99 164 97 145 L91 95 L82 32 Q80 18 70 9 Q60 0 46 0 Q33 0 25 9 Q17 18 19 32 L108 661 Z M116 292 Q114 273 125 260 Q136 247 155 247 Q174 247 185 260 Q196 273 194 292 L178 422 Q176 431 169.5 435.5 Q163 440 155 440 Q147 440 141 435.5 Q135 431 133 422 L116 292 Z " />
<glyph glyph-name="Aacute" unicode="&#xc1;" horiz-adv-x="312" d="M215 800 Q223 800 226 792 Q229 784 222 779 L190 752 Q186 749 174 744.5 Q162 740 157 740 L156 740 Q149 740 146.5 745.5 Q144 751 148 756 L167 780 Q172 787 185.5 793.5 Q199 800 207 800 L215 800 Z M108 661 Q110 678 124 689.5 Q138 701 155 701 Q172 701 185.5 689.5 Q199 678 201 661 L291 33 Q293 19 285 10 Q277 1 264 1 Q250 1 240 10 Q230 19 228 33 L214 145 Q212 164 197 177 Q182 190 163 190 L148 190 Q129 190 114 177 Q99 164 97 145 L91 95 L82 32 Q80 18 70 9 Q60 0 46 0 Q33 0 25 9 Q17 18 19 32 L108 661 Z M116 292 Q114 273 125 260 Q136 247 155 247 Q174 247 185 260 Q196 273 194 292 L178 422 Q176 431 169.5 435.5 Q163 440 155 440 Q147 440 141 435.5 Q135 431 133 422 L116 292 Z " />
<glyph glyph-name="Acircumflex" unicode="&#xc2;" horiz-adv-x="312" d="M234 754 Q238 750 236 745 Q234 740 228 740 L224 740 Q220 740 209 743.5 Q198 747 195 749 L182 759 Q172 766 156 766 Q140 766 130 759 L117 749 Q114 747 103 743.5 Q92 740 88 740 L84 740 Q78 740 76 745 Q74 750 78 754 L109 785 Q114 790 126.5 795 Q139 800 145 800 L167 800 Q173 800 185.5 795 Q198 790 203 785 L234 754 Z M19 35 Q30 113 41.5 192 Q53 271 64 351 Q75 428 86 504.5 Q97 581 108 657 Q110 674 124 687.5 Q138 701 155 701 Q172 701 185.5 689.5 Q199 678 201 661 L291 33 Q293 19 285 10 Q277 1 264 1 Q250 1 240 10 Q230 19 228 33 L214 145 Q212 164 197 177 Q182 190 163 190 L148 190 Q129 190 114 177 Q99 164 97 145 L91 95 L82 32 Q80 18 70 9 Q60 0 46 0 Q33 0 25 11 Q17 22 19 35 Z M116 292 Q114 273 125 260 Q136 247 155 247 Q174 247 185 260 Q196 273 194 292 L178 422 Q176 431 169.5 435.5 Q163 440 155 440 Q147 440 141 435.5 Q135 431 133 422 L116 292 Z " />
<glyph glyph-name="Atilde" unicode="&#xc3;" horiz-adv-x="312" d="M53 744 Q53 766 66 777.5 Q79 789 101 789 Q107 789 114.5 787.5 Q122 786 132 784 Q140 781 148.5 778 Q157 775 165 771 L169 769 L182 765 Q183 765 187 763 Q189 763 191 762 L201 761 Q202 760 205.5 760 Q209 760 210 760 Q227 763 227 782 Q229 789 234 789 L244 789 Q259 789 259 774 Q259 753 245.5 741 Q232 729 211 729 Q199 729 181 735 Q164 739 147 747 L143 749 L130 753 Q130 753 125 755 Q123 755 121 756 L111 757 Q110 758 106.5 758 Q103 758 102 758 Q85 755 85 736 Q83 729 78 729 L68 729 Q53 729 53 744 Z M108 661 Q110 678 124 689.5 Q138 701 155 701 Q172 701 185.5 689.5 Q199 678 201 661 L291 33 Q293 19 285 10 Q277 1 264 1 Q250 1 240 10 Q230 19 228 33 L214 145 Q212 164 197 177 Q182 190 163 190 L148 190 Q129 190 114 177 Q99 164 97 145 L91 95 L82 32 Q80 18 70 9 Q60 0 46 0 Q33 0 25 9 Q17 18 19 32 L108 661 Z M116 292 Q114 273 125 260 Q136 247 155 247 Q174 247 185 260 Q196 273 194 292 L178 422 Q176 431 169.5 435.5 Q163 440 155 440 Q147 440 141 435.5 Q135 431 133 422 L116 292 Z " />
<glyph glyph-name="Adieresis" unicode="&#xc4;" horiz-adv-x="312" d="M199 796 Q210 796 218.5 787.5 Q227 779 227 768 Q227 757 218.5 748.5 Q210 740 199 740 Q188 740 179.5 748.5 Q171 757 171 768 Q171 779 179.5 787.5 Q188 796 199 796 Z M113 796 Q124 796 132.5 787.5 Q141 779 141 768 Q141 757 132.5 748.5 Q124 740 113 740 Q102 740 93.5 748.5 Q85 757 85 768 Q85 779 93.5 787.5 Q102 796 113 796 Z M108 661 Q110 678 124 689.5 Q138 701 155 701 Q172 701 185.5 689.5 Q199 678 201 661 L291 33 Q293 19 285 10 Q277 1 264 1 Q250 1 240 10 Q230 19 228 33 L214 145 Q212 164 197 177 Q182 190 163 190 L148 190 Q129 190 114 177 Q99 164 97 145 L91 95 L82 32 Q80 18 70 9 Q60 0 46 0 Q33 0 25 9 Q17 18 19 32 L108 661 Z M116 292 Q114 273 125 260 Q136 247 155 247 Q174 247 185 260 Q196 273 194 292 L178 422 Q176 431 169.5 435.5 Q163 440 155 440 Q147 440 141 435.5 Q135 431 133 422 L116 292 Z " />
<glyph glyph-name="Aring" unicode="&#xc5;" horiz-adv-x="312" d="M151 789 Q148 788 144 786 Q143 786 142.5 784.5 Q142 783 141 782 L140 780 Q138 776 140 771 Q141 769 143.5 767 Q146 765 148 765 L152 763 Q153 763 156.5 762.5 Q160 762 162 762 L168 765 Q169 765 169.5 766.5 Q170 768 171 769 L172 771 Q174 776 172 780 Q171 782 168.5 784 Q166 786 164 786 L160 788 Q159 788 155.5 788.5 Q152 789 151 789 Z M110 775 Q110 793 125 801.5 Q140 810 156 810 Q172 810 187 801.5 Q202 793 202 775 Q202 757 187 749.5 Q172 742 156 742 Q141 742 125.5 749.5 Q110 757 110 775 Z M19 35 Q30 113 41.5 192 Q53 271 64 351 Q75 428 86 504.5 Q97 581 108 657 Q110 674 124 687.5 Q138 701 155 701 Q172 701 185.5 689.5 Q199 678 201 661 L291 33 Q293 19 285 10 Q277 1 264 1 Q250 1 240 10 Q230 19 228 33 L214 145 Q212 164 197 177 Q182 190 163 190 L148 190 Q129 190 114 177 Q99 164 97 145 L91 95 L82 32 Q80 18 70 9 Q60 0 46 0 Q33 0 25 11 Q17 22 19 35 Z M116 292 Q114 273 125 260 Q136 247 155 247 Q174 247 185 260 Q196 273 194 292 L178 422 Q176 431 169.5 435.5 Q163 440 155 440 Q147 440 141 435.5 Q135 431 133 422 L116 292 Z " />
<glyph glyph-name="Ccedilla" unicode="&#xc7;" horiz-adv-x="322" d="M249 566 Q238 566 238 577 L238 588 L237 609 Q237 622 230.5 630.5 Q224 639 214 644 Q204 649 192.5 651 Q181 653 171 653 Q161 653 149.5 651 Q138 649 127.5 644.5 Q117 640 110 632 Q103 624 103 612 L103 395 Q103 346 103 305 Q103 264 104 229 L104 86 Q104 74 111 66 Q118 58 128 53.5 Q138 49 149.5 47 Q161 45 171 45 Q182 45 194 47.5 Q206 50 215.5 55 Q225 60 231.5 69 Q238 78 238 91 L238 111 Q238 119 244 124.5 Q250 130 258 130 L287 130 Q293 130 297.5 125.5 Q302 121 302 115 L302 99 Q302 48 270 21.5 Q238 -5 191 -10 Q189 -11 184.5 -13.5 Q180 -16 178 -18 L176 -20 Q175 -21 175.5 -22.5 Q176 -24 178 -23 L181 -23 L186 -22 L194 -22 Q208 -22 224.5 -27.5 Q241 -33 241 -52 L241 -59 Q241 -69 235 -75 Q229 -81 220 -84 Q211 -87 201 -88 Q191 -89 184 -89 Q171 -89 150.5 -84 Q130 -79 123 -66 Q120 -58 130 -58 L152 -58 Q152 -62 160 -65 L163 -66 L166 -66 L179 -67 L191 -67 L200 -66 Q201 -66 203.5 -66 Q206 -66 206 -65 Q212 -64 212 -59 Q212 -49 207 -46 Q203 -43 188 -43 L183 -43 L173 -44 Q172 -44 168.5 -44.5 Q165 -45 164 -46 L161 -46 Q160 -47 154.5 -47.5 Q149 -48 148 -48 L142 -48 Q137 -48 135.5 -44.5 Q134 -41 136 -37 L142 -29 Q146 -22 143 -15 Q140 -8 132 -6 Q93 4 66.5 29.5 Q40 55 40 98 L40 602 Q40 630 51 650.5 Q62 671 80 684 Q98 697 122 703.5 Q146 710 171 710 Q197 710 221 703.5 Q245 697 263 683.5 Q281 670 291.5 649 Q302 628 302 599 L302 583 Q302 566 286 566 L249 566 Z " />
<glyph glyph-name="Egrave" unicode="&#xc8;" horiz-adv-x="289" d="M103 800 Q111 800 124.5 793.5 Q138 787 143 780 L162 755 Q166 750 163.5 745 Q161 740 155 740 L154 740 Q149 740 137 744.5 Q125 749 121 752 L88 779 Q81 785 84 792.5 Q87 800 96 800 L103 800 Z M91 0 Q70 0 55 15 Q40 30 40 51 L40 649 Q40 670 55 685 Q70 700 91 700 L234 700 Q247 700 255.5 691.5 Q264 683 264 670 Q264 657 255.5 648.5 Q247 640 234 640 L155 640 Q134 640 119 625 Q104 610 104 589 L104 446 Q104 425 119 410 Q134 395 155 395 L191 395 Q204 395 212.5 386.5 Q221 378 221 365 Q221 352 212.5 343.5 Q204 335 191 335 L155 335 Q134 335 119 320 Q104 305 104 284 L104 111 Q104 90 119 75 Q134 60 155 60 L239 60 Q252 60 260.5 51.5 Q269 43 269 30 Q269 17 260.5 8.5 Q252 0 239 0 L91 0 Z " />
<glyph glyph-name="Eacute" unicode="&#xc9;" horiz-adv-x="289" d="M214 800 Q222 800 225 792.5 Q228 785 221 779 L188 752 Q184 749 172 744.5 Q160 740 155 740 Q148 740 145.5 745 Q143 750 147 755 L166 780 Q171 787 184.5 793.5 Q198 800 206 800 L214 800 Z M91 0 Q70 0 55 15 Q40 30 40 51 L40 649 Q40 670 55 685 Q70 700 91 700 L234 700 Q247 700 255.5 691.5 Q264 683 264 670 Q264 657 255.5 648.5 Q247 640 234 640 L155 640 Q134 640 119 625 Q104 610 104 589 L104 446 Q104 425 119 410 Q134 395 155 395 L191 395 Q204 395 212.5 386.5 Q221 378 221 365 Q221 352 212.5 343.5 Q204 335 191 335 L155 335 Q134 335 119 320 Q104 305 104 284 L104 111 Q104 90 119 75 Q134 60 155 60 L239 60 Q252 60 260.5 51.5 Q269 43 269 30 Q269 17 260.5 8.5 Q252 0 239 0 L91 0 Z " />
<glyph glyph-name="Ecircumflex" unicode="&#xca;" horiz-adv-x="289" d="M234 754 Q238 750 236 745 Q234 740 228 740 L223 740 Q219 740 208 743.5 Q197 747 194 749 L181 759 Q171 766 155 766 Q139 766 129 759 L116 749 Q113 747 102 743.5 Q91 740 87 740 L83 740 Q76 740 74 745 Q72 750 76 754 L107 785 Q112 790 124.5 795 Q137 800 143 800 L167 800 Q173 800 185.5 795 Q198 790 203 785 L234 754 Z M92 0 Q71 0 56 15 Q41 30 41 51 L41 649 Q41 670 56 685 Q71 700 92 700 L235 700 Q248 700 256.5 691.5 Q265 683 265 670 Q265 657 256.5 648.5 Q248 640 235 640 L156 640 Q135 640 120 625 Q105 610 105 589 L105 446 Q105 425 120 410 Q135 395 156 395 L192 395 Q205 395 213.5 386.5 Q222 378 222 365 Q222 352 213.5 343.5 Q205 335 192 335 L156 335 Q135 335 120 320 Q105 305 105 284 L105 111 Q105 90 120 75 Q135 60 156 60 L240 60 Q253 60 261.5 51.5 Q270 43 270 30 Q270 17 261.5 8.5 Q253 0 240 0 L92 0 Z " />
<glyph glyph-name="Edieresis" unicode="&#xcb;" horiz-adv-x="289" d="M197 796 Q208 796 216.5 787.5 Q225 779 225 768 Q225 757 216.5 748.5 Q208 740 197 740 Q186 740 177.5 748.5 Q169 757 169 768 Q169 779 177.5 787.5 Q186 796 197 796 Z M112 796 Q123 796 131.5 787.5 Q140 779 140 768 Q140 757 131.5 748.5 Q123 740 112 740 Q101 740 92.5 748.5 Q84 757 84 768 Q84 779 92.5 787.5 Q101 796 112 796 Z M91 0 Q70 0 55 15 Q40 30 40 51 L40 649 Q40 670 55 685 Q70 700 91 700 L234 700 Q247 700 255.5 691.5 Q264 683 264 670 Q264 657 255.5 648.5 Q247 640 234 640 L155 640 Q134 640 119 625 Q104 610 104 589 L104 446 Q104 425 119 410 Q134 395 155 395 L191 395 Q204 395 212.5 386.5 Q221 378 221 365 Q221 352 212.5 343.5 Q204 335 191 335 L155 335 Q134 335 119 320 Q104 305 104 284 L104 111 Q104 90 119 75 Q134 60 155 60 L239 60 Q252 60 260.5 51.5 Q269 43 269 30 Q269 17 260.5 8.5 Q252 0 239 0 L91 0 Z " />
<glyph glyph-name="Igrave" unicode="&#xcc;" horiz-adv-x="144" d="M21 800 Q29 800 42.5 793.5 Q56 787 61 780 L80 756 Q84 751 81.5 745.5 Q79 740 72 740 L71 740 Q66 740 54 744.5 Q42 749 38 752 L6 779 Q-1 784 2 792 Q5 800 14 800 L21 800 Z M39 668 Q39 681 48.5 690.5 Q58 700 72 700 Q85 700 94.5 690.5 Q104 681 104 668 L104 33 Q104 19 94.5 9.5 Q85 0 72 0 Q58 0 48.5 9.5 Q39 19 39 33 L39 668 Z " />
<glyph glyph-name="Iacute" unicode="&#xcd;" horiz-adv-x="144" d="M131 800 Q139 800 142 792 Q145 784 138 779 L106 752 Q102 749 90 744.5 Q78 740 73 740 L72 740 Q65 740 62.5 745.5 Q60 751 64 756 L83 780 Q88 787 101.5 793.5 Q115 800 123 800 L131 800 Z M39 668 Q39 681 48.5 690.5 Q58 700 72 700 Q85 700 94.5 690.5 Q104 681 104 668 L104 33 Q104 19 94.5 9.5 Q85 0 72 0 Q58 0 48.5 9.5 Q39 19 39 33 L39 668 Z " />
<glyph glyph-name="Icircumflex" unicode="&#xce;" horiz-adv-x="144" d="M150 754 Q154 750 152 745 Q150 740 144 740 L140 740 Q136 740 125 743.5 Q114 747 111 749 L98 759 Q88 766 72 766 Q56 766 46 759 L33 749 Q30 747 19 743.5 Q8 740 4 740 L0 740 Q-6 740 -8 745 Q-10 750 -6 754 L25 785 Q30 790 42.5 795 Q55 800 61 800 L83 800 Q89 800 101.5 795 Q114 790 119 785 L150 754 Z M39 668 Q39 681 48.5 690.5 Q58 700 72 700 Q85 700 94.5 690.5 Q104 681 104 668 L104 33 Q104 19 94.5 9.5 Q85 0 72 0 Q58 0 48.5 9.5 Q39 19 39 33 L39 668 Z " />
<glyph glyph-name="Idieresis" unicode="&#xcf;" horiz-adv-x="144" d="M115 796 Q126 796 134.5 787.5 Q143 779 143 768 Q143 757 134.5 748.5 Q126 740 115 740 Q104 740 95.5 748.5 Q87 757 87 768 Q87 779 95.5 787.5 Q104 796 115 796 Z M29 796 Q40 796 48.5 787.5 Q57 779 57 768 Q57 757 48.5 748.5 Q40 740 29 740 Q18 740 9.5 748.5 Q1 757 1 768 Q1 779 9.5 787.5 Q18 796 29 796 Z M39 668 Q39 681 48.5 690.5 Q58 700 72 700 Q85 700 94.5 690.5 Q104 681 104 668 L104 33 Q104 19 94.5 9.5 Q85 0 72 0 Q58 0 48.5 9.5 Q39 19 39 33 L39 668 Z " />
<glyph glyph-name="Eth" unicode="&#xd0;" horiz-adv-x="351" d="M16 387 Q26 387 33 394 Q40 401 40 411 L40 649 Q40 670 55 685 Q70 700 91 700 L170 700 Q195 700 220 694.5 Q245 689 265.5 677 Q286 665 298.5 645 Q311 625 311 596 L311 105 Q311 76 298.5 56 Q286 36 265.5 23.5 Q245 11 220 5.5 Q195 0 170 0 L91 0 Q70 0 55 15 Q40 30 40 51 L40 326 Q40 336 33 343 Q26 350 16 350 L11 350 Q-8 350 -8 369 Q-8 377 -2.5 382 Q3 387 11 387 L16 387 Z M170 56 Q181 56 194.5 58.5 Q208 61 219.5 66.5 Q231 72 239 81.5 Q247 91 247 105 L247 593 Q247 608 239.5 617.5 Q232 627 220.5 633 Q209 639 195.5 641.5 Q182 644 170 644 L137 644 Q123 644 113.5 634.5 Q104 625 104 611 L104 438 Q104 417 119 402 Q134 387 155 387 L205 387 Q213 387 218 382 Q223 377 223 369 Q223 361 218 355.5 Q213 350 205 350 L155 350 Q134 350 119 335 Q104 320 104 299 L104 89 Q104 75 113.5 65.5 Q123 56 137 56 L170 56 Z " />
<glyph glyph-name="Ntilde" unicode="&#xd1;" horiz-adv-x="353" d="M75 744 Q75 766 88 777.5 Q101 789 123 789 Q133 789 153 784 Q161 781 169.5 778 Q178 775 186 771 L190 769 L201 765 Q202 765 206.5 764 Q211 763 212 763 L223 761 Q230 761 235 761.5 Q240 762 245 767 Q250 772 250 781 Q250 789 257 789 L265 789 Q280 789 280 774 Q280 753 266.5 741 Q253 729 232 729 Q220 729 202 735 Q186 740 169 747 L165 749 L154 753 Q153 753 148.5 754 Q144 755 143 755 L132 757 L127 757 Q117 757 111 751 Q105 747 105 737 Q105 729 98 729 L90 729 Q75 729 75 744 Z M313 44 Q313 27 301 14.5 Q289 2 272 2 L271 2 Q254 2 239.5 13.5 Q225 25 221 42 L162 297 Q160 309 151 314.5 Q142 320 132 320 Q119 320 108.5 312.5 Q98 305 98 290 L98 29 Q98 18 89.5 9.5 Q81 1 70 1 Q59 1 50.5 9.5 Q42 18 42 29 L42 660 Q42 677 54.5 689 Q67 701 84 701 Q101 701 115.5 689.5 Q130 678 134 661 L193 404 Q196 393 204.5 387 Q213 381 224 381 Q236 381 246.5 389 Q257 397 257 412 L257 672 Q257 683 265.5 691.5 Q274 700 285 701 Q296 702 304.5 693.5 Q313 685 313 674 L313 44 Z " />
<glyph glyph-name="Ograve" unicode="&#xd2;" horiz-adv-x="340" d="M118 800 Q126 800 139.5 793.5 Q153 787 158 780 L177 755 Q181 750 178.5 745 Q176 740 170 740 L169 740 Q164 740 152 744.5 Q140 749 136 752 L103 779 Q96 785 99 792.5 Q102 800 111 800 L118 800 Z M236 613 Q236 625 229.5 633 Q223 641 213 645.5 Q203 650 191.5 652 Q180 654 170 654 Q160 654 148.5 652 Q137 650 127 645.5 Q117 641 110 633 Q103 625 103 613 L103 87 Q103 75 110 67 Q117 59 127 54.5 Q137 50 148.5 48 Q160 46 170 46 Q180 46 191.5 48 Q203 50 213 54.5 Q223 59 229.5 67 Q236 75 236 87 L236 613 Z M300 98 Q300 70 289 50 Q278 30 260 16.5 Q242 3 218.5 -3.5 Q195 -10 170 -10 Q145 -10 121.5 -3.5 Q98 3 79.5 16.5 Q61 30 50 50 Q39 70 39 98 L39 602 Q39 630 50 650.5 Q61 671 79 684 Q97 697 121 703.5 Q145 710 170 710 Q196 710 219.5 703.5 Q243 697 261 684 Q279 671 289.5 650.5 Q300 630 300 602 L300 98 Z " />
<glyph glyph-name="Oacute" unicode="&#xd3;" horiz-adv-x="340" d="M229 800 Q237 800 240 792.5 Q243 785 236 779 L203 752 Q199 749 187 744.5 Q175 740 170 740 Q163 740 160.5 745 Q158 750 162 755 L181 780 Q186 787 199.5 793.5 Q213 800 221 800 L229 800 Z M236 613 Q236 625 229.5 633 Q223 641 213 645.5 Q203 650 191.5 652 Q180 654 170 654 Q160 654 148.5 652 Q137 650 127 645.5 Q117 641 110 633 Q103 625 103 613 L103 87 Q103 75 110 67 Q117 59 127 54.5 Q137 50 148.5 48 Q160 46 170 46 Q180 46 191.5 48 Q203 50 213 54.5 Q223 59 229.5 67 Q236 75 236 87 L236 613 Z M300 98 Q300 70 289 50 Q278 30 260 16.5 Q242 3 218.5 -3.5 Q195 -10 170 -10 Q145 -10 121.5 -3.5 Q98 3 79.5 16.5 Q61 30 50 50 Q39 70 39 98 L39 602 Q39 630 50 650.5 Q61 671 79 684 Q97 697 121 703.5 Q145 710 170 710 Q196 710 219.5 703.5 Q243 697 261 684 Q279 671 289.5 650.5 Q300 630 300 602 L300 98 Z " />
<glyph glyph-name="Ocircumflex" unicode="&#xd4;" horiz-adv-x="340" d="M236 613 Q236 625 229.5 633 Q223 641 213 645.5 Q203 650 191.5 652 Q180 654 170 654 Q160 654 148.5 652 Q137 650 127 645.5 Q117 641 110 633 Q103 625 103 613 L103 87 Q103 75 110 67 Q117 59 127 54.5 Q137 50 148.5 48 Q160 46 170 46 Q180 46 191.5 48 Q203 50 213 54.5 Q223 59 229.5 67 Q236 75 236 87 L236 613 Z M300 98 Q300 70 289 50 Q278 30 260 16.5 Q242 3 218.5 -3.5 Q195 -10 170 -10 Q145 -10 121.5 -3.5 Q98 3 79.5 16.5 Q61 30 50 50 Q39 70 39 98 L39 602 Q39 630 50 650.5 Q61 671 79 684 Q97 697 121 703.5 Q145 710 170 710 Q196 710 219.5 703.5 Q243 697 261 684 Q279 671 289.5 650.5 Q300 630 300 602 L300 98 Z M249 754 Q253 750 251 745 Q249 740 243 740 L238 740 Q234 740 223 743.5 Q212 747 209 749 L196 759 Q186 766 170 766 Q154 766 144 759 L131 749 Q128 747 117 743.5 Q106 740 102 740 L98 740 Q91 740 89 745 Q87 750 91 754 L122 785 Q127 790 139.5 795 Q152 800 158 800 L182 800 Q188 800 200.5 795 Q213 790 218 785 L249 754 Z " />
<glyph glyph-name="Otilde" unicode="&#xd5;" horiz-adv-x="340" d="M67 744 Q67 766 80 777.5 Q93 789 115 789 Q125 789 145 784 Q153 781 161.5 778 Q170 775 178 771 L182 769 L193 765 Q194 765 198.5 764 Q203 763 204 763 L215 761 Q222 761 227 761.5 Q232 762 237 767 Q242 772 242 781 Q242 789 249 789 L257 789 Q272 789 272 774 Q272 753 258.5 741 Q245 729 224 729 Q212 729 194 735 Q178 740 161 747 L157 749 L146 753 Q145 753 140.5 754 Q136 755 135 755 L124 757 L119 757 Q109 757 103 751 Q97 747 97 737 Q97 729 90 729 L82 729 Q67 729 67 744 Z M236 613 Q236 625 229.5 633 Q223 641 213 645.5 Q203 650 191.5 652 Q180 654 170 654 Q160 654 148.5 652 Q137 650 127 645.5 Q117 641 110 633 Q103 625 103 613 L103 87 Q103 75 110 67 Q117 59 127 54.5 Q137 50 148.5 48 Q160 46 170 46 Q180 46 191.5 48 Q203 50 213 54.5 Q223 59 229.5 67 Q236 75 236 87 L236 613 Z M300 98 Q300 70 289 50 Q278 30 260 16.5 Q242 3 218.5 -3.5 Q195 -10 170 -10 Q145 -10 121.5 -3.5 Q98 3 79.5 16.5 Q61 30 50 50 Q39 70 39 98 L39 602 Q39 630 50 650.5 Q61 671 79 684 Q97 697 121 703.5 Q145 710 170 710 Q196 710 219.5 703.5 Q243 697 261 684 Q279 671 289.5 650.5 Q300 630 300 602 L300 98 Z " />
<glyph glyph-name="Odieresis" unicode="&#xd6;" horiz-adv-x="340" d="M212 796 Q223 796 231.5 787.5 Q240 779 240 768 Q240 757 231.5 748.5 Q223 740 212 740 Q201 740 192.5 748.5 Q184 757 184 768 Q184 779 192.5 787.5 Q201 796 212 796 Z M127 796 Q138 796 146.5 787.5 Q155 779 155 768 Q155 757 146.5 748.5 Q138 740 127 740 Q116 740 107.5 748.5 Q99 757 99 768 Q99 779 107.5 787.5 Q116 796 127 796 Z M236 613 Q236 625 229.5 633 Q223 641 213 645.5 Q203 650 191.5 652 Q180 654 170 654 Q160 654 148.5 652 Q137 650 127 645.5 Q117 641 110 633 Q103 625 103 613 L103 87 Q103 75 110 67 Q117 59 127 54.5 Q137 50 148.5 48 Q160 46 170 46 Q180 46 191.5 48 Q203 50 213 54.5 Q223 59 229.5 67 Q236 75 236 87 L236 613 Z M300 98 Q300 70 289 50 Q278 30 260 16.5 Q242 3 218.5 -3.5 Q195 -10 170 -10 Q145 -10 121.5 -3.5 Q98 3 79.5 16.5 Q61 30 50 50 Q39 70 39 98 L39 602 Q39 630 50 650.5 Q61 671 79 684 Q97 697 121 703.5 Q145 710 170 710 Q196 710 219.5 703.5 Q243 697 261 684 Q279 671 289.5 650.5 Q300 630 300 602 L300 98 Z " />
<glyph glyph-name="Oslash" unicode="&#xd8;" horiz-adv-x="340" d="M43 65 Q38 83 38 99 L38 603 Q38 631 49 651.5 Q60 672 78 685 Q96 698 120 704.5 Q144 711 169 711 Q223 711 256 687 Q261 684 266 684 Q276 684 279 692 L281 697 Q283 702 289 706 Q295 710 300 710 Q305 710 308 706 Q311 702 309 697 L295 656 Q294 654 294 646 Q294 638 295 636 Q300 619 300 602 L300 98 Q300 70 289 50 Q278 30 260 16.5 Q242 3 218.5 -3.5 Q195 -10 170 -10 Q115 -10 82 14 Q78 17 72 17 Q62 17 59 9 L57 4 Q55 -1 49 -5 Q43 -9 38 -9 Q33 -9 30 -5 Q27 -1 29 4 L43 45 Q44 47 44 55 Q44 63 43 65 Z M233 564 Q234 565 235 572 Q236 579 236 581 L236 613 Q236 625 229.5 633 Q223 641 213 645.5 Q203 650 191.5 652 Q180 654 170 654 Q160 654 148.5 652 Q137 650 127 645.5 Q117 641 110 633 Q103 625 103 613 L103 400 Q103 384 113.5 375.5 Q124 367 138 367 Q148 367 156.5 372.5 Q165 378 170 389 L233 564 Z M103 87 Q103 75 110 67 Q117 59 127 54.5 Q137 50 148.5 48 Q160 46 170 46 Q180 46 191.5 48 Q203 50 213 54.5 Q223 59 229.5 67 Q236 75 236 87 L236 300 Q236 316 225 324.5 Q214 333 201 333 Q191 333 182.5 328 Q174 323 170 312 L106 136 Q105 135 104 128 Q103 121 103 119 L103 87 Z " />
<glyph glyph-name="Ugrave" unicode="&#xd9;" horiz-adv-x="340" d="M118 800 Q126 800 139.5 793.5 Q153 787 158 780 L177 755 Q181 750 178.5 745 Q176 740 170 740 L169 740 Q164 740 152 744.5 Q140 749 136 752 L103 779 Q96 785 99 792.5 Q102 800 111 800 L118 800 Z M300 98 Q300 70 289 50 Q278 30 260 16.5 Q242 3 218.5 -3.5 Q195 -10 170 -10 Q145 -10 121.5 -3.5 Q98 3 79.5 16.5 Q61 30 50 50 Q39 70 39 98 L39 668 Q39 682 48 691 Q57 700 71 700 Q85 700 94 691 Q103 682 103 668 L103 87 Q103 75 110 67 Q117 59 127 54.5 Q137 50 148.5 48 Q160 46 170 46 Q180 46 191.5 48 Q203 50 213 54.5 Q223 59 229.5 67 Q236 75 236 87 L236 668 Q236 682 245 691 Q254 700 268 700 Q282 700 291 691 Q300 682 300 668 L300 98 Z " />
<glyph glyph-name="Uacute" unicode="&#xda;" horiz-adv-x="340" d="M229 800 Q237 800 240 792.5 Q243 785 236 779 L203 752 Q199 749 187 744.5 Q175 740 170 740 Q163 740 160.5 745 Q158 750 162 755 L181 780 Q186 787 199.5 793.5 Q213 800 221 800 L229 800 Z M300 98 Q300 70 289 50 Q278 30 260 16.5 Q242 3 218.5 -3.5 Q195 -10 170 -10 Q145 -10 121.5 -3.5 Q98 3 79.5 16.5 Q61 30 50 50 Q39 70 39 98 L39 668 Q39 682 48 691 Q57 700 71 700 Q85 700 94 691 Q103 682 103 668 L103 87 Q103 75 110 67 Q117 59 127 54.5 Q137 50 148.5 48 Q160 46 170 46 Q180 46 191.5 48 Q203 50 213 54.5 Q223 59 229.5 67 Q236 75 236 87 L236 668 Q236 682 245 691 Q254 700 268 700 Q282 700 291 691 Q300 682 300 668 L300 98 Z " />
<glyph glyph-name="Ucircumflex" unicode="&#xdb;" horiz-adv-x="340" d="M249 754 Q253 750 251 745 Q249 740 243 740 L238 740 Q234 740 223 743.5 Q212 747 209 749 L196 759 Q186 766 170 766 Q154 766 144 759 L131 749 Q128 747 117 743.5 Q106 740 102 740 L98 740 Q91 740 89 745 Q87 750 91 754 L122 785 Q127 790 139.5 795 Q152 800 158 800 L182 800 Q188 800 200.5 795 Q213 790 218 785 L249 754 Z M301 98 Q301 70 290 50 Q279 30 261 16.5 Q243 3 219.5 -3.5 Q196 -10 171 -10 Q146 -10 122.5 -3.5 Q99 3 80.5 16.5 Q62 30 51 50 Q40 70 40 98 L40 668 Q40 682 49 691 Q58 700 72 700 Q86 700 95 691 Q104 682 104 668 L104 87 Q104 75 111 67 Q118 59 128 54.5 Q138 50 149.5 48 Q161 46 171 46 Q181 46 192.5 48 Q204 50 214 54.5 Q224 59 230.5 67 Q237 75 237 87 L237 668 Q237 682 246 691 Q255 700 269 700 Q283 700 292 691 Q301 682 301 668 L301 98 Z " />
<glyph glyph-name="Udieresis" unicode="&#xdc;" horiz-adv-x="340" d="M212 796 Q223 796 231.5 787.5 Q240 779 240 768 Q240 757 231.5 748.5 Q223 740 212 740 Q201 740 192.5 748.5 Q184 757 184 768 Q184 779 192.5 787.5 Q201 796 212 796 Z M127 796 Q138 796 146.5 787.5 Q155 779 155 768 Q155 757 146.5 748.5 Q138 740 127 740 Q116 740 107.5 748.5 Q99 757 99 768 Q99 779 107.5 787.5 Q116 796 127 796 Z M300 98 Q300 70 289 50 Q278 30 260 16.5 Q242 3 218.5 -3.5 Q195 -10 170 -10 Q145 -10 121.5 -3.5 Q98 3 79.5 16.5 Q61 30 50 50 Q39 70 39 98 L39 668 Q39 682 48 691 Q57 700 71 700 Q85 700 94 691 Q103 682 103 668 L103 87 Q103 75 110 67 Q117 59 127 54.5 Q137 50 148.5 48 Q160 46 170 46 Q180 46 191.5 48 Q203 50 213 54.5 Q223 59 229.5 67 Q236 75 236 87 L236 668 Q236 682 245 691 Q254 700 268 700 Q282 700 291 691 Q300 682 300 668 L300 98 Z " />
<glyph glyph-name="Yacute" unicode="&#xdd;" horiz-adv-x="364" d="M240 800 Q248 800 251 792 Q254 784 247 779 L215 752 Q211 749 199 744.5 Q187 740 182 740 L181 740 Q174 740 171.5 745.5 Q169 751 173 756 L192 780 Q197 787 210.5 793.5 Q224 800 232 800 L240 800 Z M42 668 Q38 681 45.5 690.5 Q53 700 67 700 Q80 700 92.5 689.5 Q105 679 108 666 Q116 632 124.5 598 Q133 564 142 530 Q150 498 157.5 466.5 Q165 435 173 403 Q175 395 183 395 Q191 395 193 403 Q201 435 208 466.5 Q215 498 222 530 Q230 564 237.5 598 Q245 632 253 666 Q256 680 268.5 690 Q281 700 295 700 Q309 700 316 689 Q323 678 319 665 Q307 623 295 581.5 Q283 540 272 498 Q258 448 243.5 399 Q229 350 215 301 Q215 300 214.5 295 Q214 290 214 289 L214 32 Q214 18 205 9 Q196 0 182 0 Q168 0 159 9 Q150 18 150 32 L150 289 Q150 290 149 296 Q148 302 148 303 L42 668 Z " />
<glyph glyph-name="agrave" unicode="&#xe0;" horiz-adv-x="316" d="M130 325 Q169 332 196 345 Q220 357 220 388 L220 515 Q220 534 205 546 Q188 557 157 557 Q129 557 112 546 Q95 534 95 514 L95 421 Q94 411 87.5 404.5 Q81 398 71 398 L64 398 Q51 398 42.5 406.5 Q34 415 34 428 L34 506 Q34 533 44 552.5 Q54 572 71 584.5 Q88 597 110.5 603.5 Q133 610 157 610 Q183 610 205.5 604.5 Q228 599 245 586.5 Q262 574 271.5 554.5 Q281 535 281 506 L281 31 Q281 18 272 9 Q263 0 251 0 L245 0 Q234 0 227 7 Q220 14 220 25 L220 34 Q220 37 216 37 Q214 37 214 36 Q208 27 201 19 Q194 11 185 6 Q163 -10 131 -10 Q83 -10 57.5 19 Q32 48 30 95 L30 129 L29 169 L29 217 Q29 262 58.5 289.5 Q88 317 130 325 Z M155 42 Q185 42 202.5 60.5 Q220 79 220 108 L220 306 Q220 310 215 310 Q213 310 212 309 Q197 296 177.5 289.5 Q158 283 139 280 Q116 275 103 257 Q90 239 90 217 L90 108 Q90 79 107.5 60.5 Q125 42 155 42 Z M163 656 Q167 651 164.5 645.5 Q162 640 155 640 L154 640 Q149 640 137 644.5 Q125 649 121 652 L89 679 Q82 684 85 692 Q88 700 97 700 L104 700 Q112 700 125.5 693.5 Q139 687 144 680 L163 656 Z " />
<glyph glyph-name="aacute" unicode="&#xe1;" horiz-adv-x="316" d="M29 217 Q29 262 58.5 289.5 Q88 317 130 325 Q169 332 196 345 Q220 357 220 388 L220 515 Q220 534 205 546 Q188 557 157 557 Q129 557 112 546 Q95 534 95 514 L95 421 Q94 411 87.5 404.5 Q81 398 71 398 L64 398 Q51 398 42.5 406.5 Q34 415 34 428 L34 506 Q34 533 44 552.5 Q54 572 71 584.5 Q88 597 110.5 603.5 Q133 610 157 610 Q183 610 205.5 604.5 Q228 599 245 586.5 Q262 574 271.5 554.5 Q281 535 281 506 L281 31 Q281 18 272 9 Q263 0 251 0 L245 0 Q234 0 227 7 Q220 14 220 25 L220 34 Q220 37 216 37 Q214 37 214 36 Q208 27 201 19 Q194 11 185 6 Q163 -10 131 -10 Q83 -10 57.5 19 Q32 48 30 95 L30 129 L29 169 L29 217 Z M155 42 Q185 42 202.5 60.5 Q220 79 220 108 L220 306 Q220 310 215 310 Q213 310 212 309 Q197 296 177.5 289.5 Q158 283 139 280 Q116 275 103 257 Q90 239 90 217 L90 108 Q90 79 107.5 60.5 Q125 42 155 42 Z M166 680 Q171 687 184.5 693.5 Q198 700 206 700 L214 700 Q222 700 225 692 Q228 684 221 679 L189 652 Q185 649 173 644.5 Q161 640 156 640 L155 640 Q148 640 145.5 645.5 Q143 651 147 656 L166 680 Z " />
<glyph glyph-name="acircumflex" unicode="&#xe2;" horiz-adv-x="316" d="M29 217 Q29 262 58.5 289.5 Q88 317 130 325 Q169 332 196 345 Q220 357 220 388 L220 515 Q220 534 205 546 Q188 557 157 557 Q129 557 112 546 Q95 534 95 514 L95 421 Q94 411 87.5 404.5 Q81 398 71 398 L64 398 Q51 398 42.5 406.5 Q34 415 34 428 L34 506 Q34 533 44 552.5 Q54 572 71 584.5 Q88 597 110.5 603.5 Q133 610 157 610 Q183 610 205.5 604.5 Q228 599 245 586.5 Q262 574 271.5 554.5 Q281 535 281 506 L281 31 Q281 18 272 9 Q263 0 251 0 L245 0 Q234 0 227 7 Q220 14 220 25 L220 34 Q220 37 216 37 Q214 37 214 36 Q208 27 201 19 Q194 11 185 6 Q163 -10 131 -10 Q83 -10 57.5 19 Q32 48 30 95 L30 129 L29 169 L29 217 Z M155 42 Q185 42 202.5 60.5 Q220 79 220 108 L220 306 Q220 310 215 310 Q213 310 212 309 Q197 296 177.5 289.5 Q158 283 139 280 Q116 275 103 257 Q90 239 90 217 L90 108 Q90 79 107.5 60.5 Q125 42 155 42 Z M108 685 Q113 690 125.5 695 Q138 700 144 700 L166 700 Q172 700 184.5 695 Q197 690 202 685 L233 654 Q237 650 235 645 Q233 640 227 640 L223 640 Q219 640 208 643.5 Q197 647 194 649 L181 659 Q171 666 155 666 Q139 666 129 659 L116 649 Q113 647 102 643.5 Q91 640 87 640 L83 640 Q77 640 75 645 Q73 650 77 654 L108 685 Z " />
<glyph glyph-name="atilde" unicode="&#xe3;" horiz-adv-x="316" d="M29 217 Q29 262 58.5 289.5 Q88 317 130 325 Q169 332 196 345 Q220 357 220 388 L220 515 Q220 534 205 546 Q188 557 157 557 Q129 557 112 546 Q95 534 95 514 L95 421 Q94 411 87.5 404.5 Q81 398 71 398 L64 398 Q51 398 42.5 406.5 Q34 415 34 428 L34 506 Q34 533 44 552.5 Q54 572 71 584.5 Q88 597 110.5 603.5 Q133 610 157 610 Q183 610 205.5 604.5 Q228 599 245 586.5 Q262 574 271.5 554.5 Q281 535 281 506 L281 31 Q281 18 272 9 Q263 0 251 0 L245 0 Q234 0 227 7 Q220 14 220 25 L220 34 Q220 37 216 37 Q214 37 214 36 Q208 27 201 19 Q194 11 185 6 Q163 -10 131 -10 Q83 -10 57.5 19 Q32 48 30 95 L30 129 L29 169 L29 217 Z M90 108 Q90 79 107.5 60.5 Q125 42 155 42 Q185 42 202.5 60.5 Q220 79 220 108 L220 306 Q220 310 215 310 Q213 310 212 309 Q197 296 177.5 289.5 Q158 283 139 280 Q116 275 103 257 Q90 239 90 217 L90 108 Z M100 693 Q106 693 113.5 691.5 Q121 690 131 688 Q139 685 147.5 682 Q156 679 164 675 L168 673 L181 669 Q182 669 186 667 Q188 667 190 666 L200 665 Q201 664 204.5 664 Q208 664 209 664 Q226 667 226 686 Q228 693 233 693 L243 693 Q258 693 258 678 Q258 657 244.5 645 Q231 633 210 633 Q198 633 180 639 Q163 643 146 651 L142 653 L129 657 Q129 657 124 659 Q122 659 120 660 L110 661 Q109 662 105.5 662 Q102 662 101 662 Q84 659 84 640 Q82 633 77 633 L67 633 Q52 633 52 648 Q52 670 65 681.5 Q78 693 100 693 Z " />
<glyph glyph-name="adieresis" unicode="&#xe4;" horiz-adv-x="316" d="M130 325 Q169 332 196 345 Q220 357 220 388 L220 515 Q220 534 205 546 Q188 557 157 557 Q129 557 112 546 Q95 534 95 514 L95 421 Q94 411 87.5 404.5 Q81 398 71 398 L64 398 Q51 398 42.5 406.5 Q34 415 34 428 L34 506 Q34 533 44 552.5 Q54 572 71 584.5 Q88 597 110.5 603.5 Q133 610 157 610 Q183 610 205.5 604.5 Q228 599 245 586.5 Q262 574 271.5 554.5 Q281 535 281 506 L281 31 Q281 18 272 9 Q263 0 251 0 L245 0 Q234 0 227 7 Q220 14 220 25 L220 34 Q220 37 216 37 Q214 37 214 36 Q208 27 201 19 Q194 11 185 6 Q163 -10 131 -10 Q83 -10 57.5 19 Q32 48 30 95 L30 129 L29 169 L29 217 Q29 262 58.5 289.5 Q88 317 130 325 Z M155 42 Q185 42 202.5 60.5 Q220 79 220 108 L220 306 Q220 310 215 310 Q213 310 212 309 Q197 296 177.5 289.5 Q158 283 139 280 Q116 275 103 257 Q90 239 90 217 L90 108 Q90 79 107.5 60.5 Q125 42 155 42 Z M226 668 Q226 657 217.5 648.5 Q209 640 198 640 Q187 640 178.5 648.5 Q170 657 170 668 Q170 679 178.5 687.5 Q187 696 198 696 Q209 696 217.5 687.5 Q226 679 226 668 Z M84 668 Q84 679 92.5 687.5 Q101 696 112 696 Q123 696 131.5 687.5 Q140 679 140 668 Q140 657 131.5 648.5 Q123 640 112 640 Q101 640 92.5 648.5 Q84 657 84 668 Z " />
<glyph glyph-name="aring" unicode="&#xe5;" horiz-adv-x="316" d="M150 688 Q147 687 143 685 Q142 685 141.5 683.5 Q141 682 140 681 L139 679 Q137 675 139 670 Q140 668 142.5 666 Q145 664 147 664 L151 662 Q152 662 155.5 661.5 Q159 661 161 661 L167 664 Q168 664 168.5 665.5 Q169 667 170 668 L171 670 Q173 675 171 679 Q170 681 167.5 683 Q165 685 163 685 L159 687 Q158 687 154.5 687.5 Q151 688 150 688 Z M109 674 Q109 692 124 700.5 Q139 709 155 709 Q171 709 186 700.5 Q201 692 201 674 Q201 656 186 648.5 Q171 641 155 641 Q140 641 124.5 648.5 Q109 656 109 674 Z M34 506 Q34 533 44 552.5 Q54 572 71 584.5 Q88 597 110.5 603.5 Q133 610 157 610 Q183 610 205.5 604.5 Q228 599 245 586.5 Q262 574 271.5 554.5 Q281 535 281 506 L281 31 Q281 18 272 9 Q263 0 251 0 L245 0 Q234 0 227 7 Q220 14 220 25 L220 34 Q220 37 216 37 Q214 37 214 36 Q208 27 201 19 Q194 11 185 6 Q163 -10 131 -10 Q83 -10 57.5 19 Q32 48 30 95 L30 129 L29 169 L29 217 Q29 262 58.5 289.5 Q88 317 130 325 Q169 332 196 345 Q220 357 220 388 L220 515 Q220 534 205 546 Q188 557 157 557 Q129 557 112 546 Q95 534 95 514 L95 421 Q94 411 87.5 404.5 Q81 398 71 398 L64 398 Q51 398 42.5 406.5 Q34 415 34 428 L34 506 Z M212 309 Q197 296 177.5 289.5 Q158 283 139 280 Q116 275 103 257 Q90 239 90 217 L90 108 Q90 79 107.5 60.5 Q125 42 155 42 Q185 42 202.5 60.5 Q220 79 220 108 L220 306 Q220 310 215 310 Q213 310 212 309 Z " />
<glyph glyph-name="ccedilla" unicode="&#xe7;" horiz-adv-x="329" d="M293 98 Q293 49 261 22 Q229 -5 183 -10 Q181 -11 176.5 -13.5 Q172 -16 170 -18 L168 -20 Q167 -21 167.5 -22.5 Q168 -24 170 -23 L173 -23 L178 -22 L186 -22 Q200 -22 216.5 -27.5 Q233 -33 233 -52 L233 -59 Q233 -69 227 -75 Q221 -81 212 -84 Q203 -87 193 -88 Q183 -89 176 -89 Q163 -89 142.5 -84 Q122 -79 115 -66 Q112 -58 122 -58 L144 -58 Q144 -62 152 -65 L155 -66 L158 -66 L171 -67 L183 -67 L192 -66 Q193 -66 195.5 -66 Q198 -66 198 -65 Q204 -64 204 -59 Q204 -49 199 -46 Q195 -43 180 -43 L175 -43 L165 -44 Q164 -44 160.5 -44.5 Q157 -45 156 -46 L153 -46 Q152 -47 146.5 -47.5 Q141 -48 140 -48 L134 -48 Q129 -48 127.5 -44.5 Q126 -41 128 -37 L134 -29 Q138 -22 135 -15 Q132 -8 124 -6 Q85 4 59.5 30.5 Q34 57 34 99 L34 501 Q34 529 45 549.5 Q56 570 74 583.5 Q92 597 115.5 603.5 Q139 610 164 610 Q190 610 213.5 603.5 Q237 597 255 583.5 Q273 570 283.5 549.5 Q294 529 294 501 L294 401 Q294 388 285 379 Q276 370 264 370 Q251 370 242 379 Q233 388 233 401 L233 501 Q233 530 211.5 543.5 Q190 557 164 557 Q139 557 117 545 Q95 533 95 504 L95 96 Q95 68 117 55.5 Q139 43 164 43 Q189 43 211 55.5 Q233 68 233 96 L233 195 Q233 207 242 216 Q251 225 264 225 Q276 225 285 216 Q294 207 294 195 L293 98 Z " />
<glyph glyph-name="egrave" unicode="&#xe8;" horiz-adv-x="329" d="M113 700 Q121 700 134.5 693.5 Q148 687 153 680 L172 656 Q176 651 173.5 645.5 Q171 640 164 640 L163 640 Q158 640 146 644.5 Q134 649 130 652 L98 679 Q91 684 94 692 Q97 700 106 700 L113 700 Z M294 100 Q294 72 283.5 51 Q273 30 255 16.5 Q237 3 213.5 -3.5 Q190 -10 164 -10 Q139 -10 115.5 -3.5 Q92 3 74 16.5 Q56 30 45 50.5 Q34 71 34 99 L34 501 Q34 529 45 549.5 Q56 570 74 583.5 Q92 597 115.5 603.5 Q139 610 164 610 Q190 610 213.5 603.5 Q237 597 255 583.5 Q273 570 283.5 549.5 Q294 529 294 501 L294 363 Q294 342 279 327 Q264 312 243 312 L146 312 Q125 312 110 297 Q95 282 95 261 L95 96 Q95 68 117 55.5 Q139 43 164 43 Q189 43 211 55.5 Q233 68 233 96 L233 195 Q233 207 242 216 Q251 225 264 225 Q276 225 285 216 Q294 207 294 195 L294 100 Z M233 501 Q233 530 211.5 543.5 Q190 557 164 557 Q139 557 117 545 Q95 533 95 504 L95 416 Q95 395 110 380 Q125 365 146 365 L182 365 Q203 365 218 380 Q233 395 233 416 L233 501 Z " />
<glyph glyph-name="eacute" unicode="&#xe9;" horiz-adv-x="329" d="M223 700 Q231 700 234 692 Q237 684 230 679 L198 652 Q194 649 182 644.5 Q170 640 165 640 L164 640 Q157 640 154.5 645.5 Q152 651 156 656 L175 680 Q180 687 193.5 693.5 Q207 700 215 700 L223 700 Z M294 100 Q294 72 283.5 51 Q273 30 255 16.5 Q237 3 213.5 -3.5 Q190 -10 164 -10 Q139 -10 115.5 -3.5 Q92 3 74 16.5 Q56 30 45 50.5 Q34 71 34 99 L34 501 Q34 529 45 549.5 Q56 570 74 583.5 Q92 597 115.5 603.5 Q139 610 164 610 Q190 610 213.5 603.5 Q237 597 255 583.5 Q273 570 283.5 549.5 Q294 529 294 501 L294 363 Q294 342 279 327 Q264 312 243 312 L146 312 Q125 312 110 297 Q95 282 95 261 L95 96 Q95 68 117 55.5 Q139 43 164 43 Q189 43 211 55.5 Q233 68 233 96 L233 195 Q233 207 242 216 Q251 225 264 225 Q276 225 285 216 Q294 207 294 195 L294 100 Z M233 501 Q233 530 211.5 543.5 Q190 557 164 557 Q139 557 117 545 Q95 533 95 504 L95 416 Q95 395 110 380 Q125 365 146 365 L182 365 Q203 365 218 380 Q233 395 233 416 L233 501 Z " />
<glyph glyph-name="ecircumflex" unicode="&#xea;" horiz-adv-x="329" d="M294 100 Q294 72 283.5 51 Q273 30 255 16.5 Q237 3 213.5 -3.5 Q190 -10 164 -10 Q139 -10 115.5 -3.5 Q92 3 74 16.5 Q56 30 45 50.5 Q34 71 34 99 L34 501 Q34 529 45 549.5 Q56 570 74 583.5 Q92 597 115.5 603.5 Q139 610 164 610 Q190 610 213.5 603.5 Q237 597 255 583.5 Q273 570 283.5 549.5 Q294 529 294 501 L294 363 Q294 342 279 327 Q264 312 243 312 L146 312 Q125 312 110 297 Q95 282 95 261 L95 96 Q95 68 117 55.5 Q139 43 164 43 Q189 43 211 55.5 Q233 68 233 96 L233 195 Q233 207 242 216 Q251 225 264 225 Q276 225 285 216 Q294 207 294 195 L294 100 Z M242 654 Q246 650 244 645 Q242 640 236 640 L232 640 Q228 640 217 643.5 Q206 647 203 649 L190 659 Q180 666 164 666 Q148 666 138 659 L125 649 Q122 647 111 643.5 Q100 640 96 640 L92 640 Q86 640 84 645 Q82 650 86 654 L117 685 Q122 690 134.5 695 Q147 700 153 700 L175 700 Q181 700 193.5 695 Q206 690 211 685 L242 654 Z M233 501 Q233 530 211.5 543.5 Q190 557 164 557 Q139 557 117 545 Q95 533 95 504 L95 416 Q95 395 110 380 Q125 365 146 365 L182 365 Q203 365 218 380 Q233 395 233 416 L233 501 Z " />
<glyph glyph-name="edieresis" unicode="&#xeb;" horiz-adv-x="329" d="M207 696 Q218 696 226.5 687.5 Q235 679 235 668 Q235 657 226.5 648.5 Q218 640 207 640 Q196 640 187.5 648.5 Q179 657 179 668 Q179 679 187.5 687.5 Q196 696 207 696 Z M121 696 Q132 696 140.5 687.5 Q149 679 149 668 Q149 657 140.5 648.5 Q132 640 121 640 Q110 640 101.5 648.5 Q93 657 93 668 Q93 679 101.5 687.5 Q110 696 121 696 Z M294 100 Q294 72 283.5 51 Q273 30 255 16.5 Q237 3 213.5 -3.5 Q190 -10 164 -10 Q139 -10 115.5 -3.5 Q92 3 74 16.5 Q56 30 45 50.5 Q34 71 34 99 L34 501 Q34 529 45 549.5 Q56 570 74 583.5 Q92 597 115.5 603.5 Q139 610 164 610 Q190 610 213.5 603.5 Q237 597 255 583.5 Q273 570 283.5 549.5 Q294 529 294 501 L294 363 Q294 342 279 327 Q264 312 243 312 L146 312 Q125 312 110 297 Q95 282 95 261 L95 96 Q95 68 117 55.5 Q139 43 164 43 Q189 43 211 55.5 Q233 68 233 96 L233 195 Q233 207 242 216 Q251 225 264 225 Q276 225 285 216 Q294 207 294 195 L294 100 Z M233 501 Q233 530 211.5 543.5 Q190 557 164 557 Q139 557 117 545 Q95 533 95 504 L95 416 Q95 395 110 380 Q125 365 146 365 L182 365 Q203 365 218 380 Q233 395 233 416 L233 501 Z " />
<glyph glyph-name="igrave" unicode="&#xec;" horiz-adv-x="131" d="M14 700 Q22 700 35.5 693.5 Q49 687 54 680 L73 655 Q77 650 74.5 645 Q72 640 66 640 L65 640 Q60 640 48 644.5 Q36 649 32 652 L-1 679 Q-8 685 -5 692.5 Q-2 700 7 700 L14 700 Z M35 570 Q35 582 44 591 Q53 600 66 600 Q78 600 87 591 Q96 582 96 570 L96 31 Q96 18 87 9 Q78 0 66 0 Q53 0 44 9 Q35 18 35 31 L35 570 Z " />
<glyph glyph-name="iacute" unicode="&#xed;" horiz-adv-x="131" d="M125 700 Q133 700 136 692.5 Q139 685 132 679 L99 652 Q95 649 83 644.5 Q71 640 66 640 Q59 640 56.5 645 Q54 650 58 655 L77 680 Q82 687 95.5 693.5 Q109 700 117 700 L125 700 Z M35 570 Q35 582 44 591 Q53 600 66 600 Q78 600 87 591 Q96 582 96 570 L96 31 Q96 18 87 9 Q78 0 66 0 Q53 0 44 9 Q35 18 35 31 L35 570 Z " />
<glyph glyph-name="icircumflex" unicode="&#xee;" horiz-adv-x="131" d="M145 654 Q149 650 147 645 Q145 640 139 640 L134 640 Q130 640 119 643.5 Q108 647 105 649 L92 659 Q82 666 66 666 Q50 666 40 659 L27 649 Q24 647 13 643.5 Q2 640 -2 640 L-7 640 Q-13 640 -15 645 Q-17 650 -13 654 L18 685 Q23 690 35.5 695 Q48 700 54 700 L78 700 Q84 700 96.5 695 Q109 690 114 685 L145 654 Z M36 570 Q36 582 45 591 Q54 600 67 600 Q79 600 88 591 Q97 582 97 570 L97 31 Q97 18 88 9 Q79 0 67 0 Q54 0 45 9 Q36 18 36 31 L36 570 Z " />
<glyph glyph-name="idieresis" unicode="&#xef;" horiz-adv-x="131" d="M108 696 Q119 696 127.5 687.5 Q136 679 136 668 Q136 657 127.5 648.5 Q119 640 108 640 Q97 640 88.5 648.5 Q80 657 80 668 Q80 679 88.5 687.5 Q97 696 108 696 Z M23 696 Q34 696 42.5 687.5 Q51 679 51 668 Q51 657 42.5 648.5 Q34 640 23 640 Q12 640 3.5 648.5 Q-5 657 -5 668 Q-5 679 3.5 687.5 Q12 696 23 696 Z M35 570 Q35 582 44 591 Q53 600 66 600 Q78 600 87 591 Q96 582 96 570 L96 31 Q96 18 87 9 Q78 0 66 0 Q53 0 44 9 Q35 18 35 31 L35 570 Z " />
<glyph glyph-name="ntilde" unicode="&#xf1;" horiz-adv-x="329" d="M61 649 Q61 671 74 682.5 Q87 694 109 694 Q115 694 122.5 692.5 Q130 691 140 689 Q148 686 156.5 683 Q165 680 173 676 L177 674 L190 670 Q191 670 195 668 Q197 668 199 667 L209 666 Q210 665 213.5 665 Q217 665 218 665 Q235 668 235 687 Q237 694 242 694 L252 694 Q267 694 267 679 Q267 658 253.5 646 Q240 634 219 634 Q207 634 189 640 Q172 644 155 652 L151 654 L138 658 Q138 658 133 660 Q131 660 129 661 L119 662 Q118 663 114.5 663 Q111 663 110 663 Q93 660 93 641 Q91 634 86 634 L76 634 Q61 634 61 649 Z M233 119 L234 212 L234 492 Q234 524 213.5 540 Q193 556 163 556 Q133 556 114 538.5 Q95 521 95 490 L95 31 Q95 18 86 9 Q77 0 65 0 Q52 0 43 9 Q34 18 34 31 L34 570 Q34 582 43 591 Q52 600 65 600 L75 600 Q83 600 89 594 Q95 588 95 580 L95 573 Q95 570 100 570 Q102 570 103 571 Q133 610 184 610 Q233 610 263.5 583 Q294 556 294 505 L294 31 Q294 18 285 9 Q276 0 264 0 L255 0 Q246 0 239.5 7 Q233 14 233 23 L233 119 Z " />
<glyph glyph-name="ograve" unicode="&#xf2;" horiz-adv-x="330" d="M114 700 Q122 700 135.5 693.5 Q149 687 154 680 L173 656 Q177 651 174.5 645.5 Q172 640 165 640 L164 640 Q159 640 147 644.5 Q135 649 131 652 L99 679 Q92 684 95 692 Q98 700 107 700 L114 700 Z M235 510 Q235 524 228 533 Q221 542 210.5 547 Q200 552 188 554.5 Q176 557 165 557 Q154 557 141.5 554.5 Q129 552 118.5 547 Q108 542 101 533 Q94 524 94 510 L94 90 Q94 77 101 67.5 Q108 58 118.5 53 Q129 48 141.5 45.5 Q154 43 165 43 Q176 43 188 45.5 Q200 48 210.5 53 Q221 58 228 67.5 Q235 77 235 90 L235 510 Z M295 101 Q295 73 284.5 52 Q274 31 256 17 Q238 3 214.5 -3.5 Q191 -10 165 -10 Q139 -10 115.5 -3 Q92 4 74 17.5 Q56 31 45.5 52 Q35 73 35 101 L35 499 Q35 527 45.5 548 Q56 569 74 582.5 Q92 596 115.5 603 Q139 610 165 610 Q191 610 214.5 603.5 Q238 597 256 583 Q274 569 284.5 548.5 Q295 528 295 499 L295 101 Z " />
<glyph glyph-name="oacute" unicode="&#xf3;" horiz-adv-x="330" d="M224 700 Q232 700 235 692 Q238 684 231 679 L199 652 Q195 649 183 644.5 Q171 640 166 640 L165 640 Q158 640 155.5 645.5 Q153 651 157 656 L176 680 Q181 687 194.5 693.5 Q208 700 216 700 L224 700 Z M235 510 Q235 524 228 533 Q221 542 210.5 547 Q200 552 188 554.5 Q176 557 165 557 Q154 557 141.5 554.5 Q129 552 118.5 547 Q108 542 101 533 Q94 524 94 510 L94 90 Q94 77 101 67.5 Q108 58 118.5 53 Q129 48 141.5 45.5 Q154 43 165 43 Q176 43 188 45.5 Q200 48 210.5 53 Q221 58 228 67.5 Q235 77 235 90 L235 510 Z M295 101 Q295 73 284.5 52 Q274 31 256 17 Q238 3 214.5 -3.5 Q191 -10 165 -10 Q139 -10 115.5 -3 Q92 4 74 17.5 Q56 31 45.5 52 Q35 73 35 101 L35 499 Q35 527 45.5 548 Q56 569 74 582.5 Q92 596 115.5 603 Q139 610 165 610 Q191 610 214.5 603.5 Q238 597 256 583 Q274 569 284.5 548.5 Q295 528 295 499 L295 101 Z " />
<glyph glyph-name="ocircumflex" unicode="&#xf4;" horiz-adv-x="330" d="M235 510 Q235 524 228 533 Q221 542 210.5 547 Q200 552 188 554.5 Q176 557 165 557 Q154 557 141.5 554.5 Q129 552 118.5 547 Q108 542 101 533 Q94 524 94 510 L94 90 Q94 77 101 67.5 Q108 58 118.5 53 Q129 48 141.5 45.5 Q154 43 165 43 Q176 43 188 45.5 Q200 48 210.5 53 Q221 58 228 67.5 Q235 77 235 90 L235 510 Z M295 101 Q295 73 284.5 52 Q274 31 256 17 Q238 3 214.5 -3.5 Q191 -10 165 -10 Q139 -10 115.5 -3 Q92 4 74 17.5 Q56 31 45.5 52 Q35 73 35 101 L35 499 Q35 527 45.5 548 Q56 569 74 582.5 Q92 596 115.5 603 Q139 610 165 610 Q191 610 214.5 603.5 Q238 597 256 583 Q274 569 284.5 548.5 Q295 528 295 499 L295 101 Z M243 654 Q247 650 245 645 Q243 640 237 640 L233 640 Q229 640 218 643.5 Q207 647 204 649 L191 659 Q181 666 165 666 Q149 666 139 659 L126 649 Q123 647 112 643.5 Q101 640 97 640 L93 640 Q87 640 85 645 Q83 650 87 654 L118 685 Q123 690 135.5 695 Q148 700 154 700 L176 700 Q182 700 194.5 695 Q207 690 212 685 L243 654 Z " />
<glyph glyph-name="otilde" unicode="&#xf5;" horiz-adv-x="330" d="M62 649 Q62 671 75 682.5 Q88 694 110 694 Q116 694 123.5 692.5 Q131 691 141 689 Q149 686 157.5 683 Q166 680 174 676 L178 674 L191 670 Q192 670 196 668 Q198 668 200 667 L210 666 Q211 665 214.5 665 Q218 665 219 665 Q236 668 236 687 Q238 694 243 694 L253 694 Q268 694 268 679 Q268 658 254.5 646 Q241 634 220 634 Q208 634 190 640 Q173 644 156 652 L152 654 L139 658 Q139 658 134 660 Q132 660 130 661 L120 662 Q119 663 115.5 663 Q112 663 111 663 Q94 660 94 641 Q92 634 87 634 L77 634 Q62 634 62 649 Z M235 510 Q235 524 228 533 Q221 542 210.5 547 Q200 552 188 554.5 Q176 557 165 557 Q154 557 141.5 554.5 Q129 552 118.5 547 Q108 542 101 533 Q94 524 94 510 L94 90 Q94 77 101 67.5 Q108 58 118.5 53 Q129 48 141.5 45.5 Q154 43 165 43 Q176 43 188 45.5 Q200 48 210.5 53 Q221 58 228 67.5 Q235 77 235 90 L235 510 Z M295 101 Q295 73 284.5 52 Q274 31 256 17 Q238 3 214.5 -3.5 Q191 -10 165 -10 Q139 -10 115.5 -3 Q92 4 74 17.5 Q56 31 45.5 52 Q35 73 35 101 L35 499 Q35 527 45.5 548 Q56 569 74 582.5 Q92 596 115.5 603 Q139 610 165 610 Q191 610 214.5 603.5 Q238 597 256 583 Q274 569 284.5 548.5 Q295 528 295 499 L295 101 Z " />
<glyph glyph-name="odieresis" unicode="&#xf6;" horiz-adv-x="330" d="M208 696 Q219 696 227.5 687.5 Q236 679 236 668 Q236 657 227.5 648.5 Q219 640 208 640 Q197 640 188.5 648.5 Q180 657 180 668 Q180 679 188.5 687.5 Q197 696 208 696 Z M122 696 Q133 696 141.5 687.5 Q150 679 150 668 Q150 657 141.5 648.5 Q133 640 122 640 Q111 640 102.5 648.5 Q94 657 94 668 Q94 679 102.5 687.5 Q111 696 122 696 Z M235 510 Q235 524 228 533 Q221 542 210.5 547 Q200 552 188 554.5 Q176 557 165 557 Q154 557 141.5 554.5 Q129 552 118.5 547 Q108 542 101 533 Q94 524 94 510 L94 90 Q94 77 101 67.5 Q108 58 118.5 53 Q129 48 141.5 45.5 Q154 43 165 43 Q176 43 188 45.5 Q200 48 210.5 53 Q221 58 228 67.5 Q235 77 235 90 L235 510 Z M295 101 Q295 73 284.5 52 Q274 31 256 17 Q238 3 214.5 -3.5 Q191 -10 165 -10 Q139 -10 115.5 -3 Q92 4 74 17.5 Q56 31 45.5 52 Q35 73 35 101 L35 499 Q35 527 45.5 548 Q56 569 74 582.5 Q92 596 115.5 603 Q139 610 165 610 Q191 610 214.5 603.5 Q238 597 256 583 Q274 569 284.5 548.5 Q295 528 295 499 L295 101 Z " />
<glyph glyph-name="oslash" unicode="&#xf8;" horiz-adv-x="330" d="M42 39 Q43 42 43 51.5 Q43 61 42 64 Q36 82 36 102 L36 500 Q36 528 46.5 549 Q57 570 75 583.5 Q93 597 116.5 604 Q140 611 166 611 Q217 611 251 588 Q256 585 261 585 Q270 585 275 593 L277 598 Q279 603 285 607 Q291 611 296 611 Q309 611 305 598 L289 562 Q288 559 288 549.5 Q288 540 289 537 Q295 519 295 499 L295 101 Q295 73 284.5 52 Q274 31 256 17 Q238 3 214.5 -3.5 Q191 -10 165 -10 Q114 -10 80 13 Q76 16 70 16 Q60 16 57 8 L54 3 Q52 -2 46 -6 Q40 -10 35 -10 Q22 -10 26 3 L42 39 Z M235 510 Q235 524 228 533 Q221 542 210.5 547 Q200 552 188 554.5 Q176 557 165 557 Q154 557 141.5 554.5 Q129 552 118.5 547 Q108 542 101 533 Q94 524 94 510 L94 337 Q94 320 105 311.5 Q116 303 130 303 Q139 303 147.5 308 Q156 313 161 324 L233 495 Q233 496 234 500 Q235 504 235 505 L235 510 Z M95 87 Q101 42 165 42 Q176 42 188 44.5 Q200 47 210.5 52 Q221 57 228 66.5 Q235 76 235 89 L235 261 Q235 277 224.5 286 Q214 295 200 295 Q190 295 181.5 290 Q173 285 168 274 L98 107 Q96 104 95 97 Q94 90 95 87 Z " />
<glyph glyph-name="ugrave" unicode="&#xf9;" horiz-adv-x="330" d="M34 600 L65 600 Q77 600 86 591 Q95 582 95 570 L95 108 Q95 77 115 60 Q135 43 164 43 Q194 43 214 60 Q234 77 234 108 L234 570 Q234 582 243 591 Q252 600 265 600 Q277 600 286 591 Q295 582 295 570 L295 31 Q295 18 286 9 Q277 0 265 0 L261 0 Q250 0 242 8 Q234 16 234 27 L234 38 Q234 41 230 41 Q227 41 227 39 Q212 15 192 2.5 Q172 -10 143 -10 Q95 -10 65 18 Q35 46 35 95 L34 595 L34 600 Z M172 655 Q176 650 173.5 645 Q171 640 165 640 L164 640 Q159 640 147 644.5 Q135 649 131 652 L98 679 Q91 685 94 692.5 Q97 700 106 700 L113 700 Q121 700 134.5 693.5 Q148 687 153 680 L172 655 Z " />
<glyph glyph-name="uacute" unicode="&#xfa;" horiz-adv-x="330" d="M34 600 L65 600 Q77 600 86 591 Q95 582 95 570 L95 108 Q95 77 115 60 Q135 43 164 43 Q194 43 214 60 Q234 77 234 108 L234 570 Q234 582 243 591 Q252 600 265 600 Q277 600 286 591 Q295 582 295 570 L295 31 Q295 18 286 9 Q277 0 265 0 L261 0 Q250 0 242 8 Q234 16 234 27 L234 38 Q234 41 230 41 Q227 41 227 39 Q212 15 192 2.5 Q172 -10 143 -10 Q95 -10 65 18 Q35 46 35 95 L34 595 L34 600 Z M224 700 Q232 700 235 692.5 Q238 685 231 679 L198 652 Q194 649 182 644.5 Q170 640 165 640 Q158 640 155.5 645 Q153 650 157 655 L176 680 Q181 687 194.5 693.5 Q208 700 216 700 L224 700 Z " />
<glyph glyph-name="ucircumflex" unicode="&#xfb;" horiz-adv-x="330" d="M65 600 Q77 600 86 591 Q95 582 95 570 L95 108 Q95 77 115 60 Q135 43 164 43 Q194 43 214 60 Q234 77 234 108 L234 570 Q234 582 243 591 Q252 600 265 600 Q277 600 286 591 Q295 582 295 570 L295 31 Q295 18 286 9 Q277 0 265 0 L261 0 Q250 0 242 8 Q234 16 234 27 L234 38 Q234 41 230 41 Q227 41 227 39 Q212 15 192 2.5 Q172 -10 143 -10 Q95 -10 65 18 Q35 46 35 95 L34 595 L34 600 L65 600 Z M177 700 Q183 700 195.5 695 Q208 690 213 685 L244 654 Q248 650 246 645 Q244 640 238 640 L233 640 Q229 640 218 643.5 Q207 647 204 649 L191 659 Q181 666 165 666 Q149 666 139 659 L126 649 Q123 647 112 643.5 Q101 640 97 640 L93 640 Q86 640 84 645 Q82 650 86 654 L117 685 Q122 690 134.5 695 Q147 700 153 700 L177 700 Z " />
<glyph glyph-name="udieresis" unicode="&#xfc;" horiz-adv-x="330" d="M34 600 L65 600 Q77 600 86 591 Q95 582 95 570 L95 108 Q95 77 115 60 Q135 43 164 43 Q194 43 214 60 Q234 77 234 108 L234 570 Q234 582 243 591 Q252 600 265 600 Q277 600 286 591 Q295 582 295 570 L295 31 Q295 18 286 9 Q277 0 265 0 L261 0 Q250 0 242 8 Q234 16 234 27 L234 38 Q234 41 230 41 Q227 41 227 39 Q212 15 192 2.5 Q172 -10 143 -10 Q95 -10 65 18 Q35 46 35 95 L34 595 L34 600 Z M179 668 Q179 679 187.5 687.5 Q196 696 207 696 Q218 696 226.5 687.5 Q235 679 235 668 Q235 657 226.5 648.5 Q218 640 207 640 Q196 640 187.5 648.5 Q179 657 179 668 Z M122 696 Q133 696 141.5 687.5 Q150 679 150 668 Q150 657 141.5 648.5 Q133 640 122 640 Q111 640 102.5 648.5 Q94 657 94 668 Q94 679 102.5 687.5 Q111 696 122 696 Z " />
<glyph glyph-name="yacute" unicode="&#xfd;" horiz-adv-x="330" d="M95 166 Q95 136 116 121 Q137 106 165 106 Q191 106 212 119 Q233 132 235 160 L235 301 L233 540 L233 570 Q233 583 241.5 591.5 Q250 600 263 600 L264 600 Q277 600 286 591 Q295 582 295 569 L295 11 Q295 -18 284.5 -38.5 Q274 -59 256 -73 Q238 -87 214.5 -93.5 Q191 -100 165 -100 Q140 -100 116 -93.5 Q92 -87 74 -73.5 Q56 -60 45 -39.5 Q34 -19 34 9 L34 18 Q34 27 43 27 L81 27 Q95 27 95 13 L95 -1 Q95 -22 114 -35 Q134 -47 165 -47 Q177 -47 189 -44.5 Q201 -42 211.5 -36.5 Q222 -31 228.5 -21.5 Q235 -12 235 2 L235 97 Q235 100 231 100 Q229 100 228 99 Q222 90 215 82 Q208 74 199 69 Q177 53 144 53 Q98 53 66.5 79 Q35 105 35 153 L35 224 L34 295 L34 600 L65 600 Q77 600 86 591 Q95 582 95 570 L95 166 Z M176 680 Q181 687 194.5 693.5 Q208 700 216 700 L224 700 Q232 700 235 692 Q238 684 231 679 L199 652 Q195 649 183 644.5 Q171 640 166 640 L165 640 Q158 640 155.5 645.5 Q153 651 157 656 L176 680 Z " />
<glyph glyph-name="ydieresis" unicode="&#xff;" horiz-adv-x="330" d="M95 -1 Q95 -22 114 -35 Q134 -47 165 -47 Q177 -47 189 -44.5 Q201 -42 211.5 -36.5 Q222 -31 228.5 -21.5 Q235 -12 235 2 L235 97 Q235 100 231 100 Q229 100 228 99 Q222 90 215 82 Q208 74 199 69 Q177 53 144 53 Q98 53 66.5 79 Q35 105 35 153 L35 224 L34 295 L34 600 L65 600 Q77 600 86 591 Q95 582 95 570 L95 166 Q95 136 116 121 Q137 106 165 106 Q191 106 212 119 Q233 132 235 160 L235 301 L233 540 L233 570 Q233 583 241.5 591.5 Q250 600 263 600 L264 600 Q277 600 286 591 Q295 582 295 569 L295 11 Q295 -18 284.5 -38.5 Q274 -59 256 -73 Q238 -87 214.5 -93.5 Q191 -100 165 -100 Q140 -100 116 -93.5 Q92 -87 74 -73.5 Q56 -60 45 -39.5 Q34 -19 34 9 L34 18 Q34 27 43 27 L81 27 Q95 27 95 13 L95 -1 Z M236 668 Q236 657 227.5 648.5 Q219 640 208 640 Q197 640 188.5 648.5 Q180 657 180 668 Q180 679 188.5 687.5 Q197 696 208 696 Q219 696 227.5 687.5 Q236 679 236 668 Z M94 668 Q94 679 102.5 687.5 Q111 696 122 696 Q133 696 141.5 687.5 Q150 679 150 668 Q150 657 141.5 648.5 Q133 640 122 640 Q111 640 102.5 648.5 Q94 657 94 668 Z " />
<glyph glyph-name="Amacron" unicode="&#x100;" horiz-adv-x="312" d="M261 783 Q269 783 275 777 Q281 771 281 763 Q281 755 275 749 Q269 743 261 743 L51 743 Q43 743 37 749 Q31 755 31 763 Q31 771 37 777 Q43 783 51 783 L261 783 Z M108 661 Q110 678 124 689.5 Q138 701 155 701 Q172 701 185.5 689.5 Q199 678 201 661 L291 33 Q293 19 285 10 Q277 1 264 1 Q250 1 240 10 Q230 19 228 33 L214 145 Q212 164 197 177 Q182 190 163 190 L148 190 Q129 190 114 177 Q99 164 97 145 L91 95 L82 32 Q80 18 70 9 Q60 0 46 0 Q33 0 25 9 Q17 18 19 32 L108 661 Z M116 292 Q114 273 125 260 Q136 247 155 247 Q174 247 185 260 Q196 273 194 292 L178 422 Q176 431 169.5 435.5 Q163 440 155 440 Q147 440 141 435.5 Q135 431 133 422 L116 292 Z " />
<glyph glyph-name="amacron" unicode="&#x101;" horiz-adv-x="316" d="M130 325 Q169 332 196 345 Q220 357 220 388 L220 515 Q220 534 205 546 Q188 557 157 557 Q129 557 112 546 Q95 534 95 514 L95 421 Q94 411 87.5 404.5 Q81 398 71 398 L64 398 Q51 398 42.5 406.5 Q34 415 34 428 L34 506 Q34 533 44 552.5 Q54 572 71 584.5 Q88 597 110.5 603.5 Q133 610 157 610 Q183 610 205.5 604.5 Q228 599 245 586.5 Q262 574 271.5 554.5 Q281 535 281 506 L281 31 Q281 18 272 9 Q263 0 251 0 L245 0 Q234 0 227 7 Q220 14 220 25 L220 34 Q220 37 216 37 Q214 37 214 36 Q208 27 201 19 Q194 11 185 6 Q163 -10 131 -10 Q83 -10 57.5 19 Q32 48 30 95 L30 129 L29 169 L29 217 Q29 262 58.5 289.5 Q88 317 130 325 Z M155 42 Q185 42 202.5 60.5 Q220 79 220 108 L220 306 Q220 310 215 310 Q213 310 212 309 Q197 296 177.5 289.5 Q158 283 139 280 Q116 275 103 257 Q90 239 90 217 L90 108 Q90 79 107.5 60.5 Q125 42 155 42 Z M260 683 Q268 683 274 677 Q280 671 280 663 Q280 655 274 649 Q268 643 260 643 L50 643 Q42 643 36 649 Q30 655 30 663 Q30 671 36 677 Q42 683 50 683 L260 683 Z " />
<glyph glyph-name="Abreve" unicode="&#x102;" horiz-adv-x="312" d="M99 797 Q100 786 111 781 Q124 774 156 774 Q183 774 193 781 Q201 785 203 796 Q205 804 213 804 L227 804 Q235 804 239.5 799 Q244 794 242 786 Q239 764 224 755 Q205 740 156 740 Q143 740 127 741 Q111 742 97 747 Q83 752 72.5 761.5 Q62 771 60 787 Q58 795 62.5 799.5 Q67 804 76 804 L90 804 Q97 804 99 797 Z M108 661 Q110 678 124 689.5 Q138 701 155 701 Q172 701 185.5 689.5 Q199 678 201 661 L291 33 Q293 19 285 10 Q277 1 264 1 Q250 1 240 10 Q230 19 228 33 L214 145 Q212 164 197 177 Q182 190 163 190 L148 190 Q129 190 114 177 Q99 164 97 145 L91 95 L82 32 Q80 18 70 9 Q60 0 46 0 Q33 0 25 9 Q17 18 19 32 L108 661 Z M116 292 Q114 273 125 260 Q136 247 155 247 Q174 247 185 260 Q196 273 194 292 L178 422 Q176 431 169.5 435.5 Q163 440 155 440 Q147 440 141 435.5 Q135 431 133 422 L116 292 Z " />
<glyph glyph-name="abreve" unicode="&#x103;" horiz-adv-x="316" d="M29 217 Q29 262 58.5 289.5 Q88 317 130 325 Q169 332 196 345 Q220 357 220 388 L220 515 Q220 534 205 546 Q188 557 157 557 Q129 557 112 546 Q95 534 95 514 L95 421 Q94 411 87.5 404.5 Q81 398 71 398 L64 398 Q51 398 42.5 406.5 Q34 415 34 428 L34 506 Q34 533 44 552.5 Q54 572 71 584.5 Q88 597 110.5 603.5 Q133 610 157 610 Q183 610 205.5 604.5 Q228 599 245 586.5 Q262 574 271.5 554.5 Q281 535 281 506 L281 31 Q281 18 272 9 Q263 0 251 0 L245 0 Q234 0 227 7 Q220 14 220 25 L220 34 Q220 37 216 37 Q214 37 214 36 Q208 27 201 19 Q194 11 185 6 Q163 -10 131 -10 Q83 -10 57.5 19 Q32 48 30 95 L30 129 L29 169 L29 217 Z M90 108 Q90 79 107.5 60.5 Q125 42 155 42 Q185 42 202.5 60.5 Q220 79 220 108 L220 306 Q220 310 215 310 Q213 310 212 309 Q197 296 177.5 289.5 Q158 283 139 280 Q116 275 103 257 Q90 239 90 217 L90 108 Z M95 704 Q102 704 104 697 Q105 686 116 681 Q129 674 161 674 Q174 674 190.5 677.5 Q207 681 209 697 Q211 704 219 704 L232 704 Q240 704 244.5 699 Q249 694 247 686 Q244 664 229 655 Q210 640 161 640 Q148 640 132.5 641 Q117 642 103 647 Q89 652 78.5 661.5 Q68 671 66 687 Q64 695 68.5 699.5 Q73 704 82 704 L95 704 Z " />
<glyph glyph-name="Aogonek" unicode="&#x104;" horiz-adv-x="312" d="M19 35 Q30 113 41.5 192 Q53 271 64 351 Q75 428 86 504.5 Q97 581 108 657 Q110 674 124 687.5 Q138 701 155 701 Q172 701 185.5 689.5 Q199 678 201 661 L295 10 Q295 1 287 1 Q277 1 275 -7 L270 -20 Q265 -32 264 -45 Q263 -58 267 -67 Q272 -76 283 -76 Q296 -76 301 -65 Q302 -63 305.5 -59.5 Q309 -56 312 -56 L327 -56 Q336 -56 335 -66 Q334 -77 324 -87 Q311 -98 284 -98 Q267 -98 252.5 -90.5 Q238 -83 234 -65 Q229 -50 234 -33 Q236 -25 238.5 -18.5 Q241 -12 244 -5 Q248 1 240 1 Q233 1 231 9 L214 145 Q212 164 197 177 Q182 190 163 190 L148 190 Q129 190 114 177 Q99 164 97 145 L91 95 L82 32 Q80 18 70 9 Q60 0 46 0 Q33 0 25 11 Q17 22 19 35 Z M178 422 Q176 431 169.5 435.5 Q163 440 155 440 Q147 440 141 435.5 Q135 431 133 422 L116 292 Q114 273 125 260 Q136 247 155 247 Q174 247 185 260 Q196 273 194 292 L178 422 Z " />
<glyph glyph-name="aogonek" unicode="&#x105;" horiz-adv-x="316" d="M130 325 Q169 332 196 345 Q220 357 220 388 L220 515 Q220 534 205 546 Q188 557 157 557 Q129 557 112 546 Q95 534 95 514 L95 421 Q94 411 87.5 404.5 Q81 398 71 398 L64 398 Q51 398 42.5 406.5 Q34 415 34 428 L34 506 Q34 533 44 552.5 Q54 572 71 584.5 Q88 597 110.5 603.5 Q133 610 157 610 Q183 610 205.5 604.5 Q228 599 245 586.5 Q262 574 271.5 554.5 Q281 535 281 506 L281 10 Q281 0 271 0 Q267 0 263 -3 Q259 -6 257 -9 L253 -21 Q248 -33 247 -46 Q246 -59 250 -68 Q255 -77 266 -77 Q279 -77 284 -66 Q285 -64 288.5 -60.5 Q292 -57 295 -57 L309 -57 Q319 -57 317 -67 Q316 -78 307 -88 Q294 -99 267 -99 Q250 -99 235.5 -91.5 Q221 -84 217 -66 Q212 -51 217 -34 Q220 -18 229 -4 Q231 0 226 0 Q220 0 220 6 L220 34 Q220 37 216 37 Q214 37 214 36 Q208 27 201 19 Q194 11 185 6 Q163 -10 131 -10 Q83 -10 57.5 19 Q32 48 30 95 L30 129 L29 169 L29 217 Q29 262 58.5 289.5 Q88 317 130 325 Z M90 108 Q90 79 107.5 60.5 Q125 42 155 42 Q185 42 202.5 60.5 Q220 79 220 108 L220 306 Q220 310 215 310 Q213 310 212 309 Q197 296 177.5 289.5 Q158 283 139 280 Q116 275 103 257 Q90 239 90 217 L90 108 Z " />
<glyph glyph-name="Cacute" unicode="&#x106;" horiz-adv-x="322" d="M230 800 Q238 800 241 792 Q244 784 237 779 L205 752 Q201 749 189 744.5 Q177 740 172 740 L171 740 Q164 740 161.5 745.5 Q159 751 163 756 L182 780 Q187 787 200.5 793.5 Q214 800 222 800 L230 800 Z M302 583 Q302 567 286 567 L249 567 Q238 567 238 578 L238 589 L237 610 Q237 623 230.5 631.5 Q224 640 214 645 Q204 650 192.5 652 Q181 654 171 654 Q161 654 149.5 652 Q138 650 127.5 645.5 Q117 641 110 633 Q103 625 103 613 L103 396 Q103 347 103 306 Q103 265 104 230 L104 87 Q104 75 111 67 Q118 59 128 54.5 Q138 50 149.5 48 Q161 46 171 46 Q182 46 194 48.5 Q206 51 215.5 56 Q225 61 231.5 70 Q238 79 238 92 L238 112 Q238 120 244 125.5 Q250 131 258 131 L287 131 Q293 131 297.5 126.5 Q302 122 302 116 L302 100 Q302 72 291 51 Q280 30 262 16.5 Q244 3 220.5 -3.5 Q197 -10 171 -10 Q146 -10 122.5 -3.5 Q99 3 80.5 16.5 Q62 30 51 50 Q40 70 40 98 L40 602 Q40 630 51 650.5 Q62 671 80 684 Q98 697 122 703.5 Q146 710 171 710 Q197 710 221 703.5 Q245 697 263 683.5 Q281 670 291.5 649 Q302 628 302 599 L302 583 Z " />
<glyph glyph-name="cacute" unicode="&#x107;" horiz-adv-x="329" d="M223 700 Q231 700 234 692 Q237 684 230 679 L198 652 Q194 649 182 644.5 Q170 640 165 640 L164 640 Q157 640 154.5 645.5 Q152 651 156 656 L175 680 Q180 687 193.5 693.5 Q207 700 215 700 L223 700 Z M294 100 Q294 72 283.5 51 Q273 30 255 16.5 Q237 3 213.5 -3.5 Q190 -10 164 -10 Q139 -10 115.5 -3.5 Q92 3 74 16.5 Q56 30 45 50.5 Q34 71 34 99 L34 501 Q34 529 45 549.5 Q56 570 74 583.5 Q92 597 115.5 603.5 Q139 610 164 610 Q190 610 213.5 603.5 Q237 597 255 583.5 Q273 570 283.5 549.5 Q294 529 294 501 L294 401 Q294 388 285 379 Q276 370 264 370 Q251 370 242 379 Q233 388 233 401 L233 501 Q233 530 211.5 543.5 Q190 557 164 557 Q139 557 117 545 Q95 533 95 504 L95 96 Q95 68 117 55.5 Q139 43 164 43 Q189 43 211 55.5 Q233 68 233 96 L233 195 Q233 207 242 216 Q251 225 264 225 Q276 225 285 216 Q294 207 294 195 L294 100 Z " />
<glyph glyph-name="Ccircumflex" unicode="&#x108;" horiz-adv-x="322" d="M302 583 Q302 567 286 567 L249 567 Q238 567 238 578 L238 589 L237 610 Q237 623 230.5 631.5 Q224 640 214 645 Q204 650 192.5 652 Q181 654 171 654 Q161 654 149.5 652 Q138 650 127.5 645.5 Q117 641 110 633 Q103 625 103 613 L103 396 Q103 347 103 306 Q103 265 104 230 L104 87 Q104 75 111 67 Q118 59 128 54.5 Q138 50 149.5 48 Q161 46 171 46 Q182 46 194 48.5 Q206 51 215.5 56 Q225 61 231.5 70 Q238 79 238 92 L238 112 Q238 120 244 125.5 Q250 131 258 131 L287 131 Q293 131 297.5 126.5 Q302 122 302 116 L302 100 Q302 72 291 51 Q280 30 262 16.5 Q244 3 220.5 -3.5 Q197 -10 171 -10 Q146 -10 122.5 -3.5 Q99 3 80.5 16.5 Q62 30 51 50 Q40 70 40 98 L40 602 Q40 630 51 650.5 Q62 671 80 684 Q98 697 122 703.5 Q146 710 171 710 Q197 710 221 703.5 Q245 697 263 683.5 Q281 670 291.5 649 Q302 628 302 599 L302 583 Z M249 754 Q253 750 251 745 Q249 740 243 740 L239 740 Q235 740 224 743.5 Q213 747 210 749 L197 759 Q187 766 171 766 Q155 766 145 759 L132 749 Q129 747 118 743.5 Q107 740 103 740 L99 740 Q93 740 91 745 Q89 750 93 754 L124 785 Q129 790 141.5 795 Q154 800 160 800 L182 800 Q188 800 200.5 795 Q213 790 218 785 L249 754 Z " />
<glyph glyph-name="ccircumflex" unicode="&#x109;" horiz-adv-x="329" d="M294 100 Q294 72 283.5 51 Q273 30 255 16.5 Q237 3 213.5 -3.5 Q190 -10 164 -10 Q139 -10 115.5 -3.5 Q92 3 74 16.5 Q56 30 45 50.5 Q34 71 34 99 L34 501 Q34 529 45 549.5 Q56 570 74 583.5 Q92 597 115.5 603.5 Q139 610 164 610 Q190 610 213.5 603.5 Q237 597 255 583.5 Q273 570 283.5 549.5 Q294 529 294 501 L294 401 Q294 388 285 379 Q276 370 264 370 Q251 370 242 379 Q233 388 233 401 L233 501 Q233 530 211.5 543.5 Q190 557 164 557 Q139 557 117 545 Q95 533 95 504 L95 96 Q95 68 117 55.5 Q139 43 164 43 Q189 43 211 55.5 Q233 68 233 96 L233 195 Q233 207 242 216 Q251 225 264 225 Q276 225 285 216 Q294 207 294 195 L294 100 Z M242 654 Q246 650 244 645 Q242 640 236 640 L232 640 Q228 640 217 643.5 Q206 647 203 649 L190 659 Q180 666 164 666 Q148 666 138 659 L125 649 Q122 647 111 643.5 Q100 640 96 640 L92 640 Q86 640 84 645 Q82 650 86 654 L117 685 Q122 690 134.5 695 Q147 700 153 700 L175 700 Q181 700 193.5 695 Q206 690 211 685 L242 654 Z " />
<glyph glyph-name="Cdotaccent" unicode="&#x10a;" horiz-adv-x="322" d="M171 793 Q185 793 194 784 Q203 775 203 761 Q203 747 194 738 Q185 729 171 729 Q157 729 148 738 Q139 747 139 761 Q139 775 148 784 Q157 793 171 793 Z M302 583 Q302 567 286 567 L249 567 Q238 567 238 578 L238 589 L237 610 Q237 623 230.5 631.5 Q224 640 214 645 Q204 650 192.5 652 Q181 654 171 654 Q161 654 149.5 652 Q138 650 127.5 645.5 Q117 641 110 633 Q103 625 103 613 L103 396 Q103 347 103 306 Q103 265 104 230 L104 87 Q104 75 111 67 Q118 59 128 54.5 Q138 50 149.5 48 Q161 46 171 46 Q182 46 194 48.5 Q206 51 215.5 56 Q225 61 231.5 70 Q238 79 238 92 L238 112 Q238 120 244 125.5 Q250 131 258 131 L287 131 Q293 131 297.5 126.5 Q302 122 302 116 L302 100 Q302 72 291 51 Q280 30 262 16.5 Q244 3 220.5 -3.5 Q197 -10 171 -10 Q146 -10 122.5 -3.5 Q99 3 80.5 16.5 Q62 30 51 50 Q40 70 40 98 L40 602 Q40 630 51 650.5 Q62 671 80 684 Q98 697 122 703.5 Q146 710 171 710 Q197 710 221 703.5 Q245 697 263 683.5 Q281 670 291.5 649 Q302 628 302 599 L302 583 Z " />
<glyph glyph-name="cdotaccent" unicode="&#x10b;" horiz-adv-x="329" d="M164 693 Q178 693 187 684 Q196 675 196 661 Q196 647 187 638 Q178 629 164 629 Q150 629 141 638 Q132 647 132 661 Q132 675 141 684 Q150 693 164 693 Z M294 100 Q294 72 283.5 51 Q273 30 255 16.5 Q237 3 213.5 -3.5 Q190 -10 164 -10 Q139 -10 115.5 -3.5 Q92 3 74 16.5 Q56 30 45 50.5 Q34 71 34 99 L34 501 Q34 529 45 549.5 Q56 570 74 583.5 Q92 597 115.5 603.5 Q139 610 164 610 Q190 610 213.5 603.5 Q237 597 255 583.5 Q273 570 283.5 549.5 Q294 529 294 501 L294 401 Q294 388 285 379 Q276 370 264 370 Q251 370 242 379 Q233 388 233 401 L233 501 Q233 530 211.5 543.5 Q190 557 164 557 Q139 557 117 545 Q95 533 95 504 L95 96 Q95 68 117 55.5 Q139 43 164 43 Q189 43 211 55.5 Q233 68 233 96 L233 195 Q233 207 242 216 Q251 225 264 225 Q276 225 285 216 Q294 207 294 195 L294 100 Z " />
<glyph glyph-name="Ccaron" unicode="&#x10c;" horiz-adv-x="322" d="M218 753 Q213 749 201 744.5 Q189 740 183 740 L159 740 Q153 740 141 744.5 Q129 749 124 753 L94 781 Q89 785 91.5 789.5 Q94 794 99 794 L104 794 Q108 794 118.5 791 Q129 788 132 786 L145 778 Q157 771 171 771 Q187 771 197 778 L210 786 Q213 788 223.5 791 Q234 794 238 794 L243 794 Q248 794 250.5 789.5 Q253 785 248 781 L218 753 Z M302 583 Q302 567 286 567 L249 567 Q238 567 238 578 L238 589 L237 610 Q237 623 230.5 631.5 Q224 640 214 645 Q204 650 192.5 652 Q181 654 171 654 Q161 654 149.5 652 Q138 650 127.5 645.5 Q117 641 110 633 Q103 625 103 613 L103 396 Q103 347 103 306 Q103 265 104 230 L104 87 Q104 75 111 67 Q118 59 128 54.5 Q138 50 149.5 48 Q161 46 171 46 Q182 46 194 48.5 Q206 51 215.5 56 Q225 61 231.5 70 Q238 79 238 92 L238 112 Q238 120 244 125.5 Q250 131 258 131 L287 131 Q293 131 297.5 126.5 Q302 122 302 116 L302 100 Q302 72 291 51 Q280 30 262 16.5 Q244 3 220.5 -3.5 Q197 -10 171 -10 Q146 -10 122.5 -3.5 Q99 3 80.5 16.5 Q62 30 51 50 Q40 70 40 98 L40 602 Q40 630 51 650.5 Q62 671 80 684 Q98 697 122 703.5 Q146 710 171 710 Q197 710 221 703.5 Q245 697 263 683.5 Q281 670 291.5 649 Q302 628 302 599 L302 583 Z " />
<glyph glyph-name="ccaron" unicode="&#x10d;" horiz-adv-x="329" d="M211 655 Q206 650 193.5 645 Q181 640 175 640 L153 640 Q147 640 134.5 645 Q122 650 117 655 L86 686 Q82 690 84 695 Q86 700 92 700 L96 700 Q100 700 111 696.5 Q122 693 125 691 L138 682 Q148 675 164 675 Q180 675 190 682 L203 691 Q206 693 217 696.5 Q228 700 232 700 L236 700 Q242 700 244 695 Q246 690 242 686 L211 655 Z M294 100 Q294 72 283.5 51 Q273 30 255 16.5 Q237 3 213.5 -3.5 Q190 -10 164 -10 Q139 -10 115.5 -3.5 Q92 3 74 16.5 Q56 30 45 50.5 Q34 71 34 99 L34 501 Q34 529 45 549.5 Q56 570 74 583.5 Q92 597 115.5 603.5 Q139 610 164 610 Q190 610 213.5 603.5 Q237 597 255 583.5 Q273 570 283.5 549.5 Q294 529 294 501 L294 401 Q294 388 285 379 Q276 370 264 370 Q251 370 242 379 Q233 388 233 401 L233 501 Q233 530 211.5 543.5 Q190 557 164 557 Q139 557 117 545 Q95 533 95 504 L95 96 Q95 68 117 55.5 Q139 43 164 43 Q189 43 211 55.5 Q233 68 233 96 L233 195 Q233 207 242 216 Q251 225 264 225 Q276 225 285 216 Q294 207 294 195 L294 100 Z " />
<glyph glyph-name="Dcaron" unicode="&#x10e;" horiz-adv-x="351" d="M224 753 Q219 749 207 744.5 Q195 740 189 740 L164 740 Q158 740 146 744.5 Q134 749 129 753 L99 780 Q95 784 97 789 Q99 794 105 794 L110 794 Q113 794 124 791 Q135 788 138 786 L151 778 Q162 771 176 771 Q192 771 202 778 L214 786 Q217 788 228 791 Q239 794 242 794 L248 794 Q254 794 256 789 Q258 784 253 780 L224 753 Z M41 649 Q41 670 56 685 Q71 700 92 700 L171 700 Q196 700 221 694.5 Q246 689 266.5 677 Q287 665 299.5 645 Q312 625 312 596 L312 105 Q312 76 299.5 56 Q287 36 266.5 23.5 Q246 11 221 5.5 Q196 0 171 0 L92 0 Q71 0 56 15 Q41 30 41 51 L41 649 Z M171 56 Q182 56 195.5 58.5 Q209 61 220.5 66.5 Q232 72 240 81.5 Q248 91 248 105 L248 593 Q248 608 240.5 617.5 Q233 627 221.5 633 Q210 639 196.5 641.5 Q183 644 171 644 L138 644 Q124 644 114.5 634.5 Q105 625 105 611 L105 89 Q105 75 114.5 65.5 Q124 56 138 56 L171 56 Z " />
<glyph glyph-name="dcaron" unicode="&#x10f;" horiz-adv-x="330" d="M35 501 Q35 551 64.5 580.5 Q94 610 144 610 Q194 610 219 582 Q221 580 223 580 Q227 580 230.5 582.5 Q234 585 234 589 L234 670 Q234 682 243 691 Q252 700 265 700 Q277 700 286 691 Q295 682 295 670 L295 30 Q295 17 286.5 8.5 Q278 0 265 0 L262 0 Q251 0 243 8 Q235 16 235 27 L235 38 Q235 41 231 41 Q228 41 228 39 Q213 15 193 2.5 Q173 -10 144 -10 Q96 -10 66 18 Q36 46 36 95 L36 298 L35 403 L35 501 Z M165 43 Q195 43 215 60 Q235 77 235 108 L235 504 Q235 533 213 545 Q191 557 166 557 Q140 557 118 545 Q96 533 96 504 L96 108 Q96 77 116 60 Q136 43 165 43 Z M349 673 Q351 684 361.5 692 Q372 700 383 700 Q394 700 399 692 Q404 684 399 675 L373 617 Q370 612 363 607.5 Q356 603 351 603 Q344 603 340 607.5 Q336 612 338 618 L349 673 Z " />
<glyph glyph-name="Dcroat" unicode="&#x110;" horiz-adv-x="351" d="M16 387 Q26 387 33 394 Q40 401 40 411 L40 649 Q40 670 55 685 Q70 700 91 700 L170 700 Q195 700 220 694.5 Q245 689 265.5 677 Q286 665 298.5 645 Q311 625 311 596 L311 105 Q311 76 298.5 56 Q286 36 265.5 23.5 Q245 11 220 5.5 Q195 0 170 0 L91 0 Q70 0 55 15 Q40 30 40 51 L40 326 Q40 336 33 343 Q26 350 16 350 L11 350 Q-8 350 -8 369 Q-8 377 -2.5 382 Q3 387 11 387 L16 387 Z M170 56 Q181 56 194.5 58.5 Q208 61 219.5 66.5 Q231 72 239 81.5 Q247 91 247 105 L247 593 Q247 608 239.5 617.5 Q232 627 220.5 633 Q209 639 195.5 641.5 Q182 644 170 644 L137 644 Q123 644 113.5 634.5 Q104 625 104 611 L104 438 Q104 417 119 402 Q134 387 155 387 L205 387 Q213 387 218 382 Q223 377 223 369 Q223 361 218 355.5 Q213 350 205 350 L155 350 Q134 350 119 335 Q104 320 104 299 L104 89 Q104 75 113.5 65.5 Q123 56 137 56 L170 56 Z " />
<glyph glyph-name="dslash" unicode="&#x111;" horiz-adv-x="330" d="M35 501 Q35 551 64.5 580.5 Q94 610 144 610 Q194 610 219 582 Q221 580 223 580 Q227 580 230.5 582.5 Q234 585 234 589 L234 600 Q234 616 223 627 Q212 638 196 638 L160 638 Q152 638 146.5 643.5 Q141 649 142 657 Q142 665 147.5 670 Q153 675 161 675 L223 675 Q228 675 231.5 679 Q235 683 235 688 Q235 693 239 696.5 Q243 700 248 700 L284 700 Q289 700 292.5 696.5 Q296 693 296 688 Q296 675 309 675 L355 675 Q363 675 368 670 Q373 665 373 657 Q373 649 368 643.5 Q363 638 355 638 L335 638 Q318 638 307 627 Q296 616 296 600 L296 31 Q296 18 287 9 Q278 0 266 0 L262 0 Q251 0 243 8 Q235 16 235 27 L235 38 Q235 41 231 41 Q228 41 228 39 Q213 15 193 2.5 Q173 -10 144 -10 Q96 -10 66 18 Q36 46 36 95 L36 298 L35 403 L35 501 Z M165 43 Q195 43 215 60 Q235 77 235 108 L235 504 Q235 533 213 545 Q191 557 166 557 Q140 557 118 545 Q96 533 96 504 L96 108 Q96 77 116 60 Q136 43 165 43 Z " />
<glyph glyph-name="Emacron" unicode="&#x112;" horiz-adv-x="289" d="M259 783 Q267 783 273 777 Q279 771 279 763 Q279 755 273 749 Q267 743 259 743 L50 743 Q42 743 36 749 Q30 755 30 763 Q30 771 36 777 Q42 783 50 783 L259 783 Z M91 0 Q70 0 55 15 Q40 30 40 51 L40 649 Q40 670 55 685 Q70 700 91 700 L234 700 Q247 700 255.5 691.5 Q264 683 264 670 Q264 657 255.5 648.5 Q247 640 234 640 L155 640 Q134 640 119 625 Q104 610 104 589 L104 446 Q104 425 119 410 Q134 395 155 395 L191 395 Q204 395 212.5 386.5 Q221 378 221 365 Q221 352 212.5 343.5 Q204 335 191 335 L155 335 Q134 335 119 320 Q104 305 104 284 L104 111 Q104 90 119 75 Q134 60 155 60 L239 60 Q252 60 260.5 51.5 Q269 43 269 30 Q269 17 260.5 8.5 Q252 0 239 0 L91 0 Z " />
<glyph glyph-name="emacron" unicode="&#x113;" horiz-adv-x="329" d="M269 683 Q277 683 283 677 Q289 671 289 663 Q289 655 283 649 Q277 643 269 643 L59 643 Q51 643 45 649 Q39 655 39 663 Q39 671 45 677 Q51 683 59 683 L269 683 Z M294 100 Q294 72 283.5 51 Q273 30 255 16.5 Q237 3 213.5 -3.5 Q190 -10 164 -10 Q139 -10 115.5 -3.5 Q92 3 74 16.5 Q56 30 45 50.5 Q34 71 34 99 L34 501 Q34 529 45 549.5 Q56 570 74 583.5 Q92 597 115.5 603.5 Q139 610 164 610 Q190 610 213.5 603.5 Q237 597 255 583.5 Q273 570 283.5 549.5 Q294 529 294 501 L294 363 Q294 342 279 327 Q264 312 243 312 L146 312 Q125 312 110 297 Q95 282 95 261 L95 96 Q95 68 117 55.5 Q139 43 164 43 Q189 43 211 55.5 Q233 68 233 96 L233 195 Q233 207 242 216 Q251 225 264 225 Q276 225 285 216 Q294 207 294 195 L294 100 Z M233 501 Q233 530 211.5 543.5 Q190 557 164 557 Q139 557 117 545 Q95 533 95 504 L95 416 Q95 395 110 380 Q125 365 146 365 L182 365 Q203 365 218 380 Q233 395 233 416 L233 501 Z " />
<glyph glyph-name="Ebreve" unicode="&#x114;" horiz-adv-x="289" d="M97 797 Q98 786 110 781 Q123 774 155 774 Q182 774 192 781 Q200 785 202 796 Q204 804 212 804 L225 804 Q233 804 237.5 799 Q242 794 240 786 Q237 764 223 755 Q204 740 155 740 Q142 740 126 741 Q110 742 96 747 Q82 752 71.5 761.5 Q61 771 59 787 Q57 795 61.5 799.5 Q66 804 75 804 L88 804 Q95 804 97 797 Z M91 0 Q70 0 55 15 Q40 30 40 51 L40 649 Q40 670 55 685 Q70 700 91 700 L234 700 Q247 700 255.5 691.5 Q264 683 264 670 Q264 657 255.5 648.5 Q247 640 234 640 L155 640 Q134 640 119 625 Q104 610 104 589 L104 446 Q104 425 119 410 Q134 395 155 395 L191 395 Q204 395 212.5 386.5 Q221 378 221 365 Q221 352 212.5 343.5 Q204 335 191 335 L155 335 Q134 335 119 320 Q104 305 104 284 L104 111 Q104 90 119 75 Q134 60 155 60 L239 60 Q252 60 260.5 51.5 Q269 43 269 30 Q269 17 260.5 8.5 Q252 0 239 0 L91 0 Z " />
<glyph glyph-name="ebreve" unicode="&#x115;" horiz-adv-x="329" d="M107 697 Q108 686 119 681 Q132 674 164 674 Q191 674 201 681 Q209 685 211 696 Q213 704 221 704 L235 704 Q243 704 247.5 699 Q252 694 250 686 Q247 664 232 655 Q213 640 164 640 Q151 640 135 641 Q119 642 105 647 Q91 652 80.5 661.5 Q70 671 68 687 Q66 695 70.5 699.5 Q75 704 84 704 L98 704 Q105 704 107 697 Z M294 100 Q294 72 283.5 51 Q273 30 255 16.5 Q237 3 213.5 -3.5 Q190 -10 164 -10 Q139 -10 115.5 -3.5 Q92 3 74 16.5 Q56 30 45 50.5 Q34 71 34 99 L34 501 Q34 529 45 549.5 Q56 570 74 583.5 Q92 597 115.5 603.5 Q139 610 164 610 Q190 610 213.5 603.5 Q237 597 255 583.5 Q273 570 283.5 549.5 Q294 529 294 501 L294 363 Q294 342 279 327 Q264 312 243 312 L146 312 Q125 312 110 297 Q95 282 95 261 L95 96 Q95 68 117 55.5 Q139 43 164 43 Q189 43 211 55.5 Q233 68 233 96 L233 195 Q233 207 242 216 Q251 225 264 225 Q276 225 285 216 Q294 207 294 195 L294 100 Z M233 501 Q233 530 211.5 543.5 Q190 557 164 557 Q139 557 117 545 Q95 533 95 504 L95 416 Q95 395 110 380 Q125 365 146 365 L182 365 Q203 365 218 380 Q233 395 233 416 L233 501 Z " />
<glyph glyph-name="Edotaccent" unicode="&#x116;" horiz-adv-x="289" d="M155 793 Q169 793 178 784 Q187 775 187 761 Q187 747 178 738 Q169 729 155 729 L154 729 Q140 729 131 738 Q122 747 122 761 Q122 775 131 784 Q140 793 154 793 L155 793 Z M91 0 Q70 0 55 15 Q40 30 40 51 L40 649 Q40 670 55 685 Q70 700 91 700 L234 700 Q247 700 255.5 691.5 Q264 683 264 670 Q264 657 255.5 648.5 Q247 640 234 640 L155 640 Q134 640 119 625 Q104 610 104 589 L104 446 Q104 425 119 410 Q134 395 155 395 L191 395 Q204 395 212.5 386.5 Q221 378 221 365 Q221 352 212.5 343.5 Q204 335 191 335 L155 335 Q134 335 119 320 Q104 305 104 284 L104 111 Q104 90 119 75 Q134 60 155 60 L239 60 Q252 60 260.5 51.5 Q269 43 269 30 Q269 17 260.5 8.5 Q252 0 239 0 L91 0 Z " />
<glyph glyph-name="edotaccent" unicode="&#x117;" horiz-adv-x="329" d="M164 693 Q178 693 187 684 Q196 675 196 661 Q196 647 187 638 Q178 629 164 629 Q150 629 141 638 Q132 647 132 661 Q132 675 141 684 Q150 693 164 693 Z M294 100 Q294 72 283.5 51 Q273 30 255 16.5 Q237 3 213.5 -3.5 Q190 -10 164 -10 Q139 -10 115.5 -3.5 Q92 3 74 16.5 Q56 30 45 50.5 Q34 71 34 99 L34 501 Q34 529 45 549.5 Q56 570 74 583.5 Q92 597 115.5 603.5 Q139 610 164 610 Q190 610 213.5 603.5 Q237 597 255 583.5 Q273 570 283.5 549.5 Q294 529 294 501 L294 363 Q294 342 279 327 Q264 312 243 312 L146 312 Q125 312 110 297 Q95 282 95 261 L95 96 Q95 68 117 55.5 Q139 43 164 43 Q189 43 211 55.5 Q233 68 233 96 L233 195 Q233 207 242 216 Q251 225 264 225 Q276 225 285 216 Q294 207 294 195 L294 100 Z M233 501 Q233 530 211.5 543.5 Q190 557 164 557 Q139 557 117 545 Q95 533 95 504 L95 416 Q95 395 110 380 Q125 365 146 365 L182 365 Q203 365 218 380 Q233 395 233 416 L233 501 Z " />
<glyph glyph-name="Eogonek" unicode="&#x118;" horiz-adv-x="289" d="M40 649 Q40 670 55 685 Q70 700 91 700 L234 700 Q247 700 255.5 691.5 Q264 683 264 670 Q264 657 255.5 648.5 Q247 640 234 640 L155 640 Q134 640 119 625 Q104 610 104 589 L104 446 Q104 425 119 410 Q134 395 155 395 L191 395 Q204 395 212.5 386.5 Q221 378 221 365 Q221 352 212.5 343.5 Q204 335 191 335 L155 335 Q134 335 119 320 Q104 305 104 284 L104 111 Q104 90 119 75 Q134 60 155 60 L239 60 Q252 60 260.5 51.5 Q269 43 269 30 L269 24 Q269 14 262 7 Q255 0 245 0 L232 0 Q221 0 217 -10 L213 -21 Q208 -33 207 -46 Q206 -59 210 -68 Q215 -77 226 -77 Q238 -77 243 -66 Q244 -64 247.5 -60.5 Q251 -57 254 -57 L269 -57 Q279 -57 277 -67 Q276 -78 267 -88 Q254 -99 227 -99 Q204 -99 192 -90 Q181 -80 176 -66 Q172 -53 177 -34 Q180 -20 186 -8 Q190 0 182 0 L91 0 Q70 0 55 15 Q40 30 40 51 L40 649 Z " />
<glyph glyph-name="eogonek" unicode="&#x119;" horiz-adv-x="329" d="M292 99 Q292 73 281 50.5 Q270 28 248 14 L244 12 L243 12 Q242 11 241 11 Q240 10 239 9 Q238 8 236 6.5 Q234 5 234 4 Q229 -3 226 -13 Q219 -28 218 -42 Q216 -57 219 -67 Q222 -78 235 -78 Q248 -78 253 -67 Q254 -65 257.5 -61.5 Q261 -58 264 -58 L279 -58 Q288 -58 287 -68 Q286 -79 276 -89 Q263 -100 236 -100 Q216 -100 203 -92 Q191 -83 188 -70 Q184 -57 187 -40 Q188 -33 190 -27 Q192 -21 194 -16 Q195 -13 193.5 -10.5 Q192 -8 189 -9 Q182 -10 175.5 -10.5 Q169 -11 161 -11 Q124 -11 92 4.5 Q60 20 44 55 Q34 74 34 99 L34 501 Q34 529 45 549.5 Q56 570 74 583.5 Q92 597 115.5 603.5 Q139 610 164 610 Q190 610 213.5 603.5 Q237 597 255 583.5 Q273 570 283.5 549.5 Q294 529 294 501 L294 363 Q294 342 279 327 Q264 312 243 312 L146 312 Q125 312 110 297 Q95 282 95 261 L95 96 Q95 68 117 55.5 Q139 43 164 43 Q189 43 211 55.5 Q233 68 233 96 L233 195 Q233 207 242 216 Q251 225 264 225 Q276 225 285 216 Q294 207 294 195 L292 99 Z M231 500 Q231 529 209.5 542.5 Q188 556 162 556 Q137 556 115 544 Q93 532 93 503 L93 415 Q93 394 108 379 Q123 364 144 364 L180 364 Q201 364 216 379 Q231 394 231 415 L231 500 Z " />
<glyph glyph-name="Ecaron" unicode="&#x11a;" horiz-adv-x="289" d="M203 755 Q198 750 185.5 745 Q173 740 167 740 L144 740 Q138 740 125.5 745 Q113 750 108 755 L77 786 Q73 790 75 795 Q77 800 84 800 L87 800 Q92 800 103 796 Q114 792 117 790 L130 782 Q140 775 155 775 Q171 775 181 782 L193 790 Q196 792 207 796 Q218 800 223 800 L227 800 Q233 800 235.5 795 Q238 790 233 785 L203 755 Z M92 0 Q71 0 56 15 Q41 30 41 51 L41 649 Q41 670 56 685 Q71 700 92 700 L235 700 Q248 700 256.5 691.5 Q265 683 265 670 Q265 657 256.5 648.5 Q248 640 235 640 L156 640 Q135 640 120 625 Q105 610 105 589 L105 446 Q105 425 120 410 Q135 395 156 395 L192 395 Q205 395 213.5 386.5 Q222 378 222 365 Q222 352 213.5 343.5 Q205 335 192 335 L156 335 Q135 335 120 320 Q105 305 105 284 L105 111 Q105 90 120 75 Q135 60 156 60 L240 60 Q253 60 261.5 51.5 Q270 43 270 30 Q270 17 261.5 8.5 Q253 0 240 0 L92 0 Z " />
<glyph glyph-name="ecaron" unicode="&#x11b;" horiz-adv-x="329" d="M211 655 Q206 650 193.5 645 Q181 640 175 640 L153 640 Q147 640 134.5 645 Q122 650 117 655 L86 686 Q82 690 84 695 Q86 700 92 700 L96 700 Q100 700 111 696.5 Q122 693 125 691 L138 682 Q148 675 164 675 Q180 675 190 682 L203 691 Q206 693 217 696.5 Q228 700 232 700 L236 700 Q242 700 244 695 Q246 690 242 686 L211 655 Z M294 100 Q294 72 283.5 51 Q273 30 255 16.5 Q237 3 213.5 -3.5 Q190 -10 164 -10 Q139 -10 115.5 -3.5 Q92 3 74 16.5 Q56 30 45 50.5 Q34 71 34 99 L34 501 Q34 529 45 549.5 Q56 570 74 583.5 Q92 597 115.5 603.5 Q139 610 164 610 Q190 610 213.5 603.5 Q237 597 255 583.5 Q273 570 283.5 549.5 Q294 529 294 501 L294 363 Q294 342 279 327 Q264 312 243 312 L146 312 Q125 312 110 297 Q95 282 95 261 L95 96 Q95 68 117 55.5 Q139 43 164 43 Q189 43 211 55.5 Q233 68 233 96 L233 195 Q233 207 242 216 Q251 225 264 225 Q276 225 285 216 Q294 207 294 195 L294 100 Z M233 501 Q233 530 211.5 543.5 Q190 557 164 557 Q139 557 117 545 Q95 533 95 504 L95 416 Q95 395 110 380 Q125 365 146 365 L182 365 Q203 365 218 380 Q233 395 233 416 L233 501 Z " />
<glyph glyph-name="Gcircumflex" unicode="&#x11c;" horiz-adv-x="342" d="M249 754 Q253 750 251 745 Q249 740 243 740 L239 740 Q235 740 224 743.5 Q213 747 210 749 L197 759 Q187 766 171 766 Q155 766 145 759 L132 749 Q129 747 118 743.5 Q107 740 103 740 L99 740 Q93 740 91 745 Q89 750 93 754 L124 785 Q129 790 141.5 795 Q154 800 160 800 L182 800 Q188 800 200.5 795 Q213 790 218 785 L249 754 Z M303 100 Q303 93 303.5 78.5 Q304 64 306 49 Q308 34 311 20.5 Q314 7 319 1 Q320 1 320 0 Q320 0 320 -1 Q320 -2 320 -3 Q317 -7 315 -5 Q295 4 281 19 Q280 21 273 21 Q267 21 264 19 Q246 2 220.5 -4 Q195 -10 171 -10 Q146 -10 122.5 -3.5 Q99 3 80.5 16.5 Q62 30 51 50 Q40 70 40 98 L40 602 Q40 630 51 650.5 Q62 671 80 684 Q98 697 122 703.5 Q146 710 171 710 Q197 710 221 703.5 Q245 697 263 683.5 Q281 670 291.5 649 Q302 628 302 599 L302 583 Q302 567 286 567 L249 567 Q238 567 238 578 L238 589 L237 610 Q237 623 230.5 631.5 Q224 640 214 645 Q204 650 192.5 652 Q181 654 171 654 Q161 654 149.5 652 Q138 650 127.5 645.5 Q117 641 110 633 Q103 625 103 613 L103 396 Q103 347 103 306 Q103 265 104 230 L104 87 Q104 75 111 67 Q118 59 128 54.5 Q138 50 149.5 48 Q161 46 171 46 Q182 46 194 48.5 Q206 51 215.5 56 Q225 61 231.5 70 Q238 79 238 92 L238 262 Q238 270 232 276 Q226 282 218 282 Q210 282 204 288 Q198 294 198 302 L198 310 Q198 321 206.5 329.5 Q215 338 226 338 L252 338 Q273 338 288 323 Q303 308 303 287 L303 100 Z " />
<glyph glyph-name="gcircumflex" unicode="&#x11d;" horiz-adv-x="330" d="M243 654 Q247 650 245 645 Q243 640 237 640 L233 640 Q229 640 218 643.5 Q207 647 204 649 L191 659 Q181 666 165 666 Q149 666 139 659 L126 649 Q123 647 112 643.5 Q101 640 97 640 L93 640 Q87 640 85 645 Q83 650 87 654 L118 685 Q123 690 135.5 695 Q148 700 154 700 L176 700 Q182 700 194.5 695 Q207 690 212 685 L243 654 Z M294 12 Q294 -17 283.5 -37.5 Q273 -58 255 -72 Q237 -86 213.5 -92.5 Q190 -99 164 -99 Q139 -99 115 -92.5 Q91 -86 73 -72.5 Q55 -59 44 -38.5 Q33 -18 33 10 L33 19 Q33 28 42 28 L80 28 Q94 28 94 14 L94 0 Q94 -21 113 -34 Q133 -46 164 -46 Q176 -46 188 -43.5 Q200 -41 210.5 -35.5 Q221 -30 227.5 -20.5 Q234 -11 234 3 L234 98 Q234 101 230 101 Q228 101 227 100 Q221 91 214 83 Q207 75 198 70 Q176 54 143 54 Q97 54 65.5 80 Q34 106 34 154 L34 328 L33 419 L33 502 Q33 552 63 581.5 Q93 611 143 611 Q175 611 197 599 Q205 594 212.5 588.5 Q220 583 225 575 Q227 573 229 573 Q233 573 233 576 L233 582 Q233 590 238 595 Q243 600 251 600 L264 601 Q276 601 285 592 Q294 583 294 570 L294 12 Z M164 107 Q190 107 210.5 120 Q231 133 233 161 L233 352 L232 441 L232 510 Q232 512 231.5 516.5 Q231 521 230 522 Q222 542 203.5 550 Q185 558 165 558 Q153 558 140 555 Q127 552 117 546 Q107 540 100.5 530 Q94 520 94 505 L94 167 Q94 137 115 122 Q136 107 164 107 Z " />
<glyph glyph-name="Gbreve" unicode="&#x11e;" horiz-adv-x="342" d="M114 797 Q115 786 126 781 Q139 774 171 774 Q198 774 208 781 Q216 785 218 796 Q220 804 228 804 L242 804 Q250 804 254.5 799 Q259 794 257 786 Q254 764 239 755 Q220 740 171 740 Q158 740 142 741 Q126 742 112 747 Q98 752 87.5 761.5 Q77 771 75 787 Q73 795 77.5 799.5 Q82 804 91 804 L105 804 Q112 804 114 797 Z M303 100 Q303 93 303.5 78.5 Q304 64 306 49 Q308 34 311 20.5 Q314 7 319 1 Q320 1 320 0 Q320 0 320 -1 Q320 -2 320 -3 Q317 -7 315 -5 Q295 4 281 19 Q280 21 273 21 Q267 21 264 19 Q246 2 220.5 -4 Q195 -10 171 -10 Q146 -10 122.5 -3.5 Q99 3 80.5 16.5 Q62 30 51 50 Q40 70 40 98 L40 602 Q40 630 51 650.5 Q62 671 80 684 Q98 697 122 703.5 Q146 710 171 710 Q197 710 221 703.5 Q245 697 263 683.5 Q281 670 291.5 649 Q302 628 302 599 L302 583 Q302 567 286 567 L249 567 Q238 567 238 578 L238 589 L237 610 Q237 623 230.5 631.5 Q224 640 214 645 Q204 650 192.5 652 Q181 654 171 654 Q161 654 149.5 652 Q138 650 127.5 645.5 Q117 641 110 633 Q103 625 103 613 L103 396 Q103 347 103 306 Q103 265 104 230 L104 87 Q104 75 111 67 Q118 59 128 54.5 Q138 50 149.5 48 Q161 46 171 46 Q182 46 194 48.5 Q206 51 215.5 56 Q225 61 231.5 70 Q238 79 238 92 L238 262 Q238 270 232 276 Q226 282 218 282 Q210 282 204 288 Q198 294 198 302 L198 310 Q198 321 206.5 329.5 Q215 338 226 338 L252 338 Q273 338 288 323 Q303 308 303 287 L303 100 Z " />
<glyph glyph-name="gbreve" unicode="&#x11f;" horiz-adv-x="330" d="M108 697 Q109 686 120 681 Q133 674 165 674 Q192 674 202 681 Q210 685 212 696 Q214 704 222 704 L236 704 Q244 704 248.5 699 Q253 694 251 686 Q248 664 233 655 Q214 640 165 640 Q152 640 136 641 Q120 642 106 647 Q92 652 81.5 661.5 Q71 671 69 687 Q67 695 71.5 699.5 Q76 704 85 704 L99 704 Q106 704 108 697 Z M294 12 Q294 -17 283.5 -37.5 Q273 -58 255 -72 Q237 -86 213.5 -92.5 Q190 -99 164 -99 Q139 -99 115 -92.5 Q91 -86 73 -72.5 Q55 -59 44 -38.5 Q33 -18 33 10 L33 19 Q33 28 42 28 L80 28 Q94 28 94 14 L94 0 Q94 -21 113 -34 Q133 -46 164 -46 Q176 -46 188 -43.5 Q200 -41 210.5 -35.5 Q221 -30 227.5 -20.5 Q234 -11 234 3 L234 98 Q234 101 230 101 Q228 101 227 100 Q221 91 214 83 Q207 75 198 70 Q176 54 143 54 Q97 54 65.5 80 Q34 106 34 154 L34 328 L33 419 L33 502 Q33 552 63 581.5 Q93 611 143 611 Q175 611 197 599 Q205 594 212.5 588.5 Q220 583 225 575 Q227 573 229 573 Q233 573 233 576 L233 582 Q233 590 238 595 Q243 600 251 600 L264 601 Q276 601 285 592 Q294 583 294 570 L294 12 Z M164 107 Q190 107 210.5 120 Q231 133 233 161 L233 352 L232 441 L232 510 Q232 512 231.5 516.5 Q231 521 230 522 Q222 542 203.5 550 Q185 558 165 558 Q153 558 140 555 Q127 552 117 546 Q107 540 100.5 530 Q94 520 94 505 L94 167 Q94 137 115 122 Q136 107 164 107 Z " />
<glyph glyph-name="Gdotaccent" unicode="&#x120;" horiz-adv-x="342" d="M171 793 Q185 793 194 784 Q203 775 203 761 Q203 747 194 738 Q185 729 171 729 Q157 729 148 738 Q139 747 139 761 Q139 775 148 784 Q157 793 171 793 Z M303 100 Q303 93 303.5 78.5 Q304 64 306 49 Q308 34 311 20.5 Q314 7 319 1 Q320 1 320 0 Q320 0 320 -1 Q320 -2 320 -3 Q317 -7 315 -5 Q295 4 281 19 Q280 21 273 21 Q267 21 264 19 Q246 2 220.5 -4 Q195 -10 171 -10 Q146 -10 122.5 -3.5 Q99 3 80.5 16.5 Q62 30 51 50 Q40 70 40 98 L40 602 Q40 630 51 650.5 Q62 671 80 684 Q98 697 122 703.5 Q146 710 171 710 Q197 710 221 703.5 Q245 697 263 683.5 Q281 670 291.5 649 Q302 628 302 599 L302 583 Q302 567 286 567 L249 567 Q238 567 238 578 L238 589 L237 610 Q237 623 230.5 631.5 Q224 640 214 645 Q204 650 192.5 652 Q181 654 171 654 Q161 654 149.5 652 Q138 650 127.5 645.5 Q117 641 110 633 Q103 625 103 613 L103 396 Q103 347 103 306 Q103 265 104 230 L104 87 Q104 75 111 67 Q118 59 128 54.5 Q138 50 149.5 48 Q161 46 171 46 Q182 46 194 48.5 Q206 51 215.5 56 Q225 61 231.5 70 Q238 79 238 92 L238 262 Q238 270 232 276 Q226 282 218 282 Q210 282 204 288 Q198 294 198 302 L198 310 Q198 321 206.5 329.5 Q215 338 226 338 L252 338 Q273 338 288 323 Q303 308 303 287 L303 100 Z " />
<glyph glyph-name="gdotaccent" unicode="&#x121;" horiz-adv-x="330" d="M165 693 Q179 693 188 684 Q197 675 197 661 Q197 647 188 638 Q179 629 165 629 Q151 629 142 638 Q133 647 133 661 Q133 675 142 684 Q151 693 165 693 Z M294 12 Q294 -17 283.5 -37.5 Q273 -58 255 -72 Q237 -86 213.5 -92.5 Q190 -99 164 -99 Q139 -99 115 -92.5 Q91 -86 73 -72.5 Q55 -59 44 -38.5 Q33 -18 33 10 L33 19 Q33 28 42 28 L80 28 Q94 28 94 14 L94 0 Q94 -21 113 -34 Q133 -46 164 -46 Q176 -46 188 -43.5 Q200 -41 210.5 -35.5 Q221 -30 227.5 -20.5 Q234 -11 234 3 L234 98 Q234 101 230 101 Q228 101 227 100 Q221 91 214 83 Q207 75 198 70 Q176 54 143 54 Q97 54 65.5 80 Q34 106 34 154 L34 328 L33 419 L33 502 Q33 552 63 581.5 Q93 611 143 611 Q175 611 197 599 Q205 594 212.5 588.5 Q220 583 225 575 Q227 573 229 573 Q233 573 233 576 L233 582 Q233 590 238 595 Q243 600 251 600 L264 601 Q276 601 285 592 Q294 583 294 570 L294 12 Z M164 107 Q190 107 210.5 120 Q231 133 233 161 L233 352 L232 441 L232 510 Q232 512 231.5 516.5 Q231 521 230 522 Q222 542 203.5 550 Q185 558 165 558 Q153 558 140 555 Q127 552 117 546 Q107 540 100.5 530 Q94 520 94 505 L94 167 Q94 137 115 122 Q136 107 164 107 Z " />
<glyph glyph-name="Hcircumflex" unicode="&#x124;" horiz-adv-x="351" d="M255 754 Q259 750 257 745 Q255 740 249 740 L244 740 Q240 740 229 743.5 Q218 747 215 749 L202 759 Q192 766 176 766 Q160 766 150 759 L137 749 Q134 747 123 743.5 Q112 740 108 740 L104 740 Q97 740 95 745 Q93 750 97 754 L128 785 Q133 790 145.5 795 Q158 800 164 800 L188 800 Q194 800 206.5 795 Q219 790 224 785 L255 754 Z M248 285 Q248 306 233 321 Q218 336 197 336 L156 336 Q135 336 120 321 Q105 306 105 285 L105 32 Q105 18 96 9 Q87 0 73 0 Q59 0 50 9 Q41 18 41 32 L41 668 Q41 682 50 691 Q59 700 73 700 Q87 700 96 691 Q105 682 105 668 L105 443 Q105 422 120 407 Q135 392 156 392 L197 392 Q218 392 233 407 Q248 422 248 443 L248 668 Q248 682 257 691 Q266 700 280 700 Q294 700 303 691 Q312 682 312 668 L312 32 Q312 18 303 9 Q294 0 280 0 Q266 0 257 9 Q248 18 248 32 L248 285 Z " />
<glyph glyph-name="hcircumflex" unicode="&#x125;" horiz-adv-x="329" d="M242 754 Q246 750 244 745 Q242 740 236 740 L232 740 Q228 740 217 743.5 Q206 747 203 749 L190 759 Q180 766 164 766 Q148 766 138 759 L125 749 Q122 747 111 743.5 Q100 740 96 740 L92 740 Q86 740 84 745 Q82 750 86 754 L117 785 Q122 790 134.5 795 Q147 800 153 800 L175 800 Q181 800 193.5 795 Q206 790 211 785 L242 754 Z M233 119 L234 212 L234 492 Q234 524 213.5 540 Q193 556 163 556 Q133 556 114 538.5 Q95 521 95 490 L95 31 Q95 18 86 9 Q77 0 65 0 Q52 0 43 9 Q34 18 34 31 L34 670 Q34 682 43 691 Q52 700 65 700 Q77 700 86 691 Q95 682 95 670 L95 573 Q95 570 100 570 Q102 570 103 571 Q133 610 184 610 Q233 610 263.5 583 Q294 556 294 505 L294 31 Q294 18 285 9 Q276 0 264 0 L255 0 Q246 0 239.5 7 Q233 14 233 23 L233 119 Z " />
<glyph glyph-name="Itilde" unicode="&#x128;" horiz-adv-x="144" d="M-31 744 Q-31 766 -18 777.5 Q-5 789 17 789 Q23 789 30.5 787.5 Q38 786 48 784 Q56 781 64.5 778 Q73 775 81 771 L85 769 L98 765 Q99 765 103 763 Q105 763 107 762 L117 761 Q118 760 121.5 760 Q125 760 126 760 Q143 763 143 782 Q145 789 150 789 L160 789 Q175 789 175 774 Q175 753 161.5 741 Q148 729 127 729 Q115 729 97 735 Q80 739 63 747 L59 749 L46 753 Q46 753 41 755 Q39 755 37 756 L27 757 Q26 758 22.5 758 Q19 758 18 758 Q1 755 1 736 Q-1 729 -6 729 L-16 729 Q-31 729 -31 744 Z M39 668 Q39 681 48.5 690.5 Q58 700 72 700 Q85 700 94.5 690.5 Q104 681 104 668 L104 33 Q104 19 94.5 9.5 Q85 0 72 0 Q58 0 48.5 9.5 Q39 19 39 33 L39 668 Z " />
<glyph glyph-name="itilde" unicode="&#x129;" horiz-adv-x="131" d="M-37 644 Q-37 666 -24 677.5 Q-11 689 11 689 Q21 689 41 684 Q49 681 57.5 678 Q66 675 74 671 L78 669 L89 665 Q90 665 94.5 664 Q99 663 100 663 L111 661 Q118 661 123 661.5 Q128 662 133 667 Q138 672 138 681 Q138 689 145 689 L153 689 Q168 689 168 674 Q168 653 154.5 641 Q141 629 120 629 Q108 629 90 635 Q74 640 57 647 L53 649 L42 653 Q41 653 36.5 654 Q32 655 31 655 L20 657 L15 657 Q6 657 -2 651 Q-7 646 -7 637 Q-7 629 -14 629 L-22 629 Q-37 629 -37 644 Z M35 570 Q35 582 44 591 Q53 600 66 600 Q78 600 87 591 Q96 582 96 570 L96 31 Q96 18 87 9 Q78 0 66 0 Q53 0 44 9 Q35 18 35 31 L35 570 Z " />
<glyph glyph-name="Imacron" unicode="&#x12a;" horiz-adv-x="144" d="M177 783 Q185 783 191 777 Q197 771 197 763 Q197 755 191 749 Q185 743 177 743 L-33 743 Q-41 743 -47 749 Q-53 755 -53 763 Q-53 771 -47 777 Q-41 783 -33 783 L177 783 Z M39 668 Q39 681 48.5 690.5 Q58 700 72 700 Q85 700 94.5 690.5 Q104 681 104 668 L104 33 Q104 19 94.5 9.5 Q85 0 72 0 Q58 0 48.5 9.5 Q39 19 39 33 L39 668 Z " />
<glyph glyph-name="imacron" unicode="&#x12b;" horiz-adv-x="131" d="M170 683 Q178 683 184 677 Q190 671 190 663 Q190 655 184 649 Q178 643 170 643 L-39 643 Q-47 643 -53 649 Q-59 655 -59 663 Q-59 671 -53 677 Q-47 683 -39 683 L170 683 Z M35 570 Q35 582 44 591 Q53 600 66 600 Q78 600 87 591 Q96 582 96 570 L96 31 Q96 18 87 9 Q78 0 66 0 Q53 0 44 9 Q35 18 35 31 L35 570 Z " />
<glyph glyph-name="Iogonek" unicode="&#x12e;" horiz-adv-x="144" d="M46 0 Q39 0 39 7 L39 668 Q39 681 48.5 690.5 Q58 700 72 700 Q85 700 94.5 690.5 Q104 681 104 668 L104 11 Q104 0 93 0 Q82 0 78 -10 L74 -21 Q69 -33 68 -46 Q67 -59 71 -68 Q76 -77 87 -77 Q99 -77 104 -66 Q105 -64 108.5 -60.5 Q112 -57 115 -57 L130 -57 Q140 -57 138 -67 Q137 -78 128 -88 Q115 -99 88 -99 Q65 -99 53 -90 Q42 -80 37 -66 Q33 -53 38 -34 Q40 -26 42.5 -19.5 Q45 -13 48 -6 Q50 -4 49 -2 Q48 0 46 0 Z " />
<glyph glyph-name="iogonek" unicode="&#x12f;" horiz-adv-x="131" d="M40 0 Q35 0 35 5 L35 570 Q35 582 44 591 Q53 600 66 600 Q78 600 87 591 Q96 582 96 570 L96 11 Q96 0 86 0 Q75 0 71 -10 L67 -21 Q62 -33 61 -46 Q60 -59 64 -68 Q69 -77 80 -77 Q87 -77 91 -74 L94 -71 Q96 -69 98 -63 Q98 -57 104 -57 L123 -57 Q133 -57 131 -67 Q130 -78 121 -88 Q108 -99 81 -99 Q58 -99 46 -90 Q35 -80 30 -66 Q26 -53 31 -34 Q34 -18 43 -4 Q45 0 40 0 Z M98 666 Q98 652 88.5 642.5 Q79 633 66 633 Q52 633 42.5 642.5 Q33 652 33 666 Q33 679 42.5 688.5 Q52 698 66 698 Q79 698 88.5 688.5 Q98 679 98 666 Z " />
<glyph glyph-name="Idot" unicode="&#x130;" horiz-adv-x="144" d="M72 793 Q86 793 95 784 Q104 775 104 761 Q104 747 95 738 Q86 729 72 729 Q58 729 49 738 Q40 747 40 761 Q40 775 49 784 Q58 793 72 793 Z M39 668 Q39 681 48.5 690.5 Q58 700 72 700 Q85 700 94.5 690.5 Q104 681 104 668 L104 33 Q104 19 94.5 9.5 Q85 0 72 0 Q58 0 48.5 9.5 Q39 19 39 33 L39 668 Z " />
<glyph glyph-name="dotlessi" unicode="&#x131;" horiz-adv-x="131" d="M35 570 Q35 582 44 591 Q53 600 66 600 Q78 600 87 591 Q96 582 96 570 L96 31 Q96 18 87 9 Q78 0 66 0 Q53 0 44 9 Q35 18 35 31 L35 570 Z " />
<glyph glyph-name="Jcircumflex" unicode="&#x134;" horiz-adv-x="308" d="M317 754 Q321 750 319 745 Q317 740 311 740 L306 740 Q302 740 291 743.5 Q280 747 277 749 L264 759 Q254 766 238 766 Q222 766 212 759 L199 749 Q196 747 185 743.5 Q174 740 170 740 L166 740 Q159 740 157 745 Q155 750 159 754 L190 785 Q195 790 207.5 795 Q220 800 226 800 L250 800 Q256 800 268.5 795 Q281 790 286 785 L317 754 Z M269 95 Q269 67 258 47.5 Q247 28 229 15 Q211 2 187.5 -4 Q164 -10 139 -10 Q79 -10 44 19 Q8 48 9 94 L10 109 L10 126 Q10 142 27 142 L46 142 Q57 142 65.5 133.5 Q74 125 74 114 L74 86 Q74 74 81 66.5 Q88 59 98.5 54.5 Q109 50 120.5 48 Q132 46 141 46 Q152 46 163.5 48.5 Q175 51 185 56 Q195 61 201.5 69.5 Q208 78 208 91 L208 670 Q208 682 217 691 Q226 700 239 700 Q251 700 260 691 Q269 682 269 670 L269 95 Z " />
<glyph glyph-name="Lacute" unicode="&#x139;" horiz-adv-x="269" d="M131 800 Q139 800 142 792 Q145 784 138 779 L106 752 Q102 749 90 744.5 Q78 740 73 740 L72 740 Q65 740 62.5 745.5 Q60 751 64 756 L83 780 Q88 787 101.5 793.5 Q115 800 123 800 L131 800 Z M91 0 Q70 0 55 15 Q40 30 40 51 L40 668 Q40 682 49 691 Q58 700 72 700 Q86 700 95 691 Q104 682 104 668 L104 111 Q104 90 119 75 Q134 60 155 60 L224 60 Q237 60 245.5 51.5 Q254 43 254 30 Q254 17 245.5 8.5 Q237 0 224 0 L91 0 Z " />
<glyph glyph-name="lacute" unicode="&#x13a;" horiz-adv-x="131" d="M124 800 Q132 800 135 792 Q138 784 131 779 L99 752 Q95 749 83 744.5 Q71 740 66 740 L65 740 Q58 740 55.5 745.5 Q53 751 57 756 L76 780 Q81 787 94.5 793.5 Q108 800 116 800 L124 800 Z M35 670 Q35 682 44 691 Q53 700 66 700 Q78 700 87 691 Q96 682 96 670 L96 31 Q96 18 87 9 Q78 0 66 0 Q53 0 44 9 Q35 18 35 31 L35 670 Z " />
<glyph glyph-name="Lcaron" unicode="&#x13d;" horiz-adv-x="269" d="M158 673 Q160 684 170.5 692 Q181 700 192 700 Q203 700 208 692 Q213 684 208 675 L182 617 Q179 612 172 607.5 Q165 603 160 603 Q153 603 149 607.5 Q145 612 147 618 L158 673 Z M91 0 Q70 0 55 15 Q40 30 40 51 L40 668 Q40 682 49 691 Q58 700 72 700 Q86 700 95 691 Q104 682 104 668 L104 111 Q104 90 119 75 Q134 60 155 60 L224 60 Q237 60 245.5 51.5 Q254 43 254 30 Q254 17 245.5 8.5 Q237 0 224 0 L91 0 Z " />
<glyph glyph-name="lcaron" unicode="&#x13e;" horiz-adv-x="131" d="M158 673 Q160 684 170.5 692 Q181 700 192 700 Q203 700 208 692 Q213 684 208 675 L182 617 Q179 612 172 607.5 Q165 603 160 603 Q153 603 149 607.5 Q145 612 147 618 L158 673 Z M35 670 Q35 682 44 691 Q53 700 66 700 Q78 700 87 691 Q96 682 96 670 L96 31 Q96 18 87 9 Q78 0 66 0 Q53 0 44 9 Q35 18 35 31 L35 670 Z " />
<glyph glyph-name="Nacute" unicode="&#x143;" horiz-adv-x="353" d="M237 800 Q245 800 248 792.5 Q251 785 244 779 L211 752 Q207 749 195 744.5 Q183 740 178 740 Q171 740 168.5 745 Q166 750 170 755 L189 780 Q194 787 207.5 793.5 Q221 800 229 800 L237 800 Z M313 44 Q313 27 301 14.5 Q289 2 272 2 L271 2 Q254 2 239.5 13.5 Q225 25 221 42 L162 297 Q160 309 151 314.5 Q142 320 132 320 Q119 320 108.5 312.5 Q98 305 98 290 L98 29 Q98 18 89.5 9.5 Q81 1 70 1 Q59 1 50.5 9.5 Q42 18 42 29 L42 660 Q42 677 54.5 689 Q67 701 84 701 Q101 701 115.5 689.5 Q130 678 134 661 L193 404 Q196 393 204.5 387 Q213 381 224 381 Q236 381 246.5 389 Q257 397 257 412 L257 672 Q257 683 265.5 691.5 Q274 700 285 701 Q296 702 304.5 693.5 Q313 685 313 674 L313 44 Z " />
<glyph glyph-name="nacute" unicode="&#x144;" horiz-adv-x="329" d="M223 700 Q231 700 234 692 Q237 684 230 679 L198 652 Q194 649 182 644.5 Q170 640 165 640 L164 640 Q157 640 154.5 645.5 Q152 651 156 656 L175 680 Q180 687 193.5 693.5 Q207 700 215 700 L223 700 Z M233 119 L234 212 L234 492 Q234 524 213.5 540 Q193 556 163 556 Q133 556 114 538.5 Q95 521 95 490 L95 31 Q95 18 86 9 Q77 0 65 0 Q52 0 43 9 Q34 18 34 31 L34 570 Q34 582 43 591 Q52 600 65 600 L75 600 Q83 600 89 594 Q95 588 95 580 L95 573 Q95 570 100 570 Q102 570 103 571 Q133 610 184 610 Q233 610 263.5 583 Q294 556 294 505 L294 31 Q294 18 285 9 Q276 0 264 0 L255 0 Q246 0 239.5 7 Q233 14 233 23 L233 119 Z " />
<glyph glyph-name="Ncaron" unicode="&#x147;" horiz-adv-x="353" d="M226 755 Q221 750 208.5 745 Q196 740 190 740 L167 740 Q161 740 148.5 745 Q136 750 131 755 L100 786 Q96 790 98 795 Q100 800 107 800 L110 800 Q115 800 126 796 Q137 792 140 790 L153 782 Q163 775 178 775 Q194 775 204 782 L216 790 Q219 792 230 796 Q241 800 246 800 L250 800 Q256 800 258.5 795 Q261 790 256 785 L226 755 Z M314 44 Q314 27 302 14.5 Q290 2 273 2 L272 2 Q255 2 240.5 13.5 Q226 25 222 42 L163 297 Q161 309 152 314.5 Q143 320 133 320 Q120 320 109.5 312.5 Q99 305 99 290 L99 29 Q99 18 90.5 9.5 Q82 1 71 1 Q60 1 51.5 9.5 Q43 18 43 29 L43 660 Q43 677 55.5 689 Q68 701 85 701 Q102 701 116.5 689.5 Q131 678 135 661 L194 404 Q197 393 205.5 387 Q214 381 225 381 Q237 381 247.5 389 Q258 397 258 412 L258 672 Q258 683 266.5 691.5 Q275 700 286 701 Q297 702 305.5 693.5 Q314 685 314 674 L314 44 Z " />
<glyph glyph-name="ncaron" unicode="&#x148;" horiz-adv-x="329" d="M211 655 Q206 650 193.5 645 Q181 640 175 640 L153 640 Q147 640 134.5 645 Q122 650 117 655 L86 686 Q82 690 84 695 Q86 700 92 700 L96 700 Q100 700 111 696.5 Q122 693 125 691 L138 682 Q148 675 164 675 Q180 675 190 682 L203 691 Q206 693 217 696.5 Q228 700 232 700 L236 700 Q242 700 244 695 Q246 690 242 686 L211 655 Z M233 119 L234 212 L234 492 Q234 524 213.5 540 Q193 556 163 556 Q133 556 114 538.5 Q95 521 95 490 L95 31 Q95 18 86 9 Q77 0 65 0 Q52 0 43 9 Q34 18 34 31 L34 570 Q34 582 43 591 Q52 600 65 600 L75 600 Q83 600 89 594 Q95 588 95 580 L95 573 Q95 570 100 570 Q102 570 103 571 Q133 610 184 610 Q233 610 263.5 583 Q294 556 294 505 L294 31 Q294 18 285 9 Q276 0 264 0 L255 0 Q246 0 239.5 7 Q233 14 233 23 L233 119 Z " />
<glyph glyph-name="Omacron" unicode="&#x14c;" horiz-adv-x="340" d="M274 783 Q282 783 288 777 Q294 771 294 763 Q294 755 288 749 Q282 743 274 743 L65 743 Q57 743 51 749 Q45 755 45 763 Q45 771 51 777 Q57 783 65 783 L274 783 Z M236 613 Q236 625 229.5 633 Q223 641 213 645.5 Q203 650 191.5 652 Q180 654 170 654 Q160 654 148.5 652 Q137 650 127 645.5 Q117 641 110 633 Q103 625 103 613 L103 87 Q103 75 110 67 Q117 59 127 54.5 Q137 50 148.5 48 Q160 46 170 46 Q180 46 191.5 48 Q203 50 213 54.5 Q223 59 229.5 67 Q236 75 236 87 L236 613 Z M300 98 Q300 70 289 50 Q278 30 260 16.5 Q242 3 218.5 -3.5 Q195 -10 170 -10 Q145 -10 121.5 -3.5 Q98 3 79.5 16.5 Q61 30 50 50 Q39 70 39 98 L39 602 Q39 630 50 650.5 Q61 671 79 684 Q97 697 121 703.5 Q145 710 170 710 Q196 710 219.5 703.5 Q243 697 261 684 Q279 671 289.5 650.5 Q300 630 300 602 L300 98 Z " />
<glyph glyph-name="omacron" unicode="&#x14d;" horiz-adv-x="330" d="M270 683 Q278 683 284 677 Q290 671 290 663 Q290 655 284 649 Q278 643 270 643 L60 643 Q52 643 46 649 Q40 655 40 663 Q40 671 46 677 Q52 683 60 683 L270 683 Z M235 510 Q235 524 228 533 Q221 542 210.5 547 Q200 552 188 554.5 Q176 557 165 557 Q154 557 141.5 554.5 Q129 552 118.5 547 Q108 542 101 533 Q94 524 94 510 L94 90 Q94 77 101 67.5 Q108 58 118.5 53 Q129 48 141.5 45.5 Q154 43 165 43 Q176 43 188 45.5 Q200 48 210.5 53 Q221 58 228 67.5 Q235 77 235 90 L235 510 Z M295 101 Q295 73 284.5 52 Q274 31 256 17 Q238 3 214.5 -3.5 Q191 -10 165 -10 Q139 -10 115.5 -3 Q92 4 74 17.5 Q56 31 45.5 52 Q35 73 35 101 L35 499 Q35 527 45.5 548 Q56 569 74 582.5 Q92 596 115.5 603 Q139 610 165 610 Q191 610 214.5 603.5 Q238 597 256 583 Q274 569 284.5 548.5 Q295 528 295 499 L295 101 Z " />
<glyph glyph-name="Obreve" unicode="&#x14e;" horiz-adv-x="340" d="M112 797 Q113 786 125 781 Q138 774 170 774 Q197 774 207 781 Q215 785 217 796 Q219 804 227 804 L240 804 Q248 804 252.5 799 Q257 794 255 786 Q252 764 238 755 Q219 740 170 740 Q157 740 141 741 Q125 742 111 747 Q97 752 86.5 761.5 Q76 771 74 787 Q72 795 76.5 799.5 Q81 804 90 804 L103 804 Q110 804 112 797 Z M236 613 Q236 625 229.5 633 Q223 641 213 645.5 Q203 650 191.5 652 Q180 654 170 654 Q160 654 148.5 652 Q137 650 127 645.5 Q117 641 110 633 Q103 625 103 613 L103 87 Q103 75 110 67 Q117 59 127 54.5 Q137 50 148.5 48 Q160 46 170 46 Q180 46 191.5 48 Q203 50 213 54.5 Q223 59 229.5 67 Q236 75 236 87 L236 613 Z M300 98 Q300 70 289 50 Q278 30 260 16.5 Q242 3 218.5 -3.5 Q195 -10 170 -10 Q145 -10 121.5 -3.5 Q98 3 79.5 16.5 Q61 30 50 50 Q39 70 39 98 L39 602 Q39 630 50 650.5 Q61 671 79 684 Q97 697 121 703.5 Q145 710 170 710 Q196 710 219.5 703.5 Q243 697 261 684 Q279 671 289.5 650.5 Q300 630 300 602 L300 98 Z " />
<glyph glyph-name="obreve" unicode="&#x14f;" horiz-adv-x="330" d="M108 697 Q109 686 120 681 Q133 674 165 674 Q192 674 202 681 Q210 685 212 696 Q214 704 222 704 L236 704 Q244 704 248.5 699 Q253 694 251 686 Q248 664 233 655 Q214 640 165 640 Q152 640 136 641 Q120 642 106 647 Q92 652 81.5 661.5 Q71 671 69 687 Q67 695 71.5 699.5 Q76 704 85 704 L99 704 Q106 704 108 697 Z M235 510 Q235 524 228 533 Q221 542 210.5 547 Q200 552 188 554.5 Q176 557 165 557 Q154 557 141.5 554.5 Q129 552 118.5 547 Q108 542 101 533 Q94 524 94 510 L94 90 Q94 77 101 67.5 Q108 58 118.5 53 Q129 48 141.5 45.5 Q154 43 165 43 Q176 43 188 45.5 Q200 48 210.5 53 Q221 58 228 67.5 Q235 77 235 90 L235 510 Z M295 101 Q295 73 284.5 52 Q274 31 256 17 Q238 3 214.5 -3.5 Q191 -10 165 -10 Q139 -10 115.5 -3 Q92 4 74 17.5 Q56 31 45.5 52 Q35 73 35 101 L35 499 Q35 527 45.5 548 Q56 569 74 582.5 Q92 596 115.5 603 Q139 610 165 610 Q191 610 214.5 603.5 Q238 597 256 583 Q274 569 284.5 548.5 Q295 528 295 499 L295 101 Z " />
<glyph glyph-name="Racute" unicode="&#x154;" horiz-adv-x="351" d="M235 800 Q243 800 246 792.5 Q249 785 242 779 L209 752 Q205 749 193 744.5 Q181 740 176 740 Q169 740 166.5 745 Q164 750 168 755 L187 780 Q192 787 205.5 793.5 Q219 800 227 800 L235 800 Z M247 269 Q247 282 240.5 290.5 Q234 299 224 304 Q214 309 202.5 311 Q191 313 181 313 L143 313 Q126 313 115 302 Q104 291 104 275 L104 32 Q104 18 95 9 Q86 0 72 0 Q58 0 49 9 Q40 18 40 32 L40 649 Q40 670 55 685 Q70 700 91 700 L181 700 Q206 700 229.5 694 Q253 688 271 675.5 Q289 663 300 643.5 Q311 624 311 596 L311 460 Q311 402 284 364 Q280 359 281 348.5 Q282 338 287 333 Q311 309 311 272 L311 32 Q311 18 302 9 Q293 0 279 0 Q265 0 256 9 Q247 18 247 32 L247 269 Z M181 369 Q199 369 212 377.5 Q225 386 232.5 399 Q240 412 243.5 428.5 Q247 445 247 460 L247 593 Q247 621 226 632.5 Q205 644 181 644 L143 644 Q126 644 115 633 Q104 622 104 606 L104 408 Q104 391 115 380 Q126 369 143 369 L181 369 Z " />
<glyph glyph-name="racute" unicode="&#x155;" horiz-adv-x="295" d="M219 700 Q227 700 230 692.5 Q233 685 226 679 L193 652 Q189 649 177 644.5 Q165 640 160 640 Q153 640 150.5 645 Q148 650 152 655 L171 680 Q176 687 189.5 693.5 Q203 700 211 700 L219 700 Z M226 492 Q226 522 207.5 539 Q189 556 160 556 Q131 556 113.5 537.5 Q96 519 96 490 L96 31 Q96 18 87 9 Q78 0 66 0 Q53 0 44 9 Q35 18 35 31 L35 570 Q35 582 44 591 Q53 600 66 600 L77 600 Q85 600 90.5 594.5 Q96 589 96 581 L96 575 Q96 572 100 572 Q102 572 104 574 Q109 582 115.5 587.5 Q122 593 130 598 Q151 610 179 610 Q228 610 256.5 582 Q285 554 285 505 L285 439 Q285 427 276 418 Q267 409 255 409 L241 409 Q234 409 229.5 413.5 Q225 418 226 425 L226 492 Z " />
<glyph glyph-name="Rcaron" unicode="&#x158;" horiz-adv-x="351" d="M224 755 Q219 750 206.5 745 Q194 740 188 740 L165 740 Q159 740 146.5 745 Q134 750 129 755 L98 786 Q94 790 96 795 Q98 800 105 800 L108 800 Q113 800 124 796 Q135 792 138 790 L151 782 Q161 775 176 775 Q192 775 202 782 L214 790 Q217 792 228 796 Q239 800 244 800 L248 800 Q254 800 256.5 795 Q259 790 254 785 L224 755 Z M248 269 Q248 282 241.5 290.5 Q235 299 225 304 Q215 309 203.5 311 Q192 313 182 313 L144 313 Q127 313 116 302 Q105 291 105 275 L105 32 Q105 18 96 9 Q87 0 73 0 Q59 0 50 9 Q41 18 41 32 L41 649 Q41 670 56 685 Q71 700 92 700 L182 700 Q207 700 230.5 694 Q254 688 272 675.5 Q290 663 301 643.5 Q312 624 312 596 L312 460 Q312 402 285 364 Q281 359 282 348.5 Q283 338 288 333 Q312 309 312 272 L312 32 Q312 18 303 9 Q294 0 280 0 Q266 0 257 9 Q248 18 248 32 L248 269 Z M182 369 Q200 369 213 377.5 Q226 386 233.5 399 Q241 412 244.5 428.5 Q248 445 248 460 L248 593 Q248 621 227 632.5 Q206 644 182 644 L144 644 Q127 644 116 633 Q105 622 105 606 L105 408 Q105 391 116 380 Q127 369 144 369 L182 369 Z " />
<glyph glyph-name="rcaron" unicode="&#x159;" horiz-adv-x="295" d="M208 655 Q203 650 190.5 645 Q178 640 172 640 L149 640 Q143 640 130.5 645 Q118 650 113 655 L82 686 Q78 690 80 695 Q82 700 89 700 L92 700 Q97 700 108 696 Q119 692 122 690 L135 682 Q145 675 160 675 Q176 675 186 682 L198 690 Q201 692 212 696 Q223 700 228 700 L232 700 Q238 700 240.5 695 Q243 690 238 685 L208 655 Z M227 492 Q227 522 208.5 539 Q190 556 161 556 Q132 556 114.5 537.5 Q97 519 97 490 L97 31 Q97 18 88 9 Q79 0 67 0 Q54 0 45 9 Q36 18 36 31 L36 570 Q36 582 45 591 Q54 600 67 600 L78 600 Q86 600 91.5 594.5 Q97 589 97 581 L97 575 Q97 572 101 572 Q103 572 105 574 Q110 582 116.5 587.5 Q123 593 131 598 Q152 610 180 610 Q229 610 257.5 582 Q286 554 286 505 L286 439 Q286 427 277 418 Q268 409 256 409 L242 409 Q235 409 230.5 413.5 Q226 418 227 425 L227 492 Z " />
<glyph glyph-name="Sacute" unicode="&#x15a;" horiz-adv-x="309" d="M213 800 Q221 800 224 792 Q227 784 220 779 L188 752 Q184 749 172 744.5 Q160 740 155 740 L154 740 Q147 740 144.5 745.5 Q142 751 146 756 L165 780 Q170 787 183.5 793.5 Q197 800 205 800 L213 800 Z M88 89 Q88 69 106 58 Q124 46 154 46 Q180 46 199.5 60.5 Q219 75 219 103 Q219 133 211 164 Q203 195 189.5 224.5 Q176 254 159.5 281.5 Q143 309 126 333 Q25 473 25 588 Q25 646 61.5 678 Q98 710 155 710 Q178 710 201 704.5 Q224 699 242.5 687.5 Q261 676 272.5 657 Q284 638 284 611 L284 592 Q284 584 278.5 578.5 Q273 573 265 573 L239 573 Q231 573 225.5 578.5 Q220 584 220 592 L220 611 Q220 631 202 643 Q183 654 155 654 Q129 654 108.5 641 Q88 628 88 599 Q88 505 182 375 Q202 348 220 317 Q238 286 252 252 Q266 218 274.5 183.5 Q283 149 283 114 Q283 56 247 23 Q211 -10 154 -10 Q131 -10 107.5 -4.5 Q84 1 65.5 12.5 Q47 24 35.5 43 Q24 62 24 89 L24 111 Q24 120 30.5 126.5 Q37 133 46 133 L66 133 Q75 133 81.5 126.5 Q88 120 88 111 L88 89 Z " />
<glyph glyph-name="sacute" unicode="&#x15b;" horiz-adv-x="297" d="M208 700 Q216 700 219 692 Q222 684 215 679 L183 652 Q179 649 167 644.5 Q155 640 150 640 L149 640 Q142 640 139.5 645.5 Q137 651 141 656 L160 680 Q165 687 178.5 693.5 Q192 700 200 700 L208 700 Z M80 93 Q80 80 86.5 70.5 Q93 61 102.5 55 Q112 49 124 46 Q136 43 148 43 Q178 43 197.5 60.5 Q217 78 217 109 Q217 132 208.5 155 Q200 178 186.5 200 Q173 222 157 242 Q141 262 126 277 Q20 387 20 485 Q20 543 56 576.5 Q92 610 149 610 Q173 610 196.5 604 Q220 598 238 585 Q256 572 267 553 Q278 534 278 507 L278 445 Q278 432 269 423 Q260 414 248 414 Q235 414 226 423 Q217 432 217 445 L217 507 Q217 521 211 530.5 Q205 540 195 546 Q185 552 173 554.5 Q161 557 149 557 Q120 557 100.5 540.5 Q81 524 81 494 Q81 418 171 323 Q189 304 208 280 Q227 256 242.5 230 Q258 204 267.5 176 Q277 148 277 120 Q277 61 242 25.5 Q207 -10 148 -10 Q124 -10 100.5 -4 Q77 2 59 15 Q41 28 30 47 Q19 66 19 93 L19 165 Q19 177 28 186 Q37 195 50 195 Q62 195 71 186 Q80 177 80 165 L80 93 Z " />
<glyph glyph-name="Scircumflex" unicode="&#x15c;" horiz-adv-x="309" d="M88 89 Q88 69 106 58 Q124 46 154 46 Q180 46 199.5 60.5 Q219 75 219 103 Q219 133 211 164 Q203 195 189.5 224.5 Q176 254 159.5 281.5 Q143 309 126 333 Q25 473 25 588 Q25 646 61.5 678 Q98 710 155 710 Q178 710 201 704.5 Q224 699 242.5 687.5 Q261 676 272.5 657 Q284 638 284 611 L284 592 Q284 584 278.5 578.5 Q273 573 265 573 L239 573 Q231 573 225.5 578.5 Q220 584 220 592 L220 611 Q220 631 202 643 Q183 654 155 654 Q129 654 108.5 641 Q88 628 88 599 Q88 505 182 375 Q202 348 220 317 Q238 286 252 252 Q266 218 274.5 183.5 Q283 149 283 114 Q283 56 247 23 Q211 -10 154 -10 Q131 -10 107.5 -4.5 Q84 1 65.5 12.5 Q47 24 35.5 43 Q24 62 24 89 L24 111 Q24 120 30.5 126.5 Q37 133 46 133 L66 133 Q75 133 81.5 126.5 Q88 120 88 111 L88 89 Z M232 754 Q236 750 234 745 Q232 740 226 740 L222 740 Q218 740 207 743.5 Q196 747 193 749 L180 759 Q170 766 154 766 Q138 766 128 759 L115 749 Q112 747 101 743.5 Q90 740 86 740 L82 740 Q76 740 74 745 Q72 750 76 754 L107 785 Q112 790 124.5 795 Q137 800 143 800 L165 800 Q171 800 183.5 795 Q196 790 201 785 L232 754 Z " />
<glyph glyph-name="scircumflex" unicode="&#x15d;" horiz-adv-x="297" d="M80 93 Q80 80 86.5 70.5 Q93 61 102.5 55 Q112 49 124 46 Q136 43 148 43 Q178 43 197.5 60.5 Q217 78 217 109 Q217 132 208.5 155 Q200 178 186.5 200 Q173 222 157 242 Q141 262 126 277 Q20 387 20 485 Q20 543 56 576.5 Q92 610 149 610 Q173 610 196.5 604 Q220 598 238 585 Q256 572 267 553 Q278 534 278 507 L278 445 Q278 432 269 423 Q260 414 248 414 Q235 414 226 423 Q217 432 217 445 L217 507 Q217 521 211 530.5 Q205 540 195 546 Q185 552 173 554.5 Q161 557 149 557 Q120 557 100.5 540.5 Q81 524 81 494 Q81 418 171 323 Q189 304 208 280 Q227 256 242.5 230 Q258 204 267.5 176 Q277 148 277 120 Q277 61 242 25.5 Q207 -10 148 -10 Q124 -10 100.5 -4 Q77 2 59 15 Q41 28 30 47 Q19 66 19 93 L19 165 Q19 177 28 186 Q37 195 50 195 Q62 195 71 186 Q80 177 80 165 L80 93 Z M227 654 Q231 650 229 645 Q227 640 221 640 L217 640 Q213 640 202 643.5 Q191 647 188 649 L175 659 Q165 666 149 666 Q133 666 123 659 L110 649 Q107 647 96 643.5 Q85 640 81 640 L77 640 Q71 640 69 645 Q67 650 71 654 L102 685 Q107 690 119.5 695 Q132 700 138 700 L160 700 Q166 700 178.5 695 Q191 690 196 685 L227 654 Z " />
<glyph glyph-name="Scedilla" unicode="&#x15e;" horiz-adv-x="309" d="M86 88 Q86 68 104 57 Q122 45 152 45 Q178 45 197.5 59.5 Q217 74 217 102 Q217 132 209 163 Q201 194 187.5 223.5 Q174 253 157.5 280.5 Q141 308 124 332 Q23 472 23 587 Q23 645 59.5 677 Q96 709 153 709 Q176 709 199 703.5 Q222 698 240.5 686.5 Q259 675 270.5 656 Q282 637 282 610 L282 591 Q282 583 276.5 577.5 Q271 572 263 572 L237 572 Q229 572 223.5 577.5 Q218 583 218 591 L218 610 Q218 630 200 642 Q181 653 153 653 Q127 653 106.5 640 Q86 627 86 598 Q86 504 180 374 Q200 347 218 316 Q236 285 250 251 Q264 217 272.5 182.5 Q281 148 281 113 Q281 62 252.5 29 Q224 -4 173 -10 Q171 -11 166.5 -13.5 Q162 -16 160 -18 L158 -20 Q157 -21 157.5 -22.5 Q158 -24 160 -23 L163 -23 L168 -22 L176 -22 Q190 -22 206.5 -27.5 Q223 -33 223 -52 L223 -59 Q223 -69 217 -75 Q211 -81 202 -84 Q193 -87 183 -88 Q173 -89 166 -89 Q153 -89 132.5 -84 Q112 -79 105 -66 Q102 -58 112 -58 L134 -58 Q134 -62 142 -65 L145 -66 L148 -66 L161 -67 L173 -67 L182 -66 Q183 -66 185.5 -66 Q188 -66 188 -65 Q194 -64 194 -59 Q194 -49 189 -46 Q185 -43 170 -43 L165 -43 L155 -44 Q154 -44 150.5 -44.5 Q147 -45 146 -46 L143 -46 Q142 -47 136.5 -47.5 Q131 -48 130 -48 L124 -48 Q119 -48 117.5 -44.5 Q116 -41 118 -37 L124 -29 Q128 -22 125 -15 Q122 -8 114 -6 Q76 2 50 24.5 Q24 47 24 89 L24 111 Q24 120 30.5 126.5 Q37 133 46 133 L64 132 Q73 132 79.5 125.5 Q86 119 86 110 L86 88 Z " />
<glyph glyph-name="scedilla" unicode="&#x15f;" horiz-adv-x="297" d="M78 92 Q78 79 84.5 69.5 Q91 60 100.5 54 Q110 48 122 45 Q134 42 146 42 Q176 42 195.5 59.5 Q215 77 215 108 Q215 131 206.5 154 Q198 177 184.5 199 Q171 221 155 241 Q139 261 124 276 Q18 386 18 484 Q18 542 54 575.5 Q90 609 147 609 Q171 609 194.5 603 Q218 597 236 584 Q254 571 265 552 Q276 533 276 506 L276 444 Q276 431 267 422 Q258 413 246 413 Q233 413 224 422 Q215 431 215 444 L215 506 Q215 520 209 529.5 Q203 539 193 545 Q183 551 171 553.5 Q159 556 147 556 Q118 556 98.5 539.5 Q79 523 79 493 Q79 417 169 322 Q187 303 206 279 Q225 255 240.5 229 Q256 203 265.5 175 Q275 147 275 119 Q275 67 247.5 32 Q220 -3 167 -10 Q165 -11 160.5 -13.5 Q156 -16 154 -18 L152 -21 Q151 -22 151.5 -23.5 Q152 -25 154 -24 L157 -24 L162 -23 L170 -23 Q184 -23 200.5 -28.5 Q217 -34 217 -53 L217 -60 Q217 -70 211 -76 Q205 -82 196 -85 Q187 -88 177 -89 Q167 -90 160 -90 Q147 -90 126.5 -85 Q106 -80 99 -67 Q96 -59 106 -59 L128 -59 Q128 -63 136 -66 L139 -67 L142 -67 L155 -68 L167 -68 L176 -67 Q177 -67 179.5 -67 Q182 -67 182 -66 Q188 -65 188 -60 Q188 -50 183 -47 Q179 -44 164 -44 L159 -44 L149 -45 Q148 -45 144.5 -45.5 Q141 -46 140 -47 L137 -47 Q136 -48 130.5 -48.5 Q125 -49 124 -49 L118 -49 Q113 -49 111.5 -45.5 Q110 -42 112 -38 L118 -29 Q122 -22 119.5 -15 Q117 -8 109 -6 Q70 3 44.5 26 Q19 49 19 93 L19 165 Q19 178 27.5 186.5 Q36 195 49 195 Q61 194 69.5 185.5 Q78 177 78 164 L78 92 Z " />
<glyph glyph-name="Scaron" unicode="&#x160;" horiz-adv-x="309" d="M201 755 Q196 750 183.5 745 Q171 740 165 740 L143 740 Q137 740 124.5 745 Q112 750 107 755 L76 786 Q72 790 74 795 Q76 800 82 800 L86 800 Q90 800 101 796.5 Q112 793 115 791 L128 782 Q138 775 154 775 Q170 775 180 782 L193 791 Q196 793 207 796.5 Q218 800 222 800 L226 800 Q232 800 234 795 Q236 790 232 786 L201 755 Z M88 89 Q88 69 106 58 Q124 46 154 46 Q180 46 199.5 60.5 Q219 75 219 103 Q219 133 211 164 Q203 195 189.5 224.5 Q176 254 159.5 281.5 Q143 309 126 333 Q25 473 25 588 Q25 646 61.5 678 Q98 710 155 710 Q178 710 201 704.5 Q224 699 242.5 687.5 Q261 676 272.5 657 Q284 638 284 611 L284 592 Q284 584 278.5 578.5 Q273 573 265 573 L239 573 Q231 573 225.5 578.5 Q220 584 220 592 L220 611 Q220 631 202 643 Q183 654 155 654 Q129 654 108.5 641 Q88 628 88 599 Q88 505 182 375 Q202 348 220 317 Q238 286 252 252 Q266 218 274.5 183.5 Q283 149 283 114 Q283 56 247 23 Q211 -10 154 -10 Q131 -10 107.5 -4.5 Q84 1 65.5 12.5 Q47 24 35.5 43 Q24 62 24 89 L24 111 Q24 120 30.5 126.5 Q37 133 46 133 L66 133 Q75 133 81.5 126.5 Q88 120 88 111 L88 89 Z " />
<glyph glyph-name="scaron" unicode="&#x161;" horiz-adv-x="297" d="M196 655 Q191 650 178.5 645 Q166 640 160 640 L138 640 Q132 640 119.5 645 Q107 650 102 655 L71 686 Q67 690 69 695 Q71 700 77 700 L81 700 Q85 700 96 696.5 Q107 693 110 691 L123 682 Q133 675 149 675 Q165 675 175 682 L188 691 Q191 693 202 696.5 Q213 700 217 700 L221 700 Q227 700 229 695 Q231 690 227 686 L196 655 Z M80 93 Q80 80 86.5 70.5 Q93 61 102.5 55 Q112 49 124 46 Q136 43 148 43 Q178 43 197.5 60.5 Q217 78 217 109 Q217 132 208.5 155 Q200 178 186.5 200 Q173 222 157 242 Q141 262 126 277 Q20 387 20 485 Q20 543 56 576.5 Q92 610 149 610 Q173 610 196.5 604 Q220 598 238 585 Q256 572 267 553 Q278 534 278 507 L278 445 Q278 432 269 423 Q260 414 248 414 Q235 414 226 423 Q217 432 217 445 L217 507 Q217 521 211 530.5 Q205 540 195 546 Q185 552 173 554.5 Q161 557 149 557 Q120 557 100.5 540.5 Q81 524 81 494 Q81 418 171 323 Q189 304 208 280 Q227 256 242.5 230 Q258 204 267.5 176 Q277 148 277 120 Q277 61 242 25.5 Q207 -10 148 -10 Q124 -10 100.5 -4 Q77 2 59 15 Q41 28 30 47 Q19 66 19 93 L19 165 Q19 177 28 186 Q37 195 50 195 Q62 195 71 186 Q80 177 80 165 L80 93 Z " />
<glyph glyph-name="Tcaron" unicode="&#x164;" horiz-adv-x="299" d="M198 753 Q193 749 181 744.5 Q169 740 163 740 L138 740 Q132 740 120 744.5 Q108 749 103 753 L73 780 Q69 784 71 789 Q73 794 79 794 L84 794 Q87 794 98 791 Q109 788 112 786 L125 778 Q136 771 150 771 Q166 771 176 778 L188 786 Q191 788 202 791 Q213 794 216 794 L222 794 Q228 794 230 789 Q232 784 227 780 L198 753 Z M34 644 Q23 644 14.5 652.5 Q6 661 6 672 Q6 683 14.5 691.5 Q23 700 34 700 L267 700 Q278 700 286.5 691.5 Q295 683 295 672 Q295 661 286.5 652.5 Q278 644 267 644 L234 644 Q213 644 198 629 Q183 614 183 593 L183 33 Q183 19 173.5 9.5 Q164 0 151 0 Q137 0 127.5 9.5 Q118 19 118 33 L118 593 Q118 614 103 629 Q88 644 67 644 L34 644 Z " />
<glyph glyph-name="tcaron" unicode="&#x165;" horiz-adv-x="338" d="M185 723 Q187 734 197.5 742 Q208 750 219 750 Q230 750 235 742 Q240 734 235 725 L209 667 Q206 662 199 657.5 Q192 653 187 653 Q180 653 176 657.5 Q172 662 174 668 L185 723 Z M328 100 Q328 73 318 52 Q308 31 291 17.5 Q274 4 251.5 -3 Q229 -10 203 -10 Q178 -10 155 -3 Q132 4 115 17.5 Q98 31 88 51.5 Q78 72 78 99 L78 508 Q78 523 67.5 533.5 Q57 544 42 544 L33 544 Q22 544 13.5 552.5 Q5 561 5 572 Q5 583 13.5 591.5 Q22 600 33 600 L58 600 Q66 600 72 606 Q78 612 78 620 L78 631 Q78 633 81 636.5 Q84 640 87 641 Q104 646 111.5 664.5 Q119 683 120 699 Q120 703 123 706.5 Q126 710 130 710 Q139 710 139 701 L139 651 Q139 630 154 615 Q169 600 190 600 L268 600 Q279 600 287.5 591.5 Q296 583 296 572 Q296 561 287.5 552.5 Q279 544 268 544 L190 544 Q169 544 154 529 Q139 514 139 493 L139 96 Q139 72 157 58 Q174 43 203 43 Q228 43 247.5 56 Q267 69 267 96 L267 185 Q267 197 276 206 Q285 215 298 215 Q310 215 319 206 Q328 197 328 185 L328 100 Z " />
<glyph glyph-name="Utilde" unicode="&#x168;" horiz-adv-x="340" d="M67 744 Q67 766 80 777.5 Q93 789 115 789 Q125 789 145 784 Q153 781 161.5 778 Q170 775 178 771 L182 769 L193 765 Q194 765 198.5 764 Q203 763 204 763 L215 761 Q222 761 227 761.5 Q232 762 237 767 Q242 772 242 781 Q242 789 249 789 L257 789 Q272 789 272 774 Q272 753 258.5 741 Q245 729 224 729 Q212 729 194 735 Q178 740 161 747 L157 749 L146 753 Q145 753 140.5 754 Q136 755 135 755 L124 757 L119 757 Q109 757 103 751 Q97 747 97 737 Q97 729 90 729 L82 729 Q67 729 67 744 Z M300 98 Q300 70 289 50 Q278 30 260 16.5 Q242 3 218.5 -3.5 Q195 -10 170 -10 Q145 -10 121.5 -3.5 Q98 3 79.5 16.5 Q61 30 50 50 Q39 70 39 98 L39 668 Q39 682 48 691 Q57 700 71 700 Q85 700 94 691 Q103 682 103 668 L103 87 Q103 75 110 67 Q117 59 127 54.5 Q137 50 148.5 48 Q160 46 170 46 Q180 46 191.5 48 Q203 50 213 54.5 Q223 59 229.5 67 Q236 75 236 87 L236 668 Q236 682 245 691 Q254 700 268 700 Q282 700 291 691 Q300 682 300 668 L300 98 Z " />
<glyph glyph-name="utilde" unicode="&#x169;" horiz-adv-x="330" d="M34 600 L65 600 Q77 600 86 591 Q95 582 95 570 L95 108 Q95 77 115 60 Q135 43 164 43 Q194 43 214 60 Q234 77 234 108 L234 570 Q234 582 243 591 Q252 600 265 600 Q277 600 286 591 Q295 582 295 570 L295 31 Q295 18 286 9 Q277 0 265 0 L261 0 Q250 0 242 8 Q234 16 234 27 L234 38 Q234 41 230 41 Q227 41 227 39 Q212 15 192 2.5 Q172 -10 143 -10 Q95 -10 65 18 Q35 46 35 95 L34 595 L34 600 Z M110 689 Q120 689 140 684 Q148 681 156.5 678 Q165 675 173 671 L177 669 L188 665 Q189 665 193.5 664 Q198 663 199 663 L210 661 Q217 661 222 661.5 Q227 662 232 667 Q237 672 237 681 Q237 689 244 689 L252 689 Q267 689 267 674 Q267 653 253.5 641 Q240 629 219 629 Q207 629 189 635 Q173 640 156 647 L152 649 L141 653 Q140 653 135.5 654 Q131 655 130 655 L119 657 L114 657 Q104 657 98 651 Q92 647 92 637 Q92 629 85 629 L77 629 Q62 629 62 644 Q62 666 75 677.5 Q88 689 110 689 Z " />
<glyph glyph-name="Umacron" unicode="&#x16a;" horiz-adv-x="340" d="M274 783 Q282 783 288 777 Q294 771 294 763 Q294 755 288 749 Q282 743 274 743 L65 743 Q57 743 51 749 Q45 755 45 763 Q45 771 51 777 Q57 783 65 783 L274 783 Z M300 98 Q300 70 289 50 Q278 30 260 16.5 Q242 3 218.5 -3.5 Q195 -10 170 -10 Q145 -10 121.5 -3.5 Q98 3 79.5 16.5 Q61 30 50 50 Q39 70 39 98 L39 668 Q39 682 48 691 Q57 700 71 700 Q85 700 94 691 Q103 682 103 668 L103 87 Q103 75 110 67 Q117 59 127 54.5 Q137 50 148.5 48 Q160 46 170 46 Q180 46 191.5 48 Q203 50 213 54.5 Q223 59 229.5 67 Q236 75 236 87 L236 668 Q236 682 245 691 Q254 700 268 700 Q282 700 291 691 Q300 682 300 668 L300 98 Z " />
<glyph glyph-name="umacron" unicode="&#x16b;" horiz-adv-x="330" d="M34 600 L65 600 Q77 600 86 591 Q95 582 95 570 L95 108 Q95 77 115 60 Q135 43 164 43 Q194 43 214 60 Q234 77 234 108 L234 570 Q234 582 243 591 Q252 600 265 600 Q277 600 286 591 Q295 582 295 570 L295 31 Q295 18 286 9 Q277 0 265 0 L261 0 Q250 0 242 8 Q234 16 234 27 L234 38 Q234 41 230 41 Q227 41 227 39 Q212 15 192 2.5 Q172 -10 143 -10 Q95 -10 65 18 Q35 46 35 95 L34 595 L34 600 Z M269 683 Q277 683 283 677 Q289 671 289 663 Q289 655 283 649 Q277 643 269 643 L60 643 Q52 643 46 649 Q40 655 40 663 Q40 671 46 677 Q52 683 60 683 L269 683 Z " />
<glyph glyph-name="Uring" unicode="&#x16e;" horiz-adv-x="340" d="M165 789 Q162 788 158 786 Q157 786 156.5 784.5 Q156 783 155 782 L154 780 Q152 776 154 771 Q155 769 157.5 767 Q160 765 162 765 L166 763 Q167 763 170.5 762.5 Q174 762 175 762 Q178 763 182 765 Q184 765 184 769 L185 771 Q187 776 185 780 Q182 785 177 787 L174 788 Q173 788 169.5 788.5 Q166 789 165 789 Z M123 775 Q123 792 138 801 Q154 809 170 809 Q186 809 202 801 Q216 792 216 775 Q216 757 201 749.5 Q186 742 170 742 Q155 742 139 749.5 Q123 757 123 775 Z M300 98 Q300 70 289 50 Q278 30 260 16.5 Q242 3 218.5 -3.5 Q195 -10 170 -10 Q145 -10 121.5 -3.5 Q98 3 79.5 16.5 Q61 30 50 50 Q39 70 39 98 L39 668 Q39 682 48 691 Q57 700 71 700 Q85 700 94 691 Q103 682 103 668 L103 87 Q103 75 110 67 Q117 59 127 54.5 Q137 50 148.5 48 Q160 46 170 46 Q180 46 191.5 48 Q203 50 213 54.5 Q223 59 229.5 67 Q236 75 236 87 L236 668 Q236 682 245 691 Q254 700 268 700 Q282 700 291 691 Q300 682 300 668 L300 98 Z " />
<glyph glyph-name="uring" unicode="&#x16f;" horiz-adv-x="330" d="M160 688 Q157 687 153 685 Q152 685 151.5 683.5 Q151 682 150 681 L149 679 Q147 675 149 670 Q150 668 152.5 666 Q155 664 157 664 L161 662 Q162 662 165.5 661.5 Q169 661 170 661 Q173 662 177 664 Q179 664 179 668 L180 670 Q182 675 180 679 Q177 684 172 686 L169 687 Q168 687 164.5 687.5 Q161 688 160 688 Z M118 674 Q118 691 133 700 Q149 708 165 708 Q181 708 197 700 Q211 691 211 674 Q211 656 196 648.5 Q181 641 165 641 Q150 641 134 648.5 Q118 656 118 674 Z M65 600 Q77 600 86 591 Q95 582 95 570 L95 108 Q95 77 115 60 Q135 43 164 43 Q194 43 214 60 Q234 77 234 108 L234 570 Q234 582 243 591 Q252 600 265 600 Q277 600 286 591 Q295 582 295 570 L295 31 Q295 18 286 9 Q277 0 265 0 L261 0 Q250 0 242 8 Q234 16 234 27 L234 38 Q234 41 230 41 Q227 41 227 39 Q212 15 192 2.5 Q172 -10 143 -10 Q95 -10 65 18 Q35 46 35 95 L34 568 Q34 580 43 590 Q52 600 65 600 Z " />
<glyph glyph-name="Uogonek" unicode="&#x172;" horiz-adv-x="340" d="M300 99 Q300 71 289 49 Q271 17 240.5 4.5 Q210 -8 176 -10 Q172 -10 167 -13 Q162 -16 160 -20 L156 -31 Q151 -43 150 -56 Q149 -69 153 -78 Q158 -87 169 -87 Q181 -87 186 -76 Q187 -74 190.5 -70.5 Q194 -67 197 -67 L212 -67 Q222 -67 220 -77 Q219 -88 210 -98 Q197 -109 170 -109 Q147 -109 132.5 -97.5 Q118 -86 118 -62 Q118 -53 123 -36.5 Q128 -20 133 -12 Q135 -6 129 -6 Q90 3 64.5 29.5 Q39 56 39 98 L39 668 Q39 682 48 691 Q57 700 71 700 Q85 700 94 691 Q103 682 103 668 L103 87 Q103 75 110 67 Q117 59 127 54.5 Q137 50 148.5 48 Q160 46 170 46 Q180 46 191.5 48 Q203 50 213 54.5 Q223 59 229.5 67 Q236 75 236 87 L236 668 Q236 682 245 691 Q254 700 268 701 Q282 701 291 692 Q300 683 300 669 L300 99 Z " />
<glyph glyph-name="uogonek" unicode="&#x173;" horiz-adv-x="330" d="M94 108 Q94 77 114 60 Q134 43 163 43 Q193 43 213 60 Q233 77 233 108 L233 570 Q233 582 242 591 Q251 600 264 600 Q276 600 285 591 Q294 582 294 570 L294 8 Q294 0 287 0 Q280 0 276 -7 L271 -21 Q266 -33 265 -46 Q264 -59 268 -68 Q273 -77 284 -77 Q296 -77 301 -66 Q302 -64 305.5 -60.5 Q309 -57 312 -57 L327 -57 Q337 -57 335 -67 Q334 -78 325 -88 Q312 -99 285 -99 Q262 -99 250 -90 Q239 -80 234 -66 Q230 -53 235 -34 Q237 -26 239.5 -19.5 Q242 -13 245 -6 Q249 0 242 0 Q234 0 234 8 L234 38 Q234 41 230 41 Q227 41 227 39 Q212 15 192 2.5 Q172 -10 143 -10 Q95 -10 65 18 Q35 46 35 95 L34 568 Q34 580 42.5 589 Q51 598 64 599 Q76 600 85 591 Q94 582 94 570 L94 108 Z " />
<glyph glyph-name="Wcircumflex" unicode="&#x174;" horiz-adv-x="470" d="M442 695 Q437 607 432 521 Q427 435 422 348 Q417 272 413 196.5 Q409 121 404 44 Q403 26 390 13 Q377 0 359 0 Q341 0 326.5 12.5 Q312 25 310 43 L276 298 Q274 315 261.5 323.5 Q249 332 235 332 Q221 332 209 324 Q197 316 195 299 L160 42 Q158 25 143.5 12.5 Q129 0 112 0 Q94 0 81 12.5 Q68 25 67 42 L29 695 L29 700 L59 700 Q72 700 81 691.5 Q90 683 90 670 L102 389 Q103 378 110.5 372.5 Q118 367 128 367 Q137 367 144.5 371.5 Q152 376 154 387 L188 658 Q190 675 204 687.5 Q218 700 236 700 Q253 700 267 687.5 Q281 675 283 658 L317 384 Q319 374 326 369 Q333 364 342 364 Q352 364 360 370 Q368 376 369 387 L380 670 Q380 682 389.5 691 Q399 700 412 700 L442 700 L442 695 Z M315 754 Q319 750 317 745 Q315 740 309 740 L304 740 Q300 740 289 743.5 Q278 747 275 749 L262 759 Q252 766 236 766 Q220 766 210 759 L197 749 Q194 747 183 743.5 Q172 740 168 740 L164 740 Q157 740 155 745 Q153 750 157 754 L188 785 Q193 790 205.5 795 Q218 800 224 800 L248 800 Q254 800 266.5 795 Q279 790 284 785 L315 754 Z " />
<glyph glyph-name="wcircumflex" unicode="&#x175;" horiz-adv-x="469" d="M439 595 Q434 520 429 446.5 Q424 373 419 298 Q414 234 410.5 171 Q407 108 402 45 Q400 28 387 14 Q374 0 357 0 Q340 0 325.5 12.5 Q311 25 309 42 L275 262 Q273 279 260.5 286.5 Q248 294 234 294 Q220 294 208 286.5 Q196 279 194 262 L159 42 Q157 25 142.5 12.5 Q128 0 111 0 Q94 0 81 12.5 Q68 25 66 42 L29 595 L29 600 L60 600 Q72 600 81.5 591 Q91 582 91 570 L102 330 Q103 319 111 313 Q119 307 129 307 Q139 307 146.5 311.5 Q154 316 156 327 L192 564 Q194 579 206.5 589.5 Q219 600 234 600 Q249 600 261.5 589.5 Q274 579 276 564 L312 327 Q314 316 321.5 311.5 Q329 307 339 307 Q349 307 357 313 Q365 319 366 330 L377 570 Q377 582 386.5 591 Q396 600 409 600 L439 600 L439 595 Z M312 654 Q316 650 314 645 Q312 640 306 640 L302 640 Q298 640 287 643.5 Q276 647 273 649 L260 659 Q250 666 234 666 Q218 666 208 659 L195 649 Q192 647 181 643.5 Q170 640 166 640 L162 640 Q156 640 154 645 Q152 650 156 654 L187 685 Q192 690 204.5 695 Q217 700 223 700 L245 700 Q251 700 263.5 695 Q276 690 281 685 L312 654 Z " />
<glyph glyph-name="Ycircumflex" unicode="&#x176;" horiz-adv-x="364" d="M259 754 Q263 750 261 745 Q259 740 253 740 L249 740 Q245 740 234 743.5 Q223 747 220 749 L207 759 Q197 766 181 766 Q165 766 155 759 L142 749 Q139 747 128 743.5 Q117 740 113 740 L109 740 Q103 740 101 745 Q99 750 103 754 L134 785 Q139 790 151.5 795 Q164 800 170 800 L192 800 Q198 800 210.5 795 Q223 790 228 785 L259 754 Z M43 666 Q39 679 46 688.5 Q53 698 67 698 Q81 698 93 688.5 Q105 679 109 665 L142 529 Q146 513 157.5 505.5 Q169 498 182 498 Q196 498 207 505.5 Q218 513 222 529 L253 666 Q256 680 268.5 689 Q281 698 295 698 Q309 697 316 688 Q323 679 320 666 Q307 623 295 580.5 Q283 538 271 496 Q257 447 243 398.5 Q229 350 215 301 Q215 300 214.5 295 Q214 290 214 289 L214 32 Q214 18 205 9 Q196 0 182 0 Q168 0 159 9 Q150 18 150 32 L150 289 Q150 290 149 296 Q148 302 148 303 L43 666 Z " />
<glyph glyph-name="ycircumflex" unicode="&#x177;" horiz-adv-x="330" d="M95 -1 Q95 -22 114 -35 Q134 -47 165 -47 Q177 -47 189 -44.5 Q201 -42 211.5 -36.5 Q222 -31 228.5 -21.5 Q235 -12 235 2 L235 97 Q235 100 231 100 Q229 100 228 99 Q222 90 215 82 Q208 74 199 69 Q177 53 144 53 Q98 53 66.5 79 Q35 105 35 153 L35 224 L34 295 L34 600 L65 600 Q77 600 86 591 Q95 582 95 570 L95 166 Q95 136 116 121 Q137 106 165 106 Q191 106 212 119 Q233 132 235 160 L235 301 L233 540 L233 570 Q233 583 241.5 591.5 Q250 600 263 600 L264 600 Q277 600 286 591 Q295 582 295 569 L295 11 Q295 -18 284.5 -38.5 Q274 -59 256 -73 Q238 -87 214.5 -93.5 Q191 -100 165 -100 Q140 -100 116 -93.5 Q92 -87 74 -73.5 Q56 -60 45 -39.5 Q34 -19 34 9 L34 18 Q34 27 43 27 L81 27 Q95 27 95 13 L95 -1 Z M176 700 Q182 700 194.5 695 Q207 690 212 685 L243 654 Q247 650 245 645 Q243 640 237 640 L233 640 Q229 640 218 643.5 Q207 647 204 649 L191 659 Q181 666 165 666 Q149 666 139 659 L126 649 Q123 647 112 643.5 Q101 640 97 640 L93 640 Q87 640 85 645 Q83 650 87 654 L118 685 Q123 690 135.5 695 Q148 700 154 700 L176 700 Z " />
<glyph glyph-name="Ydieresis" unicode="&#x178;" horiz-adv-x="364" d="M224 796 Q235 796 243.5 787.5 Q252 779 252 768 Q252 757 243.5 748.5 Q235 740 224 740 Q213 740 204.5 748.5 Q196 757 196 768 Q196 779 204.5 787.5 Q213 796 224 796 Z M138 796 Q149 796 157.5 787.5 Q166 779 166 768 Q166 757 157.5 748.5 Q149 740 138 740 Q127 740 118.5 748.5 Q110 757 110 768 Q110 779 118.5 787.5 Q127 796 138 796 Z M43 666 Q39 679 46 688.5 Q53 698 67 698 Q81 698 93 688.5 Q105 679 109 665 L142 529 Q146 513 157.5 505.5 Q169 498 182 498 Q196 498 207 505.5 Q218 513 222 529 L253 666 Q256 680 268.5 689 Q281 698 295 698 Q309 697 316 688 Q323 679 320 666 Q307 623 295 580.5 Q283 538 271 496 Q257 447 243 398.5 Q229 350 215 301 Q215 300 214.5 295 Q214 290 214 289 L214 32 Q214 18 205 9 Q196 0 182 0 Q168 0 159 9 Q150 18 150 32 L150 289 Q150 290 149 296 Q148 302 148 303 L43 666 Z " />
<glyph glyph-name="Zacute" unicode="&#x179;" horiz-adv-x="304" d="M16 32 Q16 33 17 39.5 Q18 46 18 48 Q42 122 65.5 195.5 Q89 269 113 342 Q132 401 151 458.5 Q170 516 189 576 Q197 602 183 623 Q169 644 141 644 L44 644 Q33 644 24.5 652.5 Q16 661 16 672 Q16 683 24.5 691.5 Q33 700 44 700 L259 700 Q268 700 274.5 693.5 Q281 687 281 678 L281 663 Q281 662 280 655.5 Q279 649 279 647 L110 123 Q101 97 115.5 76.5 Q130 56 158 56 L254 56 Q265 56 273.5 47.5 Q282 39 282 28 Q282 17 273.5 8.5 Q265 0 254 0 L36 0 Q28 0 22 6 Q16 12 16 20 L16 32 Z M163 776 Q168 782 181 788 Q194 794 202 794 L211 794 Q219 794 221.5 787 Q224 780 217 775 L185 750 Q181 748 170 744 Q159 740 154 740 L152 740 Q145 740 142.5 745 Q140 750 145 755 L163 776 Z " />
<glyph glyph-name="zacute" unicode="&#x17a;" horiz-adv-x="289" d="M8 29 Q8 31 9.5 38.5 Q11 46 12 48 L180 477 Q191 504 176 525.5 Q161 547 132 547 L35 547 Q24 547 16 555 Q8 563 8 574 Q8 585 16 592.5 Q24 600 35 600 L251 600 Q260 600 266.5 593.5 Q273 587 273 578 L273 566 Q273 564 271.5 556.5 Q270 549 269 547 L103 123 Q92 96 107 74.5 Q122 53 151 53 L248 53 Q259 53 266.5 45.5 Q274 38 274 27 Q274 16 266.5 8 Q259 0 248 0 L28 0 Q20 0 14 6 Q8 12 8 20 L8 29 Z M133 655 L152 680 Q157 687 170.5 693.5 Q184 700 192 700 L200 700 Q208 700 211 692.5 Q214 685 207 679 L174 652 Q170 649 158 644.5 Q146 640 141 640 Q134 640 131.5 645 Q129 650 133 655 Z " />
<glyph glyph-name="Zdotaccent" unicode="&#x17b;" horiz-adv-x="304" d="M16 32 Q16 33 17 39.5 Q18 46 18 48 Q42 122 65.5 195.5 Q89 269 113 342 Q132 401 151 458.5 Q170 516 189 576 Q197 602 183 623 Q169 644 141 644 L44 644 Q33 644 24.5 652.5 Q16 661 16 672 Q16 683 24.5 691.5 Q33 700 44 700 L259 700 Q268 700 274.5 693.5 Q281 687 281 678 L281 663 Q281 662 280 655.5 Q279 649 279 647 L110 123 Q101 97 115.5 76.5 Q130 56 158 56 L254 56 Q265 56 273.5 47.5 Q282 39 282 28 Q282 17 273.5 8.5 Q265 0 254 0 L36 0 Q28 0 22 6 Q16 12 16 20 L16 32 Z M184 761 Q184 747 175 738 Q166 729 152 729 L151 729 Q137 729 128 738 Q119 747 119 761 Q119 775 128 784 Q137 793 151 793 L152 793 Q166 793 175 784 Q184 775 184 761 Z " />
<glyph glyph-name="zdotaccent" unicode="&#x17c;" horiz-adv-x="289" d="M12 48 L180 477 Q191 504 176 525.5 Q161 547 132 547 L35 547 Q24 547 16 555 Q8 563 8 574 Q8 585 16 592.5 Q24 600 35 600 L251 600 Q260 600 266.5 593.5 Q273 587 273 578 L273 566 Q273 564 271.5 556.5 Q270 549 269 547 L103 123 Q92 96 107 74.5 Q122 53 151 53 L248 53 Q259 53 266.5 45.5 Q274 38 274 27 Q274 16 266.5 8 Q259 0 248 0 L28 0 Q20 0 14 6 Q8 12 8 20 L8 29 Q8 31 9.5 38.5 Q11 46 12 48 Z M108 661 Q108 675 117 684 Q126 693 140 693 L141 693 Q155 693 164 684 Q173 675 173 661 Q173 647 164 638 Q155 629 141 629 L140 629 Q126 629 117 638 Q108 647 108 661 Z " />
<glyph glyph-name="Zcaron" unicode="&#x17d;" horiz-adv-x="304" d="M17 32 Q17 33 18 39.5 Q19 46 19 48 Q43 122 66.5 195.5 Q90 269 114 342 Q133 401 152 458.5 Q171 516 190 576 Q198 602 184 623 Q170 644 142 644 L45 644 Q34 644 25.5 652.5 Q17 661 17 672 Q17 683 25.5 691.5 Q34 700 45 700 L260 700 Q269 700 275.5 693.5 Q282 687 282 678 L282 663 Q282 662 281 655.5 Q280 649 280 647 L111 123 Q102 97 116.5 76.5 Q131 56 159 56 L255 56 Q266 56 274.5 47.5 Q283 39 283 28 Q283 17 274.5 8.5 Q266 0 255 0 L37 0 Q29 0 23 6 Q17 12 17 20 L17 32 Z M101 794 Q104 794 115 791 Q126 788 129 786 L142 778 Q153 771 167 771 Q183 771 193 778 L205 786 Q208 788 219 791 Q230 794 233 794 L239 794 Q245 794 247 789 Q249 784 244 780 L215 753 Q210 749 198 744.5 Q186 740 180 740 L155 740 Q149 740 137 744.5 Q125 749 120 753 L90 780 Q86 784 88 789 Q90 794 96 794 L101 794 Z " />
<glyph glyph-name="zcaron" unicode="&#x17e;" horiz-adv-x="289" d="M9 20 L9 29 Q9 31 10.5 38.5 Q12 46 13 48 L181 477 Q192 504 177 525.5 Q162 547 133 547 L36 547 Q25 547 17 555 Q9 563 9 574 Q9 585 17 592.5 Q25 600 36 600 L252 600 Q261 600 267.5 593.5 Q274 587 274 578 L274 566 Q274 564 272.5 556.5 Q271 549 270 547 L104 123 Q93 96 108 74.5 Q123 53 152 53 L249 53 Q260 53 267.5 45.5 Q275 38 275 27 Q275 16 267.5 8 Q260 0 249 0 L29 0 Q21 0 15 6 Q9 12 9 20 Z M70 700 L73 700 Q78 700 89 696 Q100 692 103 690 L116 682 Q126 675 141 675 Q157 675 167 682 L179 690 Q182 692 193 696 Q204 700 209 700 L213 700 Q219 700 221.5 695 Q224 690 219 685 L189 655 Q184 650 171.5 645 Q159 640 153 640 L130 640 Q124 640 111.5 645 Q99 650 94 655 L63 686 Q59 690 61 695 Q63 700 70 700 Z " />
<glyph glyph-name="uni01EB" unicode="&#x1eb;" horiz-adv-x="292" d="M191 553 Q191 574 178 587 Q165 599 144 599 Q124 599 110 587 Q97 574 97 553 L97 87 Q97 66 110 54 Q123 41 144 41 Q165 41 178 54 Q191 66 191 87 L191 553 Z M265 -18 Q254 -13 244.5 -7.5 Q235 -2 227 5 Q223 8 213 8 Q207 8 203 6 Q178 -10 144 -10 Q96 -10 67.5 20 Q39 50 39 98 L39 542 Q39 590 67 620 Q95 650 144 650 Q194 650 221.5 620.5 Q249 591 249 542 L249 98 Q249 72 253.5 41 Q258 10 270 -13 Q273 -16 270 -18 Q265 -18 265 -18 Z " />
</font>
</svg>
