<?xml version="1.0" encoding="UTF-8"?>
<svg xmlns="http://www.w3.org/2000/svg" version="1.2">
<font id="Edingu Regular">
<font-face  font-family="Edingu" units-per-em="1024" ascent="750" descent="-140" font-style="normal" font-weight="400" font-stretch="normal" cap-height="810" x-height="375" underline-position="-125" underline-thickness="50" />
<missing-glyph  horiz-adv-x="100" d="" />
<glyph glyph-name="uni0000" d="" />
<glyph glyph-name="uni000D" unicode="&#xd;" horiz-adv-x="256" d="" />
<glyph glyph-name="space" unicode="&#x20;" horiz-adv-x="149" d="" />
<glyph glyph-name="exclam" unicode="&#x21;" horiz-adv-x="124" d="M27 67 L95 67 L95 0 L27 0 L27 67 Z M94 700 L94 464 L77 163 L46 163 L29 464 L29 700 L94 700 Z " />
<glyph glyph-name="quotedbl" unicode="&#x22;" horiz-adv-x="289" d="M209 700 L209 520 L175 520 L175 700 L209 700 Z M114 700 L114 520 L80 520 L80 700 L114 700 Z " />
<glyph glyph-name="numbersign" unicode="&#x23;" horiz-adv-x="375" d="M41 433 L41 468 L108 468 L135 700 L164 700 L137 468 L255 468 L282 700 L311 700 L284 468 L345 468 L345 433 L280 433 L259 250 L335 250 L335 216 L255 216 L230 0 L201 0 L226 216 L109 216 L84 0 L54 0 L79 216 L31 216 L31 250 L83 250 L104 433 L41 433 Z M113 250 L230 250 L251 433 L133 433 L113 250 Z " />
<glyph glyph-name="dollar" unicode="&#x24;" horiz-adv-x="312" d="M24 180 L79 180 L79 89 Q79 70 95 57.5 Q111 45 139 42 L139 326 L136 332 Q26 474 26 583 Q26 636 57 670 Q88 704 140 709 L140 740 L172 743 L172 712 Q225 708 256 679 Q287 650 287 604 L287 522 L232 522 L232 604 Q232 627 216 641.5 Q200 656 172 659 L172 375 L175 369 Q230 297 258 233 Q286 169 286 122 Q286 66 255 31 Q224 -4 171 -9 L171 -50 L139 -50 L139 -9 Q86 -5 55 21 Q24 47 24 89 L24 180 Z M140 422 L140 659 Q113 654 96.5 636.5 Q80 619 80 593 Q80 515 140 422 Z M172 283 L172 45 Q199 50 215 68 Q231 86 231 114 Q231 149 216 192 Q201 235 172 283 Z " />
<glyph glyph-name="percent" unicode="&#x25;" horiz-adv-x="426" d="M10 382 L10 646 Q10 671 30.5 686 Q51 701 84 701 Q118 701 138.5 686 Q159 671 159 646 L159 382 Q159 357 138.5 342 Q118 327 84 327 Q51 327 30.5 342 Q10 357 10 382 Z M348 370 Q382 370 402.5 355 Q423 340 423 315 L423 51 Q423 26 402.5 11 Q382 -4 348 -4 Q315 -4 294.5 11 Q274 26 274 51 L274 315 Q274 340 294.5 355 Q315 370 348 370 Z M385 702 L416 702 L41 2 L10 2 L385 702 Z M319 49 Q319 41 328 37.5 Q337 34 348 34 Q359 34 368.5 37.5 Q378 41 378 49 L378 316 Q378 324 369 327.5 Q360 331 349 331 Q338 331 328.5 327.5 Q319 324 319 316 L319 49 Z M114 380 L114 647 Q114 655 105 658.5 Q96 662 85 662 Q74 662 64.5 658.5 Q55 655 55 647 L55 380 Q55 372 64 368.5 Q73 365 84 365 Q95 365 104.5 368.5 Q114 372 114 380 Z " />
<glyph glyph-name="ampersand" unicode="&#x26;" horiz-adv-x="349" d="M111 344 Q94 316 85.5 283 Q77 250 77 203 Q77 167 80.5 138 Q84 109 92.5 88 Q101 67 115 55.5 Q129 44 151 44 Q199 44 225 103 Q198 158 168 221 Q138 284 112 345 L111 344 Z M147 393 Q169 345 194 292 Q219 239 245 188 Q252 230 255 282.5 Q258 335 258 396 L312 396 Q312 310 305 239.5 Q298 169 281 116 Q298 81 313.5 51.5 Q329 22 342 -1 L276 -1 Q270 10 263.5 22.5 Q257 35 249 49 Q209 -11 138 -11 Q103 -11 79.5 1 Q56 13 42 35.5 Q28 58 22.5 89.5 Q17 121 17 159 Q17 234 36 287 Q55 340 92 387 Q65 452 47.5 501 Q30 550 30 570 Q30 633 59 671 Q88 709 146 709 Q203 709 231 674 Q259 639 259 582 Q259 547 231.5 502 Q204 457 149 394 L147 393 Z M129 433 Q166 478 184.5 512 Q203 546 203 577 Q203 612 188 632.5 Q173 653 143 653 Q111 653 95.5 630.5 Q80 608 80 570 Q80 556 93.5 520 Q107 484 129 433 Z " />
<glyph glyph-name="quotesingle" unicode="&#x27;" horiz-adv-x="194" d="M114 700 L114 520 L80 520 L80 700 L114 700 Z " />
<glyph glyph-name="parenleft" unicode="&#x28;" horiz-adv-x="184" d="M183 700 Q161 661 142.5 619 Q124 577 111 530 Q98 483 91 429.5 Q84 376 84 314 Q84 252 91 198.5 Q98 145 111 97.5 Q124 50 142.5 8 Q161 -34 183 -73 L141 -73 Q119 -35 101.5 6 Q84 47 71.5 94.5 Q59 142 52 196 Q45 250 45 314 Q45 378 52 432 Q59 486 71.5 533 Q84 580 101.5 621 Q119 662 141 700 L183 700 Z " />
<glyph glyph-name="parenright" unicode="&#x29;" horiz-adv-x="184" d="M-2 -73 Q20 -34 38.5 8 Q57 50 70 97 Q83 144 90 197.5 Q97 251 97 313 Q97 375 90 429 Q83 483 70 530 Q57 577 38.5 619 Q20 661 -2 700 L40 700 Q62 662 79.5 621 Q97 580 109.5 532.5 Q122 485 129 431 Q136 377 136 313 Q136 249 129 195 Q122 141 109.5 94 Q97 47 79.5 6 Q62 -35 40 -73 L-2 -73 Z " />
<glyph glyph-name="asterisk" unicode="&#x2a;" horiz-adv-x="159" d="M64 642 Q54 656 42 667 Q36 674 30 680 L58 700 Q62 693 67 685 Q71 679 75 671.5 Q79 664 84 656 Q89 664 93.5 671.5 Q98 679 102 685 Q106 693 110 700 L138 680 Q132 674 126 667 Q121 662 115 655.5 Q109 649 104 642 Q112 640 121 638.5 Q130 637 137 635 Q146 633 154 631 L143 599 Q136 602 128 606 Q121 608 113.5 611.5 Q106 615 98 618 Q99 610 99.5 601.5 Q100 593 100 585 Q101 576 102 568 L67 568 Q68 576 69 585 Q70 593 70.5 601.5 Q71 610 71 618 Q63 615 55 611.5 Q47 608 40 606 Q32 602 24 599 L13 631 Q21 633 30 635 Q38 637 46.5 638.5 Q55 640 63 642 L64 642 Z " />
<glyph glyph-name="plus" unicode="&#x2b;" horiz-adv-x="290" d="M166 405 L166 321 L250 321 L250 279 L166 279 L166 195 L124 195 L124 279 L40 279 L40 321 L124 321 L124 405 L166 405 Z " />
<glyph glyph-name="comma" unicode="&#x2c;" horiz-adv-x="133" d="M107 90 L54 -70 L14 -70 L43 90 L107 90 Z " />
<glyph glyph-name="hyphen" unicode="&#x2d;" horiz-adv-x="238" d="M12 428 L226 428 L226 376 L12 376 L12 428 Z " />
<glyph glyph-name="period" unicode="&#x2e;" horiz-adv-x="221" d="M73 76 L148 76 L148 0 L73 0 L73 76 Z " />
<glyph glyph-name="slash" unicode="&#x2f;" horiz-adv-x="151" d="M110 700 L141 700 L41 -90 L10 -90 L110 700 Z " />
<glyph glyph-name="zero" unicode="0" horiz-adv-x="344" d="M240 606 Q240 628 221 641.5 Q202 655 171 655 Q141 655 122.5 642 Q104 629 104 607 L104 94 Q104 72 122.5 58.5 Q141 45 171 45 Q202 45 221 58.5 Q240 72 240 94 L240 606 Z M304 97 Q304 49 267.5 19.5 Q231 -10 171 -10 Q111 -10 75.5 19.5 Q40 49 40 97 L40 603 Q40 651 75.5 680.5 Q111 710 171 710 Q231 710 267.5 680.5 Q304 651 304 603 L304 97 Z " />
<glyph glyph-name="one" unicode="1" horiz-adv-x="227" d="M3 502 Q28 502 48 513 Q68 524 82.5 541.5 Q97 559 105 581 Q113 603 113 625 L113 700 L186 700 L186 0 L120 0 L120 542 Q100 522 71.5 508.5 Q43 495 8 495 L4 502 L3 502 Z " />
<glyph glyph-name="two" unicode="2" horiz-adv-x="323" d="M28 604 Q28 652 63.5 681 Q99 710 158 710 Q218 710 254 674.5 Q290 639 290 581 Q290 522 261.5 462 Q233 402 186 330 Q144 265 118 212.5 Q92 160 92 114 L92 56 L298 56 L298 0 L28 0 L28 114 Q28 174 56 234 Q84 294 131 365 Q173 430 199 484.5 Q225 539 225 592 Q225 620 206.5 637 Q188 654 158 654 Q128 654 110 641 Q92 628 92 607 L92 506 L28 506 L28 604 Z " />
<glyph glyph-name="three" unicode="3" horiz-adv-x="307" d="M277 105 Q277 53 241.5 21 Q206 -11 147 -11 Q90 -11 53 18.5 Q16 48 16 103 L16 132 L80 132 Q80 122 80 115 Q80 108 81 103 Q81 98 81 95 Q81 72 99 58.5 Q117 45 147 45 Q177 45 195 58.5 Q213 72 213 94 L213 288 Q213 311 194.5 325 Q176 339 145 339 L93 339 L93 395 L145 395 Q176 395 194.5 412 Q213 429 213 457 L212 611 Q212 630 193.5 641.5 Q175 653 145 653 Q116 653 98.5 640.5 Q81 628 81 608 L81 586 Q80 579 80 572 L16 572 Q16 578 16 584 Q15 589 15 594.5 Q15 600 15 604 Q15 652 50.5 680.5 Q86 709 145 709 Q205 709 241 680 Q277 651 277 603 L277 468 Q277 437 263.5 413 Q250 389 226 375 Q250 361 263.5 337.5 Q277 314 277 284 L277 105 Z " />
<glyph glyph-name="four" unicode="4" horiz-adv-x="332" d="M246 522 L246 220 L318 220 L318 164 L246 164 L246 0 L183 0 L183 164 L19 164 L19 217 Q62 326 96.5 415 Q131 504 155 567 Q184 642 207 700 L261 700 Q239 640 211 565 Q188 502 155 414 Q122 326 80 220 L183 220 L183 315 Q183 338 191 373.5 Q199 409 209 442 Q220 480 235 522 L246 522 Z " />
<glyph glyph-name="five" unicode="5" horiz-adv-x="316" d="M89 132 L89 94 Q89 72 107.5 59 Q126 46 156 46 Q186 46 204 59 Q222 72 222 94 Q222 121 223 157 L223 328 Q223 346 203.5 357 Q184 368 152 368 Q123 368 105.5 355.5 Q88 343 88 323 L36 323 L36 700 L100 700 Q100 681 120.5 671.5 Q141 662 166 662 Q192 662 213 671.5 Q234 681 234 700 L290 700 Q290 658 259 633 Q228 608 177 608 Q125 608 100 644 L100 422 Q99 415 98 408 Q96 402 95.5 393.5 Q95 385 93 376 Q104 398 124 410 Q144 422 170 422 Q223 422 255 393.5 Q287 365 287 317 L287 103 Q287 52 251.5 21 Q216 -10 156 -10 Q96 -10 60.5 21 Q25 52 25 103 L25 132 L89 132 Z " />
<glyph glyph-name="six" unicode="6" horiz-adv-x="334" d="M40 599 Q40 649 75.5 679 Q111 709 169 709 Q229 709 264.5 678.5 Q300 648 300 597 L301 565 L237 565 L237 605 Q237 627 218.5 640 Q200 653 170 653 Q140 653 122 640 Q104 627 104 606 L104 366 Q133 401 187 401 Q238 401 269.5 371.5 Q301 342 300 293 Q299 255 299 219 Q299 188 298.5 155.5 Q298 123 298 101 Q298 50 262.5 19.5 Q227 -11 169 -11 Q110 -11 74.5 19 Q39 49 39 99 Q39 161 40 238 L40 599 Z M103 304 L103 90 Q103 70 121 57.5 Q139 45 168 45 Q200 45 219.5 58 Q239 71 239 92 Q239 116 238.5 152 Q238 188 237 222 Q236 262 235 304 Q235 324 214 334 Q193 344 168 344 Q143 344 123 334.5 Q103 325 103 305 L102 305 L103 304 Z " />
<glyph glyph-name="seven" unicode="7" horiz-adv-x="315" d="M295 700 L295 644 Q251 495 215 367 Q200 312 185.5 256.5 Q171 201 159.5 151.5 Q148 102 140.5 62.5 Q133 23 132 1 L70 1 Q70 25 80 74.5 Q90 124 106 187.5 Q122 251 141 321 Q160 391 178 454.5 Q196 518 211 569 Q226 620 234 644 L20 644 L20 700 L295 700 Z " />
<glyph glyph-name="eight" unicode="8" horiz-adv-x="344" d="M240 609 Q240 630 221 642.5 Q202 655 171 655 Q141 655 122.5 642.5 Q104 630 104 609 L104 441 Q104 421 125 411 Q146 401 172 401 Q198 401 219 411 Q240 421 240 441 L240 609 Z M240 92 L240 229 Q239 257 239 279 Q239 311 220.5 330 Q202 349 171 349 Q141 349 122.5 330 Q104 311 104 279 L104 92 Q104 71 122.5 58 Q141 45 171 45 Q202 45 221 58 Q240 71 240 92 Z M304 95 Q304 47 267.5 18.5 Q231 -10 171 -10 Q111 -10 75.5 18.5 Q40 47 40 95 L40 268 Q40 334 87 368 Q40 395 40 445 L40 606 Q40 654 75.5 682.5 Q111 711 171 711 Q231 711 267.5 682.5 Q304 654 304 606 L304 445 Q304 420 291.5 400.5 Q279 381 256 368 Q279 351 291.5 325.5 Q304 300 304 268 L304 95 Z " />
<glyph glyph-name="nine" unicode="9" horiz-adv-x="337" d="M100 132 L100 94 Q100 72 118.5 59 Q137 46 167 46 Q197 46 215 59 Q233 72 233 94 L233 332 Q219 313 196 302.5 Q173 292 144 292 Q95 292 65 323.5 Q35 355 35 406 L35 602 Q35 651 70.5 680.5 Q106 710 166 710 Q226 710 261.5 681.5 Q297 653 297 605 L297 103 Q297 52 261.5 21 Q226 -10 166 -10 Q106 -10 70.5 21 Q35 52 35 103 L35 132 L100 132 Z M233 395 Q233 441 233.5 492.5 Q234 544 234 601 Q234 625 215.5 640 Q197 655 167 655 Q137 655 118.5 643 Q100 631 100 611 Q100 586 100 553 Q99 525 99 485.5 Q99 446 99 395 Q99 374 117 361.5 Q135 349 165 349 Q196 349 214.5 361.5 Q233 374 233 395 Z " />
<glyph glyph-name="colon" unicode="&#x3a;" horiz-adv-x="197" d="M65 363 L132 363 L132 296 L65 296 L65 363 Z M65 67 L132 67 L132 0 L65 0 L65 67 Z " />
<glyph glyph-name="semicolon" unicode="&#x3b;" horiz-adv-x="198" d="M82 363 L150 363 L150 296 L82 296 L82 363 Z M148 90 L95 -70 L55 -70 L84 90 L148 90 Z " />
<glyph glyph-name="less" unicode="&#x3c;" horiz-adv-x="355" d="M89 337 L310 165 L310 111 L35 324 L35 350 L310 563 L310 509 L89 337 Z " />
<glyph glyph-name="equal" unicode="&#x3d;" horiz-adv-x="353" d="M313 256 L313 215 L40 215 L40 256 L313 256 Z M313 385 L313 344 L40 344 L40 385 L313 385 Z " />
<glyph glyph-name="greater" unicode="&#x3e;" horiz-adv-x="368" d="M45 563 L333 351 L333 323 L45 111 L45 165 L279 337 L45 509 L45 563 Z " />
<glyph glyph-name="question" unicode="&#x3f;" horiz-adv-x="298" d="M112 67 L180 67 L180 0 L112 0 L112 67 Z M16 514 Q16 533 16 552 Q15 567 15 583.5 Q15 600 15 611 Q15 656 50.5 683 Q86 710 146 710 Q206 710 241.5 675.5 Q277 641 277 584 Q277 559 273.5 535 Q270 511 258.5 483.5 Q247 456 224.5 423 Q202 390 164 346 Q162 323 161 296 Q160 272 159 240 Q158 208 158 170 L128 170 Q128 220 126.5 258 Q125 296 123 322 Q121 352 118 374 Q150 410 169 439.5 Q188 469 198 494.5 Q208 520 210.5 543.5 Q213 567 213 591 Q213 620 194.5 637 Q176 654 146 654 Q116 654 97.5 642.5 Q79 631 79 612 Q79 601 78.5 584.5 Q78 568 78 552 Q77 534 76 514 L16 514 Z " />
<glyph glyph-name="at" unicode="&#x40;" horiz-adv-x="392" d="M352 85 Q341 42 298.5 16 Q256 -10 198 -10 Q126 -10 82.5 24 Q39 58 39 114 L39 586 Q39 642 82.5 676 Q126 710 198 710 Q267 710 309.5 676 Q352 642 352 586 L352 150 Q352 127 333 113.5 Q314 100 282 100 Q262 100 248.5 112 Q235 124 233 144 Q216 100 178 100 Q148 100 129.5 123.5 Q111 147 111 185 L111 279 Q111 305 128 325.5 Q145 346 173 354 Q200 362 216.5 375.5 Q233 389 233 405 L233 528 Q233 543 223.5 552 Q214 561 198 561 Q182 561 172.5 550.5 Q163 540 163 523 L163 422 L117 422 L117 511 Q117 553 139 578.5 Q161 604 198 604 Q236 604 258.5 580 Q281 556 281 517 L281 148 Q281 136 285 128.5 Q289 121 296 121 Q313 121 322.5 129 Q332 137 332 150 L332 586 Q332 633 295 661.5 Q258 690 198 690 Q135 690 97.5 661.5 Q60 633 60 586 L60 114 Q60 67 97.5 38.5 Q135 10 198 10 Q249 10 286 30.5 Q323 51 332 85 L352 85 Z M233 350 Q217 336 197 330 Q180 325 169.5 311 Q159 297 159 279 L159 219 Q158 206 158 197 Q158 172 168.5 157 Q179 142 196 142 Q213 142 223 159 Q233 176 233 205 L233 350 Z " />
<glyph glyph-name="A" unicode="A" horiz-adv-x="312" d="M14 0 Q39 175 64 350.5 Q89 526 114 701 L195 701 L296 1 L232 1 L208 190 L103 190 Q97 143 90.5 95 Q84 47 78 0 L14 0 Z M155 597 L110 247 L200 247 L155 597 Z " />
<glyph glyph-name="B" unicode="B" horiz-adv-x="351" d="M167 700 Q229 700 266.5 671.5 Q304 643 304 596 L304 459 Q304 432 292 410.5 Q280 389 259 375 Q283 362 297 341 Q311 320 311 293 L311 105 Q311 57 276 28.5 Q241 0 183 0 L40 0 L40 700 L167 700 Z M104 335 L104 57 L183 57 Q212 57 229.5 70.5 Q247 84 247 106 L247 291 Q247 311 229.5 323 Q212 335 183 335 L104 335 Z M104 390 L167 390 Q200 390 220 404.5 Q240 419 240 442 L240 593 Q240 616 220 630 Q200 644 167 644 L104 644 L104 390 Z " />
<glyph glyph-name="C" unicode="C" horiz-adv-x="322" d="M302 599 L302 567 L238 567 Q238 577 237.5 588.5 Q237 600 237 610 Q237 630 219 642 Q201 654 171 654 Q140 654 121.5 643 Q103 632 103 613 Q103 493 103 396 Q103 299 104 230 Q104 150 104 87 Q104 68 122.5 57 Q141 46 171 46 Q201 46 219.5 58.5 Q238 71 238 92 L238 131 L302 131 L302 100 Q302 50 266.5 20 Q231 -10 171 -10 Q111 -10 75.5 19.5 Q40 49 40 98 L40 602 Q40 651 75.5 680.5 Q111 710 171 710 Q231 710 266.5 680 Q302 650 302 599 Z " />
<glyph glyph-name="D" unicode="D" horiz-adv-x="351" d="M40 0 L40 700 L170 700 Q234 700 272.5 671.5 Q311 643 311 596 L311 105 Q311 57 272.5 28.5 Q234 0 170 0 L40 0 Z M170 56 Q205 56 226 69.5 Q247 83 247 105 L247 593 Q247 616 226 630 Q205 644 170 644 L104 644 L104 56 L170 56 Z " />
<glyph glyph-name="E" unicode="E" horiz-adv-x="289" d="M269 0 L40 0 L40 700 L264 700 L264 640 L104 640 L104 395 L221 395 L221 335 L104 335 L104 60 L269 60 L269 0 Z " />
<glyph glyph-name="F" unicode="F" horiz-adv-x="274" d="M104 315 L104 0 L40 0 L40 700 L254 700 L254 640 L104 640 L104 375 L228 375 L228 315 L104 315 Z " />
<glyph glyph-name="G" unicode="G" horiz-adv-x="342" d="M303 338 L303 100 Q303 58 308.5 30.5 Q314 3 322 -1 L317 -6 Q290 6 274 27 Q257 10 230.5 0 Q204 -10 171 -10 Q111 -10 75.5 19.5 Q40 49 40 98 L40 602 Q40 651 75.5 680.5 Q111 710 171 710 Q231 710 266.5 680 Q302 650 302 599 L302 567 L238 567 Q238 577 237.5 588.5 Q237 600 237 610 Q237 630 219 642 Q201 654 171 654 Q140 654 121.5 643 Q103 632 103 613 Q103 493 103 396 Q103 299 104 230 Q104 150 104 87 Q104 68 122.5 57 Q141 46 171 46 Q201 46 219.5 58.5 Q238 71 238 92 L238 282 L198 282 L198 338 L303 338 Z " />
<glyph glyph-name="H" unicode="H" horiz-adv-x="351" d="M247 0 L247 336 L104 336 L104 0 L40 0 L40 700 L104 700 L104 392 L247 392 L247 700 L311 700 L311 0 L247 0 Z " />
<glyph glyph-name="I" unicode="I" horiz-adv-x="144" d="M39 0 L39 700 L104 700 L104 0 L39 0 Z " />
<glyph glyph-name="J" unicode="J" horiz-adv-x="308" d="M268 700 L268 95 Q268 47 232.5 18.5 Q197 -10 138 -10 Q79 -10 43 18.5 Q7 47 8 94 Q8 101 9 109 L9 142 L73 142 L73 86 Q73 68 91.5 57 Q110 46 140 46 Q170 46 188.5 58.5 Q207 71 207 91 L207 700 L268 700 Z " />
<glyph glyph-name="K" unicode="K" horiz-adv-x="335" d="M40 700 L104 700 L104 357 L261 700 L328 700 Q328 699 327 698 Q327 695 326 695 L183 401 L327 5 Q328 5 328 2 Q329 1 329 0 L260 0 Q231 80 203 161 Q175 242 146 322 L104 236 L104 0 L40 0 L40 700 Z " />
<glyph glyph-name="L" unicode="L" horiz-adv-x="269" d="M254 0 L40 0 L40 700 L104 700 L104 60 L254 60 L254 0 Z " />
<glyph glyph-name="M" unicode="M" horiz-adv-x="426" d="M40 0 L40 700 L126 700 L213 250 L300 700 L386 700 L386 0 L322 0 L322 577 Q295 432 268 289 Q241 146 215 0 L211 0 L104 577 L104 0 L40 0 Z " />
<glyph glyph-name="N" unicode="N" horiz-adv-x="353" d="M42 1 L42 701 L125 701 L257 123 L257 701 L313 701 L313 2 L230 2 L98 579 L98 1 L42 1 Z " />
<glyph glyph-name="O" unicode="O" horiz-adv-x="340" d="M236 613 Q236 632 218 643 Q200 654 170 654 Q140 654 121.5 643 Q103 632 103 613 L103 87 Q103 68 121.5 57 Q140 46 170 46 Q200 46 218 57 Q236 68 236 87 L236 613 Z M300 98 Q300 49 264.5 19.5 Q229 -10 170 -10 Q110 -10 74.5 19.5 Q39 49 39 98 L39 602 Q39 651 74.5 680.5 Q110 710 170 710 Q229 710 264.5 680.5 Q300 651 300 602 L300 98 Z " />
<glyph glyph-name="P" unicode="P" horiz-adv-x="336" d="M40 0 L40 700 L181 700 Q240 700 275.5 671.5 Q311 643 311 596 L311 391 Q311 337 275.5 304.5 Q240 272 181 272 L104 272 L104 0 L40 0 Z M181 328 Q211 328 229 345 Q247 362 247 391 L247 593 Q247 616 229 630 Q211 644 181 644 L104 644 L104 328 L181 328 Z " />
<glyph glyph-name="Q" unicode="Q" horiz-adv-x="353" d="M236 613 Q236 632 218 643 Q200 654 170 654 Q140 654 121.5 643 Q103 632 103 613 L103 87 Q103 68 121.5 57 Q140 46 170 46 Q200 46 218 57 Q236 68 236 87 L236 613 Z M329 -18 Q308 -12 290.5 -3 Q273 6 260 17 Q225 -10 170 -10 Q110 -10 74.5 19.5 Q39 49 39 98 L39 602 Q39 651 74.5 680.5 Q110 710 170 710 Q229 710 264.5 680.5 Q300 651 300 602 L300 98 Q300 67 309 35.5 Q318 4 333 -16 L329 -18 Z " />
<glyph glyph-name="R" unicode="R" horiz-adv-x="351" d="M247 269 Q247 289 228.5 301 Q210 313 181 313 L104 313 L104 0 L40 0 L40 700 L181 700 Q240 700 275.5 671.5 Q311 643 311 596 L311 460 Q311 387 269 347 Q311 321 311 272 L311 0 L247 0 L247 269 Z M181 369 Q211 369 229 393.5 Q247 418 247 460 L247 593 Q247 616 229 630 Q211 644 181 644 L104 644 L104 369 L181 369 Z " />
<glyph glyph-name="S" unicode="S" horiz-adv-x="309" d="M88 133 L88 89 Q88 69 106 57.5 Q124 46 154 46 Q183 46 201 61.5 Q219 77 219 103 Q219 149 195.5 209 Q172 269 126 333 Q25 472 25 588 Q25 643 60.5 676.5 Q96 710 155 710 Q213 710 248.5 683 Q284 656 284 611 L284 573 L220 573 L220 611 Q220 631 202 642.5 Q184 654 155 654 Q125 654 106.5 639 Q88 624 88 599 Q88 505 182 375 Q233 306 258 237.5 Q283 169 283 114 Q283 58 247.5 24 Q212 -10 154 -10 Q95 -10 59.5 17 Q24 44 24 89 L24 133 L88 133 Z " />
<glyph glyph-name="T" unicode="T" horiz-adv-x="299" d="M117 644 L5 644 L5 700 L294 700 L294 644 L182 644 L182 0 L117 0 L117 644 Z " />
<glyph glyph-name="U" unicode="U" horiz-adv-x="340" d="M300 700 L300 98 Q300 49 264.5 19.5 Q229 -10 170 -10 Q110 -10 74.5 19.5 Q39 49 39 98 L39 700 L103 700 L103 87 Q103 68 121.5 57 Q140 46 170 46 Q200 46 218 57 Q236 68 236 87 L236 700 L300 700 Z " />
<glyph glyph-name="V" unicode="V" horiz-adv-x="312" d="M234 700 L298 700 L199 0 L114 0 L15 700 L79 700 L156 91 L234 700 Z " />
<glyph glyph-name="W" unicode="W" horiz-adv-x="470" d="M442 700 Q431 526 421.5 350.5 Q412 175 402 0 L316 0 L236 597 L154 0 L69 0 L29 695 L29 700 L89 700 L115 78 L193 700 L278 700 L356 73 L381 700 L442 700 Z " />
<glyph glyph-name="X" unicode="X" horiz-adv-x="295" d="M139 272 Q119 204 100 135.5 Q81 67 61 -1 L2 -1 L116 348 L4 699 L68 699 L155 423 Q175 492 194 561.5 Q213 631 233 700 L292 700 L177 350 L289 0 L224 0 L139 272 Z " />
<glyph glyph-name="Y" unicode="Y" horiz-adv-x="364" d="M150 296 L33 700 L100 700 Q120 615 141.5 530 Q163 445 183 360 Q203 445 222 530 Q241 615 261 700 L329 700 Q300 600 271.5 498 Q243 396 214 296 L214 0 L150 0 L150 296 Z " />
<glyph glyph-name="Z" unicode="Z" horiz-adv-x="304" d="M16 0 L16 40 Q64 192 113 342 Q162 492 211 644 L16 644 L16 700 L281 700 L281 655 L88 56 L282 56 L282 0 L16 0 Z " />
<glyph glyph-name="bracketleft" unicode="&#x5b;" horiz-adv-x="185" d="M89 -38 L175 -38 L175 -73 L49 -73 L49 700 L175 700 L175 665 L89 665 L89 -38 Z " />
<glyph glyph-name="backslash" unicode="&#x5c;" horiz-adv-x="151" d="M10 700 L41 700 L141 -90 L110 -90 L10 700 Z " />
<glyph glyph-name="bracketright" unicode="&#x5d;" horiz-adv-x="170" d="M10 665 L10 700 L130 700 L130 -73 L10 -73 L10 -38 L91 -38 L91 665 L10 665 Z " />
<glyph glyph-name="asciicircum" unicode="&#x5e;" horiz-adv-x="499" d="M282 700 L342 640 L302 640 L250 677 L198 640 L157 640 L218 700 L282 700 Z " />
<glyph glyph-name="underscore" unicode="&#x5f;" horiz-adv-x="324" d="M314 -59 L314 -93 L10 -93 L10 -59 L314 -59 Z " />
<glyph glyph-name="grave" unicode="&#x60;" horiz-adv-x="499" d="M158 700 L223 700 L269 640 L230 640 L158 700 Z " />
<glyph glyph-name="a" unicode="a" horiz-adv-x="316" d="M29 217 Q29 257 56.5 286.5 Q84 316 130 325 Q171 333 195.5 345 Q220 357 220 388 L220 515 Q220 534 204.5 545.5 Q189 557 157 557 Q129 557 112 545.5 Q95 534 95 514 L95 443 Q94 421 94 398 L34 398 L34 506 Q34 553 67.5 581.5 Q101 610 157 610 Q220 610 250.5 581.5 Q281 553 281 506 L281 0 L220 0 L220 49 Q208 21 185 5.5 Q162 -10 131 -10 Q85 -10 58 18.5 Q31 47 30 95 Q30 110 30 129 Q29 146 29 168.5 Q29 191 29 217 Z M155 42 Q184 42 202 60 Q220 78 220 108 L220 317 Q206 301 185.5 293 Q165 285 139 280 Q117 275 103.5 258 Q90 241 90 217 L90 108 Q90 78 108 60 Q126 42 155 42 Z " />
<glyph glyph-name="b" unicode="b" horiz-adv-x="329" d="M34 2 L34 702 L95 702 L95 562 Q123 611 183 611 Q234 611 264 582.5 Q294 554 294 506 L294 96 Q294 48 264 19.5 Q234 -9 183 -9 Q123 -9 95 40 L95 0 L34 2 Z M95 113 Q95 81 113.5 62 Q132 43 162 43 Q194 43 214 62 Q234 81 234 112 L234 494 Q234 523 214.5 540.5 Q195 558 163 558 Q132 558 113.5 540 Q95 522 95 492 L95 113 Z " />
<glyph glyph-name="c" unicode="c" horiz-adv-x="329" d="M294 100 Q294 50 258.5 20 Q223 -10 164 -10 Q105 -10 69.5 20 Q34 50 34 99 L34 501 Q34 550 69.5 580 Q105 610 164 610 Q223 610 258.5 580 Q294 550 294 501 L294 370 L233 370 L233 501 Q233 527 214 542 Q195 557 164 557 Q133 557 114 542.5 Q95 528 95 504 L95 96 Q95 72 114 57.5 Q133 43 164 43 Q195 43 214 57.5 Q233 72 233 96 L233 225 L294 225 L294 100 Z " />
<glyph glyph-name="d" unicode="d" horiz-adv-x="330" d="M35 501 Q35 550 65 580 Q95 610 144 610 Q209 610 234 561 L234 700 L295 700 L295 0 L235 0 L235 54 Q223 24 199.5 7 Q176 -10 144 -10 Q95 -10 65.5 18.5 Q36 47 36 95 Q36 141 36 193 Q36 245 35.5 298 Q35 351 35 403 Q35 455 35 501 Z M165 43 Q197 43 216 61 Q235 79 235 108 L235 504 Q235 528 216 542.5 Q197 557 166 557 Q134 557 115 542.5 Q96 528 96 504 L96 108 Q96 79 115 61 Q134 43 165 43 Z " />
<glyph glyph-name="e" unicode="e" horiz-adv-x="329" d="M294 100 Q294 50 258.5 20 Q223 -10 164 -10 Q105 -10 69.5 20 Q34 50 34 99 L34 501 Q34 550 69.5 580 Q105 610 164 610 Q223 610 258.5 580 Q294 550 294 501 L294 312 L95 312 L95 96 Q95 72 114 57.5 Q133 43 164 43 Q195 43 214 57.5 Q233 72 233 96 L233 225 L294 225 L294 100 Z M233 501 Q233 527 214 542 Q195 557 164 557 Q133 557 114 542.5 Q95 528 95 504 L95 365 L233 365 L233 501 Z " />
<glyph glyph-name="f" unicode="f" horiz-adv-x="255" d="M86 -1 L86 543 L8 543 L8 599 L86 599 Q88 639 116 666.5 Q144 694 190 700 L244 700 L244 647 L212 647 Q204 646 197 646 Q173 642 159 630.5 Q145 619 147 600 L240 600 L240 544 L147 544 L147 0 L86 -1 Z " />
<glyph glyph-name="g" unicode="g" horiz-adv-x="330" d="M294 601 L294 12 Q294 -39 258.5 -69 Q223 -99 164 -99 Q104 -99 68.5 -69 Q33 -39 33 10 L33 28 L94 28 L94 0 Q94 -21 113 -33.5 Q132 -46 164 -46 Q196 -46 215 -32.5 Q234 -19 234 3 L234 113 Q221 85 198 69.5 Q175 54 143 54 Q94 54 64 81.5 Q34 109 34 154 Q34 193 34 237.5 Q34 282 33.5 328 Q33 374 33 418.5 Q33 463 33 502 Q33 551 63 581 Q93 611 143 611 Q174 611 197 598.5 Q220 586 233 563 L233 600 L294 601 Z M164 107 Q194 107 212.5 121.5 Q231 136 233 161 Q233 207 233 256 Q233 305 232.5 351.5 Q232 398 232 440.5 Q232 483 232 516 Q227 536 209 547 Q191 558 165 558 Q133 558 113.5 543.5 Q94 529 94 505 L94 167 Q94 140 113 123.5 Q132 107 164 107 Z " />
<glyph glyph-name="h" unicode="h" horiz-adv-x="329" d="M233 0 L233 3 Q233 14 233 45 Q233 76 233 118.5 Q233 161 233.5 212 Q234 263 234 313.5 Q234 364 234 410.5 Q234 457 234 492 Q234 521 214.5 538.5 Q195 556 163 556 Q132 556 113.5 538 Q95 520 95 490 L95 0 L34 0 L34 700 L95 700 L95 560 Q109 583 131.5 596.5 Q154 610 184 610 Q234 610 264 581.5 Q294 553 294 505 L294 0 L233 0 Z " />
<glyph glyph-name="i" unicode="i" horiz-adv-x="131" d="M33 698 L98 698 L98 633 L33 633 L33 698 Z M35 0 L35 600 L96 600 L96 0 L35 0 Z " />
<glyph glyph-name="j" unicode="j" horiz-adv-x="140" d="M42 698 L107 698 L107 633 L42 633 L42 698 Z M44 600 L105 600 L105 -8 Q105 -41 77.5 -65 Q50 -89 4 -96 L-32 -96 L-32 -63 L-1 -63 Q19 -60 31.5 -47.5 Q44 -35 44 -17 L44 600 Z " />
<glyph glyph-name="k" unicode="k" horiz-adv-x="307" d="M35 0 L35 700 L96 700 L96 315 L241 600 L306 599 L169 343 L307 0 L243 0 L134 277 L96 205 L96 0 L35 0 Z " />
<glyph glyph-name="l" unicode="l" horiz-adv-x="131" d="M35 0 L35 700 L96 700 L96 0 L35 0 Z " />
<glyph glyph-name="m" unicode="m" horiz-adv-x="528" d="M432 1 L432 4 Q432 15 432 46 Q432 77 432 119.5 Q432 162 432.5 213 Q433 264 433 314.5 Q433 365 433 411.5 Q433 458 433 493 Q433 522 413.5 539.5 Q394 557 362 557 Q331 557 312.5 539 Q294 521 294 491 L294 1 L233 1 L233 4 Q233 15 233 46 Q233 77 233 119.5 Q233 162 233.5 213 Q234 264 234 314.5 Q234 365 234 411.5 Q234 458 234 493 Q234 522 214.5 539.5 Q195 557 163 557 Q132 557 113.5 539 Q95 521 95 491 L95 1 L34 1 L34 601 L95 601 L95 561 Q109 584 131.5 597.5 Q154 611 184 611 Q222 611 249 593.5 Q276 576 287 546 Q299 576 323.5 593 Q348 610 383 610 Q433 610 463 581.5 Q493 553 493 505 L493 0 L432 1 Z " />
<glyph glyph-name="n" unicode="n" horiz-adv-x="329" d="M233 0 L233 3 Q233 14 233 45 Q233 76 233 118.5 Q233 161 233.5 212 Q234 263 234 313.5 Q234 364 234 410.5 Q234 457 234 492 Q234 521 214.5 538.5 Q195 556 163 556 Q132 556 113.5 538 Q95 520 95 490 L95 0 L34 0 L34 600 L95 600 L95 560 Q109 583 131.5 596.5 Q154 610 184 610 Q234 610 264 581.5 Q294 553 294 505 L294 0 L233 0 Z " />
<glyph glyph-name="o" unicode="o" horiz-adv-x="330" d="M235 510 Q235 531 216 544 Q197 557 165 557 Q133 557 113.5 544 Q94 531 94 510 L94 90 Q94 69 113.5 56 Q133 43 165 43 Q197 43 216 56 Q235 69 235 90 L235 510 Z M295 101 Q295 50 259.5 20 Q224 -10 165 -10 Q106 -10 70.5 20 Q35 50 35 101 L35 499 Q35 550 70.5 580 Q106 610 165 610 Q224 610 259.5 580 Q295 550 295 499 L295 101 Z " />
<glyph glyph-name="p" unicode="p" horiz-adv-x="329" d="M95 -88 L34 -88 L34 602 L95 602 L95 562 Q123 611 183 611 Q234 611 264 582.5 Q294 554 294 506 L294 96 Q294 48 264 19.5 Q234 -9 183 -9 Q123 -9 95 40 L95 -88 Z M95 113 Q95 81 113.5 62 Q132 43 162 43 Q194 43 214 62 Q234 81 234 112 L234 494 Q234 523 214.5 540.5 Q195 558 163 558 Q132 558 113.5 540 Q95 522 95 492 L95 113 Z " />
<glyph glyph-name="q" unicode="q" horiz-adv-x="330" d="M35 501 Q35 550 65 580 Q95 610 144 610 Q176 610 199 595.5 Q222 581 234 555 L234 600 L295 600 L295 -90 L235 -90 L235 54 Q223 24 199.5 7 Q176 -10 144 -10 Q95 -10 65.5 18.5 Q36 47 36 95 Q36 141 36 193 Q36 245 35.5 298 Q35 351 35 403 Q35 455 35 501 Z M165 43 Q197 43 216 61 Q235 79 235 108 L235 504 Q235 528 216 542.5 Q197 557 166 557 Q134 557 115 542.5 Q96 528 96 504 L96 108 Q96 79 115 61 Q134 43 165 43 Z " />
<glyph glyph-name="r" unicode="r" horiz-adv-x="295" d="M225 409 Q225 426 226 441 L226 492 Q226 521 208 538.5 Q190 556 160 556 Q131 556 113.5 538 Q96 520 96 490 L96 0 L35 0 L35 600 L96 600 L96 562 Q109 585 130 597.5 Q151 610 179 610 Q227 610 256 581.5 Q285 553 285 505 L285 409 L224 409 L225 409 Z " />
<glyph glyph-name="s" unicode="s" horiz-adv-x="297" d="M80 195 L80 93 Q80 70 98.5 56.5 Q117 43 148 43 Q179 43 198 61 Q217 79 217 109 Q217 142 194 185.5 Q171 229 126 277 Q20 388 20 485 Q20 542 55.5 576 Q91 610 149 610 Q173 610 196.5 604 Q220 598 238 585 Q256 572 267 553 Q278 534 278 507 L278 414 L217 414 L217 507 Q217 530 198.5 543.5 Q180 557 149 557 Q118 557 99.5 540 Q81 523 81 494 Q81 418 171 323 Q224 268 250.5 215 Q277 162 277 120 Q277 61 241.5 25.5 Q206 -10 148 -10 Q124 -10 100.5 -4 Q77 2 59 15 Q41 28 30 47 Q19 66 19 93 L19 195 L80 195 Z " />
<glyph glyph-name="t" unicode="t" horiz-adv-x="338" d="M328 100 Q328 50 294 20 Q260 -10 203 -10 Q146 -10 112 20 Q78 50 78 99 L78 544 L5 544 L5 600 L78 600 L78 640 Q97 640 108.5 659 Q120 678 120 710 L139 710 L139 600 L296 600 L296 544 L139 544 L139 96 Q139 72 156.5 57.5 Q174 43 203 43 Q232 43 249.5 57.5 Q267 72 267 96 L267 215 L328 215 L328 100 Z " />
<glyph glyph-name="u" unicode="u" horiz-adv-x="330" d="M34 595 L34 600 L95 600 L95 108 Q95 79 114 61 Q133 43 164 43 Q196 43 215 61 Q234 79 234 108 L234 600 L295 600 L295 0 L234 0 L234 54 Q222 24 198.5 7 Q175 -10 143 -10 Q94 -10 64.5 18.5 Q35 47 35 95 L34 595 Z " />
<glyph glyph-name="v" unicode="v" horiz-adv-x="313" d="M295 600 Q295 596 294 595 L202 0 L111 0 L16 595 Q15 596 15 600 L76 600 L76 599 Q76 598 76.5 598 Q77 598 77 597 L77 595 L158 46 L234 595 L235 597 L235 600 L295 600 Z " />
<glyph glyph-name="w" unicode="w" horiz-adv-x="469" d="M439 600 Q428 451 418.5 300 Q409 149 399 0 L315 0 L234 523 L153 0 L69 0 L29 595 L29 600 L90 600 L114 60 L198 600 L270 600 L354 60 L378 600 L439 600 Z " />
<glyph glyph-name="x" unicode="x" horiz-adv-x="308" d="M68 0 L9 0 L123 300 L14 595 Q14 596 13.5 596.5 Q13 597 13 598 Q12 599 12 600 L77 600 Q98 542 120.5 482 Q143 422 164 364 Q183 422 202.5 482 Q222 542 241 600 L300 600 L186 300 L297 0 L233 0 Q212 57 190 116.5 Q168 176 147 233 L68 0 Z " />
<glyph glyph-name="y" unicode="y" horiz-adv-x="330" d="M34 27 L95 27 L95 -1 Q95 -22 114 -34.5 Q133 -47 165 -47 Q197 -47 216 -33.5 Q235 -20 235 2 L235 112 Q222 84 199 68.5 Q176 53 144 53 Q95 53 65 80.5 Q35 108 35 153 Q35 154 35 173 Q35 192 34.5 223.5 Q34 255 34 294.5 Q34 334 34 375 Q34 472 34 595 L34 600 L95 600 L95 166 Q95 139 114 122.5 Q133 106 165 106 Q195 106 214 120.5 Q233 135 235 160 Q235 229 234.5 300.5 Q234 372 233.5 433.5 Q233 495 233 540 Q233 585 233 600 L295 600 L295 11 Q295 -40 259.5 -70 Q224 -100 165 -100 Q105 -100 69.5 -70 Q34 -40 34 9 L34 27 Z " />
<glyph glyph-name="z" unicode="z" horiz-adv-x="289" d="M8 0 L8 39 L207 547 L8 547 L8 600 L273 600 L273 556 L76 53 L274 53 L274 0 L8 0 Z " />
<glyph glyph-name="braceleft" unicode="&#x7b;" horiz-adv-x="188" d="M5 292 L5 328 L36 328 Q50 328 58 341 Q66 354 66 375 L66 621 Q66 656 87.5 678 Q109 700 144 700 L178 700 L178 665 L150 666 Q130 666 117.5 652 Q105 638 105 615 Q105 589 106 554 L106 388 Q106 353 90.5 331.5 Q75 310 49 310 Q75 310 91 293.5 Q107 277 107 251 L107 64 Q106 24 106 -9 Q106 -26 118.5 -37 Q131 -48 151 -48 L179 -47 L179 -82 L145 -82 Q110 -82 88.5 -60 Q67 -38 67 -3 L67 238 Q67 262 58.5 277 Q50 292 36 292 L5 292 Z " />
<glyph glyph-name="bar" unicode="&#x7c;" horiz-adv-x="136" d="M44 700 L76 700 L76 -90 L44 -90 L44 700 Z " />
<glyph glyph-name="braceright" unicode="&#x7d;" horiz-adv-x="188" d="M4 -82 L4 -47 L32 -48 Q52 -48 64.5 -37 Q77 -26 77 -9 Q77 24 77 64 Q76 99 76 146.5 Q76 194 76 251 Q76 277 91.5 293.5 Q107 310 133 310 L134 310 Q108 310 92.5 331.5 Q77 353 77 388 Q77 441 77 483 Q77 525 78 554 Q78 589 78 615 Q78 638 65.5 652 Q53 666 33 666 L5 665 L5 700 L39 700 Q74 700 95.5 678 Q117 656 117 621 L117 375 Q117 354 125 341 Q133 328 147 328 L178 328 L178 292 L147 292 Q133 292 124.5 277 Q116 262 116 238 L116 -3 Q116 -38 94.5 -60 Q73 -82 38 -82 L4 -82 Z " />
<glyph glyph-name="asciitilde" unicode="&#x7e;" horiz-adv-x="499" d="M148 291 Q143 318 156 334.5 Q169 351 195 351 Q207 351 225 345.5 Q243 340 260 332 Q268 328 278.5 325.5 Q289 323 299 323 Q310 323 317 328.5 Q324 334 321 350 L352 350 Q357 323 344 306.5 Q331 290 305 290 Q292 290 274 295.5 Q256 301 239 309 Q231 313 220.5 315.5 Q210 318 201 318 Q190 318 182.5 312 Q175 306 178 290 L148 290 L148 291 Z " />
<glyph glyph-name="exclamdown" unicode="&#xa1;" horiz-adv-x="124" d="M95 600 L95 533 L27 533 L27 600 L95 600 Z M29 136 L46 437 L77 437 L94 136 L94 -100 L29 -100 L29 136 Z " />
<glyph glyph-name="cent" unicode="&#xa2;" horiz-adv-x="328" d="M35 99 L35 502 Q35 548 66 577 Q97 606 149 610 L149 646 L179 646 L179 610 Q231 606 262 577 Q293 548 293 502 L293 371 L240 371 L240 502 Q240 527 223.5 543 Q207 559 179 563 L179 37 Q207 41 223.5 56.5 Q240 72 240 96 L240 225 L293 225 L293 100 Q293 53 262 24 Q231 -5 179 -9 L179 -50 L149 -50 L149 -9 Q97 -5 66 24 Q35 53 35 99 Z M149 37 L149 564 Q120 560 103.5 544 Q87 528 87 503 L87 96 Q87 72 103.5 56.5 Q120 41 149 37 Z " />
<glyph glyph-name="brokenbar" unicode="&#xa6;" horiz-adv-x="151" d="M60 700 L91 700 L91 405 L60 405 L60 700 Z M60 205 L91 205 L91 -90 L60 -90 L60 205 Z " />
<glyph glyph-name="section" unicode="&#xa7;" horiz-adv-x="245" d="M3 0 Q26 78 48.5 160 Q71 242 94 321 L5 641 L62 641 Q79 581 96 519 Q113 457 130 397 Q145 457 160 519 Q175 581 190 641 L242 641 Q219 563 196.5 481.5 Q174 400 151 321 L240 1 L182 1 Q165 61 148.5 121.5 Q132 182 115 242 Q100 182 85 121 Q70 60 55 0 L3 0 Z " />
<glyph glyph-name="ordfeminine" unicode="&#xaa;" horiz-adv-x="307" d="M5 -27 L314 -27 L314 -81 L5 -81 L5 -27 Z M30 505 Q30 553 64 581.5 Q98 610 155 610 Q220 610 251 581.5 Q282 553 282 505 L282 0 L200 0 L200 41 Q188 17 168 3.5 Q148 -10 122 -10 Q79 -10 53 18 Q27 46 27 93 L27 217 Q27 260 52.5 291.5 Q78 323 120 332 Q156 340 178 351 Q200 362 200 388 L200 518 Q200 529 186.5 534 Q173 539 157 539 Q140 539 126 533.5 Q112 528 112 517 L112 398 L30 398 L30 505 Z M200 302 Q188 290 171 284 Q154 278 134 273 Q123 271 116 255.5 Q109 240 109 217 L109 112 Q109 89 121 75 Q133 61 153 61 Q174 61 187 75 Q200 89 200 112 L200 302 Z " />
<glyph glyph-name="guillemotleft" unicode="&#xab;" horiz-adv-x="355" d="M16 393 L122 535 L183 535 L77 393 L183 251 L123 251 L16 393 Z M274 535 L335 535 L228 393 L335 251 L275 251 L168 393 L274 535 Z " />
<glyph glyph-name="twosuperior" unicode="&#xb2;" horiz-adv-x="168" d="M28 664 Q28 685 45 697.5 Q62 710 90 710 Q118 710 135 695 Q152 680 152 654 Q152 625 139.5 599.5 Q127 574 106 545 Q88 520 77 499.5 Q66 479 66 459 L66 433 L156 433 L156 400 L28 400 L28 459 Q28 488 41 513.5 Q54 539 75 568 Q93 592 103.5 614 Q114 636 114 660 Q114 677 90 677 Q66 677 66 665 L66 621 L28 621 L28 664 Z " />
<glyph glyph-name="threesuperior" unicode="&#xb3;" horiz-adv-x="170" d="M90 391 Q61 391 44 407 Q27 423 27 451 L27 463 L66 463 L66 446 Q66 435 73.5 429.5 Q81 424 91 424 Q99 424 106.5 429 Q114 434 114 445 L114 524 Q114 546 90 546 L67 546 L67 579 L90 579 Q101 579 107.5 586.5 Q114 594 114 605 L114 668 Q114 672 107 674 Q100 676 92 676 Q82 676 74 673 Q66 670 66 665 L66 648 L27 648 L27 662 Q27 688 47 698.5 Q67 709 90 709 Q119 709 136 696 Q153 683 153 662 L153 611 Q153 582 131 566 Q153 550 153 520 L153 451 Q153 424 136 407.5 Q119 391 90 391 Z " />
<glyph glyph-name="acute" unicode="&#xb4;" horiz-adv-x="499" d="M276 700 L341 700 L269 640 L230 640 L276 700 Z " />
<glyph glyph-name="middot" unicode="&#xb7;" horiz-adv-x="221" d="M75 352 L147 352 L147 280 L75 280 L75 352 Z " />
<glyph glyph-name="onesuperior" unicode="&#xb9;" horiz-adv-x="166" d="M27 615 Q50 615 64 631.5 Q78 648 78 668 L78 700 L120 700 L120 400 L82 400 L82 628 Q72 620 59 615.5 Q46 611 29 611 L27 615 Z " />
<glyph glyph-name="ordmasculine" unicode="&#xba;" horiz-adv-x="318" d="M11 -27 L320 -27 L320 -81 L11 -81 L11 -27 Z M212 513 Q212 526 196 532.5 Q180 539 161 539 Q141 539 124.5 532.5 Q108 526 108 513 L108 87 Q108 74 124.5 67.5 Q141 61 161 61 Q180 61 196 67.5 Q212 74 212 87 L212 513 Z M293 102 Q293 51 257 20.5 Q221 -10 161 -10 Q101 -10 64.5 20.5 Q28 51 28 102 L28 498 Q28 549 64.5 579.5 Q101 610 161 610 Q221 610 257 579.5 Q293 549 293 498 L293 102 Z " />
<glyph glyph-name="guillemotright" unicode="&#xbb;" horiz-adv-x="371" d="M130 393 L19 535 L80 535 L191 393 L79 251 L19 251 L130 393 Z M251 535 L363 393 L251 251 L191 251 L302 393 L191 535 L251 535 Z " />
<glyph glyph-name="onequarter" unicode="&#xbc;" horiz-adv-x="426" d="M412 271 L412 117 L452 117 L452 77 L412 77 L412 0 L368 0 L368 77 L274 77 L274 117 Q299 173 318.5 218.5 Q338 264 352 296 Q368 334 381 364 L419 364 Q407 333 391 294 Q378 261 359.5 216 Q341 171 318 117 L368 117 L368 148 Q368 162 373.5 182.5 Q379 203 386 223 Q394 246 404 271 L412 271 Z M10 587 Q39 587 56 606.5 Q73 626 73 651 L73 690 L123 690 L123 326 L77 326 L77 602 Q65 593 49 587.5 Q33 582 13 582 L10 587 Z M385 700 L416 700 L41 0 L10 0 L385 700 Z " />
<glyph glyph-name="onehalf" unicode="&#xbd;" horiz-adv-x="426" d="M274 314 Q274 339 294 354 Q314 369 348 369 Q381 369 401.5 350.5 Q422 332 422 302 Q422 267 407 236.5 Q392 206 366 172 Q345 143 332 118.5 Q319 94 319 70 L319 40 L426 40 L426 0 L274 0 L274 70 Q274 105 289 135.5 Q304 166 329 200 Q351 229 364 254.5 Q377 280 377 309 Q377 318 369 324 Q361 330 348 330 Q319 330 319 316 L319 263 L274 263 L274 314 Z M10 0 L385 700 L416 700 L41 0 L10 0 Z M73 651 L73 690 L123 690 L123 326 L77 326 L77 602 Q65 593 49 587.5 Q33 582 13 582 L10 587 Q39 587 56 606.5 Q73 626 73 651 Z " />
<glyph glyph-name="threequarters" unicode="&#xbe;" horiz-adv-x="426" d="M412 271 L412 117 L452 117 L452 77 L412 77 L412 0 L368 0 L368 77 L274 77 L274 117 Q299 173 318.5 218.5 Q338 264 352 296 Q368 334 381 364 L419 364 Q407 333 391 294 Q378 261 359.5 216 Q341 171 318 117 L368 117 L368 148 Q368 162 373.5 182.5 Q379 203 386 223 Q394 246 404 271 L412 271 Z M84 321 Q50 321 30 338.5 Q10 356 10 389 L10 404 L55 404 L55 383 Q55 371 64 364.5 Q73 358 84 358 Q95 358 103.5 364 Q112 370 112 382 L112 475 Q112 485 107 490 Q102 495 93.5 497.5 Q85 500 75 500.5 Q65 501 56 501 L56 540 L83 540 Q97 540 104.5 548 Q112 556 112 570 L112 643 Q112 649 103.5 651.5 Q95 654 84 654 Q73 654 64 651.5 Q55 649 55 643 L55 623 L10 623 L10 639 Q10 670 33 682.5 Q56 695 83 695 Q117 695 137 680 Q157 665 157 640 L157 580 Q157 546 132 527 Q157 508 157 473 L157 391 Q157 359 137 340 Q117 321 84 321 Z M385 700 L416 700 L41 0 L10 0 L385 700 Z " />
<glyph glyph-name="questiondown" unicode="&#xbf;" horiz-adv-x="357" d="M220 533 L152 533 L152 600 L220 600 L220 533 Z M316 86 Q316 67 317 48 L317 -11 Q317 -56 281.5 -83 Q246 -110 186 -110 Q126 -110 90.5 -75.5 Q55 -41 55 16 Q55 41 58.5 65 Q62 89 73.5 116.5 Q85 144 107.5 177.5 Q130 211 168 254 Q170 277 171 305 Q173 328 173.5 360 Q174 392 174 430 L204 430 Q204 380 205.5 342.5 Q207 305 209 279 Q211 248 214 226 Q182 190 163 160.5 Q144 131 134.5 105.5 Q125 80 122 56.5 Q119 33 119 9 Q119 -20 137.5 -37 Q156 -54 186 -54 Q216 -54 234.5 -42.5 Q253 -31 253 -12 Q253 -1 253.5 15.5 Q254 32 255 48 Q255 66 256 86 L316 86 Z " />
<glyph glyph-name="Agrave" unicode="&#xc0;" horiz-adv-x="312" d="M65 800 L130 800 L176 740 L136 740 L65 800 Z M14 0 Q39 175 64 350.5 Q89 526 114 701 L195 701 L296 1 L232 1 L208 190 L103 190 Q97 143 90.5 95 Q84 47 78 0 L14 0 Z M155 597 L110 247 L200 247 L155 597 Z " />
<glyph glyph-name="Aacute" unicode="&#xc1;" horiz-adv-x="312" d="M182 800 L247 800 L176 740 L136 740 L182 800 Z M14 0 Q39 175 64 350.5 Q89 526 114 701 L195 701 L296 1 L232 1 L208 190 L103 190 Q97 143 90.5 95 Q84 47 78 0 L14 0 Z M155 597 L110 247 L200 247 L155 597 Z " />
<glyph glyph-name="Acircumflex" unicode="&#xc2;" horiz-adv-x="312" d="M188 800 L248 740 L208 740 L156 777 L104 740 L64 740 L124 800 L188 800 Z M14 0 Q39 174 64 350.5 Q89 527 114 701 L195 701 L296 1 L232 1 L208 190 L103 190 Q97 143 90.5 95 Q84 47 78 0 L14 0 Z M155 597 L110 247 L200 247 L155 597 Z " />
<glyph glyph-name="Atilde" unicode="&#xc3;" horiz-adv-x="312" d="M54 729 Q49 756 62 772.5 Q75 789 101 789 Q113 789 131.5 783.5 Q150 778 167 770 Q176 766 186.5 763 Q197 760 205 760 Q217 760 223 768 Q229 776 227 789 L258 789 Q263 762 250 745.5 Q237 729 211 729 Q199 729 180.5 734.5 Q162 740 145 748 Q136 752 125.5 755 Q115 758 107 758 Q95 758 89 750 Q83 742 85 729 L54 729 Z M14 0 Q39 175 64 350.5 Q89 526 114 701 L195 701 L296 1 L232 1 L208 190 L103 190 Q97 143 90.5 95 Q84 47 78 0 L14 0 Z M155 597 L110 247 L200 247 L155 597 Z " />
<glyph glyph-name="Adieresis" unicode="&#xc4;" horiz-adv-x="312" d="M171 796 L227 796 L227 740 L171 740 L171 796 Z M85 796 L141 796 L141 740 L85 740 L85 796 Z M14 0 Q39 175 64 350.5 Q89 526 114 701 L195 701 L296 1 L232 1 L208 190 L103 190 Q97 143 90.5 95 Q84 47 78 0 L14 0 Z M155 597 L110 247 L200 247 L155 597 Z " />
<glyph glyph-name="Aring" unicode="&#xc5;" horiz-adv-x="312" d="M156 789 Q147 789 142.5 785 Q138 781 138 775.5 Q138 770 142.5 766 Q147 762 156 762 Q165 762 169.5 766 Q174 770 174 775.5 Q174 781 169.5 785 Q165 789 156 789 Z M110 775 Q110 792 124.5 801 Q139 810 156 810 Q173 810 187.5 801 Q202 792 202 775 Q202 758 187.5 750 Q173 742 156 742 Q139 742 124.5 750 Q110 758 110 775 Z M14 0 Q39 174 64 350.5 Q89 527 114 701 L195 701 L296 1 L232 1 L208 190 L103 190 Q97 143 90.5 95 Q84 47 78 0 L14 0 Z M155 597 L110 247 L200 247 L155 597 Z " />
<glyph glyph-name="Ccedilla" unicode="&#xc7;" horiz-adv-x="322" d="M302 566 L238 566 Q238 576 237.5 587.5 Q237 599 237 609 Q237 629 219 641 Q201 653 171 653 Q140 653 121.5 642 Q103 631 103 612 Q103 492 103 395 Q103 298 104 229 Q104 149 104 86 Q104 67 122.5 56 Q141 45 171 45 Q201 45 219.5 57.5 Q238 70 238 91 L238 130 L302 130 L302 99 Q302 51 269.5 21.5 Q237 -8 183 -11 L173 -24 Q178 -23 183.5 -22.5 Q189 -22 194 -22 Q213 -22 227 -29 Q241 -36 241 -52 L241 -59 Q241 -74 223.5 -81.5 Q206 -89 184 -89 Q161 -89 141.5 -81 Q122 -73 122 -58 L152 -58 Q152 -63 162.5 -65.5 Q173 -68 185 -68 Q196 -68 204 -66 Q212 -64 212 -59 Q212 -49 207 -46 Q202 -43 185 -43 Q179 -43 168.5 -44.5 Q158 -46 155 -48 L129 -48 L154 -9 Q102 -4 71 24.5 Q40 53 40 98 L40 602 Q40 651 75.5 680.5 Q111 710 171 710 Q231 710 266.5 680 Q302 650 302 599 L302 566 Z " />
<glyph glyph-name="Egrave" unicode="&#xc8;" horiz-adv-x="289" d="M63 800 L128 800 L174 740 L135 740 L63 800 Z M269 0 L40 0 L40 700 L264 700 L264 640 L104 640 L104 395 L221 395 L221 335 L104 335 L104 60 L269 60 L269 0 Z " />
<glyph glyph-name="Eacute" unicode="&#xc9;" horiz-adv-x="289" d="M181 800 L246 800 L174 740 L135 740 L181 800 Z M269 0 L40 0 L40 700 L264 700 L264 640 L104 640 L104 395 L221 395 L221 335 L104 335 L104 60 L269 60 L269 0 Z " />
<glyph glyph-name="Ecircumflex" unicode="&#xca;" horiz-adv-x="289" d="M188 800 L248 740 L207 740 L155 777 L103 740 L62 740 L122 800 L188 800 Z M270 0 L41 0 L41 700 L265 700 L265 640 L105 640 L105 395 L222 395 L222 335 L105 335 L105 60 L270 60 L270 0 Z " />
<glyph glyph-name="Edieresis" unicode="&#xcb;" horiz-adv-x="289" d="M169 796 L225 796 L225 740 L169 740 L169 796 Z M84 796 L140 796 L140 740 L84 740 L84 796 Z M269 0 L40 0 L40 700 L264 700 L264 640 L104 640 L104 395 L221 395 L221 335 L104 335 L104 60 L269 60 L269 0 Z " />
<glyph glyph-name="Igrave" unicode="&#xcc;" horiz-adv-x="144" d="M-19 800 L46 800 L92 740 L52 740 L-19 800 Z M39 0 L39 700 L104 700 L104 0 L39 0 Z " />
<glyph glyph-name="Iacute" unicode="&#xcd;" horiz-adv-x="144" d="M98 800 L163 800 L92 740 L52 740 L98 800 Z M39 0 L39 700 L104 700 L104 0 L39 0 Z " />
<glyph glyph-name="Icircumflex" unicode="&#xce;" horiz-adv-x="144" d="M104 800 L164 740 L124 740 L72 777 L20 740 L-20 740 L40 800 L104 800 Z M39 0 L39 700 L104 700 L104 0 L39 0 Z " />
<glyph glyph-name="Idieresis" unicode="&#xcf;" horiz-adv-x="144" d="M87 796 L143 796 L143 740 L87 740 L87 796 Z M1 796 L57 796 L57 740 L1 740 L1 796 Z M39 0 L39 700 L104 700 L104 0 L39 0 Z " />
<glyph glyph-name="Eth" unicode="&#xd0;" horiz-adv-x="351" d="M-8 387 L40 387 L40 700 L170 700 Q234 700 272.5 671.5 Q311 643 311 596 L311 105 Q311 57 272.5 28.5 Q234 0 170 0 L40 0 L40 350 L-8 350 L-8 387 Z M170 56 Q205 56 226 69.5 Q247 83 247 105 L247 593 Q247 616 226 630 Q205 644 170 644 L104 644 L104 387 L223 387 L223 350 L104 350 L104 56 L170 56 Z " />
<glyph glyph-name="Ntilde" unicode="&#xd1;" horiz-adv-x="353" d="M76 729 Q71 756 84 772.5 Q97 789 123 789 Q135 789 153 783.5 Q171 778 188 770 Q196 766 206.5 763.5 Q217 761 226 761 Q237 761 244.5 767 Q252 773 249 789 L279 789 Q284 762 271 745.5 Q258 729 232 729 Q220 729 202 734.5 Q184 740 167 748 Q159 752 148.5 754.5 Q138 757 129 757 Q118 757 110.5 751 Q103 745 106 729 L76 729 Z M313 702 L313 2 L230 2 L98 579 L98 1 L42 1 L42 701 L125 701 L257 123 L257 700 L313 702 Z " />
<glyph glyph-name="Ograve" unicode="&#xd2;" horiz-adv-x="340" d="M78 800 L143 800 L189 740 L150 740 L78 800 Z M236 613 Q236 632 218 643 Q200 654 170 654 Q140 654 121.5 643 Q103 632 103 613 L103 87 Q103 68 121.5 57 Q140 46 170 46 Q200 46 218 57 Q236 68 236 87 L236 613 Z M300 98 Q300 49 264.5 19.5 Q229 -10 170 -10 Q110 -10 74.5 19.5 Q39 49 39 98 L39 602 Q39 651 74.5 680.5 Q110 710 170 710 Q229 710 264.5 680.5 Q300 651 300 602 L300 98 Z " />
<glyph glyph-name="Oacute" unicode="&#xd3;" horiz-adv-x="340" d="M196 800 L261 800 L189 740 L150 740 L196 800 Z M236 613 Q236 632 218 643 Q200 654 170 654 Q140 654 121.5 643 Q103 632 103 613 L103 87 Q103 68 121.5 57 Q140 46 170 46 Q200 46 218 57 Q236 68 236 87 L236 613 Z M300 98 Q300 49 264.5 19.5 Q229 -10 170 -10 Q110 -10 74.5 19.5 Q39 49 39 98 L39 602 Q39 651 74.5 680.5 Q110 710 170 710 Q229 710 264.5 680.5 Q300 651 300 602 L300 98 Z " />
<glyph glyph-name="Ocircumflex" unicode="&#xd4;" horiz-adv-x="340" d="M236 613 Q236 632 218 643 Q200 654 170 654 Q140 654 121.5 643 Q103 632 103 613 L103 87 Q103 68 121.5 57 Q140 46 170 46 Q200 46 218 57 Q236 68 236 87 L236 613 Z M300 98 Q300 49 264.5 19.5 Q229 -10 170 -10 Q110 -10 74.5 19.5 Q39 49 39 98 L39 602 Q39 651 74.5 680.5 Q110 710 170 710 Q229 710 264.5 680.5 Q300 651 300 602 L300 98 Z M203 800 L263 740 L222 740 L170 777 L118 740 L77 740 L137 800 L203 800 Z " />
<glyph glyph-name="Otilde" unicode="&#xd5;" horiz-adv-x="340" d="M68 729 Q63 756 76 772.5 Q89 789 115 789 Q127 789 145 783.5 Q163 778 180 770 Q188 766 198.5 763.5 Q209 761 218 761 Q229 761 236.5 767 Q244 773 241 789 L271 789 Q276 762 263 745.5 Q250 729 224 729 Q212 729 194 734.5 Q176 740 159 748 Q151 752 140.5 754.5 Q130 757 121 757 Q110 757 102.5 751 Q95 745 98 729 L68 729 Z M236 613 Q236 632 218 643 Q200 654 170 654 Q140 654 121.5 643 Q103 632 103 613 L103 87 Q103 68 121.5 57 Q140 46 170 46 Q200 46 218 57 Q236 68 236 87 L236 613 Z M300 98 Q300 49 264.5 19.5 Q229 -10 170 -10 Q110 -10 74.5 19.5 Q39 49 39 98 L39 602 Q39 651 74.5 680.5 Q110 710 170 710 Q229 710 264.5 680.5 Q300 651 300 602 L300 98 Z " />
<glyph glyph-name="Odieresis" unicode="&#xd6;" horiz-adv-x="340" d="M184 796 L240 796 L240 740 L184 740 L184 796 Z M99 796 L155 796 L155 740 L99 740 L99 796 Z M236 613 Q236 632 218 643 Q200 654 170 654 Q140 654 121.5 643 Q103 632 103 613 L103 87 Q103 68 121.5 57 Q140 46 170 46 Q200 46 218 57 Q236 68 236 87 L236 613 Z M300 98 Q300 49 264.5 19.5 Q229 -10 170 -10 Q110 -10 74.5 19.5 Q39 49 39 98 L39 602 Q39 651 74.5 680.5 Q110 710 170 710 Q229 710 264.5 680.5 Q300 651 300 602 L300 98 Z " />
<glyph glyph-name="Oslash" unicode="&#xd8;" horiz-adv-x="340" d="M47 55 Q38 75 38 99 L38 603 Q38 652 73.5 681.5 Q109 711 169 711 Q236 711 272 673 L286 710 L314 710 L291 646 Q300 627 300 602 L300 98 Q300 49 264.5 19.5 Q229 -10 170 -10 Q102 -10 66 28 L52 -9 L24 -9 L47 55 Z M103 205 L236 572 L236 613 Q236 632 218 643 Q200 654 170 654 Q140 654 121.5 643 Q103 632 103 613 L103 205 Z M103 87 Q103 68 121.5 57 Q140 46 170 46 Q200 46 218 57 Q236 68 236 87 L236 495 L103 128 L103 87 Z " />
<glyph glyph-name="Ugrave" unicode="&#xd9;" horiz-adv-x="340" d="M78 800 L143 800 L189 740 L150 740 L78 800 Z M300 700 L300 98 Q300 49 264.5 19.5 Q229 -10 170 -10 Q110 -10 74.5 19.5 Q39 49 39 98 L39 700 L103 700 L103 87 Q103 68 121.5 57 Q140 46 170 46 Q200 46 218 57 Q236 68 236 87 L236 700 L300 700 Z " />
<glyph glyph-name="Uacute" unicode="&#xda;" horiz-adv-x="340" d="M196 800 L261 800 L189 740 L150 740 L196 800 Z M300 700 L300 98 Q300 49 264.5 19.5 Q229 -10 170 -10 Q110 -10 74.5 19.5 Q39 49 39 98 L39 700 L103 700 L103 87 Q103 68 121.5 57 Q140 46 170 46 Q200 46 218 57 Q236 68 236 87 L236 700 L300 700 Z " />
<glyph glyph-name="Ucircumflex" unicode="&#xdb;" horiz-adv-x="340" d="M203 800 L263 740 L222 740 L170 777 L118 740 L77 740 L137 800 L203 800 Z M301 700 L301 98 Q301 49 265.5 19.5 Q230 -10 171 -10 Q111 -10 75.5 19.5 Q40 49 40 98 L40 700 L104 700 L104 87 Q104 68 122.5 57 Q141 46 171 46 Q201 46 219 57 Q237 68 237 87 L237 700 L301 700 Z " />
<glyph glyph-name="Udieresis" unicode="&#xdc;" horiz-adv-x="340" d="M184 796 L240 796 L240 740 L184 740 L184 796 Z M99 796 L155 796 L155 740 L99 740 L99 796 Z M300 700 L300 98 Q300 49 264.5 19.5 Q229 -10 170 -10 Q110 -10 74.5 19.5 Q39 49 39 98 L39 700 L103 700 L103 87 Q103 68 121.5 57 Q140 46 170 46 Q200 46 218 57 Q236 68 236 87 L236 700 L300 700 Z " />
<glyph glyph-name="Yacute" unicode="&#xdd;" horiz-adv-x="364" d="M207 800 L272 800 L201 740 L161 740 L207 800 Z M150 296 L33 700 L100 700 Q120 615 141.5 530 Q163 445 183 360 Q203 445 222 530 Q241 615 261 700 L329 700 Q300 600 271.5 498 Q243 396 214 296 L214 0 L150 0 L150 296 Z " />
<glyph glyph-name="agrave" unicode="&#xe0;" horiz-adv-x="316" d="M130 325 Q171 333 195.5 345 Q220 357 220 388 L220 515 Q220 534 204.5 545.5 Q189 557 157 557 Q129 557 112 545.5 Q95 534 95 514 L95 443 Q94 421 94 398 L34 398 L34 506 Q34 553 67.5 581.5 Q101 610 157 610 Q220 610 250.5 581.5 Q281 553 281 506 L281 0 L220 0 L220 49 Q208 21 185 5.5 Q162 -10 131 -10 Q85 -10 58 18.5 Q31 47 30 95 Q30 110 30 129 Q29 146 29 168.5 Q29 191 29 217 Q29 257 56.5 286.5 Q84 316 130 325 Z M155 42 Q184 42 202 60 Q220 78 220 108 L220 317 Q206 301 185.5 293 Q165 285 139 280 Q117 275 103.5 258 Q90 241 90 217 L90 108 Q90 78 108 60 Q126 42 155 42 Z M129 700 L175 640 L135 640 L64 700 L129 700 Z " />
<glyph glyph-name="aacute" unicode="&#xe1;" horiz-adv-x="316" d="M29 217 Q29 257 56.5 286.5 Q84 316 130 325 Q171 333 195.5 345 Q220 357 220 388 L220 515 Q220 534 204.5 545.5 Q189 557 157 557 Q129 557 112 545.5 Q95 534 95 514 L95 443 Q94 421 94 398 L34 398 L34 506 Q34 553 67.5 581.5 Q101 610 157 610 Q220 610 250.5 581.5 Q281 553 281 506 L281 0 L220 0 L220 49 Q208 21 185 5.5 Q162 -10 131 -10 Q85 -10 58 18.5 Q31 47 30 95 Q30 110 30 129 Q29 146 29 168.5 Q29 191 29 217 Z M155 42 Q184 42 202 60 Q220 78 220 108 L220 317 Q206 301 185.5 293 Q165 285 139 280 Q117 275 103.5 258 Q90 241 90 217 L90 108 Q90 78 108 60 Q126 42 155 42 Z M135 640 L181 700 L246 700 L175 640 L135 640 Z " />
<glyph glyph-name="acircumflex" unicode="&#xe2;" horiz-adv-x="316" d="M29 217 Q29 257 56.5 286.5 Q84 316 130 325 Q171 333 195.5 345 Q220 357 220 388 L220 515 Q220 534 204.5 545.5 Q189 557 157 557 Q129 557 112 545.5 Q95 534 95 514 L95 443 Q94 421 94 398 L34 398 L34 506 Q34 553 67.5 581.5 Q101 610 157 610 Q220 610 250.5 581.5 Q281 553 281 506 L281 0 L220 0 L220 49 Q208 21 185 5.5 Q162 -10 131 -10 Q85 -10 58 18.5 Q31 47 30 95 Q30 110 30 129 Q29 146 29 168.5 Q29 191 29 217 Z M155 42 Q184 42 202 60 Q220 78 220 108 L220 317 Q206 301 185.5 293 Q165 285 139 280 Q117 275 103.5 258 Q90 241 90 217 L90 108 Q90 78 108 60 Q126 42 155 42 Z M63 640 L123 700 L187 700 L247 640 L207 640 L155 677 L103 640 L63 640 Z " />
<glyph glyph-name="atilde" unicode="&#xe3;" horiz-adv-x="316" d="M29 217 Q29 257 56.5 286.5 Q84 316 130 325 Q171 333 195.5 345 Q220 357 220 388 L220 515 Q220 534 204.5 545.5 Q189 557 157 557 Q129 557 112 545.5 Q95 534 95 514 L95 443 Q94 421 94 398 L34 398 L34 506 Q34 553 67.5 581.5 Q101 610 157 610 Q220 610 250.5 581.5 Q281 553 281 506 L281 0 L220 0 L220 49 Q208 21 185 5.5 Q162 -10 131 -10 Q85 -10 58 18.5 Q31 47 30 95 Q30 110 30 129 Q29 146 29 168.5 Q29 191 29 217 Z M90 217 L90 108 Q90 78 108 60 Q126 42 155 42 Q184 42 202 60 Q220 78 220 108 L220 317 Q206 301 185.5 293 Q165 285 139 280 Q117 275 103.5 258 Q90 241 90 217 Z M100 693 Q112 693 130.5 687.5 Q149 682 166 674 Q175 670 185.5 667 Q196 664 204 664 Q216 664 222 672 Q228 680 226 693 L257 693 Q262 666 249 649.5 Q236 633 210 633 Q198 633 179.5 638.5 Q161 644 144 652 Q135 656 124.5 659 Q114 662 106 662 Q94 662 88 654 Q82 646 84 633 L53 633 Q48 660 61 676.5 Q74 693 100 693 Z " />
<glyph glyph-name="adieresis" unicode="&#xe4;" horiz-adv-x="316" d="M130 325 Q171 333 195.5 345 Q220 357 220 388 L220 515 Q220 534 204.5 545.5 Q189 557 157 557 Q129 557 112 545.5 Q95 534 95 514 L95 443 Q94 421 94 398 L34 398 L34 506 Q34 553 67.5 581.5 Q101 610 157 610 Q220 610 250.5 581.5 Q281 553 281 506 L281 0 L220 0 L220 49 Q208 21 185 5.5 Q162 -10 131 -10 Q85 -10 58 18.5 Q31 47 30 95 Q30 110 30 129 Q29 146 29 168.5 Q29 191 29 217 Q29 257 56.5 286.5 Q84 316 130 325 Z M155 42 Q184 42 202 60 Q220 78 220 108 L220 317 Q206 301 185.5 293 Q165 285 139 280 Q117 275 103.5 258 Q90 241 90 217 L90 108 Q90 78 108 60 Q126 42 155 42 Z M226 696 L226 640 L170 640 L170 696 L226 696 Z M84 640 L84 696 L140 696 L140 640 L84 640 Z " />
<glyph glyph-name="aring" unicode="&#xe5;" horiz-adv-x="316" d="M155 688 Q146 688 141.5 684 Q137 680 137 674.5 Q137 669 141.5 665 Q146 661 155 661 Q164 661 168.5 665 Q173 669 173 674.5 Q173 680 168.5 684 Q164 688 155 688 Z M109 674 Q109 691 123.5 700 Q138 709 155 709 Q172 709 186.5 700 Q201 691 201 674 Q201 657 186.5 649 Q172 641 155 641 Q138 641 123.5 649 Q109 657 109 674 Z M34 506 Q34 553 67.5 581.5 Q101 610 157 610 Q220 610 250.5 581.5 Q281 553 281 506 L281 0 L220 0 L220 49 Q208 21 185 5.5 Q162 -10 131 -10 Q85 -10 58 18.5 Q31 47 30 95 Q30 110 30 129 Q29 146 29 168.5 Q29 191 29 217 Q29 257 56.5 286.5 Q84 316 130 325 Q171 333 195.5 345 Q220 357 220 388 L220 515 Q220 534 204.5 545.5 Q189 557 157 557 Q129 557 112 545.5 Q95 534 95 514 L95 443 Q94 421 94 398 L34 398 L34 506 Z M220 317 Q206 301 185.5 293 Q165 285 139 280 Q117 275 103.5 258 Q90 241 90 217 L90 108 Q90 78 108 60 Q126 42 155 42 Q184 42 202 60 Q220 78 220 108 L220 317 Z " />
<glyph glyph-name="ccedilla" unicode="&#xe7;" horiz-adv-x="329" d="M293 98 Q293 51 261 21.5 Q229 -8 175 -11 L165 -24 Q170 -23 175.5 -22.5 Q181 -22 186 -22 Q205 -22 219 -29 Q233 -36 233 -52 L233 -59 Q233 -74 215.5 -81.5 Q198 -89 176 -89 Q153 -89 133.5 -81 Q114 -73 114 -58 L144 -58 Q144 -63 154.5 -65.5 Q165 -68 177 -68 Q188 -68 196 -66 Q204 -64 204 -59 Q204 -49 199 -46 Q194 -43 177 -43 Q171 -43 160.5 -44.5 Q150 -46 147 -48 L121 -48 L146 -9 Q95 -4 64.5 25 Q34 54 34 99 L34 501 Q34 550 69.5 580 Q105 610 164 610 Q223 610 258.5 580 Q294 550 294 501 L294 370 L233 370 L233 501 Q233 527 214 542 Q195 557 164 557 Q133 557 114 542.5 Q95 528 95 504 L95 96 Q95 72 114 57.5 Q133 43 164 43 Q195 43 214 57.5 Q233 72 233 96 L233 225 L294 225 L293 98 Z " />
<glyph glyph-name="egrave" unicode="&#xe8;" horiz-adv-x="329" d="M73 700 L138 700 L184 640 L144 640 L73 700 Z M294 100 Q294 50 258.5 20 Q223 -10 164 -10 Q105 -10 69.5 20 Q34 50 34 99 L34 501 Q34 550 69.5 580 Q105 610 164 610 Q223 610 258.5 580 Q294 550 294 501 L294 312 L95 312 L95 96 Q95 72 114 57.5 Q133 43 164 43 Q195 43 214 57.5 Q233 72 233 96 L233 225 L294 225 L294 100 Z M233 501 Q233 527 214 542 Q195 557 164 557 Q133 557 114 542.5 Q95 528 95 504 L95 365 L233 365 L233 501 Z " />
<glyph glyph-name="eacute" unicode="&#xe9;" horiz-adv-x="329" d="M190 700 L255 700 L184 640 L144 640 L190 700 Z M294 100 Q294 50 258.5 20 Q223 -10 164 -10 Q105 -10 69.5 20 Q34 50 34 99 L34 501 Q34 550 69.5 580 Q105 610 164 610 Q223 610 258.5 580 Q294 550 294 501 L294 312 L95 312 L95 96 Q95 72 114 57.5 Q133 43 164 43 Q195 43 214 57.5 Q233 72 233 96 L233 225 L294 225 L294 100 Z M233 501 Q233 527 214 542 Q195 557 164 557 Q133 557 114 542.5 Q95 528 95 504 L95 365 L233 365 L233 501 Z " />
<glyph glyph-name="ecircumflex" unicode="&#xea;" horiz-adv-x="329" d="M294 100 Q294 50 258.5 20 Q223 -10 164 -10 Q105 -10 69.5 20 Q34 50 34 99 L34 501 Q34 550 69.5 580 Q105 610 164 610 Q223 610 258.5 580 Q294 550 294 501 L294 312 L95 312 L95 96 Q95 72 114 57.5 Q133 43 164 43 Q195 43 214 57.5 Q233 72 233 96 L233 225 L294 225 L294 100 Z M196 700 L256 640 L216 640 L164 677 L112 640 L72 640 L132 700 L196 700 Z M233 501 Q233 527 214 542 Q195 557 164 557 Q133 557 114 542.5 Q95 528 95 504 L95 365 L233 365 L233 501 Z " />
<glyph glyph-name="edieresis" unicode="&#xeb;" horiz-adv-x="329" d="M179 696 L235 696 L235 640 L179 640 L179 696 Z M93 696 L149 696 L149 640 L93 640 L93 696 Z M294 100 Q294 50 258.5 20 Q223 -10 164 -10 Q105 -10 69.5 20 Q34 50 34 99 L34 501 Q34 550 69.5 580 Q105 610 164 610 Q223 610 258.5 580 Q294 550 294 501 L294 312 L95 312 L95 96 Q95 72 114 57.5 Q133 43 164 43 Q195 43 214 57.5 Q233 72 233 96 L233 225 L294 225 L294 100 Z M233 501 Q233 527 214 542 Q195 557 164 557 Q133 557 114 542.5 Q95 528 95 504 L95 365 L233 365 L233 501 Z " />
<glyph glyph-name="igrave" unicode="&#xec;" horiz-adv-x="131" d="M-26 700 L39 700 L85 640 L46 640 L-26 700 Z M35 0 L35 600 L96 600 L96 0 L35 0 Z " />
<glyph glyph-name="iacute" unicode="&#xed;" horiz-adv-x="131" d="M92 700 L157 700 L85 640 L46 640 L92 700 Z M35 0 L35 600 L96 600 L96 0 L35 0 Z " />
<glyph glyph-name="icircumflex" unicode="&#xee;" horiz-adv-x="131" d="M99 700 L159 640 L118 640 L66 677 L14 640 L-27 640 L33 700 L99 700 Z M36 0 L36 600 L97 600 L97 0 L36 0 Z " />
<glyph glyph-name="idieresis" unicode="&#xef;" horiz-adv-x="131" d="M80 696 L136 696 L136 640 L80 640 L80 696 Z M-5 696 L51 696 L51 640 L-5 640 L-5 696 Z M35 0 L35 600 L96 600 L96 0 L35 0 Z " />
<glyph glyph-name="ntilde" unicode="&#xf1;" horiz-adv-x="329" d="M62 634 Q57 661 70 677.5 Q83 694 109 694 Q121 694 139.5 688.5 Q158 683 175 675 Q184 671 194.5 668 Q205 665 213 665 Q225 665 231 673 Q237 681 235 694 L266 694 Q271 667 258 650.5 Q245 634 219 634 Q207 634 188.5 639.5 Q170 645 153 653 Q144 657 133.5 660 Q123 663 115 663 Q103 663 97 655 Q91 647 93 634 L62 634 Z M233 0 L233 3 Q233 14 233 45 Q233 76 233 118.5 Q233 161 233.5 212 Q234 263 234 313.5 Q234 364 234 410.5 Q234 457 234 492 Q234 521 214.5 538.5 Q195 556 163 556 Q132 556 113.5 538 Q95 520 95 490 L95 0 L34 0 L34 600 L95 600 L95 560 Q109 583 131.5 596.5 Q154 610 184 610 Q234 610 264 581.5 Q294 553 294 505 L294 0 L233 0 Z " />
<glyph glyph-name="ograve" unicode="&#xf2;" horiz-adv-x="330" d="M74 700 L139 700 L185 640 L145 640 L74 700 Z M235 510 Q235 531 216 544 Q197 557 165 557 Q133 557 113.5 544 Q94 531 94 510 L94 90 Q94 69 113.5 56 Q133 43 165 43 Q197 43 216 56 Q235 69 235 90 L235 510 Z M295 101 Q295 50 259.5 20 Q224 -10 165 -10 Q106 -10 70.5 20 Q35 50 35 101 L35 499 Q35 550 70.5 580 Q106 610 165 610 Q224 610 259.5 580 Q295 550 295 499 L295 101 Z " />
<glyph glyph-name="oacute" unicode="&#xf3;" horiz-adv-x="330" d="M191 700 L256 700 L185 640 L145 640 L191 700 Z M235 510 Q235 531 216 544 Q197 557 165 557 Q133 557 113.5 544 Q94 531 94 510 L94 90 Q94 69 113.5 56 Q133 43 165 43 Q197 43 216 56 Q235 69 235 90 L235 510 Z M295 101 Q295 50 259.5 20 Q224 -10 165 -10 Q106 -10 70.5 20 Q35 50 35 101 L35 499 Q35 550 70.5 580 Q106 610 165 610 Q224 610 259.5 580 Q295 550 295 499 L295 101 Z " />
<glyph glyph-name="ocircumflex" unicode="&#xf4;" horiz-adv-x="330" d="M235 510 Q235 531 216 544 Q197 557 165 557 Q133 557 113.5 544 Q94 531 94 510 L94 90 Q94 69 113.5 56 Q133 43 165 43 Q197 43 216 56 Q235 69 235 90 L235 510 Z M295 101 Q295 50 259.5 20 Q224 -10 165 -10 Q106 -10 70.5 20 Q35 50 35 101 L35 499 Q35 550 70.5 580 Q106 610 165 610 Q224 610 259.5 580 Q295 550 295 499 L295 101 Z M197 700 L257 640 L217 640 L165 677 L113 640 L73 640 L133 700 L197 700 Z " />
<glyph glyph-name="otilde" unicode="&#xf5;" horiz-adv-x="330" d="M63 634 Q58 661 71 677.5 Q84 694 110 694 Q122 694 140.5 688.5 Q159 683 176 675 Q185 671 195.5 668 Q206 665 214 665 Q226 665 232 673 Q238 681 236 694 L267 694 Q272 667 259 650.5 Q246 634 220 634 Q208 634 189.5 639.5 Q171 645 154 653 Q145 657 134.5 660 Q124 663 116 663 Q104 663 98 655 Q92 647 94 634 L63 634 Z M235 510 Q235 531 216 544 Q197 557 165 557 Q133 557 113.5 544 Q94 531 94 510 L94 90 Q94 69 113.5 56 Q133 43 165 43 Q197 43 216 56 Q235 69 235 90 L235 510 Z M295 101 Q295 50 259.5 20 Q224 -10 165 -10 Q106 -10 70.5 20 Q35 50 35 101 L35 499 Q35 550 70.5 580 Q106 610 165 610 Q224 610 259.5 580 Q295 550 295 499 L295 101 Z " />
<glyph glyph-name="odieresis" unicode="&#xf6;" horiz-adv-x="330" d="M180 696 L236 696 L236 640 L180 640 L180 696 Z M94 696 L150 696 L150 640 L94 640 L94 696 Z M235 510 Q235 531 216 544 Q197 557 165 557 Q133 557 113.5 544 Q94 531 94 510 L94 90 Q94 69 113.5 56 Q133 43 165 43 Q197 43 216 56 Q235 69 235 90 L235 510 Z M295 101 Q295 50 259.5 20 Q224 -10 165 -10 Q106 -10 70.5 20 Q35 50 35 101 L35 499 Q35 550 70.5 580 Q106 610 165 610 Q224 610 259.5 580 Q295 550 295 499 L295 101 Z " />
<glyph glyph-name="oslash" unicode="&#xf8;" horiz-adv-x="330" d="M21 -10 L47 51 Q36 75 36 102 L36 500 Q36 551 71.5 581 Q107 611 166 611 Q231 611 267 575 L282 611 L310 611 L284 550 Q295 526 295 499 L295 101 Q295 50 259.5 20 Q224 -10 165 -10 Q100 -10 64 26 L49 -10 L21 -10 Z M235 500 L235 510 Q235 531 216 544 Q197 557 165 557 Q133 557 113.5 544 Q94 531 94 510 L94 164 L235 500 Z M94 97 Q94 42 165 42 Q197 42 216 55 Q235 68 235 89 L235 433 L94 97 Z " />
<glyph glyph-name="ugrave" unicode="&#xf9;" horiz-adv-x="330" d="M34 595 L34 600 L95 600 L95 108 Q95 79 114 61 Q133 43 164 43 Q196 43 215 61 Q234 79 234 108 L234 600 L295 600 L295 0 L234 0 L234 54 Q222 24 198.5 7 Q175 -10 143 -10 Q94 -10 64.5 18.5 Q35 47 35 95 L34 595 Z M138 700 L184 640 L145 640 L73 700 L138 700 Z " />
<glyph glyph-name="uacute" unicode="&#xfa;" horiz-adv-x="330" d="M34 595 L34 600 L95 600 L95 108 Q95 79 114 61 Q133 43 164 43 Q196 43 215 61 Q234 79 234 108 L234 600 L295 600 L295 0 L234 0 L234 54 Q222 24 198.5 7 Q175 -10 143 -10 Q94 -10 64.5 18.5 Q35 47 35 95 L34 595 Z M191 700 L256 700 L184 640 L145 640 L191 700 Z " />
<glyph glyph-name="ucircumflex" unicode="&#xfb;" horiz-adv-x="330" d="M34 600 L95 600 L95 108 Q95 79 114 61 Q133 43 164 43 Q196 43 215 61 Q234 79 234 108 L234 600 L295 600 L295 0 L234 0 L234 54 Q222 24 198.5 7 Q175 -10 143 -10 Q94 -10 64.5 18.5 Q35 47 35 95 L34 595 L34 600 Z M132 700 L198 700 L258 640 L217 640 L165 677 L113 640 L72 640 L132 700 Z " />
<glyph glyph-name="udieresis" unicode="&#xfc;" horiz-adv-x="330" d="M34 595 L34 600 L95 600 L95 108 Q95 79 114 61 Q133 43 164 43 Q196 43 215 61 Q234 79 234 108 L234 600 L295 600 L295 0 L234 0 L234 54 Q222 24 198.5 7 Q175 -10 143 -10 Q94 -10 64.5 18.5 Q35 47 35 95 L34 595 Z M179 640 L179 696 L235 696 L235 640 L179 640 Z M94 696 L150 696 L150 640 L94 640 L94 696 Z " />
<glyph glyph-name="yacute" unicode="&#xfd;" horiz-adv-x="330" d="M95 600 L95 166 Q95 139 114 122.5 Q133 106 165 106 Q195 106 214 120.5 Q233 135 235 160 Q235 229 234.5 300.5 Q234 372 233.5 433.5 Q233 495 233 540 Q233 585 233 600 L295 600 L295 11 Q295 -40 259.5 -70 Q224 -100 165 -100 Q105 -100 69.5 -70 Q34 -40 34 9 L34 27 L95 27 L95 -1 Q95 -22 114 -34.5 Q133 -47 165 -47 Q197 -47 216 -33.5 Q235 -20 235 2 L235 112 Q222 84 199 68.5 Q176 53 144 53 Q95 53 65 80.5 Q35 108 35 153 Q35 154 35 173 Q35 192 34.5 223.5 Q34 255 34 294.5 Q34 334 34 375 Q34 472 34 595 L34 600 L95 600 Z M145 640 L191 700 L256 700 L185 640 L145 640 Z " />
<glyph glyph-name="ydieresis" unicode="&#xff;" horiz-adv-x="330" d="M95 27 L95 -1 Q95 -22 114 -34.5 Q133 -47 165 -47 Q197 -47 216 -33.5 Q235 -20 235 2 L235 112 Q222 84 199 68.5 Q176 53 144 53 Q95 53 65 80.5 Q35 108 35 153 Q35 154 35 173 Q35 192 34.5 223.5 Q34 255 34 294.5 Q34 334 34 375 Q34 472 34 595 L34 600 L95 600 L95 166 Q95 139 114 122.5 Q133 106 165 106 Q195 106 214 120.5 Q233 135 235 160 Q235 229 234.5 300.5 Q234 372 233.5 433.5 Q233 495 233 540 Q233 585 233 600 L295 600 L295 11 Q295 -40 259.5 -70 Q224 -100 165 -100 Q105 -100 69.5 -70 Q34 -40 34 9 L34 27 L95 27 Z M236 696 L236 640 L180 640 L180 696 L236 696 Z M94 640 L94 696 L150 696 L150 640 L94 640 Z " />
<glyph glyph-name="Amacron" unicode="&#x100;" horiz-adv-x="312" d="M31 783 L281 783 L281 743 L31 743 L31 783 Z M14 0 Q39 175 64 350.5 Q89 526 114 701 L195 701 L296 1 L232 1 L208 190 L103 190 Q97 143 90.5 95 Q84 47 78 0 L14 0 Z M155 597 L110 247 L200 247 L155 597 Z " />
<glyph glyph-name="amacron" unicode="&#x101;" horiz-adv-x="316" d="M130 325 Q171 333 195.5 345 Q220 357 220 388 L220 515 Q220 534 204.5 545.5 Q189 557 157 557 Q129 557 112 545.5 Q95 534 95 514 L95 443 Q94 421 94 398 L34 398 L34 506 Q34 553 67.5 581.5 Q101 610 157 610 Q220 610 250.5 581.5 Q281 553 281 506 L281 0 L220 0 L220 49 Q208 21 185 5.5 Q162 -10 131 -10 Q85 -10 58 18.5 Q31 47 30 95 Q30 110 30 129 Q29 146 29 168.5 Q29 191 29 217 Q29 257 56.5 286.5 Q84 316 130 325 Z M155 42 Q184 42 202 60 Q220 78 220 108 L220 317 Q206 301 185.5 293 Q165 285 139 280 Q117 275 103.5 258 Q90 241 90 217 L90 108 Q90 78 108 60 Q126 42 155 42 Z M30 683 L280 683 L280 643 L30 643 L30 683 Z " />
<glyph glyph-name="Abreve" unicode="&#x102;" horiz-adv-x="312" d="M98 804 Q98 787 111 780.5 Q124 774 156 774 Q182 774 193 780.5 Q204 787 204 804 L244 804 Q244 769 224 754.5 Q204 740 156 740 Q102 740 80 754.5 Q58 769 58 804 L98 804 Z M14 0 Q39 175 64 350.5 Q89 526 114 701 L195 701 L296 1 L232 1 L208 190 L103 190 Q97 143 90.5 95 Q84 47 78 0 L14 0 Z M155 597 L110 247 L200 247 L155 597 Z " />
<glyph glyph-name="abreve" unicode="&#x103;" horiz-adv-x="316" d="M29 217 Q29 257 56.5 286.5 Q84 316 130 325 Q171 333 195.5 345 Q220 357 220 388 L220 515 Q220 534 204.5 545.5 Q189 557 157 557 Q129 557 112 545.5 Q95 534 95 514 L95 443 Q94 421 94 398 L34 398 L34 506 Q34 553 67.5 581.5 Q101 610 157 610 Q220 610 250.5 581.5 Q281 553 281 506 L281 0 L220 0 L220 49 Q208 21 185 5.5 Q162 -10 131 -10 Q85 -10 58 18.5 Q31 47 30 95 Q30 110 30 129 Q29 146 29 168.5 Q29 191 29 217 Z M90 217 L90 108 Q90 78 108 60 Q126 42 155 42 Q184 42 202 60 Q220 78 220 108 L220 317 Q206 301 185.5 293 Q165 285 139 280 Q117 275 103.5 258 Q90 241 90 217 Z M64 704 L103 704 Q103 687 116 680.5 Q129 674 161 674 Q187 674 198.5 680.5 Q210 687 210 704 L249 704 Q249 669 229 654.5 Q209 640 161 640 Q108 640 86 654.5 Q64 669 64 704 Z " />
<glyph glyph-name="Aogonek" unicode="&#x104;" horiz-adv-x="312" d="M14 0 Q39 174 64 350.5 Q89 527 114 701 L195 701 L296 1 L278 1 Q274 -7 269.5 -19.5 Q265 -32 264 -45 Q263 -58 267 -67 Q271 -76 283 -76 Q302 -76 302 -56 L336 -56 Q336 -75 324 -86.5 Q312 -98 284 -98 Q262 -98 249.5 -88.5 Q237 -79 233.5 -64.5 Q230 -50 234 -32.5 Q238 -15 248 1 L232 1 L208 190 L103 190 Q97 143 90.5 95 Q84 47 78 0 L14 0 Z M200 247 L155 597 L110 247 L200 247 Z " />
<glyph glyph-name="aogonek" unicode="&#x105;" horiz-adv-x="316" d="M130 325 Q171 333 195.5 345 Q220 357 220 388 L220 515 Q220 534 204.5 545.5 Q189 557 157 557 Q129 557 112 545.5 Q95 534 95 514 L95 443 Q94 421 94 398 L34 398 L34 506 Q34 553 67.5 581.5 Q101 610 157 610 Q220 610 250.5 581.5 Q281 553 281 506 L281 0 L261 0 Q257 -8 252.5 -20.5 Q248 -33 247 -46 Q246 -59 250 -68 Q254 -77 266 -77 Q285 -77 285 -57 L318 -57 Q318 -76 306.5 -87.5 Q295 -99 267 -99 Q245 -99 232.5 -89.5 Q220 -80 216.5 -65.5 Q213 -51 217 -33.5 Q221 -16 231 0 L220 0 L220 49 Q208 21 185 5.5 Q162 -10 131 -10 Q85 -10 58 18.5 Q31 47 30 95 Q30 110 30 129 Q29 146 29 168.5 Q29 191 29 217 Q29 257 56.5 286.5 Q84 316 130 325 Z M90 217 L90 108 Q90 78 108 60 Q126 42 155 42 Q184 42 202 60 Q220 78 220 108 L220 317 Q206 301 185.5 293 Q165 285 139 280 Q117 275 103.5 258 Q90 241 90 217 Z " />
<glyph glyph-name="Cacute" unicode="&#x106;" horiz-adv-x="322" d="M197 800 L262 800 L191 740 L151 740 L197 800 Z M302 599 L302 567 L238 567 Q238 577 237.5 588.5 Q237 600 237 610 Q237 630 219 642 Q201 654 171 654 Q140 654 121.5 643 Q103 632 103 613 Q103 493 103 396 Q103 299 104 230 Q104 150 104 87 Q104 68 122.5 57 Q141 46 171 46 Q201 46 219.5 58.5 Q238 71 238 92 L238 131 L302 131 L302 100 Q302 50 266.5 20 Q231 -10 171 -10 Q111 -10 75.5 19.5 Q40 49 40 98 L40 602 Q40 651 75.5 680.5 Q111 710 171 710 Q231 710 266.5 680 Q302 650 302 599 Z " />
<glyph glyph-name="cacute" unicode="&#x107;" horiz-adv-x="329" d="M190 700 L255 700 L184 640 L144 640 L190 700 Z M294 100 Q294 50 258.5 20 Q223 -10 164 -10 Q105 -10 69.5 20 Q34 50 34 99 L34 501 Q34 550 69.5 580 Q105 610 164 610 Q223 610 258.5 580 Q294 550 294 501 L294 370 L233 370 L233 501 Q233 527 214 542 Q195 557 164 557 Q133 557 114 542.5 Q95 528 95 504 L95 96 Q95 72 114 57.5 Q133 43 164 43 Q195 43 214 57.5 Q233 72 233 96 L233 225 L294 225 L294 100 Z " />
<glyph glyph-name="Ccircumflex" unicode="&#x108;" horiz-adv-x="322" d="M302 599 L302 567 L238 567 Q238 577 237.5 588.5 Q237 600 237 610 Q237 630 219 642 Q201 654 171 654 Q140 654 121.5 643 Q103 632 103 613 Q103 493 103 396 Q103 299 104 230 Q104 150 104 87 Q104 68 122.5 57 Q141 46 171 46 Q201 46 219.5 58.5 Q238 71 238 92 L238 131 L302 131 L302 100 Q302 50 266.5 20 Q231 -10 171 -10 Q111 -10 75.5 19.5 Q40 49 40 98 L40 602 Q40 651 75.5 680.5 Q111 710 171 710 Q231 710 266.5 680 Q302 650 302 599 Z M203 800 L263 740 L223 740 L171 777 L119 740 L79 740 L139 800 L203 800 Z " />
<glyph glyph-name="ccircumflex" unicode="&#x109;" horiz-adv-x="329" d="M294 100 Q294 50 258.5 20 Q223 -10 164 -10 Q105 -10 69.5 20 Q34 50 34 99 L34 501 Q34 550 69.5 580 Q105 610 164 610 Q223 610 258.5 580 Q294 550 294 501 L294 370 L233 370 L233 501 Q233 527 214 542 Q195 557 164 557 Q133 557 114 542.5 Q95 528 95 504 L95 96 Q95 72 114 57.5 Q133 43 164 43 Q195 43 214 57.5 Q233 72 233 96 L233 225 L294 225 L294 100 Z M196 700 L256 640 L216 640 L164 677 L112 640 L72 640 L132 700 L196 700 Z " />
<glyph glyph-name="Cdotaccent" unicode="&#x10a;" horiz-adv-x="322" d="M139 793 L203 793 L203 729 L139 729 L139 793 Z M302 599 L302 567 L238 567 Q238 577 237.5 588.5 Q237 600 237 610 Q237 630 219 642 Q201 654 171 654 Q140 654 121.5 643 Q103 632 103 613 Q103 493 103 396 Q103 299 104 230 Q104 150 104 87 Q104 68 122.5 57 Q141 46 171 46 Q201 46 219.5 58.5 Q238 71 238 92 L238 131 L302 131 L302 100 Q302 50 266.5 20 Q231 -10 171 -10 Q111 -10 75.5 19.5 Q40 49 40 98 L40 602 Q40 651 75.5 680.5 Q111 710 171 710 Q231 710 266.5 680 Q302 650 302 599 Z " />
<glyph glyph-name="cdotaccent" unicode="&#x10b;" horiz-adv-x="329" d="M132 693 L196 693 L196 629 L132 629 L132 693 Z M294 100 Q294 50 258.5 20 Q223 -10 164 -10 Q105 -10 69.5 20 Q34 50 34 99 L34 501 Q34 550 69.5 580 Q105 610 164 610 Q223 610 258.5 580 Q294 550 294 501 L294 370 L233 370 L233 501 Q233 527 214 542 Q195 557 164 557 Q133 557 114 542.5 Q95 528 95 504 L95 96 Q95 72 114 57.5 Q133 43 164 43 Q195 43 214 57.5 Q233 72 233 96 L233 225 L294 225 L294 100 Z " />
<glyph glyph-name="Ccaron" unicode="&#x10c;" horiz-adv-x="322" d="M263 794 L203 740 L139 740 L79 794 L119 794 L171 761 L223 794 L263 794 Z M302 599 L302 567 L238 567 Q238 577 237.5 588.5 Q237 600 237 610 Q237 630 219 642 Q201 654 171 654 Q140 654 121.5 643 Q103 632 103 613 Q103 493 103 396 Q103 299 104 230 Q104 150 104 87 Q104 68 122.5 57 Q141 46 171 46 Q201 46 219.5 58.5 Q238 71 238 92 L238 131 L302 131 L302 100 Q302 50 266.5 20 Q231 -10 171 -10 Q111 -10 75.5 19.5 Q40 49 40 98 L40 602 Q40 651 75.5 680.5 Q111 710 171 710 Q231 710 266.5 680 Q302 650 302 599 Z " />
<glyph glyph-name="ccaron" unicode="&#x10d;" horiz-adv-x="329" d="M256 700 L196 640 L132 640 L72 700 L112 700 L164 663 L216 700 L256 700 Z M294 100 Q294 50 258.5 20 Q223 -10 164 -10 Q105 -10 69.5 20 Q34 50 34 99 L34 501 Q34 550 69.5 580 Q105 610 164 610 Q223 610 258.5 580 Q294 550 294 501 L294 370 L233 370 L233 501 Q233 527 214 542 Q195 557 164 557 Q133 557 114 542.5 Q95 528 95 504 L95 96 Q95 72 114 57.5 Q133 43 164 43 Q195 43 214 57.5 Q233 72 233 96 L233 225 L294 225 L294 100 Z " />
<glyph glyph-name="Dcaron" unicode="&#x10e;" horiz-adv-x="351" d="M269 794 L209 740 L144 740 L84 794 L125 794 L176 761 L227 794 L269 794 Z M41 0 L41 700 L171 700 Q235 700 273.5 671.5 Q312 643 312 596 L312 105 Q312 57 273.5 28.5 Q235 0 171 0 L41 0 Z M171 56 Q206 56 227 69.5 Q248 83 248 105 L248 593 Q248 616 227 630 Q206 644 171 644 L105 644 L105 56 L171 56 Z " />
<glyph glyph-name="dcaron" unicode="&#x10f;" horiz-adv-x="330" d="M35 501 Q35 550 65 580 Q95 610 144 610 Q209 610 234 561 L234 700 L295 700 L295 0 L235 0 L235 54 Q223 24 199.5 7 Q176 -10 144 -10 Q95 -10 65.5 18.5 Q36 47 36 95 Q36 141 36 193 Q36 245 35.5 298 Q35 351 35 403 Q35 455 35 501 Z M165 43 Q197 43 216 61 Q235 79 235 108 L235 504 Q235 528 216 542.5 Q197 557 166 557 Q134 557 115 542.5 Q96 528 96 504 L96 108 Q96 79 115 61 Q134 43 165 43 Z M335 603 L355 700 L411 700 L366 603 L335 603 Z " />
<glyph glyph-name="Dcroat" unicode="&#x110;" horiz-adv-x="351" d="M-8 387 L40 387 L40 700 L170 700 Q234 700 272.5 671.5 Q311 643 311 596 L311 105 Q311 57 272.5 28.5 Q234 0 170 0 L40 0 L40 350 L-8 350 L-8 387 Z M170 56 Q205 56 226 69.5 Q247 83 247 105 L247 593 Q247 616 226 630 Q205 644 170 644 L104 644 L104 387 L223 387 L223 350 L104 350 L104 56 L170 56 Z " />
<glyph glyph-name="dslash" unicode="&#x111;" horiz-adv-x="330" d="M35 501 Q35 550 65 580 Q95 610 144 610 Q209 610 234 561 L234 638 L141 638 L142 675 L235 675 L235 700 L296 700 L296 675 L373 675 L373 638 L296 638 L296 0 L235 0 L235 54 Q223 24 199.5 7 Q176 -10 144 -10 Q95 -10 65.5 18.5 Q36 47 36 95 Q36 141 36 193 Q36 245 35.5 298 Q35 351 35 403 Q35 455 35 501 Z M165 43 Q197 43 216 61 Q235 79 235 108 L235 504 Q235 528 216 542.5 Q197 557 166 557 Q134 557 115 542.5 Q96 528 96 504 L96 108 Q96 79 115 61 Q134 43 165 43 Z " />
<glyph glyph-name="Emacron" unicode="&#x112;" horiz-adv-x="289" d="M30 783 L279 783 L279 743 L30 743 L30 783 Z M269 0 L40 0 L40 700 L264 700 L264 640 L104 640 L104 395 L221 395 L221 335 L104 335 L104 60 L269 60 L269 0 Z " />
<glyph glyph-name="emacron" unicode="&#x113;" horiz-adv-x="329" d="M39 683 L289 683 L289 643 L39 643 L39 683 Z M294 100 Q294 50 258.5 20 Q223 -10 164 -10 Q105 -10 69.5 20 Q34 50 34 99 L34 501 Q34 550 69.5 580 Q105 610 164 610 Q223 610 258.5 580 Q294 550 294 501 L294 312 L95 312 L95 96 Q95 72 114 57.5 Q133 43 164 43 Q195 43 214 57.5 Q233 72 233 96 L233 225 L294 225 L294 100 Z M233 501 Q233 527 214 542 Q195 557 164 557 Q133 557 114 542.5 Q95 528 95 504 L95 365 L233 365 L233 501 Z " />
<glyph glyph-name="Ebreve" unicode="&#x114;" horiz-adv-x="289" d="M96 804 Q96 787 109.5 780.5 Q123 774 155 774 Q181 774 192 780.5 Q203 787 203 804 L242 804 Q242 769 222.5 754.5 Q203 740 155 740 Q101 740 79 754.5 Q57 769 57 804 L96 804 Z M269 0 L40 0 L40 700 L264 700 L264 640 L104 640 L104 395 L221 395 L221 335 L104 335 L104 60 L269 60 L269 0 Z " />
<glyph glyph-name="ebreve" unicode="&#x115;" horiz-adv-x="329" d="M106 704 Q106 687 119 680.5 Q132 674 164 674 Q190 674 201 680.5 Q212 687 212 704 L252 704 Q252 669 232 654.5 Q212 640 164 640 Q110 640 88 654.5 Q66 669 66 704 L106 704 Z M294 100 Q294 50 258.5 20 Q223 -10 164 -10 Q105 -10 69.5 20 Q34 50 34 99 L34 501 Q34 550 69.5 580 Q105 610 164 610 Q223 610 258.5 580 Q294 550 294 501 L294 312 L95 312 L95 96 Q95 72 114 57.5 Q133 43 164 43 Q195 43 214 57.5 Q233 72 233 96 L233 225 L294 225 L294 100 Z M233 501 Q233 527 214 542 Q195 557 164 557 Q133 557 114 542.5 Q95 528 95 504 L95 365 L233 365 L233 501 Z " />
<glyph glyph-name="Edotaccent" unicode="&#x116;" horiz-adv-x="289" d="M122 793 L187 793 L187 729 L122 729 L122 793 Z M269 0 L40 0 L40 700 L264 700 L264 640 L104 640 L104 395 L221 395 L221 335 L104 335 L104 60 L269 60 L269 0 Z " />
<glyph glyph-name="edotaccent" unicode="&#x117;" horiz-adv-x="329" d="M132 693 L196 693 L196 629 L132 629 L132 693 Z M294 100 Q294 50 258.5 20 Q223 -10 164 -10 Q105 -10 69.5 20 Q34 50 34 99 L34 501 Q34 550 69.5 580 Q105 610 164 610 Q223 610 258.5 580 Q294 550 294 501 L294 312 L95 312 L95 96 Q95 72 114 57.5 Q133 43 164 43 Q195 43 214 57.5 Q233 72 233 96 L233 225 L294 225 L294 100 Z M233 501 Q233 527 214 542 Q195 557 164 557 Q133 557 114 542.5 Q95 528 95 504 L95 365 L233 365 L233 501 Z " />
<glyph glyph-name="Eogonek" unicode="&#x118;" horiz-adv-x="289" d="M40 0 L40 700 L264 700 L264 640 L104 640 L104 395 L221 395 L221 335 L104 335 L104 60 L269 60 L269 0 L221 0 Q217 -8 212.5 -20.5 Q208 -33 207 -46 Q206 -59 210 -68 Q214 -77 226 -77 Q244 -77 244 -57 L278 -57 Q278 -76 266.5 -87.5 Q255 -99 227 -99 Q204 -99 192 -89.5 Q180 -80 176 -65.5 Q172 -51 176.5 -33.5 Q181 -16 191 0 L40 0 Z " />
<glyph glyph-name="eogonek" unicode="&#x119;" horiz-adv-x="329" d="M292 99 Q292 71 280 49 Q268 27 246 13 Q244 13 241 10.5 Q238 8 236 7 Q231 1 225.5 -13 Q220 -27 218 -41.5 Q216 -56 219 -67 Q222 -78 235 -78 Q254 -78 254 -58 L288 -58 Q288 -77 276 -88.5 Q264 -100 236 -100 Q215 -100 203 -91.5 Q191 -83 187.5 -69.5 Q184 -56 187 -39.5 Q190 -23 198 -7 Q181 -11 161 -11 Q134 -11 110.5 -3 Q87 5 70 20 Q53 35 43.5 55 Q34 75 34 99 L34 501 Q34 550 69.5 580 Q105 610 164 610 Q223 610 258.5 580 Q294 550 294 501 L294 312 L95 312 L95 96 Q95 72 114 57.5 Q133 43 164 43 Q195 43 214 57.5 Q233 72 233 96 L233 225 L294 225 L292 99 Z M231 500 Q231 526 212 541 Q193 556 162 556 Q131 556 112 541.5 Q93 527 93 503 L93 364 L231 364 L231 500 Z " />
<glyph glyph-name="Ecaron" unicode="&#x11a;" horiz-adv-x="289" d="M248 800 L188 740 L123 740 L63 800 L104 800 L155 763 L206 800 L248 800 Z M270 0 L41 0 L41 700 L265 700 L265 640 L105 640 L105 395 L222 395 L222 335 L105 335 L105 60 L270 60 L270 0 Z " />
<glyph glyph-name="ecaron" unicode="&#x11b;" horiz-adv-x="329" d="M256 700 L196 640 L132 640 L72 700 L112 700 L164 663 L216 700 L256 700 Z M294 100 Q294 50 258.5 20 Q223 -10 164 -10 Q105 -10 69.5 20 Q34 50 34 99 L34 501 Q34 550 69.5 580 Q105 610 164 610 Q223 610 258.5 580 Q294 550 294 501 L294 312 L95 312 L95 96 Q95 72 114 57.5 Q133 43 164 43 Q195 43 214 57.5 Q233 72 233 96 L233 225 L294 225 L294 100 Z M233 501 Q233 527 214 542 Q195 557 164 557 Q133 557 114 542.5 Q95 528 95 504 L95 365 L233 365 L233 501 Z " />
<glyph glyph-name="Gcircumflex" unicode="&#x11c;" horiz-adv-x="342" d="M203 800 L263 740 L223 740 L171 777 L119 740 L79 740 L139 800 L203 800 Z M303 338 L303 100 Q303 58 308.5 30.5 Q314 3 322 -1 L317 -6 Q290 6 274 27 Q257 10 230.5 0 Q204 -10 171 -10 Q111 -10 75.5 19.5 Q40 49 40 98 L40 602 Q40 651 75.5 680.5 Q111 710 171 710 Q231 710 266.5 680 Q302 650 302 599 L302 567 L238 567 Q238 577 237.5 588.5 Q237 600 237 610 Q237 630 219 642 Q201 654 171 654 Q140 654 121.5 643 Q103 632 103 613 Q103 493 103 396 Q103 299 104 230 Q104 150 104 87 Q104 68 122.5 57 Q141 46 171 46 Q201 46 219.5 58.5 Q238 71 238 92 L238 282 L198 282 L198 338 L303 338 Z " />
<glyph glyph-name="gcircumflex" unicode="&#x11d;" horiz-adv-x="330" d="M197 700 L257 640 L217 640 L165 677 L113 640 L73 640 L133 700 L197 700 Z M294 601 L294 12 Q294 -39 258.5 -69 Q223 -99 164 -99 Q104 -99 68.5 -69 Q33 -39 33 10 L33 28 L94 28 L94 0 Q94 -21 113 -33.5 Q132 -46 164 -46 Q196 -46 215 -32.5 Q234 -19 234 3 L234 113 Q221 85 198 69.5 Q175 54 143 54 Q94 54 64 81.5 Q34 109 34 154 Q34 193 34 237.5 Q34 282 33.5 328 Q33 374 33 418.5 Q33 463 33 502 Q33 551 63 581 Q93 611 143 611 Q174 611 197 598.5 Q220 586 233 563 L233 600 L294 601 Z M164 107 Q194 107 212.5 121.5 Q231 136 233 161 Q233 207 233 256 Q233 305 232.5 351.5 Q232 398 232 440.5 Q232 483 232 516 Q227 536 209 547 Q191 558 165 558 Q133 558 113.5 543.5 Q94 529 94 505 L94 167 Q94 140 113 123.5 Q132 107 164 107 Z " />
<glyph glyph-name="Gbreve" unicode="&#x11e;" horiz-adv-x="342" d="M113 804 Q113 787 126 780.5 Q139 774 171 774 Q197 774 208 780.5 Q219 787 219 804 L259 804 Q259 769 239 754.5 Q219 740 171 740 Q117 740 95 754.5 Q73 769 73 804 L113 804 Z M303 338 L303 100 Q303 58 308.5 30.5 Q314 3 322 -1 L317 -6 Q290 6 274 27 Q257 10 230.5 0 Q204 -10 171 -10 Q111 -10 75.5 19.5 Q40 49 40 98 L40 602 Q40 651 75.5 680.5 Q111 710 171 710 Q231 710 266.5 680 Q302 650 302 599 L302 567 L238 567 Q238 577 237.5 588.5 Q237 600 237 610 Q237 630 219 642 Q201 654 171 654 Q140 654 121.5 643 Q103 632 103 613 Q103 493 103 396 Q103 299 104 230 Q104 150 104 87 Q104 68 122.5 57 Q141 46 171 46 Q201 46 219.5 58.5 Q238 71 238 92 L238 282 L198 282 L198 338 L303 338 Z " />
<glyph glyph-name="gbreve" unicode="&#x11f;" horiz-adv-x="330" d="M107 704 Q107 687 120 680.5 Q133 674 165 674 Q191 674 202 680.5 Q213 687 213 704 L253 704 Q253 669 233 654.5 Q213 640 165 640 Q111 640 89 654.5 Q67 669 67 704 L107 704 Z M294 601 L294 12 Q294 -39 258.5 -69 Q223 -99 164 -99 Q104 -99 68.5 -69 Q33 -39 33 10 L33 28 L94 28 L94 0 Q94 -21 113 -33.5 Q132 -46 164 -46 Q196 -46 215 -32.5 Q234 -19 234 3 L234 113 Q221 85 198 69.5 Q175 54 143 54 Q94 54 64 81.5 Q34 109 34 154 Q34 193 34 237.5 Q34 282 33.5 328 Q33 374 33 418.5 Q33 463 33 502 Q33 551 63 581 Q93 611 143 611 Q174 611 197 598.5 Q220 586 233 563 L233 600 L294 601 Z M164 107 Q194 107 212.5 121.5 Q231 136 233 161 Q233 207 233 256 Q233 305 232.5 351.5 Q232 398 232 440.5 Q232 483 232 516 Q227 536 209 547 Q191 558 165 558 Q133 558 113.5 543.5 Q94 529 94 505 L94 167 Q94 140 113 123.5 Q132 107 164 107 Z " />
<glyph glyph-name="Gdotaccent" unicode="&#x120;" horiz-adv-x="342" d="M139 793 L203 793 L203 729 L139 729 L139 793 Z M303 338 L303 100 Q303 58 308.5 30.5 Q314 3 322 -1 L317 -6 Q290 6 274 27 Q257 10 230.5 0 Q204 -10 171 -10 Q111 -10 75.5 19.5 Q40 49 40 98 L40 602 Q40 651 75.5 680.5 Q111 710 171 710 Q231 710 266.5 680 Q302 650 302 599 L302 567 L238 567 Q238 577 237.5 588.5 Q237 600 237 610 Q237 630 219 642 Q201 654 171 654 Q140 654 121.5 643 Q103 632 103 613 Q103 493 103 396 Q103 299 104 230 Q104 150 104 87 Q104 68 122.5 57 Q141 46 171 46 Q201 46 219.5 58.5 Q238 71 238 92 L238 282 L198 282 L198 338 L303 338 Z " />
<glyph glyph-name="gdotaccent" unicode="&#x121;" horiz-adv-x="330" d="M133 693 L197 693 L197 629 L133 629 L133 693 Z M294 601 L294 12 Q294 -39 258.5 -69 Q223 -99 164 -99 Q104 -99 68.5 -69 Q33 -39 33 10 L33 28 L94 28 L94 0 Q94 -21 113 -33.5 Q132 -46 164 -46 Q196 -46 215 -32.5 Q234 -19 234 3 L234 113 Q221 85 198 69.5 Q175 54 143 54 Q94 54 64 81.5 Q34 109 34 154 Q34 193 34 237.5 Q34 282 33.5 328 Q33 374 33 418.5 Q33 463 33 502 Q33 551 63 581 Q93 611 143 611 Q174 611 197 598.5 Q220 586 233 563 L233 600 L294 601 Z M164 107 Q194 107 212.5 121.5 Q231 136 233 161 Q233 207 233 256 Q233 305 232.5 351.5 Q232 398 232 440.5 Q232 483 232 516 Q227 536 209 547 Q191 558 165 558 Q133 558 113.5 543.5 Q94 529 94 505 L94 167 Q94 140 113 123.5 Q132 107 164 107 Z " />
<glyph glyph-name="Hcircumflex" unicode="&#x124;" horiz-adv-x="351" d="M209 800 L269 740 L228 740 L176 777 L124 740 L83 740 L143 800 L209 800 Z M248 0 L248 336 L105 336 L105 0 L41 0 L41 700 L105 700 L105 392 L248 392 L248 700 L312 700 L312 0 L248 0 Z " />
<glyph glyph-name="hcircumflex" unicode="&#x125;" horiz-adv-x="329" d="M196 800 L256 740 L216 740 L164 777 L112 740 L72 740 L132 800 L196 800 Z M233 0 L233 3 Q233 14 233 45 Q233 76 233 118.5 Q233 161 233.5 212 Q234 263 234 313.5 Q234 364 234 410.5 Q234 457 234 492 Q234 521 214.5 538.5 Q195 556 163 556 Q132 556 113.5 538 Q95 520 95 490 L95 0 L34 0 L34 700 L95 700 L95 560 Q109 583 131.5 596.5 Q154 610 184 610 Q234 610 264 581.5 Q294 553 294 505 L294 0 L233 0 Z " />
<glyph glyph-name="Itilde" unicode="&#x128;" horiz-adv-x="144" d="M-30 729 Q-35 756 -22 772.5 Q-9 789 17 789 Q29 789 47.5 783.5 Q66 778 83 770 Q92 766 102.5 763 Q113 760 121 760 Q133 760 139 768 Q145 776 143 789 L174 789 Q179 762 166 745.5 Q153 729 127 729 Q115 729 96.5 734.5 Q78 740 61 748 Q52 752 41.5 755 Q31 758 23 758 Q11 758 5 750 Q-1 742 1 729 L-30 729 Z M39 0 L39 700 L104 700 L104 0 L39 0 Z " />
<glyph glyph-name="itilde" unicode="&#x129;" horiz-adv-x="131" d="M-36 629 Q-41 656 -28 672.5 Q-15 689 11 689 Q23 689 41 683.5 Q59 678 76 670 Q84 666 94.5 663.5 Q105 661 114 661 Q125 661 132.5 667 Q140 673 137 689 L167 689 Q172 662 159 645.5 Q146 629 120 629 Q108 629 90 634.5 Q72 640 55 648 Q47 652 36.5 654.5 Q26 657 17 657 Q6 657 -1.5 651 Q-9 645 -6 629 L-36 629 Z M35 0 L35 600 L96 600 L96 0 L35 0 Z " />
<glyph glyph-name="Imacron" unicode="&#x12a;" horiz-adv-x="144" d="M-53 783 L197 783 L197 743 L-53 743 L-53 783 Z M39 0 L39 700 L104 700 L104 0 L39 0 Z " />
<glyph glyph-name="imacron" unicode="&#x12b;" horiz-adv-x="131" d="M-59 683 L190 683 L190 643 L-59 643 L-59 683 Z M35 0 L35 600 L96 600 L96 0 L35 0 Z " />
<glyph glyph-name="Iogonek" unicode="&#x12e;" horiz-adv-x="144" d="M52 0 L39 0 L39 700 L104 700 L104 0 L82 0 Q78 -8 73.5 -20.5 Q69 -33 68 -46 Q67 -59 71 -68 Q75 -77 87 -77 Q105 -77 105 -57 L139 -57 Q139 -76 127.5 -87.5 Q116 -99 88 -99 Q65 -99 53 -89.5 Q41 -80 37 -65.5 Q33 -51 37.5 -33.5 Q42 -16 52 0 Z " />
<glyph glyph-name="iogonek" unicode="&#x12f;" horiz-adv-x="131" d="M45 0 L35 0 L35 600 L96 600 L96 0 L75 0 Q71 -8 66.5 -20.5 Q62 -33 61 -46 Q60 -59 64 -68 Q68 -77 80 -77 Q88 -77 93 -72 Q98 -68 98 -57 L132 -57 Q132 -76 120.5 -87.5 Q109 -99 81 -99 Q58 -99 46 -89.5 Q34 -80 30 -65.5 Q26 -51 30.5 -33.5 Q35 -16 45 0 Z M98 698 L98 633 L33 633 L33 698 L98 698 Z " />
<glyph glyph-name="Idot" unicode="&#x130;" horiz-adv-x="144" d="M40 793 L104 793 L104 729 L40 729 L40 793 Z M39 0 L39 700 L104 700 L104 0 L39 0 Z " />
<glyph glyph-name="dotlessi" unicode="&#x131;" horiz-adv-x="131" d="M35 0 L35 600 L96 600 L96 0 L35 0 Z " />
<glyph glyph-name="Jcircumflex" unicode="&#x134;" horiz-adv-x="308" d="M271 800 L331 740 L290 740 L238 777 L186 740 L145 740 L205 800 L271 800 Z M269 700 L269 95 Q269 47 233.5 18.5 Q198 -10 139 -10 Q80 -10 44 18.5 Q8 47 9 94 Q9 101 10 109 L10 142 L74 142 L74 86 Q74 68 92.5 57 Q111 46 141 46 Q171 46 189.5 58.5 Q208 71 208 91 L208 700 L269 700 Z " />
<glyph glyph-name="Lacute" unicode="&#x139;" horiz-adv-x="269" d="M98 800 L163 800 L92 740 L52 740 L98 800 Z M254 0 L40 0 L40 700 L104 700 L104 60 L254 60 L254 0 Z " />
<glyph glyph-name="lacute" unicode="&#x13a;" horiz-adv-x="131" d="M91 800 L156 800 L85 740 L45 740 L91 800 Z M35 0 L35 700 L96 700 L96 0 L35 0 Z " />
<glyph glyph-name="Lcaron" unicode="&#x13d;" horiz-adv-x="269" d="M144 603 L164 700 L220 700 L175 603 L144 603 Z M254 0 L40 0 L40 700 L104 700 L104 60 L254 60 L254 0 Z " />
<glyph glyph-name="lcaron" unicode="&#x13e;" horiz-adv-x="131" d="M144 603 L164 700 L220 700 L175 603 L144 603 Z M35 0 L35 700 L96 700 L96 0 L35 0 Z " />
<glyph glyph-name="Nacute" unicode="&#x143;" horiz-adv-x="353" d="M204 800 L269 800 L197 740 L158 740 L204 800 Z M313 702 L313 2 L230 2 L98 579 L98 1 L42 1 L42 701 L125 701 L257 123 L257 700 L313 702 Z " />
<glyph glyph-name="nacute" unicode="&#x144;" horiz-adv-x="329" d="M190 700 L255 700 L184 640 L144 640 L190 700 Z M233 0 L233 3 Q233 14 233 45 Q233 76 233 118.5 Q233 161 233.5 212 Q234 263 234 313.5 Q234 364 234 410.5 Q234 457 234 492 Q234 521 214.5 538.5 Q195 556 163 556 Q132 556 113.5 538 Q95 520 95 490 L95 0 L34 0 L34 600 L95 600 L95 560 Q109 583 131.5 596.5 Q154 610 184 610 Q234 610 264 581.5 Q294 553 294 505 L294 0 L233 0 Z " />
<glyph glyph-name="Ncaron" unicode="&#x147;" horiz-adv-x="353" d="M271 800 L211 740 L146 740 L86 800 L127 800 L178 763 L229 800 L271 800 Z M314 702 L314 2 L231 2 L99 579 L99 1 L43 1 L43 701 L126 701 L258 123 L258 700 L314 702 Z " />
<glyph glyph-name="ncaron" unicode="&#x148;" horiz-adv-x="329" d="M256 700 L196 640 L132 640 L72 700 L112 700 L164 663 L216 700 L256 700 Z M233 0 L233 3 Q233 14 233 45 Q233 76 233 118.5 Q233 161 233.5 212 Q234 263 234 313.5 Q234 364 234 410.5 Q234 457 234 492 Q234 521 214.5 538.5 Q195 556 163 556 Q132 556 113.5 538 Q95 520 95 490 L95 0 L34 0 L34 600 L95 600 L95 560 Q109 583 131.5 596.5 Q154 610 184 610 Q234 610 264 581.5 Q294 553 294 505 L294 0 L233 0 Z " />
<glyph glyph-name="Omacron" unicode="&#x14c;" horiz-adv-x="340" d="M45 783 L294 783 L294 743 L45 743 L45 783 Z M236 613 Q236 632 218 643 Q200 654 170 654 Q140 654 121.5 643 Q103 632 103 613 L103 87 Q103 68 121.5 57 Q140 46 170 46 Q200 46 218 57 Q236 68 236 87 L236 613 Z M300 98 Q300 49 264.5 19.5 Q229 -10 170 -10 Q110 -10 74.5 19.5 Q39 49 39 98 L39 602 Q39 651 74.5 680.5 Q110 710 170 710 Q229 710 264.5 680.5 Q300 651 300 602 L300 98 Z " />
<glyph glyph-name="omacron" unicode="&#x14d;" horiz-adv-x="330" d="M40 683 L290 683 L290 643 L40 643 L40 683 Z M235 510 Q235 531 216 544 Q197 557 165 557 Q133 557 113.5 544 Q94 531 94 510 L94 90 Q94 69 113.5 56 Q133 43 165 43 Q197 43 216 56 Q235 69 235 90 L235 510 Z M295 101 Q295 50 259.5 20 Q224 -10 165 -10 Q106 -10 70.5 20 Q35 50 35 101 L35 499 Q35 550 70.5 580 Q106 610 165 610 Q224 610 259.5 580 Q295 550 295 499 L295 101 Z " />
<glyph glyph-name="Obreve" unicode="&#x14e;" horiz-adv-x="340" d="M111 804 Q111 787 124.5 780.5 Q138 774 170 774 Q196 774 207 780.5 Q218 787 218 804 L257 804 Q257 769 237.5 754.5 Q218 740 170 740 Q116 740 94 754.5 Q72 769 72 804 L111 804 Z M236 613 Q236 632 218 643 Q200 654 170 654 Q140 654 121.5 643 Q103 632 103 613 L103 87 Q103 68 121.5 57 Q140 46 170 46 Q200 46 218 57 Q236 68 236 87 L236 613 Z M300 98 Q300 49 264.5 19.5 Q229 -10 170 -10 Q110 -10 74.5 19.5 Q39 49 39 98 L39 602 Q39 651 74.5 680.5 Q110 710 170 710 Q229 710 264.5 680.5 Q300 651 300 602 L300 98 Z " />
<glyph glyph-name="obreve" unicode="&#x14f;" horiz-adv-x="330" d="M107 704 Q107 687 120 680.5 Q133 674 165 674 Q191 674 202 680.5 Q213 687 213 704 L253 704 Q253 669 233 654.5 Q213 640 165 640 Q111 640 89 654.5 Q67 669 67 704 L107 704 Z M235 510 Q235 531 216 544 Q197 557 165 557 Q133 557 113.5 544 Q94 531 94 510 L94 90 Q94 69 113.5 56 Q133 43 165 43 Q197 43 216 56 Q235 69 235 90 L235 510 Z M295 101 Q295 50 259.5 20 Q224 -10 165 -10 Q106 -10 70.5 20 Q35 50 35 101 L35 499 Q35 550 70.5 580 Q106 610 165 610 Q224 610 259.5 580 Q295 550 295 499 L295 101 Z " />
<glyph glyph-name="Racute" unicode="&#x154;" horiz-adv-x="351" d="M202 800 L267 800 L195 740 L156 740 L202 800 Z M247 269 Q247 289 228.5 301 Q210 313 181 313 L104 313 L104 0 L40 0 L40 700 L181 700 Q240 700 275.5 671.5 Q311 643 311 596 L311 460 Q311 387 269 347 Q311 321 311 272 L311 0 L247 0 L247 269 Z M181 369 Q211 369 229 393.5 Q247 418 247 460 L247 593 Q247 616 229 630 Q211 644 181 644 L104 644 L104 369 L181 369 Z " />
<glyph glyph-name="racute" unicode="&#x155;" horiz-adv-x="295" d="M186 700 L251 700 L179 640 L140 640 L186 700 Z M225 409 Q225 426 226 441 L226 492 Q226 521 208 538.5 Q190 556 160 556 Q131 556 113.5 538 Q96 520 96 490 L96 0 L35 0 L35 600 L96 600 L96 562 Q109 585 130 597.5 Q151 610 179 610 Q227 610 256 581.5 Q285 553 285 505 L285 409 L224 409 L225 409 Z " />
<glyph glyph-name="Rcaron" unicode="&#x158;" horiz-adv-x="351" d="M269 800 L209 740 L144 740 L84 800 L125 800 L176 763 L227 800 L269 800 Z M248 269 Q248 289 229.5 301 Q211 313 182 313 L105 313 L105 0 L41 0 L41 700 L182 700 Q241 700 276.5 671.5 Q312 643 312 596 L312 460 Q312 387 270 347 Q312 321 312 272 L312 0 L248 0 L248 269 Z M182 369 Q212 369 230 393.5 Q248 418 248 460 L248 593 Q248 616 230 630 Q212 644 182 644 L105 644 L105 369 L182 369 Z " />
<glyph glyph-name="rcaron" unicode="&#x159;" horiz-adv-x="295" d="M253 700 L193 640 L128 640 L68 700 L109 700 L160 663 L211 700 L253 700 Z M226 409 Q226 426 227 441 L227 492 Q227 521 209 538.5 Q191 556 161 556 Q132 556 114.5 538 Q97 520 97 490 L97 0 L36 0 L36 600 L97 600 L97 562 Q110 585 131 597.5 Q152 610 180 610 Q228 610 257 581.5 Q286 553 286 505 L286 409 L225 409 L226 409 Z " />
<glyph glyph-name="Sacute" unicode="&#x15a;" horiz-adv-x="309" d="M180 800 L245 800 L174 740 L134 740 L180 800 Z M88 133 L88 89 Q88 69 106 57.5 Q124 46 154 46 Q183 46 201 61.5 Q219 77 219 103 Q219 149 195.5 209 Q172 269 126 333 Q25 472 25 588 Q25 643 60.5 676.5 Q96 710 155 710 Q213 710 248.5 683 Q284 656 284 611 L284 573 L220 573 L220 611 Q220 631 202 642.5 Q184 654 155 654 Q125 654 106.5 639 Q88 624 88 599 Q88 505 182 375 Q233 306 258 237.5 Q283 169 283 114 Q283 58 247.5 24 Q212 -10 154 -10 Q95 -10 59.5 17 Q24 44 24 89 L24 133 L88 133 Z " />
<glyph glyph-name="sacute" unicode="&#x15b;" horiz-adv-x="297" d="M175 700 L240 700 L169 640 L129 640 L175 700 Z M80 195 L80 93 Q80 70 98.5 56.5 Q117 43 148 43 Q179 43 198 61 Q217 79 217 109 Q217 142 194 185.5 Q171 229 126 277 Q20 388 20 485 Q20 542 55.5 576 Q91 610 149 610 Q173 610 196.5 604 Q220 598 238 585 Q256 572 267 553 Q278 534 278 507 L278 414 L217 414 L217 507 Q217 530 198.5 543.5 Q180 557 149 557 Q118 557 99.5 540 Q81 523 81 494 Q81 418 171 323 Q224 268 250.5 215 Q277 162 277 120 Q277 61 241.5 25.5 Q206 -10 148 -10 Q124 -10 100.5 -4 Q77 2 59 15 Q41 28 30 47 Q19 66 19 93 L19 195 L80 195 Z " />
<glyph glyph-name="Scircumflex" unicode="&#x15c;" horiz-adv-x="309" d="M88 133 L88 89 Q88 69 106 57.5 Q124 46 154 46 Q183 46 201 61.5 Q219 77 219 103 Q219 149 195.5 209 Q172 269 126 333 Q25 472 25 588 Q25 643 60.5 676.5 Q96 710 155 710 Q213 710 248.5 683 Q284 656 284 611 L284 573 L220 573 L220 611 Q220 631 202 642.5 Q184 654 155 654 Q125 654 106.5 639 Q88 624 88 599 Q88 505 182 375 Q233 306 258 237.5 Q283 169 283 114 Q283 58 247.5 24 Q212 -10 154 -10 Q95 -10 59.5 17 Q24 44 24 89 L24 133 L88 133 Z M186 800 L246 740 L206 740 L154 777 L102 740 L62 740 L122 800 L186 800 Z " />
<glyph glyph-name="scircumflex" unicode="&#x15d;" horiz-adv-x="297" d="M80 195 L80 93 Q80 70 98.5 56.5 Q117 43 148 43 Q179 43 198 61 Q217 79 217 109 Q217 142 194 185.5 Q171 229 126 277 Q20 388 20 485 Q20 542 55.5 576 Q91 610 149 610 Q173 610 196.5 604 Q220 598 238 585 Q256 572 267 553 Q278 534 278 507 L278 414 L217 414 L217 507 Q217 530 198.5 543.5 Q180 557 149 557 Q118 557 99.5 540 Q81 523 81 494 Q81 418 171 323 Q224 268 250.5 215 Q277 162 277 120 Q277 61 241.5 25.5 Q206 -10 148 -10 Q124 -10 100.5 -4 Q77 2 59 15 Q41 28 30 47 Q19 66 19 93 L19 195 L80 195 Z M181 700 L241 640 L201 640 L149 677 L97 640 L57 640 L117 700 L181 700 Z " />
<glyph glyph-name="Scedilla" unicode="&#x15e;" horiz-adv-x="309" d="M86 132 L86 88 Q86 68 104 56.5 Q122 45 152 45 Q181 45 199 60.5 Q217 76 217 102 Q217 148 193.5 208 Q170 268 124 332 Q23 471 23 587 Q23 642 58.5 675.5 Q94 709 153 709 Q211 709 246.5 682 Q282 655 282 610 L282 572 L218 572 L218 610 Q218 630 200 641.5 Q182 653 153 653 Q123 653 104.5 638 Q86 623 86 598 Q86 504 180 374 Q231 305 256 236.5 Q281 168 281 113 Q281 60 249.5 26.5 Q218 -7 165 -11 L155 -24 Q160 -23 165.5 -22.5 Q171 -22 176 -22 Q195 -22 209 -29 Q223 -36 223 -52 L223 -59 Q223 -74 205.5 -81.5 Q188 -89 166 -89 Q143 -89 123.5 -81 Q104 -73 104 -58 L134 -58 Q134 -63 144.5 -65.5 Q155 -68 167 -68 Q178 -68 186 -66 Q194 -64 194 -59 Q194 -49 189 -46 Q184 -43 167 -43 Q161 -43 150.5 -44.5 Q140 -46 137 -48 L111 -48 L136 -9 Q85 -5 54.5 21 Q24 47 24 89 L24 133 L86 132 Z " />
<glyph glyph-name="scedilla" unicode="&#x15f;" horiz-adv-x="297" d="M78 194 L78 92 Q78 69 96.5 55.5 Q115 42 146 42 Q177 42 196 60 Q215 78 215 108 Q215 141 192 184.5 Q169 228 124 276 Q18 387 18 484 Q18 541 53.5 575 Q89 609 147 609 Q171 609 194.5 603 Q218 597 236 584 Q254 571 265 552 Q276 533 276 506 L276 413 L215 413 L215 506 Q215 529 196.5 542.5 Q178 556 147 556 Q116 556 97.5 539 Q79 522 79 493 Q79 417 169 322 Q222 267 248.5 214 Q275 161 275 119 Q275 63 243.5 28 Q212 -7 159 -11 L149 -25 Q154 -24 159.5 -23.5 Q165 -23 170 -23 Q189 -23 203 -30 Q217 -37 217 -53 L217 -60 Q217 -75 199.5 -82.5 Q182 -90 160 -90 Q137 -90 117.5 -82 Q98 -74 98 -59 L128 -59 Q128 -64 138.5 -66.5 Q149 -69 161 -69 Q172 -69 180 -67 Q188 -65 188 -60 Q188 -50 183 -47 Q178 -44 161 -44 Q155 -44 144.5 -45.5 Q134 -47 131 -49 L105 -49 L130 -10 Q85 -5 52 20 Q19 45 19 93 L19 195 L78 194 Z " />
<glyph glyph-name="Scaron" unicode="&#x160;" horiz-adv-x="309" d="M246 800 L186 740 L122 740 L62 800 L102 800 L154 763 L206 800 L246 800 Z M88 133 L88 89 Q88 69 106 57.5 Q124 46 154 46 Q183 46 201 61.5 Q219 77 219 103 Q219 149 195.5 209 Q172 269 126 333 Q25 472 25 588 Q25 643 60.5 676.5 Q96 710 155 710 Q213 710 248.5 683 Q284 656 284 611 L284 573 L220 573 L220 611 Q220 631 202 642.5 Q184 654 155 654 Q125 654 106.5 639 Q88 624 88 599 Q88 505 182 375 Q233 306 258 237.5 Q283 169 283 114 Q283 58 247.5 24 Q212 -10 154 -10 Q95 -10 59.5 17 Q24 44 24 89 L24 133 L88 133 Z " />
<glyph glyph-name="scaron" unicode="&#x161;" horiz-adv-x="297" d="M241 700 L181 640 L117 640 L57 700 L97 700 L149 663 L201 700 L241 700 Z M80 195 L80 93 Q80 70 98.5 56.5 Q117 43 148 43 Q179 43 198 61 Q217 79 217 109 Q217 142 194 185.5 Q171 229 126 277 Q20 388 20 485 Q20 542 55.5 576 Q91 610 149 610 Q173 610 196.5 604 Q220 598 238 585 Q256 572 267 553 Q278 534 278 507 L278 414 L217 414 L217 507 Q217 530 198.5 543.5 Q180 557 149 557 Q118 557 99.5 540 Q81 523 81 494 Q81 418 171 323 Q224 268 250.5 215 Q277 162 277 120 Q277 61 241.5 25.5 Q206 -10 148 -10 Q124 -10 100.5 -4 Q77 2 59 15 Q41 28 30 47 Q19 66 19 93 L19 195 L80 195 Z " />
<glyph glyph-name="Tcaron" unicode="&#x164;" horiz-adv-x="299" d="M243 794 L183 740 L118 740 L58 794 L99 794 L150 761 L201 794 L243 794 Z M118 644 L6 644 L6 700 L295 700 L295 644 L183 644 L183 0 L118 0 L118 644 Z " />
<glyph glyph-name="tcaron" unicode="&#x165;" horiz-adv-x="338" d="M171 653 L191 750 L247 750 L202 653 L171 653 Z M328 100 Q328 50 294 20 Q260 -10 203 -10 Q146 -10 112 20 Q78 50 78 99 L78 544 L5 544 L5 600 L78 600 L78 640 Q97 640 108.5 659 Q120 678 120 710 L139 710 L139 600 L296 600 L296 544 L139 544 L139 96 Q139 72 156.5 57.5 Q174 43 203 43 Q232 43 249.5 57.5 Q267 72 267 96 L267 215 L328 215 L328 100 Z " />
<glyph glyph-name="Utilde" unicode="&#x168;" horiz-adv-x="340" d="M68 729 Q63 756 76 772.5 Q89 789 115 789 Q127 789 145 783.5 Q163 778 180 770 Q188 766 198.5 763.5 Q209 761 218 761 Q229 761 236.5 767 Q244 773 241 789 L271 789 Q276 762 263 745.5 Q250 729 224 729 Q212 729 194 734.5 Q176 740 159 748 Q151 752 140.5 754.5 Q130 757 121 757 Q110 757 102.5 751 Q95 745 98 729 L68 729 Z M300 700 L300 98 Q300 49 264.5 19.5 Q229 -10 170 -10 Q110 -10 74.5 19.5 Q39 49 39 98 L39 700 L103 700 L103 87 Q103 68 121.5 57 Q140 46 170 46 Q200 46 218 57 Q236 68 236 87 L236 700 L300 700 Z " />
<glyph glyph-name="utilde" unicode="&#x169;" horiz-adv-x="330" d="M34 595 L34 600 L95 600 L95 108 Q95 79 114 61 Q133 43 164 43 Q196 43 215 61 Q234 79 234 108 L234 600 L295 600 L295 0 L234 0 L234 54 Q222 24 198.5 7 Q175 -10 143 -10 Q94 -10 64.5 18.5 Q35 47 35 95 L34 595 Z M110 689 Q122 689 140 683.5 Q158 678 175 670 Q183 666 193.5 663.5 Q204 661 213 661 Q224 661 231.5 667 Q239 673 236 689 L266 689 Q271 662 258 645.5 Q245 629 219 629 Q207 629 189 634.5 Q171 640 154 648 Q146 652 135.5 654.5 Q125 657 116 657 Q105 657 97.5 651 Q90 645 93 629 L63 629 Q58 656 71 672.5 Q84 689 110 689 Z " />
<glyph glyph-name="Umacron" unicode="&#x16a;" horiz-adv-x="340" d="M45 783 L294 783 L294 743 L45 743 L45 783 Z M300 700 L300 98 Q300 49 264.5 19.5 Q229 -10 170 -10 Q110 -10 74.5 19.5 Q39 49 39 98 L39 700 L103 700 L103 87 Q103 68 121.5 57 Q140 46 170 46 Q200 46 218 57 Q236 68 236 87 L236 700 L300 700 Z " />
<glyph glyph-name="umacron" unicode="&#x16b;" horiz-adv-x="330" d="M34 595 L34 600 L95 600 L95 108 Q95 79 114 61 Q133 43 164 43 Q196 43 215 61 Q234 79 234 108 L234 600 L295 600 L295 0 L234 0 L234 54 Q222 24 198.5 7 Q175 -10 143 -10 Q94 -10 64.5 18.5 Q35 47 35 95 L34 595 Z M40 683 L289 683 L289 643 L40 643 L40 683 Z " />
<glyph glyph-name="Uring" unicode="&#x16e;" horiz-adv-x="340" d="M170 789 Q161 789 156.5 785 Q152 781 152 775.5 Q152 770 156.5 766 Q161 762 170 762 Q179 762 183 766 Q187 770 187 775.5 Q187 781 182.5 785 Q178 789 170 789 Z M123 775 Q123 792 138 800.5 Q153 809 170 809 Q187 809 201.5 800.5 Q216 792 216 775 Q216 758 201.5 750 Q187 742 170 742 Q153 742 138 750 Q123 758 123 775 Z M300 700 L300 98 Q300 49 264.5 19.5 Q229 -10 170 -10 Q110 -10 74.5 19.5 Q39 49 39 98 L39 700 L103 700 L103 87 Q103 68 121.5 57 Q140 46 170 46 Q200 46 218 57 Q236 68 236 87 L236 700 L300 700 Z " />
<glyph glyph-name="uring" unicode="&#x16f;" horiz-adv-x="330" d="M165 688 Q156 688 151.5 684 Q147 680 147 674.5 Q147 669 151.5 665 Q156 661 165 661 Q174 661 178 665 Q182 669 182 674.5 Q182 680 177.5 684 Q173 688 165 688 Z M118 674 Q118 691 133 699.5 Q148 708 165 708 Q182 708 196.5 699.5 Q211 691 211 674 Q211 657 196.5 649 Q182 641 165 641 Q148 641 133 649 Q118 657 118 674 Z M34 600 L95 600 L95 108 Q95 79 114 61 Q133 43 164 43 Q196 43 215 61 Q234 79 234 108 L234 600 L295 600 L295 0 L234 0 L234 54 Q222 24 198.5 7 Q175 -10 143 -10 Q94 -10 64.5 18.5 Q35 47 35 95 L34 595 L34 597 L34 600 Z " />
<glyph glyph-name="Uogonek" unicode="&#x172;" horiz-adv-x="340" d="M300 701 L300 99 Q300 70 288.5 49 Q277 28 258 15 Q239 2 214.5 -4 Q190 -10 164 -10 Q160 -18 155.5 -30.5 Q151 -43 150 -56 Q149 -69 153 -78 Q157 -87 169 -87 Q187 -87 187 -67 L221 -67 Q221 -86 209.5 -97.5 Q198 -109 170 -109 Q144 -109 131 -96 Q118 -83 118 -62 Q118 -54 123 -36.5 Q128 -19 136 -7 Q91 1 65 28.5 Q39 56 39 98 L39 700 L103 700 L103 87 Q103 68 121.5 57 Q140 46 170 46 Q200 46 218 57 Q236 68 236 87 L236 700 L300 701 Z " />
<glyph glyph-name="uogonek" unicode="&#x173;" horiz-adv-x="330" d="M94 600 L94 108 Q94 79 113 61 Q132 43 163 43 Q195 43 214 61 Q233 79 233 108 L233 600 L294 600 L294 0 L279 0 Q275 -8 270.5 -20.5 Q266 -33 265 -46 Q264 -59 268 -68 Q272 -77 284 -77 Q302 -77 302 -57 L336 -57 Q336 -76 324.5 -87.5 Q313 -99 285 -99 Q262 -99 250 -89.5 Q238 -80 234 -65.5 Q230 -51 234.5 -33.5 Q239 -16 249 0 L234 0 L234 54 Q222 24 198.5 7 Q175 -10 143 -10 Q94 -10 64.5 18.5 Q35 47 35 95 L34 595 L34 597 L33 600 L94 600 Z " />
<glyph glyph-name="Wcircumflex" unicode="&#x174;" horiz-adv-x="470" d="M442 695 Q431 521 421.5 348 Q412 175 402 0 L316 0 L236 597 L154 0 L69 0 L29 695 L29 700 L89 700 L115 78 L193 700 L278 700 L356 73 L381 700 L442 700 L442 695 Z M269 800 L329 740 L288 740 L236 777 L184 740 L143 740 L203 800 L269 800 Z " />
<glyph glyph-name="wcircumflex" unicode="&#x175;" horiz-adv-x="469" d="M439 595 Q428 446 418.5 297.5 Q409 149 399 0 L315 0 L234 523 L153 0 L69 0 L29 595 L29 600 L90 600 L114 60 L198 600 L270 600 L354 60 L378 600 L439 600 L439 595 Z M266 700 L326 640 L286 640 L234 677 L182 640 L142 640 L202 700 L266 700 Z " />
<glyph glyph-name="Ycircumflex" unicode="&#x176;" horiz-adv-x="364" d="M213 800 L273 740 L233 740 L181 777 L129 740 L89 740 L149 800 L213 800 Z M150 296 L34 695 L34 697 L33 700 L100 700 L101 699 L101 696 L183 360 L260 696 Q260 698 261 699 Q261 699 261 700 L329 700 L328 696 L328 695 Q299 595 271 495.5 Q243 396 214 296 L214 0 L150 0 L150 296 Z " />
<glyph glyph-name="ycircumflex" unicode="&#x177;" horiz-adv-x="330" d="M95 27 L95 -1 Q95 -22 114 -34.5 Q133 -47 165 -47 Q197 -47 216 -33.5 Q235 -20 235 2 L235 112 Q222 84 199 68.5 Q176 53 144 53 Q95 53 65 80.5 Q35 108 35 153 Q35 154 35 173 Q35 192 34.5 223.5 Q34 255 34 294.5 Q34 334 34 375 Q34 472 34 595 L34 600 L95 600 L95 166 Q95 139 114 122.5 Q133 106 165 106 Q195 106 214 120.5 Q233 135 235 160 Q235 229 234.5 300.5 Q234 372 233.5 433.5 Q233 495 233 540 Q233 585 233 600 L295 600 L295 11 Q295 -40 259.5 -70 Q224 -100 165 -100 Q105 -100 69.5 -70 Q34 -40 34 9 L34 27 L95 27 Z M133 700 L197 700 L257 640 L217 640 L165 677 L113 640 L73 640 L133 700 Z " />
<glyph glyph-name="Ydieresis" unicode="&#x178;" horiz-adv-x="364" d="M196 796 L252 796 L252 740 L196 740 L196 796 Z M110 796 L166 796 L166 740 L110 740 L110 796 Z M150 296 L34 695 L34 697 L33 700 L100 700 L101 699 L101 696 L183 360 L260 696 Q260 698 261 699 Q261 699 261 700 L329 700 L328 696 L328 695 Q299 595 271 495.5 Q243 396 214 296 L214 0 L150 0 L150 296 Z " />
<glyph glyph-name="Zacute" unicode="&#x179;" horiz-adv-x="304" d="M16 0 L16 40 Q64 192 113 342 Q162 492 211 644 L16 644 L16 700 L281 700 L281 655 L88 56 L282 56 L282 0 L16 0 Z M132 740 L178 794 L243 794 L171 740 L132 740 Z " />
<glyph glyph-name="zacute" unicode="&#x17a;" horiz-adv-x="289" d="M8 547 L8 600 L273 600 L273 556 L76 53 L274 53 L274 0 L8 0 L8 39 L207 547 L8 547 Z M121 640 L167 700 L232 700 L160 640 L121 640 Z " />
<glyph glyph-name="Zdotaccent" unicode="&#x17b;" horiz-adv-x="304" d="M16 0 L16 40 Q64 192 113 342 Q162 492 211 644 L16 644 L16 700 L281 700 L281 655 L88 56 L282 56 L282 0 L16 0 Z M184 793 L184 729 L119 729 L119 793 L184 793 Z " />
<glyph glyph-name="zdotaccent" unicode="&#x17c;" horiz-adv-x="289" d="M8 39 L207 547 L8 547 L8 600 L273 600 L273 556 L76 53 L274 53 L274 0 L8 0 L8 39 Z M173 693 L173 629 L108 629 L108 693 L173 693 Z " />
<glyph glyph-name="Zcaron" unicode="&#x17d;" horiz-adv-x="304" d="M17 0 L17 40 Q65 192 114 342 Q163 492 212 644 L17 644 L17 700 L282 700 L282 655 L89 56 L283 56 L283 0 L17 0 Z M75 794 L116 794 L167 761 L218 794 L260 794 L200 740 L135 740 L75 794 Z " />
<glyph glyph-name="zcaron" unicode="&#x17e;" horiz-adv-x="289" d="M9 0 L9 39 L208 547 L9 547 L9 600 L274 600 L274 556 L77 53 L275 53 L275 0 L9 0 Z M90 700 L141 663 L192 700 L234 700 L174 640 L109 640 L49 700 L90 700 Z " />
<glyph glyph-name="uni01EB" unicode="&#x1eb;" horiz-adv-x="292" d="M191 553 Q191 574 178 586.5 Q165 599 144 599 Q123 599 110 586.5 Q97 574 97 553 L97 87 Q97 66 110 53.5 Q123 41 144 41 Q165 41 178 53.5 Q191 66 191 87 L191 553 Z M267 -19 Q236 -6 215 15 Q187 -10 144 -10 Q96 -10 67.5 19.5 Q39 49 39 98 L39 542 Q39 591 67.5 620.5 Q96 650 144 650 Q192 650 220.5 620.5 Q249 591 249 542 L249 98 Q249 63 255 32 Q261 1 272 -16 L267 -19 Z " />
<glyph glyph-name="Oslashacute" unicode="&#x1fe;" horiz-adv-x="340" d="M24 -9 L47 55 Q38 75 38 99 L38 603 Q38 652 73.5 681.5 Q109 711 169 711 Q236 711 272 673 L286 710 L314 710 L291 646 Q300 627 300 602 L300 98 Q300 49 264.5 19.5 Q229 -10 170 -10 Q102 -10 66 28 L52 -9 L24 -9 Z M103 205 L236 572 L236 613 Q236 632 218 643 Q200 654 170 654 Q140 654 121.5 643 Q103 632 103 613 L103 205 Z M103 87 Q103 68 121.5 57 Q140 46 170 46 Q200 46 218 57 Q236 68 236 87 L236 495 L103 128 L103 87 Z M196 800 L261 800 L189 740 L150 740 L196 800 Z " />
<glyph glyph-name="oslashacute" unicode="&#x1ff;" horiz-adv-x="330" d="M47 51 Q36 75 36 102 L36 500 Q36 551 71.5 581 Q107 611 166 611 Q231 611 267 575 L282 611 L310 611 L284 550 Q295 526 295 499 L295 101 Q295 50 259.5 20 Q224 -10 165 -10 Q100 -10 64 26 L49 -10 L21 -10 L47 51 Z M94 164 L235 500 L235 510 Q235 531 216 544 Q197 557 165 557 Q133 557 113.5 544 Q94 531 94 510 L94 164 Z M94 97 Q94 42 165 42 Q197 42 216 55 Q235 68 235 89 L235 433 L94 97 Z M191 700 L256 700 L185 640 L145 640 L191 700 Z " />
<glyph glyph-name="uni0262" unicode="&#x262;" horiz-adv-x="291" d="M250 308 L250 98 Q250 58 255.5 30.5 Q261 3 269 -2 L264 -7 Q241 7 227 27 Q199 -11 145 -11 Q97 -11 68 18.5 Q39 48 39 96 L39 542 Q39 590 68 619.5 Q97 649 145 649 Q194 649 222 618.5 Q250 588 250 541 L250 509 L192 509 L192 550 Q192 572 179 585.5 Q166 599 145 599 Q123 599 109.5 586 Q96 573 96 552 Q96 446 96 360.5 Q96 275 97 214 Q97 143 97 88 Q97 67 110 54 Q123 41 145 41 Q167 41 180 55 Q193 69 193 92 L193 258 L153 258 L153 309 L250 308 Z " />
<glyph glyph-name="uni026A" unicode="&#x26a;" horiz-adv-x="137" d="M40 0 L40 640 L97 640 L97 0 L40 0 Z " />
<glyph glyph-name="uni0274" unicode="&#x274;" horiz-adv-x="302" d="M42 0 L42 640 L119 640 L212 127 L212 640 L262 640 L262 0 L185 0 L92 513 L92 0 L42 0 Z " />
<glyph glyph-name="uni0280" unicode="&#x280;" horiz-adv-x="300" d="M202 248 Q202 266 189 277 Q176 288 155 288 L97 288 L97 0 L40 0 L40 640 L154 640 Q202 640 231 614 Q260 588 260 545 L260 423 Q260 357 225 319 Q260 294 260 250 L260 0 L202 0 L202 248 Z M154 339 Q176 339 189 362 Q202 385 202 423 L202 542 Q202 563 189 576 Q176 589 154 589 L97 589 L97 339 L154 339 Z " />
<glyph glyph-name="uni028F" unicode="&#x28f;" horiz-adv-x="313" d="M34 634 L33 639 L94 639 L95 638 L95 635 L158 339 L216 635 Q216 637 217 638 Q217 639 217 640 L278 640 L277 636 L277 635 Q254 544 231 453 Q208 362 185 271 L185 0 L128 0 L128 271 L34 635 L34 634 Z " />
<glyph glyph-name="uni0299" unicode="&#x299;" horiz-adv-x="300" d="M143 357 Q166 357 180.5 370 Q195 383 195 404 L195 542 Q195 563 180.5 576 Q166 589 143 589 L97 589 L97 357 L143 357 Z M217 342 Q237 331 248.5 312 Q260 293 260 268 L260 96 Q260 52 231.5 26 Q203 0 155 0 L40 0 L40 640 L143 640 Q193 640 223 614 Q253 588 253 545 L253 420 Q253 370 217 342 Z M155 51 Q176 51 189 63.5 Q202 76 202 96 L202 266 Q202 284 189 295 Q176 306 155 306 L97 306 L97 51 L155 51 Z " />
<glyph glyph-name="uni029C" unicode="&#x29c;" horiz-adv-x="300" d="M202 0 L202 308 L97 308 L97 0 L40 0 L40 640 L97 640 L97 358 L202 358 L202 640 L260 640 L260 0 L202 0 Z " />
<glyph glyph-name="uni029F" unicode="&#x29f;" horiz-adv-x="220" d="M205 0 L40 0 L40 640 L97 640 L97 54 L205 54 L205 0 Z " />
<glyph glyph-name="circumflex" unicode="&#x2c6;" horiz-adv-x="499" d="M282 700 L342 640 L302 640 L250 677 L198 640 L157 640 L218 700 L282 700 Z " />
<glyph glyph-name="caron" unicode="&#x2c7;" horiz-adv-x="499" d="M342 700 L282 640 L218 640 L157 700 L198 700 L250 663 L302 700 L342 700 Z " />
<glyph glyph-name="uni02C9" unicode="&#x2c9;" horiz-adv-x="499" d="M125 680 L374 680 L374 640 L125 640 L125 680 Z " />
<glyph glyph-name="breve" unicode="&#x2d8;" horiz-adv-x="499" d="M191 704 Q191 687 204.5 680.5 Q218 674 250 674 Q276 674 287 680.5 Q298 687 298 704 L338 704 Q338 669 318 654.5 Q298 640 250 640 Q196 640 174 654.5 Q152 669 152 704 L191 704 Z " />
<glyph glyph-name="dotaccent" unicode="&#x2d9;" horiz-adv-x="499" d="M219 700 L280 700 L280 640 L219 640 L219 700 Z " />
<glyph glyph-name="ring" unicode="&#x2da;" horiz-adv-x="499" d="M250 688 Q241 688 236.5 684 Q232 680 232 674.5 Q232 669 236.5 665 Q241 661 250 661 Q259 661 263.5 665 Q268 669 268 674.5 Q268 680 263.5 684 Q259 688 250 688 Z M204 674 Q204 691 218.5 700 Q233 709 250 709 Q267 709 281.5 700 Q296 691 296 674 Q296 657 281.5 649 Q267 641 250 641 Q233 641 218.5 649 Q204 657 204 674 Z " />
<glyph glyph-name="uni1D00" unicode="&#x1d00;" horiz-adv-x="261" d="M14 -1 Q33 157 52 319.5 Q71 482 90 640 L164 640 L243 -1 L185 -1 L166 194 L93 194 Q88 146 82 96.5 Q76 47 71 -1 L14 -1 Z M128 530 L96 246 L158 246 L128 530 Z " />
<glyph glyph-name="uni1D04" unicode="&#x1d04;" horiz-adv-x="271" d="M246 577 Q251 559 251 540 L251 508 L193 508 L193 549 Q193 571 180 584.5 Q167 598 146 598 Q124 598 110.5 585 Q97 572 97 551 Q97 445 97 359.5 Q97 274 98 213 Q98 142 98 87 Q98 66 111 53 Q124 40 146 40 Q168 40 181 54 Q194 68 194 91 L194 114 Q193 121 193 129 L251 129 L251 98 Q251 49 222.5 19 Q194 -11 146 -11 Q98 -11 69 18.5 Q40 48 40 96 L40 542 Q40 590 69 619.5 Q98 649 146 649 Q184 649 210 629.5 Q236 610 246 577 Z " />
<glyph glyph-name="uni1D05" unicode="&#x1d05;" horiz-adv-x="300" d="M40 0 L40 640 L146 640 Q197 640 228.5 614 Q260 588 260 545 L260 96 Q260 52 228.5 26 Q197 0 146 0 L40 0 Z M146 51 Q172 51 187 63.5 Q202 76 202 96 L202 542 Q202 563 187 576 Q172 589 146 589 L97 589 L97 51 L146 51 Z " />
<glyph glyph-name="uni1D07" unicode="&#x1d07;" horiz-adv-x="240" d="M220 0 L40 0 L40 640 L215 640 L215 586 L97 586 L97 361 L185 361 L185 307 L97 307 L97 54 L220 54 L220 0 Z " />
<glyph glyph-name="uni1D0A" unicode="&#x1d0a;" horiz-adv-x="258" d="M218 640 L218 95 Q218 47 189.5 18.5 Q161 -10 114 -10 Q66 -10 37.5 18.5 Q9 47 9 94 L9 142 L66 142 Q66 128 66 117.5 Q66 107 67 100 Q67 92 67 87 Q68 66 80.5 53.5 Q93 41 115 41 Q137 41 150.5 54.5 Q164 68 164 91 L164 640 L218 640 Z " />
<glyph glyph-name="uni1D0B" unicode="&#x1d0b;" horiz-adv-x="285" d="M38 640 L95 640 L95 337 L218 640 L277 640 Q277 639 276 638 Q276 635 275 635 L160 368 L280 0 L216 0 L126 289 L95 216 L95 0 L38 0 L38 640 Z " />
<glyph glyph-name="uni1D0D" unicode="&#x1d0d;" horiz-adv-x="375" d="M40 0 L40 640 L119 640 L187 239 L255 640 L335 640 L335 0 L277 0 L277 529 Q256 396 234.5 265 Q213 134 193 0 L183 0 L97 528 L97 0 L40 0 Z " />
<glyph glyph-name="uni1D0F" unicode="&#x1d0f;" horiz-adv-x="289" d="M191 553 Q191 574 178 586.5 Q165 599 144 599 Q123 599 110 586.5 Q97 574 97 553 L97 87 Q97 66 110 53.5 Q123 41 144 41 Q165 41 178 53.5 Q191 66 191 87 L191 553 Z M249 98 Q249 49 220.5 19.5 Q192 -10 144 -10 Q96 -10 67.5 19.5 Q39 49 39 98 L39 542 Q39 591 67.5 620.5 Q96 650 144 650 Q192 650 220.5 620.5 Q249 591 249 542 L249 98 Z " />
<glyph glyph-name="uni1D18" unicode="&#x1d18;" horiz-adv-x="285" d="M40 0 L40 640 L154 640 Q202 640 231 614 Q260 588 260 545 L260 359 Q260 310 231 280 Q202 250 154 250 L97 250 L97 0 L40 0 Z M154 300 Q176 300 189 316.5 Q202 333 202 359 L202 542 Q202 563 189 576 Q176 589 154 589 L97 589 L97 300 L154 300 Z " />
<glyph glyph-name="uni1D1B" unicode="&#x1d1b;" horiz-adv-x="250" d="M96 0 L96 589 L5 589 L5 640 L245 640 L245 589 L154 589 L154 0 L96 0 Z " />
<glyph glyph-name="uni1D1C" unicode="&#x1d1c;" horiz-adv-x="289" d="M249 640 L249 98 Q249 49 220.5 19.5 Q192 -10 144 -10 Q96 -10 67.5 19.5 Q39 49 39 98 L39 640 L96 640 L97 87 Q97 66 110 53.5 Q123 41 144 41 Q165 41 178 53.5 Q191 66 191 87 L191 640 L249 640 Z " />
<glyph glyph-name="uni1D20" unicode="&#x1d20;" horiz-adv-x="261" d="M191 640 L249 640 L171 -1 L95 -1 L17 640 L74 640 L131 97 L191 640 Z " />
<glyph glyph-name="uni1D21" unicode="&#x1d21;" horiz-adv-x="412" d="M384 635 Q373 476 363.5 318 Q354 160 344 0 L266 0 L206 530 L146 0 L69 0 L29 635 L29 640 L83 640 L110 78 L169 640 L244 640 L302 73 L329 640 L384 640 L384 635 Z " />
<glyph glyph-name="uni1D22" unicode="&#x1d22;" horiz-adv-x="250" d="M228 641 L228 600 L81 52 L229 52 L229 1 L18 1 L18 37 L165 589 L17 589 L17 640 L228 641 Z " />
<glyph glyph-name="Wgrave" unicode="&#x1e80;" horiz-adv-x="470" d="M144 800 L209 800 L255 740 L216 740 L144 800 Z M442 695 Q431 521 421.5 348 Q412 175 402 0 L316 0 L236 597 L154 0 L69 0 L29 695 L29 700 L89 700 L115 78 L193 700 L278 700 L356 73 L381 700 L442 700 L442 695 Z " />
<glyph glyph-name="wgrave" unicode="&#x1e81;" horiz-adv-x="469" d="M143 700 L208 700 L254 640 L214 640 L143 700 Z M439 600 Q428 451 418.5 300 Q409 149 399 0 L315 0 L234 523 L153 0 L69 0 L29 600 L90 600 L114 60 L198 600 L270 600 L354 60 L378 600 L439 600 Z " />
<glyph glyph-name="Wacute" unicode="&#x1e82;" horiz-adv-x="470" d="M262 800 L327 800 L255 740 L216 740 L262 800 Z M442 700 Q431 526 421.5 350.5 Q412 175 402 0 L316 0 L236 597 L154 0 L69 0 L29 700 L89 700 L115 78 L193 700 L278 700 L356 73 L381 700 L442 700 Z " />
<glyph glyph-name="wacute" unicode="&#x1e83;" horiz-adv-x="469" d="M260 700 L325 700 L254 640 L214 640 L260 700 Z M439 595 Q428 446 418.5 297.5 Q409 149 399 0 L315 0 L234 523 L153 0 L69 0 L29 600 L90 600 L114 60 L198 600 L270 600 L354 60 L378 600 L439 600 L439 595 Z " />
<glyph glyph-name="Wdieresis" unicode="&#x1e84;" horiz-adv-x="470" d="M250 796 L306 796 L306 740 L250 740 L250 796 Z M165 796 L221 796 L221 740 L165 740 L165 796 Z M442 700 Q431 526 421.5 350.5 Q412 175 402 0 L316 0 L236 597 L154 0 L69 0 L29 700 L89 700 L115 78 L193 700 L278 700 L356 73 L381 700 L442 700 Z " />
<glyph glyph-name="wdieresis" unicode="&#x1e85;" horiz-adv-x="469" d="M249 696 L305 696 L305 640 L249 640 L249 696 Z M163 696 L219 696 L219 640 L163 640 L163 696 Z M439 600 Q428 451 418.5 300 Q409 149 399 0 L315 0 L234 523 L153 0 L69 0 L29 600 L90 600 L114 60 L198 600 L270 600 L354 60 L378 600 L439 600 Z " />
<glyph glyph-name="Ygrave" unicode="&#x1ef2;" horiz-adv-x="364" d="M90 800 L155 800 L201 740 L161 740 L90 800 Z M150 296 L33 700 L100 700 Q120 615 141.5 530 Q163 445 183 360 Q203 445 222 530 Q241 615 261 700 L329 700 Q300 600 271.5 498 Q243 396 214 296 L214 0 L150 0 L150 296 Z " />
<glyph glyph-name="ygrave" unicode="&#x1ef3;" horiz-adv-x="330" d="M95 27 L95 -1 Q95 -22 114 -34.5 Q133 -47 165 -47 Q197 -47 216 -33.5 Q235 -20 235 2 L235 112 Q222 84 199 68.5 Q176 53 144 53 Q95 53 65 80.5 Q35 108 35 153 Q35 154 35 173 Q35 192 34.5 223.5 Q34 255 34 294.5 Q34 334 34 375 Q34 472 34 595 L34 600 L95 600 L95 166 Q95 139 114 122.5 Q133 106 165 106 Q195 106 214 120.5 Q233 135 235 160 Q235 229 234.5 300.5 Q234 372 233.5 433.5 Q233 495 233 540 Q233 585 233 600 L295 600 L295 11 Q295 -40 259.5 -70 Q224 -100 165 -100 Q105 -100 69.5 -70 Q34 -40 34 9 L34 27 L95 27 Z M139 700 L185 640 L145 640 L74 700 L139 700 Z " />
<glyph glyph-name="endash" unicode="&#x2013;" horiz-adv-x="324" d="M10 439 L314 439 L314 404 L10 404 L10 439 Z " />
<glyph glyph-name="emdash" unicode="&#x2014;" horiz-adv-x="424" d="M10 439 L414 439 L414 404 L10 404 L10 439 Z " />
<glyph glyph-name="quoteleft" unicode="&#x2018;" horiz-adv-x="99" d="M14 610 Q14 652 32 679 Q50 706 80 710 L89 680 Q72 678 62 662 Q52 646 52 622 L52 600 L84 600 L84 520 L14 520 L14 610 Z " />
<glyph glyph-name="quoteright" unicode="&#x2019;" horiz-adv-x="99" d="M89 610 Q89 568 71 541 Q53 514 23 510 L14 540 Q31 542 41 558 Q51 574 51 598 L51 620 L19 620 L19 700 L89 700 L89 610 Z " />
<glyph glyph-name="quotedblleft" unicode="&#x201c;" horiz-adv-x="210" d="M125 610 Q125 652 143 679 Q161 706 191 710 L200 680 Q183 678 173 662 Q163 646 163 622 L163 600 L195 600 L195 520 L125 520 L125 610 Z M14 610 Q14 652 32 679 Q50 706 80 710 L89 680 Q72 678 62 662 Q52 646 52 622 L52 600 L84 600 L84 520 L14 520 L14 610 Z " />
<glyph glyph-name="quotedblright" unicode="&#x201d;" horiz-adv-x="210" d="M200 610 Q200 568 182 541 Q164 514 134 510 L125 540 Q142 542 152 558 Q162 574 162 598 L162 620 L130 620 L130 700 L200 700 L200 610 Z M89 610 Q89 568 71 541 Q53 514 23 510 L14 540 Q31 542 41 558 Q51 574 51 598 L51 620 L19 620 L19 700 L89 700 L89 610 Z " />
<glyph glyph-name="bullet" unicode="&#x2022;" horiz-adv-x="139" d="M121 251 Q121 228 107 213.5 Q93 199 70 199 Q47 199 32.5 213.5 Q18 228 18 251 L18 344 Q18 367 32.5 381.5 Q47 396 70 396 Q93 396 107 381.5 Q121 367 121 344 L121 251 Z " />
<glyph glyph-name="ellipsis" unicode="&#x2026;" horiz-adv-x="592" d="M451 51 L512 51 L512 -10 L451 -10 L451 51 Z M266 51 L326 51 L326 -10 L266 -10 L266 51 Z M80 51 L141 51 L141 -10 L80 -10 L80 51 Z " />
<glyph glyph-name="perthousand" unicode="&#x2030;" horiz-adv-x="426" d="M10 383 L10 647 Q10 672 30.5 687 Q51 702 84 702 Q118 702 138.5 687 Q159 672 159 647 L159 383 Q159 358 138.5 343 Q118 328 84 328 Q51 328 30.5 343 Q10 358 10 383 Z M348 371 Q382 371 402.5 356 Q423 341 423 316 L423 52 Q423 27 402.5 12 Q382 -3 348 -3 Q315 -3 294.5 12 Q274 27 274 52 L274 316 Q274 341 294.5 356 Q315 371 348 371 Z M586 370 Q620 370 640.5 355 Q661 340 661 315 L661 51 Q661 26 640.5 11 Q620 -4 586 -4 Q553 -4 532.5 11 Q512 26 512 51 L512 315 Q512 340 532.5 355 Q553 370 586 370 Z M385 703 L416 703 L41 3 L10 3 L385 703 Z M616 49 L616 316 Q616 324 607 327.5 Q598 331 587 331 Q576 331 566.5 327.5 Q557 324 557 316 L557 49 Q557 41 566 37.5 Q575 34 586 34 Q597 34 606.5 37.5 Q616 41 616 49 Z M319 50 Q319 42 328 38.5 Q337 35 348 35 Q359 35 368.5 38.5 Q378 42 378 50 L378 317 Q378 325 369 328.5 Q360 332 349 332 Q338 332 328.5 328.5 Q319 325 319 317 L319 50 Z M114 381 L114 648 Q114 656 105 659.5 Q96 663 85 663 Q74 663 64.5 659.5 Q55 656 55 648 L55 381 Q55 373 64 369.5 Q73 366 84 366 Q95 366 104.5 369.5 Q114 373 114 381 Z " />
<glyph glyph-name="guilsinglleft" unicode="&#x2039;" horiz-adv-x="179" d="M65 393 L171 251 L111 251 L4 393 L110 535 L171 535 L65 393 Z " />
<glyph glyph-name="guilsinglright" unicode="&#x203a;" horiz-adv-x="199" d="M80 535 L191 393 L79 251 L19 251 L130 393 L19 535 L80 535 Z " />
<glyph glyph-name="fraction" unicode="&#x2044;" horiz-adv-x="426" d="M385 700 L416 700 L41 0 L10 0 L385 700 Z " />
<glyph glyph-name="uni2070" unicode="&#x2070;" horiz-adv-x="170" d="M117 664 Q117 670 109 673.5 Q101 677 91 677 Q82 677 74.5 674 Q67 671 67 665 L67 437 Q67 430 74.5 426.5 Q82 423 91 423 Q101 423 109 426.5 Q117 430 117 437 L117 664 Z M155 438 Q155 417 137.5 404 Q120 391 91 391 Q63 391 45.5 404 Q28 417 28 438 L28 663 Q28 684 45.5 697 Q63 710 91 710 Q120 710 137.5 697 Q155 684 155 663 L155 438 Z " />
<glyph glyph-name="uni2074" unicode="&#x2074;" horiz-adv-x="166" d="M143 624 L143 497 L174 497 L174 464 L143 464 L143 400 L106 400 L106 464 L27 464 L27 497 Q48 543 64.5 580.5 Q81 618 93 644 Q107 675 118 700 L150 700 Q139 674 126 643 Q103 587 63 497 L106 497 L106 522 Q106 533 111 550.5 Q116 568 121 584 Q128 603 136 624 L143 624 Z " />
<glyph glyph-name="Euro" unicode="&#x20ac;" horiz-adv-x="349" d="M331 100 Q331 50 295 20 Q259 -10 199 -10 Q139 -10 103 19.5 Q67 49 67 98 L67 279 L6 279 L6 315 L67 315 L67 402 L6 402 L6 438 L67 438 L67 603 Q67 652 102.5 681.5 Q138 711 198 711 Q258 711 294 681 Q330 651 330 600 L330 558 L266 558 Q266 570 265.5 584.5 Q265 599 265 611 Q265 631 246.5 643 Q228 655 198 655 Q167 655 148.5 644 Q130 633 130 614 L130 438 L276 438 L276 402 L130 402 L130 315 L276 315 L276 279 L130 279 L130 87 Q130 68 148.5 57 Q167 46 197 46 Q228 46 246.5 58.5 Q265 71 265 92 L265 139 L329 139 L331 100 Z " />
<glyph glyph-name="minus" unicode="&#x2212;" horiz-adv-x="428" d="M12 317 L416 317 L416 283 L12 283 L12 317 Z " />
<glyph glyph-name="uniA730" unicode="&#xa730;" horiz-adv-x="225" d="M97 289 L97 0 L40 0 L40 640 L205 640 L205 586 L97 586 L97 342 L187 342 L187 289 L97 289 Z " />
<glyph glyph-name="uniA731" unicode="&#xa731;" horiz-adv-x="258" d="M128 -10 Q83 -10 53.5 13 Q24 36 24 81 L24 122 L81 122 L81 81 Q81 63 94 52 Q107 41 128 41 Q149 41 161.5 55.5 Q174 70 174 94 Q174 140 156 195.5 Q138 251 103 306 Q25 428 25 538 Q25 589 53.5 619.5 Q82 650 129 650 Q174 650 203.5 627 Q233 604 233 559 L233 524 L176 524 L176 559 Q176 577 163 588 Q150 599 129 599 Q108 599 95 584.5 Q82 570 82 547 Q82 453 154 342 Q192 282 212 219.5 Q232 157 232 104 Q232 53 203.5 21.5 Q175 -10 128 -10 Z " />
</font>
</svg>
