<?xml version="1.0" standalone="no"?>
<!DOCTYPE svg PUBLIC "-//W3C//DTD SVG 1.1//EN" "http://www.w3.org/Graphics/SVG/1.1/DTD/svg11.dtd" >
<svg xmlns="http://www.w3.org/2000/svg" version="1.1">
<metadata>
Created by FontForge 20170731 at Tue Oct  8 16:41:15 2019
 By Aleksey,,,
Copyright (c) 2019 by Fontastica. All rights reserved.
</metadata>
<defs>
<font id="Walter-Light" horiz-adv-x="892" >
  <font-face
    font-family="Walter Light"
    font-weight="300"
    font-stretch="normal"
    units-per-em="1067"
    panose-1="0 0 4 0 0 0 0 0 0 0"
    ascent="853"
    descent="-214"
    x-height="785"
    cap-height="785"
    bbox="48 -116 1286 1023"
    underline-thickness="50"
    underline-position="-200"
    unicode-range="U+0020-2122"
  />
<missing-glyph horiz-adv-x="812"
d="M92 981v-972h628v972h-628zM407 557l-224 383h448zM370 493l-216 -381l4 762zM444 493l212 381v-740zM183 48l224 383l224 -383h-448z" />
    <glyph glyph-name=".notdef" horiz-adv-x="812"
d="M92 981v-972h628v972h-628zM407 557l-224 383h448zM370 493l-216 -381l4 762zM444 493l212 381v-740zM183 48l224 383l224 -383h-448z" />
    <glyph glyph-name=".null" horiz-adv-x="404"
 />
    <glyph glyph-name="nonmarkingreturn" horiz-adv-x="355"
 />
    <glyph glyph-name="space" unicode=" " horiz-adv-x="800"
 />
    <glyph glyph-name="exclam" unicode="!" horiz-adv-x="251"
d="M117 784q-14 0 -24.5 -10t-10.5 -25v-17q0 -15 10.5 -25t24.5 -10h18q15 0 25 10t10 25v17q0 15 -10 25t-25 10h-18zM160 642h-68v-642h68v642z" />
    <glyph glyph-name="quotedbl" unicode="&#x22;" horiz-adv-x="361"
d="M92 789v-167h68v167h-68zM201 789v-167h68v167h-68z" />
    <glyph glyph-name="numbersign" unicode="#" horiz-adv-x="1191"
d="M1100 774h-70l-203 -264h-272l200 264h-65l-203 -264h-230l-33 -42h230l-101 -124h-227l-33 -45h226l-227 -284h73l226 284h275l-234 -284h68l226 284h203l34 45h-203l97 124h205l31 42h-200zM699 344h-274l98 124h269z" />
    <glyph glyph-name="dollar" unicode="$" horiz-adv-x="848"
d="M655 66q101 64 101 154q0 85 -83 145l-9 6t-8 5q-8 3 -17 8q-68 33 -169 45v283h272v71h-272v133h-68v-133q-126 -9 -209 -59q-101 -61 -101 -150q0 -61 46.5 -108t103.5 -68t115 -27q15 -2 45 -4v-290h-310v-73h310v-106h68v108q105 10 185 60zM402 712v-278
q-48 4 -100.5 20t-95 49t-42.5 72q0 40 43 71.5t93.5 46t101.5 19.5zM601 328q36 -18 60 -47t24 -62q0 -38 -38 -69t-84.5 -47.5t-92.5 -22.5v281q85 -9 131 -33z" />
    <glyph glyph-name="percent" unicode="%"
d="M122 672q0 -67 50.5 -112.5t118.5 -45.5t120.5 45t52.5 113q0 69 -51.5 114.5t-121.5 45.5q-69 0 -119 -46t-50 -114zM791 787h-76l-623 -784l75 -3zM403 672q0 -43 -33.5 -72t-78.5 -29q-44 0 -76 29.5t-32 71.5q0 44 31.5 73.5t76.5 29.5q46 0 79 -29.5t33 -73.5z
M447 156q0 -67 50.5 -112.5t118.5 -45.5t120 45t52 113q0 69 -51 114.5t-121 45.5q-69 0 -119 -46t-50 -114zM728 156q0 -43 -33.5 -72t-78.5 -29q-44 0 -76.5 29.5t-32.5 71.5q0 44 32 73.5t77 29.5q46 0 79 -29.5t33 -73.5z" />
    <glyph glyph-name="ampersand" unicode="&#x26;" horiz-adv-x="853"
d="M299 -20l14 -1q148 0 292 117l111 -110l7 7q7 7 16 13q12 8 18 13l4 3v12l-105 100l105 88l-49 40l-94 -77l-218 228q96 84 100 88q23 20 38.5 53.5t15.5 64.5q0 75 -54.5 130.5t-130.5 55.5q-88 0 -147 -51t-59 -138q0 -11 4.5 -32.5t11.5 -28.5l109 -128
q-128 -86 -179 -176q-17 -31 -17 -71q0 -33 15 -68q20 -51 54 -80t89 -43q46 -9 49 -9zM452 547q-85 -74 -101 -87q-6 6 -10 9l-15 15q-16 18 -85 102q-8 11 -8 32q0 56 38.5 89t96.5 33q48 0 83.5 -36t35.5 -84q0 -42 -35 -73zM565 144q-50 -40 -117.5 -69.5t-122.5 -29.5
q-70 0 -106 35q-27 24 -38 45t-11 54q0 91 168 197z" />
    <glyph glyph-name="quotesingle" unicode="'" horiz-adv-x="253"
d="M92 789v-167h69v167h-69z" />
    <glyph glyph-name="parenleft" unicode="(" horiz-adv-x="459"
d="M281 0h87l-21 18q-194 172 -194 375t194 374l21 18h-87l-3 -3q-186 -179 -186 -389q0 -209 186 -390z" />
    <glyph glyph-name="parenright" unicode=")" horiz-adv-x="459"
d="M178 785h-86l21 -18q193 -171 193 -374q0 -204 -193 -375l-21 -18h86l3 3q187 180 187 389q0 208 -187 390z" />
    <glyph glyph-name="asterisk" unicode="*" horiz-adv-x="499"
d="M407 639v49h-84l61 47l-43 32l-64 -48v69h-55v-69l-64 48l-43 -32l59 -47h-82v-49h82l-59 -45l43 -33l64 48v-69h55v69l64 -48l43 33l-60 45h83z" />
    <glyph glyph-name="plus" unicode="+" horiz-adv-x="722"
d="M630 385v66h-234v169h-72v-169h-232v-66h232v-169h72v169h234z" />
    <glyph glyph-name="comma" unicode="," horiz-adv-x="335"
d="M92 -116h72l79 210h-73z" />
    <glyph glyph-name="hyphen" unicode="-"
d="M92 327v-69h708v69h-708z" />
    <glyph glyph-name="period" unicode="." horiz-adv-x="272"
d="M127 93q-14 0 -24.5 -10t-10.5 -25v-17q0 -15 10.5 -25t24.5 -10h18q15 0 25 10t10 25v17q0 15 -10 25t-25 10h-18z" />
    <glyph glyph-name="slash" unicode="/" horiz-adv-x="883"
d="M791 785h-83l-616 -785h81z" />
    <glyph glyph-name="zero" unicode="0"
d="M198 728q-106 -59 -106 -143v-383q0 -85 106 -145q103 -57 248 -57q146 0 248 57q106 60 106 145v383q0 84 -106 143q-99 57 -248 57q-147 0 -248 -57zM446 62q-54 0 -115 12.5t-114 45.5t-53 80v383q0 36 30.5 65t76.5 44t91.5 23t83.5 8q39 0 84.5 -7.5t91.5 -23
t76 -44t30 -65.5v-383q0 -36 -30.5 -64t-76.5 -43.5t-91.5 -23t-83.5 -7.5z" />
    <glyph glyph-name="one" unicode="1" horiz-adv-x="520"
d="M92 588h132l132 84v-672h72v794z" />
    <glyph glyph-name="two" unicode="2" horiz-adv-x="900"
d="M808 69h-530l447 405q47 43 47 109q0 56 -37 92t-96 65q-87 41 -180 41q-78 0 -159.5 -26.5t-124.5 -78.5q-40 -49 -40 -84q0 -6 1 -8l1 -10h70v11q0 36 35 68q74 64 213 64q72 0 147.5 -27t99.5 -76q6 -13 6 -28q0 -39 -48 -81l-568 -505h716v69z" />
    <glyph glyph-name="three" unicode="3"
d="M643 392q65 25 111 67.5t46 99.5v26q0 84 -106 143q-99 57 -248 57q-147 0 -248 -57q-106 -59 -106 -143v-11h70v11q0 51 89 96q90 45 195 45q106 0 196 -45q88 -43 88 -96v-26q0 -52 -88 -91q-89 -40 -195 -40h-85v-69h85q107 0 195 -41q88 -40 88 -92v-24
q0 -51 -88 -96q-89 -46 -196 -46q-104 0 -198 46q-91 46 -91 96v11h-65v-11q0 -85 106 -145q103 -57 248 -57q146 0 248 57q106 60 106 145v24q0 58 -46 99.5t-111 66.5z" />
    <glyph glyph-name="four" unicode="4" horiz-adv-x="910"
d="M275 260l543 445v92l-726 -605h660v-192h66v403h-66v-143h-477z" />
    <glyph glyph-name="five" unicode="5"
d="M162 715h638v70h-708v-403h355q106 0 196 -40q41 -20 62 -37q32 -24 32 -53q0 -17 -2 -49q-2 -53 -93 -99q-91 -47 -195 -47q-107 0 -195 47q-90 47 -90 98v11h-70v-11q0 -85 106 -145q102 -57 249 -57q148 0 249 57q101 58 103 145q0 8 0.5 25t0.5 26q0 82 -104 141
q-103 58 -249 58h-285v263z" />
    <glyph glyph-name="six" unicode="6"
d="M800 200v97q0 85 -105 147q-93 55 -230 55q-194 0 -303 -75v159q0 53 89 98q88 47 195 47t195 -47q87 -45 87 -98v-10h72v10q0 85 -106 145q-99 57 -248 57q-147 0 -248 -57q-106 -60 -106 -145v-383q0 -84 106 -143q103 -57 248 -57q146 0 248 57q106 59 106 143z
M734 297v-97q0 -50 -90 -90q-94 -41 -198 -41q-105 0 -196 41q-88 40 -88 90v97q0 51 88 93q93 41 196 41q106 0 198 -42q90 -40 90 -92z" />
    <glyph glyph-name="seven" unicode="7" horiz-adv-x="903"
d="M811 785h-719v-64h584l-553 -721h79z" />
    <glyph glyph-name="eight" unicode="8"
d="M643 392q65 25 111 67.5t46 99.5v26q0 84 -106 143q-99 57 -248 57q-147 0 -248 -57q-106 -59 -106 -143v-26q0 -57 46 -99.5t110 -67.5q-65 -25 -110.5 -66.5t-45.5 -99.5v-24q0 -85 106 -145q103 -57 248 -57q146 0 248 57q106 60 106 145v24q0 58 -46 99.5t-111 66.5z
M249 462q-91 47 -91 97v26q0 53 91 99q93 48 197 48q106 0 198 -48q90 -45 90 -99v-26q0 -51 -90 -97q-94 -47 -198 -47q-103 0 -197 47zM646 316q91 -39 91 -90v-24q0 -50 -92 -96q-95 -46 -199 -46q-105 0 -199 46q-92 45 -92 96v24q0 52 91 90q93 39 200 39
q106 0 200 -39z" />
    <glyph glyph-name="nine" unicode="9"
d="M92 585v-97q0 -83 106 -146q96 -56 229 -56q193 0 303 75v-159q0 -52 -88 -97q-93 -48 -196 -48t-194 48q-88 47 -88 97v11h-72v-11q0 -85 106 -145q103 -57 248 -57q146 0 248 57q106 60 106 145v383q0 84 -106 143q-99 57 -248 57q-147 0 -248 -57q-106 -59 -106 -143z
M158 488v97q0 51 90 90q92 40 198 40t196 -40q88 -38 88 -90v-97q0 -53 -88 -92q-89 -41 -196 -41t-198 41q-90 40 -90 92z" />
    <glyph glyph-name="colon" unicode=":" horiz-adv-x="272"
d="M127 400q-14 0 -24.5 -10.5t-10.5 -24.5v-18q0 -14 10.5 -24.5t24.5 -10.5h18q15 0 25 10.5t10 24.5v18q0 14 -10 24.5t-25 10.5h-18zM127 93q-14 0 -24.5 -10t-10.5 -25v-17q0 -15 10.5 -25t24.5 -10h18q15 0 25 10t10 25v17q0 15 -10 25t-25 10h-18z" />
    <glyph glyph-name="semicolon" unicode=";" horiz-adv-x="330"
d="M198 401q-14 0 -24.5 -10.5t-10.5 -24.5v-18q0 -14 10.5 -24.5t24.5 -10.5h18q15 0 25 10.5t10 24.5v18q0 14 -10 24.5t-25 10.5h-18zM92 -116h72l79 210h-73z" />
    <glyph glyph-name="less" unicode="&#x3c;" horiz-adv-x="903"
d="M811 -7v71l-602 328l602 334v67l-719 -401z" />
    <glyph glyph-name="equal" unicode="=" horiz-adv-x="649"
d="M92 499v-58h465v58h-465zM92 391v-59h465v59h-465z" />
    <glyph glyph-name="greater" unicode="&#x3e;" horiz-adv-x="903"
d="M693 392l-601 -328v-71l719 399l-719 401v-67z" />
    <glyph glyph-name="question" unicode="?" horiz-adv-x="793"
d="M184 751q-92 -64 -92 -155v-11h54v11q0 59 74 113q66 48 171 48q135 0 202 -54q58 -48 58 -107q0 -62 -43 -110t-124 -55q-40 -4 -59 -6q-44 -6 -59 -14q-18 -11 -29.5 -34t-11.5 -44v-218h51v218q0 20 19 31t45 11q126 0 193 64q68 65 68 156q0 92 -88 156
q-85 63 -213 63t-216 -63zM342 91q-15 0 -25 -10t-10 -25v-17q0 -15 10 -25t25 -10h18q14 0 24.5 10t10.5 25v17q0 15 -10.5 25t-24.5 10h-18z" />
    <glyph glyph-name="at" unicode="@" horiz-adv-x="1130"
d="M1008 268q29 80 29 144q0 171 -139 293q-137 122 -333 122q-197 0 -335 -122q-139 -123 -139 -294q0 -173 139 -295q140 -122 335 -122q148 0 266 73l35 21l-41 -2q-78 -2 -116 -4q-1 -1 -5 -1q-1 -1 -2 -1t-1.5 -0.5t-1.5 -0.5q-11 -3 -14 -4l-24 -7q-46 -10 -96 -10
q-167 0 -292 104t-125 248t125 250q123 107 292 107q167 0 289 -107q123 -105 123 -248v-17q0 -28 -7.5 -67.5t-17.5 -58.5q-11 -20 -42.5 -29.5t-63.5 -9.5q-27 0 -51 10q-26 9 -26 28v393h-54v-41q-65 44 -168 44q-95 0 -156 -36q-68 -38 -68 -93v-237q0 -54 68 -93
q66 -37 156 -37q114 0 180 52q14 -26 47 -42.5t62 -16.5q56 0 94 20t68 67q1 1 2.5 3.5t2.5 3.5q0 1 1.5 4.5t2.5 5.5l1 7v-4zM715 545l1 -247q0 -36 -64 -59q-50 -19 -105 -19q-65 0 -118 25q-52 23 -52 53v237q0 36 65 59q54 19 105 19q65 0 119 -25q12 -5 32 -19
q17 -14 17 -24z" />
    <glyph glyph-name="A" unicode="A" horiz-adv-x="1079"
d="M92 0h82l363 652l368 -652h82l-449 796z" />
    <glyph glyph-name="B" unicode="B" horiz-adv-x="857"
d="M766 226q0 135 -158 194q62 24 105 65.5t43 99.5q0 85 -104 143q-99 57 -249 57h-311v-785h311q164 0 261 64q102 67 102 162zM403 69h-241v646h241q108 0 194 -40q84 -39 84 -90q0 -52 -84 -92q-64 -32 -142 -38q-25 -3 -150 -5l-10 -1v-67h10q117 0 158 -4
q87 -9 147 -43q82 -46 82 -109t-82 -110q-86 -47 -207 -47z" />
    <glyph glyph-name="C" unicode="C"
d="M253 111q-87 40 -87 91v383q0 51 86 90q87 40 194 40q108 0 194 -40q86 -39 86 -90v-11h74v11q0 84 -106 143q-99 57 -248 57q-147 0 -248 -57q-106 -59 -106 -143v-383q0 -85 106 -145q103 -57 248 -57q146 0 248 57q106 60 106 145v11h-74v-11q0 -52 -86 -91
q-90 -42 -194 -42q-103 0 -193 42z" />
    <glyph glyph-name="D" unicode="D" horiz-adv-x="891"
d="M593 672q-198 113 -490 113h-11v-785h11q288 0 490 114q206 117 206 279q0 161 -206 279zM558 173q-174 -100 -398 -102v643q230 -2 399 -100q173 -101 173 -220q0 -120 -174 -221z" />
    <glyph glyph-name="E" unicode="E"
d="M164 715h636v70h-708v-785h708v69h-636v290h464v69h-464v287z" />
    <glyph glyph-name="F" unicode="F"
d="M166 715h634v70h-708v-785h74v359h462v69h-462v287z" />
    <glyph glyph-name="G" unicode="G"
d="M253 111q-87 40 -87 91v383q0 51 86 90q87 40 194 40q108 0 194 -40q86 -39 86 -90v-11h74v11q0 84 -106 143q-99 57 -248 57q-147 0 -248 -57q-106 -59 -106 -143v-383q0 -85 106 -145q103 -57 248 -57q146 0 248 57q106 60 106 145v194h-357v-73h283v-121
q0 -52 -86 -91q-90 -42 -194 -42q-103 0 -193 42z" />
    <glyph glyph-name="H" unicode="H"
d="M800 785h-76v-357h-556v357h-76v-785h76v359h556v-359h76v785z" />
    <glyph glyph-name="I" unicode="I"
d="M481 715h319v70h-708v-70h321v-646h-321v-69h708v69h-319v646z" />
    <glyph glyph-name="J" unicode="J"
d="M800 785h-708v-70h634v-513q0 -52 -86 -91q-90 -42 -193 -42q-105 0 -196 42q-85 39 -85 91v11h-74v-11q0 -85 106 -145q101 -57 249 -57t249 57q104 61 104 145v583z" />
    <glyph glyph-name="K" unicode="K" horiz-adv-x="1052"
d="M398 392l563 393h-111l-513 -357h-175v357h-70v-785h70v359h175l511 -359h113z" />
    <glyph glyph-name="L" unicode="L"
d="M800 68h-638v719h-70v-787h708v68z" />
    <glyph glyph-name="M" unicode="M" horiz-adv-x="1044"
d="M952 799l-431 -393l-429 393v-799h61v656l368 -332l372 334l-2 -658h61v799z" />
    <glyph glyph-name="N" unicode="N" horiz-adv-x="1044"
d="M952 785h-70v-643l-790 655v-797h66v649l794 -661v797z" />
    <glyph glyph-name="O" unicode="O"
d="M800 202v383q0 82 -104 143q-101 57 -249 57t-249 -57q-106 -59 -106 -143v-383q0 -85 106 -145q101 -57 249 -57t249 57q104 61 104 145zM726 585v-383q0 -52 -86 -91q-90 -42 -193 -42q-105 0 -196 42q-85 38 -85 91v383q0 54 85 90q92 40 196 40t193 -40
q86 -36 86 -90z" />
    <glyph glyph-name="P" unicode="P" horiz-adv-x="883"
d="M690 728q-97 57 -243 57h-355v-785h72v715h283q106 0 189 -40q83 -38 83 -90t-83 -92q-67 -33 -155 -40q-13 -1 -165 -1h-10v-70h141q146 0 243 57q101 59 101 145q0 84 -101 144z" />
    <glyph glyph-name="Q" unicode="Q" horiz-adv-x="895"
d="M800 202v383q0 82 -104 143q-101 57 -249 57t-249 -57q-106 -59 -106 -143v-383q0 -85 106 -145q101 -57 249 -57q140 0 241 53l69 -57l46 52l-56 46q53 46 53 108zM726 585v-383q0 -33 -36 -62l-214 178l-44 -55l193 -159q-87 -35 -178 -35q-105 0 -196 42
q-85 38 -85 91v383q0 52 85 90q90 40 196 40q104 0 193 -40q86 -38 86 -90z" />
    <glyph glyph-name="R" unicode="R" horiz-adv-x="899"
d="M710 0h97l-287 386q44 6 87 19.5t86.5 36t70.5 60t27 83.5q0 82 -101 143q-95 57 -243 57h-355v-785h70v715h285q103 0 189 -40q83 -38 83 -90t-83 -91q-88 -42 -189 -42h-141v-70h128z" />
    <glyph glyph-name="S" unicode="S" horiz-adv-x="848"
d="M247 477q-83 43 -83 98q0 54 83 96q85 41 189 41h306v71h-306q-148 0 -243 -59q-101 -63 -101 -150t101 -151q69 -42 164 -52q17 -2 59.5 -5t66.5 -6q78 -11 118 -32q84 -44 84 -109q0 -57 -84 -98q-87 -44 -189 -44h-320v-73h320q147 0 243 62q101 64 101 154
q0 85 -83 145q-77 54 -212 65q-74 6 -111 12q-57 11 -103 35z" />
    <glyph glyph-name="T" unicode="T"
d="M800 785h-708v-64h321v-721h66v721h321v64z" />
    <glyph glyph-name="U" unicode="U"
d="M800 785h-70v-583q0 -51 -88 -91q-90 -42 -196 -42q-103 0 -193 42q-87 40 -87 91v583h-74v-583q0 -85 106 -145q103 -57 248 -57q146 0 248 57q106 60 106 145v583z" />
    <glyph glyph-name="V" unicode="V" horiz-adv-x="1079"
d="M987 785h-77l-371 -665l-367 665h-80l445 -796z" />
    <glyph glyph-name="W" unicode="W" horiz-adv-x="1377"
d="M840 -11l446 796h-78l-368 -652l-109 200l256 452h-84l-213 -383l-210 383h-87l254 -452l-110 -200l-370 652h-75l445 -796l153 267z" />
    <glyph glyph-name="X" unicode="X" horiz-adv-x="1074"
d="M979 0l-395 391l398 394h-88l-358 -351l-354 351h-90l398 -394l-395 -391h92l349 349l351 -349h92z" />
    <glyph glyph-name="Y" unicode="Y" horiz-adv-x="1107"
d="M582 397l433 388h-96l-367 -327l-364 327h-96l426 -388l4 -397h63z" />
    <glyph glyph-name="Z" unicode="Z" horiz-adv-x="1041"
d="M246 63l704 724h-844v-64h696l-710 -723h830v63h-676z" />
    <glyph glyph-name="bracketleft" unicode="[" horiz-adv-x="377"
d="M151 726h134v59h-193v-785h193v58h-134v668z" />
    <glyph glyph-name="backslash" unicode="\" horiz-adv-x="883"
d="M92 785l616 -785h83l-618 785h-81z" />
    <glyph glyph-name="bracketright" unicode="]" horiz-adv-x="377"
d="M226 58h-134v-58h193v785h-193v-59h134v-668z" />
    <glyph glyph-name="asciicircum" unicode="^" horiz-adv-x="700"
d="M350 934l204 -365h54l-258 454l-258 -454h51z" />
    <glyph glyph-name="underscore" unicode="_" horiz-adv-x="1140"
d="M92 69v-69h956v69h-956z" />
    <glyph glyph-name="a" unicode="a" horiz-adv-x="1079"
d="M92 0h82l363 652l368 -652h82l-449 796z" />
    <glyph glyph-name="b" unicode="b" horiz-adv-x="857"
d="M766 226q0 135 -158 194q62 24 105 65.5t43 99.5q0 85 -104 143q-99 57 -249 57h-311v-785h311q164 0 261 64q102 67 102 162zM403 69h-241v646h241q108 0 194 -40q84 -39 84 -90q0 -52 -84 -92q-64 -32 -142 -38q-25 -3 -150 -5l-10 -1v-67h10q117 0 158 -4
q87 -9 147 -43q82 -46 82 -109t-82 -110q-86 -47 -207 -47z" />
    <glyph glyph-name="c" unicode="c"
d="M253 111q-87 40 -87 91v383q0 51 86 90q87 40 194 40q108 0 194 -40q86 -39 86 -90v-11h74v11q0 84 -106 143q-99 57 -248 57q-147 0 -248 -57q-106 -59 -106 -143v-383q0 -85 106 -145q103 -57 248 -57q146 0 248 57q106 60 106 145v11h-74v-11q0 -52 -86 -91
q-90 -42 -194 -42q-103 0 -193 42z" />
    <glyph glyph-name="d" unicode="d" horiz-adv-x="891"
d="M593 672q-198 113 -490 113h-11v-785h11q288 0 490 114q206 117 206 279q0 161 -206 279zM558 173q-174 -100 -398 -102v643q230 -2 399 -100q173 -101 173 -220q0 -120 -174 -221z" />
    <glyph glyph-name="e" unicode="e"
d="M164 715h636v70h-708v-785h708v69h-636v290h464v69h-464v287z" />
    <glyph glyph-name="f" unicode="f"
d="M166 715h634v70h-708v-785h74v359h462v69h-462v287z" />
    <glyph glyph-name="g" unicode="g"
d="M253 111q-87 40 -87 91v383q0 51 86 90q87 40 194 40q108 0 194 -40q86 -39 86 -90v-11h74v11q0 84 -106 143q-99 57 -248 57q-147 0 -248 -57q-106 -59 -106 -143v-383q0 -85 106 -145q103 -57 248 -57q146 0 248 57q106 60 106 145v194h-357v-73h283v-121
q0 -52 -86 -91q-90 -42 -194 -42q-103 0 -193 42z" />
    <glyph glyph-name="h" unicode="h"
d="M800 785h-76v-357h-556v357h-76v-785h76v359h556v-359h76v785z" />
    <glyph glyph-name="i" unicode="i"
d="M481 715h319v70h-708v-70h321v-646h-321v-69h708v69h-319v646z" />
    <glyph glyph-name="j" unicode="j"
d="M800 785h-708v-70h634v-513q0 -52 -86 -91q-90 -42 -193 -42q-105 0 -196 42q-85 39 -85 91v11h-74v-11q0 -85 106 -145q101 -57 249 -57t249 57q104 61 104 145v583z" />
    <glyph glyph-name="k" unicode="k" horiz-adv-x="1052"
d="M398 392l563 393h-111l-513 -357h-175v357h-70v-785h70v359h175l511 -359h113z" />
    <glyph glyph-name="l" unicode="l"
d="M800 68h-638v719h-70v-787h708v68z" />
    <glyph glyph-name="m" unicode="m" horiz-adv-x="1044"
d="M952 799l-431 -393l-429 393v-799h61v656l368 -332l372 334l-2 -658h61v799z" />
    <glyph glyph-name="n" unicode="n" horiz-adv-x="1044"
d="M952 785h-70v-643l-790 655v-797h66v649l794 -661v797z" />
    <glyph glyph-name="o" unicode="o"
d="M800 202v383q0 82 -104 143q-101 57 -249 57t-249 -57q-106 -59 -106 -143v-383q0 -85 106 -145q101 -57 249 -57t249 57q104 61 104 145zM726 585v-383q0 -52 -86 -91q-90 -42 -193 -42q-105 0 -196 42q-85 38 -85 91v383q0 54 85 90q92 40 196 40t193 -40
q86 -36 86 -90z" />
    <glyph glyph-name="p" unicode="p" horiz-adv-x="883"
d="M690 728q-97 57 -243 57h-355v-785h72v715h283q106 0 189 -40q83 -38 83 -90t-83 -92q-67 -33 -155 -40q-13 -1 -165 -1h-10v-70h141q146 0 243 57q101 59 101 145q0 84 -101 144z" />
    <glyph glyph-name="q" unicode="q" horiz-adv-x="895"
d="M800 202v383q0 82 -104 143q-101 57 -249 57t-249 -57q-106 -59 -106 -143v-383q0 -85 106 -145q101 -57 249 -57q140 0 241 53l69 -57l46 52l-56 46q53 46 53 108zM726 585v-383q0 -33 -36 -62l-214 178l-44 -55l193 -159q-87 -35 -178 -35q-105 0 -196 42
q-85 38 -85 91v383q0 52 85 90q90 40 196 40q104 0 193 -40q86 -38 86 -90z" />
    <glyph glyph-name="r" unicode="r" horiz-adv-x="899"
d="M710 0h97l-287 386q44 6 87 19.5t86.5 36t70.5 60t27 83.5q0 82 -101 143q-95 57 -243 57h-355v-785h70v715h285q103 0 189 -40q83 -38 83 -90t-83 -91q-88 -42 -189 -42h-141v-70h128z" />
    <glyph glyph-name="s" unicode="s" horiz-adv-x="848"
d="M247 477q-83 43 -83 98q0 54 83 96q85 41 189 41h306v71h-306q-148 0 -243 -59q-101 -63 -101 -150t101 -151q69 -42 164 -52q17 -2 59.5 -5t66.5 -6q78 -11 118 -32q84 -44 84 -109q0 -57 -84 -98q-87 -44 -189 -44h-320v-73h320q147 0 243 62q101 64 101 154
q0 85 -83 145q-77 54 -212 65q-74 6 -111 12q-57 11 -103 35z" />
    <glyph glyph-name="t" unicode="t"
d="M800 785h-708v-64h321v-721h66v721h321v64z" />
    <glyph glyph-name="u" unicode="u"
d="M800 785h-70v-583q0 -51 -88 -91q-90 -42 -196 -42q-103 0 -193 42q-87 40 -87 91v583h-74v-583q0 -85 106 -145q103 -57 248 -57q146 0 248 57q106 60 106 145v583z" />
    <glyph glyph-name="v" unicode="v" horiz-adv-x="1079"
d="M987 785h-77l-371 -665l-367 665h-80l445 -796z" />
    <glyph glyph-name="w" unicode="w" horiz-adv-x="1377"
d="M840 -11l446 796h-78l-368 -652l-109 200l256 452h-84l-213 -383l-210 383h-87l254 -452l-110 -200l-370 652h-75l445 -796l153 267z" />
    <glyph glyph-name="x" unicode="x" horiz-adv-x="1074"
d="M979 0l-395 391l398 394h-88l-358 -351l-354 351h-90l398 -394l-395 -391h92l349 349l351 -349h92z" />
    <glyph glyph-name="y" unicode="y" horiz-adv-x="1107"
d="M582 397l433 388h-96l-367 -327l-364 327h-96l426 -388l4 -397h63z" />
    <glyph glyph-name="z" unicode="z" horiz-adv-x="1041"
d="M246 63l704 724h-844v-64h696l-710 -723h830v63h-676z" />
    <glyph glyph-name="bar" unicode="|" horiz-adv-x="246"
d="M92 785v-785h63v785h-63z" />
    <glyph glyph-name="exclamdown" unicode="&#xa1;" horiz-adv-x="251"
d="M92 787v-642h68v642h-68zM117 89q-14 0 -24.5 -10t-10.5 -25v-17q0 -15 10.5 -25t24.5 -10h18q15 0 25 10t10 25v17q0 15 -10 25t-25 10h-18z" />
    <glyph glyph-name="sterling" unicode="&#xa3;"
d="M800 64l-509 -2q64 95 64 195q0 11 -1 16h404v58h-408q-15 42 -42 78q-36 48 -77 79l-24 17q-48 37 -48 80q0 63 103 111q87 41 205 41q65 0 132.5 -23.5t110.5 -64.5l3 -3h76l-14 17q-101 123 -332 123q-116 0 -209 -41q-60 -25 -101 -66.5t-41 -100.5q0 -64 74 -119
q83 -62 111 -128h-143v-58h160v-16q0 -133 -162 -238l-29 -19h697v64z" />
    <glyph glyph-name="yen" unicode="&#xa5;" horiz-adv-x="920"
d="M489 342v89l339 354h-84l-283 -314l-287 314h-82l338 -354v-89h-324v-55h324v-90h-324v-53h324v-144h59v144h325v53h-325v90h325v55h-325z" />
    <glyph glyph-name="copyright" unicode="&#xa9;" horiz-adv-x="1086"
d="M92 398q0 -121 60.5 -223.5t164.5 -162.5t226 -60t226 60t164.5 162.5t60.5 223.5t-60.5 223.5t-164.5 162.5t-226 60t-226 -60t-164.5 -162.5t-60.5 -223.5zM933 398q0 -160 -114.5 -273t-275.5 -113q-162 0 -276 113t-114 273t114 273t276 113q161 0 275.5 -113
t114.5 -273zM372 276v237q0 35 65 58q50 19 105 19t105 -19q64 -21 64 -58v-11h54v11q0 54 -68 93q-62 35 -155 35t-156 -35q-67 -40 -67 -93v-237q0 -55 67 -94q66 -36 156 -36t155 36q68 38 68 94v10h-54v-10q0 -35 -64 -60q-54 -19 -105 -19q-65 0 -118 25q-52 25 -52 54
z" />
    <glyph glyph-name="guillemotleft" unicode="&#xab;" horiz-adv-x="1297"
d="M811 -7v71l-602 328l602 334v67l-719 -401zM1206 -7v71l-602 328l602 334v67l-719 -401z" />
    <glyph glyph-name="registered" unicode="&#xae;" horiz-adv-x="1086"
d="M92 398q0 -121 60.5 -223.5t164.5 -162.5t226 -60t226 60t164.5 162.5t60.5 223.5t-60.5 223.5t-164.5 162.5t-226 60t-226 -60t-164.5 -162.5t-60.5 -223.5zM933 398q0 -160 -114.5 -273t-275.5 -113q-162 0 -276 113t-114 273t114 273t276 113q161 0 275.5 -113
t114.5 -273zM769 178l-161 217q57 10 102 37.5t45 77.5q0 32 -21.5 56.5t-54.5 37t-63.5 18t-56.5 5.5h-204v-449h49v400h155q49 0 92 -16q55 -19 55 -52q0 -31 -55 -52q-46 -18 -92 -18h-84v-49h74l155 -213h65z" />
    <glyph glyph-name="degree" unicode="&#xb0;" horiz-adv-x="597"
d="M92 796q0 -81 61 -136t143 -55q83 0 146 54.5t63 136.5q0 83 -62.5 138.5t-146.5 55.5q-83 0 -143.5 -55.5t-60.5 -138.5zM436 796q0 -54 -41.5 -90t-98.5 -36q-54 0 -94.5 37t-40.5 89q0 55 39.5 92t95.5 37q57 0 98.5 -37t41.5 -92z" />
    <glyph glyph-name="guillemotright" unicode="&#xbb;" horiz-adv-x="1297"
d="M693 392l-601 -328v-71l719 399l-719 401v-67zM1089 392l-602 -328v-71l719 399l-719 401v-67z" />
    <glyph glyph-name="questiondown" unicode="&#xbf;" horiz-adv-x="793"
d="M609 66q92 62 92 154v10h-54v-10q0 -58 -74 -112q-69 -50 -171 -50q-132 0 -201 55q-59 48 -59 107q0 60 44 109q42 49 123 56q40 4 59 6q47 6 58 14q19 11 30 33.5t11 43.5v218h-50v-218q0 -19 -19 -30t-45 -11q-128 0 -193 -64q-68 -65 -68 -155q0 -92 88 -156
q87 -64 213 -64t216 64z" />
    <glyph glyph-name="multiply" unicode="&#xd7;" horiz-adv-x="731"
d="M578 253l-164 164l158 155l-52 51l-157 -155l-165 161l-46 -47l163 -162l-159 -164l51 -50l160 163l165 -163z" />
    <glyph glyph-name="divide" unicode="&#xf7;" horiz-adv-x="722"
d="M317 544v-18q0 -14 10 -24.5t25 -10.5h18q14 0 24.5 10.5t10.5 24.5v18q0 14 -10.5 24.5t-24.5 10.5h-18q-15 0 -25 -10.5t-10 -24.5zM630 451h-538v-66h538v66zM316 306v-18q0 -14 10 -24.5t25 -10.5h18q14 0 24.5 10.5t10.5 24.5v18q0 14 -10.5 24.5t-24.5 10.5h-18
q-15 0 -25 -10.5t-10 -24.5z" />
    <glyph glyph-name="quoteleft" unicode="&#x2018;" horiz-adv-x="257"
d="M98 623h76l-36 161h-67z" />
    <glyph glyph-name="quoteright" unicode="&#x2019;" horiz-adv-x="257"
d="M106 784l-35 -161h75l28 161h-68z" />
    <glyph glyph-name="quotedblleft" unicode="&#x201c;" horiz-adv-x="366"
d="M98 623h76l-36 161h-67zM211 621h74l-37 163h-70z" />
    <glyph glyph-name="quotedblright" unicode="&#x201d;" horiz-adv-x="366"
d="M107 784l-36 -163h73l33 163h-70zM217 784l-35 -161h75l28 161h-68z" />
    <glyph glyph-name="guilsinglleft" unicode="&#x2039;" horiz-adv-x="903"
d="M811 -7v71l-602 328l602 334v67l-719 -401z" />
    <glyph glyph-name="guilsinglright" unicode="&#x203a;" horiz-adv-x="903"
d="M92 793v-71l601 -330l-601 -332v-67l719 399z" />
    <glyph glyph-name="trademark" unicode="&#x2122;" horiz-adv-x="940"
d="M848 798l-202 -184l-201 184v-382h39v291l162 -146l164 147l-1 -292h39v382zM426 784h-334v-40h145v-328h42v328h147v40z" />
    <glyph glyph-name="_FSHallmark" horiz-adv-x="949"
d="M50 751h851v-101h-851v101zM791 461q0 9 -8 23q-8 10 -19 18q-23 10 -24 10q-18 4 -24 4q-24 0 -50 -14q-21 -14 -21 -29q0 -31 20 -42q29 -14 45 -17l37 -9l31 -7q21 -7 30 -7q16 -3 25 -7q3 -2 10.5 -5.5t10.5 -5.5q23 -14 32 -28q10 -16 13 -45q3 -26 -11 -50
q-23 -44 -75 -61q-48 -15 -95 -15q-44 0 -71 8q-31 10 -59 30q-25 16 -43 47q-16 28 -16 68l99 -2q0 -6 5 -16q1 -13 14 -26t26 -18q18 -10 48 -10q33 0 54 12q21 11 21 27q0 32 -81 47q-84 23 -125 46q-51 26 -51 85q0 48 33 76q31 25 75 41q35 8 71 8q50 0 95 -19
q49 -19 68 -67q12 -31 12 -50h-102zM162 174h-112v422h359v-96h-247v-95h205v-94h-205v-137zM398 224q0 24 15 37q14 13 36 13q23 0 41 -15q17 -12 17 -35q0 -20 -17 -35q-17 -13 -41 -13q-19 0 -34 15q-17 15 -17 33zM48 121h851v-101h-851v101z" />
    <glyph glyph-name="_Fontastica" horiz-adv-x="736"
d="M154 127h-105q-1 2 -1 5v618h463v-95h-357v-254h357v-96h-357v-178zM221 573h358v177h105v-621h-463v94h358v255h-358v95zM579 66q-6 -4 -6 -8q0 -10 4 -14q6 -6 11 -6q10 0 18 6l6 -6q-11 -11 -24 -11q-5 0 -19 6q-7 12 -8 21q0 12 7 20q10 10 20 10q12 0 24 -10l-6 -8
l-5 5q-1 1 -9 1h-4q-8 -4 -9 -6zM49 82h39v-10h-26v-13h25v-9h-25v-21h-13v53zM137 82q18 0 26 -14q8 -12 2 -24q-4 -14 -24 -17l-5 -2q-8 0 -12 4q-16 6 -16 24q0 14 7 21q7 8 22 8zM240 29h-4q-3 -2 -4 -2q-2 0 -8 6l-7 8q0 1 -1 2.5t-2 2.5t-1 2l-10 13v-32h-13v53h10
q5 -1 6 -7q6 -7 11 -14q5 -5 11 -15v36h12v-53zM261 82h45v-10h-16v-43h-11v43h-18v10zM428 58q11 0 11 -14q2 -11 -10 -15q-1 -2 -11 -2q-16 0 -23 9v2l1 2q0 1 2 4l17 -6h7l4 3q0 9 -12 12q-3 0 -3 1h-4q-9 4 -9 12q-3 9 8 14q6 2 11 2q14 0 22 -4l-4 -10l-4 2h-3
q-1 1 -4 1q-1 0 -2 1h-7q-4 0 -4 -2q-1 -2 4 -9q2 0 5 -1t5 -1.5t3 -0.5zM456 82h47v-10h-16v-43h-13v43h-18v10zM525 82h13v-53h-13v53zM665 82l12 -24q1 -4 6 -17q3 -10 5 -12h-11l-6 11h-26l-4 -11h-12q11 19 21 53h15zM354 80l6 -12q4 -8 6 -11q3 -6 5 -16
q0 -1 0.5 -3.5t2 -5t1.5 -3.5h-12q-1 1 -1 4l-2 7h-27v-7v-1l-3 -3h-10l21 51h13zM151 57q0 7 -4 11t-11 4q-2 -1 -5 -1q-1 0 -2 -1.5t-3 -4t-4 -4.5q-8 -3 -2 -11q4 -12 17 -12h4q10 3 10 16v3zM356 50l-2 4q-3 5 -4 5q-1 1 -1 5q-1 1 -1 3t-1 3l-10 -20h19zM667 50l-2 4
q0 3 -2 5q-2 1 -2 5l-3 6l-9 -20h18z" />
    </font>
</defs>
</svg>
