<?xml version="1.0" standalone="no"?>
<!DOCTYPE svg PUBLIC "-//W3C//DTD SVG 1.1//EN" "http://www.w3.org/Graphics/SVG/1.1/DTD/svg11.dtd" >
<svg xmlns="http://www.w3.org/2000/svg" version="1.1">
<metadata>
Created by FontForge 20170731 at Wed Oct  9 20:14:07 2019
 By Aleksey,,,
Copyright (c) 2019 by Fontastica. All rights reserved.
</metadata>
<defs>
<font id="Walter-Italic" horiz-adv-x="906" >
  <font-face
    font-family="Walter Italic"
    font-weight="400"
    font-style="italic"
    font-stretch="normal"
    units-per-em="1067"
    panose-1="0 0 5 0 0 0 0 0 0 0"
    ascent="853"
    descent="-214"
    x-height="789"
    cap-height="789"
    bbox="48 -114 1434 1033"
    underline-thickness="50"
    underline-position="-200"
    slope="-9"
    unicode-range="U+0020-2122"
  />
<missing-glyph horiz-adv-x="812"
d="M247 981l-154 -972h628l154 972h-628zM495 557l-163 383h448zM448 493l-276 -381l124 762zM522 493l272 381l-117 -740zM191 48l284 383l164 -383h-448z" />
    <glyph glyph-name=".notdef" horiz-adv-x="812"
d="M247 981l-154 -972h628l154 972h-628zM495 557l-163 383h448zM448 493l-276 -381l124 762zM522 493l272 381l-117 -740zM191 48l284 383l164 -383h-448z" />
    <glyph glyph-name=".null" horiz-adv-x="404"
 />
    <glyph glyph-name="nonmarkingreturn" horiz-adv-x="355"
 />
    <glyph glyph-name="space" unicode=" " horiz-adv-x="800"
 />
    <glyph glyph-name="exclam" unicode="!" horiz-adv-x="271"
d="M270 788h-18q-19 0 -34 -13t-18 -31l-3 -17q-3 -18 8 -31.5t30 -13.5h18q19 0 34 13t18 32l3 17q3 18 -8 31t-30 13zM283 649h-88l-103 -649h88z" />
    <glyph glyph-name="quotedbl" unicode="&#x22;" horiz-adv-x="380"
d="M218 793l-30 -184h89l29 184h-88zM325 793l-29 -184h89l29 184h-89z" />
    <glyph glyph-name="numbersign" unicode="#" horiz-adv-x="1224"
d="M1256 778h-96l-242 -258h-243l239 258h-90l-242 -258h-228l-59 -62h227l-98 -101h-225l-59 -64h223l-269 -278h99l268 278h245l-276 -278h95l268 278h201l59 64h-200l95 101h204l55 62h-197zM766 357h-244l96 101h240z" />
    <glyph glyph-name="dollar" unicode="$" horiz-adv-x="862"
d="M471 -100l17 107q65 7 129.5 30.5t121.5 73.5t67 115q14 87 -63 150q-10 8 -16 11l-4 2t-3.5 2t-4 2t-4.5 2q-59 33 -154 44l41 258h269l14 90h-269l20 130h-88l-21 -131q-121 -9 -211 -58q-115 -64 -129 -156q-8 -48 12.5 -87.5t59 -63.5t80.5 -38.5t86 -19.5l35 -3
l-42 -264h-307l-14 -92h306l-16 -104h88zM509 696l-40 -249q-43 5 -87 19.5t-78.5 43.5t-28.5 63q8 51 99 89q62 24 135 34zM503 101l40 251q72 -9 109 -30q31 -17 49 -42.5t13 -54.5q-5 -32 -43.5 -60t-81.5 -42.5t-86 -21.5z" />
    <glyph glyph-name="percent" unicode="%" horiz-adv-x="927"
d="M442 835q-73 0 -133 -48t-71 -119q-11 -70 35 -117.5t117 -47.5q72 0 134 47t74 118q11 72 -36 119.5t-120 47.5zM952 791h-102l-757 -787l99 -4zM430 759q41 0 66.5 -26t19.5 -65q-6 -37 -39.5 -62.5t-74.5 -25.5q-39 0 -63.5 25.5t-19.5 62.5q7 39 39 65t72 26z
M684 330q-73 0 -133 -48t-71 -119q-11 -70 34.5 -117.5t116.5 -47.5q72 0 134 47t73 118q12 72 -34.5 119.5t-119.5 47.5zM672 254q41 0 66.5 -26t19.5 -65q-6 -38 -40 -63.5t-75 -25.5q-39 0 -64 26t-19 63q6 39 38.5 65t73.5 26z" />
    <glyph glyph-name="ampersand" unicode="&#x26;" horiz-adv-x="873"
d="M285 -17q22 -4 33 -4q147 0 306 111l93 -108l9 7q3 3 23 18q5 3 14.5 9t11.5 8l4 3l4 21l-84 93l118 87l-57 52l-104 -74l-168 208q70 52 104 79q65 53 76 123q12 78 -35.5 135.5t-127.5 57.5q-91 0 -161 -53.5t-85 -142.5q-6 -44 8 -66l82 -117q-138 -84 -198 -169
q-22 -32 -29 -74q-6 -36 4 -71q25 -102 129 -126q8 -2 30 -7zM490 724q43 0 70.5 -32t20.5 -75q-6 -36 -42 -64q-59 -47 -104 -79q-2 2 -7.5 8t-7.5 9q-12 14 -43 62q-7 11 -14 19l-11 17q-1 3 -2 12.5t0 13.5q8 50 47.5 79.5t92.5 29.5zM402 365l177 -213
q-54 -36 -120 -61.5t-116 -25.5q-62 0 -92 31q-22 22 -29 41t-2 49q12 82 182 179z" />
    <glyph glyph-name="quotesingle" unicode="'" horiz-adv-x="273"
d="M218 793l-30 -184h90l29 184h-89z" />
    <glyph glyph-name="parenleft" unicode="(" horiz-adv-x="496"
d="M285 0h120l-20 18q-181 172 -149 377q32 204 269 376l25 18h-120l-3 -3q-106 -91 -170 -184.5t-82 -206.5t16.5 -207.5t111.5 -184.5z" />
    <glyph glyph-name="parenright" unicode=")" horiz-adv-x="496"
d="M336 789h-119l19 -18q181 -170 149 -376q-33 -207 -268 -377l-25 -18h119l3 3q106 91 170.5 184t82.5 207q32 205 -129 392z" />
    <glyph glyph-name="asterisk" unicode="*" horiz-adv-x="517"
d="M524 626l11 68h-63l52 36l-52 44l-59 -39l9 57h-76l-9 -57l-47 39l-66 -44l40 -36h-62l-11 -68h61l-50 -34l52 -45l59 39l-9 -57h76l9 57l47 -39l67 45l-40 34h61z" />
    <glyph glyph-name="plus" unicode="+" horiz-adv-x="737"
d="M705 377l14 85h-232l26 166h-92l-26 -166h-230l-13 -85h229l-26 -166h92l27 166h231z" />
    <glyph glyph-name="comma" unicode="," horiz-adv-x="364"
d="M74 -114h94l122 227h-95z" />
    <glyph glyph-name="hyphen" unicode="-"
d="M146 341l-14 -88h722l14 88h-722z" />
    <glyph glyph-name="period" unicode="." horiz-adv-x="292"
d="M173 112h-18q-19 0 -34.5 -13.5t-17.5 -31.5l-3 -17q-3 -18 8 -31t30 -13h18q19 0 34 13t18 31l3 17q3 19 -8 32t-30 13z" />
    <glyph glyph-name="slash" unicode="/" horiz-adv-x="919"
d="M952 789h-109l-751 -789h107z" />
    <glyph glyph-name="zero" unicode="0"
d="M819 732q-93 57 -241 57q-149 0 -260 -57q-119 -62 -134 -149l-59 -375q-15 -90 86 -151q95 -57 242 -57q148 0 259 57q120 61 135 151l59 375q13 87 -87 149zM636 109q-87 -28 -170 -28q-85 0 -161 29q-98 34 -88 96l59 375q11 62 118 98q86 29 171 29t162 -28
q97 -36 86 -99l-59 -375q-10 -61 -118 -97z" />
    <glyph glyph-name="one" unicode="1" horiz-adv-x="564"
d="M183 576h171l129 73l-103 -649h92l128 806z" />
    <glyph glyph-name="two" unicode="2" horiz-adv-x="931"
d="M852 88h-507l482 379q57 46 68 114q8 50 -20 91t-75.5 64.5t-98.5 36t-94 12.5q-80 0 -166.5 -26.5t-139.5 -79.5q-50 -50 -56 -89q-1 -6 -1 -19l-1 -9h90l3 21q5 32 41 59q38 30 97.5 45t115.5 15q65 0 136 -25.5t84 -69.5q3 -9 1 -23q-5 -31 -55 -72l-664 -512h747z
" />
    <glyph glyph-name="three" unicode="3"
d="M850 232q16 102 -113 162q149 64 165 164l4 25q13 87 -87 149q-93 57 -241 57q-149 0 -260 -57q-119 -62 -134 -149l-3 -21h90l4 21q7 43 95 85q97 43 195 43q100 0 183 -43q75 -41 68 -85l-4 -25q-7 -44 -94 -80q-92 -38 -195 -38h-94l-14 -89h94q104 0 183 -39
q75 -36 68 -80l-4 -24q-7 -44 -95 -85q-94 -44 -196 -44q-101 0 -184 44q-78 42 -71 85l4 21h-86l-3 -21q-15 -90 86 -151q95 -57 242 -57q148 0 259 57q120 61 135 151z" />
    <glyph glyph-name="four" unicode="4" horiz-adv-x="942"
d="M375 275l585 421l19 117l-857 -625h671l-30 -188h87l66 415h-87l-22 -140h-432z" />
    <glyph glyph-name="five" unicode="5"
d="M293 700h632l14 89h-722l-66 -415h362q66 0 132 -18.5t105 -54.5q25 -23 21 -44l-9 -47q-12 -47 -101 -89q-98 -45 -195 -45q-100 0 -181 45q-77 44 -70 87l4 21h-91l-3 -21q-15 -90 86 -151q94 -57 243 -57q150 0 261 57q112 59 131 151l9 50q13 85 -85 147
q-94 58 -243 58h-271z" />
    <glyph glyph-name="six" unicode="6"
d="M846 206l15 95q15 89 -85 153q-86 55 -224 55q-181 0 -299 -65l21 137q8 45 97 87q96 45 195 45q100 0 181 -45q73 -43 66 -87l-3 -20h93l3 20q14 90 -87 151q-91 57 -241 57q-149 0 -260 -57q-119 -61 -134 -151l-59 -375q-15 -88 86 -149q95 -57 242 -57q146 0 259 57
q120 60 134 149zM775 301l-15 -95q-7 -42 -95 -79q-96 -39 -198 -39q-100 0 -184 39q-75 36 -68 79l15 95q7 44 94 82q93 39 196 39q102 0 185 -40q77 -38 70 -81z" />
    <glyph glyph-name="seven" unicode="7" horiz-adv-x="927"
d="M960 789h-743l-13 -83h567l-659 -706h105z" />
    <glyph glyph-name="eight" unicode="8"
d="M850 232q16 102 -113 162q149 64 165 164l4 25q13 87 -87 149q-93 57 -241 57q-147 0 -260 -57q-119 -62 -134 -149l-4 -25q-15 -100 112 -164q-147 -61 -163 -162l-4 -24q-15 -90 86 -151q95 -57 242 -57q148 0 259 57q120 61 135 151zM719 472q-96 -45 -199 -45
q-98 0 -183 45q-77 42 -70 86l4 25q7 46 98 88q100 46 197 46q100 0 184 -46q77 -42 70 -88l-4 -25q-8 -45 -97 -86zM308 310q99 38 200 38q103 0 188 -38q78 -36 71 -78l-4 -24q-7 -42 -98 -85q-101 -44 -200 -44t-185 44q-79 43 -72 85l4 24q7 42 96 78z" />
    <glyph glyph-name="nine" unicode="9"
d="M184 583l-15 -95q-13 -88 86 -152q89 -56 223 -56q180 0 300 65l-22 -137q-7 -45 -95 -86q-100 -46 -196 -46q-99 0 -180 46q-75 44 -68 86l4 21h-93l-3 -21q-15 -90 86 -151q95 -57 242 -57q148 0 259 57q120 61 135 151l59 375q13 87 -87 149q-93 57 -241 57
q-149 0 -260 -57q-119 -62 -134 -149zM256 488l15 95q7 42 95 79q97 38 198 38q99 0 183 -38q76 -36 69 -79l-15 -95q-7 -43 -94 -81q-96 -39 -196 -39q-101 0 -185 39q-77 37 -70 81z" />
    <glyph glyph-name="colon" unicode=":" horiz-adv-x="292"
d="M220 412h-18q-18 0 -33.5 -13.5t-18.5 -30.5l-3 -18q-2 -18 9 -31.5t30 -13.5h17q19 0 34.5 13.5t18.5 31.5l2 18q3 18 -8 31t-30 13zM173 112h-18q-19 0 -34.5 -13.5t-17.5 -31.5l-3 -17q-3 -18 8 -31t30 -13h18q19 0 34 13t18 31l3 17q3 19 -8 32t-30 13z" />
    <glyph glyph-name="semicolon" unicode=";" horiz-adv-x="354"
d="M295 413h-18q-18 0 -33.5 -13t-18.5 -31l-3 -18q-2 -18 9 -31.5t30 -13.5h17q19 0 34.5 13.5t18.5 31.5l2 18q3 18 -8 31t-30 13zM74 -114h94l122 227h-95z" />
    <glyph glyph-name="less" unicode="&#x3c;" horiz-adv-x="927"
d="M833 -14l15 93l-535 315l636 321l14 89l-809 -410z" />
    <glyph glyph-name="equal" unicode="=" horiz-adv-x="665"
d="M173 509l-13 -77h482l12 77h-481zM156 403l-13 -78h482l12 78h-481z" />
    <glyph glyph-name="greater" unicode="&#x3e;" horiz-adv-x="927"
d="M738 394l-633 -315l-15 -93l808 408l-679 410l-14 -89z" />
    <glyph glyph-name="question" unicode="?" horiz-adv-x="808"
d="M744 754q-78 63 -207 63t-230 -63q-106 -66 -121 -160l-3 -21h74l2 10q6 36 27 62t60 51q70 45 170 45q130 0 185 -50q47 -43 38 -97q-9 -57 -56 -101q-35 -34 -85 -44q-4 -1 -98 -12l-32 -5q-29 -8 -33 -10q-22 -12 -38.5 -37t-20.5 -49l-36 -223h72l35 223
q3 14 20 22.5t38 8.5q127 0 209 66q81 66 96 160t-66 161zM385 110h-18q-19 0 -34 -13t-18 -32l-3 -17q-3 -18 8.5 -31t30.5 -13h17q19 0 34.5 13t18.5 31l2 17q3 18 -8 31.5t-30 13.5z" />
    <glyph glyph-name="at" unicode="@" horiz-adv-x="1141"
d="M1060 267l1 2q43 81 53 145q27 170 -95 294q-119 122 -317 122q-200 0 -358 -122q-161 -124 -188 -295q-28 -174 94 -297q122 -122 320 -122q146 0 280 73l77 42l-42 -2q-4 0 -157 -6q-6 -1 -12 -3q-1 -1 -2 -1t-1.5 -0.5t-1.5 -0.5q-8 -2 -10 -2q-62 -17 -118 -17
q-161 0 -267 100q-104 100 -82 235q21 134 157 237q137 102 298 102q159 0 263 -102q102 -100 81 -235q-15 -95 -44 -135q-25 -33 -101 -33q-22 0 -42 7q-22 9 -20 20l63 395h-75l-5 -32q-60 35 -150 35q-94 0 -165 -37q-79 -41 -89 -100l-37 -232q-9 -60 57 -100
q62 -38 154 -38q105 0 182 47q15 -24 44 -38.5t59 -14.5q55 0 94.5 17.5t76.5 58.5l-3 -21l25 47zM795 544l-38 -242q-4 -30 -68 -49q-52 -17 -99 -17q-63 0 -108 24q-18 7 -29 18q-12 10 -10 24l37 232q4 29 68 49q54 17 100 17q37 0 76.5 -10.5t59.5 -30.5q5 -5 8 -9z" />
    <glyph glyph-name="A" unicode="A" horiz-adv-x="1105"
d="M92 0h105l453 627l258 -627h105l-333 811z" />
    <glyph glyph-name="B" unicode="B" horiz-adv-x="871"
d="M685 64q116 69 132 168q20 128 -110 190q139 59 155 161q15 88 -84 149q-93 57 -243 57h-318l-125 -789h318q165 0 275 64zM424 88h-228l97 612h228q106 0 182 -38q71 -36 64 -79q-7 -45 -90 -81q-63 -28 -142 -36q-28 -3 -78.5 -3.5t-70.5 -1.5q-2 0 -5.5 -0.5
t-5.5 -0.5l-9 -1l-14 -85h11q127 0 158 -3q88 -9 141 -42q69 -42 60 -97q-9 -57 -91 -99q-87 -45 -207 -45z" />
    <glyph glyph-name="C" unicode="C"
d="M661 128q-97 -40 -194 -40q-98 0 -180 40q-75 38 -68 80l60 375q7 44 91 79q92 38 194 38t181 -38q74 -36 67 -79l-4 -21h95l3 21q13 87 -87 149q-93 57 -241 57q-149 0 -260 -57q-119 -62 -134 -149l-59 -375q-15 -90 86 -151q95 -57 242 -57q148 0 259 57
q120 61 135 151l3 21h-94l-4 -21q-7 -42 -91 -80z" />
    <glyph glyph-name="D" unicode="D" horiz-adv-x="905"
d="M621 113q228 115 254 282q26 165 -164 282q-182 112 -473 112h-21l-125 -789h11q299 0 518 113zM655 603q151 -95 133 -207q-18 -113 -200 -207q-178 -94 -393 -99l96 609q216 -3 364 -96z" />
    <glyph glyph-name="E" unicode="E"
d="M295 700h630l14 89h-722l-125 -789h722l14 88h-630l42 263h459l14 89h-459z" />
    <glyph glyph-name="F" unicode="F"
d="M297 700h628l14 89h-722l-125 -789h94l56 351h457l14 89h-457z" />
    <glyph glyph-name="G" unicode="G"
d="M661 128q-97 -40 -194 -40q-98 0 -180 40q-75 38 -68 80l60 375q7 44 91 79q92 38 194 38t181 -38q74 -36 67 -79l-4 -21h95l3 21q13 87 -87 149q-93 57 -241 57q-149 0 -260 -57q-119 -62 -134 -149l-59 -375q-15 -90 86 -151q95 -57 242 -57q148 0 259 57
q120 61 135 151l31 200h-374l-15 -92h280l-17 -108q-7 -42 -91 -80z" />
    <glyph glyph-name="H" unicode="H"
d="M939 789h-97l-55 -349h-529l55 349h-96l-125 -789h96l56 351h529l-56 -351h97z" />
    <glyph glyph-name="I" unicode="I"
d="M609 700h316l14 89h-722l-14 -89h317l-96 -612h-318l-14 -88h722l14 88h-316z" />
    <glyph glyph-name="J" unicode="J"
d="M939 789h-722l-14 -89h627l-78 -492q-7 -42 -91 -80q-97 -40 -193 -40q-100 0 -183 40q-73 36 -66 80l4 21h-95l-3 -21q-14 -88 86 -151q93 -57 243 -57q151 0 261 57q117 63 132 151z" />
    <glyph glyph-name="K" unicode="K" horiz-adv-x="1087"
d="M486 394l635 395h-147l-563 -349h-159l55 349h-90l-125 -789h90l56 351h159l450 -351h149z" />
    <glyph glyph-name="L" unicode="L"
d="M827 87h-631l112 704h-91l-125 -791h722z" />
    <glyph glyph-name="M" unicode="M" horiz-adv-x="1056"
d="M1093 816l-499 -394l-373 394l-129 -816h81l100 629l304 -315l407 317l-101 -631h81z" />
    <glyph glyph-name="N" unicode="N" horiz-adv-x="1056"
d="M1089 789h-90l-98 -618l-680 642l-129 -813h86l99 623l683 -647z" />
    <glyph glyph-name="O" unicode="O"
d="M847 208l59 375q14 88 -85 149q-90 57 -242 57q-148 0 -261 -57q-119 -62 -134 -149l-59 -375q-14 -88 86 -151q94 -57 243 -57q151 0 261 57q117 63 132 151zM812 583l-60 -375q-7 -42 -91 -80q-97 -40 -193 -40q-100 0 -183 40q-73 36 -66 80l60 375q7 45 90 79
q96 38 196 38q96 0 180 -38q74 -35 67 -79z" />
    <glyph glyph-name="P" unicode="P" horiz-adv-x="897"
d="M768 431q115 60 129 151q14 88 -81 150q-90 57 -237 57h-362l-125 -789h92l111 700h270q99 0 176 -38q71 -36 64 -79q-7 -45 -89 -81q-74 -32 -156 -38q-42 -2 -63 -2q-17 0 -50 0.5t-49 0.5h-21l-14 -89h150q148 0 255 57z" />
    <glyph glyph-name="Q" unicode="Q" horiz-adv-x="913"
d="M847 208l59 375q14 88 -85 149q-90 57 -242 57q-150 0 -261 -57q-119 -62 -134 -149l-59 -375q-14 -88 86 -151q93 -57 243 -57q138 0 245 50l61 -58l70 66l-47 45q54 46 64 105zM812 583l-60 -375q-4 -24 -32 -47l-186 175l-67 -70l161 -151q-84 -27 -160 -27
q-100 0 -183 40q-73 36 -66 80l60 375q7 45 90 79q92 38 196 38q101 0 180 -38q74 -35 67 -79z" />
    <glyph glyph-name="R" unicode="R" horiz-adv-x="923"
d="M709 0h122l-226 381q46 8 89 21.5t88.5 37t76.5 60.5t38 83q14 86 -81 149q-88 57 -237 57h-362l-125 -789h90l111 700h272q97 0 176 -38q71 -36 64 -79q-7 -45 -89 -80q-75 -32 -162 -39q-13 -1 -166 -1h-11l-14 -89h132z" />
    <glyph glyph-name="S" unicode="S" horiz-adv-x="862"
d="M676 66q115 66 130 160q7 44 -11 83.5t-52 66.5q-67 53 -205 66q-80 7 -105 11q-52 9 -95 33q-70 40 -63 87q7 48 90 85q85 39 188 39h314l14 90h-313q-149 0 -256 -59q-115 -65 -129 -156q-15 -92 80 -156q62 -43 158 -53q17 -2 58 -4.5t64 -5.5q69 -8 109 -31
q71 -40 62 -97q-4 -29 -27.5 -49t-63.5 -38q-90 -42 -189 -42h-327l-14 -92h327q147 0 256 62z" />
    <glyph glyph-name="T" unicode="T"
d="M939 789h-722l-13 -83h317l-111 -706h86l112 706h317z" />
    <glyph glyph-name="U" unicode="U"
d="M939 789h-91l-92 -581q-7 -43 -93 -80q-95 -40 -196 -40t-180 40q-75 38 -68 80l92 581h-94l-92 -581q-15 -90 86 -151q95 -57 242 -57q148 0 259 57q120 61 135 151z" />
    <glyph glyph-name="V" unicode="V" horiz-adv-x="1105"
d="M1138 789h-100l-462 -640l-256 640h-103l330 -811z" />
    <glyph glyph-name="W" unicode="W" horiz-adv-x="1400"
d="M847 -22l587 811h-101l-457 -627l-69 174l331 453h-107l-262 -364l-144 364h-110l185 -453l-124 -174l-261 627h-98l330 -811l192 262z" />
    <glyph glyph-name="X" unicode="X" horiz-adv-x="1116"
d="M1021 0l-340 393l467 396h-116l-404 -339l-292 339h-119l342 -396l-464 -393h121l394 337l290 -337h121z" />
    <glyph glyph-name="Y" unicode="Y" horiz-adv-x="1152"
d="M677 394l508 395h-127l-409 -316l-306 316h-126l375 -395l-58 -394h83z" />
    <glyph glyph-name="Z" unicode="Z" horiz-adv-x="1082"
d="M307 82l809 709h-870l-14 -83h675l-815 -708h857l13 82h-655z" />
    <glyph glyph-name="bracketleft" unicode="[" horiz-adv-x="396"
d="M284 711h133l12 78h-212l-125 -789h212l12 77h-132z" />
    <glyph glyph-name="backslash" unicode="\" horiz-adv-x="919"
d="M217 789l501 -789h109l-503 789h-107z" />
    <glyph glyph-name="bracketright" unicode="]" horiz-adv-x="396"
d="M237 77h-133l-12 -77h212l125 789h-212l-12 -78h132z" />
    <glyph glyph-name="asciicircum" unicode="^" horiz-adv-x="731"
d="M508 903l141 -346h78l-198 476l-349 -476h75z" />
    <glyph glyph-name="underscore" unicode="_" horiz-adv-x="1151"
d="M106 88l-14 -88h967l14 88h-967z" />
    <glyph glyph-name="a" unicode="a" horiz-adv-x="1105"
d="M92 0h105l453 627l258 -627h105l-333 811z" />
    <glyph glyph-name="b" unicode="b" horiz-adv-x="871"
d="M685 64q116 69 132 168q20 128 -110 190q139 59 155 161q15 88 -84 149q-93 57 -243 57h-318l-125 -789h318q165 0 275 64zM424 88h-228l97 612h228q106 0 182 -38q71 -36 64 -79q-7 -45 -90 -81q-63 -28 -142 -36q-28 -3 -78.5 -3.5t-70.5 -1.5q-2 0 -5.5 -0.5
t-5.5 -0.5l-9 -1l-14 -85h11q127 0 158 -3q88 -9 141 -42q69 -42 60 -97q-9 -57 -91 -99q-87 -45 -207 -45z" />
    <glyph glyph-name="c" unicode="c"
d="M661 128q-97 -40 -194 -40q-98 0 -180 40q-75 38 -68 80l60 375q7 44 91 79q92 38 194 38t181 -38q74 -36 67 -79l-4 -21h95l3 21q13 87 -87 149q-93 57 -241 57q-149 0 -260 -57q-119 -62 -134 -149l-59 -375q-15 -90 86 -151q95 -57 242 -57q148 0 259 57
q120 61 135 151l3 21h-94l-4 -21q-7 -42 -91 -80z" />
    <glyph glyph-name="d" unicode="d" horiz-adv-x="905"
d="M621 113q228 115 254 282q26 165 -164 282q-182 112 -473 112h-21l-125 -789h11q299 0 518 113zM655 603q151 -95 133 -207q-18 -113 -200 -207q-178 -94 -393 -99l96 609q216 -3 364 -96z" />
    <glyph glyph-name="e" unicode="e"
d="M295 700h630l14 89h-722l-125 -789h722l14 88h-630l42 263h459l14 89h-459z" />
    <glyph glyph-name="f" unicode="f"
d="M297 700h628l14 89h-722l-125 -789h94l56 351h457l14 89h-457z" />
    <glyph glyph-name="g" unicode="g"
d="M661 128q-97 -40 -194 -40q-98 0 -180 40q-75 38 -68 80l60 375q7 44 91 79q92 38 194 38t181 -38q74 -36 67 -79l-4 -21h95l3 21q13 87 -87 149q-93 57 -241 57q-149 0 -260 -57q-119 -62 -134 -149l-59 -375q-15 -90 86 -151q95 -57 242 -57q148 0 259 57
q120 61 135 151l31 200h-374l-15 -92h280l-17 -108q-7 -42 -91 -80z" />
    <glyph glyph-name="h" unicode="h"
d="M939 789h-97l-55 -349h-529l55 349h-96l-125 -789h96l56 351h529l-56 -351h97z" />
    <glyph glyph-name="i" unicode="i"
d="M609 700h316l14 89h-722l-14 -89h317l-96 -612h-318l-14 -88h722l14 88h-316z" />
    <glyph glyph-name="j" unicode="j"
d="M939 789h-722l-14 -89h627l-78 -492q-7 -42 -91 -80q-97 -40 -193 -40q-100 0 -183 40q-73 36 -66 80l4 21h-95l-3 -21q-14 -88 86 -151q93 -57 243 -57q151 0 261 57q117 63 132 151z" />
    <glyph glyph-name="k" unicode="k" horiz-adv-x="1087"
d="M486 394l635 395h-147l-563 -349h-159l55 349h-90l-125 -789h90l56 351h159l450 -351h149z" />
    <glyph glyph-name="l" unicode="l"
d="M827 87h-631l112 704h-91l-125 -791h722z" />
    <glyph glyph-name="m" unicode="m" horiz-adv-x="1056"
d="M1093 816l-499 -394l-373 394l-129 -816h81l100 629l304 -315l407 317l-101 -631h81z" />
    <glyph glyph-name="n" unicode="n" horiz-adv-x="1056"
d="M1089 789h-90l-98 -618l-680 642l-129 -813h86l99 623l683 -647z" />
    <glyph glyph-name="o" unicode="o"
d="M847 208l59 375q14 88 -85 149q-90 57 -242 57q-148 0 -261 -57q-119 -62 -134 -149l-59 -375q-14 -88 86 -151q94 -57 243 -57q151 0 261 57q117 63 132 151zM812 583l-60 -375q-7 -42 -91 -80q-97 -40 -193 -40q-100 0 -183 40q-73 36 -66 80l60 375q7 45 90 79
q96 38 196 38q96 0 180 -38q74 -35 67 -79z" />
    <glyph glyph-name="p" unicode="p" horiz-adv-x="897"
d="M768 431q115 60 129 151q14 88 -81 150q-90 57 -237 57h-362l-125 -789h92l111 700h270q99 0 176 -38q71 -36 64 -79q-7 -45 -89 -81q-74 -32 -156 -38q-42 -2 -63 -2q-17 0 -50 0.5t-49 0.5h-21l-14 -89h150q148 0 255 57z" />
    <glyph glyph-name="q" unicode="q" horiz-adv-x="913"
d="M847 208l59 375q14 88 -85 149q-90 57 -242 57q-150 0 -261 -57q-119 -62 -134 -149l-59 -375q-14 -88 86 -151q93 -57 243 -57q138 0 245 50l61 -58l70 66l-47 45q54 46 64 105zM812 583l-60 -375q-4 -24 -32 -47l-186 175l-67 -70l161 -151q-84 -27 -160 -27
q-100 0 -183 40q-73 36 -66 80l60 375q7 45 90 79q92 38 196 38q101 0 180 -38q74 -35 67 -79z" />
    <glyph glyph-name="r" unicode="r" horiz-adv-x="923"
d="M709 0h122l-226 381q46 8 89 21.5t88.5 37t76.5 60.5t38 83q14 86 -81 149q-88 57 -237 57h-362l-125 -789h90l111 700h272q97 0 176 -38q71 -36 64 -79q-7 -45 -89 -80q-75 -32 -162 -39q-13 -1 -166 -1h-11l-14 -89h132z" />
    <glyph glyph-name="s" unicode="s" horiz-adv-x="862"
d="M676 66q115 66 130 160q7 44 -11 83.5t-52 66.5q-67 53 -205 66q-80 7 -105 11q-52 9 -95 33q-70 40 -63 87q7 48 90 85q85 39 188 39h314l14 90h-313q-149 0 -256 -59q-115 -65 -129 -156q-15 -92 80 -156q62 -43 158 -53q17 -2 58 -4.5t64 -5.5q69 -8 109 -31
q71 -40 62 -97q-4 -29 -27.5 -49t-63.5 -38q-90 -42 -189 -42h-327l-14 -92h327q147 0 256 62z" />
    <glyph glyph-name="t" unicode="t"
d="M939 789h-722l-13 -83h317l-111 -706h86l112 706h317z" />
    <glyph glyph-name="u" unicode="u"
d="M939 789h-91l-92 -581q-7 -43 -93 -80q-95 -40 -196 -40t-180 40q-75 38 -68 80l92 581h-94l-92 -581q-15 -90 86 -151q95 -57 242 -57q148 0 259 57q120 61 135 151z" />
    <glyph glyph-name="v" unicode="v" horiz-adv-x="1105"
d="M1138 789h-100l-462 -640l-256 640h-103l330 -811z" />
    <glyph glyph-name="w" unicode="w" horiz-adv-x="1400"
d="M847 -22l587 811h-101l-457 -627l-69 174l331 453h-107l-262 -364l-144 364h-110l185 -453l-124 -174l-261 627h-98l330 -811l192 262z" />
    <glyph glyph-name="x" unicode="x" horiz-adv-x="1116"
d="M1021 0l-340 393l467 396h-116l-404 -339l-292 339h-119l342 -396l-464 -393h121l394 337l290 -337h121z" />
    <glyph glyph-name="y" unicode="y" horiz-adv-x="1152"
d="M677 394l508 395h-127l-409 -316l-306 316h-126l375 -395l-58 -394h83z" />
    <glyph glyph-name="z" unicode="z" horiz-adv-x="1082"
d="M307 82l809 709h-870l-14 -83h675l-815 -708h857l13 82h-655z" />
    <glyph glyph-name="bar" unicode="|" horiz-adv-x="266"
d="M217 789l-125 -789h83l125 789h-83z" />
    <glyph glyph-name="exclamdown" unicode="&#xa1;" horiz-adv-x="271"
d="M217 791l-103 -649h89l103 649h-89zM162 108h-18q-19 0 -34 -13.5t-18 -31.5l-3 -16q-2 -19 8.5 -32t29.5 -13h18q19 0 34.5 13t18.5 32l2 16q3 19 -8 32t-30 13z" />
    <glyph glyph-name="sterling" unicode="&#xa3;" horiz-adv-x="920"
d="M841 83l-496 -2q69 88 83 181q1 2 1 5h399l12 78h-407q-10 42 -35.5 82.5t-58.5 68.5q-21 18 -22 19q-10 9 -19 19q-17 24 -13 49q10 56 112 99q89 39 205 39q62 0 126.5 -23t95.5 -62l2 -4h102l-22 34q-86 124 -317 124q-115 0 -218 -41q-157 -62 -174 -173
q-11 -65 57 -124q65 -56 83 -107h-135l-12 -78h158l-1 -5q-12 -77 -69.5 -132t-153.5 -111l-32 -19h735z" />
    <glyph glyph-name="yen" unicode="&#xa5;" horiz-adv-x="961"
d="M576 355l12 73l406 361h-112l-323 -302l-232 302h-110l291 -361l-11 -73h-321l-12 -74h321l-11 -68h-320l-12 -72h321l-23 -141h80l22 141h322l11 72h-321l10 68h322l12 74h-322z" />
    <glyph glyph-name="copyright" unicode="&#xa9;" horiz-adv-x="1098"
d="M549 847q-189 0 -323 -131t-134 -316t134 -316t323 -131q124 0 229.5 60t166.5 163t61 224t-61 224t-166.5 163t-229.5 60zM549 768q155 0 265 -108t110 -260t-110 -260t-265 -108q-156 0 -266 108t-110 260t110 260t266 108zM390 281v232q0 27 61 48q51 17 97 17t96 -17
q60 -19 60 -48v-22h75v22q0 59 -73 100q-63 35 -158 35q-97 0 -160 -36q-71 -39 -71 -99v-232q0 -38 25 -66.5t63.5 -43t74.5 -21.5t68 -7q31 0 67.5 7t75 21.5t63.5 43t25 66.5v20h-75v-20q0 -31 -60 -50q-52 -18 -96 -18q-61 0 -112 24q-22 10 -32 19q-14 11 -14 25z" />
    <glyph glyph-name="guillemotleft" unicode="&#xab;" horiz-adv-x="1317"
d="M833 -14l15 93l-535 315l636 321l14 89l-809 -410zM1224 -14l15 93l-535 315l636 321l14 89l-809 -410z" />
    <glyph glyph-name="registered" unicode="&#xae;" horiz-adv-x="1098"
d="M549 847q-189 0 -323 -131t-134 -316t134 -316t323 -131q124 0 229.5 60t166.5 163t61 224t-61 224t-166.5 163t-229.5 60zM549 768q155 0 265 -108t110 -260t-110 -260t-265 -108q-156 0 -266 108t-110 260t110 260t266 108zM793 174l-162 216q56 12 97 41t41 79
q0 34 -22 60t-55.5 39t-65.5 19t-61 6h-213v-460h70v392h143q41 0 84 -14q51 -16 51 -42q0 -12 -16 -25q-11 -9 -32 -17q-41 -14 -83 -16q-14 -1 -87 -1h-11v-68h78l154 -209h90z" />
    <glyph glyph-name="degree" unicode="&#xb0;" horiz-adv-x="614"
d="M461 990q-87 0 -159 -58t-85 -142t41.5 -141t139.5 -57q87 0 161.5 56.5t87.5 141.5t-42.5 142.5t-143.5 57.5zM448 906q52 0 84.5 -33.5t24.5 -82.5q-7 -48 -50.5 -80.5t-94.5 -32.5q-50 0 -81.5 33t-24.5 80q8 48 49.5 82t92.5 34z" />
    <glyph glyph-name="guillemotright" unicode="&#xbb;" horiz-adv-x="1317"
d="M738 394l-633 -315l-15 -93l808 408l-679 410l-14 -89zM1130 394l-635 -315l-14 -93l808 408l-679 410l-14 -89z" />
    <glyph glyph-name="questiondown" unicode="&#xbf;" horiz-adv-x="808"
d="M194 67q79 -65 207 -65q126 0 230 64q106 68 120 160l4 20h-75l-2 -11q-6 -36 -26.5 -61t-59.5 -50q-73 -47 -170 -47q-128 0 -185 52q-47 43 -39 97q8 53 57 100q36 33 85 45q18 4 52 7t46 5q22 3 31 5q20 4 33 10q23 12 39 36t20 48l35 224h-71l-35 -224
q-3 -14 -20 -22q-19 -8 -38 -8q-129 0 -208 -65q-81 -66 -96 -159q-15 -95 66 -161z" />
    <glyph glyph-name="multiply" unicode="&#xd7;" horiz-adv-x="756"
d="M644 258l-137 160l181 152l-57 65l-179 -152l-138 158l-70 -61l136 -159l-183 -160l56 -64l183 160l138 -160z" />
    <glyph glyph-name="divide" unicode="&#xf7;" horiz-adv-x="737"
d="M401 543l-3 -18q-3 -18 8 -31t30 -13h18q19 0 34 13t18 31l3 18q3 18 -8 31t-30 13h-18q-19 0 -34.5 -13t-17.5 -31zM719 462h-554l-13 -85h553zM363 310l-3 -18q-3 -18 8 -31t30 -13h18q19 0 34 13t18 31l3 18q3 18 -8 31t-30 13h-18q-19 0 -34 -13t-18 -31z" />
    <glyph glyph-name="quoteleft" unicode="&#x2018;" horiz-adv-x="282"
d="M198 610h97l-12 178h-87z" />
    <glyph glyph-name="quoteright" unicode="&#x2019;" horiz-adv-x="282"
d="M235 788l-67 -178h96l59 178h-88z" />
    <glyph glyph-name="quotedblleft" unicode="&#x201c;" horiz-adv-x="389"
d="M198 610h97l-12 178h-87zM310 608h95l-13 180h-91z" />
    <glyph glyph-name="quotedblright" unicode="&#x201d;" horiz-adv-x="389"
d="M236 788l-69 -180h94l66 180h-91zM345 788l-68 -178h97l59 178h-88z" />
    <glyph glyph-name="guilsinglleft" unicode="&#x2039;" horiz-adv-x="927"
d="M833 -14l15 93l-535 315l636 321l14 89l-809 -410z" />
    <glyph glyph-name="guilsinglright" unicode="&#x203a;" horiz-adv-x="927"
d="M219 804l-14 -93l533 -317l-634 -319l-14 -89l808 408z" />
    <glyph glyph-name="trademark" unicode="&#x2122;" horiz-adv-x="953"
d="M861 815l-210 -190l-210 190v-27h-349v-60h143v-321h63v321h143v-321h60v272l150 -133l151 134l-1 -273h60v408z" />
    <glyph glyph-name="_FSHallmark" horiz-adv-x="949"
d="M50 751h851v-101h-851v101zM791 461q0 9 -8 23q-8 10 -19 18q-23 10 -24 10q-18 4 -24 4q-24 0 -50 -14q-21 -14 -21 -29q0 -31 20 -42q29 -14 45 -17l37 -9l31 -7q21 -7 30 -7q16 -3 25 -7q3 -2 10.5 -5.5t10.5 -5.5q23 -14 32 -28q10 -16 13 -45q3 -26 -11 -50
q-23 -44 -75 -61q-48 -15 -95 -15q-44 0 -71 8q-31 10 -59 30q-25 16 -43 47q-16 28 -16 68l99 -2q0 -6 5 -16q1 -13 14 -26t26 -18q18 -10 48 -10q33 0 54 12q21 11 21 27q0 32 -81 47q-84 23 -125 46q-51 26 -51 85q0 48 33 76q31 25 75 41q35 8 71 8q50 0 95 -19
q49 -19 68 -67q12 -31 12 -50h-102zM162 174h-112v422h359v-96h-247v-95h205v-94h-205v-137zM398 224q0 24 15 37q14 13 36 13q23 0 41 -15q17 -12 17 -35q0 -20 -17 -35q-17 -13 -41 -13q-19 0 -34 15q-17 15 -17 33zM48 121h851v-101h-851v101z" />
    <glyph glyph-name="_Fontastica" horiz-adv-x="736"
d="M154 127h-105q-1 2 -1 5v618h463v-95h-357v-254h357v-96h-357v-178zM221 573h358v177h105v-621h-463v94h358v255h-358v95zM579 66q-6 -4 -6 -8q0 -10 4 -14q6 -6 11 -6q10 0 18 6l6 -6q-11 -11 -24 -11q-5 0 -19 6q-7 12 -8 21q0 12 7 20q10 10 20 10q12 0 24 -10l-6 -8
l-5 5q-1 1 -9 1h-4q-8 -4 -9 -6zM49 82h39v-10h-26v-13h25v-9h-25v-21h-13v53zM137 82q18 0 26 -14q8 -12 2 -24q-4 -14 -24 -17l-5 -2q-8 0 -12 4q-16 6 -16 24q0 14 7 21q7 8 22 8zM240 29h-4q-3 -2 -4 -2q-2 0 -8 6l-7 8q0 1 -1 2.5t-2 2.5t-1 2l-10 13v-32h-13v53h10
q5 -1 6 -7q6 -7 11 -14q5 -5 11 -15v36h12v-53zM261 82h45v-10h-16v-43h-11v43h-18v10zM428 58q11 0 11 -14q2 -11 -10 -15q-1 -2 -11 -2q-16 0 -23 9v2l1 2q0 1 2 4l17 -6h7l4 3q0 9 -12 12q-3 0 -3 1h-4q-9 4 -9 12q-3 9 8 14q6 2 11 2q14 0 22 -4l-4 -10l-4 2h-3
q-1 1 -4 1q-1 0 -2 1h-7q-4 0 -4 -2q-1 -2 4 -9q2 0 5 -1t5 -1.5t3 -0.5zM456 82h47v-10h-16v-43h-13v43h-18v10zM525 82h13v-53h-13v53zM665 82l12 -24q1 -4 6 -17q3 -10 5 -12h-11l-6 11h-26l-4 -11h-12q11 19 21 53h15zM354 80l6 -12q4 -8 6 -11q3 -6 5 -16
q0 -1 0.5 -3.5t2 -5t1.5 -3.5h-12q-1 1 -1 4l-2 7h-27v-8l-3 -3h-10l21 51h13zM151 57q0 7 -4 11t-11 4q-2 -1 -5 -1q-1 0 -2 -1.5t-3 -4t-4 -4.5q-8 -3 -2 -11q4 -12 17 -12h4q10 3 10 16v3zM356 50l-2 4q-3 5 -4 5q-1 1 -1 5q-1 1 -1 3t-1 3l-10 -20h19zM667 50l-2 4
q0 3 -2 5q-2 1 -2 5l-3 6l-9 -20h18z" />
    </font>
</defs>
</svg>
