<?xml version="1.0" encoding="utf-8"?>
<!-- Generator: Adobe Illustrator 25.4.1, SVG Export Plug-In . SVG Version: 6.00 Build 0)  -->
<svg version="1.1" id="Layer_1" xmlns="http://www.w3.org/2000/svg" xmlns:xlink="http://www.w3.org/1999/xlink" x="0px" y="0px"
	 viewBox="0 0 490 115.1" style="enable-background:new 0 0 490 115.1;" xml:space="preserve">
<style type="text/css">
	.st0{fill:#FFFFFF;}
</style>
<path class="st0" d="M0,90.3v-84l15.9-6.1v37.6H15L49.3,1h20.6L28.3,44.6l44.2,45.7H51L14.9,52.9h1v37.4H0z"/>
<path class="st0" d="M71.6,59.3c-0.1-5.5,1.2-10.9,3.8-15.8c2.4-4.7,6.1-8.6,10.7-11.3c4.6-2.7,9.8-4.2,15.1-4.1
	c3.3,0,6.5,0.6,9.5,1.8c2.9,1.1,5.4,2.9,7.5,5.1v-1l14.4-6.3v62.2h-14.4v-6.3c-4.4,4.5-10.1,6.7-17,6.7c-5.3,0.1-10.5-1.4-15-4.1
	c-4.5-2.7-8.2-6.6-10.7-11.2C72.8,70.2,71.5,64.8,71.6,59.3z M87.8,68.3c1.3,2.6,3.3,4.7,5.8,6.1v0.1c2.5,1.5,5.5,2.3,8.4,2.2
	c3,0,5.9-0.7,8.4-2.2c2.5-1.5,4.5-3.6,5.8-6.2c1.4-2.7,2.1-5.6,2.1-8.7v-0.3c0-3.1-0.7-6.2-2.1-9c-1.3-2.6-3.3-4.8-5.8-6.2
	c-5.2-3-11.6-3-16.8,0c-2.5,1.5-4.5,3.6-5.8,6.2c-1.4,2.7-2.1,5.7-2,8.8C85.7,62.3,86.4,65.4,87.8,68.3z"/>
<path class="st0" d="M133.5,42.4l6.4-13.7h5.7V16.2l14.8-6.2v18.7H182l-6.3,13.7h-15.3v24.8c0,3.3,0.7,5.8,2.2,7.5
	c1.6,1.8,3.9,2.8,6.3,2.6c3.8,0,7.9-1.5,12.5-4.6v15.4c-4.2,2-8.9,3.1-13.6,3.1c-7.2,0-12.7-2-16.5-6.1c-3.8-4.1-5.7-10-5.7-17.8
	v-25L133.5,42.4z"/>
<path class="st0" d="M183.3,28.3H200l17.9,32.1l18.7-32.1h16.5l-51.9,86.8h-16.6l23.6-39.7L183.3,28.3z"/>
<path class="st0" d="M254.6,63.1V33.2l14.4-6.1V62c0,4.7,1.1,8.3,3.4,10.8c2.3,2.4,5.6,3.7,10,3.7s7.7-1.2,10-3.7s3.4-6,3.4-10.8
	V33.2l14.8-6.1v36c0.1,5.2-1.1,10.4-3.6,14.9c-2.4,4.2-6.2,7.5-10.6,9.4c-4.3,1.9-9,2.9-13.8,2.9c-4.9,0.1-9.8-1-14.2-3.1
	c-4.1-2-7.5-5.1-9.9-8.9C255.8,74.2,254.5,69.1,254.6,63.1z"/>
<path class="st0" d="M313.3,47.4c0-3.7,1.2-7.2,3.4-10.1c2.5-3.2,5.8-5.5,9.5-6.9c4.2-1.6,8.8-2.4,13.3-2.3c6.8-0.1,13.6,1.3,19.8,4
	L359.1,47c-2.9-1.9-6-3.4-9.3-4.4c-3.2-1.1-6.5-1.6-9.8-1.7c-2,0-4.1,0.2-6,0.8c-1.6,0.4-3,1.2-4.2,2.3h0.1
	c-0.8,0.7-1.3,1.7-1.4,2.8c0,1.3,0.7,2.5,1.9,3.1c2.1,1,4.4,1.7,6.7,2l6,1c13.7,2.3,20.5,8.4,20.5,18.1c0,3.8-1.3,7.5-3.7,10.4
	c-2.8,3.3-6.4,5.7-10.5,7c-4.6,1.6-9.5,2.4-14.4,2.3c-3.8,0-7.5-0.4-11.2-1.3c-3.5-0.8-6.8-2-9.9-3.7l0.2-12.4l0.3-0.5l2.3-0.6
	c2.5,1.9,5.4,3.4,8.4,4.2c3.4,0.9,6.9,1.4,10.5,1.3c2.4,0,4.7-0.2,7-0.8c1.6-0.4,3.2-1.1,4.5-2.1c1-0.7,1.6-1.8,1.6-3
	c0-2.8-3.1-4.6-9.2-5.5l-6-1c-6.5-1-11.5-3.1-15-6.1C315.1,56.2,313.2,51.9,313.3,47.4z"/>
<path class="st0" d="M369.1,90.3V7.1l14.8-7v34.7c2.1-2.2,4.6-4,7.4-5.1c3.1-1.2,6.3-1.8,9.6-1.8c4.5-0.1,9,1,12.9,3.1
	c3.8,2,6.9,5,9,8.7c2.1,3.9,3.1,8.2,3,12.6l-0.9,38h-14.8l0.8-33.9v-0.7c0-4.2-1.1-7.6-3.2-10c-2.2-2.5-5.5-3.8-9.6-3.8
	c-2.6-0.1-5.2,0.6-7.5,1.8c-2.1,1.2-3.9,2.9-5,5.1c-1.3,2.4-1.9,5.1-1.9,7.8v33.7H369.1z"/>
<path class="st0" d="M428.9,59.3c-0.1-5.5,1.3-10.9,3.8-15.8c2.4-4.7,6.1-8.6,10.7-11.3c4.6-2.7,9.8-4.2,15.1-4.1
	c3.2,0,6.5,0.5,9.5,1.7c2.9,1.1,5.4,2.9,7.5,5.1v-1l14.5-6.3v62.1h-14.4v-6.3c-4.4,4.5-10.1,6.7-17,6.7
	c-10.7,0.1-20.6-5.8-25.7-15.3C430.2,70.2,428.9,64.8,428.9,59.3z M445.2,68.3c1.3,2.6,3.3,4.7,5.8,6.1v0.1c2.5,1.5,5.5,2.3,8.4,2.2
	c3,0,5.9-0.7,8.4-2.2c2.5-1.5,4.5-3.6,5.8-6.2c1.4-2.7,2.1-5.6,2-8.7v-0.3c0-3.1-0.7-6.2-2-9c-1.3-2.6-3.3-4.8-5.8-6.2
	c-5.2-3-11.6-3-16.9,0c-2.5,1.5-4.5,3.6-5.8,6.2c-1.4,2.7-2.1,5.7-2,8.8C443.1,62.3,443.8,65.4,445.2,68.3z"/>
</svg>
