<?xml version="1.0" standalone="no"?>
<!DOCTYPE svg PUBLIC "-//W3C//DTD SVG 1.1//EN" "http://www.w3.org/Graphics/SVG/1.1/DTD/svg11.dtd" >
<svg xmlns="http://www.w3.org/2000/svg" version="1.1">
<metadata>
Created by FontForge 20170731 at Sun Nov 17 11:42:52 2019
 By Aleksey,,,
Copyright (c) 2019 by Fontastica. All rights reserved.
</metadata>
<defs>
<font id="Hanover-BoldItalic" horiz-adv-x="822" >
  <font-face
    font-family="Hanover"
    font-weight="700"
    font-style="italic"
    font-stretch="normal"
    units-per-em="1000"
    panose-1="0 0 8 0 0 0 0 0 0 0"
    ascent="800"
    descent="-200"
    x-height="702"
    cap-height="702"
    bbox="23 -149 1261 826"
    underline-thickness="50"
    underline-position="-200"
    unicode-range="U+000D-2212"
  />
<missing-glyph horiz-adv-x="563"
d="M140 569l-90 -569h463l90 569h-463zM223 515h280l-169 -180zM365 285l155 167l-52 -334zM288 285l-155 -166l52 331zM319 234l111 -178h-279z" />
    <glyph glyph-name=".notdef" horiz-adv-x="563"
d="M140 569l-90 -569h463l90 569h-463zM223 515h280l-169 -180zM365 285l155 167l-52 -334zM288 285l-155 -166l52 331zM319 234l111 -178h-279z" />
    <glyph glyph-name=".null" horiz-adv-x="0"
 />
    <glyph glyph-name="nonmarkingreturn" horiz-adv-x="333"
 />
    <glyph glyph-name="CR" unicode="&#xd;" horiz-adv-x="0"
 />
    <glyph glyph-name="space" unicode=" " horiz-adv-x="326"
 />
    <glyph glyph-name="exclam" unicode="!" horiz-adv-x="375"
d="M359 522l24 150h-177l-24 -150q-23 -154 -19 -294v-9h120l3 9q52 154 73 294zM97 93q-7 -45 17 -75.5t73 -30.5t82.5 30.5t40.5 75.5q7 44 -17 75t-73 31t-82.5 -30.5t-40.5 -75.5z" />
    <glyph glyph-name="quotedbl" unicode="&#x22;" horiz-adv-x="522"
d="M188 672l-18 -119q-14 -89 1 -172l1 -7h112l4 6q42 62 58 173l19 119h-177zM529 553l19 119h-177l-19 -119q-14 -84 1 -172l2 -7h113l8 16q39 73 53 163z" />
    <glyph glyph-name="numbersign" unicode="#" horiz-adv-x="851"
d="M352 138h88l-48 -138h167l49 138h123l23 148h-93l35 100h123l23 149h-93l48 137h-167l-49 -137h-88l48 137h-168l-48 -137h-123l-23 -149h93l-35 -100h-123l-23 -148h93l-48 -138h167zM404 286l36 100h88l-35 -100h-89z" />
    <glyph glyph-name="dollar" unicode="$" horiz-adv-x="763"
d="M453 -116l17 109q107 14 178.5 69t87.5 153q30 183 -199 204l14 89q41 -18 35 -47l-4 -25h177l4 25q14 87 -39.5 142.5t-145.5 73.5l21 129l-177 -2l-19 -126q-103 -14 -171.5 -67t-83.5 -147q-15 -96 36 -142t153 -57l-17 -105q-53 17 -48 52l4 24h-177l-3 -24
q-15 -90 43.5 -145.5t154.5 -72.5l-17 -110h176zM376 513l-13 -83q-15 3 -25 9q-16 9 -13 25q5 34 51 49zM496 159l15 96q21 -4 33 -10q19 -12 15 -30q-5 -40 -63 -56z" />
    <glyph glyph-name="percent" unicode="%" horiz-adv-x="997"
d="M147 536q-14 -90 33.5 -151t144.5 -61q98 0 163 60.5t80 151.5q14 88 -33.5 149.5t-142.5 61.5t-163 -61.5t-82 -149.5zM200 125l95 -115l607 536l-93 115zM349 479q-22 0 -31.5 16t-5.5 41t18.5 40.5t36.5 15.5t31.5 -15.5t5.5 -40.5t-18.5 -41t-36.5 -16zM778 348
q-94 0 -161.5 -62t-81.5 -149q-14 -89 33 -150.5t143 -61.5q98 0 164 60.5t81 151.5q14 89 -34.5 150t-143.5 61zM791 137q-9 -57 -56 -57q-22 0 -31 16t-5 41q4 24 18 40t36 16q23 0 32.5 -15.5t5.5 -40.5z" />
    <glyph glyph-name="ampersand" unicode="&#x26;" horiz-adv-x="764"
d="M567 296q-18 19 -47 52q149 78 167 192q13 83 -42 132t-143 49q-27 0 -41 -1q-92 -5 -163.5 -56t-85.5 -137q-12 -70 31 -147q-137 -79 -156 -195q-16 -101 50 -164.5t173 -63.5q134 0 240 69l100 -104l149 137l-111 115l96 120l-139 92zM405 526q1 13 17 20.5t35 7.5
q18 0 26 -4.5t6 -16.5q-3 -18 -30 -40q-11 -9 -41 -27q-17 36 -13 60zM350 125q-33 0 -51.5 18.5t-14.5 48.5q5 30 55 63q31 -35 95 -103q-41 -27 -84 -27z" />
    <glyph glyph-name="quotesingle" unicode="'" horiz-adv-x="358"
d="M364 551l20 125h-195l-20 -125q-13 -86 3 -179l1 -6h124l4 5q46 66 63 180z" />
    <glyph glyph-name="parenleft" unicode="(" horiz-adv-x="413"
d="M215 -149l158 98l-4 7q-47 74 -61.5 181.5t2.5 200.5q17 102 63.5 205t116.5 177l7 8l-128 98l-7 -6q-47 -41 -91 -103q-123 -170 -155 -379q-33 -205 35 -379q23 -60 59 -102z" />
    <glyph glyph-name="parenright" unicode=")" horiz-adv-x="413"
d="M23 -51l129 -98l7 6q96 82 160.5 217.5t84.5 263.5q11 83 9.5 168t-28 171.5t-74.5 142.5l-5 6l-160 -98l5 -8q47 -74 61.5 -181t-3.5 -201q-16 -101 -62.5 -204.5t-116.5 -177.5z" />
    <glyph glyph-name="asterisk" unicode="*" horiz-adv-x="556"
d="M260 339q0 -3 -1.5 -12l-2.5 -15q-2 -10 -3.5 -21.5t-3 -20t-1.5 -10.5l-2 -11h141l14 90q15 -10 21 -13l41 -26l9 -6l87 120l-74 48q13 7 39.5 20.5t39.5 20.5l10 6l-49 119l-12 -7l-48 -27q-18 -10 -26 -14l15 92h-141l-14 -90q-17 11 -20 13l-39 26l-10 6l-87 -118
l8 -6q6 -4 29 -19t36 -23l-88 -47l49 -120l12 6l47 27q5 2 13 6.5t11 5.5z" />
    <glyph glyph-name="plus" unicode="+" horiz-adv-x="731"
d="M160 416l-26 -160h183l-30 -194h176l31 194h183l25 160h-183l31 193h-177l-30 -193h-183z" />
    <glyph glyph-name="comma" unicode="," horiz-adv-x="395"
d="M176 -128q61 39 102 95.5t51 120.5q8 54 -15 89.5t-81 35.5q-52 0 -88.5 -32t-44.5 -81q-10 -60 32 -92q-22 -37 -53 -63l-7 -7l75 -84z" />
    <glyph glyph-name="hyphen" unicode="-" horiz-adv-x="670"
d="M616 256l25 160h-481l-26 -160h482z" />
    <glyph glyph-name="period" unicode="." horiz-adv-x="393"
d="M196 -12q51 0 88 32t45 80q8 49 -19 81t-79 32t-88.5 -32t-44.5 -81q-8 -48 19 -80t79 -32z" />
    <glyph glyph-name="slash" unicode="/" horiz-adv-x="655"
d="M715 695l-150 81l-518 -794l151 -81z" />
    <glyph glyph-name="zero" unicode="0" horiz-adv-x="1028"
d="M847 101q151 105 174 251q23 144 -95 248q-115 102 -301 102t-333 -102q-151 -103 -174 -248q-24 -147 95 -251q117 -102 301 -102t333 102zM687 530l-364 -249q-11 37 -7 71q13 84 100.5 137.5t183.5 53.5q42 0 87 -13zM453 171l362 249q12 -31 7 -68
q-14 -86 -100 -139.5t-183 -53.5q-45 0 -86 12z" />
    <glyph glyph-name="one" unicode="1" horiz-adv-x="491"
d="M253 359l37 21l-60 -381h199l115 723l-17 -10q-173 -106 -379 -229l-11 -7z" />
    <glyph glyph-name="two" unicode="2" horiz-adv-x="841"
d="M849 440q9 60 -13.5 111t-66 83t-99.5 50t-115 18q-81 0 -161.5 -29.5t-143 -91.5t-74.5 -142l-3 -20h199l3 20q7 46 54.5 75t99.5 29t89.5 -29t30.5 -74q-7 -42 -49 -71l-538 -370h717l25 160h-221q73 49 136 94q113 81 130 187z" />
    <glyph glyph-name="three" unicode="3" horiz-adv-x="676"
d="M691 486q10 66 -25.5 116.5t-93.5 75t-124 24.5q-104 0 -198.5 -60t-110.5 -157l-3 -20h198l4 20q4 25 29.5 41.5t55.5 16.5q29 0 51 -16.5t18 -40.5t-31 -39.5t-57 -15.5h-22l-25 -161h22q31 0 52.5 -15t17.5 -40q-4 -24 -30.5 -40t-56.5 -16q-29 0 -50 16.5t-17 40.5
l3 20h-199l-3 -20q-10 -66 24 -117t92 -75.5t125 -24.5q65 0 131 24.5t118 75.5t62 116q12 77 -41 136q71 58 84 135z" />
    <glyph glyph-name="four" unicode="4" horiz-adv-x="881"
d="M615 337h-301l58 365h-199l-83 -525h500l-29 -178h199l28 178h59l25 160h-58l57 365h-198z" />
    <glyph glyph-name="five" unicode="5" horiz-adv-x="751"
d="M347 543h428l25 159h-627l-59 -373h10h204h99q47 -3 77.5 -25t24.5 -60q-6 -37 -45.5 -61t-82.5 -24q-44 0 -76 24t-26 62l4 20h-199l-3 -20q-12 -75 28 -132.5t106 -85.5t141 -28t149.5 28t132.5 85.5t69 131.5q12 74 -27.5 131.5t-105 86t-140.5 28.5h-116z" />
    <glyph glyph-name="six" unicode="6" horiz-adv-x="673"
d="M325 421l11 65q4 24 30.5 41t55.5 17q30 0 52 -16.5t18 -41.5l-3 -20h195l4 20q15 97 -61 156t-180 59t-198 -59t-110 -156l-43 -271q-8 -49 10 -91t54 -68.5t82 -41t94 -14.5q104 0 198.5 59t110.5 156q10 66 -24.5 116.5t-92.5 74.5t-124 24q-38 0 -79 -9zM361 159
q-29 0 -50.5 16t-17.5 40t30 40t56 16q31 0 52.5 -15.5t17.5 -40.5q-4 -24 -31 -40t-57 -16z" />
    <glyph glyph-name="seven" unicode="7" horiz-adv-x="840"
d="M79 25l-8 1l3 -27h197l618 703h-716l-25 -159h370l-447 -512z" />
    <glyph glyph-name="eight" unicode="8" horiz-adv-x="673"
d="M605 351q70 58 83 135q15 97 -61 156t-180 59t-198 -59t-110 -156q-12 -77 41 -135q-72 -59 -84 -136q-8 -49 10 -91t54 -68.5t82 -41t94 -14.5q104 0 198.5 59t110.5 156q12 78 -40 136zM404 430q-29 0 -50.5 16t-17.5 40t30.5 41t55.5 17q30 0 52 -16.5t18 -41.5
q-4 -24 -31 -40t-57 -16zM379 271q31 0 52.5 -15.5t17.5 -40.5q-4 -24 -31 -40t-57 -16q-29 0 -50.5 16t-17.5 40t30 40t56 16z" />
    <glyph glyph-name="nine" unicode="9" horiz-adv-x="673"
d="M645 215l43 271q15 97 -61 156t-180 59t-198 -59t-110 -156q-15 -95 61.5 -155t178.5 -60q39 0 80 9l-10 -65q-4 -24 -31 -40t-57 -16q-29 0 -50.5 16t-17.5 40l3 20h-197l-3 -20q-8 -49 10 -91t54 -68.5t82 -41t94 -14.5q104 0 198.5 59t110.5 156zM422 544
q30 0 52 -16.5t18 -41.5q-4 -24 -31 -40t-57 -16q-29 0 -50.5 16t-17.5 40t30.5 41t55.5 17z" />
    <glyph glyph-name="colon" unicode=":" horiz-adv-x="393"
d="M386 461q8 48 -19 80t-79 32t-88.5 -32t-44.5 -80q-8 -49 19 -81t79 -32q51 0 88 32t45 81zM231 213q-52 0 -88.5 -32t-44.5 -81q-8 -48 19 -80t79 -32q51 0 88 32t45 80q8 49 -19 81t-79 32z" />
    <glyph glyph-name="semicolon" unicode=";" horiz-adv-x="395"
d="M254 348q52 0 89 32t45 81q8 48 -19 80t-79 32t-88.5 -32t-44.5 -80q-8 -49 18.5 -81t78.5 -32zM176 -128q61 39 102 95.5t51 120.5q8 54 -15 89.5t-81 35.5q-52 0 -88.5 -32t-44.5 -81q-10 -60 32 -92q-22 -37 -53 -63l-7 -7l75 -84z" />
    <glyph glyph-name="less" unicode="&#x3c;" horiz-adv-x="644"
d="M160 419l-23 -145l425 -190l30 188l-202 76l226 77l29 184z" />
    <glyph glyph-name="equal" unicode="=" horiz-adv-x="731"
d="M696 379l26 162h-542l-26 -162h542zM140 292l-25 -161h542l26 161h-543z" />
    <glyph glyph-name="greater" unicode="&#x3e;" horiz-adv-x="644"
d="M364 348l-227 -76l-30 -188l485 190l23 145l-425 190l-29 -184z" />
    <glyph glyph-name="question" unicode="?" horiz-adv-x="777"
d="M488 219q12 19 23 40q248 21 278 204q8 52 -5.5 92.5t-41 65t-68.5 40.5t-83.5 22t-91.5 6q-57 0 -114.5 -12.5t-111 -38t-91 -71.5t-47.5 -106l-5 -34h194l6 34q5 28 56 40q37 11 85 11q50 0 82 -8q45 -11 41 -41q-3 -18 -46 -25q-27 -5 -72 -5h-116l-15 -95
q-7 -49 16 -119l2 -5h121zM290 100q-8 -49 19 -80.5t79 -31.5t88 32t44 80t-18.5 80.5t-78.5 32.5t-88.5 -32t-44.5 -81z" />
    <glyph glyph-name="at" unicode="@" horiz-adv-x="1035"
d="M618 635q103 0 159 -55.5t41 -149.5q-7 -48 -39 -79l6 25q14 89 -33 146.5t-141 57.5q-93 0 -158 -57.5t-79 -146.5q-14 -88 31.5 -146.5t139.5 -58.5h130q126 0 218 70t110 189q27 169 -76 267.5t-284 98.5q-193 0 -323.5 -118.5t-159.5 -301.5q-30 -191 81.5 -306
t315.5 -115q117 0 222 49q34 17 51 35l5 5l-57 129l-10 -7q-68 -49 -186 -49q-127 0 -192.5 70t-46.5 189q17 111 90 185t185 74zM592 348q-9 -12 -19 -12q-11 0 -16 13q-5 14 -2 27q2 16 10.5 27.5t19.5 11.5t16 -12q5 -11 1 -27q-2 -16 -10 -28z" />
    <glyph glyph-name="A" unicode="A" horiz-adv-x="942"
d="M293 11l1 -1l56 79q58 -27 136 -27q68 0 135 26l35 -90l224 2l-294 725l-524 -725l215 -2zM525 340l43 -111q-32 -10 -58 -10q-30 0 -61 13z" />
    <glyph glyph-name="B" unicode="B"
d="M596 702h-423l-111 -703h422q66 0 132 24.5t117 75.5t61 116q13 75 -40 136q71 60 83 135q10 66 -24.5 116.5t-92.5 75t-124 24.5zM347 543h223q29 0 51 -16.5t18 -40.5q-4 -22 -29.5 -38.5t-51.5 -16.5h-229zM286 159l18 111h228q28 0 48 -16t16 -39q-4 -24 -30.5 -40
t-55.5 -16h-224z" />
    <glyph glyph-name="C" unicode="C" horiz-adv-x="939"
d="M926 600q-115 102 -301 102t-333 -102q-152 -105 -174 -248q-24 -145 95 -251q117 -102 301 -102q182 0 326 97l-89 126q-48 -27 -109.5 -45t-109.5 -18q-63 0 -117.5 21.5t-87.5 67t-23 104.5q9 57 55 101.5t106.5 67t121.5 22.5q120 0 195 -71z" />
    <glyph glyph-name="D" unicode="D" horiz-adv-x="877"
d="M173 702l-111 -703h300q186 0 334 102q152 105 175 251q23 143 -96 248q-115 102 -302 102h-300zM347 543h101q97 0 166.5 -53t56.5 -138q-9 -58 -55 -103.5t-106.5 -67.5t-122.5 -22h-101z" />
    <glyph glyph-name="E" unicode="E"
d="M871 702h-698l-111 -703h698l25 160h-499l10 64h258l26 161h-258l25 159h499z" />
    <glyph glyph-name="F" unicode="F"
d="M871 702h-698l-111 -703l199 1l35 223h258l26 161h-258l25 159h499z" />
    <glyph glyph-name="G" unicode="G" horiz-adv-x="936"
d="M926 600q-115 102 -301 102t-333 -102q-152 -105 -174 -248q-24 -145 95 -251q117 -102 301 -102q96 0 191 31.5t170 92.5l4 2l39 247h-364l-26 -161h191q-83 -52 -187 -52q-63 0 -117.5 21.5t-87.5 67t-23 104.5q9 57 55 101.5t106.5 67t121.5 22.5t114 -19t80 -52z" />
    <glyph glyph-name="H" unicode="H"
d="M673 702l-63 -398h-301l63 398h-199l-111 -703h199l22 144h301l-23 -144h199l111 703h-198z" />
    <glyph glyph-name="I" unicode="I" horiz-adv-x="323"
d="M62 -1h199l111 703h-199z" />
    <glyph glyph-name="J" unicode="J"
d="M871 702h-198l-68 -431q-8 -49 -60 -80.5t-109 -31.5t-98.5 31.5t-33.5 81.5l3 20h-199l-3 -20q-10 -62 13.5 -115t69 -86.5t103.5 -52.5t120 -19q83 0 166.5 31t148 95t77.5 146z" />
    <glyph glyph-name="K" unicode="K" horiz-adv-x="851"
d="M86 5l-1 -6h176l26 169l63 55l174 -211l-2 -13h267l-292 353l403 350h-254l-4 -3q-216 -189 -314 -273l44 276h-199l-109 -689l20 -12z" />
    <glyph glyph-name="L" unicode="L"
d="M286 159l86 543h-199l-111 -703h698l25 160h-499z" />
    <glyph glyph-name="M" unicode="M" horiz-adv-x="976"
d="M914 -1l115 727l-18 -13q-79 -54 -460 -311l-360 311l-14 13l-115 -727h199l56 355q9 -8 194 -167l5 -5l255 172l-56 -355h199z" />
    <glyph glyph-name="N" unicode="N"
d="M673 702l-57 -355q-360 309 -425 366l-14 13l-115 -727h199l56 355q235 -200 425 -366l14 -12l115 726h-198z" />
    <glyph glyph-name="O" unicode="O" horiz-adv-x="1028"
d="M847 101q151 105 174 251q23 144 -95 248q-115 102 -301 102t-333 -102q-151 -103 -174 -248q-24 -147 95 -251q117 -102 301 -102t333 102zM316 352q13 84 100.5 137.5t183.5 53.5q61 0 114.5 -22.5t85 -67t22.5 -101.5q-14 -86 -100 -139.5t-183 -53.5t-166.5 53.5
t-56.5 139.5z" />
    <glyph glyph-name="P" unicode="P"
d="M261 -1l28 178h162q60 0 121.5 18t116 50t93 83.5t48.5 111.5q13 80 -30 141.5t-114.5 91t-151.5 29.5h-361l-111 -703h199zM347 543h162q53 0 91 -29t31 -74q-7 -46 -54.5 -74.5t-100.5 -28.5h-162z" />
    <glyph glyph-name="Q" unicode="Q" horiz-adv-x="1079"
d="M1016 -3l8 175l-8 1q-40 3 -71 17q63 75 76 162q23 144 -95 248q-115 102 -301 102t-333 -102q-151 -103 -174 -248q-24 -145 95 -251q117 -102 301 -102q152 0 282 71q73 -49 159 -67q2 0 8 -1.5t9 -2.5q14 -2 19 -2h25zM680 190q-66 -31 -141 -31q-97 0 -166.5 53.5
t-56.5 139.5q13 84 100.5 137.5t183.5 53.5q61 0 114.5 -22.5t85 -67t22.5 -101.5q-3 -18 -11 -38q-11 21 -20 55l-2 6h-177l2 -13q17 -97 66 -172z" />
    <glyph glyph-name="R" unicode="R"
d="M739 -2l27 171l-7 1q-61 13 -91 63q65 36 108.5 90t53.5 117q13 80 -30 141.5t-114.5 91t-151.5 29.5h-361l-111 -703h199l28 178h162q19 0 29 1q49 -166 249 -179zM347 543h162q53 0 91 -29t31 -74q-7 -46 -54.5 -74.5t-100.5 -28.5h-162z" />
    <glyph glyph-name="S" unicode="S" horiz-adv-x="676"
d="M489 465h198l3 20q10 66 -24.5 117t-93 75.5t-124.5 24.5q-104 0 -198.5 -59.5t-110.5 -156.5q-10 -65 24.5 -116t92.5 -75.5t124 -24.5q30 0 51.5 -15.5t17.5 -39.5t-30.5 -40t-56.5 -16q-29 0 -50 16.5t-17 40.5l3 20h-199l-3 -20q-10 -66 24 -117t92 -75.5t125 -24.5
q65 0 131 24.5t118 75.5t62 116t-25.5 116t-93.5 75.5t-124 24.5q-29 0 -50 15.5t-17 39.5t30 40.5t55 16.5q30 0 51.5 -16.5t17.5 -41.5z" />
    <glyph glyph-name="T" unicode="T"
d="M846 543l25 159h-698l-25 -159h249l-86 -544h200l86 544h249z" />
    <glyph glyph-name="U" unicode="U"
d="M173 702l-68 -431q-13 -82 31.5 -146t118 -95t156.5 -31t166.5 31t148 95t77.5 146l68 431h-198l-68 -431q-8 -49 -60 -80.5t-109 -31.5t-98.5 31.5t-33.5 80.5l68 431h-199z" />
    <glyph glyph-name="V" unicode="V" horiz-adv-x="846"
d="M390 689l-12 13h-205l5 -13l234 -701l6 -18l12 18q252 386 457 701l9 13h-215l-194 -297l-95 285z" />
    <glyph glyph-name="W" unicode="W" horiz-adv-x="1170"
d="M390 689l-12 13h-205l5 -13l234 -701l6 -18l12 18q95 143 202 310q18 -51 52.5 -154.5t51.5 -155.5l6 -18l12 18l456 701l9 13h-215l-193 -297q-54 162 -105 308l-6 18l-12 -18q-99 -155 -201 -309l-95 286z" />
    <glyph glyph-name="X" unicode="X" horiz-adv-x="862"
d="M100 25l-8 1l3 -27h197l169 192l100 -177l-2 -15h240l-197 353l309 350h-231l-168 -192l-107 192h-232l199 -350l-280 -321z" />
    <glyph glyph-name="Y" unicode="Y" horiz-adv-x="851"
d="M396 690l-12 12h-211l132 -322q4 -10 16.5 -35t17.5 -36q22 -45 25 -70l-1 -1v-5l-3 -17q-5 -26 -5 -27l-30 -190h200l37 237l7 9l331 457h-218l-186 -255l-99 244z" />
    <glyph glyph-name="Z" unicode="Z" horiz-adv-x="821"
d="M79 25l-8 1l3 -27h684l25 160h-370l453 516l4 27h-697l-25 -159h370l-447 -512z" />
    <glyph glyph-name="bracketleft" unicode="[" horiz-adv-x="436"
d="M505 799h-284l-146 -921h284l28 176h-90l90 568h90z" />
    <glyph glyph-name="backslash" unicode="\" horiz-adv-x="655"
d="M427 -99l175 81l-266 794l-176 -81z" />
    <glyph glyph-name="bracketright" unicode="]" horiz-adv-x="436"
d="M39 -122h283l146 921h-284l-28 -177h91l-91 -568h-91z" />
    <glyph glyph-name="asciicircum" unicode="^" horiz-adv-x="644"
d="M507 677h-157l-263 -432h199l107 198l46 -198h196z" />
    <glyph glyph-name="underscore" unicode="_" horiz-adv-x="685"
d="M572 -116l27 176h-495l-28 -176h496z" />
    <glyph glyph-name="a" unicode="a" horiz-adv-x="942"
d="M293 11l1 -1l56 79q58 -27 136 -27q68 0 135 26l35 -90l224 2l-294 725l-524 -725l215 -2zM525 340l43 -111q-32 -10 -58 -10q-30 0 -61 13z" />
    <glyph glyph-name="b" unicode="b"
d="M596 702h-423l-111 -703h422q66 0 132 24.5t117 75.5t61 116q13 75 -40 136q71 60 83 135q10 66 -24.5 116.5t-92.5 75t-124 24.5zM347 543h223q29 0 51 -16.5t18 -40.5q-4 -22 -29.5 -38.5t-51.5 -16.5h-229zM286 159l18 111h228q28 0 48 -16t16 -39q-4 -24 -30.5 -40
t-55.5 -16h-224z" />
    <glyph glyph-name="c" unicode="c" horiz-adv-x="939"
d="M926 600q-115 102 -301 102t-333 -102q-152 -105 -174 -248q-24 -145 95 -251q117 -102 301 -102q182 0 326 97l-89 126q-48 -27 -109.5 -45t-109.5 -18q-63 0 -117.5 21.5t-87.5 67t-23 104.5q9 57 55 101.5t106.5 67t121.5 22.5q120 0 195 -71z" />
    <glyph glyph-name="d" unicode="d" horiz-adv-x="877"
d="M173 702l-111 -703h300q186 0 334 102q152 105 175 251q23 143 -96 248q-115 102 -302 102h-300zM347 543h101q97 0 166.5 -53t56.5 -138q-9 -58 -55 -103.5t-106.5 -67.5t-122.5 -22h-101z" />
    <glyph glyph-name="e" unicode="e"
d="M871 702h-698l-111 -703h698l25 160h-499l10 64h258l26 161h-258l25 159h499z" />
    <glyph glyph-name="f" unicode="f"
d="M871 702h-698l-111 -703l199 1l35 223h258l26 161h-258l25 159h499z" />
    <glyph glyph-name="g" unicode="g" horiz-adv-x="936"
d="M926 600q-115 102 -301 102t-333 -102q-152 -105 -174 -248q-24 -145 95 -251q117 -102 301 -102q96 0 191 31.5t170 92.5l4 2l39 247h-364l-26 -161h191q-83 -52 -187 -52q-63 0 -117.5 21.5t-87.5 67t-23 104.5q9 57 55 101.5t106.5 67t121.5 22.5t114 -19t80 -52z" />
    <glyph glyph-name="h" unicode="h"
d="M673 702l-63 -398h-301l63 398h-199l-111 -703h199l22 144h301l-23 -144h199l111 703h-198z" />
    <glyph glyph-name="i" unicode="i" horiz-adv-x="323"
d="M62 -1h199l111 703h-199z" />
    <glyph glyph-name="j" unicode="j"
d="M871 702h-198l-68 -431q-8 -49 -60 -80.5t-109 -31.5t-98.5 31.5t-33.5 81.5l3 20h-199l-3 -20q-10 -62 13.5 -115t69 -86.5t103.5 -52.5t120 -19q83 0 166.5 31t148 95t77.5 146z" />
    <glyph glyph-name="k" unicode="k" horiz-adv-x="851"
d="M86 5l-1 -6h176l26 169l63 55l174 -211l-2 -13h267l-292 353l403 350h-254l-4 -3q-216 -189 -314 -273l44 276h-199l-109 -689l20 -12z" />
    <glyph glyph-name="l" unicode="l"
d="M286 159l86 543h-199l-111 -703h698l25 160h-499z" />
    <glyph glyph-name="m" unicode="m" horiz-adv-x="976"
d="M914 -1l115 727l-18 -13q-79 -54 -460 -311l-360 311l-14 13l-115 -727h199l56 355q9 -8 194 -167l5 -5l255 172l-56 -355h199z" />
    <glyph glyph-name="n" unicode="n"
d="M673 702l-57 -355q-360 309 -425 366l-14 13l-115 -727h199l56 355q235 -200 425 -366l14 -12l115 726h-198z" />
    <glyph glyph-name="o" unicode="o" horiz-adv-x="1028"
d="M847 101q151 105 174 251q23 144 -95 248q-115 102 -301 102t-333 -102q-151 -103 -174 -248q-24 -147 95 -251q117 -102 301 -102t333 102zM316 352q13 84 100.5 137.5t183.5 53.5q61 0 114.5 -22.5t85 -67t22.5 -101.5q-14 -86 -100 -139.5t-183 -53.5t-166.5 53.5
t-56.5 139.5z" />
    <glyph glyph-name="p" unicode="p"
d="M261 -1l28 178h162q60 0 121.5 18t116 50t93 83.5t48.5 111.5q13 80 -30 141.5t-114.5 91t-151.5 29.5h-361l-111 -703h199zM347 543h162q53 0 91 -29t31 -74q-7 -46 -54.5 -74.5t-100.5 -28.5h-162z" />
    <glyph glyph-name="q" unicode="q" horiz-adv-x="1079"
d="M1016 -3l8 175l-8 1q-40 3 -71 17q63 75 76 162q23 144 -95 248q-115 102 -301 102t-333 -102q-151 -103 -174 -248q-24 -145 95 -251q117 -102 301 -102q152 0 282 71q73 -49 159 -67q2 0 8 -1.5t9 -2.5q14 -2 19 -2h25zM680 190q-66 -31 -141 -31q-97 0 -166.5 53.5
t-56.5 139.5q13 84 100.5 137.5t183.5 53.5q61 0 114.5 -22.5t85 -67t22.5 -101.5q-3 -18 -11 -38q-11 21 -20 55l-2 6h-177l2 -13q17 -97 66 -172z" />
    <glyph glyph-name="r" unicode="r"
d="M739 -2l27 171l-7 1q-61 13 -91 63q65 36 108.5 90t53.5 117q13 80 -30 141.5t-114.5 91t-151.5 29.5h-361l-111 -703h199l28 178h162q19 0 29 1q49 -166 249 -179zM347 543h162q53 0 91 -29t31 -74q-7 -46 -54.5 -74.5t-100.5 -28.5h-162z" />
    <glyph glyph-name="s" unicode="s" horiz-adv-x="676"
d="M489 465h198l3 20q10 66 -24.5 117t-93 75.5t-124.5 24.5q-104 0 -198.5 -59.5t-110.5 -156.5q-10 -65 24.5 -116t92.5 -75.5t124 -24.5q30 0 51.5 -15.5t17.5 -39.5t-30.5 -40t-56.5 -16q-29 0 -50 16.5t-17 40.5l3 20h-199l-3 -20q-10 -66 24 -117t92 -75.5t125 -24.5
q65 0 131 24.5t118 75.5t62 116t-25.5 116t-93.5 75.5t-124 24.5q-29 0 -50 15.5t-17 39.5t30 40.5t55 16.5q30 0 51.5 -16.5t17.5 -41.5z" />
    <glyph glyph-name="t" unicode="t"
d="M846 543l25 159h-698l-25 -159h249l-86 -544h200l86 544h249z" />
    <glyph glyph-name="u" unicode="u"
d="M173 702l-68 -431q-13 -82 31.5 -146t118 -95t156.5 -31t166.5 31t148 95t77.5 146l68 431h-198l-68 -431q-8 -49 -60 -80.5t-109 -31.5t-98.5 31.5t-33.5 80.5l68 431h-199z" />
    <glyph glyph-name="v" unicode="v" horiz-adv-x="846"
d="M390 689l-12 13h-205l5 -13l234 -701l6 -18l12 18q252 386 457 701l9 13h-215l-194 -297l-95 285z" />
    <glyph glyph-name="w" unicode="w" horiz-adv-x="1170"
d="M390 689l-12 13h-205l5 -13l234 -701l6 -18l12 18q95 143 202 310q18 -51 52.5 -154.5t51.5 -155.5l6 -18l12 18l456 701l9 13h-215l-193 -297q-54 162 -105 308l-6 18l-12 -18q-99 -155 -201 -309l-95 286z" />
    <glyph glyph-name="x" unicode="x" horiz-adv-x="862"
d="M100 25l-8 1l3 -27h197l169 192l100 -177l-2 -15h240l-197 353l309 350h-231l-168 -192l-107 192h-232l199 -350l-280 -321z" />
    <glyph glyph-name="y" unicode="y" horiz-adv-x="851"
d="M396 690l-12 12h-211l132 -322q4 -10 16.5 -35t17.5 -36q22 -45 25 -70l-1 -1v-5l-3 -17q-5 -26 -5 -27l-30 -190h200l37 237l7 9l331 457h-218l-186 -255l-99 244z" />
    <glyph glyph-name="z" unicode="z" horiz-adv-x="821"
d="M79 25l-8 1l3 -27h684l25 160h-370l453 516l4 27h-697l-25 -159h370l-447 -512z" />
    <glyph glyph-name="braceleft" unicode="{" horiz-adv-x="465"
d="M439 622h66l28 177h-66q-99 0 -168.5 -61.5t-84.5 -154.5l-20 -129q-5 -28 -28 -28h-68l-27 -176h67q24 0 19 -27l-20 -128q-15 -95 34.5 -156t149.5 -61h66l28 176h-66q-24 0 -20 22l19 122q14 86 -30 140q61 56 75 141l19 120q3 23 27 23z" />
    <glyph glyph-name="bar" unicode="|" horiz-adv-x="383"
d="M269 -122l146 922l-195 -2l-145 -920h194z" />
    <glyph glyph-name="braceright" unicode="}" horiz-adv-x="462"
d="M250 799h-66l-28 -177h66q23 0 20 -23l-19 -120q-13 -84 32 -141q-64 -56 -77 -140l-19 -122q-3 -22 -27 -22h-67l-27 -176h66q100 0 169 61t84 156l20 128q5 27 28 27h66l28 176h-66q-24 0 -19 28l20 129q15 93 -35 154.5t-149 61.5z" />
    <glyph glyph-name="uni00A0" unicode="&#xa0;" horiz-adv-x="326"
 />
    <glyph glyph-name="cent" unicode="&#xa2;" horiz-adv-x="766"
d="M520 180l50 313q26 -21 41 -52t14 -63l-1 -10h185l1 12q5 106 -51 187.5t-160 107.5l19 122l-176 -3l-20 -121q-124 -30 -206 -124.5t-101 -212.5t33.5 -212.5t167.5 -124.5l-20 -125h176l19 122q112 25 195.5 108t109.5 188l3 12h-185l-3 -10q-7 -31 -33 -63t-58 -51z
M393 488l-48 -305q-30 25 -41.5 66t-4.5 87q16 101 94 152z" />
    <glyph glyph-name="copyright" unicode="&#xa9;" horiz-adv-x="862"
d="M432 -10q153 0 260.5 104.5t107.5 248.5t-107.5 248.5t-260.5 104.5q-154 0 -262 -104t-108 -249t108 -249t262 -104zM432 601q110 0 187.5 -76.5t77.5 -181.5t-77.5 -181.5t-187.5 -76.5q-111 0 -189 76.5t-78 181.5t78 181.5t189 76.5zM518 290q-25 -25 -65 -25
q-41 0 -72 21.5t-31 56.5q0 37 29 60.5t70 23.5q42 0 77 -29l7 -6l86 75l-8 7q-74 66 -167 66q-88 0 -155.5 -57t-67.5 -140q0 -82 68 -140t155 -58q94 0 167 68l8 7l-94 76z" />
    <glyph glyph-name="guillemotleft" unicode="&#xab;" horiz-adv-x="575"
d="M429 550h-159l-166 -198l104 -197h160l-93 197zM614 550h-160l-166 -198l103 -197h161l-93 197z" />
    <glyph glyph-name="registered" unicode="&#xae;" horiz-adv-x="873"
d="M811 343q0 146 -109 251.5t-264 105.5q-156 0 -266 -105t-110 -252t110 -252t266 -105q155 0 264 105.5t109 251.5zM173 343q0 105 77 181t187 76t186.5 -76t76.5 -181q0 -104 -77 -180.5t-186 -76.5q-110 0 -187 76t-77 181zM598 266q-26 5 -38 17q55 40 55 100
t-53 96.5t-117 36.5h-179v-351h116v83q12 0 35 0.5t35 0.5q36 -75 143 -84l11 -1v101zM382 419h63q21 0 38 -10t17 -26q0 -17 -16.5 -27.5t-38.5 -10.5h-63v74z" />
    <glyph glyph-name="degree" unicode="&#xb0;" horiz-adv-x="603"
d="M135 461q-16 -101 40.5 -165t163.5 -64t183.5 64.5t92.5 164.5t-40 164t-163 64q-106 0 -183.5 -64.5t-93.5 -163.5zM330 461q3 22 17.5 36.5t36.5 14.5q21 0 30.5 -14.5t5.5 -36.5q-3 -23 -17 -38t-36 -15t-31.5 14.5t-5.5 38.5z" />
    <glyph glyph-name="guillemotright" unicode="&#xbb;" horiz-adv-x="575"
d="M73 155h160l166 197l-103 198h-161l93 -198zM256 155h161l166 197l-104 198h-159l92 -198z" />
    <glyph glyph-name="multiply" unicode="&#xd7;" horiz-adv-x="723"
d="M532 50l136 120l-135 166l188 166l-99 120l-188 -165l-136 165l-137 -120l135 -166l-187 -164l99 -122l188 165z" />
    <glyph glyph-name="divide" unicode="&#xf7;" horiz-adv-x="731"
d="M432 423q44 0 77 29.5t39 69.5q6 41 -17.5 70.5t-67.5 29.5t-76.5 -29.5t-38.5 -70.5q-7 -40 16.5 -69.5t67.5 -29.5zM160 416l-26 -160h543l25 160h-542zM373 50q44 0 77 29t39 70q6 40 -17.5 69.5t-67.5 29.5t-76.5 -29.5t-39.5 -69.5q-6 -40 17.5 -69.5t67.5 -29.5z
" />
    <glyph glyph-name="endash" unicode="&#x2013;" horiz-adv-x="1046"
d="M991 250l28 176h-858l-27 -176h857z" />
    <glyph glyph-name="emdash" unicode="&#x2014;" horiz-adv-x="1287"
d="M1233 250l28 176h-1100l-27 -176h1099z" />
    <glyph glyph-name="quoteleft" unicode="&#x2018;" horiz-adv-x="339"
d="M136 467q-8 -47 14 -83t74 -36q49 0 82.5 30.5t40.5 75.5q11 62 -35 91q22 39 51 67l9 7l-65 74l-21 -14q-60 -38 -100 -94t-50 -118z" />
    <glyph glyph-name="quoteright" unicode="&#x2019;" horiz-adv-x="339"
d="M365 566q8 47 -14 82.5t-74 35.5q-49 0 -82.5 -30.5t-40.5 -74.5q-11 -63 36 -91q-17 -31 -52 -69l-7 -7l62 -70l9 4q23 11 55 39q93 83 108 181z" />
    <glyph glyph-name="quotesinglbase" unicode="&#x201a;" horiz-adv-x="339"
d="M307 199q8 48 -14 83t-74 35q-49 0 -82.5 -30t-40.5 -75q-10 -62 36 -92q-23 -40 -52 -66l-8 -7l63 -73l8 4q24 11 56 39q92 80 108 182z" />
    <glyph glyph-name="quotedblleft" unicode="&#x201c;" horiz-adv-x="582"
d="M136 467q-8 -47 14 -83t74 -36q49 0 82.5 30.5t40.5 75.5q11 62 -35 91q22 39 51 67l9 7l-65 74l-21 -14q-60 -38 -100 -94t-50 -118zM380 467q-8 -47 14 -83t74 -36q49 0 82.5 30.5t40.5 75.5q11 62 -35 91q22 40 52 67l7 7l-62 74l-10 -6q-64 -36 -108.5 -95.5
t-54.5 -124.5z" />
    <glyph glyph-name="quotedblright" unicode="&#x201d;" horiz-adv-x="582"
d="M365 566q8 47 -14 82.5t-74 35.5q-49 0 -82.5 -30.5t-40.5 -74.5q-11 -63 36 -91q-17 -31 -52 -69l-7 -7l62 -70l9 4q23 11 55 39q93 83 108 181zM609 566q8 47 -14 82.5t-74 35.5q-49 0 -82.5 -30.5t-40.5 -74.5q-11 -63 36 -91q-24 -42 -52 -68l-8 -8l64 -71l9 5
q28 15 54 39q93 83 108 181z" />
    <glyph glyph-name="quotedblbase" unicode="&#x201e;" horiz-adv-x="582"
d="M307 199q7 47 -15 82.5t-73 35.5q-49 0 -82.5 -30t-40.5 -75q-10 -62 36 -92q-23 -40 -52 -66l-8 -7l63 -73l8 4q24 11 56 39q92 80 108 182zM551 199q7 47 -15 82.5t-73 35.5q-49 0 -82.5 -30t-40.5 -75q-10 -63 36 -92q-17 -30 -52 -67l-8 -8l63 -71l8 4q24 11 56 39
q92 80 108 182z" />
    <glyph glyph-name="bullet" unicode="&#x2022;" horiz-adv-x="441"
d="M250 183q71 0 121 44t61 111q10 68 -26 112t-107 44q-72 0 -122 -44t-61 -112q-11 -67 25.5 -111t108.5 -44z" />
    <glyph glyph-name="ellipsis" unicode="&#x2026;" horiz-adv-x="949"
d="M78 100q-8 -48 19 -80t79 -32t88.5 32t44.5 80q8 49 -19 81t-79 32t-88.5 -32t-44.5 -81zM508 213q-52 0 -89 -32t-45 -81t19.5 -80.5t79.5 -31.5t89 31.5t45 80.5t-19 81t-80 32zM672 100q-8 -48 19 -80t79 -32t88.5 32t44.5 80q8 49 -19 81t-78 32q-52 0 -89 -32
t-45 -81z" />
    <glyph glyph-name="guilsinglleft" unicode="&#x2039;" horiz-adv-x="417"
d="M457 557h-181l-172 -203l108 -202h182l-97 203z" />
    <glyph glyph-name="guilsinglright" unicode="&#x203a;" horiz-adv-x="417"
d="M72 152h182l172 202l-108 203h-182l97 -203z" />
    <glyph glyph-name="Euro" unicode="&#x20ac;" horiz-adv-x="771"
d="M796 558q-83 126 -252 126q-129 0 -231.5 -75t-146.5 -193h-69l-26 -160h70q6 -118 85 -193.5t208 -75.5q167 0 291 127l18 17l-121 115l-10 -11q-67 -80 -152 -80q-50 0 -84 27.5t-46 73.5h284l25 160h-283q26 46 68.5 73.5t93.5 27.5q87 0 126 -81l5 -12l158 116z" />
    <glyph glyph-name="trademark" unicode="&#x2122;" horiz-adv-x="842"
d="M366 677h-297v-95h114v-249h114v249h69v-249h115v153q39 -28 85 -66l6 -5l7 5q28 22 86 66v-153h115v369l-16 -12q-90 -67 -191 -145q-126 98 -191 145l-16 12v-25z" />
    <glyph glyph-name="minus" unicode="&#x2212;" horiz-adv-x="745"
d="M690 250l28 176h-557l-27 -176h556z" />
    <glyph glyph-name="_FSHallmark" horiz-adv-x="778"
d="M739 561h-698v82h698v-82zM589 170q-31 0 -58 7q-24 7 -49 24q-19 13 -35 39q-13 22 -13 55l81 -1q0 -5 4 -13q1 -11 12 -22q13 -11 21 -14q16 -8 39 -8q29 0 45 9q17 9 17 23q0 24 -67 38q-67 18 -102 38q-42 20 -42 69q0 38 28 63q22 20 61 33q31 7 58 7q44 0 78 -15
q38 -16 56 -56q10 -23 10 -40h-84q0 7 -7 18q-5 8 -15 15q-11 5 -20 8q-10 3 -20 3q-19 0 -41 -11q-16 -10 -16 -24q0 -25 16 -34q18 -10 36 -14l31 -8l25 -5q16 -6 25 -6q17 -4 20 -6q16 -7 18 -8q17 -10 26 -24q9 -13 11 -36q1 -21 -9 -42q-19 -37 -62 -50
q-39 -12 -78 -12zM133 170h-92v346h294v-78h-202v-79h168v-77h-168v-112zM369 171q-15 0 -28 13q-15 12 -15 27q0 16 13 31q11 10 30 10q18 0 33 -12q14 -11 14 -29q0 -17 -14 -29q-16 -11 -33 -11zM738 43h-699v83h699v-83z" />
    <glyph glyph-name="_Fontastica" horiz-adv-x="604"
d="M126 129h-86q-1 1 -1 4v507h380v-78h-293v-208h293v-79h-293v-146zM562 130h-380v78h293v209h-293v78h293v145h87v-510zM482 47l-15 5q-6 8 -7 17q0 9 6 17q10 8 16 8q8 0 20 -8l-4 -7l-5 4q-1 1 -7 1h-4l-3 -2q-3 -1 -4 -3q-5 -3 -5 -7q0 -7 4 -11q5 -5 8 -5q8 0 16 5
l4 -5q-7 -9 -20 -9zM51 49h-11v43h32v-8h-21v-11h20v-7h-20v-17zM111 46q-6 0 -9 3q-13 4 -13 19q0 12 5 18q6 6 18 6q15 0 22 -11q6 -9 1 -20q-3 -11 -19 -14zM190 47q-1 0 -6 5l-6 6q0 2 -2 4q-2 1 -2 2l-8 11v-26h-10v43h8q4 -1 5 -6q1 -1 4 -5t5 -6q5 -5 9 -13v30h10
v-43h-3q-3 -2 -4 -2zM238 49h-9v35h-15v8h37v-8h-13v-35zM343 47q-12 0 -19 7v2l1 2l1 3l15 -5h5l4 2q0 7 -10 10q-2 0 -2 1h-4q-8 3 -8 10q-2 8 7 11q4 2 9 2q10 0 18 -3l-3 -8l-3 1h-3q-1 1 -3 1q-1 0 -2 1h-5q-3 0 -3 -2q-1 -1 3 -7l10 -3q9 0 9 -11q2 -9 -8 -12
q-1 -2 -9 -2zM399 49h-10v35h-15v8h39v-8h-14v-35zM442 49h-12v43h12v-43zM526 49h-10q11 19 18 43h12l9 -20q2 -8 5 -14q1 -1 2 -4.5t3 -4.5h-10l-5 9h-20zM270 49h-8l18 41h10q0 -2 5 -9q3 -5 5 -10q1 -2 4 -13q0 -1 4 -9h-10q-1 1 -1 3l-2 6h-21v-6v-1zM112 56h4
q8 3 8 13v2q0 9 -3 10q-5 3 -10 3q-1 -1 -4 -1l-3 -3q-2 -3 -4 -5q-6 -3 -2 -9q4 -10 14 -10zM285 82l-8 -16h15l-2 3q-2 4 -3 4q-1 1 -1 5q0 3 -1 4zM540 82l-7 -16h14l-1 3q0 2 -2 4q-2 1 -2 5q0 3 -2 4z" />
    </font>
</defs>
</svg>
