<?xml version="1.0" standalone="no"?>
<!DOCTYPE svg PUBLIC "-//W3C//DTD SVG 1.1//EN" "http://www.w3.org/Graphics/SVG/1.1/DTD/svg11.dtd" >
<svg xmlns="http://www.w3.org/2000/svg" version="1.1">
<metadata>
Created by FontForge 20170731 at Sun Nov 17 11:45:01 2019
 By Aleksey,,,
Copyright (c) 2019 by Fontastica. All rights reserved.
</metadata>
<defs>
<font id="Hanover-Italic" horiz-adv-x="794" >
  <font-face
    font-family="Hanover"
    font-weight="400"
    font-style="italic"
    font-stretch="normal"
    units-per-em="1000"
    panose-1="0 0 5 0 0 0 0 0 0 0"
    ascent="800"
    descent="-200"
    x-height="693"
    cap-height="693"
    bbox="20 -149 1238 815"
    underline-thickness="50"
    underline-position="-200"
    unicode-range="U+0020-2212"
  />
<missing-glyph horiz-adv-x="529"
d="M567 554l-88 -554h-429l88 554h429zM311 294l225 245h-373zM464 37l76 480l-219 -240zM153 515l-76 -476l219 238zM82 17h372l-148 243z" />
    <glyph glyph-name=".notdef" horiz-adv-x="529"
d="M567 554l-88 -554h-429l88 554h429zM311 294l225 245h-373zM464 37l76 480l-219 -240zM153 515l-76 -476l219 238zM82 17h372l-148 243z" />
    <glyph glyph-name=".null" horiz-adv-x="0"
 />
    <glyph glyph-name="nonmarkingreturn" horiz-adv-x="333"
 />
    <glyph glyph-name="space" unicode=" " horiz-adv-x="326"
 />
    <glyph glyph-name="exclam" unicode="!" horiz-adv-x="354"
d="M360 666h-155l-22 -142q-25 -158 -21 -289v-11h101l4 11q46 131 71 289zM176 -13q46 0 75.5 29t35.5 68q7 39 -13.5 68t-66.5 29q-47 0 -76 -29t-36 -68q-6 -39 14 -68t67 -29z" />
    <glyph glyph-name="quotedbl" unicode="&#x22;" horiz-adv-x="502"
d="M170 556q-15 -98 -1 -164l2 -9h97l5 9q37 71 52 164l17 110h-155zM527 666h-155l-17 -110q-15 -98 -1 -164l2 -9h97l4 9q38 70 53 164z" />
    <glyph glyph-name="numbersign" unicode="#" horiz-adv-x="836"
d="M447 141l-49 -141h145l50 141h122l21 130h-97l44 125h122l20 130h-97l49 140h-145l-50 -140h-113l49 140h-146l-49 -140h-122l-20 -130h97l-44 -125h-122l-21 -130h97l-49 -141h145l49 141h114zM424 396h113l-44 -125h-114z" />
    <glyph glyph-name="dollar" unicode="$" horiz-adv-x="747"
d="M451 -9q110 13 181.5 67.5t86.5 150.5q16 99 -38 144.5t-164 54.5l18 118q64 -20 57 -65l-2 -14h155l2 14q14 86 -40 141t-148 71l20 131l-154 -2l-20 -128q-106 -13 -174 -65t-83 -145q-15 -95 36.5 -139.5t156.5 -53.5l-21 -133q-34 8 -54 25.5t-16 42.5l2 13h-155
l-2 -13q-14 -89 44.5 -144t157.5 -70l-18 -111h154zM323 428q-23 11 -20 36q8 50 79 65l-18 -113q-25 3 -41 12zM474 137l20 127q32 -6 49 -14q25 -13 21 -41q-8 -55 -90 -72z" />
    <glyph glyph-name="percent" unicode="%" horiz-adv-x="984"
d="M317 332q97 0 158 60.5t74 145.5q13 83 -29.5 144t-137.5 61q-94 0 -158 -62t-77 -143q-13 -84 30.5 -145t139.5 -61zM287 16l597 532l-81 101l-598 -532zM290 538q5 30 23.5 49.5t46.5 19.5t40 -19.5t7 -49.5q-5 -31 -23 -50.5t-46 -19.5t-40.5 19.5t-7.5 50.5zM539 129
q-13 -83 30 -144.5t138 -61.5q98 0 159.5 60.5t74.5 145.5q14 83 -30 144t-139 61q-93 0 -156.5 -61.5t-76.5 -143.5zM728 59q-27 0 -39.5 20t-7.5 50t23.5 49.5t45.5 19.5q29 0 41 -19t7 -50t-23 -50.5t-47 -19.5z" />
    <glyph glyph-name="ampersand" unicode="&#x26;" horiz-adv-x="728"
d="M642 -72l118 111l-111 118l96 123l-109 74l-82 -98q-45 47 -82 92l7 4l24 12q137 74 153 180q12 75 -36.5 122t-133.5 47q-7 0 -20.5 -0.5t-19.5 -0.5q-93 -5 -156 -56q-63 -49 -76 -125q-11 -75 39 -160q-72 -39 -114.5 -85.5t-53.5 -112.5q-14 -93 44.5 -155.5
t164.5 -62.5q138 0 247 79zM498 537q-7 -47 -107 -99q-30 58 -24 92q4 22 26.5 36t52.5 14q28 0 42 -11t10 -32zM328 274q39 -47 123 -137q-63 -48 -123 -48q-43 0 -67.5 26.5t-17.5 64.5q7 47 85 94z" />
    <glyph glyph-name="quotesingle" unicode="'" horiz-adv-x="318"
d="M342 666h-155l-17 -110q-15 -98 -1 -164l2 -9h97l5 9q37 71 52 164z" />
    <glyph glyph-name="parenleft" unicode="(" horiz-adv-x="367"
d="M402 671q26 38 41 54l10 11l-101 79l-12 -11q-31 -30 -69 -84q-122 -174 -156 -387q-34 -212 33 -387q21 -54 43 -84l8 -11l126 79l-6 11q-10 16 -24 54q-53 156 -25 338q28 180 132 338z" />
    <glyph glyph-name="parenright" unicode=")" horiz-adv-x="367"
d="M325 720q-23 57 -43 84l-8 11l-126 -79l6 -11q9 -16 23 -54q54 -155 26 -338q-28 -181 -133 -338q-26 -38 -40 -54l-10 -11l101 -79l12 11q31 30 69 84q122 174 156 387q34 212 -33 387z" />
    <glyph glyph-name="asterisk" unicode="*" horiz-adv-x="530"
d="M450 461q7 -2 8 -4l74 -48l-74 -103l-76 50l-2 2q-1 -2 -1 -6l-16 -97h-118l16 97q0 3 2 5l-3 -1l-92 -50l-41 103l88 48q1 0 5 1.5t6 2.5q-8 4 -9 5l-74 48l75 102l76 -49q1 -1 2 -1q-1 1 -1 4l15 96h118l-15 -96q0 -4 -1 -6l2 1l94 51l40 -102l-88 -48l-5 -2.5z
M302 517h-1l2 -6q-1 2 -1 6z" />
    <glyph glyph-name="plus" unicode="+" horiz-adv-x="714"
d="M135 262h185l-31 -198h155l31 198h185l23 142h-185l31 198h-155l-31 -198h-185z" />
    <glyph glyph-name="comma" unicode="," horiz-adv-x="354"
d="M207 181q-47 0 -76 -29t-36 -68q-9 -64 39 -88q-25 -49 -50 -72l-9 -9l52 -61l12 8q12 7 40 30q91 78 106 179q7 44 -9 77t-69 33z" />
    <glyph glyph-name="hyphen" unicode="-" horiz-adv-x="652"
d="M621 404h-463l-23 -142h463z" />
    <glyph glyph-name="period" unicode="." horiz-adv-x="354"
d="M207 181q-47 0 -76 -29t-36 -68q-6 -39 14 -68t67 -29q46 0 75.5 29t35.5 68q7 39 -13.5 68t-66.5 29z" />
    <glyph glyph-name="slash" unicode="/" horiz-adv-x="610"
d="M554 762l-509 -793l118 -65l507 793z" />
    <glyph glyph-name="zero" unicode="0" horiz-adv-x="1004"
d="M612 693q183 0 294 -102q114 -102 91 -244q-23 -145 -169 -246q-142 -102 -326 -102q-183 0 -294 102q-114 99 -91 246q24 146 169 244q142 102 326 102zM722 540q-61 28 -130 28q-116 0 -209 -65t-107 -156q-8 -53 17 -106zM393 152q56 -28 129 -28q116 0 208 65
t107 158q9 57 -18 104z" />
    <glyph glyph-name="one" unicode="1" horiz-adv-x="443"
d="M228 382l-91 93l354 219l-110 -695h-160l66 418z" />
    <glyph glyph-name="two" unicode="2" horiz-adv-x="774"
d="M138 440q16 105 122.5 179t240.5 74q133 0 215 -74t66 -179q-17 -105 -123 -180l-192 -136h265l-20 -125h-650l498 350q53 36 62 91q8 53 -33 90.5t-108 37.5t-121 -37.5t-62 -90.5v-1h-160v1z" />
    <glyph glyph-name="three" unicode="3" horiz-adv-x="644"
d="M139 488q14 85 99.5 145t192.5 60t174 -60t54 -145q-13 -84 -96 -141q64 -61 51 -143q-13 -85 -99.5 -145t-193.5 -60t-173.5 60t-53.5 145v1h159v-1q-5 -32 21 -56t67 -24q42 0 75.5 23.5t38.5 56.5t-20.5 56t-68.5 23h-1l20 126h1q43 0 76 23t38 56t-21 56.5t-68 23.5
q-41 0 -74.5 -24t-38.5 -56v-1h-159v1z" />
    <glyph glyph-name="four" unicode="4" horiz-adv-x="854"
d="M622 311l61 382h159l-61 -382h60l-20 -126h-60l-29 -186h-159l29 186h-511l81 508h159l-61 -382h352z" />
    <glyph glyph-name="five" unicode="5" horiz-adv-x="721"
d="M311 568l-15 -97h140q123 0 199.5 -69.5t60.5 -167.5q-15 -97 -113.5 -166t-221.5 -69q-124 0 -200.5 69t-61.5 166v1h159v-1q-7 -45 29 -77.5t94 -32.5q57 0 103 32.5t53 77.5t-28 76.5t-94 33.5h-25h-35.5h-41.5h-44.5h-44.5h-41h-33.5h-23.5h-8h-2l36 224l20 125h597
l-20 -125h-438z" />
    <glyph glyph-name="six" unicode="6" horiz-adv-x="641"
d="M410 569q-41 0 -75 -24t-39 -57l-15 -96q53 16 104 16q110 0 176 -61q63 -60 50 -143q-13 -85 -98.5 -144.5t-192.5 -59.5t-173 59.5t-53 144.5l45 284q13 85 98.5 144.5t192.5 59.5t173 -59.5t53 -144.5h-156q5 33 -21 57t-69 24zM365 284q-42 0 -75.5 -23.5
t-38.5 -56.5q-5 -32 21.5 -56t67.5 -24q43 0 76.5 23.5t38.5 56.5q5 34 -21 57t-69 23z" />
    <glyph glyph-name="seven" unicode="7" horiz-adv-x="795"
d="M843 693l-599 -694h-182l2 1l488 568h-398l20 125h669z" />
    <glyph glyph-name="eight" unicode="8" horiz-adv-x="641"
d="M430 692q107 0 173 -59.5t53 -144.5q-13 -83 -95 -141q63 -60 50 -143q-13 -85 -98.5 -144.5t-192.5 -59.5t-173 59.5t-53 144.5q13 84 97 143q-65 59 -52 141q13 85 98.5 144.5t192.5 59.5zM410 569q-41 0 -75 -24t-39 -57t21.5 -56.5t67.5 -23.5q43 0 76.5 23.5
t38.5 56.5t-21 57t-69 24zM340 124q43 0 76.5 23.5t38.5 56.5q5 34 -21 57t-69 23q-42 0 -75.5 -23.5t-38.5 -56.5q-5 -32 21.5 -56t67.5 -24z" />
    <glyph glyph-name="nine" unicode="9" horiz-adv-x="641"
d="M430 692q107 0 173 -59.5t53 -144.5l-45 -284q-13 -85 -98.5 -144.5t-192.5 -59.5t-173 59.5t-53 144.5h157q-5 -32 21.5 -56t67.5 -24q43 0 76.5 23.5t38.5 56.5l16 96q-54 -16 -106 -16q-108 0 -174 63q-65 59 -52 141q13 85 98.5 144.5t192.5 59.5zM385 408
q43 0 76.5 23.5t38.5 56.5t-21 57t-69 24q-41 0 -75 -24t-39 -57t21.5 -56.5t67.5 -23.5z" />
    <glyph glyph-name="colon" unicode=":" horiz-adv-x="354"
d="M155 461q-6 -39 14 -68t67 -29q46 0 75.5 29t35.5 68t-14.5 68t-66.5 29q-47 0 -76 -29t-35 -68zM176 -13q46 0 75.5 29t35.5 68q7 39 -13.5 68t-66.5 29q-47 0 -76 -29t-36 -68q-6 -39 14 -68t67 -29z" />
    <glyph glyph-name="semicolon" unicode=";" horiz-adv-x="354"
d="M266 558q-47 0 -76 -29t-35 -68t14 -68t67 -29q46 0 75.5 29t35.5 68t-14.5 68t-66.5 29zM207 181q-47 0 -76 -29t-36 -68q-9 -64 39 -88q-25 -49 -50 -72l-9 -9l52 -61l12 8q12 7 40 30q91 78 106 179q7 44 -9 77t-69 33z" />
    <glyph glyph-name="less" unicode="&#x3c;" horiz-adv-x="610"
d="M138 279l393 -180l23 150l-243 94l273 95l23 146l-449 -180z" />
    <glyph glyph-name="equal" unicode="=" horiz-adv-x="714"
d="M703 532h-525l-22 -143h525zM115 134h525l23 143h-525z" />
    <glyph glyph-name="greater" unicode="&#x3e;" horiz-adv-x="610"
d="M133 249l-23 -150l449 180l20 125l-393 180l-23 -146l244 -95z" />
    <glyph glyph-name="question" unicode="?" horiz-adv-x="748"
d="M759 464q10 60 -9 103.5t-61 67t-93 34t-113 10.5q-57 0 -113 -12.5t-106 -37.5t-85 -68.5t-44 -99.5l-2 -14h155l2 14q5 38 63 59q47 16 107 16q67 0 102 -13q49 -18 42 -59q-4 -33 -61 -46q-22 -5 -55 -7h-48h-78l-12 -78q-6 -33 10 -100l2 -9h96l6 9q9 16 19 37
q55 4 98.5 14.5t82 31.5t63 58.5t32.5 89.5zM483 84q7 39 -13 68t-66 29q-47 0 -76 -28.5t-36 -68.5q-6 -40 14 -68.5t67 -28.5t75.5 29t34.5 68z" />
    <glyph glyph-name="at" unicode="@" horiz-adv-x="1010"
d="M720 298q26 29 34 75q12 79 -27.5 135.5t-130.5 56.5t-148.5 -56.5t-69.5 -135.5q-12 -80 26.5 -137t128.5 -57h133q126 0 210 70t102 180q26 161 -69.5 261.5t-279.5 100.5q-100 0 -184.5 -35t-142 -94t-94 -133t-49.5 -156q-29 -184 75 -302t312 -118q124 0 215 49
q25 12 31 18l8 7l-43 101l-14 -9q-63 -39 -178 -39q-144 0 -214 82t-49 211q12 77 49 141.5t105 107.5t154 43q118 0 179 -66t44 -170q-8 -49 -37 -84.5t-76 -46.5zM519 373q4 25 19.5 43t37.5 18t31 -17.5t5 -43.5q-4 -27 -19 -45t-37 -18t-31.5 18.5t-5.5 44.5z" />
    <glyph glyph-name="A" unicode="A" horiz-adv-x="888"
d="M826 0l-179 -2l-38 101q-74 -34 -150 -34q-88 0 -147 35l-70 -101v-1l-180 2l492 693zM479 187q43 0 90 22l-64 173l-116 -169q40 -26 90 -26z" />
    <glyph glyph-name="B" unicode="B"
d="M582 693q107 0 173.5 -60t53.5 -145q-13 -82 -95 -141q63 -63 50 -143q-14 -85 -99.5 -145t-192.5 -60h-410l110 694h410zM650 488q5 32 -21 56t-67 24h-251l-25 -159h251h5q39 2 71.5 25t36.5 54zM241 124h251q41 0 74.5 24t38.5 56t-19.5 55.5t-63.5 23.5h-5h-251z" />
    <glyph glyph-name="C" unicode="C" horiz-adv-x="875"
d="M579 568q-118 0 -209 -65q-93 -65 -107 -156q-15 -91 57 -157q72 -65 194.5 -65t215.5 65h1l98 -89h-1q-142 -102 -326 -102q-183 0 -294 102q-114 99 -91 246q24 146 169 244q142 102 326 102q183 0 294 -102h1l-126 -89l-1 1q-34 31 -89 48t-112 17z" />
    <glyph glyph-name="D" unicode="D" horiz-adv-x="850"
d="M457 693q184 0 295 -102q114 -103 91 -244q-23 -144 -169 -246q-142 -102 -327 -102h-285l110 694h285zM311 568l-70 -444h126q117 0 209 65t107 158q14 92 -57.5 156.5t-188.5 64.5h-126z" />
    <glyph glyph-name="E" unicode="E"
d="M842 693l-20 -125h-511l-33 -208h264l-20 -127h-264l-17 -109h511l-20 -125h-670l110 694h670z" />
    <glyph glyph-name="F" unicode="F"
d="M842 693l-20 -125h-511l-33 -208h264l-20 -127h-264l-37 -233l-159 -1l110 694h670z" />
    <glyph glyph-name="G" unicode="G" horiz-adv-x="895"
d="M736 221h-196l20 126h328l-36 -228q-151 -120 -350 -120q-183 0 -294 102q-114 99 -91 246q24 146 169 244q142 102 326 102q183 0 294 -102h1l-126 -89l-1 1q-34 31 -89 48t-112 17q-118 0 -209 -65q-93 -65 -107 -156q-15 -91 57 -157q72 -65 194.5 -65t215.5 65h1z
" />
    <glyph glyph-name="H" unicode="H"
d="M683 693h159l-110 -694h-159l24 151h-352l-24 -151h-159l110 694h159l-66 -417h352z" />
    <glyph glyph-name="I" unicode="I" horiz-adv-x="283"
d="M62 -1l110 694h159l-110 -694h-159z" />
    <glyph glyph-name="J" unicode="J"
d="M683 693h159l-68 -430q-17 -109 -127.5 -186.5t-249.5 -77.5q-138 0 -224 77.5t-69 186.5v1h159v-1q-9 -57 36.5 -98t117.5 -41q73 0 131 41t67 98z" />
    <glyph glyph-name="K" unicode="K" horiz-adv-x="795"
d="M843 693l-390 -346l280 -348h-200v1l-197 243l-89 -80l-26 -164h-157l-2 -1l110 695h159l-51 -322l363 322h200z" />
    <glyph glyph-name="L" unicode="L"
d="M241 124h511l-20 -125h-670l110 694h159z" />
    <glyph glyph-name="M" unicode="M" horiz-adv-x="951"
d="M999 694l-110 -695h-159l62 395l-286 -197l-223 197l-62 -395h-159l110 695l362 -321z" />
    <glyph glyph-name="N" unicode="N"
d="M683 693h159l-110 -695l-449 396l-62 -395h-159l110 695l139 -124l309 -272z" />
    <glyph glyph-name="O" unicode="O" horiz-adv-x="1004"
d="M612 693q183 0 294 -102q114 -102 91 -244q-23 -145 -169 -246q-142 -102 -326 -102q-183 0 -294 102q-114 99 -91 246q24 146 169 244q142 102 326 102zM837 347q14 92 -57.5 156.5t-187.5 64.5t-209 -65t-107 -156q-15 -93 57 -158t189 -65q116 0 208 65t107 158z" />
    <glyph glyph-name="P" unicode="P"
d="M221 -1h-159l110 694h347q134 0 217 -74t66 -179q-17 -106 -123.5 -180.5t-240.5 -74.5h-188zM643 440q8 53 -34 90.5t-110 37.5h-188l-41 -257h188q68 0 122 38t63 91z" />
    <glyph glyph-name="Q" unicode="Q" horiz-adv-x="1054"
d="M992 -3h-1q-113 14 -199 81q-131 -79 -290 -79q-183 0 -294 102q-114 99 -91 246q24 146 169 244q142 102 326 102q183 0 294 -102q114 -102 91 -244q-15 -95 -90 -178q44 -25 90 -29l1 -1zM276 347q-15 -93 57 -158t189 -65q95 0 180 48q-58 80 -75 178h136
q15 -50 40 -87q26 36 34 84q14 92 -57.5 156.5t-187.5 64.5t-209 -65t-107 -156z" />
    <glyph glyph-name="R" unicode="R"
d="M627 229q14 -27 25 -41q31 -37 81 -49l-22 -139q-116 9 -180 85q-34 41 -48 102q-30 -2 -45 -2h-188l-29 -186h-159l110 694h347q134 0 217 -74t66 -179q-10 -65 -57 -120.5t-118 -90.5zM270 311h188q68 0 122 38t63 91q8 53 -34 90.5t-110 37.5h-188z" />
    <glyph glyph-name="S" unicode="S" horiz-adv-x="644"
d="M431 693q107 0 174 -60t54 -145v-1h-159v1q5 33 -21 56.5t-68 23.5q-41 0 -74.5 -24t-38.5 -56q-5 -33 21 -56t67 -23q107 0 174 -60t54 -145t-99.5 -145t-193.5 -60t-173.5 60t-53.5 145v1h159v-1q-5 -32 21 -56t67 -24q42 0 75.5 23.5t38.5 56.5t-20.5 56t-68.5 23
q-107 0 -173.5 60t-53.5 145q14 85 99.5 145t192.5 60z" />
    <glyph glyph-name="T" unicode="T"
d="M842 693l-20 -125h-255l-90 -569h-160l90 569h-255l20 125h670z" />
    <glyph glyph-name="U" unicode="U"
d="M397 -1q-138 0 -224 77.5t-69 186.5l68 430h159l-68 -430q-9 -57 36.5 -98t117.5 -41q73 0 131 41t67 98l68 430h159l-68 -430q-17 -109 -127.5 -186.5t-249.5 -77.5z" />
    <glyph glyph-name="V" unicode="V"
d="M671 693h171l-445 -695l-225 695h171v-1l110 -340z" />
    <glyph glyph-name="W" unicode="W" horiz-adv-x="1125"
d="M1002 693h171l-445 -695l-57 176l-55 167l-106 -167l-58 -89l-55 -87l-225 695h171v-1l110 -340l107 166l112 176l58 -176l54 -166z" />
    <glyph glyph-name="X" unicode="X" horiz-adv-x="795"
d="M843 692l-299 -345l189 -348h-182v1l-119 217l-188 -218h-182l2 1l298 347l-190 346h184l117 -218l188 218h182v-1z" />
    <glyph glyph-name="Y" unicode="Y"
d="M669 693h173l-319 -448l-10 -15l-36 -231h-160l37 235l-182 459h175v-1l114 -290z" />
    <glyph glyph-name="Z" unicode="Z" horiz-adv-x="795"
d="M62 -1l2 1l488 568h-398l20 125h669v-1l-489 -568h398l-20 -125h-670z" />
    <glyph glyph-name="bracketleft" unicode="[" horiz-adv-x="398"
d="M220 794l-146 -922h247l22 142h-92l101 637h92l23 143h-247z" />
    <glyph glyph-name="backslash" unicode="\" horiz-adv-x="610"
d="M555 -31l-256 793l-139 -65l258 -793z" />
    <glyph glyph-name="bracketright" unicode="]" horiz-adv-x="398"
d="M284 -128l146 922h-247l-23 -143h93l-102 -637h-92l-21 -142h246z" />
    <glyph glyph-name="asciicircum" unicode="^" horiz-adv-x="590"
d="M335 667l-246 -411h155l132 249l56 -249h151l-117 411h-131z" />
    <glyph glyph-name="underscore" unicode="_" horiz-adv-x="652"
d="M560 21h-463l-22 -142h463z" />
    <glyph glyph-name="a" unicode="a" horiz-adv-x="888"
d="M826 0l-179 -2l-38 101q-74 -34 -150 -34q-88 0 -147 35l-70 -101v-1l-180 2l492 693zM479 187q43 0 90 22l-64 173l-116 -169q40 -26 90 -26z" />
    <glyph glyph-name="b" unicode="b"
d="M582 693q107 0 173.5 -60t53.5 -145q-13 -82 -95 -141q63 -63 50 -143q-14 -85 -99.5 -145t-192.5 -60h-410l110 694h410zM650 488q5 32 -21 56t-67 24h-251l-25 -159h251h5q39 2 71.5 25t36.5 54zM241 124h251q41 0 74.5 24t38.5 56t-19.5 55.5t-63.5 23.5h-5h-251z" />
    <glyph glyph-name="c" unicode="c" horiz-adv-x="875"
d="M579 568q-118 0 -209 -65q-93 -65 -107 -156q-15 -91 57 -157q72 -65 194.5 -65t215.5 65h1l98 -89h-1q-142 -102 -326 -102q-183 0 -294 102q-114 99 -91 246q24 146 169 244q142 102 326 102q183 0 294 -102h1l-126 -89l-1 1q-34 31 -89 48t-112 17z" />
    <glyph glyph-name="d" unicode="d" horiz-adv-x="850"
d="M457 693q184 0 295 -102q114 -103 91 -244q-23 -144 -169 -246q-142 -102 -327 -102h-285l110 694h285zM311 568l-70 -444h126q117 0 209 65t107 158q14 92 -57.5 156.5t-188.5 64.5h-126z" />
    <glyph glyph-name="e" unicode="e"
d="M842 693l-20 -125h-511l-33 -208h264l-20 -127h-264l-17 -109h511l-20 -125h-670l110 694h670z" />
    <glyph glyph-name="f" unicode="f"
d="M842 693l-20 -125h-511l-33 -208h264l-20 -127h-264l-37 -233l-159 -1l110 694h670z" />
    <glyph glyph-name="g" unicode="g" horiz-adv-x="895"
d="M736 221h-196l20 126h328l-36 -228q-151 -120 -350 -120q-183 0 -294 102q-114 99 -91 246q24 146 169 244q142 102 326 102q183 0 294 -102h1l-126 -89l-1 1q-34 31 -89 48t-112 17q-118 0 -209 -65q-93 -65 -107 -156q-15 -91 57 -157q72 -65 194.5 -65t215.5 65h1z
" />
    <glyph glyph-name="h" unicode="h"
d="M683 693h159l-110 -694h-159l24 151h-352l-24 -151h-159l110 694h159l-66 -417h352z" />
    <glyph glyph-name="i" unicode="i" horiz-adv-x="283"
d="M62 -1l110 694h159l-110 -694h-159z" />
    <glyph glyph-name="j" unicode="j"
d="M683 693h159l-68 -430q-17 -109 -127.5 -186.5t-249.5 -77.5q-138 0 -224 77.5t-69 186.5v1h159v-1q-9 -57 36.5 -98t117.5 -41q73 0 131 41t67 98z" />
    <glyph glyph-name="k" unicode="k" horiz-adv-x="795"
d="M843 693l-390 -346l280 -348h-200v1l-197 243l-89 -80l-26 -164h-157l-2 -1l110 695h159l-51 -322l363 322h200z" />
    <glyph glyph-name="l" unicode="l"
d="M241 124h511l-20 -125h-670l110 694h159z" />
    <glyph glyph-name="m" unicode="m" horiz-adv-x="951"
d="M999 694l-110 -695h-159l62 395l-286 -197l-223 197l-62 -395h-159l110 695l362 -321z" />
    <glyph glyph-name="n" unicode="n"
d="M683 693h159l-110 -695l-449 396l-62 -395h-159l110 695l139 -124l309 -272z" />
    <glyph glyph-name="o" unicode="o" horiz-adv-x="1004"
d="M612 693q183 0 294 -102q114 -102 91 -244q-23 -145 -169 -246q-142 -102 -326 -102q-183 0 -294 102q-114 99 -91 246q24 146 169 244q142 102 326 102zM837 347q14 92 -57.5 156.5t-187.5 64.5t-209 -65t-107 -156q-15 -93 57 -158t189 -65q116 0 208 65t107 158z" />
    <glyph glyph-name="p" unicode="p"
d="M221 -1h-159l110 694h347q134 0 217 -74t66 -179q-17 -106 -123.5 -180.5t-240.5 -74.5h-188zM643 440q8 53 -34 90.5t-110 37.5h-188l-41 -257h188q68 0 122 38t63 91z" />
    <glyph glyph-name="q" unicode="q" horiz-adv-x="1054"
d="M992 -3h-1q-113 14 -199 81q-131 -79 -290 -79q-183 0 -294 102q-114 99 -91 246q24 146 169 244q142 102 326 102q183 0 294 -102q114 -102 91 -244q-15 -95 -90 -178q44 -25 90 -29l1 -1zM276 347q-15 -93 57 -158t189 -65q95 0 180 48q-58 80 -75 178h136
q15 -50 40 -87q26 36 34 84q14 92 -57.5 156.5t-187.5 64.5t-209 -65t-107 -156z" />
    <glyph glyph-name="r" unicode="r"
d="M627 229q14 -27 25 -41q31 -37 81 -49l-22 -139q-116 9 -180 85q-34 41 -48 102q-30 -2 -45 -2h-188l-29 -186h-159l110 694h347q134 0 217 -74t66 -179q-10 -65 -57 -120.5t-118 -90.5zM270 311h188q68 0 122 38t63 91q8 53 -34 90.5t-110 37.5h-188z" />
    <glyph glyph-name="s" unicode="s" horiz-adv-x="644"
d="M431 693q107 0 174 -60t54 -145v-1h-159v1q5 33 -21 56.5t-68 23.5q-41 0 -74.5 -24t-38.5 -56q-5 -33 21 -56t67 -23q107 0 174 -60t54 -145t-99.5 -145t-193.5 -60t-173.5 60t-53.5 145v1h159v-1q-5 -32 21 -56t67 -24q42 0 75.5 23.5t38.5 56.5t-20.5 56t-68.5 23
q-107 0 -173.5 60t-53.5 145q14 85 99.5 145t192.5 60z" />
    <glyph glyph-name="t" unicode="t"
d="M842 693l-20 -125h-255l-90 -569h-160l90 569h-255l20 125h670z" />
    <glyph glyph-name="u" unicode="u"
d="M397 -1q-138 0 -224 77.5t-69 186.5l68 430h159l-68 -430q-9 -57 36.5 -98t117.5 -41q73 0 131 41t67 98l68 430h159l-68 -430q-17 -109 -127.5 -186.5t-249.5 -77.5z" />
    <glyph glyph-name="v" unicode="v"
d="M671 693h171l-445 -695l-225 695h171v-1l110 -340z" />
    <glyph glyph-name="w" unicode="w" horiz-adv-x="1125"
d="M1002 693h171l-445 -695l-57 176l-55 167l-106 -167l-58 -89l-55 -87l-225 695h171v-1l110 -340l107 166l112 176l58 -176l54 -166z" />
    <glyph glyph-name="x" unicode="x" horiz-adv-x="795"
d="M843 692l-299 -345l189 -348h-182v1l-119 217l-188 -218h-182l2 1l298 347l-190 346h184l117 -218l188 218h182v-1z" />
    <glyph glyph-name="y" unicode="y"
d="M669 693h173l-319 -448l-10 -15l-36 -231h-160l37 235l-182 459h175v-1l114 -290z" />
    <glyph glyph-name="z" unicode="z" horiz-adv-x="795"
d="M62 -1l2 1l488 568h-398l20 125h669v-1l-489 -568h398l-20 -125h-670z" />
    <glyph glyph-name="braceleft" unicode="{" horiz-adv-x="429"
d="M474 651l23 143h-46q-97 0 -158.5 -60.5t-75.5 -144.5l-21 -135q-4 -22 -18.5 -36t-35.5 -14h-47l-23 -142h47q21 0 31.5 -14t7.5 -36l-22 -134q-13 -85 29.5 -145.5t139.5 -60.5h46l22 142h-46q-21 0 -31.5 12t-7.5 33l20 127q16 95 -39 147q71 52 86 147l20 126
q3 21 17 33t36 12h46z" />
    <glyph glyph-name="bar" unicode="|" horiz-adv-x="343"
d="M375 795l-155 -2l-146 -921h155z" />
    <glyph glyph-name="braceright" unicode="}" horiz-adv-x="426"
d="M183 794l-23 -143h46q45 0 39 -45l-20 -126q-14 -94 42 -147q-73 -53 -89 -147l-20 -127q-3 -20 -17 -32.5t-36 -12.5h-46l-22 -142h46q97 0 158.5 60.5t74.5 145.5l22 134q3 22 17.5 36t35.5 14h46l23 142h-46q-21 0 -31.5 14t-6.5 36l21 135q14 84 -28.5 144.5
t-139.5 60.5h-46z" />
    <glyph glyph-name="uni00A0" unicode="&#xa0;" horiz-adv-x="326"
 />
    <glyph glyph-name="cent" unicode="&#xa2;" horiz-adv-x="749"
d="M497 153l57 361q71 -38 76 -126l1 -11h163v15q0 102 -55 179.5t-160 100.5l20 122l-155 -2l-19 -122q-128 -28 -209.5 -124t-100.5 -213q-12 -75 4.5 -143t67.5 -121.5t131 -72.5l-19 -125h154l19 123q112 22 191.5 99.5t111.5 179.5l5 16h-163l-4 -11q-36 -90 -116 -125
zM344 155q-43 26 -59.5 74t-7.5 104t40.5 104t82.5 73z" />
    <glyph glyph-name="copyright" unicode="&#xa9;" horiz-adv-x="835"
d="M418 686q103 0 186 -51.5t126 -130.5t43 -166t-43 -166t-126 -130.5t-186 -51.5q-155 0 -255.5 106t-100.5 242t100.5 242t255.5 106zM418 47q126 0 210 88t84 203t-84 203t-210 88t-210.5 -88t-84.5 -203t84.5 -203t210.5 -88zM312 338q0 -39 32 -69q32 -29 84.5 -33
t85.5 24l63 -52q-61 -56 -146 -56q-81 0 -145 56q-61 53 -61 130q0 74 61 130q60 55 145 55t146 -55l-56 -50q-28 22 -64.5 27t-68.5 -6t-54 -38t-22 -63z" />
    <glyph glyph-name="guillemotleft" unicode="&#xab;" horiz-adv-x="546"
d="M263 541l-160 -191l99 -191h135l-89 191l149 191h-134zM449 541l-160 -191l99 -191h135l-89 191l150 191h-135z" />
    <glyph glyph-name="registered" unicode="&#xae;" horiz-adv-x="846"
d="M62 338q0 -89 44 -169t128.5 -132t189.5 -52q156 0 258 107.5t102 245.5t-102 245.5t-258 107.5q-105 0 -189.5 -52t-128.5 -132t-44 -169zM627 132q-87 -84 -204 -84q-125 0 -208.5 88t-83.5 202t83.5 202t208.5 88q126 0 209 -87.5t83 -202.5q0 -104 -70 -188zM518 280
l14 -19q19 -17 42 -22v-65q-56 5 -91 40q-20 20 -29 47q-3 0 -10 -0.5t-12 -0.5h-87v-87h-74v325h161q63 0 107 -35t44 -83q0 -64 -65 -100zM345 319h87q33 0 55.5 17.5t22.5 43.5q0 24 -22.5 41.5t-55.5 17.5h-87v-120z" />
    <glyph glyph-name="degree" unicode="&#xb0;" horiz-adv-x="570"
d="M582 461q14 92 -34.5 155t-153.5 63q-104 0 -174.5 -63.5t-84.5 -154.5q-14 -92 35 -155t154 -63q104 0 174 63.5t84 154.5zM427 461q-5 -33 -26.5 -54.5t-53.5 -21.5q-33 0 -47.5 21.5t-9.5 54.5t27 54t54 21t46.5 -21t9.5 -54z" />
    <glyph glyph-name="guillemotright" unicode="&#xbb;" horiz-adv-x="546"
d="M208 159l159 191l-98 191h-135l88 -191l-149 -191h135zM394 159l159 191l-98 191h-134l87 -191l-149 -191h135z" />
    <glyph glyph-name="multiply" unicode="&#xd7;" horiz-adv-x="698"
d="M642 163l-137 170l191 170l-86 107l-191 -170l-137 170l-120 -107l136 -170l-190 -168l86 -108l191 169l137 -169z" />
    <glyph glyph-name="divide" unicode="&#xf7;" horiz-adv-x="714"
d="M529 524q6 35 -14 63t-62 28q-41 0 -69 -28t-34 -63q-6 -34 14 -62t61 -28q42 0 70 27.5t34 62.5zM135 262h525l23 142h-525zM468 141q6 35 -13.5 63t-61.5 28q-41 0 -69.5 -28t-34.5 -63q-5 -34 14.5 -62t60.5 -28q42 0 70.5 28t33.5 62z" />
    <glyph glyph-name="endash" unicode="&#x2013;" horiz-adv-x="1021"
d="M991 404h-833l-23 -142h833z" />
    <glyph glyph-name="emdash" unicode="&#x2014;" horiz-adv-x="1268"
d="M1238 404h-1080l-23 -142h1080z" />
    <glyph glyph-name="quoteleft" unicode="&#x2018;" horiz-adv-x="318"
d="M215 357q47 0 75.5 29t35.5 68q9 64 -39 88q25 49 50 72l10 9l-53 61l-12 -8q-14 -9 -40 -30q-89 -77 -106 -179q-7 -41 11.5 -75.5t67.5 -34.5z" />
    <glyph glyph-name="quoteright" unicode="&#x2019;" horiz-adv-x="318"
d="M266 679q-46 0 -75.5 -29t-36.5 -68q-9 -64 40 -88q-23 -47 -50 -72l-10 -10l52 -59l13 7q21 13 40 31q90 79 105 178q7 41 -10.5 75.5t-67.5 34.5z" />
    <glyph glyph-name="quotesinglbase" unicode="&#x201a;" horiz-adv-x="318"
d="M206 302q-46 0 -75.5 -28.5t-35.5 -67.5q-11 -63 40 -89q-23 -45 -51 -71l-9 -9l51 -61l13 7q17 10 40 31q90 79 106 179q3 25 -1 48t-24 42t-54 19z" />
    <glyph glyph-name="quotedblleft" unicode="&#x201c;" horiz-adv-x="564"
d="M215 357q47 0 75.5 29t35.5 68q9 64 -39 88q25 49 50 72l10 9l-53 61l-12 -8q-14 -9 -40 -30q-89 -77 -106 -179q-7 -41 11.5 -75.5t67.5 -34.5zM462 357q47 0 75.5 29t35.5 68q9 64 -39 88q26 51 50 72l10 9l-52 61l-13 -8q-18 -11 -40 -30q-90 -79 -106 -179
q-7 -41 11.5 -75.5t67.5 -34.5z" />
    <glyph glyph-name="quotedblright" unicode="&#x201d;" horiz-adv-x="564"
d="M266 679q-46 0 -75.5 -29t-36.5 -68q-9 -64 40 -88q-23 -47 -50 -72l-10 -10l52 -59l13 7q21 13 40 31q90 79 105 178q7 41 -11 75.5t-67 34.5zM513 679q-46 0 -75.5 -29t-36.5 -68q-9 -64 40 -88q-23 -46 -50 -73l-10 -9l53 -59l12 7q21 13 40 31q90 79 105 178
q7 41 -11 75.5t-67 34.5z" />
    <glyph glyph-name="quotedblbase" unicode="&#x201e;" horiz-adv-x="564"
d="M206 302q-46 0 -75.5 -28.5t-35.5 -67.5q-11 -63 40 -89q-23 -45 -51 -71l-9 -9l51 -61l13 7q17 10 40 31q90 79 106 179q6 41 -12 75t-67 34zM453 302q-46 0 -75.5 -28.5t-35.5 -67.5q-11 -64 40 -89q-23 -45 -51 -71l-9 -10l51 -60l13 7q17 10 40 31q90 79 106 179
q6 41 -12 75t-67 34z" />
    <glyph glyph-name="bullet" unicode="&#x2022;" horiz-adv-x="404"
d="M277 475q-68 0 -110.5 -42t-51.5 -100t20 -99.5t97 -41.5q67 0 110 42t52 99q9 58 -20.5 100t-96.5 42z" />
    <glyph glyph-name="ellipsis" unicode="&#x2026;" horiz-adv-x="924"
d="M267 84q7 39 -13 68t-67 29q-46 0 -75.5 -29t-36.5 -68q-6 -39 14.5 -68t66.5 -29q47 0 76 29t35 68zM460 -13q47 0 76.5 28.5t35.5 68.5q7 40 -13.5 68.5t-67.5 28.5q-46 0 -76 -29t-37 -68q-6 -40 14.5 -68.5t67.5 -28.5zM875 84q7 39 -13.5 68t-66.5 29t-75.5 -29
t-36.5 -68q-6 -39 14 -68t67 -29t76 29t35 68z" />
    <glyph glyph-name="guilsinglleft" unicode="&#x2039;" horiz-adv-x="359"
d="M263 541l-160 -191l99 -191h135l-89 191l149 191h-134z" />
    <glyph glyph-name="guilsinglright" unicode="&#x203a;" horiz-adv-x="359"
d="M208 159l159 191l-98 191h-135l88 -191l-149 -191h135z" />
    <glyph glyph-name="Euro" unicode="&#x20ac;" horiz-adv-x="751"
d="M537 679q-133 0 -233.5 -79t-140.5 -196h-68l-23 -142h68q3 -117 78.5 -196t208.5 -79q81 0 155.5 32.5t129.5 92.5l9 10l-106 102l-12 -14q-62 -74 -152 -74q-60 0 -98.5 35.5t-47.5 90.5h292l23 142h-292q27 56 75.5 91t109.5 35q90 0 129 -74l8 -15l138 103l-6 10
q-36 60 -100 92.5t-145 32.5z" />
    <glyph glyph-name="trademark" unicode="&#x2122;" horiz-adv-x="814"
d="M679 614l73 56v-321h-73v182l-65 -49l-52 -41l-51 41l-65 49v-182h-73v260h-115v-260h-72v260h-117v58h304v3l73 -56l116 -92z" />
    <glyph glyph-name="minus" unicode="&#x2212;" horiz-adv-x="714"
d="M683 404h-525l-23 -142h525z" />
    <glyph glyph-name="_FSHallmark" horiz-adv-x="778"
d="M41 561v82h698v-82h-698zM589 170q-31 0 -58 7q-24 7 -49 24q-19 13 -35 39q-13 22 -13 55l81 -1q0 -5 4 -13q1 -11 12 -22q13 -11 21 -14q16 -8 39 -8q29 0 45 9q17 9 17 23q0 24 -67 38q-67 18 -102 38q-42 20 -42 69q0 38 28 63q22 20 61 33q31 7 58 7q44 0 78 -15
q38 -16 56 -56q10 -23 10 -40h-84q0 7 -7 18q-5 8 -15 15q-11 5 -20 8q-10 3 -20 3q-19 0 -41 -11q-16 -10 -16 -24q0 -25 16 -34q18 -10 36 -14l31 -8l25 -5q16 -6 25 -6q17 -4 20 -6q16 -7 18 -8q17 -10 26 -24q9 -13 11 -36q1 -21 -9 -42q-19 -37 -62 -50
q-39 -12 -78 -12zM41 170v346h294v-78h-202v-79h168v-77h-168v-112h-92zM369 171q-15 0 -28 13q-15 12 -15 27q0 16 13 31q11 10 30 10q18 0 33 -12q14 -11 14 -29q0 -17 -14 -29q-16 -11 -33 -11zM39 43v83h699v-83h-699z" />
    <glyph glyph-name="_Fontastica" horiz-adv-x="604"
d="M40 129q-1 1 -1 4v507h380v-78h-293v-208h293v-79h-293v-146h-86zM182 130v78h293v209h-293v78h293v145h87v-510h-380zM482 47l-15 5q-6 8 -7 17q0 9 6 17q10 8 16 8q8 0 20 -8l-4 -7l-5 4q-1 1 -7 1h-4l-3 -2q-3 -1 -4 -3q-5 -3 -5 -7q0 -7 4 -11q5 -5 8 -5q8 0 16 5
l4 -5q-7 -9 -20 -9zM40 49v43h32v-8h-21v-11h20v-7h-20v-17h-11zM111 46q-6 0 -9 3q-13 4 -13 19q0 12 5 18q6 6 18 6q15 0 22 -11q6 -9 1 -20q-3 -11 -19 -14zM190 47q-1 0 -6 5l-6 6q0 2 -2 4q-2 1 -2 2l-8 11v-26h-10v43h8q4 -1 5 -6q1 -1 4 -5t5 -6q5 -5 9 -13v30h10
v-43h-3q-3 -2 -4 -2zM229 49v35h-15v8h37v-8h-13v-35h-9zM343 47q-12 0 -19 7v2l1 2l1 3l15 -5h5l4 2q0 7 -10 10q-2 0 -2 1h-4q-8 3 -8 10q-2 8 7 11q4 2 9 2q10 0 18 -3l-3 -8l-3 1h-3q-1 1 -3 1q-1 0 -2 1h-5q-3 0 -3 -2q-1 -1 3 -7l10 -3q9 0 9 -11q2 -9 -8 -12
q-1 -2 -9 -2zM389 49v35h-15v8h39v-8h-14v-35h-10zM430 49v43h12v-43h-12zM516 49q11 19 18 43h12l9 -20q2 -8 5 -14q1 -1 2 -4.5t3 -4.5h-10l-5 9h-20l-4 -9h-10zM262 49l18 41h10q0 -2 5 -9q3 -5 5 -10q1 -2 4 -13q0 -1 4 -9h-10q-1 1 -1 3l-2 6h-21v-6v-1l-4 -2h-8z
M112 56h4q8 3 8 13v2q0 9 -3 10q-5 3 -10 3q-1 -1 -4 -1l-3 -3q-2 -3 -4 -5q-6 -3 -2 -9q4 -10 14 -10zM277 66h15l-2 3q-2 4 -3 4q-1 1 -1 5q0 3 -1 4zM533 66h14l-1 3q0 2 -2 4q-2 1 -2 5q0 3 -2 4z" />
    </font>
</defs>
</svg>
