<?xml version="1.0" standalone="no"?>
<!DOCTYPE svg PUBLIC "-//W3C//DTD SVG 1.1//EN" "http://www.w3.org/Graphics/SVG/1.1/DTD/svg11.dtd" >
<svg xmlns="http://www.w3.org/2000/svg" xmlns:xlink="http://www.w3.org/1999/xlink" version="1.1">
<metadata>
Created by FontForge 20170731 at Sun Nov 17 14:35:10 2019
 By Aleksey,,,
Copyright (c) 2019 by Fontastica. All rights reserved.
</metadata>
<defs>
<font id="Hanover-ThinItalic" horiz-adv-x="743" >
  <font-face 
    font-family="Hanover Thin Italic"
    font-weight="100"
    font-style="italic"
    font-stretch="normal"
    units-per-em="1000"
    panose-1="0 0 2 0 0 0 0 0 0 0"
    ascent="800"
    descent="-200"
    x-height="673"
    cap-height="673"
    bbox="27 -134 1187 784"
    underline-thickness="50"
    underline-position="-200"
    unicode-range="U+000D-2212"
  />
<missing-glyph horiz-adv-x="529" 
d="M50 0l88 554h429l-88 -554h-429zM536 539h-373l148 -245zM540 517l-219 -240l143 -240zM77 39l219 238l-143 238zM454 17l-148 243l-224 -243h372z" />
    <glyph glyph-name=".notdef" horiz-adv-x="529" 
d="M50 0l88 554h429l-88 -554h-429zM536 539h-373l148 -245zM540 517l-219 -240l143 -240zM77 39l219 238l-143 238zM454 17l-148 243l-224 -243h372z" />
    <glyph glyph-name=".null" horiz-adv-x="0" 
 />
    <glyph glyph-name="nonmarkingreturn" horiz-adv-x="333" 
 />
    <glyph glyph-name="CR" unicode="&#xd;" horiz-adv-x="0" 
 />
    <glyph glyph-name="space" unicode=" " horiz-adv-x="326" 
 />
    <glyph glyph-name="exclam" unicode="!" horiz-adv-x="280" 
d="M254 531l17 103h-60l-16 -103q-21 -131 -23 -276h18q44 145 64 276zM157 102q-49 0 -57 -53q-9 -53 40 -53q23 0 38.5 14t19.5 39q8 53 -41 53z" />
    <glyph glyph-name="quotedbl" unicode="&#x22;" horiz-adv-x="435" 
d="M252 634h-60l-10 -68q-11 -66 -5 -136h27q26 64 37 136zM370 430h26q26 61 39 136l11 68h-60l-11 -68q-11 -71 -5 -136z" />
    <glyph glyph-name="numbersign" unicode="#" horiz-adv-x="785" 
d="M212 10l52 154h224l-52 -154h47l54 154h119l5 37h-112l83 243h119l6 36h-112l52 154h-47l-54 -154h-223l53 154h-48l-53 -154h-119l-5 -36h112l-83 -243h-119l-6 -37h112l-53 -154h48zM501 201h-225l85 243h223z" />
    <glyph glyph-name="dollar" unicode="$" horiz-adv-x="691" 
d="M621 500h62q-4 54 -46 91.5t-117 50.5l-42 7l22 135l-59 -1l-21 -135l-23 -2q-112 -13 -169.5 -56t-70.5 -125q-7 -46 2.5 -77t38 -48t61 -24t83.5 -11l23 -2l-41 -261l-30 7q-58 13 -86 30q-40 24 -49 65h-62q5 -55 51 -92.5t125 -50.5l43 -7l-18 -114h58l18 114l23 3
q117 14 178.5 59t74.5 130q6 39 -0.5 67.5t-22 46t-44 29t-57.5 16.5t-71 8l-23 2l39 248l31 -9q53 -16 77 -33q35 -24 42 -61zM283 563q32 19 97 32l32 7l-39 -249l-28 3q-30 5 -41 7q-29 6 -44 14q-54 28 -43 88q9 64 66 98zM518 83q-33 -19 -104 -35l-32 -7l42 268l29 -5
q6 -2 11 -2l33 -6q29 -8 47 -16q57 -29 46 -94q-11 -68 -72 -103z" />
    <glyph glyph-name="percent" unicode="%" horiz-adv-x="942" 
d="M346 718q-70 0 -123 -48.5t-64 -123.5q-13 -77 23.5 -124.5t108.5 -47.5q73 0 123 46.5t63 125.5q12 77 -24.5 124.5t-106.5 47.5zM431 546q-9 -57 -46 -93t-87 -36t-76 36t-17 93t46.5 93t87.5 36t75.5 -36t16.5 -93zM782 591l-547 -506l26 -34l547 506zM884 98
q12 77 -25 124.5t-108 47.5q-69 0 -121 -48t-64 -124q-12 -77 24 -124.5t107 -47.5q73 0 124 46.5t63 125.5zM744 227q51 0 76.5 -35.5t16.5 -93.5q-9 -57 -46 -93t-87 -36q-49 0 -75 36.5t-17 92.5t46 92.5t86 36.5z" />
    <glyph glyph-name="ampersand" unicode="&#x26;" horiz-adv-x="661" 
d="M265 -39q73 0 125 19t120 70l19 15l100 -111l44 42l-111 124l96 127l-37 26l-94 -116l-19 20q-72 82 -126 152l-20 26l34 15q177 80 193 183q9 59 -28.5 95.5t-105.5 36.5q-27 0 -40 -1q-74 -4 -125 -44t-61 -101q-5 -29 2 -60.5t16.5 -52.5t28.5 -56l13 -22l-26 -14
q-81 -46 -121.5 -85t-50.5 -102q-13 -81 36 -133.5t138 -52.5zM286 538q7 46 48 76.5t95 30.5q51 0 77.5 -27t19.5 -73q-9 -57 -71 -105q-19 -17 -50 -35q-28 -17 -47 -26l-23 -13l-10 20q-24 51 -30 68q-15 45 -9 84zM285 2q-66 0 -104 44t-28 108q9 55 56 99q22 20 42 33
q8 5 22.5 14.5t19.5 13.5l20 12l12 -16q42 -54 156 -185l17 -19l-23 -18q-51 -42 -94 -64t-96 -22z" />
    <glyph glyph-name="quotesingle" unicode="'" horiz-adv-x="242" 
d="M241 566l11 68h-60l-10 -68q-11 -66 -5 -136h27q26 64 37 136z" />
    <glyph glyph-name="parenleft" unicode="(" horiz-adv-x="281" 
d="M178 -134l43 28q-36 86 -46.5 200t7.5 228q19 114 65 227.5t109 200.5l-34 28q-76 -89 -128 -212.5t-71 -243.5q-35 -217 30 -399q11 -32 25 -57z" />
    <glyph glyph-name="parenright" unicode=")" horiz-adv-x="281" 
d="M27 -106l35 -28q76 88 128 212t70 244q20 108 7 238t-60 218l-44 -29q36 -86 46 -199.5t-8 -227.5t-64 -228t-110 -200z" />
    <glyph glyph-name="asterisk" unicode="*" horiz-adv-x="438" 
d="M447 540q-24 -14 -114 -68l-29 -18l-40 22q-77 45 -103 63l13 19q5 -5 11 -8q9 -6 35 -22l18 -8l25 30l26 -36l19 120h21l-22 -138l37 15q53 21 96 46zM304 454l13 -8l-29 -8l-6 2zM385 412q7 -3 26 -17q5 -3 13 -9h-1l-14 -21q-25 17 -33 23l-10 8l-13 -5
q-55 -20 -77 -102h-24q3 25 9 48l21 86l-19 5l-29 -46l-16 22l-18 -7q-19 -8 -43 -22q-12 -7 -13 -8l-8 19q9 4 15 9q5 3 10 5q9 6 19 11q3 1 10 3t11 3l5 1q5 1 7 2q10 2 38 9l37 9l45 -12l16 -4l13 -3q20 -5 23 -7z" />
    <glyph glyph-name="plus" unicode="+" horiz-adv-x="656" 
d="M353 347h-194l-8 -50h194l-35 -217h60l34 217h194l8 50h-194l34 217h-59z" />
    <glyph glyph-name="comma" unicode="," horiz-adv-x="280" 
d="M94 -131l1 -1q85 71 101 167q10 67 -39 67t-57 -53q-4 -23 3 -34t35 -24l19 -10l-11 -22q-31 -63 -52 -90z" />
    <glyph glyph-name="hyphen" unicode="-" horiz-adv-x="591" 
d="M151 297h382l8 50h-382z" />
    <glyph glyph-name="period" unicode="." horiz-adv-x="280" 
d="M140 -4q23 0 38.5 14t19.5 39q8 53 -41 53t-57 -53q-9 -53 40 -53z" />
    <glyph glyph-name="slash" unicode="/" horiz-adv-x="525" 
d="M94 -76l478 773l-38 22l-479 -772z" />
    <glyph glyph-name="zero" unicode="0" horiz-adv-x="962" 
d="M477 -1q-91 0 -153.5 23.5t-124.5 78.5q-105 99 -84 236q22 134 158 234q137 102 311 102h4q174 0 277 -102q106 -100 84 -234q-21 -138 -158 -236q-79 -55 -149.5 -78.5t-160.5 -23.5h-4zM224 140l614 396q-47 47 -117.5 72.5t-141.5 25.5q-87 0 -174.5 -32.5
t-158 -102.5t-85.5 -162q-17 -115 63 -197zM485 41q83 1 172 35t160.5 103.5t85.5 157.5q17 101 -46 177l-608 -395l15 -12q95 -68 221 -66z" />
    <glyph glyph-name="one" unicode="1" horiz-adv-x="334" 
d="M272 -1l-48 1l84 529l-141 -89l-30 32l234 153z" />
    <glyph glyph-name="two" unicode="2" horiz-adv-x="704" 
d="M145 -1l399 295q5 3 19 13t19.5 14.5t18 14t18 16t15 17.5t14 20.5t9.5 22.5t7 27q10 59 -19 103.5t-85 65.5q-57 23 -111 23q-25 0 -57 -6t-71.5 -20t-74.5 -44t-53 -70h-42q22 49 62.5 85.5t86 55t85 27.5t70.5 9q53 0 106 -17q24 -8 47.5 -23t49.5 -40t39 -64t6 -85
q-6 -35 -28.5 -69.5t-40.5 -51t-46 -38.5l-329 -242h389l-6 -39h-497z" />
    <glyph glyph-name="three" unicode="3" horiz-adv-x="612" 
d="M305 2q-97 0 -160 51t-55 122h44q-4 -55 51.5 -96t125.5 -41q73 0 140.5 43.5t76.5 101.5q9 57 -42 99.5t-121 45.5l3 36q73 -4 138 38t75 107q9 58 -45.5 101.5t-127.5 43.5q-69 0 -137 -41t-80 -96h-47q16 71 95 122t175 51q100 0 164 -53.5t53 -127.5
q-16 -99 -160 -160q123 -65 108 -166q-11 -74 -92.5 -127.5t-181.5 -53.5z" />
    <glyph glyph-name="four" unicode="4" horiz-adv-x="803" 
d="M677 -1h-43l33 208h-572l73 461h41l-68 -427h531l68 427h43l-67 -427h63l-5 -34h-64z" />
    <glyph glyph-name="five" unicode="5" horiz-adv-x="662" 
d="M331 -1q-29 0 -63 8t-71.5 24.5t-65.5 49t-36 75.5h41q6 -35 30.5 -61t57.5 -39t62 -19t51 -6q26 0 71 8.5t75 25.5q105 58 119 143q14 86 -72 142q-40 27 -135 35q-12 1 -111 1l-161 -1l45 283h538l-5 -32h-499l-34 -216h230q48 0 93 -15q23 -8 46.5 -21.5t49.5 -37
t39.5 -59.5t6.5 -79q-7 -42 -31.5 -78t-58 -59t-61.5 -36.5t-53 -20.5q-49 -15 -98 -15z" />
    <glyph glyph-name="six" unicode="6" horiz-adv-x="577" 
d="M288 0q-65 0 -128 36q-85 50 -70 139l50 318q13 88 114 138q75 36 140 36q34 0 71.5 -10t75.5 -39t50 -72h-39q-12 47 -65 69t-98 22q-82 0 -141 -41t-69 -103l-29 -181l7 3q18 8 34 14t32.5 9.5t26.5 6t27 3.5t22 1h24h21q90 0 151 -47t48 -127q-14 -89 -115 -139
q-73 -36 -140 -36zM129 175q-13 -82 67 -119q73 -34 167 -10q98 24 130 95q7 17 10 34q9 63 -32.5 103t-132.5 40q-46 0 -80.5 -4.5t-56 -15.5t-35 -20.5t-20.5 -28t-9.5 -28.5t-5.5 -32q-1 -9 -2 -14z" />
    <glyph glyph-name="seven" unicode="7" horiz-adv-x="690" 
d="M182 -1l-42 1l527 636h-504l5 32h566z" />
    <glyph glyph-name="eight" unicode="8" horiz-adv-x="627" 
d="M314 5q-104 0 -169.5 52.5t-53.5 126.5q17 108 182 168q-146 62 -129 165q11 74 93 126.5t186 52.5t170 -52.5t54 -126.5q-17 -103 -176 -163q140 -68 123 -170q-11 -73 -93.5 -126t-186.5 -53zM370 362q51 0 105.5 20t94.5 56.5t46 78.5q10 64 -53 111t-143 47
q-78 0 -156.5 -48t-87.5 -110q-10 -61 53 -108t141 -47zM317 29q79 0 156 46.5t87 108.5q10 63 -51.5 109t-141.5 46q-79 0 -155 -46.5t-85 -108.5q-10 -62 51 -108.5t139 -46.5z" />
    <glyph glyph-name="nine" unicode="9" horiz-adv-x="577" 
d="M289 0q-34 0 -71.5 10t-76 39t-49.5 72h39q12 -47 65 -69t98 -22q81 0 140 40.5t70 103.5l28 181l-6 -3q-18 -8 -34 -14t-32.5 -9.5t-26.5 -6t-27 -3.5t-22 -1h-24h-21q-91 0 -151.5 47t-47.5 127q14 89 115 139q73 36 140 36q65 0 128 -36q84 -49 70 -139l-50 -318
q-15 -88 -114 -138q-75 -36 -140 -36zM344 349q30 0 55 2.5t44 5.5t34.5 10.5t25.5 12t18.5 16.5t12.5 16.5t8.5 19.5t5 19t3.5 21t3 20q14 88 -74 123t-187 -1t-113 -122q-10 -63 32 -103t132 -40z" />
    <glyph glyph-name="colon" unicode=":" horiz-adv-x="280" 
d="M263 462q4 25 -6.5 39t-33.5 14q-49 0 -58 -53q-8 -53 41 -53t57 53zM157 102q-49 0 -57 -53q-9 -53 40 -53q23 0 38.5 14t19.5 39q8 53 -41 53z" />
    <glyph glyph-name="semicolon" unicode=";" horiz-adv-x="280" 
d="M206 409q49 0 57 53q4 25 -6.5 39t-33.5 14q-49 0 -58 -53q-8 -53 41 -53zM94 -131l1 -1q85 71 101 167q10 67 -39 67t-57 -53q-4 -23 3 -34t35 -24l19 -10l-11 -22q-31 -63 -52 -90z" />
    <glyph glyph-name="less" unicode="&#x3c;" horiz-adv-x="547" 
d="M536 532l-383 -161l-13 -80l333 -160l11 69l-327 133l369 134z" />
    <glyph glyph-name="equal" unicode="=" horiz-adv-x="656" 
d="M173 436h447l8 51h-447zM584 208h-447l-8 -51h447z" />
    <glyph glyph-name="greater" unicode="&#x3e;" horiz-adv-x="547" 
d="M168 467l328 -134l-370 -133l-11 -69l383 160l13 80l-333 161z" />
    <glyph glyph-name="question" unicode="?" horiz-adv-x="693" 
d="M153 500h62q26 52 99 77q55 20 127 20q78 0 127 -19q79 -32 67 -113q-12 -72 -97 -97q-44 -14 -116 -14h-50l-5 -32q-3 -22 5 -67h30q6 15 14 31l7 17l18 1q44 3 74 7.5t63.5 15t54.5 27t38 45t23 66.5q14 91 -48 137t-197 46q-97 0 -182 -36.5t-114 -111.5zM305 49
q-9 -53 41 -53q48 0 56 53t-40 53q-49 0 -57 -53z" />
    <glyph glyph-name="at" unicode="@" horiz-adv-x="965" 
d="M600 738q143 0 219.5 -86.5t54.5 -224.5q-17 -104 -91.5 -160t-161.5 -35q56 68 67 134q11 72 -21 114.5t-99 42.5t-113 -42.5t-58 -114.5q-11 -73 21 -116.5t97 -43.5h140q107 0 179.5 60t88.5 161q25 156 -62.5 250t-256.5 94t-288 -110t-148 -295q-29 -184 69 -295.5
t289 -111.5q111 0 194 43l-9 23q-78 -33 -180 -33q-168 0 -255.5 103.5t-60.5 270.5q26 165 132.5 268.5t252.5 103.5zM595 270q-70 -49 -117.5 -14.5t-35.5 110.5q8 51 42 85t78 34q42 0 65 -31.5t16 -82.5t-48 -101z" />
    <glyph glyph-name="A" unicode="A" horiz-adv-x="785" 
d="M494 642l-438 -641l69 1l91 132l12 -8q74 -50 178 -50q99 0 192 48l15 8l46 -130h70zM582 172q-83 -45 -167 -45q-85 0 -156 47l-12 7l227 335l122 -337z" />
    <glyph glyph-name="B" unicode="B" 
d="M557 673h-388l-107 -674h388q87 0 166.5 50.5t92.5 131.5q7 43 -9.5 75.5t-52.5 69.5l-12 12l16 12q49 36 75 67.5t33 74.5q13 80 -51.5 130.5t-150.5 50.5zM212 622h336q36 0 73.5 -14t64.5 -45.5t21 -71.5q-9 -57 -60.5 -93t-103.5 -36h-373zM458 50h-337l41 260h372
q53 0 93 -35.5t31 -93.5q-10 -59 -75.5 -95t-124.5 -36z" />
    <glyph glyph-name="C" unicode="C" horiz-adv-x="802" 
d="M796 574l37 28q-101 71 -245 71q-177 0 -315 -102q-136 -100 -158 -234q-21 -137 84 -236q108 -102 282 -102q139 0 270 70l-30 32q-94 -58 -231 -58q-61 0 -122.5 20t-112 56t-77.5 93.5t-17 124.5q10 65 55.5 122.5t106.5 94t129 57.5t127 21q136 0 217 -58z" />
    <glyph glyph-name="D" unicode="D" horiz-adv-x="801" 
d="M426 673h-257l-107 -674h257q177 0 316 102q137 102 158 236q21 132 -84 234q-106 102 -283 102zM120 50l91 572h26h181q58 0 117 -18.5t108.5 -53t76 -90.5t15.5 -123t-55 -123.5t-104 -91t-125 -53.5t-124 -19h-181h-26z" />
    <glyph glyph-name="E" unicode="E" 
d="M781 632l6 41h-618l-107 -674h619l6 41h-570l35 221l311 -1l6 40l-311 -1l53 333h570z" />
    <glyph glyph-name="F" unicode="F" 
d="M781 632l6 41h-618l-107 -674l49 1l41 261l311 -1l7 40l-312 -1l53 333h570z" />
    <glyph glyph-name="G" unicode="G" horiz-adv-x="848" 
d="M800 574l33 28q-101 71 -245 71q-177 0 -315 -102q-136 -100 -158 -234q-21 -136 84 -236q108 -102 282 -102q171 0 312 108l30 187h-250l-8 -48h205l-17 -114q-99 -89 -272 -89q-61 0 -121 20t-109 56t-74.5 93.5t-15.5 124.5q10 65 55.5 122.5t106.5 94t129 57.5
t127 21q141 0 221 -58z" />
    <glyph glyph-name="H" unicode="H" 
d="M787 673h-44l-73 -462h-531l74 462h-44l-107 -674h44l27 170h531l-27 -170h44z" />
    <glyph glyph-name="I" unicode="I" horiz-adv-x="207" 
d="M191 673l-107 -674h39l107 674h-39z" />
    <glyph glyph-name="J" unicode="J" horiz-adv-x="738" 
d="M715 245l68 428h-49l-68 -428q-9 -60 -61.5 -106.5t-114 -67.5t-115.5 -21q-47 0 -95.5 16.5t-87 53t-43.5 84.5l-55 -1q5 -92 87.5 -148t185.5 -56q65 0 126 21q83 27 146.5 87.5t75.5 137.5z" />
    <glyph glyph-name="K" unicode="K" horiz-adv-x="688" 
d="M169 673l-107 -674h53l24 154l172 152l226 -306l63 1l-248 338l381 335h-55l-528 -451l72 451h-53z" />
    <glyph glyph-name="L" unicode="L" 
d="M689 50h-569l99 623h-50l-107 -674h619z" />
    <glyph glyph-name="M" unicode="M" horiz-adv-x="907" 
d="M799 0l46 -1l105 664l-447 -345l-336 345l-105 -664h48l88 557l297 -299l391 299z" />
    <glyph glyph-name="N" unicode="N" 
d="M787 673h-46l-87 -549l-488 531l-104 -656l52 1l85 537l485 -530z" />
    <glyph glyph-name="O" unicode="O" horiz-adv-x="958" 
d="M865 571q106 -100 84 -234q-21 -138 -158 -236q-79 -55 -149.5 -78.5t-160.5 -23.5h-2h-2q-91 0 -154 23.5t-124 78.5q-105 99 -84 236q22 134 158 234q137 102 311 102h2h2q174 0 277 -102zM485 41q83 1 172 35t160.5 103.5t85.5 157.5q11 69 -14.5 127t-75 94t-111 56
t-123.5 20q-87 0 -174.5 -32.5t-158 -102.5t-85.5 -162q-11 -68 14.5 -126t74.5 -94.5t110.5 -56.5t124.5 -19z" />
    <glyph glyph-name="P" unicode="P" 
d="M62 -1h47l32 204h275q71 0 142.5 27t126 82.5t65.5 126.5q17 104 -65 169t-194 65h-322zM237 631h247q50 0 103 -21.5t90 -67.5t28 -103q-9 -58 -61 -104t-111.5 -67.5t-109.5 -21.5q-164 0 -247 -1h-28l61 386h28z" />
    <glyph glyph-name="Q" unicode="Q" horiz-adv-x="1009" 
d="M477 -1q-91 0 -153.5 23.5t-124.5 78.5q-105 99 -84 236q22 134 158 234q137 102 311 102h4q174 0 277 -102q106 -100 84 -234q-18 -117 -120 -207l19 -17l37 -23q37 -21 61 -27l-3 -50q-73 22 -131 69l-20 17l-2 2q-78 -55 -148.5 -78.5t-160.5 -23.5h-4zM485 41
q66 1 141 25t136 66l-5 6l-13 13q-4 3 -8 11l-10 15q-36 49 -57 116h45q10 -26 32.5 -66t36.5 -55l13 -13q91 77 107 178q11 69 -15 127t-75.5 94t-110.5 56t-123 20q-87 0 -174.5 -32.5t-158 -102.5t-85.5 -162q-11 -68 14.5 -126t74.5 -94.5t110.5 -56.5t124.5 -19z" />
    <glyph glyph-name="R" unicode="R" 
d="M654 0l7 45q-93 38 -126 147l-6 18l46 23q65 33 113 91t57 115q11 69 -25.5 123t-98 80t-131.5 26h-317l-106 -668h37l33 208l349 2q57 -182 168 -210zM148 245l61 385h20h255q37 0 77 -11.5t75.5 -33.5t55.5 -58t13 -80q-9 -57 -53 -106t-88 -72.5t-70 -23.5h-346z" />
    <glyph glyph-name="S" unicode="S" horiz-adv-x="586" 
d="M534 531h44q-5 71 -53 108.5t-126 37.5q-88 0 -168.5 -52t-93.5 -134t51.5 -131t154.5 -49q61 0 108 -34.5t37 -95.5q-11 -69 -66 -106.5t-121 -37.5q-54 0 -102.5 28t-63.5 77h-50q8 -70 68 -108t141 -38q87 0 156 51t82 134q13 82 -40 125.5t-141 43.5q-39 0 -79 14
t-69 48t-22 79q11 68 80 108t132 40q54 0 94.5 -28t46.5 -80z" />
    <glyph glyph-name="T" unicode="T" 
d="M495 629h285l7 44h-618l-7 -44h285l-99 -630h47z" />
    <glyph glyph-name="U" unicode="U" 
d="M169 673l-68 -428q-12 -77 32 -137.5t119 -88.5q57 -20 119 -20t127 20q83 28 146 88.5t76 137.5l67 428h-48l-67 -428q-10 -61 -63.5 -107.5t-115 -67t-114.5 -20.5t-107.5 20.5t-93.5 67t-29 107.5l67 428h-47z" />
    <glyph glyph-name="V" unicode="V" horiz-adv-x="694" 
d="M365 101l-147 572h-49q134 -508 178 -673q206 355 392 673h-47z" />
    <glyph glyph-name="W" unicode="W" horiz-adv-x="1041" 
d="M369 116l-151 557h-49q134 -508 178 -673l246 460l101 -460q206 355 392 673h-48l-323 -557l-104 463z" />
    <glyph glyph-name="X" unicode="X" horiz-adv-x="668" 
d="M354 337l-291 -338h46l273 311l173 -311h51l-184 338l291 336h-51l-271 -312l-170 312h-52z" />
    <glyph glyph-name="Y" unicode="Y" horiz-adv-x="684" 
d="M384 266l-168 407h-47l188 -453l-34 -221h36l36 222l334 452h-43z" />
    <glyph glyph-name="Z" unicode="Z" horiz-adv-x="741" 
d="M187 40l564 633h-582l-6 -38h502l-565 -636h578l6 41h-497z" />
    <glyph glyph-name="bracketleft" unicode="[" horiz-adv-x="327" 
d="M374 723l8 51h-155l-144 -904h156l8 50h-96l127 803h96z" />
    <glyph glyph-name="backslash" unicode="\" horiz-adv-x="525" 
d="M173 697l235 -773l45 23l-233 773z" />
    <glyph glyph-name="bracketright" unicode="]" horiz-adv-x="327" 
d="M55 -80l-8 -50h155l143 904h-155l-8 -51h97l-128 -803h-96z" />
    <glyph glyph-name="asciicircum" unicode="^" horiz-adv-x="487" 
d="M483 280l-97 365h-82l-212 -365h71l181 353l73 -353h66z" />
    <glyph glyph-name="underscore" unicode="_" horiz-adv-x="591" 
d="M85 -123h382l7 50h-382z" />
    <glyph glyph-name="a" unicode="a" horiz-adv-x="785" 
d="M494 642l-438 -641l69 1l91 132l12 -8q74 -50 178 -50q99 0 192 48l15 8l46 -130h70zM582 172q-83 -45 -167 -45q-85 0 -156 47l-12 7l227 335l122 -337z" />
    <glyph glyph-name="b" unicode="b" 
d="M557 673h-388l-107 -674h388q87 0 167 50.5t93 131.5q6 43 -10.5 75.5t-52.5 69.5l-12 12l15 12q49 36 75.5 67.5t33.5 74.5q13 80 -51.5 130.5t-150.5 50.5zM212 622h336q36 0 73.5 -14t64.5 -45.5t21 -71.5q-9 -57 -61 -93t-104 -36h-372zM458 50h-337l41 260h372
q53 0 93 -35.5t31 -93.5q-10 -59 -75.5 -95t-124.5 -36z" />
    <glyph glyph-name="c" unicode="c" horiz-adv-x="802" 
d="M796 574l37 28q-101 71 -245 71q-177 0 -315 -102q-136 -100 -158 -234q-21 -137 84 -236q108 -102 282 -102q139 0 270 70l-30 32q-94 -58 -231 -58q-61 0 -122.5 20t-112 56t-77.5 93.5t-17 124.5q10 65 55.5 122.5t106.5 94t129 57.5t127 21q136 0 217 -58z" />
    <glyph glyph-name="d" unicode="d" horiz-adv-x="801" 
d="M426 673h-257l-107 -674h257q177 0 316 102q137 102 158 236q21 132 -84 234q-106 102 -283 102zM120 50l91 572h26h181q58 0 117 -18.5t108.5 -53t76 -90.5t15.5 -123t-55 -123.5t-104 -91t-125 -53.5t-124 -19h-181h-26z" />
    <glyph glyph-name="e" unicode="e" 
d="M781 632l6 41h-618l-107 -674h619l6 41h-570l35 221l311 -1l7 40l-312 -1l53 333h570z" />
    <glyph glyph-name="f" unicode="f" 
d="M781 632l6 41h-618l-107 -674l49 1l41 261l311 -1l7 40l-312 -1l53 333h570z" />
    <glyph glyph-name="g" unicode="g" horiz-adv-x="848" 
d="M800 574l33 28q-101 71 -245 71q-177 0 -315 -102q-136 -100 -158 -234q-21 -136 84 -236q108 -102 282 -102q171 0 312 108l30 187h-250l-8 -48h205l-17 -114q-99 -89 -272 -89q-61 0 -121 20t-109 56t-74.5 93.5t-15.5 124.5q10 65 55.5 122.5t106.5 94t129 57.5
t127 21q141 0 221 -58z" />
    <glyph glyph-name="h" unicode="h" 
d="M787 673h-43l-74 -462h-531l74 462h-44l-107 -674h44l27 170h531l-27 -170h44z" />
    <glyph glyph-name="i" unicode="i" horiz-adv-x="207" 
d="M191 673l-107 -674h39l107 674h-39z" />
    <glyph glyph-name="j" unicode="j" horiz-adv-x="738" 
d="M715 245l68 428h-49l-68 -428q-9 -60 -61.5 -106.5t-114 -67.5t-115.5 -21q-47 0 -95.5 16.5t-87 53t-43.5 84.5l-55 -1q5 -92 87.5 -148t185.5 -56q65 0 126 21q83 27 146.5 87.5t75.5 137.5z" />
    <glyph glyph-name="k" unicode="k" horiz-adv-x="688" 
d="M169 673l-107 -674h53l24 154l172 152l226 -306l63 1l-248 338l381 335h-55l-528 -451l72 451h-53z" />
    <glyph glyph-name="l" unicode="l" 
d="M689 50h-569l99 623h-50l-107 -674h619z" />
    <glyph glyph-name="m" unicode="m" horiz-adv-x="907" 
d="M799 0l46 -1l105 664l-447 -345l-336 345l-105 -664h48l88 557l297 -299l391 299z" />
    <glyph glyph-name="n" unicode="n" 
d="M787 673h-46l-87 -549l-488 531l-104 -656l52 1l85 537l485 -530z" />
    <glyph glyph-name="o" unicode="o" horiz-adv-x="963" 
d="M865 571q106 -100 84 -234q-21 -138 -158 -236q-79 -55 -149.5 -78.5t-160.5 -23.5h-2h-2q-91 0 -153.5 23.5t-124.5 78.5q-105 99 -84 236q22 134 158 234q137 102 311 102h2h2q174 0 277 -102zM485 41q83 1 172 35t160.5 103.5t85.5 157.5q11 69 -15 127t-75.5 94
t-110.5 56t-123 20q-87 0 -174.5 -32.5t-158 -102.5t-85.5 -162q-11 -68 14.5 -126t74.5 -94.5t110.5 -56.5t124.5 -19z" />
    <glyph glyph-name="p" unicode="p" 
d="M62 -1h47l32 204h275q71 0 142.5 27t126 82.5t65.5 126.5q17 104 -65 169t-194 65h-322zM237 631h247q50 0 103 -21.5t90 -67.5t28 -103q-9 -58 -61 -104t-111.5 -67.5t-109.5 -21.5q-164 0 -247 -1h-28l61 386h28z" />
    <glyph glyph-name="q" unicode="q" horiz-adv-x="1009" 
d="M477 -1q-91 0 -153.5 23.5t-124.5 78.5q-105 99 -84 236q22 134 158 234q137 102 311 102h4q174 0 277 -102q106 -100 84 -234q-18 -117 -120 -207l19 -17l37 -23q37 -21 61 -27l-3 -50q-73 22 -131 69l-20 17l-2 2q-78 -55 -148.5 -78.5t-160.5 -23.5h-4zM485 41
q66 1 141 25t136 66l-5 6l-13 13q-4 3 -8 11l-10 15q-36 49 -57 116h45q10 -26 32.5 -66t36.5 -55l13 -13q91 77 107 178q11 69 -15 127t-75.5 94t-110.5 56t-123 20q-87 0 -174.5 -32.5t-158 -102.5t-85.5 -162q-11 -68 14.5 -126t74.5 -94.5t110.5 -56.5t124.5 -19z" />
    <glyph glyph-name="r" unicode="r" 
d="M654 0l7 45q-92 37 -127 147l-6 18l47 23q65 33 113 91t58 115q10 69 -26.5 123t-98 80t-131.5 26h-317l-106 -668h37l33 208l349 2q57 -182 168 -210zM148 245l61 385h20h255q37 0 77 -11.5t75.5 -33.5t55.5 -58t13 -80q-9 -57 -53 -106t-88 -72.5t-70 -23.5h-346z" />
    <glyph glyph-name="s" unicode="s" horiz-adv-x="585" 
d="M534 531h44q-5 71 -53 108.5t-126 37.5q-88 0 -168.5 -52t-93.5 -134t51.5 -131t154.5 -49q61 0 108 -34.5t37 -95.5q-11 -69 -66 -106.5t-121 -37.5q-54 0 -102.5 28t-63.5 77h-50q8 -70 68 -108t141 -38q87 0 156 51t82 134q13 82 -40 125.5t-141 43.5q-39 0 -79 14
t-69 48t-22 79q11 68 80 108t132 40q54 0 94.5 -28t46.5 -80z" />
    <glyph glyph-name="t" unicode="t" 
d="M495 629h285l7 44h-618l-7 -44h285l-99 -630h47z" />
    <glyph glyph-name="u" unicode="u" 
d="M169 673l-68 -428q-12 -77 32 -137.5t119 -88.5q57 -20 119 -20t127 20q83 28 146 88.5t76 137.5l67 428h-48l-67 -428q-10 -61 -63.5 -107.5t-115 -67t-114.5 -20.5t-107.5 20.5t-93.5 67t-29 107.5l67 428h-47z" />
    <glyph glyph-name="v" unicode="v" horiz-adv-x="694" 
d="M365 101l-147 572h-49q134 -508 178 -673q65 112 195.5 336.5t196.5 336.5h-47z" />
    <glyph glyph-name="w" unicode="w" horiz-adv-x="1041" 
d="M369 116l-151 557h-49q134 -508 178 -673l246 460l101 -460q65 112 195.5 336.5t196.5 336.5h-48l-323 -557l-105 463z" />
    <glyph glyph-name="x" unicode="x" horiz-adv-x="668" 
d="M353 337l-290 -338h46l273 311l173 -311h51l-185 338l292 336h-51l-271 -312l-170 312h-52z" />
    <glyph glyph-name="y" unicode="y" horiz-adv-x="684" 
d="M384 266l-167 407h-48l189 -453l-35 -221h36l36 222l334 452h-43z" />
    <glyph glyph-name="z" unicode="z" horiz-adv-x="741" 
d="M187 40l564 633h-582l-6 -38h502l-565 -636h578l6 41h-497z" />
    <glyph glyph-name="braceleft" unicode="{" horiz-adv-x="362" 
d="M417 774h3h-3zM417 774l-8 -51h3q-44 0 -76.5 -28.5t-39.5 -73.5l-22 -138q-13 -80 -67 -121l-18 -14q-6 -4 -9 -7l-26 -19l41 -41q40 -42 28 -120l-22 -139q-7 -45 16.5 -73.5t67.5 -28.5h-4l-7 -50q-72 1 -107 47.5t-22 125.5l23 146q8 47 -15.5 77.5t-66.5 30.5h2
l8 50h-2q43 0 76 30.5t40 76.5l24 148q12 78 61.5 124.5t121.5 47.5zM277 -130h-3h3z" />
    <glyph glyph-name="bar" unicode="|" horiz-adv-x="267" 
d="M83 -130h60l143 904l-59 -1z" />
    <glyph glyph-name="braceright" unicode="}" horiz-adv-x="359" 
d="M186 774h4h-4zM377 347h-3l-8 -50h3q-43 0 -75.5 -30.5t-40.5 -77.5l-23 -146q-13 -79 -62.5 -125.5t-121.5 -47.5l8 50h-3q44 0 76.5 28.5t39.5 73.5l22 139q13 77 69 120l53 41l-40 40q-43 45 -31 121l22 138q7 45 -16.5 73.5t-67.5 28.5h4l8 51q71 -2 106 -48t22 -124
l-23 -148q-8 -46 15.5 -76.5t66.5 -30.5zM46 -130h-3h3z" />
    <glyph glyph-name="uni00A0" unicode="&#xa0;" horiz-adv-x="326" 
 />
    <glyph glyph-name="cent" unicode="&#xa2;" horiz-adv-x="691" 
d="M486 77l-27 -12q-7 -3 -14 -7l-39 -18l89 566l34 -19q8 -4 12 -7q16 -8 23 -13q81 -48 97 -144h68q-9 84 -58.5 141.5t-129.5 77.5l-13 3q-1 0 -3 0.5t-3 0.5l-19 4l19 123l-59 -1l-19 -123l-20 -5q-2 0 -4 -0.5t-4 -0.5l-13 -3q-110 -27 -185.5 -113t-94.5 -205
t29.5 -205t149.5 -113l13 -3q1 0 3 -0.5t3 -0.5l19 -5l-20 -126h59l19 125l21 4q2 0 4 0.5t3 0.5l14 3q86 19 154.5 77.5t103.5 141.5h-69q-23 -46 -60.5 -84t-82.5 -60zM354 562l28 15q7 3 14 7l41 20l-90 -567l-34 22q-8 4 -12 7l-24 15q-53 35 -76.5 98.5t-10.5 142.5
q13 80 56 143t108 97z" />
    <glyph glyph-name="copyright" unicode="&#xa9;" horiz-adv-x="835" 
d="M418 676q142 0 243.5 -99t101.5 -239t-101.5 -239t-243.5 -99q-143 0 -244.5 99t-101.5 239t101.5 239t244.5 99zM418 37q125 0 214.5 88.5t89.5 212.5t-89.5 212.5t-214.5 88.5q-126 0 -215.5 -88.5t-89.5 -212.5t89.5 -212.5t215.5 -88.5zM302 338q0 -43 35 -76
q34 -32 88.5 -36t88.5 22l48 -40q-57 -46 -131 -46q-75 0 -139 53q-57 52 -57 123q0 69 58 122q56 53 138 53q75 0 131 -45l-42 -37q-46 28 -94.5 26t-86 -36t-37.5 -83z" />
    <glyph glyph-name="guillemotleft" unicode="&#xab;" horiz-adv-x="443" 
d="M155 340l125 167h-44l-134 -167l81 -166h45zM350 340l125 167h-45l-133 -167l81 -166h45z" />
    <glyph glyph-name="registered" unicode="&#xae;" horiz-adv-x="846" 
d="M72 338q0 -141 103.5 -242t248.5 -101t247.5 101t102.5 242t-102.5 242t-247.5 101t-248.5 -101t-103.5 -242zM634 125q-90 -87 -211 -87q-124 0 -213 88.5t-89 211.5t89 211.5t213 88.5q125 0 213.5 -88t88.5 -212q0 -106 -72 -194zM512 272q8 -12 12 -17q15 -15 40 -24
v-46q-44 6 -74 36q-12 12 -21 30h-20h-4l-5 19h-8h-97v-87h-54v305h151q58 0 99.5 -32t41.5 -76q0 -62 -69 -96zM432 449h-97v-140h97q37 0 62.5 20.5t25.5 50.5q0 29 -25.5 49t-62.5 20z" />
    <glyph glyph-name="degree" unicode="&#xb0;" horiz-adv-x="508" 
d="M145 462q-14 -84 28.5 -135t125.5 -51q82 0 140 51t71 135q14 85 -27.5 135.5t-124.5 50.5q-82 0 -140.5 -51.5t-72.5 -134.5zM205 462q9 59 50 97t95 38q53 0 81.5 -38t19.5 -97q-10 -59 -50.5 -97.5t-93.5 -38.5q-55 0 -83.5 38.5t-18.5 97.5z" />
    <glyph glyph-name="guillemotright" unicode="&#xbb;" horiz-adv-x="443" 
d="M201 340l-125 -166h45l133 166l-81 167h-45zM396 340l-126 -166h45l134 166l-81 167h-44z" />
    <glyph glyph-name="multiply" unicode="&#xd7;" horiz-adv-x="609" 
d="M349 281l142 -185l43 40l-142 186l202 186l-31 40l-201 -186l-142 186l-44 -40l141 -186l-200 -184l31 -41z" />
    <glyph glyph-name="divide" unicode="&#xf7;" horiz-adv-x="656" 
d="M369 531q-3 -20 7 -33t28 -13q19 0 33 13t17 33t-7 33.5t-29 13.5q-18 0 -31.5 -13.5t-17.5 -33.5zM606 347h-447l-8 -50h447zM303 112q-3 -20 6.5 -33t27.5 -13q19 0 33 13t17 33q4 20 -6 33t-29 13q-18 0 -32 -13t-17 -33z" />
    <glyph glyph-name="endash" unicode="&#x2013;" horiz-adv-x="977" 
d="M151 297h769l8 50h-769z" />
    <glyph glyph-name="emdash" unicode="&#x2014;" horiz-adv-x="1236" 
d="M151 297h1028l8 50h-1028z" />
    <glyph glyph-name="quoteleft" unicode="&#x2018;" horiz-adv-x="244" 
d="M248 634l-1 2q-85 -71 -101 -167q-4 -31 6 -49.5t33 -18.5q49 0 57 53q4 23 -3.5 34t-34.5 25l-19 9l11 22q26 56 52 90z" />
    <glyph glyph-name="quoteright" unicode="&#x2019;" horiz-adv-x="244" 
d="M162 413q39 33 66 78t34 89q5 32 -5 50t-33 18t-38.5 -14t-19.5 -39q-4 -23 3.5 -34.5t35.5 -24.5l19 -9l-10 -22q-30 -59 -53 -90z" />
    <glyph glyph-name="quotesinglbase" unicode="&#x201a;" horiz-adv-x="244" 
d="M97 1q84 71 100 167q5 32 -5.5 49.5t-33.5 17.5q-49 0 -57 -52q-4 -22 4 -34.5t35 -26.5l19 -9l-11 -22q-28 -56 -52 -89z" />
    <glyph glyph-name="quotedblleft" unicode="&#x201c;" horiz-adv-x="502" 
d="M248 634l-1 2q-85 -71 -101 -167q-4 -31 6 -49.5t33 -18.5q49 0 57 53q4 23 -3.5 34t-34.5 25l-19 9l11 22q26 56 52 90zM506 636q-87 -72 -101 -167q-5 -31 5 -49.5t33 -18.5q49 0 58 53q4 23 -3.5 34t-34.5 25l-20 9l11 22q29 59 53 91z" />
    <glyph glyph-name="quotedblright" unicode="&#x201d;" horiz-adv-x="502" 
d="M162 413q39 33 66 78t34 89q5 31 -5 49.5t-33 18.5t-38.5 -14t-19.5 -39q-4 -23 3.5 -34.5t35.5 -24.5l19 -9l-10 -22q-30 -59 -53 -90zM421 413q38 32 65 77.5t35 89.5q4 31 -6 49.5t-33 18.5t-38 -14t-19 -39q-4 -23 3.5 -34.5t35.5 -24.5l19 -9l-11 -22
q-26 -55 -52 -91z" />
    <glyph glyph-name="quotedblbase" unicode="&#x201e;" horiz-adv-x="502" 
d="M97 1q84 71 100 167q5 31 -6 49t-33 18q-49 0 -57 -52q-4 -22 4 -34.5t35 -26.5l19 -9l-11 -22q-28 -56 -52 -89zM355 1q85 71 101 167q5 31 -6 49t-33 18q-49 0 -57 -52q-4 -23 3.5 -34.5t35.5 -25.5l19 -10l-11 -22q-26 -52 -53 -88z" />
    <glyph glyph-name="bullet" unicode="&#x2022;" horiz-adv-x="334" 
d="M202 220q43 0 72.5 27.5t37.5 74.5q7 47 -13.5 74.5t-64.5 27.5t-74 -27.5t-37 -74.5t14 -74.5t65 -27.5z" />
    <glyph glyph-name="ellipsis" unicode="&#x2026;" horiz-adv-x="879" 
d="M80 49q-4 -25 6.5 -39t33.5 -14q50 0 58 53t-41 53t-57 -53zM456 102q-51 0 -59 -53t42 -53t58 53q9 53 -41 53zM716 49q-8 -53 41 -53t58 53q8 53 -41 53t-58 -53z" />
    <glyph glyph-name="guilsinglleft" unicode="&#x2039;" horiz-adv-x="247" 
d="M155 340l125 167h-44l-134 -167l81 -166h45z" />
    <glyph glyph-name="guilsinglright" unicode="&#x203a;" horiz-adv-x="247" 
d="M201 340l-125 -166h45l133 166l-81 167h-45z" />
    <glyph glyph-name="Euro" unicode="&#x20ac;" horiz-adv-x="683" 
d="M633 85l-41 42q-80 -74 -177 -74q-77 0 -128.5 46.5t-65.5 128.5q-2 8 -4 24q-1 2 -1 6t-1 6l-5 33h325l8 50h-325l16 33q1 4 5 12l12 24q39 82 105.5 128.5t143.5 46.5q98 0 154 -74l54 42q-71 89 -199 89q-113 0 -204 -69.5t-132 -188.5l-14 -43h-63l-8 -50h63l1 -43
q3 -118 72 -188t182 -70q127 0 227 89z" />
    <glyph glyph-name="trademark" unicode="&#x2122;" horiz-adv-x="814" 
d="M584 526l206 161v-334h-61v220l-92 -70l-53 -41l-50 41h-2l-92 70v-220h-61v298h-155v-298h-59v298h-134v44h348v-8z" />
    <glyph glyph-name="minus" unicode="&#x2212;" horiz-adv-x="656" 
d="M151 297h447l8 50h-447z" />
    <glyph glyph-name="_FSHallmark" horiz-adv-x="778" 
d="M739 643v-82h-698v82h698zM589 170q-31 0 -58 7q-24 7 -49 24q-19 13 -35 39q-13 22 -13 55l81 -1q0 -5 4 -13q1 -11 12 -22q13 -11 21 -14q16 -8 39 -8q29 0 45 9q17 9 17 23q0 24 -67 38q-67 18 -102 38q-42 20 -42 69q0 38 28 63q22 20 61 33q31 7 58 7q44 0 78 -15
q38 -16 56 -56q10 -23 10 -40h-84q0 7 -7 18q-5 8 -15 15q-11 5 -20 8q-10 3 -20 3q-19 0 -41 -11q-16 -10 -16 -24q0 -25 16 -34q18 -10 36 -14l31 -8l25 -5q16 -6 25 -6q17 -4 20 -6q16 -7 18 -8q17 -10 26 -24q9 -13 11 -36q1 -21 -9 -42q-19 -37 -62 -50
q-39 -12 -78 -12zM133 282v-112h-92v346h294v-78h-202v-79h168v-77h-168zM369 171q-15 0 -28 13q-15 12 -15 27q0 16 13 31q11 10 30 10q18 0 33 -12q14 -11 14 -29q0 -17 -14 -29q-16 -11 -33 -11zM738 126v-83h-699v83h699z" />
    <glyph glyph-name="_Fontastica" horiz-adv-x="604" 
d="M126 275v-146h-86q-1 1 -1 4v507h380v-78h-293v-208h293v-79h-293zM562 640v-510h-380v78h293v209h-293v78h293v145h87zM482 47l-15 5q-6 8 -7 17q0 9 6 17q10 8 16 8q8 0 20 -8l-4 -7l-5 4q-1 1 -7 1h-4l-3 -2q-3 -1 -4 -3q-5 -3 -5 -7q0 -7 4 -11q5 -5 8 -5q8 0 16 5
l4 -5q-7 -9 -20 -9zM51 66v-17h-11v43h32v-8h-21v-11h20v-7h-20zM111 46q-6 0 -9 3q-13 4 -13 19q0 12 5 18q6 6 18 6q15 0 22 -11q6 -9 1 -20q-3 -11 -19 -14zM190 47q-1 0 -6 5l-6 6q0 2 -2 4q-2 1 -2 2l-8 11v-26h-10v43h8q4 -1 5 -6q1 -1 4 -5t5 -6q5 -5 9 -13v30h10
v-43h-3q-3 -2 -4 -2zM238 84v-35h-9v35h-15v8h37v-8h-13zM343 47q-12 0 -19 7v2l1 2l1 3l15 -5h5l4 2q0 7 -10 10q-2 0 -2 1h-4q-8 3 -8 10q-2 8 7 11q4 2 9 2q10 0 18 -3l-3 -8l-3 1h-3q-1 1 -3 1q-1 0 -2 1h-5q-3 0 -3 -2q-1 -1 3 -7l10 -3q9 0 9 -11q2 -9 -8 -12
q-1 -2 -9 -2zM399 84v-35h-10v35h-15v8h39v-8h-14zM442 92v-43h-12v43h12zM530 58l-4 -9h-10q11 19 18 43h12l9 -20q2 -8 5 -14q1 -1 2 -4.5t3 -4.5h-10l-5 9h-20zM274 51l-4 -2h-8l18 41h10q0 -2 5 -9q3 -5 5 -10q1 -2 4 -13q0 -1 4 -9h-10q-1 1 -1 3l-2 6h-21v-6v-1z
M112 56h4q8 3 8 13v2q0 9 -3 10q-5 3 -10 3q-1 -1 -4 -1l-3 -3q-2 -3 -4 -5q-6 -3 -2 -9q4 -10 14 -10zM285 82l-8 -16h15l-2 3q-2 4 -3 4q-1 1 -1 5q0 3 -1 4zM540 82l-7 -16h14l-1 3q0 2 -2 4q-2 1 -2 5q0 3 -2 4z" />
    </font>
</defs>
</svg>
