<?xml version="1.0" standalone="no"?>
<!DOCTYPE svg PUBLIC "-//W3C//DTD SVG 1.1//EN" "http://www.w3.org/Graphics/SVG/1.1/DTD/svg11.dtd" >
<svg xmlns="http://www.w3.org/2000/svg" xmlns:xlink="http://www.w3.org/1999/xlink" version="1.1">
<metadata>
Created by FontForge 20170731 at Sun Nov 17 11:43:54 2019
 By Aleksey,,,
Copyright (c) 2019 by Fontastica. All rights reserved.
</metadata>
<defs>
<font id="Hanover-LightItalic" horiz-adv-x="762" >
  <font-face 
    font-family="Hanover Light Italic"
    font-weight="300"
    font-style="italic"
    font-stretch="normal"
    units-per-em="1000"
    panose-1="0 0 4 0 0 0 0 0 0 0"
    ascent="800"
    descent="-200"
    x-height="681"
    cap-height="681"
    bbox="16 -149 1214 801"
    underline-thickness="50"
    underline-position="-200"
    unicode-range="U+000D-2212"
  />
<missing-glyph horiz-adv-x="529" 
d="M138 554h429l-88 -554h-429zM163 539l148 -245l225 245h-373zM321 277l143 -240l76 480zM296 277l-143 238l-76 -476zM306 260l-224 -243h372z" />
    <glyph glyph-name=".notdef" horiz-adv-x="529" 
d="M138 554h429l-88 -554h-429zM163 539l148 -245l225 245h-373zM321 277l143 -240l76 480zM296 277l-143 238l-76 -476zM306 260l-224 -243h372z" />
    <glyph glyph-name=".null" horiz-adv-x="0" 
 />
    <glyph glyph-name="nonmarkingreturn" horiz-adv-x="333" 
 />
    <glyph glyph-name="CR" unicode="&#xd;" horiz-adv-x="0" 
 />
    <glyph glyph-name="space" unicode=" " horiz-adv-x="326" 
 />
    <glyph glyph-name="exclam" unicode="!" horiz-adv-x="308" 
d="M292 528l20 124h-108l-20 -124q-23 -153 -22 -291h60q47 144 70 291zM92 62q-5 -35 11 -55.5t50 -20.5q33 0 56.5 21t28.5 55q5 35 -11.5 56t-49.5 21q-34 0 -57 -21t-28 -56z" />
    <glyph glyph-name="quotedbl" unicode="&#x22;" horiz-adv-x="461" 
d="M185 652l-14 -90q-13 -81 -3 -156h64q33 65 47 156l14 90h-108zM421 406q35 69 49 156l14 90h-108l-15 -90q-12 -78 -2 -156h62z" />
    <glyph glyph-name="numbersign" unicode="#" horiz-adv-x="804" 
d="M295 149h170l-52 -149h97l53 149h121l13 85h-105l64 185h121l13 85h-105l51 148h-97l-52 -148h-169l52 148h-98l-52 -148h-121l-13 -85h105l-64 -185h-121l-13 -85h105l-52 -149h97zM324 234l65 185h169l-64 -185h-170z" />
    <glyph glyph-name="dollar" unicode="$" horiz-adv-x="713" 
d="M606 473h109q7 76 -43 124.5t-134 62.5l-21 4l21 134l-107 -1l-21 -133l-23 -3q-98 -12 -161 -60t-77 -136q-14 -89 32.5 -129.5t144.5 -48.5l24 -2l-32 -198l-30 7q-36 8 -59 27q-30 23 -30 58h-109q-7 -78 47.5 -126t143.5 -62l22 -3l-18 -114h107l18 113l23 3
q103 13 169.5 63t80.5 142q15 93 -34.5 134.5t-153.5 49.5l-23 2l29 185l31 -10q28 -8 51.5 -28.5t22.5 -54.5zM394 567l-29 -183l-28 4q-32 4 -52 16q-35 20 -28 61q12 73 105 95zM425 86l32 198l29 -5q41 -8 57 -17q39 -24 32 -67q-7 -46 -42 -70t-76 -32z" />
    <glyph glyph-name="percent" unicode="%" horiz-adv-x="958" 
d="M148 543q-14 -85 28 -138t124 -53q83 0 139.5 52.5t70.5 138.5q14 84 -27.5 137.5t-122.5 53.5q-79 0 -139 -54t-73 -137zM314 443q-43 0 -60 30.5t-10 69.5q6 40 33 70t69 30q43 0 59.5 -30t10.5 -70q-6 -39 -32.5 -69.5t-69.5 -30.5zM215 97l54 -68l576 525l-53 69z
M760 301q-79 0 -138 -54.5t-72 -136.5q-14 -85 27.5 -138.5t122.5 -53.5q83 0 140.5 53t71.5 139q14 84 -28.5 137.5t-123.5 53.5zM816 110q-6 -40 -32 -70t-70 -30q-43 0 -59 30.5t-10 69.5t32 69.5t69 30.5t60 -30t10 -70z" />
    <glyph glyph-name="ampersand" unicode="&#x26;" horiz-adv-x="686" 
d="M532 44l101 -109l81 78l-111 122l97 126l-73 52l-89 -108l-19 20q-58 64 -84 99l-21 26l35 16q1 0 2 1l2 2q4 3 12.5 7t12.5 6q57 30 95.5 73.5t47.5 94.5q11 69 -33.5 110.5t-119.5 41.5q-27 0 -41 -1q-78 -3 -138 -48t-72 -117q-12 -69 36 -154l14 -23l-27 -15
q-68 -38 -107.5 -82t-49.5 -105q-15 -91 41.5 -148t150.5 -57q132 0 238 78zM434 614q14 0 26.5 -3t26 -9.5t20 -22t2.5 -37.5q-6 -39 -55 -82q-30 -24 -72 -46l-22 -12l-10 20q-34 68 -27 113q7 42 42.5 60.5t68.5 18.5zM236 240q20 20 61 46l20 12l12 -16q40 -50 124 -144
l18 -20l-24 -19q-72 -58 -145 -58q-51 0 -84.5 34t-24.5 89q7 42 43 76z" />
    <glyph glyph-name="quotesingle" unicode="'" horiz-adv-x="271" 
d="M279 562l14 90h-108l-14 -90q-13 -81 -3 -156h64q33 65 47 156z" />
    <glyph glyph-name="parenleft" unicode="(" horiz-adv-x="313" 
d="M268 -94q-42 86 -53 204t7 216q17 108 63.5 221.5t115.5 198.5l-68 55q-25 -26 -62 -78q-122 -178 -157 -397q-34 -216 31 -397q20 -51 37 -78z" />
    <glyph glyph-name="parenright" unicode=")" horiz-adv-x="313" 
d="M146 -71q122 178 157 397q35 221 -31 397q-17 47 -37 78l-86 -55q41 -85 52.5 -203.5t-6.5 -216.5q-17 -107 -64 -220.5t-115 -199.5l69 -55q28 29 61 78z" />
    <glyph glyph-name="asterisk" unicode="*" horiz-adv-x="473" 
d="M360 450l54 -14l58 -39l-44 -63l-21 14l-24 16q-1 1 -3 2.5t-3 2.5t-2 1q-22 -8 -37.5 -33t-19.5 -46l-5 -21h-70q3 22 4 30q4 24 5 33q2 8 2 10q0 -1 -2 -3l-27 36q-4 -2 -12.5 -6t-20 -10.5t-18.5 -10.5q-9 -5 -25 -15l-24 63l68 38q2 1 3 1l70 17l-57 32q-9 5 -64 42
l45 62l20 -14q36 -24 42 -27l36 43q-1 -7 4 -14l11 75h70l-19 -121l38 15q9 4 23 12q9 4 29 16q18 10 25 15l24 -61q-77 -43 -79 -44z" />
    <glyph glyph-name="plus" unicode="+" horiz-adv-x="678" 
d="M153 375l-15 -98h190l-33 -209h108l33 209h191l15 98h-190l33 209h-108l-33 -209h-191z" />
    <glyph glyph-name="comma" unicode="," horiz-adv-x="308" 
d="M106 -146q51 35 86 87t44 108q14 90 -59 90q-34 0 -57 -21t-28 -56q-8 -50 28 -69l20 -10l-11 -23q-23 -42 -50 -75z" />
    <glyph glyph-name="hyphen" unicode="-" horiz-adv-x="614" 
d="M563 277l16 98h-426l-15 -98h425z" />
    <glyph glyph-name="period" unicode="." horiz-adv-x="308" 
d="M238 62q5 35 -11.5 56t-49.5 21q-34 0 -57 -21t-28 -56t11 -55.5t50 -20.5q33 0 56.5 21t28.5 55z" />
    <glyph glyph-name="slash" unicode="/" horiz-adv-x="557" 
d="M618 700l-78 44l-498 -791l79 -45z" />
    <glyph glyph-name="zero" unicode="0" horiz-adv-x="978" 
d="M884 579q-109 102 -287 102q-176 0 -319 -102q-141 -102 -162 -238q-22 -138 86 -240q109 -102 287 -102q179 0 319 102q141 102 162 240q22 135 -86 238zM764 552l-506 -362l-11 25q-28 64 -19 126q13 82 75 143.5t136 89t145 27.5q79 0 144 -31zM324 129l501 360
l12 -23q31 -55 20 -125q-13 -82 -74 -144.5t-135 -90.5t-146 -28q-80 0 -143 32z" />
    <glyph glyph-name="one" unicode="1" horiz-adv-x="385" 
d="M196 411l87 53l-74 -465h114l104 659q-49 -31 -145 -92t-145 -92z" />
    <glyph glyph-name="two" unicode="2" horiz-adv-x="734" 
d="M475 681q-109 0 -210 -60t-129 -156h113q21 64 85.5 100t127.5 36q43 0 82.5 -16.5t65.5 -55t18 -90.5q-11 -69 -77 -117l-449 -323h570l12 79h-321l66 48l198 143q99 73 114 170q17 107 -66.5 174.5t-199.5 67.5z" />
    <glyph glyph-name="three" unicode="3" horiz-adv-x="606" 
d="M409 681q-85 0 -163 -46t-102 -119h113q17 40 58.5 62.5t80.5 22.5q46 0 83.5 -29t29.5 -82q-8 -46 -43.5 -73t-79.5 -35l-13 -85q41 -7 68.5 -34t19.5 -73q-8 -53 -55 -82.5t-93 -29.5q-39 0 -73.5 23t-38.5 63h-113q1 -74 64.5 -119.5t148.5 -45.5q93 0 176 53.5
t97 137.5q12 73 -46 131l-22 20l29 21q74 53 86 128q14 83 -53 137t-159 54z" />
    <glyph glyph-name="four" unicode="4" horiz-adv-x="824" 
d="M632 276h-414l64 405h-112l-77 -485h526l-31 -197h112l31 197h62l13 80h-62l64 405h-112z" />
    <glyph glyph-name="five" unicode="5" horiz-adv-x="687" 
d="M269 601h451l13 80h-563l-50 -317q30 0 88.5 0.5t87.5 0.5q90 0 107 -1q27 -1 53 -9.5t50 -24.5t36 -44.5t6 -64.5q-7 -45 -41 -79t-74 -49t-77 -15q-54 0 -100 31.5t-48 86.5h-113q-1 -88 74 -142.5t175 -54.5q106 0 203 62.5t113 159.5q11 66 -23.5 119t-94 79.5
t-127.5 26.5h-170z" />
    <glyph glyph-name="six" unicode="6" horiz-adv-x="605" 
d="M250 490q8 53 54.5 82.5t92.5 29.5q40 0 75.5 -22t39.5 -63h110q-1 73 -64.5 118t-147.5 45q-93 0 -175 -53t-95 -137l-48 -300q-14 -84 52 -137t158 -53t174.5 53t96.5 137q13 84 -52.5 136.5t-158.5 52.5q-51 0 -99 -16l-35 -11zM202 190q6 36 32.5 62.5t56.5 37.5
t58 11q47 0 85 -28.5t30 -82.5q-9 -54 -56.5 -83t-93.5 -29q-45 0 -82.5 29.5t-29.5 82.5z" />
    <glyph glyph-name="seven" unicode="7" horiz-adv-x="737" 
d="M85 -1h123l575 682h-613l-13 -80h434z" />
    <glyph glyph-name="eight" unicode="8" horiz-adv-x="605" 
d="M620 490q14 83 -52 136.5t-158 53.5q-93 0 -175 -53t-95 -137q-12 -75 46 -128l22 -21l-29 -21q-75 -54 -87 -130q-14 -84 52 -137t158 -53t174.5 53t96.5 137q12 76 -45 130l-22 21l29 21q73 54 85 128zM250 490q8 53 54.5 82.5t92.5 29.5q47 0 85 -29t29 -83
q-6 -37 -33 -63.5t-57.5 -37t-58.5 -10.5q-46 0 -83 29t-29 82zM464 190q-9 -54 -56.5 -83t-93.5 -29q-45 0 -82.5 29.5t-29.5 82.5q6 36 32.5 62.5t56.5 37.5t58 11q47 0 85 -28.5t30 -82.5z" />
    <glyph glyph-name="nine" unicode="9" horiz-adv-x="605" 
d="M620 490q14 83 -52 136.5t-158 53.5q-93 0 -175 -53t-95 -137q-14 -81 52.5 -135t156.5 -54q51 0 101 15l35 11l-21 -137q-9 -54 -56.5 -83t-93.5 -29q-39 0 -73.5 22.5t-39.5 62.5h-111q1 -73 64.5 -118t147.5 -45q92 0 174.5 53t96.5 137zM511 490q-6 -37 -33 -63.5
t-57.5 -37t-58.5 -10.5q-46 0 -83 29t-29 82t54.5 82.5t92.5 29.5q47 0 85 -29t29 -83z" />
    <glyph glyph-name="colon" unicode=":" horiz-adv-x="308" 
d="M240 538q-33 0 -56.5 -21t-28.5 -55q-5 -35 11 -56t50 -21q33 0 56.5 21t28.5 56q6 34 -11 55t-50 21zM92 62q-5 -35 11 -55.5t50 -20.5q33 0 56.5 21t28.5 55q5 35 -11.5 56t-49.5 21q-34 0 -57 -21t-28 -56z" />
    <glyph glyph-name="semicolon" unicode=";" horiz-adv-x="308" 
d="M301 462q6 34 -11 55t-50 21t-56.5 -21t-28.5 -55q-5 -35 11 -56t50 -21q33 0 56.5 21t28.5 56zM106 -146q51 35 86 87t44 108q14 90 -59 90q-34 0 -57 -21t-28 -56q-8 -50 28 -69l20 -10l-11 -23q-23 -42 -50 -75z" />
    <glyph glyph-name="less" unicode="&#x3c;" horiz-adv-x="571" 
d="M155 384l-16 -98l356 -168l16 101l-296 118l333 119l15 96z" />
    <glyph glyph-name="equal" unicode="=" horiz-adv-x="678" 
d="M648 412l16 98h-489l-16 -98h489zM132 240l-16 -98h489l16 98h-489z" />
    <glyph glyph-name="greater" unicode="&#x3e;" horiz-adv-x="571" 
d="M463 337l-334 -118l-16 -101l408 168l16 98l-356 168l-15 -96z" />
    <glyph glyph-name="question" unicode="?" horiz-adv-x="715" 
d="M137 473h108q17 55 94 79q49 16 109 16q65 0 104 -13q77 -22 66 -90q-5 -35 -40 -57q-24 -14 -59 -20q-33 -6 -100 -6h-55l-9 -56q-4 -29 8 -89h65l15 30l8 18l18 1q111 8 176.5 47t80.5 132q9 56 -9 97t-57.5 63t-88 31.5t-107.5 9.5q-73 0 -139 -18.5t-120 -64
t-68 -110.5zM356 -14q33 0 56 20.5t28 55.5t-11 56t-49 21q-34 0 -57 -21t-28 -56t11 -55.5t50 -20.5z" />
    <glyph glyph-name="at" unicode="@" horiz-adv-x="982" 
d="M852 428q-9 -59 -45.5 -105t-94.5 -60l-69 -16l48 57q22 26 28 64q13 80 -25 128.5t-114 48.5q-77 0 -130 -48.5t-66 -128.5t24 -129t113 -49h137q113 0 193.5 63.5t98.5 174.5q27 167 -69 262t-267 95q-179 0 -302.5 -115t-153.5 -302q-30 -193 75.5 -305.5
t299.5 -112.5q112 0 209 49q7 3 17 9l-26 64q-76 -40 -188 -40q-151 0 -233 90.5t-58 245.5q22 142 115.5 239t233.5 97q124 0 197 -74t52 -202zM537 275q-27 0 -42 17.5t-18 37t0 38.5q6 33 28.5 62.5t60.5 29.5q39 0 51.5 -29.5t7.5 -62.5t-26.5 -63t-61.5 -30z" />
    <glyph glyph-name="A" unicode="A" horiz-adv-x="824" 
d="M768 2h-103l-44 120q-34 -18 -66 -28q-65 -21 -129 -21q-66 0 -123 21q-33 12 -60 30l-85 -122l-102 -2l462 667zM438 153q78 0 157 41l-107 288l-196 -286q67 -43 146 -43z" />
    <glyph glyph-name="B" unicode="B" 
d="M566 681h-396l-108 -682h396q93 0 176 53.5t96 137.5q12 73 -45 131l-20 20l27 20q74 56 86 129q13 83 -53.5 137t-158.5 54zM554 601q47 0 90 -29.5t35 -81.5q-6 -33 -34.5 -59.5t-61 -38.5t-59.5 -12h-309l35 221h304zM167 78l36 222h308q46 0 87 -30.5t33 -79.5
q-8 -52 -60.5 -82t-99.5 -30h-304z" />
    <glyph glyph-name="C" unicode="C" horiz-adv-x="831" 
d="M778 538l83 60q-105 83 -264 83q-176 0 -319 -102q-141 -102 -162 -238q-23 -140 86 -240q109 -102 287 -102q150 0 293 81l-64 64q-98 -65 -223 -65q-54 0 -106 16t-96 47t-66 83t-12 116q10 63 48 114t90.5 82t109 47.5t108.5 16.5q124 0 207 -63z" />
    <glyph glyph-name="D" unicode="D" horiz-adv-x="820" 
d="M170 681l-108 -682h267q179 0 321 102q141 103 162 240q21 135 -87 238q-108 102 -288 102h-267zM247 601h178q52 0 107.5 -16.5t103 -47t73.5 -82.5t16 -114q-10 -63 -52 -115t-99 -83t-117.5 -48t-114.5 -17h-178z" />
    <glyph glyph-name="E" unicode="E" 
d="M808 681h-638l-108 -682h638l13 79h-549l27 169h294l13 81h-294l43 273h548z" />
    <glyph glyph-name="F" unicode="F" 
d="M808 681h-638l-108 -682l90 1l39 247h294l13 81h-294l43 273h548z" />
    <glyph glyph-name="G" unicode="G" horiz-adv-x="866" 
d="M778 538l83 60q-105 83 -264 83q-176 0 -319 -102q-141 -102 -162 -238q-23 -140 86 -240q109 -102 287 -102q187 0 333 112l32 203h-286l-13 -80h202l-11 -70l-13 -10q-103 -75 -238 -75q-54 0 -106 16t-96 47t-66 83t-12 116q10 63 48 114t90.5 82t109 47.5t108.5 16.5
q124 0 207 -63z" />
    <glyph glyph-name="H" unicode="H" 
d="M720 681l-70 -442h-461l70 442h-89l-108 -682h89l25 160h461l-25 -160h88l108 682h-88z" />
    <glyph glyph-name="I" unicode="I" horiz-adv-x="236" 
d="M74 -1h88l108 682h-88z" />
    <glyph glyph-name="J" unicode="J" horiz-adv-x="761" 
d="M806 681h-91l-68 -429q-9 -55 -55.5 -96.5t-100 -59.5t-99.5 -18q-43 0 -87 15.5t-78 51t-34 82.5h-95q-2 -68 39 -121.5t105.5 -80t136.5 -26.5q65 0 130 21q87 28 152 90t78 142z" />
    <glyph glyph-name="K" unicode="K" horiz-adv-x="729" 
d="M62 -1h92l25 158l141 119l206 -277l114 1l-256 327l390 354h-100l-477 -412l65 412h-92z" />
    <glyph glyph-name="L" unicode="L" 
d="M158 78l96 603h-84l-108 -682h638l13 79h-555z" />
    <glyph glyph-name="M" unicode="M" horiz-adv-x="924" 
d="M862 -1l109 689l-454 -334l-346 334l-109 -689l90 1l80 502l269 -258l349 249l-77 -493z" />
    <glyph glyph-name="N" unicode="N" 
d="M718 681l-75 -474l-473 474l-108 -682l91 1l77 488l473 -485l105 678h-90z" />
    <glyph glyph-name="O" unicode="O" horiz-adv-x="978" 
d="M884 579q-109 102 -287 102q-176 0 -319 -102q-141 -102 -162 -238q-22 -138 86 -240q109 -102 287 -102q179 0 319 102q141 102 162 240q22 135 -86 238zM584 601q53 0 107 -16.5t100.5 -47.5t71.5 -82.5t15 -113.5q-13 -82 -79.5 -144.5t-145 -90.5t-151.5 -28
q-53 0 -107.5 17t-101 48.5t-71.5 83.5t-15 114t51.5 113.5t98 82.5t116 47.5t111.5 16.5z" />
    <glyph glyph-name="P" unicode="P" 
d="M151 -1l31 197h242q75 0 149 28t130 85t67 130q17 107 -67.5 174.5t-201.5 67.5h-331l-108 -682h89zM489 601q43 1 89 -15.5t80 -55.5t26 -91t-54 -91t-97 -55.5t-96 -16.5h-242l51 325h243z" />
    <glyph glyph-name="Q" unicode="Q" horiz-adv-x="1026" 
d="M970 98l-6 -96h-1q-91 20 -161 76l-12 10q-136 -89 -301 -89q-178 0 -287 102q-108 102 -86 240q21 136 162 238q143 102 319 102q178 0 287 -102q107 -102 86 -238q-17 -110 -109 -197l1 -1l25 -14q41 -23 83 -31zM501 78q121 0 233 68l-3 4l-17 23q-45 64 -66 145h87
q13 -44 38 -83l20 -29l8 -8q64 63 77 143q10 62 -15 113.5t-71.5 82.5t-101 47.5t-106.5 16.5q-72 0 -151 -27.5t-146 -89.5t-80 -143q-10 -62 14.5 -114t71 -83.5t101 -48.5t107.5 -17z" />
    <glyph glyph-name="R" unicode="R" 
d="M692 85q-86 30 -119 101l-11 24l27 13q65 31 118 92.5t63 123.5q17 107 -67.5 174.5t-201.5 67.5h-331l-108 -682h81l31 197h250q14 0 44 2l20 1l3 -18q35 -151 188 -178zM238 601h251q43 1 89.5 -15.5t81 -55.5t26.5 -91t-54.5 -91t-98 -55.5t-96.5 -16.5h-250z" />
    <glyph glyph-name="S" unicode="S" horiz-adv-x="608" 
d="M601 513q0 81 -50.5 126t-139.5 45q-94 0 -177.5 -54.5t-96.5 -139.5q-14 -86 54.5 -138.5t168.5 -50.5q44 1 81 -29t29 -82t-57.5 -83.5t-94.5 -31.5q-48 0 -89 21t-52 71h-92q0 -76 61.5 -123.5t158.5 -47.5q95 0 166 55t85 139q13 81 -40.5 129.5t-150.5 48.5
q-62 0 -109 34.5t-39 87.5t65 87t118 34q47 1 86.5 -20.5t41.5 -77.5h73z" />
    <glyph glyph-name="T" unicode="T" 
d="M796 608l12 73h-638l-12 -73h281l-96 -609h77l96 609h280z" />
    <glyph glyph-name="U" unicode="U" 
d="M259 20q57 -21 122 -21q66 0 129 21q87 28 152.5 90t77.5 142l68 429h-77l-68 -429q-7 -41 -38 -76t-72.5 -55.5t-83 -31.5t-75.5 -11t-72.5 11t-74 31.5t-55.5 55.5t-13 76l68 429h-77l-68 -429q-13 -80 32.5 -142t124.5 -90z" />
    <glyph glyph-name="V" unicode="V" horiz-adv-x="732" 
d="M266 681h-96l201 -649q68 108 203.5 324.5t203.5 324.5h-95l-280 -457z" />
    <glyph glyph-name="W" unicode="W" horiz-adv-x="1073" 
d="M273 681h-103l201 -649l232 390l109 -390q51 81 406 649h-101l-266 -421l-119 357l-222 -356z" />
    <glyph glyph-name="X" unicode="X" horiz-adv-x="716" 
d="M63 -1h113l224 270l136 -270h117l-179 342l288 340h-108l-231 -272l-144 272h-109l180 -340z" />
    <glyph glyph-name="Y" unicode="Y" horiz-adv-x="726" 
d="M263 681h-93l187 -451l-35 -231h81l38 232l331 450h-88l-272 -373z" />
    <glyph glyph-name="Z" unicode="Z" horiz-adv-x="760" 
d="M787 681h-617l-12 -72h465l-538 -610h613l12 75h-462z" />
    <glyph glyph-name="bracketleft" unicode="[" horiz-adv-x="354" 
d="M422 788h-203l-146 -924h202l16 98h-95l115 727h95z" />
    <glyph glyph-name="backslash" unicode="\" horiz-adv-x="557" 
d="M407 -92l92 44l-245 793l-93 -45z" />
    <glyph glyph-name="bracketright" unicode="]" horiz-adv-x="354" 
d="M36 -136h202l147 924h-203l-16 -99h96l-116 -727h-95z" />
    <glyph glyph-name="asciicircum" unicode="^" horiz-adv-x="526" 
d="M416 653h-101l-224 -382h102l163 312l66 -312h98z" />
    <glyph glyph-name="underscore" unicode="_" horiz-adv-x="614" 
d="M499 -128l15 97h-425l-15 -97h425z" />
    <glyph glyph-name="a" unicode="a" horiz-adv-x="824" 
d="M768 2h-103l-44 120q-34 -18 -66 -28q-65 -21 -129 -21q-66 0 -123 21q-33 12 -60 30l-85 -122l-102 -2l462 667zM438 153q78 0 157 41l-107 288l-196 -286q67 -43 146 -43z" />
    <glyph glyph-name="b" unicode="b" 
d="M566 681h-396l-108 -682h396q93 0 176 53.5t96 137.5q12 73 -45 131l-20 20l27 20q74 56 86 129q13 83 -53.5 137t-158.5 54zM554 601q47 0 90 -29.5t35 -81.5q-6 -33 -34.5 -59.5t-61 -38.5t-59.5 -12h-309l35 221h304zM167 78l36 222h308q46 0 87 -30.5t33 -79.5
q-8 -52 -60.5 -82t-99.5 -30h-304z" />
    <glyph glyph-name="c" unicode="c" horiz-adv-x="831" 
d="M778 538l83 60q-105 83 -264 83q-176 0 -319 -102q-141 -102 -162 -238q-23 -140 86 -240q109 -102 287 -102q150 0 293 81l-64 64q-98 -65 -223 -65q-54 0 -106 16t-96 47t-66 83t-12 116q10 63 48 114t90.5 82t109 47.5t108.5 16.5q124 0 207 -63z" />
    <glyph glyph-name="d" unicode="d" horiz-adv-x="820" 
d="M170 681l-108 -682h267q179 0 321 102q141 103 162 240q21 135 -87 238q-108 102 -288 102h-267zM247 601h178q52 0 107.5 -16.5t103 -47t73.5 -82.5t16 -114q-10 -63 -52 -115t-99 -83t-117.5 -48t-114.5 -17h-178z" />
    <glyph glyph-name="e" unicode="e" 
d="M808 681h-638l-108 -682h638l13 79h-549l27 169h294l13 81h-294l43 273h548z" />
    <glyph glyph-name="f" unicode="f" 
d="M808 681h-638l-108 -682l90 1l39 247h294l13 81h-294l43 273h548z" />
    <glyph glyph-name="g" unicode="g" horiz-adv-x="866" 
d="M778 538l83 60q-105 83 -264 83q-176 0 -319 -102q-141 -102 -162 -238q-23 -140 86 -240q109 -102 287 -102q187 0 333 112l32 203h-286l-13 -80h202l-11 -70l-13 -10q-103 -75 -238 -75q-54 0 -106 16t-96 47t-66 83t-12 116q10 63 48 114t90.5 82t109 47.5t108.5 16.5
q124 0 207 -63z" />
    <glyph glyph-name="h" unicode="h" 
d="M720 681l-70 -442h-461l70 442h-89l-108 -682h89l25 160h461l-25 -160h88l108 682h-88z" />
    <glyph glyph-name="i" unicode="i" horiz-adv-x="236" 
d="M74 -1h88l108 682h-88z" />
    <glyph glyph-name="j" unicode="j" horiz-adv-x="761" 
d="M806 681h-91l-68 -429q-9 -55 -55.5 -96.5t-100 -59.5t-99.5 -18q-43 0 -87 15.5t-78 51t-34 82.5h-95q-2 -68 39 -121.5t105.5 -80t136.5 -26.5q65 0 130 21q87 28 152 90t78 142z" />
    <glyph glyph-name="k" unicode="k" horiz-adv-x="729" 
d="M62 -1h92l25 158l141 119l206 -277l114 1l-256 327l390 354h-100l-477 -412l65 412h-92z" />
    <glyph glyph-name="l" unicode="l" 
d="M158 78l96 603h-84l-108 -682h638l13 79h-555z" />
    <glyph glyph-name="m" unicode="m" horiz-adv-x="924" 
d="M862 -1l109 689l-454 -334l-346 334l-109 -689l90 1l80 502l269 -258l349 249l-77 -493z" />
    <glyph glyph-name="n" unicode="n" 
d="M718 681l-75 -474l-473 474l-108 -682l91 1l77 488l473 -485l105 678h-90z" />
    <glyph glyph-name="o" unicode="o" horiz-adv-x="978" 
d="M884 579q-109 102 -287 102q-176 0 -319 -102q-141 -102 -162 -238q-22 -138 86 -240q109 -102 287 -102q179 0 319 102q141 102 162 240q22 135 -86 238zM584 601q53 0 107 -16.5t100.5 -47.5t71.5 -82.5t15 -113.5q-13 -82 -79.5 -144.5t-145 -90.5t-151.5 -28
q-53 0 -107.5 17t-101 48.5t-71.5 83.5t-15 114t51.5 113.5t98 82.5t116 47.5t111.5 16.5z" />
    <glyph glyph-name="p" unicode="p" 
d="M151 -1l31 197h242q75 0 149 28t130 85t67 130q17 107 -67.5 174.5t-201.5 67.5h-331l-108 -682h89zM489 601q43 1 89 -15.5t80 -55.5t26 -91t-54 -91t-97 -55.5t-96 -16.5h-242l51 325h243z" />
    <glyph glyph-name="q" unicode="q" horiz-adv-x="1026" 
d="M970 98l-6 -96h-1q-91 20 -161 76l-12 10q-136 -89 -301 -89q-178 0 -287 102q-108 102 -86 240q21 136 162 238q143 102 319 102q178 0 287 -102q107 -102 86 -238q-17 -110 -109 -197l1 -1l25 -14q41 -23 83 -31zM501 78q121 0 233 68l-3 4l-17 23q-45 64 -66 145h87
q13 -44 38 -83l20 -29l8 -8q64 63 77 143q10 62 -15 113.5t-71.5 82.5t-101 47.5t-106.5 16.5q-72 0 -151 -27.5t-146 -89.5t-80 -143q-10 -62 14.5 -114t71 -83.5t101 -48.5t107.5 -17z" />
    <glyph glyph-name="r" unicode="r" 
d="M692 85q-86 30 -119 101l-11 24l27 13q65 31 118 92.5t63 123.5q17 107 -67.5 174.5t-201.5 67.5h-331l-108 -682h81l31 197h250q14 0 44 2l20 1l3 -18q35 -151 188 -178zM238 601h251q43 1 89.5 -15.5t81 -55.5t26.5 -91t-54.5 -91t-98 -55.5t-96.5 -16.5h-250z" />
    <glyph glyph-name="s" unicode="s" horiz-adv-x="608" 
d="M601 513q0 81 -50.5 126t-139.5 45q-94 0 -177.5 -54.5t-96.5 -139.5q-14 -86 54.5 -138.5t168.5 -50.5q44 1 81 -29t29 -82t-57.5 -83.5t-94.5 -31.5q-48 0 -89 21t-52 71h-92q0 -76 61.5 -123.5t158.5 -47.5q95 0 166 55t85 139q13 81 -40.5 129.5t-150.5 48.5
q-62 0 -109 34.5t-39 87.5t65 87t118 34q47 1 86.5 -20.5t41.5 -77.5h73z" />
    <glyph glyph-name="t" unicode="t" 
d="M796 608l12 73h-638l-12 -73h281l-96 -609h77l96 609h280z" />
    <glyph glyph-name="u" unicode="u" 
d="M259 20q57 -21 122 -21q66 0 129 21q87 28 152.5 90t77.5 142l68 429h-77l-68 -429q-7 -41 -38 -76t-72.5 -55.5t-83 -31.5t-75.5 -11t-72.5 11t-74 31.5t-55.5 55.5t-13 76l68 429h-77l-68 -429q-13 -80 32.5 -142t124.5 -90z" />
    <glyph glyph-name="v" unicode="v" horiz-adv-x="732" 
d="M266 681h-96l201 -649q68 108 203.5 324.5t203.5 324.5h-95l-280 -457z" />
    <glyph glyph-name="w" unicode="w" horiz-adv-x="1073" 
d="M273 681h-103l201 -649l232 390l109 -390q51 81 406 649h-101l-266 -421l-119 357l-222 -356z" />
    <glyph glyph-name="x" unicode="x" horiz-adv-x="716" 
d="M63 -1h113l224 270l136 -270h117l-179 342l288 340h-108l-231 -272l-144 272h-109l180 -340z" />
    <glyph glyph-name="y" unicode="y" horiz-adv-x="726" 
d="M263 681h-93l187 -451l-35 -231h81l38 232l331 450h-88l-272 -373z" />
    <glyph glyph-name="z" unicode="z" horiz-adv-x="760" 
d="M787 681h-617l-12 -72h465l-538 -610h613l12 75h-462z" />
    <glyph glyph-name="braceleft" unicode="{" horiz-adv-x="388" 
d="M417 689h22l15 99h-21q-82 0 -140 -53t-72 -138l-22 -143q-6 -33 -29 -56t-57 -23h-23l-15 -98h23q34 0 50 -23t10 -56l-22 -142q-14 -86 26.5 -139t123.5 -53h22l15 98h-21q-32 0 -49.5 20.5t-11.5 53.5l21 134q13 90 -34 136l-21 20l27 21q64 46 77 135l21 133
q6 34 29.5 54t55.5 20z" />
    <glyph glyph-name="bar" unicode="|" horiz-adv-x="296" 
d="M181 -136l146 924l-108 -1l-146 -923h108z" />
    <glyph glyph-name="braceright" unicode="}" horiz-adv-x="385" 
d="M203 788h-21l-16 -99h22q32 0 49 -20t12 -54l-21 -133q-13 -87 36 -135l21 -21l-27 -20q-66 -49 -79 -136l-22 -134q-5 -33 -29 -53.5t-55 -20.5h-22l-15 -98h21q83 0 140.5 53t71.5 139l22 142q6 33 29 56t57 23h21l16 98h-22q-34 0 -50 23t-10 56l22 143q14 85 -27 138
t-124 53z" />
    <glyph glyph-name="uni00A0" unicode="&#xa0;" horiz-adv-x="326" 
 />
    <glyph glyph-name="cent" unicode="&#xa2;" horiz-adv-x="714" 
d="M448 94l74 466l35 -18q36 -20 60 -59.5t28 -83.5h117q-3 99 -57.5 169.5t-146.5 90.5l-19 5l19 123l-107 -1l-20 -124l-20 -5q-116 -26 -197 -118t-100 -213q-20 -121 32 -213t160 -118l19 -5l-20 -127h107l20 126l21 4q98 20 176 91.5t110 168.5h-117
q-18 -44 -55.5 -83.5t-78.5 -57.5zM415 558l-74 -465l-34 21q-50 31 -69 89t-9 123q10 66 47 123t98 88z" />
    <glyph glyph-name="copyright" unicode="&#xa9;" horiz-adv-x="835" 
d="M418 686q103 0 186 -51.5t126 -130.5t43 -166t-43 -166t-126 -130.5t-186 -51.5q-155 0 -255.5 106t-100.5 242t100.5 242t255.5 106zM418 47q126 0 210 88t84 203t-84 203t-210 88t-210.5 -88t-84.5 -203t84.5 -203t210.5 -88zM312 338q0 -39 32 -69q32 -29 84.5 -33
t85.5 24l63 -52q-61 -56 -146 -56q-81 0 -145 56q-61 53 -61 130q0 74 61 130q60 55 145 55t146 -55l-56 -50q-28 22 -64.5 27t-68.5 -6t-54 -38t-22 -63z" />
    <glyph glyph-name="guillemotleft" unicode="&#xab;" horiz-adv-x="482" 
d="M324 520h-78l-143 -176l87 -176h79l-79 176zM516 520h-79l-143 -176l88 -176h78l-78 176z" />
    <glyph glyph-name="registered" unicode="&#xae;" horiz-adv-x="846" 
d="M62 338q0 -89 44 -169t128.5 -132t189.5 -52q156 0 258 107.5t102 245.5t-102 245.5t-258 107.5q-105 0 -189.5 -52t-128.5 -132t-44 -169zM645 150l-18 -18q-87 -84 -204 -84q-125 0 -208.5 88t-83.5 202t83.5 202t208.5 88q126 0 209 -87.5t83 -202.5q0 -104 -70 -188z
M518 280l14 -19q19 -17 42 -22v-65q-56 5 -91 40q-20 20 -29 47q-3 0 -10 -0.5t-12 -0.5h-87v-87h-74v325h161q63 0 107 -35t44 -83q0 -64 -65 -100zM345 439v-120h87q33 0 55.5 17.5t22.5 43.5q0 24 -22.5 41.5t-55.5 17.5h-87z" />
    <glyph glyph-name="degree" unicode="&#xb0;" horiz-adv-x="532" 
d="M308 257q90 0 155.5 56.5t80.5 148.5q15 93 -32.5 148.5t-139.5 55.5q-90 0 -156 -56.5t-81 -147.5q-15 -92 33.5 -148.5t139.5 -56.5zM357 568q45 0 65 -31t14 -75q-7 -44 -37.5 -75.5t-75.5 -31.5q-46 0 -66.5 31t-13.5 76q7 44 38 75t76 31z" />
    <glyph glyph-name="guillemotright" unicode="&#xbb;" horiz-adv-x="482" 
d="M75 168h79l143 176l-88 176h-79l79 -176zM266 168h79l143 176l-87 176h-78l77 -176z" />
    <glyph glyph-name="multiply" unicode="&#xd7;" horiz-adv-x="642" 
d="M501 72l82 74l-140 180l197 180l-58 75l-197 -180l-141 180l-82 -75l139 -180l-196 -178l59 -76l197 179z" />
    <glyph glyph-name="divide" unicode="&#xf7;" horiz-adv-x="678" 
d="M411 460q28 0 50.5 19.5t27.5 48.5q5 30 -11 50t-45 20t-50.5 -20t-26.5 -50q-5 -29 11 -48.5t44 -19.5zM153 375l-15 -98h489l15 98h-489zM347 54q28 0 50 20t27 49q5 30 -11 50t-45 20q-28 0 -50 -20t-26 -50q-5 -29 10.5 -49t44.5 -20z" />
    <glyph glyph-name="endash" unicode="&#x2013;" horiz-adv-x="994" 
d="M944 277l15 98h-806l-15 -98h806z" />
    <glyph glyph-name="emdash" unicode="&#x2014;" horiz-adv-x="1248" 
d="M1198 277l16 98h-1061l-15 -98h1060z" />
    <glyph glyph-name="quoteleft" unicode="&#x2018;" horiz-adv-x="272" 
d="M266 663q-51 -36 -86 -87.5t-44 -107.5q-6 -40 10 -65t49 -25q34 0 57 20.5t28 55.5q8 52 -28 69l-20 10l11 23q22 43 50 75z" />
    <glyph glyph-name="quoteright" unicode="&#x2019;" horiz-adv-x="272" 
d="M299 576q7 40 -9 65t-49 25q-34 0 -57 -20.5t-29 -55.5q-8 -50 30 -69l20 -10l-12 -23q-19 -39 -50 -75l27 -32q17 12 30 25q85 79 99 170z" />
    <glyph glyph-name="quotesinglbase" unicode="&#x201a;" horiz-adv-x="272" 
d="M236 178q7 40 -9 64.5t-50 24.5q-33 0 -56 -20.5t-29 -54.5q-8 -50 30 -71l20 -10l-12 -23q-21 -43 -50 -74l27 -32q17 12 30 25q84 75 99 171z" />
    <glyph glyph-name="quotedblleft" unicode="&#x201c;" horiz-adv-x="525" 
d="M266 663q-51 -36 -86 -87.5t-44 -107.5q-6 -40 10 -65t49 -25q34 0 57 20.5t28 55.5q8 52 -28 69l-20 10l11 23q22 43 50 75zM390 468q-6 -40 10 -65t49 -25q34 0 57 20.5t28 55.5q8 52 -28 69l-20 10l12 23q22 44 49 75l-26 32q-51 -35 -86.5 -87t-44.5 -108z" />
    <glyph glyph-name="quotedblright" unicode="&#x201d;" horiz-adv-x="525" 
d="M299 576q7 40 -9 65t-49 25q-34 0 -57 -20.5t-29 -55.5q-8 -50 30 -69l20 -10l-12 -23q-19 -39 -50 -75l27 -32q17 12 30 25q85 79 99 170zM554 576q6 40 -10 65t-49 25t-56.5 -21t-28.5 -55q-8 -51 29 -69l20 -10l-11 -23q-23 -47 -50 -76l27 -31q48 33 84 87t45 108z
" />
    <glyph glyph-name="quotedblbase" unicode="&#x201e;" horiz-adv-x="525" 
d="M236 178q7 39 -9.5 64t-49.5 25t-56 -20.5t-29 -54.5q-8 -50 30 -71l20 -10l-12 -23q-21 -43 -50 -74l27 -32q17 12 30 25q84 75 99 171zM491 178q6 40 -10 64.5t-49 24.5q-34 0 -57 -20.5t-28 -54.5q-8 -51 29 -71l20 -10l-12 -23q-17 -34 -50 -74l27 -32q15 11 31 25
q83 75 99 171z" />
    <glyph glyph-name="bullet" unicode="&#x2022;" horiz-adv-x="361" 
d="M349 326q9 56 -17.5 90t-79.5 34q-55 0 -92.5 -34t-45.5 -90q-9 -56 18 -89.5t81 -33.5q53 0 90.5 34t45.5 89z" />
    <glyph glyph-name="ellipsis" unicode="&#x2026;" horiz-adv-x="896" 
d="M133 -14q34 0 57 20.5t28 55.5t-11 56t-50 21q-33 0 -56.5 -21t-28.5 -56q-5 -34 11.5 -55t49.5 -21zM384 62q-6 -35 11 -55.5t51 -20.5t57.5 21t28.5 55q5 35 -11.5 56t-50.5 21t-57.5 -21t-28.5 -56zM759 -14q34 0 57 20.5t28 55.5t-11.5 56t-49.5 21t-56.5 -21
t-28.5 -56q-6 -35 10.5 -55.5t50.5 -20.5z" />
    <glyph glyph-name="guilsinglleft" unicode="&#x2039;" horiz-adv-x="289" 
d="M324 520h-78l-143 -176l87 -176h79l-79 176z" />
    <glyph glyph-name="guilsinglright" unicode="&#x203a;" horiz-adv-x="289" 
d="M75 168h79l143 176l-88 176h-79l79 -176z" />
    <glyph glyph-name="Euro" unicode="&#x20ac;" horiz-adv-x="709" 
d="M676 99l-74 73q-78 -81 -173 -81q-69 0 -114 42t-56 110l-5 34h310l15 98h-310l16 34q32 68 90.5 110t128.5 42q99 0 147 -82l97 74q-78 113 -228 113q-120 0 -218 -74t-139 -195l-7 -22h-66l-15 -98h66v-21q2 -121 77 -195.5t195 -74.5q150 0 263 113z" />
    <glyph glyph-name="trademark" unicode="&#x2122;" horiz-adv-x="814" 
d="M562 522l117 92l73 56v-321h-73v182l-65 -49l-52 -41l-51 41l-65 49v-182h-73v260h-115v-260h-72v260h-117v58h304v3l73 -56z" />
    <glyph glyph-name="minus" unicode="&#x2212;" horiz-adv-x="678" 
d="M627 277l15 98h-489l-15 -98h489z" />
    <glyph glyph-name="_FSHallmark" horiz-adv-x="778" 
d="M739 561h-698v82h698v-82zM589 170q-31 0 -58 7q-24 7 -49 24q-19 13 -35 39q-13 22 -13 55l81 -1q0 -5 4 -13q1 -11 12 -22q13 -11 21 -14q16 -8 39 -8q29 0 45 9q17 9 17 23q0 24 -67 38q-67 18 -102 38q-42 20 -42 69q0 38 28 63q22 20 61 33q31 7 58 7q44 0 78 -15
q38 -16 56 -56q10 -23 10 -40h-84q0 7 -7 18q-5 8 -15 15q-11 5 -20 8q-10 3 -20 3q-19 0 -41 -11q-16 -10 -16 -24q0 -25 16 -34q18 -10 36 -14l31 -8l25 -5q16 -6 25 -6q17 -4 20 -6q16 -7 18 -8q17 -10 26 -24q9 -13 11 -36q1 -21 -9 -42q-19 -37 -62 -50
q-39 -12 -78 -12zM133 170h-92v346h294v-78h-202v-79h168v-77h-168v-112zM369 171q-15 0 -28 13q-15 12 -15 27q0 16 13 31q11 10 30 10q18 0 33 -12q14 -11 14 -29q0 -17 -14 -29q-16 -11 -33 -11zM738 43h-699v83h699v-83z" />
    <glyph glyph-name="_Fontastica" horiz-adv-x="604" 
d="M126 129h-86q-1 1 -1 4v507h380v-78h-293v-208h293v-79h-293v-146zM562 130h-380v78h293v209h-293v78h293v145h87v-510zM482 47l-15 5q-6 8 -7 17q0 9 6 17q10 8 16 8q8 0 20 -8l-4 -7l-5 4q-1 1 -7 1h-4l-3 -2q-3 -1 -4 -3q-5 -3 -5 -7q0 -7 4 -11q5 -5 8 -5q8 0 16 5
l4 -5q-7 -9 -20 -9zM51 49h-11v43h32v-8h-21v-11h20v-7h-20v-17zM111 46q-6 0 -9 3q-13 4 -13 19q0 12 5 18q6 6 18 6q15 0 22 -11q6 -9 1 -20q-3 -11 -19 -14zM190 47q-1 0 -6 5l-6 6q0 2 -2 4q-2 1 -2 2l-8 11v-26h-10v43h8q4 -1 5 -6q1 -1 4 -5t5 -6q5 -5 9 -13v30h10
v-43h-3q-3 -2 -4 -2zM238 49h-9v35h-15v8h37v-8h-13v-35zM343 47q-12 0 -19 7v2l1 2l1 3l15 -5h5l4 2q0 7 -10 10q-2 0 -2 1h-4q-8 3 -8 10q-2 8 7 11q4 2 9 2q10 0 18 -3l-3 -8l-3 1h-3q-1 1 -3 1q-1 0 -2 1h-5q-3 0 -3 -2q-1 -1 3 -7l10 -3q9 0 9 -11q2 -9 -8 -12
q-1 -2 -9 -2zM399 49h-10v35h-15v8h39v-8h-14v-35zM442 49h-12v43h12v-43zM526 49h-10q11 19 18 43h12l9 -20q2 -8 5 -14q1 -1 2 -4.5t3 -4.5h-10l-5 9h-20zM270 49h-8l18 41h10q0 -2 5 -9q3 -5 5 -10q1 -2 4 -13q0 -1 4 -9h-10q-1 1 -1 3l-2 6h-21v-6v-1zM112 56h4
q8 3 8 13v2q0 9 -3 10q-5 3 -10 3q-1 -1 -4 -1l-3 -3q-2 -3 -4 -5q-6 -3 -2 -9q4 -10 14 -10zM285 82l-8 -16h15l-2 3q-2 4 -3 4q-1 1 -1 5q0 3 -1 4zM540 82l-7 -16h14l-1 3q0 2 -2 4q-2 1 -2 5q0 3 -2 4z" />
    </font>
</defs>
</svg>
