<?xml version="1.0" encoding="UTF-8"?>
<svg xmlns="http://www.w3.org/2000/svg" version="1.2">
<font id="Zayley Regular">
<font-face  font-family="Zayley" units-per-em="1024" ascent="975" descent="-300" font-style="normal" font-weight="400" font-stretch="normal" cap-height="750" x-height="520" underline-position="-125" underline-thickness="50" />
<missing-glyph  horiz-adv-x="650" d="" />
<glyph glyph-name="NULL" d="" />
<glyph glyph-name="CR" unicode="&#xd;" horiz-adv-x="256" d="" />
<glyph glyph-name="space" unicode="&#x20;" horiz-adv-x="144" d="" />
<glyph glyph-name="exclam" unicode="&#x21;" horiz-adv-x="132" d="M36 0 L96 0 L96 60 L36 60 L36 0 L36 0 Z M45 750 L45 440 L61 204 L71 204 L87 440 L87 750 L45 750 L45 750 Z " />
<glyph glyph-name="quotedbl" unicode="&#x22;" horiz-adv-x="270" d="M167 750 L167 695 L186 650 L204 650 L223 695 L223 750 L167 750 L167 750 Z M77 750 L77 695 L96 650 L114 650 L133 695 L133 750 L77 750 L77 750 Z " />
<glyph glyph-name="numbersign" unicode="&#x23;" horiz-adv-x="541" d="M402 750 L375 535 L226 535 L253 750 L219 750 L192 535 L67 535 L63 505 L188 505 L155 245 L24 245 L20 215 L151 215 L124 0 L158 0 L185 215 L334 215 L307 0 L342 0 L369 215 L475 215 L479 245 L373 245 L406 505 L519 505 L523 535 L410 535 L437 750 L402 750 L402 750 Z M223 505 L372 505 L339 245 L190 245 L223 505 L223 505 Z " />
<glyph glyph-name="dollar" unicode="&#x24;" horiz-adv-x="450" d="M265 825 L265 753 C247 757 227 759 205 759 C191 759 178 757 166 753 L166 824 L140 824 L140 740 C90 708 60 638 60 546 C60 486 87 438 140 403 L140 60 C108 89 89 134 89 195 L72 183 L72 183 L56 171 L56 111 C58 114 60 117 62 120 C73 70 101 34 141 12 L141 -78 L167 -78 L167 0 C192 -9 220 -13 251 -13 C256 -13 261 -13 266 -13 L266 -79 L292 -79 L292 -9 C374 11 416 92 416 205 C416 282 374 341 292 380 L292 699 C327 677 348 639 348 585 L376 610 L376 670 C374 667 372 663 370 660 L370 660 C358 699 331 727 293 743 L293 823 L265 825 L265 825 Z M267 393 C257 397 247 401 237 404 C210 413 187 423 168 435 L168 711 C180 718 193 722 207 722 C229 722 249 719 267 713 L267 393 L267 393 Z M142 456 C116 481 103 512 103 549 C103 609 117 658 142 688 L142 456 L142 456 Z M168 386 C185 377 204 369 225 362 C240 357 254 352 267 346 L267 21 C262 20 257 20 252 20 C220 20 192 26 168 39 L168 386 L168 386 Z M293 332 C349 300 377 257 377 203 C377 113 348 48 293 27 L293 332 L293 332 Z " />
<glyph glyph-name="percent" unicode="&#x25;" horiz-adv-x="564" d="M491 140 C491 61 472 9 434 9 C397 9 378 61 378 140 C378 219 397 271 434 271 C472 271 491 219 491 140 L491 140 Z M434 -10 C485 -10 511 50 511 140 C511 230 485 290 434 290 C383 290 357 230 357 140 C357 50 383 -10 434 -10 L434 -10 Z M73 610 C73 689 92 741 130 741 C167 741 187 689 187 610 C187 531 167 479 130 479 C92 479 73 531 73 610 L73 610 Z M130 760 C79 760 53 700 53 610 C53 520 79 460 130 460 C181 460 207 520 207 610 C207 700 181 760 130 760 L130 760 Z M122 0 L134 0 L442 750 L430 750 L122 0 L122 0 Z " />
<glyph glyph-name="ampersand" unicode="&#x26;" horiz-adv-x="607" d="M548 2 L543 32 C529 27 514 23 506 23 C483 23 458 48 429 89 C465 153 485 242 483 348 L450 356 C452 260 437 179 408 120 C401 130 394 141 387 153 C323 255 274 333 252 367 L258 370 C345 477 403 542 403 533 C403 629 358 694 291 694 C217 694 168 628 168 528 C168 463 183 401 207 371 L207 371 C117 260 57 185 57 183 C57 61 139 -20 261 -20 C321 -20 372 8 410 57 C443 15 473 -10 505 -10 C514 -10 532 -5 550 2 L548 2 L548 2 Z M239 388 C217 414 203 471 203 531 C203 611 239 664 292 664 C341 664 374 611 374 531 C374 543 320 485 239 387 L239 388 L239 388 Z M223 347 C242 315 288 242 349 145 C363 122 376 101 389 82 C358 37 316 12 267 12 C164 12 95 81 95 184 C95 187 147 251 223 345 L223 347 L223 347 Z " />
<glyph glyph-name="quotesingle" unicode="&#x27;" horiz-adv-x="180" d="M77 750 L77 695 L96 650 L114 650 L133 695 L133 750 L77 750 L77 750 Z " />
<glyph glyph-name="parenleft" unicode="&#x28;" horiz-adv-x="324" d="M292 795 C174 696 113 540 113 335 C113 137 174 -16 292 -115 L305 -101 C194 -8 137 140 137 335 C137 536 194 688 305 781 L292 795 L292 795 Z " />
<glyph glyph-name="parenright" unicode="&#x29;" horiz-adv-x="312" d="M33 -115 C151 -16 211 140 211 345 C211 543 151 696 33 795 L20 781 C131 688 188 540 188 345 C188 144 131 -8 20 -101 L33 -115 L33 -115 Z " />
<glyph glyph-name="asterisk" unicode="&#x2a;" horiz-adv-x="339" d="M317 664 L179 612 L185 760 L155 760 L161 612 L22 664 L13 635 L155 595 L64 479 L88 462 L170 585 L252 462 L276 479 L185 595 L327 635 L317 664 L317 664 Z " />
<glyph glyph-name="plus" unicode="&#x2b;" horiz-adv-x="590" d="M283 249 L283 0 L307 0 L307 249 L565 249 L565 271 L307 271 L307 520 L283 520 L283 271 L25 271 L25 249 L283 249 L283 249 Z " />
<glyph glyph-name="comma" unicode="&#x2c;" horiz-adv-x="160" d="M50 60 L50 0 L87 0 C87 -43 77 -60 50 -60 L50 -79 C93 -79 110 -57 110 0 L110 60 L50 60 L50 60 Z " />
<glyph glyph-name="hyphen" unicode="&#x2d;" horiz-adv-x="280" d="M50 248 L230 248 L230 278 L50 278 L50 248 L50 248 Z " />
<glyph glyph-name="period" unicode="&#x2e;" horiz-adv-x="160" d="M50 0 L110 0 L110 60 L50 60 L50 0 L50 0 Z " />
<glyph glyph-name="slash" unicode="&#x2f;" horiz-adv-x="251" d="M0 0 L16 0 L251 750 L236 750 L0 0 L0 0 Z " />
<glyph glyph-name="zero" unicode="0" horiz-adv-x="615" d="M318 23 C185 23 116 143 116 375 C116 597 191 727 318 727 C444 727 519 597 519 375 C519 143 450 23 318 23 L318 23 Z M75 375 C75 121 157 -10 318 -10 C478 -10 560 121 560 375 C560 618 470 760 318 760 C165 760 75 618 75 375 L75 375 Z " />
<glyph glyph-name="one" unicode="1" horiz-adv-x="321" d="M202 0 L222 0 L282 0 C281 0 277 3 272 7 C265 10 261 13 262 13 L222 13 L222 697 L222 750 L191 750 L50 551 L50 502 L182 691 L182 13 L142 13 C142 13 138 10 132 7 C126 3 122 0 122 0 L182 0 L202 0 L202 0 Z " />
<glyph glyph-name="two" unicode="2" horiz-adv-x="491" d="M68 0 L111 0 L456 0 L456 19 L456 38 L456 99 C456 99 454 95 450 89 C446 83 443 79 443 79 L443 38 L113 38 C122 145 172 207 283 300 C378 380 441 469 441 522 C441 666 372 761 268 761 C163 761 94 671 94 536 C94 485 111 429 136 397 L172 414 C148 445 132 493 132 536 C132 651 186 728 268 728 C348 728 402 647 402 525 C402 475 338 387 241 307 C116 203 68 136 68 1 L68 0 L68 0 Z " />
<glyph glyph-name="three" unicode="3" horiz-adv-x="513" d="M69 245 C69 92 149 -10 269 -10 C389 -10 469 78 469 210 C469 302 403 380 301 408 C385 426 441 488 441 564 C441 682 376 760 279 760 C183 760 118 672 118 540 L158 540 C158 652 206 727 278 727 C354 727 404 660 404 561 C404 477 348 422 264 422 L184 422 L184 413 L184 407 L184 391 L244 391 C353 391 426 319 426 211 C426 100 363 26 269 26 C173 26 110 114 110 245 L69 245 L69 245 Z " />
<glyph glyph-name="four" unicode="4" horiz-adv-x="510" d="M25 315 L25 284 L58 284 L374 284 L374 13 L334 13 C334 13 330 10 324 7 C318 3 314 0 314 0 L374 0 L394 0 L414 0 L474 0 C474 0 470 3 464 7 C457 10 453 13 454 13 L414 13 L414 284 L490 284 L490 320 L414 320 L414 553 L414 750 L382 750 L25 315 L25 315 Z M65 320 L380 702 L374 553 L374 320 L65 320 L65 320 Z " />
<glyph glyph-name="five" unicode="5" horiz-adv-x="509" d="M118 345 L156 336 C211 397 269 438 300 438 C376 438 427 357 427 235 C427 110 364 26 270 26 C174 26 111 114 111 245 L70 245 C70 92 150 -10 270 -10 C390 -10 470 88 470 235 C470 376 405 470 307 470 C270 470 208 430 154 371 L130 712 L443 711 L443 711 L440 671 C440 671 443 667 446 661 C450 655 452 651 452 651 C454 674 456 706 458 730 L458 730 L460 749 L93 749 L118 345 L118 345 Z " />
<glyph glyph-name="six" unicode="6" horiz-adv-x="526" d="M476 624 C429 706 358 760 297 760 C153 760 79 605 79 373 C79 120 153 -10 296 -10 C415 -10 495 92 495 245 C495 386 421 480 311 480 C240 480 164 419 121 327 C120 344 120 362 120 380 C120 590 180 729 297 729 C344 729 404 679 447 605 L476 624 L476 624 Z M124 283 L124 283 C170 382 242 448 304 448 C393 448 452 367 452 245 C452 112 390 23 296 23 C197 23 139 112 124 283 L124 283 Z " />
<glyph glyph-name="seven" unicode="7" horiz-adv-x="405" d="M30 750 L30 731 L30 712 L30 651 C30 651 33 655 37 661 C40 667 43 671 43 671 L43 712 L363 712 C212 451 154 252 154 0 L198 0 C198 266 253 466 395 712 L395 750 L30 750 L30 750 Z " />
<glyph glyph-name="eight" unicode="8" horiz-adv-x="544" d="M285 418 C188 418 144 475 144 560 C144 670 200 727 285 727 C377 727 424 660 424 560 C424 462 368 418 285 418 L285 418 Z M107 563 C107 480 144 419 225 400 C136 382 80 319 80 204 C80 76 143 -10 285 -10 C407 -10 489 56 489 204 C489 307 444 381 344 401 C415 418 460 470 460 563 C460 681 400 760 285 760 C178 760 107 693 107 563 L107 563 Z M285 23 C173 23 123 97 123 207 C123 328 188 382 285 382 C397 382 447 312 447 208 C447 80 382 23 285 23 L285 23 Z " />
<glyph glyph-name="nine" unicode="9" horiz-adv-x="526" d="M68 126 C115 44 187 -10 247 -10 C392 -10 466 145 466 377 C466 630 392 760 249 760 C129 760 50 658 50 505 C50 364 123 270 234 270 C305 270 381 331 424 423 C425 406 425 388 425 370 C425 160 364 21 247 21 C201 21 141 71 98 145 L68 126 L68 126 Z M421 467 L421 467 C375 368 303 302 241 302 C152 302 93 383 93 505 C93 638 155 727 249 727 C348 727 406 638 421 467 L421 467 Z " />
<glyph glyph-name="colon" unicode="&#x3a;" horiz-adv-x="160" d="M50 460 L110 460 L110 520 L50 520 L50 460 L50 460 Z M50 0 L110 0 L110 60 L50 60 L50 0 L50 0 Z " />
<glyph glyph-name="semicolon" unicode="&#x3b;" horiz-adv-x="160" d="M50 460 L110 460 L110 520 L50 520 L50 460 L50 460 Z M50 60 L50 0 L87 0 C87 -43 77 -60 50 -60 L50 -79 C93 -79 110 -57 110 0 L110 60 L50 60 L50 60 Z " />
<glyph glyph-name="less" unicode="&#x3c;" horiz-adv-x="364" d="M305 477 L45 273 L45 247 L305 43 L305 72 L62 260 L305 448 L305 477 L305 477 Z " />
<glyph glyph-name="equal" unicode="&#x3d;" horiz-adv-x="519" d="M39 176 L39 154 L469 154 L469 176 L39 176 L39 176 Z M39 376 L39 354 L469 354 L469 376 L39 376 L39 376 Z " />
<glyph glyph-name="greater" unicode="&#x3e;" horiz-adv-x="364" d="M303 260 L60 72 L60 43 L320 247 L320 273 L60 477 L60 448 L303 260 L303 260 Z " />
<glyph glyph-name="question" unicode="&#x3f;" horiz-adv-x="479" d="M221 0 L281 0 L281 60 L221 60 L221 0 L221 0 Z M34 557 L69 550 C79 659 152 732 253 732 C336 732 392 661 392 555 C392 465 375 422 330 401 C249 363 234 332 234 204 L268 204 C268 316 282 343 355 377 C408 402 429 452 429 555 C429 678 359 760 253 760 C132 760 45 679 34 557 L34 557 Z " />
<glyph glyph-name="at" unicode="&#x40;" horiz-adv-x="1069" d="M895 -119 C795 -189 651 -236 536 -236 C264 -236 83 -34 83 269 C83 572 267 774 542 774 C810 774 988 607 988 357 C988 152 921 15 819 15 C714 15 653 92 667 208 L702 499 L670 499 L654 362 C644 467 600 510 536 510 C426 510 340 414 323 269 C304 115 370 12 487 12 C554 12 609 61 636 140 C648 51 712 -5 808 -5 C932 -5 1014 140 1014 357 C1014 621 825 798 542 798 C250 798 56 586 56 269 C56 -48 248 -260 536 -260 C654 -260 803 -211 907 -137 L895 -119 L895 -119 Z M635 208 C623 109 565 43 490 43 C395 43 342 133 358 269 C373 395 442 479 531 479 C613 479 658 403 635 208 L635 208 Z " />
<glyph glyph-name="A" unicode="A" horiz-adv-x="680" d="M646 13 L645 13 L373 750 L370 750 L350 750 L334 750 L331 750 L271 750 C271 750 275 747 281 743 C287 740 291 737 291 737 L326 737 L326 737 L59 13 L19 13 L19 7 L19 0 L54 0 L74 0 L95 0 L155 0 C155 0 151 3 145 7 C139 10 135 13 135 13 L100 13 L180 232 L179 229 L525 229 L514 260 L190 260 L352 701 L605 13 L605 13 L570 13 C570 13 566 10 560 7 C554 3 550 0 550 0 L610 0 L630 0 L650 0 L686 0 L686 7 L686 13 L646 13 L646 13 Z " />
<glyph glyph-name="B" unicode="B" horiz-adv-x="659" d="M424 418 C505 436 555 485 555 551 C555 694 490 750 322 750 L169 750 L149 750 L129 750 L69 750 C69 750 73 747 79 743 C85 740 89 737 89 737 L129 737 L129 13 L89 13 C89 13 85 10 79 7 C73 3 69 0 69 0 L129 0 L149 0 L169 0 L391 0 C559 0 624 61 624 219 C624 337 544 417 423 418 L424 418 L424 418 Z M168 426 L168 719 L323 719 C459 719 512 671 512 548 C512 475 438 426 328 426 L168 426 L168 426 Z M168 31 L168 396 L394 396 C506 396 580 327 580 223 C580 85 524 31 379 31 L168 31 L168 31 Z " />
<glyph glyph-name="C" unicode="C" horiz-adv-x="636" d="M588 191 C588 90 494 23 353 23 C212 23 118 185 118 375 C118 565 212 727 353 727 C494 727 588 660 588 559 L617 583 L617 643 C615 640 613 636 610 633 C610 632 610 631 610 630 C609 634 607 638 605 642 L605 642 L605 642 C572 713 479 758 354 758 C187 758 76 581 76 373 C76 165 187 -12 354 -12 C512 -12 618 59 618 165 L588 191 L588 191 Z " />
<glyph glyph-name="D" unicode="D" horiz-adv-x="699" d="M149 0 L169 0 L326 0 C542 0 644 121 644 375 C644 623 526 750 296 750 L169 750 L149 750 L129 750 L69 750 C69 750 73 747 79 743 C85 740 89 737 89 737 L129 737 L129 13 L89 13 C89 13 85 10 79 7 C73 3 69 0 69 0 L129 0 L149 0 L149 0 Z M169 31 L169 719 L298 719 C498 719 601 602 601 375 C601 142 512 31 324 31 L169 31 L169 31 Z " />
<glyph glyph-name="E" unicode="E" horiz-adv-x="509" d="M459 16 L459 33 L459 93 C459 93 457 89 453 83 C449 76 446 72 446 73 L446 33 L169 33 L169 371 L411 371 L411 331 C411 331 414 327 418 321 C422 315 424 311 424 311 L424 371 L424 387 L424 403 L424 463 C424 463 422 459 418 453 C414 447 411 443 411 443 L411 403 L169 403 L169 717 L431 717 L431 677 C431 677 434 673 438 667 C442 661 444 657 444 657 L444 717 L444 734 L444 750 L169 750 L168 750 L149 750 L129 750 L69 750 C69 750 73 747 79 743 C85 740 89 737 89 737 L129 737 L129 13 L89 13 C89 13 85 10 79 7 C73 3 69 0 69 0 L129 0 L149 0 L168 0 L169 0 L459 0 L459 16 L459 16 Z " />
<glyph glyph-name="F" unicode="F" horiz-adv-x="474" d="M401 371 L401 331 C401 331 404 327 408 321 C412 315 414 311 414 311 L414 371 L414 387 L414 403 L414 463 C414 463 412 459 408 453 C404 447 401 443 401 443 L401 403 L169 403 L169 717 L431 717 L431 677 C431 677 434 673 438 667 C442 661 444 657 444 657 L444 717 L444 734 L444 750 L169 750 L168 750 L149 750 L129 750 L69 750 C69 750 73 747 79 743 C85 740 89 737 89 737 L129 737 L129 13 L89 13 C89 13 85 10 79 7 C73 3 69 0 69 0 L129 0 L149 0 L169 0 L229 0 C229 0 225 3 219 7 C213 10 209 13 209 13 L169 13 L169 371 L401 371 L401 371 Z " />
<glyph glyph-name="G" unicode="G" horiz-adv-x="689" d="M418 383 L606 383 L606 121 C536 62 453 23 382 23 C224 23 118 164 118 375 C118 586 224 727 382 727 C512 727 598 660 598 559 L627 583 L627 643 C625 640 623 636 621 633 C620 632 620 631 620 630 C618 635 616 640 614 645 L614 645 L614 645 C583 715 498 759 383 759 C199 759 76 605 76 374 C76 143 199 -11 383 -11 C469 -11 566 33 645 100 L645 414 L419 414 L418 383 L418 383 Z " />
<glyph glyph-name="H" unicode="H" horiz-adv-x="626" d="M501 0 L521 0 L581 0 C581 0 578 3 571 7 C566 10 562 13 561 13 L521 13 L521 737 L561 737 C562 737 566 740 571 743 C578 747 582 750 581 750 L521 750 L501 750 L481 750 L421 750 C421 750 425 747 431 743 C437 740 441 737 441 737 L481 737 L481 411 L169 411 L169 737 L209 737 C209 737 213 740 219 743 C225 747 229 750 229 750 L169 750 L149 750 L129 750 L69 750 C69 750 73 747 79 743 C85 740 89 737 89 737 L129 737 L129 13 L89 13 C89 13 85 10 79 7 C73 3 69 0 69 0 L129 0 L149 0 L169 0 L229 0 C229 0 225 3 219 7 C213 10 209 13 209 13 L169 13 L169 379 L481 379 L481 13 L441 13 C441 13 437 10 431 7 C425 3 421 0 421 0 L481 0 L501 0 L501 0 Z " />
<glyph glyph-name="I" unicode="I" horiz-adv-x="250" d="M126 0 L146 0 L206 0 C206 0 202 3 196 7 C190 10 186 13 186 13 L146 13 L146 737 L186 737 C186 737 190 740 196 743 C202 747 206 750 206 750 L146 750 L126 750 L106 750 L46 750 C46 750 50 747 56 743 C62 740 66 737 66 737 L106 737 L106 13 L66 13 C66 13 62 10 56 7 C50 3 46 0 46 0 L106 0 L126 0 L126 0 Z " />
<glyph glyph-name="J" unicode="J" horiz-adv-x="392" d="M71 283 L71 222 C71 62 108 -10 189 -10 C267 -10 307 82 307 220 L307 737 L347 737 C348 737 352 740 357 743 C364 747 368 750 367 750 L307 750 L287 750 L267 750 L207 750 C207 750 211 747 217 743 C223 740 227 737 227 737 L267 737 L267 220 C267 104 241 27 189 27 C135 27 111 91 111 234 L111 290 L71 283 L71 283 Z " />
<glyph glyph-name="K" unicode="K" horiz-adv-x="505" d="M392 737 L392 737 L149 338 L149 737 L189 737 C189 737 193 740 199 743 C205 747 209 750 209 750 L149 750 L129 750 L109 750 L49 750 C49 750 53 747 59 743 C65 740 69 737 69 737 L109 737 L109 13 L69 13 C69 13 65 10 59 7 C53 3 49 0 49 0 L109 0 L129 0 L149 0 L209 0 C209 0 205 3 199 7 C193 10 189 13 189 13 L149 13 L149 273 L247 431 L445 13 L411 13 C411 13 407 10 401 7 C395 3 391 0 391 0 L451 0 L473 0 L495 0 L529 0 L529 7 L529 13 L489 13 L489 13 L270 467 L262 454 L438 737 L438 737 L478 737 C477 737 477 740 478 743 C477 747 477 750 478 750 L446 750 L423 750 L400 750 L340 750 C341 750 345 747 350 743 C357 740 361 737 360 737 L392 737 L392 737 Z " />
<glyph glyph-name="L" unicode="L" horiz-adv-x="436" d="M386 16 L386 33 L386 93 C386 93 383 89 380 83 C376 76 373 72 373 73 L373 33 L146 33 L146 737 L186 737 C186 737 190 740 196 743 C202 747 206 750 206 750 L146 750 L126 750 L106 750 L46 750 C46 750 50 747 56 743 C62 740 66 737 66 737 L106 737 L106 13 L66 13 C66 13 62 10 56 7 C50 3 46 0 46 0 L106 0 L126 0 L146 0 L386 0 L386 16 L386 16 Z " />
<glyph glyph-name="M" unicode="M" horiz-adv-x="773" d="M650 0 L669 0 L729 0 C729 0 725 3 719 7 C713 10 709 13 709 13 L669 13 L669 737 L709 737 C709 737 713 740 719 743 C725 747 729 750 729 750 L669 750 L650 750 L643 750 L630 750 L606 750 L399 60 L190 750 L168 750 L153 750 L149 750 L129 750 L69 750 C69 750 73 747 79 743 C85 740 89 737 89 737 L129 737 L129 13 L89 13 C89 13 85 10 79 7 C73 3 69 0 69 0 L129 0 L149 0 L168 0 L228 0 C228 0 224 3 218 7 C212 10 208 13 208 13 L168 13 L168 701 L381 0 L417 0 L630 707 L630 13 L590 13 C590 13 586 10 580 7 C574 3 570 0 570 0 L630 0 L650 0 L650 0 Z " />
<glyph glyph-name="N" unicode="N" horiz-adv-x="584" d="M439 737 L439 72 L169 740 L169 750 L165 750 L149 750 L129 750 L69 750 C69 750 73 747 79 743 C85 740 89 737 89 737 L129 737 L129 13 L89 13 C89 13 85 10 79 7 C73 3 69 0 69 0 L129 0 L149 0 L169 0 L229 0 C229 0 225 3 219 7 C213 10 209 13 209 13 L169 13 L169 651 L432 0 L439 0 L468 0 L479 0 L479 737 L519 737 C520 737 524 740 529 743 C536 747 540 750 539 750 L479 750 L459 750 L439 750 L379 750 C379 750 383 747 389 743 C395 740 399 737 399 737 L439 737 L439 737 Z " />
<glyph glyph-name="O" unicode="O" horiz-adv-x="729" d="M377 23 C225 23 123 164 123 375 C123 576 232 727 377 727 C522 727 631 576 631 375 C631 164 530 23 377 23 L377 23 Z M80 375 C80 144 199 -10 377 -10 C555 -10 674 144 674 375 C674 594 546 760 377 760 C208 760 80 594 80 375 L80 375 Z " />
<glyph glyph-name="P" unicode="P" horiz-adv-x="559" d="M149 0 L169 0 L229 0 C229 0 225 3 219 7 C213 10 209 13 209 13 L169 13 L169 318 L349 318 C465 318 524 388 524 525 C524 674 465 750 349 750 L169 750 L149 750 L139 750 L129 750 L69 750 C69 750 73 747 79 743 C85 740 89 737 89 737 L129 737 L129 13 L89 13 C89 13 85 10 79 7 C73 3 69 0 69 0 L129 0 L149 0 L149 0 Z M169 349 L169 719 L348 719 C438 719 484 653 484 525 C484 409 439 349 351 349 L169 349 L169 349 Z " />
<glyph glyph-name="Q" unicode="Q" horiz-adv-x="729" d="M80 375 C80 144 199 -10 377 -10 C413 -10 446 -4 476 8 L626 -90 L647 -65 L510 24 C611 82 673 209 673 376 C673 595 545 761 376 761 C207 761 79 595 79 376 L80 375 L80 375 Z M439 33 C419 27 398 24 376 24 C224 24 122 165 122 376 C122 577 231 728 376 728 C521 728 630 577 630 376 C630 215 571 95 475 47 L415 86 L394 61 L439 33 L439 33 Z " />
<glyph glyph-name="R" unicode="R" horiz-adv-x="579" d="M511 0 L534 0 L567 0 L567 7 L567 13 L528 13 L375 339 C474 348 524 411 524 525 C524 674 465 750 349 750 L169 750 L149 750 L139 750 L129 750 L69 750 C69 750 73 747 79 743 C85 740 89 737 89 737 L129 737 L129 13 L89 13 C89 13 85 10 79 7 C73 3 69 0 69 0 L129 0 L149 0 L169 0 L229 0 C229 0 225 3 219 7 C213 10 209 13 209 13 L169 13 L169 338 L329 338 L488 0 L511 0 L511 0 Z M169 369 L169 719 L348 719 C438 719 484 653 484 525 C484 422 439 369 351 369 L169 369 L169 369 Z " />
<glyph glyph-name="S" unicode="S" horiz-adv-x="450" d="M61 123 C80 35 151 -10 249 -10 C358 -10 414 78 414 209 C414 302 353 368 234 406 C145 434 100 483 100 552 C100 655 142 724 204 724 C289 724 346 678 346 589 L374 614 L374 674 C372 671 370 667 368 664 L368 664 C348 728 287 761 204 761 C117 761 59 676 59 549 C59 463 115 401 223 367 C323 335 374 282 374 209 C374 99 331 26 249 26 C152 26 88 85 88 199 L71 187 L71 187 L55 175 L55 115 C57 118 59 121 61 124 L61 123 L61 123 Z " />
<glyph glyph-name="T" unicode="T" horiz-adv-x="510" d="M255 0 L275 0 L335 0 C335 0 331 3 325 7 C319 10 315 13 315 13 L275 13 L275 717 L487 717 L487 677 C487 677 490 673 494 667 C498 661 500 657 500 657 L500 717 L500 734 L500 750 L275 750 L235 750 L10 750 L10 734 L10 717 L10 657 C10 657 13 661 17 667 C20 673 23 677 23 677 L23 717 L235 717 L235 13 L195 13 C195 13 191 10 185 7 C179 3 175 0 175 0 L235 0 L255 0 L255 0 Z " />
<glyph glyph-name="U" unicode="U" horiz-adv-x="598" d="M122 737 L122 293 C122 93 186 -10 310 -10 C434 -10 498 93 498 293 L498 737 L538 737 C539 737 543 740 548 743 C555 747 559 750 558 750 L498 750 L478 750 L458 750 L398 750 C398 750 402 747 408 743 C414 740 418 737 418 737 L458 737 L458 300 C458 120 408 27 310 27 C212 27 162 120 162 300 L162 737 L202 737 C202 737 206 740 212 743 C218 747 222 750 222 750 L162 750 L142 750 L122 750 L62 750 C62 750 66 747 72 743 C78 740 82 737 82 737 L122 737 L122 737 Z " />
<glyph glyph-name="V" unicode="V" horiz-adv-x="533" d="M480 737 L480 737 L520 737 L520 743 L520 750 L483 750 L462 750 L440 750 L380 750 C381 750 385 747 390 743 C397 740 401 737 400 737 L437 737 L280 75 L121 737 L158 737 C158 737 162 740 168 743 C174 747 178 750 178 750 L118 750 L97 750 L75 750 L39 750 L39 743 L39 737 L78 737 L261 0 L262 0 L298 0 L299 0 L480 737 L480 737 Z " />
<glyph glyph-name="W" unicode="W" horiz-adv-x="723" d="M671 737 L671 737 L711 737 L711 743 L711 750 L673 750 L652 750 L630 750 L570 750 C571 750 575 747 580 743 C587 740 591 737 590 737 L628 737 L518 97 L394 750 L355 750 L232 97 L120 737 L158 737 C158 737 162 740 168 743 C174 747 178 750 178 750 L118 750 L97 750 L75 750 L38 750 L38 743 L38 737 L77 737 L211 0 L214 0 L249 0 L374 648 L498 0 L501 0 L536 0 L671 737 L671 737 Z " />
<glyph glyph-name="X" unicode="X" horiz-adv-x="576" d="M478 737 L478 737 L318 440 L181 737 L215 737 C215 737 219 740 225 743 C231 747 235 750 235 750 L175 750 L156 750 L136 750 L102 750 L102 743 L102 737 L142 737 L297 401 L89 13 L49 13 L49 7 L49 0 L82 0 L102 0 L123 0 L183 0 C183 0 179 3 173 7 C167 10 163 13 163 13 L130 13 L130 13 L316 359 L476 13 L476 13 L442 13 C442 13 438 10 432 7 C426 3 422 0 422 0 L482 0 L502 0 L522 0 L556 0 L556 7 L556 13 L516 13 L516 13 L337 399 L519 737 L559 737 C560 737 560 740 559 743 C560 747 560 750 559 750 L526 750 L506 750 L485 750 L425 750 C425 750 429 747 435 743 C441 740 445 737 445 737 L478 737 L478 737 Z " />
<glyph glyph-name="Y" unicode="Y" horiz-adv-x="560" d="M275 13 L235 13 C235 13 231 10 225 7 C219 3 215 0 215 0 L275 0 L295 0 L315 0 L375 0 C375 0 371 3 365 7 C359 10 355 13 355 13 L315 13 L315 330 L523 737 L524 737 L564 737 L564 743 L564 750 L530 750 L510 750 L490 750 L430 750 C430 750 434 747 440 743 C446 740 450 737 450 737 L483 737 L294 366 L105 737 L105 737 L138 737 C138 737 142 740 148 743 C154 747 158 750 158 750 L98 750 L78 750 L58 750 L25 750 L25 743 L25 737 L65 737 L274 330 L275 13 L275 13 Z " />
<glyph glyph-name="Z" unicode="Z" horiz-adv-x="570" d="M525 16 L525 33 L525 93 C525 93 523 89 519 83 C515 76 512 72 512 73 L512 33 L88 33 L525 717 L525 750 L60 750 L60 734 L60 717 L60 657 C60 657 63 661 67 667 C70 673 73 677 73 677 L73 717 L482 717 L45 33 L45 0 L525 0 L525 16 L525 16 Z " />
<glyph glyph-name="bracketleft" unicode="&#x5b;" horiz-adv-x="266" d="M162 730 L237 730 L237 750 L162 750 L138 750 L138 -115 L162 -115 L237 -115 L237 -95 L162 -95 L162 730 L162 730 Z " />
<glyph glyph-name="backslash" unicode="&#x5c;" horiz-adv-x="305" d="M290 0 L306 0 L16 750 L0 750 L290 0 L290 0 Z " />
<glyph glyph-name="bracketright" unicode="&#x5d;" horiz-adv-x="253" d="M105 730 L105 -95 L30 -95 L30 -115 L105 -115 L128 -115 L128 750 L105 750 L30 750 L30 730 L105 730 L105 730 Z " />
<glyph glyph-name="underscore" unicode="&#x5f;" horiz-adv-x="595" d="M50 -111 L545 -111 L545 -89 L50 -89 L50 -111 L50 -111 Z " />
<glyph glyph-name="a" unicode="a" horiz-adv-x="465" d="M73 385 L105 374 C105 450 156 500 232 500 C306 500 355 466 355 380 C355 307 295 271 205 249 C118 227 60 169 60 104 C60 36 102 -10 211 -10 C281 -10 333 12 355 82 L355 45 C355 2 358 0 435 0 L435 26 C392 26 390 27 390 45 L390 365 C390 484 327 530 232 530 C136 530 73 472 73 385 L73 385 Z M355 303 L355 167 C355 48 302 15 222 15 C131 15 96 51 96 105 C96 158 148 207 227 226 C286 241 332 264 355 304 L355 303 L355 303 Z " />
<glyph glyph-name="b" unicode="b" horiz-adv-x="513" d="M275 19 C185 19 126 94 126 260 C126 426 185 501 275 501 C364 501 424 405 424 260 C424 115 364 19 275 19 L275 19 Z M108 0 L126 0 L126 130 C152 34 210 -10 286 -10 C392 -10 463 98 463 260 C463 422 392 530 286 530 C210 530 152 486 126 390 L126 740 L126 750 L108 750 L90 750 L30 750 C30 750 34 747 40 743 C46 740 50 737 50 737 L90 737 L90 13 L50 13 C50 13 46 10 40 7 C34 3 30 0 30 0 L90 0 L108 0 L108 0 Z " />
<glyph glyph-name="c" unicode="c" horiz-adv-x="472" d="M411 147 C411 71 351 20 260 20 C170 20 110 94 110 260 C110 427 170 502 260 502 C369 502 411 444 411 357 L427 365 L427 364 L442 372 L442 432 C440 429 438 425 436 422 C419 488 365 529 259 529 C146 529 70 445 70 259 C70 73 146 -11 259 -11 C369 -11 442 45 442 130 L411 147 L411 147 Z " />
<glyph glyph-name="d" unicode="d" horiz-adv-x="483" d="M71 260 C71 98 136 -10 232 -10 C300 -10 353 44 378 133 L378 10 L378 0 L396 0 L414 0 L474 0 C474 0 470 3 464 7 C458 10 454 13 454 13 L414 13 L414 740 L414 750 L396 750 L378 750 L318 750 C318 750 322 747 328 743 C334 740 338 737 338 737 L378 737 L378 387 C353 476 300 530 232 530 C136 530 71 422 71 260 L71 260 Z M378 260 C378 115 325 19 244 19 C164 19 110 115 110 260 C110 405 164 501 244 501 C325 501 378 405 378 260 L378 260 Z " />
<glyph glyph-name="e" unicode="e" horiz-adv-x="479" d="M416 145 C416 70 354 20 260 20 C172 20 113 91 111 250 L419 250 L455 250 C455 418 401 530 264 530 C149 530 72 446 72 260 C72 74 148 -10 261 -10 C374 -10 450 47 450 132 L416 145 L416 145 Z M419 275 L112 275 C116 431 176 502 265 502 C371 502 415 412 420 275 L419 275 L419 275 Z " />
<glyph glyph-name="f" unicode="f" horiz-adv-x="278" d="M114 0 L132 0 L192 0 C192 0 188 3 182 7 C176 10 172 13 172 13 L132 13 L132 492 L209 492 L209 520 L132 520 L132 684 C132 711 140 721 162 721 L195 720 L195 720 L195 680 C195 680 198 676 202 670 C206 664 209 660 209 660 L209 720 L209 735 L209 750 L152 750 C112 750 96 732 96 684 L96 520 L30 520 L30 492 L96 492 L96 13 L56 13 C56 13 52 10 46 7 C40 3 36 0 36 0 L96 0 L114 0 L114 0 Z " />
<glyph glyph-name="g" unicode="g" horiz-adv-x="473" d="M71 -80 C71 -145 138 -170 237 -170 C357 -170 404 -96 404 15 L404 507 L444 507 C444 507 448 510 454 513 C460 517 464 520 464 520 L404 520 L386 520 L368 520 L368 389 C344 477 293 530 227 530 C134 530 71 454 71 260 C71 73 134 0 227 0 C293 0 344 51 368 135 L368 -1 C368 -85 331 -141 234 -141 C160 -141 110 -124 110 -81 L71 -80 L71 -80 Z M239 500 C317 500 368 404 368 259 C368 120 317 28 239 28 C162 28 110 93 110 259 C110 433 162 500 239 500 L239 500 Z " />
<glyph glyph-name="h" unicode="h" horiz-adv-x="470" d="M362 0 L380 0 L440 0 C440 0 437 3 430 7 C425 10 421 13 420 13 L380 13 L380 315 C380 454 336 525 269 525 C211 525 167 490 147 432 L147 741 L147 751 L129 751 L120 751 L111 751 L51 751 C51 751 55 748 61 744 C67 741 71 738 71 738 L111 738 L111 14 L71 14 C71 14 67 11 61 8 C55 4 51 1 51 1 L111 1 L129 1 L147 1 L207 1 C207 1 203 4 197 8 C191 11 187 14 187 14 L147 14 L147 355 C147 439 191 494 257 494 C310 494 346 433 346 316 L346 14 L305 14 C305 14 301 11 295 8 C289 4 285 1 285 1 L346 1 L362 0 L362 0 Z " />
<glyph glyph-name="i" unicode="i" horiz-adv-x="254" d="M117 600 L177 600 L177 660 L117 660 L117 600 L117 600 Z M147 0 L165 0 L225 0 C225 0 221 3 215 7 C209 10 205 13 205 13 L165 13 L165 510 L165 520 L147 520 L129 520 L69 520 C69 520 73 517 79 513 C85 510 89 507 89 507 L129 507 L129 13 L89 13 C89 13 85 10 79 7 C73 3 69 0 69 0 L129 0 L147 0 L147 0 Z " />
<glyph glyph-name="j" unicode="j" horiz-adv-x="171" d="M54 600 L114 600 L114 660 L54 660 L54 600 L54 600 Z M17 -75 L17 -105 L25 -105 C84 -105 101 -82 101 0 L101 510 L101 520 L84 520 L66 520 L6 520 C6 520 10 517 16 513 C22 510 26 507 26 507 L66 507 L66 0 C66 -58 55 -75 16 -75 L17 -75 L17 -75 Z " />
<glyph glyph-name="k" unicode="k" horiz-adv-x="430" d="M333 507 L334 507 L126 244 L126 740 L126 750 L108 750 L99 750 L90 750 L30 750 C30 750 34 747 40 743 C46 740 50 737 50 737 L90 737 L90 13 L50 13 C50 13 46 10 40 7 C34 3 30 0 30 0 L90 0 L108 0 L126 0 L186 0 C186 0 182 3 176 7 C170 10 166 13 166 13 L126 13 L126 200 L369 507 L369 507 L409 507 L409 513 L409 520 L379 520 L362 520 L344 520 L284 520 C284 520 288 517 294 513 C300 510 304 507 304 507 L333 507 L333 507 Z M380 0 L400 0 L421 0 L453 0 L453 7 L453 13 L414 13 L235 338 L211 307 L380 0 L380 0 Z " />
<glyph glyph-name="l" unicode="l" horiz-adv-x="294" d="M167 0 L185 0 L245 0 C245 0 241 3 235 7 C229 10 225 13 225 13 L185 13 L185 740 L185 750 L167 750 L149 750 L89 750 C89 750 93 747 99 743 C105 740 109 737 109 737 L149 737 L149 13 L109 13 C109 13 105 10 99 7 C93 3 89 0 89 0 L149 0 L167 0 L167 0 Z " />
<glyph glyph-name="m" unicode="m" horiz-adv-x="629" d="M527 0 L545 0 L605 0 C604 0 600 3 595 7 C588 10 584 13 585 13 L545 13 L545 315 C545 454 508 525 454 525 C400 525 360 480 347 408 C333 486 300 525 256 525 C205 525 166 491 147 435 L147 510 L147 520 L129 520 L120 520 L111 520 L51 520 C51 520 55 517 61 513 C67 510 71 507 71 507 L111 507 L111 13 L71 13 C71 13 67 10 61 7 C55 3 51 0 51 0 L111 0 L129 0 L147 0 L207 0 C207 0 203 3 197 7 C191 10 187 13 187 13 L147 13 L147 354 C147 438 185 493 242 493 C288 493 319 432 319 315 L319 13 L279 13 C279 13 275 10 269 7 C263 3 259 0 259 0 L319 0 L337 0 L355 0 L415 0 C415 0 411 3 405 7 C399 10 395 13 395 13 L355 13 L355 315 C355 329 355 342 354 354 L355 354 C355 438 389 493 441 493 C482 493 510 432 510 315 L510 13 L470 13 C470 13 466 10 460 7 C454 3 450 0 450 0 L510 0 L527 0 L527 0 Z " />
<glyph glyph-name="n" unicode="n" horiz-adv-x="465" d="M362 0 L380 0 L440 0 C440 0 437 3 430 7 C425 10 421 13 420 13 L380 13 L380 315 C380 454 336 525 269 525 C211 525 167 490 147 432 L147 511 L147 521 L129 521 L120 521 L111 521 L51 521 C51 521 55 518 61 514 C67 511 71 508 71 508 L111 508 L111 14 L71 14 C71 14 67 11 61 8 C55 4 51 1 51 1 L111 1 L129 1 L147 1 L207 1 C207 1 203 4 197 8 C191 11 187 14 187 14 L147 14 L147 355 C147 439 191 494 257 494 C310 494 346 433 346 316 L346 14 L305 14 C305 14 301 11 295 8 C289 4 285 1 285 1 L346 1 L362 0 L362 0 Z " />
<glyph glyph-name="o" unicode="o" horiz-adv-x="505" d="M263 16 C158 16 110 114 110 260 C110 428 171 504 263 504 C369 504 416 406 416 260 C416 92 355 16 263 16 L263 16 Z M71 260 C71 98 131 -10 263 -10 C378 -10 455 74 455 260 C455 422 396 530 263 530 C148 530 71 446 71 260 L71 260 Z " />
<glyph glyph-name="p" unicode="p" horiz-adv-x="533" d="M295 19 C205 19 146 94 146 260 C146 426 205 501 295 501 C384 501 444 405 444 260 C444 115 384 19 295 19 L295 19 Z M128 -155 L146 -155 L206 -155 C206 -155 202 -152 196 -148 C190 -145 186 -142 186 -142 L146 -142 L146 130 C172 34 230 -10 306 -10 C412 -10 483 98 483 260 C483 422 412 530 306 530 C230 530 172 486 146 390 L146 510 L146 520 L128 520 L119 520 L110 520 L50 520 C50 520 54 517 60 513 C66 510 70 507 70 507 L110 507 L110 -142 L70 -142 C70 -142 66 -145 60 -148 C54 -152 50 -155 50 -155 L110 -155 L128 -155 L128 -155 Z " />
<glyph glyph-name="q" unicode="q" horiz-adv-x="503" d="M71 260 C71 98 136 -10 232 -10 C300 -10 353 44 378 133 L378 -142 L338 -142 C338 -142 334 -145 328 -148 C322 -152 318 -155 318 -155 L378 -155 L396 -155 L414 -155 L474 -155 C474 -155 470 -152 464 -148 C458 -145 454 -142 454 -142 L414 -142 L414 507 L454 507 C454 507 458 510 464 513 C470 517 474 520 474 520 L414 520 L396 520 L378 520 L378 387 C353 476 300 530 232 530 C136 530 71 422 71 260 L71 260 Z M378 260 C378 115 325 19 244 19 C164 19 110 115 110 260 C110 405 164 501 244 501 C325 501 378 405 378 260 L378 260 Z " />
<glyph glyph-name="r" unicode="r" horiz-adv-x="281" d="M261 481 L261 520 L255 520 C197 520 163 475 146 399 L146 510 L146 520 L128 520 L119 520 L110 520 L50 520 C50 520 54 517 60 513 C66 510 70 507 70 507 L110 507 L110 13 L70 13 C70 13 66 10 60 7 C54 3 50 0 50 0 L110 0 L128 0 L146 0 L206 0 C206 0 202 3 196 7 C190 10 186 13 186 13 L146 13 L146 264 C146 394 176 481 252 481 L261 481 L261 481 Z " />
<glyph glyph-name="s" unicode="s" horiz-adv-x="415" d="M58 78 L58 78 L58 78 C83 27 143 -5 222 -5 C320 -5 385 53 385 141 C385 203 332 255 228 276 C151 291 112 332 112 382 C112 452 157 499 226 499 C297 499 344 446 344 367 L374 380 L374 440 C371 437 369 433 367 430 L367 430 C349 489 297 526 226 526 C136 526 77 468 77 380 C77 317 125 264 219 245 C305 228 349 187 349 139 C349 70 298 24 222 24 C135 24 77 75 77 150 L61 144 L45 138 L45 78 C47 81 49 85 51 88 C52 89 53 90 54 91 C55 87 57 83 59 79 L58 78 L58 78 Z " />
<glyph glyph-name="t" unicode="t" horiz-adv-x="260" d="M230 520 L127 520 L127 685 L91 655 L91 520 L10 520 L10 492 L91 492 L91 135 C91 34 94 0 161 0 L230 0 L230 29 L176 29 C129 29 127 55 127 135 L127 492 L230 492 L230 520 L230 520 Z " />
<glyph glyph-name="u" unicode="u" horiz-adv-x="466" d="M376 13 L376 520 L358 520 L340 520 L280 520 C280 520 284 517 290 513 C296 510 300 507 300 507 L340 507 L340 146 C340 72 301 22 243 22 C164 22 141 71 141 166 L141 520 L123 520 L105 520 L45 520 C45 520 49 517 55 513 C61 510 65 507 65 507 L105 507 L105 166 C105 50 133 -10 232 -10 C284 -10 323 23 340 77 L340 10 L340 0 L358 0 L376 0 L436 0 C436 0 433 3 426 7 C421 10 417 13 416 13 L376 13 L376 13 Z " />
<glyph glyph-name="v" unicode="v" horiz-adv-x="445" d="M371 507 L371 507 L233 41 L96 507 L96 507 L132 507 C133 507 137 510 142 513 C149 517 153 520 152 520 L92 520 L72 520 L52 520 L16 520 L16 513 L16 507 L56 507 L56 507 L213 0 L221 0 L245 0 L252 0 L411 507 L411 507 L451 507 C452 507 452 510 451 513 C452 517 452 520 451 520 L415 520 L395 520 L375 520 L315 520 C315 520 319 517 325 513 C331 510 335 507 335 507 L371 507 L371 507 Z " />
<glyph glyph-name="w" unicode="w" horiz-adv-x="681" d="M54 507 L55 507 L192 0 L200 0 L220 0 L228 0 L352 461 L476 0 L483 0 L504 0 L512 0 L649 507 L650 507 L690 507 L690 513 L690 520 L653 520 L634 520 L615 520 L555 520 C556 520 560 517 565 513 C572 510 576 507 575 507 L612 507 L495 41 L370 520 L338 520 L212 39 L95 507 L132 507 C132 507 136 510 142 513 C148 517 152 520 152 520 L92 520 L73 520 L54 520 L17 520 L17 513 L17 507 L54 507 L54 507 Z " />
<glyph glyph-name="x" unicode="x" horiz-adv-x="412" d="M328 507 L329 507 L213 305 L97 507 L98 507 L130 507 C130 507 134 510 140 513 C146 517 150 520 150 520 L90 520 L69 520 L49 520 L16 520 L16 513 L16 507 L56 507 L56 507 L193 269 L45 13 L6 13 L6 7 L6 0 L38 0 L59 0 L80 0 L140 0 C140 0 136 3 130 7 C124 10 120 13 120 13 L87 13 L214 233 L341 13 L308 13 C308 13 304 10 298 7 C292 3 288 0 288 0 L348 0 L369 0 L390 0 L422 0 L422 7 L422 13 L383 13 L235 269 L372 507 L372 507 L412 507 C411 507 411 510 412 513 C411 517 411 520 412 520 L379 520 L359 520 L338 520 L278 520 C278 520 282 517 288 513 C294 510 298 507 298 507 L328 507 L328 507 Z " />
<glyph glyph-name="y" unicode="y" horiz-adv-x="424" d="M350 507 L350 507 L213 56 L76 507 L76 507 L112 507 C113 507 117 510 122 513 C129 517 133 520 132 520 L72 520 L52 520 L32 520 L-4 520 L-4 513 L-4 507 L36 507 L36 507 L197 2 L195 -4 C154 -133 137 -169 117 -169 L67 -169 L67 -200 L117 -200 C155 -200 179 -160 223 -18 L390 507 L390 507 L430 507 L430 513 L430 520 L394 520 L374 520 L354 520 L294 520 C294 520 298 517 304 513 C310 510 314 507 314 507 L350 507 L350 507 Z " />
<glyph glyph-name="z" unicode="z" horiz-adv-x="375" d="M45 520 L45 506 L45 492 L45 432 C45 432 48 436 52 442 C55 448 58 452 58 452 L58 492 L295 492 L30 22 L30 0 L69 0 L355 0 L355 14 L355 28 L355 88 C355 88 353 84 349 78 C345 72 342 68 342 68 L342 28 L74 28 L339 498 L339 520 L301 520 L45 520 L45 520 Z " />
<glyph glyph-name="braceleft" unicode="&#x7b;" horiz-adv-x="260" d="M231 750 L190 750 C159 750 138 726 138 690 L138 385 C138 350 107 326 61 326 L55 326 L55 309 L61 309 C107 309 138 285 138 250 L138 -55 C138 -91 159 -115 190 -115 L231 -115 L231 -95 L190 -95 C173 -95 162 -79 162 -55 L161 246 C161 276 131 305 85 318 C131 331 161 360 161 390 C162 390 162 510 162 691 C162 715 173 731 190 731 L231 731 L231 750 L231 750 Z " />
<glyph glyph-name="bar" unicode="&#x7c;" horiz-adv-x="113" d="M45 800 L45 -250 L68 -250 L68 800 L45 800 L45 800 Z " />
<glyph glyph-name="braceright" unicode="&#x7d;" horiz-adv-x="260" d="M30 750 L70 750 C102 750 123 726 123 690 C123 507 123 385 122 385 C123 350 154 326 200 326 L206 326 L206 309 L200 309 C154 309 123 285 122 250 L123 -55 C123 -91 102 -115 70 -115 L30 -115 L30 -95 L70 -95 C87 -95 99 -79 99 -55 L99 246 C100 276 130 305 176 318 C130 331 100 360 99 390 L99 691 C99 715 87 731 70 731 L30 731 L30 750 L30 750 Z " />
<glyph glyph-name="nbspace" unicode="&#xa0;" horiz-adv-x="126" d="" />
<glyph glyph-name="exclamdown" unicode="&#xa1;" horiz-adv-x="132" d="M96 520 L36 520 L36 460 L96 460 L96 520 L96 520 Z M87 -230 L87 80 L71 316 L61 316 L45 80 L45 -230 L87 -230 L87 -230 Z " />
<glyph glyph-name="cent" unicode="&#xa2;" horiz-adv-x="468" d="M245 595 L245 530 C140 524 71 439 71 260 C71 81 140 -4 245 -10 L245 -75 L271 -75 L271 -10 C373 -6 439 49 439 131 L407 147 C407 75 354 25 271 20 L271 501 C332 495 373 448 398 377 C393 373 390 365 390 355 C390 339 399 329 412 329 C433 329 444 342 438 361 C412 457 360 522 271 528 L271 593 L245 595 L245 595 Z M245 19 C163 26 110 101 110 259 C110 418 163 494 245 501 L245 19 L245 19 Z " />
<glyph glyph-name="guillemotleft" unicode="&#xab;" horiz-adv-x="346" d="M263 470 L182 260 L263 50 L294 50 L213 260 L294 470 L263 470 L263 470 Z M168 470 L87 260 L168 50 L199 50 L118 260 L199 470 L168 470 L168 470 Z " />
<glyph glyph-name="logicalnot" unicode="&#xac;" horiz-adv-x="351" d="M301 98 L301 248 L301 278 L265 278 L50 278 L50 248 L265 248 L265 98 L301 98 L301 98 Z " />
<glyph glyph-name="periodcentered" unicode="&#xb7;" horiz-adv-x="160" d="M50 230 L110 230 L110 290 L50 290 L50 230 L50 230 Z " />
<glyph glyph-name="guillemotright" unicode="&#xbb;" horiz-adv-x="328" d="M198 470 L279 260 L198 50 L230 50 L310 260 L230 470 L198 470 L198 470 Z M104 470 L184 260 L104 50 L135 50 L216 260 L135 470 L104 470 L104 470 Z " />
<glyph glyph-name="questiondown" unicode="&#xbf;" horiz-adv-x="464" d="M243 520 L183 520 L183 460 L243 460 L243 520 L243 520 Z M430 -37 L395 -30 C386 -139 312 -212 211 -212 C128 -212 72 -141 72 -35 C72 55 89 98 134 119 C215 157 230 188 231 316 L196 316 C196 204 182 177 109 143 C56 118 35 68 35 -35 C35 -158 105 -240 211 -240 C332 -240 419 -159 430 -37 L430 -37 Z " />
<glyph glyph-name="Agrave" unicode="&#xc0;" horiz-adv-x="680" d="M337 830 L370 830 L334 980 L287 980 L337 830 L337 830 Z M646 13 L645 13 L373 750 L370 750 L350 750 L334 750 L331 750 L271 750 C271 750 275 747 281 743 C287 740 291 737 291 737 L326 737 L326 737 L59 13 L19 13 L19 7 L19 0 L54 0 L74 0 L95 0 L155 0 C155 0 151 3 145 7 C139 10 135 13 135 13 L100 13 L180 232 L179 229 L525 229 L514 260 L190 260 L352 701 L605 13 L605 13 L570 13 C570 13 566 10 560 7 C554 3 550 0 550 0 L610 0 L630 0 L650 0 L686 0 L686 7 L686 13 L646 13 L646 13 Z " />
<glyph glyph-name="Aacute" unicode="&#xc1;" horiz-adv-x="680" d="M337 830 L370 830 L420 980 L373 980 L337 830 L337 830 Z M646 13 L645 13 L373 750 L370 750 L350 750 L334 750 L331 750 L271 750 C271 750 275 747 281 743 C287 740 291 737 291 737 L326 737 L326 737 L59 13 L19 13 L19 7 L19 0 L54 0 L74 0 L95 0 L155 0 C155 0 151 3 145 7 C139 10 135 13 135 13 L100 13 L180 232 L179 229 L525 229 L514 260 L190 260 L352 701 L605 13 L605 13 L570 13 C570 13 566 10 560 7 C554 3 550 0 550 0 L610 0 L630 0 L650 0 L686 0 L686 7 L686 13 L646 13 L646 13 Z " />
<glyph glyph-name="Acircumflex" unicode="&#xc2;" horiz-adv-x="680" d="M353 952 L463 830 L496 830 L372 980 L335 980 L211 830 L244 830 L353 952 L353 952 Z M646 13 L645 13 L373 750 L370 750 L350 750 L334 750 L331 750 L271 750 C271 750 275 747 281 743 C287 740 291 737 291 737 L326 737 L326 737 L59 13 L19 13 L19 7 L19 0 L54 0 L74 0 L95 0 L155 0 C155 0 151 3 145 7 C139 10 135 13 135 13 L100 13 L180 232 L179 229 L525 229 L514 260 L190 260 L352 701 L605 13 L605 13 L570 13 C570 13 566 10 560 7 C554 3 550 0 550 0 L610 0 L630 0 L650 0 L686 0 L686 7 L686 13 L646 13 L646 13 Z " />
<glyph glyph-name="Atilde" unicode="&#xc3;" horiz-adv-x="680" d="M307 830 C307 868 317 893 333 893 C378 893 321 820 377 820 C406 820 426 856 426 911 L400 911 C400 873 390 848 374 848 C329 848 386 921 330 921 C301 921 281 885 281 830 L307 830 L307 830 Z M646 13 L645 13 L373 750 L370 750 L350 750 L334 750 L331 750 L271 750 C271 750 275 747 281 743 C287 740 291 737 291 737 L326 737 L326 737 L59 13 L19 13 L19 7 L19 0 L54 0 L74 0 L95 0 L155 0 C155 0 151 3 145 7 C139 10 135 13 135 13 L100 13 L180 232 L179 229 L525 229 L514 260 L190 260 L352 701 L605 13 L605 13 L570 13 C570 13 566 10 560 7 C554 3 550 0 550 0 L610 0 L630 0 L650 0 L686 0 L686 7 L686 13 L646 13 L646 13 Z " />
<glyph glyph-name="Adieresis" unicode="&#xc4;" horiz-adv-x="680" d="M387 830 L447 830 L447 890 L387 890 L387 830 L387 830 Z M260 830 L320 830 L320 890 L260 890 L260 830 L260 830 Z M646 13 L645 13 L373 750 L370 750 L350 750 L334 750 L331 750 L271 750 C271 750 275 747 281 743 C287 740 291 737 291 737 L326 737 L326 737 L59 13 L19 13 L19 7 L19 0 L54 0 L74 0 L95 0 L155 0 C155 0 151 3 145 7 C139 10 135 13 135 13 L100 13 L180 232 L179 229 L525 229 L514 260 L190 260 L352 701 L605 13 L605 13 L570 13 C570 13 566 10 560 7 C554 3 550 0 550 0 L610 0 L630 0 L650 0 L686 0 L686 7 L686 13 L646 13 L646 13 Z " />
<glyph glyph-name="Aring" unicode="&#xc5;" horiz-adv-x="680" d="M353 847 C313 847 292 870 292 915 C292 958 315 983 353 983 C392 983 415 958 415 915 C415 870 394 847 353 847 L353 847 Z M274 915 C274 859 301 830 353 830 C406 830 433 859 433 915 C433 969 404 1000 353 1000 C303 1000 274 969 274 915 L274 915 Z M646 13 L645 13 L373 750 L370 750 L350 750 L334 750 L331 750 L271 750 C271 750 275 747 281 743 C287 740 291 737 291 737 L326 737 L326 737 L59 13 L19 13 L19 7 L19 0 L54 0 L74 0 L95 0 L155 0 C155 0 151 3 145 7 C139 10 135 13 135 13 L100 13 L180 232 L179 229 L525 229 L514 260 L190 260 L352 701 L605 13 L605 13 L570 13 C570 13 566 10 560 7 C554 3 550 0 550 0 L610 0 L630 0 L650 0 L686 0 L686 7 L686 13 L646 13 L646 13 Z " />
<glyph glyph-name="Ccedilla" unicode="&#xc7;" horiz-adv-x="636" d="M588 191 C588 90 494 23 353 23 C212 23 118 185 118 375 C118 565 212 727 353 727 C494 727 588 660 588 559 L617 583 L617 643 C615 640 613 636 610 633 C610 632 610 631 610 630 C609 634 607 638 605 642 L605 642 L605 642 C572 713 479 758 354 758 C187 758 76 581 76 373 C76 172 180 0 338 -11 L312 -105 L323 -112 L324 -110 C327 -101 336 -96 347 -96 C363 -96 373 -117 373 -148 C373 -179 362 -200 346 -200 C332 -200 321 -188 319 -169 L305 -180 C307 -203 324 -218 347 -218 C375 -218 393 -190 393 -148 C393 -107 376 -79 350 -79 C341 -79 333 -83 328 -90 L349 -12 C351 -12 353 -12 355 -12 C513 -12 619 59 619 165 L588 191 L588 191 Z " />
<glyph glyph-name="Egrave" unicode="&#xc8;" horiz-adv-x="509" d="M270 830 L303 830 L267 980 L220 980 L270 830 L270 830 Z M459 16 L459 33 L459 93 C459 93 457 89 453 83 C449 76 446 72 446 73 L446 33 L169 33 L169 371 L411 371 L411 331 C411 331 414 327 418 321 C422 315 424 311 424 311 L424 371 L424 387 L424 403 L424 463 C424 463 422 459 418 453 C414 447 411 443 411 443 L411 403 L169 403 L169 717 L431 717 L431 677 C431 677 434 673 438 667 C442 661 444 657 444 657 L444 717 L444 734 L444 750 L169 750 L168 750 L149 750 L129 750 L69 750 C69 750 73 747 79 743 C85 740 89 737 89 737 L129 737 L129 13 L89 13 C89 13 85 10 79 7 C73 3 69 0 69 0 L129 0 L149 0 L168 0 L169 0 L459 0 L459 16 L459 16 Z " />
<glyph glyph-name="Eacute" unicode="&#xc9;" horiz-adv-x="509" d="M270 830 L303 830 L353 980 L307 980 L270 830 L270 830 Z M459 16 L459 33 L459 93 C459 93 457 89 453 83 C449 76 446 72 446 73 L446 33 L169 33 L169 371 L411 371 L411 331 C411 331 414 327 418 321 C422 315 424 311 424 311 L424 371 L424 387 L424 403 L424 463 C424 463 422 459 418 453 C414 447 411 443 411 443 L411 403 L169 403 L169 717 L431 717 L431 677 C431 677 434 673 438 667 C442 661 444 657 444 657 L444 717 L444 734 L444 750 L169 750 L168 750 L149 750 L129 750 L69 750 C69 750 73 747 79 743 C85 740 89 737 89 737 L129 737 L129 13 L89 13 C89 13 85 10 79 7 C73 3 69 0 69 0 L129 0 L149 0 L168 0 L169 0 L459 0 L459 16 L459 16 Z " />
<glyph glyph-name="Ecircumflex" unicode="&#xca;" horiz-adv-x="509" d="M287 952 L396 830 L429 830 L305 980 L269 980 L144 830 L177 830 L287 952 L287 952 Z M459 16 L459 33 L459 93 C459 93 457 89 453 83 C449 76 446 72 446 73 L446 33 L169 33 L169 371 L411 371 L411 331 C411 331 414 327 418 321 C422 315 424 311 424 311 L424 371 L424 387 L424 403 L424 463 C424 463 422 459 418 453 C414 447 411 443 411 443 L411 403 L169 403 L169 717 L431 717 L431 677 C431 677 434 673 438 667 C442 661 444 657 444 657 L444 717 L444 734 L444 750 L169 750 L168 750 L149 750 L129 750 L69 750 C69 750 73 747 79 743 C85 740 89 737 89 737 L129 737 L129 13 L89 13 C89 13 85 10 79 7 C73 3 69 0 69 0 L129 0 L149 0 L168 0 L169 0 L459 0 L459 16 L459 16 Z " />
<glyph glyph-name="Edieresis" unicode="&#xcb;" horiz-adv-x="509" d="M320 830 L380 830 L380 890 L320 890 L320 830 L320 830 Z M193 830 L253 830 L253 890 L193 890 L193 830 L193 830 Z M459 16 L459 33 L459 93 C459 93 457 89 453 83 C449 76 446 72 446 73 L446 33 L169 33 L169 371 L411 371 L411 331 C411 331 414 327 418 321 C422 315 424 311 424 311 L424 371 L424 387 L424 403 L424 463 C424 463 422 459 418 453 C414 447 411 443 411 443 L411 403 L169 403 L169 717 L431 717 L431 677 C431 677 434 673 438 667 C442 661 444 657 444 657 L444 717 L444 734 L444 750 L169 750 L168 750 L149 750 L129 750 L69 750 C69 750 73 747 79 743 C85 740 89 737 89 737 L129 737 L129 13 L89 13 C89 13 85 10 79 7 C73 3 69 0 69 0 L129 0 L149 0 L168 0 L169 0 L459 0 L459 16 L459 16 Z " />
<glyph glyph-name="Igrave" unicode="&#xcc;" horiz-adv-x="250" d="M110 830 L142 830 L106 980 L59 980 L110 830 L110 830 Z M126 0 L146 0 L206 0 C206 0 202 3 196 7 C190 10 186 13 186 13 L146 13 L146 737 L186 737 C186 737 190 740 196 743 C202 747 206 750 206 750 L146 750 L126 750 L106 750 L46 750 C46 750 50 747 56 743 C62 740 66 737 66 737 L106 737 L106 13 L66 13 C66 13 62 10 56 7 C50 3 46 0 46 0 L106 0 L126 0 L126 0 Z " />
<glyph glyph-name="Iacute" unicode="&#xcd;" horiz-adv-x="250" d="M110 830 L142 830 L193 980 L146 980 L110 830 L110 830 Z M126 0 L146 0 L206 0 C206 0 202 3 196 7 C190 10 186 13 186 13 L146 13 L146 737 L186 737 C186 737 190 740 196 743 C202 747 206 750 206 750 L146 750 L126 750 L106 750 L46 750 C46 750 50 747 56 743 C62 740 66 737 66 737 L106 737 L106 13 L66 13 C66 13 62 10 56 7 C50 3 46 0 46 0 L106 0 L126 0 L126 0 Z " />
<glyph glyph-name="Icircumflex" unicode="&#xce;" horiz-adv-x="250" d="M126 952 L236 830 L268 830 L144 980 L108 980 L-17 830 L16 830 L126 952 L126 952 Z M126 0 L146 0 L206 0 C206 0 202 3 196 7 C190 10 186 13 186 13 L146 13 L146 737 L186 737 C186 737 190 740 196 743 C202 747 206 750 206 750 L146 750 L126 750 L106 750 L46 750 C46 750 50 747 56 743 C62 740 66 737 66 737 L106 737 L106 13 L66 13 C66 13 62 10 56 7 C50 3 46 0 46 0 L106 0 L126 0 L126 0 Z " />
<glyph glyph-name="Idieresis" unicode="&#xcf;" horiz-adv-x="250" d="M160 830 L220 830 L220 890 L160 890 L160 830 L160 830 Z M32 830 L92 830 L92 890 L32 890 L32 830 L32 830 Z M126 0 L146 0 L206 0 C206 0 202 3 196 7 C190 10 186 13 186 13 L146 13 L146 737 L186 737 C186 737 190 740 196 743 C202 747 206 750 206 750 L146 750 L126 750 L106 750 L46 750 C46 750 50 747 56 743 C62 740 66 737 66 737 L106 737 L106 13 L66 13 C66 13 62 10 56 7 C50 3 46 0 46 0 L106 0 L126 0 L126 0 Z " />
<glyph glyph-name="Ntilde" unicode="&#xd1;" horiz-adv-x="584" d="M258 830 C258 868 268 893 284 893 C329 893 272 820 327 820 C357 820 377 856 377 911 L350 911 C350 873 340 848 325 848 C280 848 336 921 281 921 C252 921 232 885 232 830 L258 830 L258 830 Z M439 737 L439 72 L169 740 L169 750 L165 750 L149 750 L129 750 L69 750 C69 750 73 747 79 743 C85 740 89 737 89 737 L129 737 L129 13 L89 13 C89 13 85 10 79 7 C73 3 69 0 69 0 L129 0 L149 0 L169 0 L229 0 C229 0 225 3 219 7 C213 10 209 13 209 13 L169 13 L169 651 L432 0 L439 0 L468 0 L479 0 L479 737 L519 737 C520 737 524 740 529 743 C536 747 540 750 539 750 L479 750 L459 750 L439 750 L379 750 C379 750 383 747 389 743 C395 740 399 737 399 737 L439 737 L439 737 Z " />
<glyph glyph-name="Ograve" unicode="&#xd2;" horiz-adv-x="729" d="M361 830 L394 830 L357 980 L311 980 L361 830 L361 830 Z M377 23 C225 23 123 164 123 375 C123 576 232 727 377 727 C522 727 631 576 631 375 C631 164 530 23 377 23 L377 23 Z M80 375 C80 144 199 -10 377 -10 C555 -10 674 144 674 375 C674 594 546 760 377 760 C208 760 80 594 80 375 L80 375 Z " />
<glyph glyph-name="Oacute" unicode="&#xd3;" horiz-adv-x="729" d="M361 830 L394 830 L444 980 L397 980 L361 830 L361 830 Z M377 23 C225 23 123 164 123 375 C123 576 232 727 377 727 C522 727 631 576 631 375 C631 164 530 23 377 23 L377 23 Z M80 375 C80 144 199 -10 377 -10 C555 -10 674 144 674 375 C674 594 546 760 377 760 C208 760 80 594 80 375 L80 375 Z " />
<glyph glyph-name="Ocircumflex" unicode="&#xd4;" horiz-adv-x="729" d="M377 952 L487 830 L520 830 L395 980 L359 980 L235 830 L268 830 L377 952 L377 952 Z M377 23 C225 23 123 164 123 375 C123 576 232 727 377 727 C522 727 631 576 631 375 C631 164 530 23 377 23 L377 23 Z M80 375 C80 144 199 -10 377 -10 C555 -10 674 144 674 375 C674 594 546 760 377 760 C208 760 80 594 80 375 L80 375 Z " />
<glyph glyph-name="Otilde" unicode="&#xd5;" horiz-adv-x="729" d="M331 830 C331 868 341 893 357 893 C402 893 345 820 400 820 C430 820 450 856 450 911 L423 911 C423 873 413 848 398 848 C353 848 409 921 354 921 C325 921 305 885 305 830 L331 830 L331 830 Z M377 23 C225 23 123 164 123 375 C123 576 232 727 377 727 C522 727 631 576 631 375 C631 164 530 23 377 23 L377 23 Z M80 375 C80 144 199 -10 377 -10 C555 -10 674 144 674 375 C674 594 546 760 377 760 C208 760 80 594 80 375 L80 375 Z " />
<glyph glyph-name="Odieresis" unicode="&#xd6;" horiz-adv-x="729" d="M411 830 L471 830 L471 890 L411 890 L411 830 L411 830 Z M284 830 L344 830 L344 890 L284 890 L284 830 L284 830 Z M377 23 C225 23 123 164 123 375 C123 576 232 727 377 727 C522 727 631 576 631 375 C631 164 530 23 377 23 L377 23 Z M80 375 C80 144 199 -10 377 -10 C555 -10 674 144 674 375 C674 594 546 760 377 760 C208 760 80 594 80 375 L80 375 Z " />
<glyph glyph-name="Oslash" unicode="&#xd8;" horiz-adv-x="729" d="M377 23 C303 23 241 57 197 116 L568 615 C609 553 633 470 633 375 C633 164 532 23 379 23 L377 23 L377 23 Z M82 375 C82 261 111 166 162 99 L82 -9 L104 -9 L174 85 C225 25 296 -9 380 -9 C558 -9 677 145 677 376 C677 484 646 579 594 648 L678 760 L656 760 L583 662 C531 724 461 761 382 761 C213 761 85 595 85 376 L82 375 L82 375 Z M190 132 C150 193 128 277 128 376 C128 577 237 728 382 728 C453 728 515 692 560 631 L190 132 L190 132 Z " />
<glyph glyph-name="Ugrave" unicode="&#xd9;" horiz-adv-x="598" d="M294 820 L327 820 L290 970 L244 970 L294 820 L294 820 Z M122 737 L122 293 C122 93 186 -10 310 -10 C434 -10 498 93 498 293 L498 737 L538 737 C539 737 543 740 548 743 C555 747 559 750 558 750 L498 750 L478 750 L458 750 L398 750 C398 750 402 747 408 743 C414 740 418 737 418 737 L458 737 L458 300 C458 120 408 27 310 27 C212 27 162 120 162 300 L162 737 L202 737 C202 737 206 740 212 743 C218 747 222 750 222 750 L162 750 L142 750 L122 750 L62 750 C62 750 66 747 72 743 C78 740 82 737 82 737 L122 737 L122 737 Z " />
<glyph glyph-name="Uacute" unicode="&#xda;" horiz-adv-x="598" d="M294 820 L327 820 L377 970 L330 970 L294 820 L294 820 Z M122 737 L122 293 C122 93 186 -10 310 -10 C434 -10 498 93 498 293 L498 737 L538 737 C539 737 543 740 548 743 C555 747 559 750 558 750 L498 750 L478 750 L458 750 L398 750 C398 750 402 747 408 743 C414 740 418 737 418 737 L458 737 L458 300 C458 120 408 27 310 27 C212 27 162 120 162 300 L162 737 L202 737 C202 737 206 740 212 743 C218 747 222 750 222 750 L162 750 L142 750 L122 750 L62 750 C62 750 66 747 72 743 C78 740 82 737 82 737 L122 737 L122 737 Z " />
<glyph glyph-name="Ucircumflex" unicode="&#xdb;" horiz-adv-x="598" d="M310 942 L420 820 L453 820 L328 970 L292 970 L168 820 L200 820 L310 942 L310 942 Z M122 737 L122 293 C122 93 186 -10 310 -10 C434 -10 498 93 498 293 L498 737 L538 737 C539 737 543 740 548 743 C555 747 559 750 558 750 L498 750 L478 750 L458 750 L398 750 C398 750 402 747 408 743 C414 740 418 737 418 737 L458 737 L458 300 C458 120 408 27 310 27 C212 27 162 120 162 300 L162 737 L202 737 C202 737 206 740 212 743 C218 747 222 750 222 750 L162 750 L142 750 L122 750 L62 750 C62 750 66 747 72 743 C78 740 82 737 82 737 L122 737 L122 737 Z " />
<glyph glyph-name="Udieresis" unicode="&#xdc;" horiz-adv-x="598" d="M344 820 L404 820 L404 880 L344 880 L344 820 L344 820 Z M217 820 L277 820 L277 880 L217 880 L217 820 L217 820 Z M122 737 L122 293 C122 93 186 -10 310 -10 C434 -10 498 93 498 293 L498 737 L538 737 C539 737 543 740 548 743 C555 747 559 750 558 750 L498 750 L478 750 L458 750 L398 750 C398 750 402 747 408 743 C414 740 418 737 418 737 L458 737 L458 300 C458 120 408 27 310 27 C212 27 162 120 162 300 L162 737 L202 737 C202 737 206 740 212 743 C218 747 222 750 222 750 L162 750 L142 750 L122 750 L62 750 C62 750 66 747 72 743 C78 740 82 737 82 737 L122 737 L122 737 Z " />
<glyph glyph-name="Yacute" unicode="&#xdd;" horiz-adv-x="560" d="M278 830 L311 830 L361 980 L315 980 L278 830 L278 830 Z M275 13 L235 13 C235 13 231 10 225 7 C219 3 215 0 215 0 L275 0 L295 0 L315 0 L375 0 C375 0 371 3 365 7 C359 10 355 13 355 13 L315 13 L315 330 L523 737 L524 737 L564 737 L564 743 L564 750 L530 750 L510 750 L490 750 L430 750 C430 750 434 747 440 743 C446 740 450 737 450 737 L483 737 L294 366 L105 737 L105 737 L138 737 C138 737 142 740 148 743 C154 747 158 750 158 750 L98 750 L78 750 L58 750 L25 750 L25 743 L25 737 L65 737 L274 330 L275 13 L275 13 Z " />
<glyph glyph-name="Thorn" unicode="&#xde;" horiz-adv-x="559" d="M149 0 L169 0 L229 0 C229 0 225 3 219 7 C213 10 209 13 209 13 L169 13 L169 150 L349 150 C465 150 524 227 524 375 C524 524 465 600 349 600 L169 600 L169 737 L209 737 C209 737 213 740 219 743 C225 747 229 750 229 750 L169 750 L149 750 L129 750 L69 750 C69 750 73 747 79 743 C85 740 89 737 89 737 L129 737 L129 13 L89 13 C89 13 85 10 79 7 C73 3 69 0 69 0 L129 0 L149 0 L149 0 Z M169 181 L169 569 L348 569 C438 569 484 503 484 375 C484 247 439 181 351 181 L169 181 L169 181 Z " />
<glyph glyph-name="agrave" unicode="&#xe0;" horiz-adv-x="465" d="M215 600 L248 600 L212 750 L165 750 L215 600 L215 600 Z M73 385 L105 374 C105 450 156 500 232 500 C306 500 355 466 355 380 C355 307 295 271 205 249 C118 227 60 169 60 104 C60 36 102 -10 211 -10 C281 -10 333 12 355 82 L355 45 C355 2 358 0 435 0 L435 26 C392 26 390 27 390 45 L390 365 C390 484 327 530 232 530 C136 530 73 472 73 385 L73 385 Z M355 303 L355 167 C355 48 302 15 222 15 C131 15 96 51 96 105 C96 158 148 207 227 226 C286 241 332 264 355 304 L355 303 L355 303 Z " />
<glyph glyph-name="aacute" unicode="&#xe1;" horiz-adv-x="465" d="M215 600 L248 600 L298 750 L252 750 L215 600 L215 600 Z M73 385 L105 374 C105 450 156 500 232 500 C306 500 355 466 355 380 C355 307 295 271 205 249 C118 227 60 169 60 104 C60 36 102 -10 211 -10 C281 -10 333 12 355 82 L355 45 C355 2 358 0 435 0 L435 26 C392 26 390 27 390 45 L390 365 C390 484 327 530 232 530 C136 530 73 472 73 385 L73 385 Z M355 303 L355 167 C355 48 302 15 222 15 C131 15 96 51 96 105 C96 158 148 207 227 226 C286 241 332 264 355 304 L355 303 L355 303 Z " />
<glyph glyph-name="acircumflex" unicode="&#xe2;" horiz-adv-x="465" d="M232 722 L341 600 L374 600 L250 750 L214 750 L89 600 L122 600 L232 722 L232 722 Z M73 385 L105 374 C105 450 156 500 232 500 C306 500 355 466 355 380 C355 307 295 271 205 249 C118 227 60 169 60 104 C60 36 102 -10 211 -10 C281 -10 333 12 355 82 L355 45 C355 2 358 0 435 0 L435 26 C392 26 390 27 390 45 L390 365 C390 484 327 530 232 530 C136 530 73 472 73 385 L73 385 Z M355 303 L355 167 C355 48 302 15 222 15 C131 15 96 51 96 105 C96 158 148 207 227 226 C286 241 332 264 355 304 L355 303 L355 303 Z " />
<glyph glyph-name="atilde" unicode="&#xe3;" horiz-adv-x="533" d="M221 600 C221 638 231 663 247 663 C292 663 235 590 291 590 C320 590 340 626 340 681 L314 681 C314 643 304 618 288 618 C243 618 300 691 244 691 C215 691 195 655 195 600 L221 600 L221 600 Z M71 260 C71 98 153 -10 276 -10 C348 -10 403 45 429 135 L429 1 L465 1 L465 521 L429 521 L429 387 C403 477 348 532 276 532 C153 532 71 424 71 262 L71 260 L71 260 Z M428 262 C428 117 372 21 288 21 C181 21 110 117 110 262 C110 407 181 503 288 503 C372 503 428 407 428 262 L428 262 Z " />
<glyph glyph-name="adieresis" unicode="&#xe4;" horiz-adv-x="465" d="M279 600 L339 600 L339 660 L279 660 L279 600 L279 600 Z M124 600 L184 600 L184 660 L124 660 L124 600 L124 600 Z M73 385 L105 374 C105 450 156 500 232 500 C306 500 355 466 355 380 C355 307 295 271 205 249 C118 227 60 169 60 104 C60 36 102 -10 211 -10 C281 -10 333 12 355 82 L355 45 C355 2 358 0 435 0 L435 26 C392 26 390 27 390 45 L390 365 C390 484 327 530 232 530 C136 530 73 472 73 385 L73 385 Z M355 303 L355 167 C355 48 302 15 222 15 C131 15 96 51 96 105 C96 158 148 207 227 226 C286 241 332 264 355 304 L355 303 L355 303 Z " />
<glyph glyph-name="aring" unicode="&#xe5;" horiz-adv-x="465" d="M232 617 C191 617 170 640 170 685 C170 728 193 753 232 753 C271 753 294 728 294 685 C294 640 273 617 232 617 L232 617 Z M152 685 C152 629 179 600 232 600 C284 600 311 629 311 685 C311 739 282 770 232 770 C181 770 152 739 152 685 L152 685 Z M73 385 L105 374 C105 450 156 500 232 500 C306 500 355 466 355 380 C355 307 295 271 205 249 C118 227 60 169 60 104 C60 36 102 -10 211 -10 C281 -10 333 12 355 82 L355 45 C355 2 358 0 435 0 L435 26 C392 26 390 27 390 45 L390 365 C390 484 327 530 232 530 C136 530 73 472 73 385 L73 385 Z M355 303 L355 167 C355 48 302 15 222 15 C131 15 96 51 96 105 C96 158 148 207 227 226 C286 241 332 264 355 304 L355 303 L355 303 Z " />
<glyph glyph-name="ccedilla" unicode="&#xe7;" horiz-adv-x="472" d="M411 147 C411 71 351 20 260 20 C170 20 110 94 110 260 C110 427 170 502 260 502 C369 502 411 444 411 357 L442 372 C442 467 391 530 260 530 C147 530 71 446 71 260 C71 81 142 -4 248 -10 L221 -103 L231 -110 C234 -100 244 -94 256 -94 C272 -94 282 -115 282 -146 C282 -177 271 -198 255 -198 C241 -198 230 -186 228 -167 L214 -178 C216 -201 233 -216 256 -216 C284 -216 302 -188 302 -146 C302 -105 285 -77 259 -77 C249 -77 241 -82 237 -90 L260 -10 L260 -10 C370 -10 443 46 443 131 L411 147 L411 147 Z " />
<glyph glyph-name="egrave" unicode="&#xe8;" horiz-adv-x="479" d="M246 600 L279 600 L243 750 L196 750 L246 600 L246 600 Z M416 145 C416 70 354 20 260 20 C172 20 113 91 111 250 L419 250 L455 250 C455 418 401 530 264 530 C149 530 72 446 72 260 C72 74 148 -10 261 -10 C374 -10 450 47 450 132 L416 145 L416 145 Z M419 275 L112 275 C116 431 176 502 265 502 C371 502 415 412 420 275 L419 275 L419 275 Z " />
<glyph glyph-name="eacute" unicode="&#xe9;" horiz-adv-x="479" d="M246 600 L279 600 L329 750 L283 750 L246 600 L246 600 Z M416 145 C416 70 354 20 260 20 C172 20 113 91 111 250 L419 250 L455 250 C455 418 401 530 264 530 C149 530 72 446 72 260 C72 74 148 -10 261 -10 C374 -10 450 47 450 132 L416 145 L416 145 Z M419 275 L112 275 C116 431 176 502 265 502 C371 502 415 412 420 275 L419 275 L419 275 Z " />
<glyph glyph-name="ecircumflex" unicode="&#xea;" horiz-adv-x="479" d="M263 722 L372 600 L405 600 L281 750 L245 750 L120 600 L153 600 L263 722 L263 722 Z M416 145 C416 70 354 20 260 20 C172 20 113 91 111 250 L419 250 L455 250 C455 418 401 530 264 530 C149 530 72 446 72 260 C72 74 148 -10 261 -10 C374 -10 450 47 450 132 L416 145 L416 145 Z M419 275 L112 275 C116 431 176 502 265 502 C371 502 415 412 420 275 L419 275 L419 275 Z " />
<glyph glyph-name="edieresis" unicode="&#xeb;" horiz-adv-x="479" d="M296 600 L356 600 L356 660 L296 660 L296 600 L296 600 Z M169 600 L229 600 L229 660 L169 660 L169 600 L169 600 Z M416 145 C416 70 354 20 260 20 C172 20 113 91 111 250 L419 250 L455 250 C455 418 401 530 264 530 C149 530 72 446 72 260 C72 74 148 -10 261 -10 C374 -10 450 47 450 132 L416 145 L416 145 Z M419 275 L112 275 C116 431 176 502 265 502 C371 502 415 412 420 275 L419 275 L419 275 Z " />
<glyph glyph-name="igrave" unicode="&#xec;" horiz-adv-x="197" d="M74 600 L106 600 L70 750 L23 750 L74 600 L74 600 Z M90 0 L108 0 L168 0 C168 0 164 3 158 7 C152 10 148 13 148 13 L108 13 L108 520 L90 520 L72 520 L12 520 C12 520 16 517 22 513 C28 510 32 507 32 507 L72 507 L72 13 L32 13 C32 13 28 10 22 7 C16 3 12 0 12 0 L72 0 L90 0 L90 0 Z " />
<glyph glyph-name="iacute" unicode="&#xed;" horiz-adv-x="197" d="M74 600 L106 600 L157 750 L110 750 L74 600 L74 600 Z M90 0 L108 0 L168 0 C168 0 164 3 158 7 C152 10 148 13 148 13 L108 13 L108 520 L90 520 L72 520 L12 520 C12 520 16 517 22 513 C28 510 32 507 32 507 L72 507 L72 13 L32 13 C32 13 28 10 22 7 C16 3 12 0 12 0 L72 0 L90 0 L90 0 Z " />
<glyph glyph-name="icircumflex" unicode="&#xee;" horiz-adv-x="197" d="M90 722 L200 600 L233 600 L108 750 L72 750 L-52 600 L-20 600 L90 722 L90 722 Z M90 0 L108 0 L168 0 C168 0 164 3 158 7 C152 10 148 13 148 13 L108 13 L108 520 L90 520 L72 520 L12 520 C12 520 16 517 22 513 C28 510 32 507 32 507 L72 507 L72 13 L32 13 C32 13 28 10 22 7 C16 3 12 0 12 0 L72 0 L90 0 L90 0 Z " />
<glyph glyph-name="idieresis" unicode="&#xef;" horiz-adv-x="197" d="M138 600 L198 600 L198 660 L138 660 L138 600 L138 600 Z M-17 600 L43 600 L43 660 L-17 660 L-17 600 L-17 600 Z M90 0 L108 0 L168 0 C168 0 164 3 158 7 C152 10 148 13 148 13 L108 13 L108 520 L90 520 L72 520 L12 520 C12 520 16 517 22 513 C28 510 32 507 32 507 L72 507 L72 13 L32 13 C32 13 28 10 22 7 C16 3 12 0 12 0 L72 0 L90 0 L90 0 Z " />
<glyph glyph-name="ntilde" unicode="&#xf1;" horiz-adv-x="465" d="M199 600 C199 638 209 663 225 663 C270 663 213 590 268 590 C298 590 318 626 318 681 L291 681 C291 643 281 618 266 618 C221 618 277 691 222 691 C193 691 173 655 173 600 L199 600 L199 600 Z M362 0 L380 0 L440 0 C440 0 437 3 430 7 C425 10 421 13 420 13 L380 13 L380 315 C380 454 336 525 269 525 C211 525 167 490 147 432 L147 511 L147 521 L129 521 L120 521 L111 521 L51 521 C51 521 55 518 61 514 C67 511 71 508 71 508 L111 508 L111 14 L71 14 C71 14 67 11 61 8 C55 4 51 1 51 1 L111 1 L129 1 L147 1 L207 1 C207 1 203 4 197 8 C191 11 187 14 187 14 L147 14 L147 355 C147 439 191 494 257 494 C310 494 346 433 346 316 L346 14 L305 14 C305 14 301 11 295 8 C289 4 285 1 285 1 L346 1 L362 0 L362 0 Z " />
<glyph glyph-name="ograve" unicode="&#xf2;" horiz-adv-x="505" d="M247 600 L280 600 L243 750 L197 750 L247 600 L247 600 Z M263 16 C158 16 110 114 110 260 C110 428 171 504 263 504 C369 504 416 406 416 260 C416 92 355 16 263 16 L263 16 Z M71 260 C71 98 131 -10 263 -10 C378 -10 455 74 455 260 C455 422 396 530 263 530 C148 530 71 446 71 260 L71 260 Z " />
<glyph glyph-name="oacute" unicode="&#xf3;" horiz-adv-x="505" d="M247 600 L280 600 L330 750 L283 750 L247 600 L247 600 Z M263 16 C158 16 110 114 110 260 C110 428 171 504 263 504 C369 504 416 406 416 260 C416 92 355 16 263 16 L263 16 Z M71 260 C71 98 131 -10 263 -10 C378 -10 455 74 455 260 C455 422 396 530 263 530 C148 530 71 446 71 260 L71 260 Z " />
<glyph glyph-name="ocircumflex" unicode="&#xf4;" horiz-adv-x="505" d="M263 722 L373 600 L406 600 L281 750 L245 750 L121 600 L154 600 L263 722 L263 722 Z M263 16 C158 16 110 114 110 260 C110 428 171 504 263 504 C369 504 416 406 416 260 C416 92 355 16 263 16 L263 16 Z M71 260 C71 98 131 -10 263 -10 C378 -10 455 74 455 260 C455 422 396 530 263 530 C148 530 71 446 71 260 L71 260 Z " />
<glyph glyph-name="otilde" unicode="&#xf5;" horiz-adv-x="505" d="M217 600 C217 638 227 663 243 663 C288 663 231 590 286 590 C316 590 336 626 336 681 L309 681 C309 643 299 618 284 618 C239 618 295 691 240 691 C211 691 191 655 191 600 L217 600 L217 600 Z M263 16 C158 16 110 114 110 260 C110 428 171 504 263 504 C369 504 416 406 416 260 C416 92 355 16 263 16 L263 16 Z M71 260 C71 98 131 -10 263 -10 C378 -10 455 74 455 260 C455 422 396 530 263 530 C148 530 71 446 71 260 L71 260 Z " />
<glyph glyph-name="odieresis" unicode="&#xf6;" horiz-adv-x="505" d="M297 600 L357 600 L357 660 L297 660 L297 600 L297 600 Z M170 600 L230 600 L230 660 L170 660 L170 600 L170 600 Z M263 16 C158 16 110 114 110 260 C110 428 171 504 263 504 C369 504 416 406 416 260 C416 92 355 16 263 16 L263 16 Z M71 260 C71 98 131 -10 263 -10 C378 -10 455 74 455 260 C455 422 396 530 263 530 C148 530 71 446 71 260 L71 260 Z " />
<glyph glyph-name="oslash" unicode="&#xf8;" horiz-adv-x="505" d="M263 16 C212 16 174 39 149 80 L385 426 C406 384 416 327 416 259 C416 91 355 15 263 15 L263 16 L263 16 Z M71 259 C71 176 87 107 120 60 L71 -11 L87 -11 L128 49 C159 11 204 -11 263 -11 C378 -11 455 73 455 259 C455 342 440 411 407 458 L455 529 L440 529 L399 469 C368 508 323 530 263 530 C148 530 71 446 71 260 L71 259 L71 259 Z M142 93 C121 135 111 192 111 259 C111 427 172 503 264 503 C316 503 354 479 379 438 L142 93 L142 93 Z " />
<glyph glyph-name="ugrave" unicode="&#xf9;" horiz-adv-x="466" d="M224 600 L257 600 L221 750 L174 750 L224 600 L224 600 Z M376 13 L376 520 L358 520 L340 520 L280 520 C280 520 284 517 290 513 C296 510 300 507 300 507 L340 507 L340 146 C340 72 301 22 243 22 C164 22 141 71 141 166 L141 520 L123 520 L105 520 L45 520 C45 520 49 517 55 513 C61 510 65 507 65 507 L105 507 L105 166 C105 50 133 -10 232 -10 C284 -10 323 23 340 77 L340 10 L340 0 L358 0 L376 0 L436 0 C436 0 433 3 426 7 C421 10 417 13 416 13 L376 13 L376 13 Z " />
<glyph glyph-name="uacute" unicode="&#xfa;" horiz-adv-x="466" d="M224 600 L257 600 L307 750 L261 750 L224 600 L224 600 Z M376 13 L376 520 L358 520 L340 520 L280 520 C280 520 284 517 290 513 C296 510 300 507 300 507 L340 507 L340 146 C340 72 301 22 243 22 C164 22 141 71 141 166 L141 520 L123 520 L105 520 L45 520 C45 520 49 517 55 513 C61 510 65 507 65 507 L105 507 L105 166 C105 50 133 -10 232 -10 C284 -10 323 23 340 77 L340 10 L340 0 L358 0 L376 0 L436 0 C436 0 433 3 426 7 C421 10 417 13 416 13 L376 13 L376 13 Z " />
<glyph glyph-name="ucircumflex" unicode="&#xfb;" horiz-adv-x="466" d="M241 722 L350 600 L383 600 L259 750 L223 750 L98 600 L131 600 L241 722 L241 722 Z M376 13 L376 520 L358 520 L340 520 L280 520 C280 520 284 517 290 513 C296 510 300 507 300 507 L340 507 L340 146 C340 72 301 22 243 22 C164 22 141 71 141 166 L141 520 L123 520 L105 520 L45 520 C45 520 49 517 55 513 C61 510 65 507 65 507 L105 507 L105 166 C105 50 133 -10 232 -10 C284 -10 323 23 340 77 L340 10 L340 0 L358 0 L376 0 L436 0 C436 0 433 3 426 7 C421 10 417 13 416 13 L376 13 L376 13 Z " />
<glyph glyph-name="udieresis" unicode="&#xfc;" horiz-adv-x="466" d="M274 600 L334 600 L334 660 L274 660 L274 600 L274 600 Z M147 600 L207 600 L207 660 L147 660 L147 600 L147 600 Z M376 13 L376 520 L358 520 L340 520 L280 520 C280 520 284 517 290 513 C296 510 300 507 300 507 L340 507 L340 146 C340 72 301 22 243 22 C164 22 141 71 141 166 L141 520 L123 520 L105 520 L45 520 C45 520 49 517 55 513 C61 510 65 507 65 507 L105 507 L105 166 C105 50 133 -10 232 -10 C284 -10 323 23 340 77 L340 10 L340 0 L358 0 L376 0 L436 0 C436 0 433 3 426 7 C421 10 417 13 416 13 L376 13 L376 13 Z " />
<glyph glyph-name="yacute" unicode="&#xfd;" horiz-adv-x="424" d="M197 600 L229 600 L280 750 L233 750 L197 600 L197 600 Z M350 507 L350 507 L213 56 L76 507 L76 507 L112 507 C113 507 117 510 122 513 C129 517 133 520 132 520 L72 520 L52 520 L32 520 L-4 520 L-4 513 L-4 507 L36 507 L36 507 L197 2 L195 -4 C154 -133 137 -169 117 -169 L67 -169 L67 -200 L117 -200 C155 -200 179 -160 223 -18 L390 507 L390 507 L430 507 L430 513 L430 520 L394 520 L374 520 L354 520 L294 520 C294 520 298 517 304 513 C310 510 314 507 314 507 L350 507 L350 507 Z " />
<glyph glyph-name="thorn" unicode="&#xfe;" horiz-adv-x="513" d="M275 19 C185 19 126 94 126 260 C126 426 185 501 275 501 C364 501 424 405 424 260 C424 115 364 19 275 19 L275 19 Z M108 -250 L126 -250 L186 -250 C186 -250 182 -247 176 -243 C170 -240 166 -237 166 -237 L126 -237 L126 130 C152 34 210 -10 286 -10 C392 -10 463 98 463 260 C463 422 392 530 286 530 C210 530 152 486 126 390 L126 750 L108 750 L99 750 L90 750 L30 750 C30 750 34 747 40 743 C46 740 50 737 50 737 L90 737 L90 -237 L50 -237 C50 -237 46 -240 40 -243 C34 -247 30 -250 30 -250 L90 -250 L108 -250 L108 -250 Z " />
<glyph glyph-name="ydieresis" unicode="&#xff;" horiz-adv-x="424" d="M247 600 L307 600 L307 660 L247 660 L247 600 L247 600 Z M119 600 L179 600 L179 660 L119 660 L119 600 L119 600 Z M350 507 L350 507 L213 56 L76 507 L76 507 L112 507 C113 507 117 510 122 513 C129 517 133 520 132 520 L72 520 L52 520 L32 520 L-4 520 L-4 513 L-4 507 L36 507 L36 507 L197 2 L195 -4 C154 -133 137 -169 117 -169 L67 -169 L67 -200 L117 -200 C155 -200 179 -160 223 -18 L390 507 L390 507 L430 507 L430 513 L430 520 L394 520 L374 520 L354 520 L294 520 C294 520 298 517 304 513 C310 510 314 507 314 507 L350 507 L350 507 Z " />
<glyph glyph-name="Amacron" unicode="&#x100;" horiz-adv-x="680" d="M273 830 L434 830 L434 855 L273 855 L273 830 L273 830 Z M646 13 L645 13 L373 750 L370 750 L350 750 L334 750 L331 750 L271 750 C271 750 275 747 281 743 C287 740 291 737 291 737 L326 737 L326 737 L59 13 L19 13 L19 7 L19 0 L54 0 L74 0 L95 0 L155 0 C155 0 151 3 145 7 C139 10 135 13 135 13 L100 13 L180 232 L179 229 L525 229 L514 260 L190 260 L352 701 L605 13 L605 13 L570 13 C570 13 566 10 560 7 C554 3 550 0 550 0 L610 0 L630 0 L650 0 L686 0 L686 7 L686 13 L646 13 L646 13 Z " />
<glyph glyph-name="amacron" unicode="&#x101;" horiz-adv-x="465" d="M151 600 L312 600 L312 625 L151 625 L151 600 L151 600 Z M73 385 L105 374 C105 450 156 500 232 500 C306 500 355 466 355 380 C355 307 295 271 205 249 C118 227 60 169 60 104 C60 36 102 -10 211 -10 C281 -10 333 12 355 82 L355 45 C355 2 358 0 435 0 L435 26 C392 26 390 27 390 45 L390 365 C390 484 327 530 232 530 C136 530 73 472 73 385 L73 385 Z M355 303 L355 167 C355 48 302 15 222 15 C131 15 96 51 96 105 C96 158 148 207 227 226 C286 241 332 264 355 304 L355 303 L355 303 Z " />
<glyph glyph-name="Abreve" unicode="&#x102;" horiz-adv-x="680" d="M272 941 C272 868 305 820 353 820 C402 820 435 868 435 941 L409 941 C409 883 387 845 353 845 C320 845 298 883 298 941 L272 941 L272 941 Z M646 13 L645 13 L373 750 L370 750 L350 750 L334 750 L331 750 L271 750 C271 750 275 747 281 743 C287 740 291 737 291 737 L326 737 L326 737 L59 13 L19 13 L19 7 L19 0 L54 0 L74 0 L95 0 L155 0 C155 0 151 3 145 7 C139 10 135 13 135 13 L100 13 L180 232 L179 229 L525 229 L514 260 L190 260 L352 701 L605 13 L605 13 L570 13 C570 13 566 10 560 7 C554 3 550 0 550 0 L610 0 L630 0 L650 0 L686 0 L686 7 L686 13 L646 13 L646 13 Z " />
<glyph glyph-name="abreve" unicode="&#x103;" horiz-adv-x="465" d="M150 711 C150 638 183 590 232 590 C280 590 313 638 313 711 L287 711 C287 653 265 615 232 615 C198 615 176 653 176 711 L150 711 L150 711 Z M73 385 L105 374 C105 450 156 500 232 500 C306 500 355 466 355 380 C355 307 295 271 205 249 C118 227 60 169 60 104 C60 36 102 -10 211 -10 C281 -10 333 12 355 82 L355 45 C355 2 358 0 435 0 L435 26 C392 26 390 27 390 45 L390 365 C390 484 327 530 232 530 C136 530 73 472 73 385 L73 385 Z M355 303 L355 167 C355 48 302 15 222 15 C131 15 96 51 96 105 C96 158 148 207 227 226 C286 241 332 264 355 304 L355 303 L355 303 Z " />
<glyph glyph-name="Aogonek" unicode="&#x104;" horiz-adv-x="680" d="M646 13 L645 13 L373 750 L370 750 L350 750 L334 750 L331 750 L271 750 C271 750 275 747 281 743 C287 740 291 737 291 737 L326 737 L326 737 L59 13 L19 13 L19 7 L19 0 L54 0 L74 0 L95 0 L155 0 C155 0 151 3 145 7 C139 10 135 13 135 13 L100 13 L180 232 L179 229 L525 229 L514 260 L190 260 L352 701 L605 13 L605 13 L570 13 C570 13 566 10 560 7 C554 3 550 0 550 0 L610 0 L630 0 L630 0 C603 -22 565 -67 565 -98 C565 -161 603 -203 660 -203 C692 -203 723 -191 738 -173 L735 -154 C721 -171 691 -182 662 -182 C616 -182 585 -147 585 -95 C585 -60 631 -10 650 1 L686 1 L686 8 L686 14 L646 13 L646 13 Z " />
<glyph glyph-name="aogonek" unicode="&#x105;" horiz-adv-x="516" d="M71 260 C71 98 149 -10 267 -10 C335 -10 387 45 411 135 L411 0 L429 0 L430 0 C401 -23 362 -68 362 -98 C362 -161 400 -203 456 -203 C488 -203 519 -191 534 -173 L531 -154 C517 -171 488 -182 458 -182 C412 -182 382 -147 382 -94 C382 -60 427 -10 447 1 L507 1 C506 1 502 4 497 8 C490 11 486 14 487 14 L447 14 L447 508 L487 508 C487 508 490 511 497 514 C502 518 506 521 507 521 L447 521 L429 521 L411 521 L411 386 C387 476 335 531 267 531 C149 531 71 423 71 261 L71 260 L71 260 Z M411 261 C411 116 358 20 278 20 C177 20 110 116 110 261 C110 406 177 502 278 502 C358 502 411 406 411 261 L411 261 Z " />
<glyph glyph-name="Cacute" unicode="&#x106;" horiz-adv-x="636" d="M330 830 L362 830 L413 980 L366 980 L330 830 L330 830 Z M588 191 C588 90 494 23 353 23 C212 23 118 185 118 375 C118 565 212 727 353 727 C494 727 588 660 588 559 L617 583 L617 643 C615 640 613 636 610 633 C610 632 610 631 610 630 C609 634 607 638 605 642 L605 642 L605 642 C572 713 479 758 354 758 C187 758 76 581 76 373 C76 165 187 -12 354 -12 C512 -12 618 59 618 165 L588 191 L588 191 Z " />
<glyph glyph-name="cacute" unicode="&#x107;" horiz-adv-x="472" d="M244 600 L277 600 L327 750 L280 750 L244 600 L244 600 Z M411 147 C411 71 351 20 260 20 C170 20 110 94 110 260 C110 427 170 502 260 502 C369 502 411 444 411 357 L442 372 C442 467 391 530 260 530 C147 530 71 446 71 260 C71 74 147 -10 260 -10 C370 -10 443 46 443 131 L411 147 L411 147 Z " />
<glyph glyph-name="Ccircumflex" unicode="&#x108;" horiz-adv-x="636" d="M346 952 L456 830 L489 830 L364 980 L328 980 L204 830 L236 830 L346 952 L346 952 Z M588 191 C588 90 494 23 353 23 C212 23 118 185 118 375 C118 565 212 727 353 727 C494 727 588 660 588 559 L617 583 L617 643 C615 640 613 636 610 633 C610 632 610 631 610 630 C609 634 607 638 605 642 L605 642 L605 642 C572 713 479 758 354 758 C187 758 76 581 76 373 C76 165 187 -12 354 -12 C512 -12 618 59 618 165 L588 191 L588 191 Z " />
<glyph glyph-name="Cdot" unicode="&#x10a;" horiz-adv-x="636" d="M316 830 L376 830 L376 890 L316 890 L316 830 L316 830 Z M588 191 C588 90 494 23 353 23 C212 23 118 185 118 375 C118 565 212 727 353 727 C494 727 588 660 588 559 L617 583 L617 643 C615 640 613 636 610 633 C610 632 610 631 610 630 C609 634 607 638 605 642 L605 642 L605 642 C572 713 479 758 354 758 C187 758 76 581 76 373 C76 165 187 -12 354 -12 C512 -12 618 59 618 165 L588 191 L588 191 Z " />
<glyph glyph-name="cdot" unicode="&#x10b;" horiz-adv-x="472" d="M230 600 L290 600 L290 660 L230 660 L230 600 L230 600 Z M411 147 C411 71 351 20 260 20 C170 20 110 94 110 260 C110 427 170 502 260 502 C369 502 411 444 411 357 L442 372 C442 467 391 530 260 530 C147 530 71 446 71 260 C71 74 147 -10 260 -10 C370 -10 443 46 443 131 L411 147 L411 147 Z " />
<glyph glyph-name="Ccaron" unicode="&#x10c;" horiz-adv-x="636" d="M346 858 L456 980 L489 980 L364 830 L328 830 L204 980 L236 980 L346 858 L346 858 Z M588 191 C588 90 494 23 353 23 C212 23 118 185 118 375 C118 565 212 727 353 727 C494 727 588 660 588 559 L617 583 L617 643 C615 640 613 636 610 633 C610 632 610 631 610 630 C609 634 607 638 605 642 L605 642 L605 642 C572 713 479 758 354 758 C187 758 76 581 76 373 C76 165 187 -12 354 -12 C512 -12 618 59 618 165 L588 191 L588 191 Z " />
<glyph glyph-name="ccaron" unicode="&#x10d;" horiz-adv-x="472" d="M260 628 L370 750 L403 750 L278 600 L242 600 L118 750 L151 750 L260 628 L260 628 Z M411 147 C411 71 351 20 260 20 C170 20 110 94 110 260 C110 427 170 502 260 502 C369 502 411 444 411 357 L442 372 C442 467 391 530 260 530 C147 530 71 446 71 260 C71 74 147 -10 260 -10 C370 -10 443 46 443 131 L411 147 L411 147 Z " />
<glyph glyph-name="Dcaron" unicode="&#x10e;" horiz-adv-x="699" d="M365 858 L475 980 L508 980 L383 830 L347 830 L223 980 L255 980 L365 858 L365 858 Z M149 0 L169 0 L326 0 C542 0 644 121 644 375 C644 623 526 750 296 750 L169 750 L149 750 L129 750 L69 750 C69 750 73 747 79 743 C85 740 89 737 89 737 L129 737 L129 13 L89 13 C89 13 85 10 79 7 C73 3 69 0 69 0 L129 0 L149 0 L149 0 Z M169 31 L169 719 L298 719 C498 719 601 602 601 375 C601 142 512 31 324 31 L169 31 L169 31 Z " />
<glyph glyph-name="dcaron" unicode="&#x10f;" horiz-adv-x="483" d="M464 760 L458 610 L485 610 L503 760 L464 760 L464 760 Z M71 260 C71 98 136 -10 232 -10 C300 -10 353 44 378 133 L378 10 L378 0 L396 0 L414 0 L474 0 C474 0 470 3 464 7 C458 10 454 13 454 13 L414 13 L414 740 L414 750 L396 750 L378 750 L318 750 C318 750 322 747 328 743 C334 740 338 737 338 737 L378 737 L378 387 C353 476 300 530 232 530 C136 530 71 422 71 260 L71 260 Z M378 260 C378 115 325 19 244 19 C164 19 110 115 110 260 C110 405 164 501 244 501 C325 501 378 405 378 260 L378 260 Z " />
<glyph glyph-name="Dcroat" unicode="&#x110;" horiz-adv-x="699" d="M49 363 L129 363 L129 13 L89 13 C89 13 85 10 79 7 C73 3 69 0 69 0 L129 0 L149 0 L169 0 L326 0 C542 0 644 121 644 375 C644 623 526 750 296 750 L169 750 L149 750 L129 750 L69 750 C69 750 73 747 79 743 C85 740 89 737 89 737 L129 737 L129 387 L49 387 L49 363 L49 363 Z M169 31 L169 363 L365 363 L365 387 L169 387 L169 719 L298 719 C498 719 601 602 601 375 C601 142 512 31 324 31 L169 31 L169 31 Z " />
<glyph glyph-name="dcroat" unicode="&#x111;" horiz-adv-x="483" d="M232 628 L378 628 L378 387 C353 476 300 530 232 530 C136 530 71 422 71 260 C71 98 136 -10 232 -10 C300 -10 353 44 378 133 L378 10 L378 0 L396 0 L414 0 L474 0 C474 0 470 3 464 7 C458 10 454 13 454 13 L414 13 L414 628 L483 628 L483 652 L414 652 L414 740 L414 750 L396 750 L378 750 L318 750 C318 750 322 747 328 743 C334 740 338 737 338 737 L378 737 L378 652 L232 652 L232 628 L232 628 Z M378 260 C378 115 325 19 244 19 C164 19 110 115 110 260 C110 405 164 501 244 501 C325 501 378 405 378 260 L378 260 Z " />
<glyph glyph-name="Emacron" unicode="&#x112;" horiz-adv-x="509" d="M206 830 L367 830 L367 855 L206 855 L206 830 L206 830 Z M459 16 L459 33 L459 93 C459 93 457 89 453 83 C449 76 446 72 446 73 L446 33 L169 33 L169 371 L411 371 L411 331 C411 331 414 327 418 321 C422 315 424 311 424 311 L424 371 L424 387 L424 403 L424 463 C424 463 422 459 418 453 C414 447 411 443 411 443 L411 403 L169 403 L169 717 L431 717 L431 677 C431 677 434 673 438 667 C442 661 444 657 444 657 L444 717 L444 734 L444 750 L169 750 L168 750 L149 750 L129 750 L69 750 C69 750 73 747 79 743 C85 740 89 737 89 737 L129 737 L129 13 L89 13 C89 13 85 10 79 7 C73 3 69 0 69 0 L129 0 L149 0 L168 0 L169 0 L459 0 L459 16 L459 16 Z " />
<glyph glyph-name="emacron" unicode="&#x113;" horiz-adv-x="479" d="M182 600 L343 600 L343 625 L182 625 L182 600 L182 600 Z M416 145 C416 70 354 20 260 20 C172 20 113 91 111 250 L419 250 L455 250 C455 418 401 530 264 530 C149 530 72 446 72 260 C72 74 148 -10 261 -10 C374 -10 450 47 450 132 L416 145 L416 145 Z M419 275 L112 275 C116 431 176 502 265 502 C371 502 415 412 420 275 L419 275 L419 275 Z " />
<glyph glyph-name="Ebreve" unicode="&#x114;" horiz-adv-x="509" d="M205 941 C205 868 238 820 287 820 C335 820 368 868 368 941 L342 941 C342 883 320 845 287 845 C254 845 232 883 232 941 L205 941 L205 941 Z M459 16 L459 33 L459 93 C459 93 457 89 453 83 C449 76 446 72 446 73 L446 33 L169 33 L169 371 L411 371 L411 331 C411 331 414 327 418 321 C422 315 424 311 424 311 L424 371 L424 387 L424 403 L424 463 C424 463 422 459 418 453 C414 447 411 443 411 443 L411 403 L169 403 L169 717 L431 717 L431 677 C431 677 434 673 438 667 C442 661 444 657 444 657 L444 717 L444 734 L444 750 L169 750 L168 750 L149 750 L129 750 L69 750 C69 750 73 747 79 743 C85 740 89 737 89 737 L129 737 L129 13 L89 13 C89 13 85 10 79 7 C73 3 69 0 69 0 L129 0 L149 0 L168 0 L169 0 L459 0 L459 16 L459 16 Z " />
<glyph glyph-name="ebreve" unicode="&#x115;" horiz-adv-x="479" d="M181 711 C181 638 214 590 263 590 C311 590 344 638 344 711 L318 711 C318 653 296 615 263 615 C230 615 208 653 208 711 L181 711 L181 711 Z M416 145 C416 70 354 20 260 20 C172 20 113 91 111 250 L419 250 L455 250 C455 418 401 530 264 530 C149 530 72 446 72 260 C72 74 148 -10 261 -10 C374 -10 450 47 450 132 L416 145 L416 145 Z M419 275 L112 275 C116 431 176 502 265 502 C371 502 415 412 420 275 L419 275 L419 275 Z " />
<glyph glyph-name="Edot" unicode="&#x116;" horiz-adv-x="509" d="M257 830 L317 830 L317 890 L257 890 L257 830 L257 830 Z M459 16 L459 33 L459 93 C459 93 457 89 453 83 C449 76 446 72 446 73 L446 33 L169 33 L169 371 L411 371 L411 331 C411 331 414 327 418 321 C422 315 424 311 424 311 L424 371 L424 387 L424 403 L424 463 C424 463 422 459 418 453 C414 447 411 443 411 443 L411 403 L169 403 L169 717 L431 717 L431 677 C431 677 434 673 438 667 C442 661 444 657 444 657 L444 717 L444 734 L444 750 L169 750 L168 750 L149 750 L129 750 L69 750 C69 750 73 747 79 743 C85 740 89 737 89 737 L129 737 L129 13 L89 13 C89 13 85 10 79 7 C73 3 69 0 69 0 L129 0 L149 0 L168 0 L169 0 L459 0 L459 16 L459 16 Z " />
<glyph glyph-name="edot" unicode="&#x117;" horiz-adv-x="479" d="M233 600 L293 600 L293 660 L233 660 L233 600 L233 600 Z M416 145 C416 70 354 20 260 20 C172 20 113 91 111 250 L419 250 L455 250 C455 418 401 530 264 530 C149 530 72 446 72 260 C72 74 148 -10 261 -10 C374 -10 450 47 450 132 L416 145 L416 145 Z M419 275 L112 275 C116 431 176 502 265 502 C371 502 415 412 420 275 L419 275 L419 275 Z " />
<glyph glyph-name="Eogonek" unicode="&#x118;" horiz-adv-x="509" d="M282 0 C254 -23 214 -68 214 -98 C214 -161 252 -203 308 -203 C341 -203 372 -191 387 -173 L384 -154 C369 -171 340 -182 310 -182 C265 -182 234 -147 234 -94 C234 -60 280 -10 299 1 L459 1 L459 17 L459 34 L459 94 C459 94 457 90 453 84 C449 77 446 73 446 74 L446 34 L169 34 L169 372 L411 372 L411 332 C411 332 414 328 418 322 C422 316 424 312 424 312 L424 372 L424 388 L424 404 L424 464 C424 464 422 460 418 454 C414 448 411 444 411 444 L411 404 L169 404 L169 718 L431 718 L431 678 C431 678 434 674 438 668 C442 662 444 658 444 658 L444 718 L444 735 L444 751 L169 751 L168 751 L149 751 L129 751 L69 751 C69 751 73 748 79 744 C85 741 89 738 89 738 L129 738 L129 14 L89 14 C89 14 85 11 79 8 C73 4 69 1 69 1 L129 1 L149 1 L168 1 L169 1 L282 0 L282 0 Z " />
<glyph glyph-name="eogonek" unicode="&#x119;" horiz-adv-x="479" d="M379 17 L379 18 C423 43 449 83 449 133 L416 146 C416 71 354 21 260 21 C172 21 113 92 111 251 L419 251 L455 251 C455 419 401 531 264 531 C149 531 72 447 72 261 C72 75 148 -9 261 -9 C293 -9 322 -4 347 5 C321 -21 294 -59 294 -88 C294 -156 332 -202 388 -202 C420 -202 451 -190 467 -172 L463 -153 C449 -170 420 -181 390 -181 C344 -181 314 -142 314 -85 C314 -45 359 8 379 19 L379 17 L379 17 Z M418 277 L111 277 C115 433 175 504 264 504 C370 504 414 414 419 277 L418 277 L418 277 Z " />
<glyph glyph-name="Ecaron" unicode="&#x11a;" horiz-adv-x="509" d="M287 858 L396 980 L429 980 L305 830 L269 830 L144 980 L177 980 L287 858 L287 858 Z M459 16 L459 33 L459 93 C459 93 457 89 453 83 C449 76 446 72 446 73 L446 33 L169 33 L169 371 L411 371 L411 331 C411 331 414 327 418 321 C422 315 424 311 424 311 L424 371 L424 387 L424 403 L424 463 C424 463 422 459 418 453 C414 447 411 443 411 443 L411 403 L169 403 L169 717 L431 717 L431 677 C431 677 434 673 438 667 C442 661 444 657 444 657 L444 717 L444 734 L444 750 L169 750 L168 750 L149 750 L129 750 L69 750 C69 750 73 747 79 743 C85 740 89 737 89 737 L129 737 L129 13 L89 13 C89 13 85 10 79 7 C73 3 69 0 69 0 L129 0 L149 0 L168 0 L169 0 L459 0 L459 16 L459 16 Z " />
<glyph glyph-name="ecaron" unicode="&#x11b;" horiz-adv-x="479" d="M263 628 L372 750 L405 750 L281 600 L245 600 L120 750 L153 750 L263 628 L263 628 Z M416 145 C416 70 354 20 260 20 C172 20 113 91 111 250 L419 250 L455 250 C455 418 401 530 264 530 C149 530 72 446 72 260 C72 74 148 -10 261 -10 C374 -10 450 47 450 132 L416 145 L416 145 Z M419 275 L112 275 C116 431 176 502 265 502 C371 502 415 412 420 275 L419 275 L419 275 Z " />
<glyph glyph-name="Gcircumflex" unicode="&#x11c;" horiz-adv-x="689" d="M382 952 L492 830 L525 830 L400 980 L364 980 L240 830 L272 830 L382 952 L382 952 Z M418 383 L606 383 L606 121 C536 62 453 23 382 23 C224 23 118 164 118 375 C118 586 224 727 382 727 C512 727 598 660 598 559 L627 583 L627 643 C625 640 623 636 621 633 C620 632 620 631 620 630 C618 635 616 640 614 645 L614 645 L614 645 C583 715 498 759 383 759 C199 759 76 605 76 374 C76 143 199 -11 383 -11 C469 -11 566 33 645 100 L645 414 L419 414 L418 383 L418 383 Z " />
<glyph glyph-name="Gbreve" unicode="&#x11e;" horiz-adv-x="689" d="M300 941 C300 868 333 820 382 820 C431 820 464 868 464 941 L437 941 C437 883 415 845 382 845 C349 845 327 883 327 941 L300 941 L300 941 Z M418 383 L606 383 L606 121 C536 62 453 23 382 23 C224 23 118 164 118 375 C118 586 224 727 382 727 C512 727 598 660 598 559 L627 583 L627 643 C625 640 623 636 621 633 C620 632 620 631 620 630 C618 635 616 640 614 645 L614 645 L614 645 C583 715 498 759 383 759 C199 759 76 605 76 374 C76 143 199 -11 383 -11 C469 -11 566 33 645 100 L645 414 L419 414 L418 383 L418 383 Z " />
<glyph glyph-name="gbreve" unicode="&#x11f;" horiz-adv-x="473" d="M156 711 C156 638 189 590 238 590 C286 590 319 638 319 711 L293 711 C293 653 271 615 238 615 C204 615 182 653 182 711 L156 711 L156 711 Z M71 -80 C71 -145 138 -170 237 -170 C357 -170 404 -96 404 15 L404 507 L444 507 C444 507 448 510 454 513 C460 517 464 520 464 520 L404 520 L386 520 L368 520 L368 389 C344 477 293 530 227 530 C134 530 71 454 71 260 C71 73 134 0 227 0 C293 0 344 51 368 135 L368 -1 C368 -85 331 -141 234 -141 C160 -141 110 -124 110 -81 L71 -80 L71 -80 Z M239 500 C317 500 368 404 368 259 C368 120 317 28 239 28 C162 28 110 93 110 259 C110 433 162 500 239 500 L239 500 Z " />
<glyph glyph-name="Gdot" unicode="&#x120;" horiz-adv-x="689" d="M352 830 L412 830 L412 890 L352 890 L352 830 L352 830 Z M418 383 L606 383 L606 121 C536 62 453 23 382 23 C224 23 118 164 118 375 C118 586 224 727 382 727 C512 727 598 660 598 559 L627 583 L627 643 C625 640 623 636 621 633 C620 632 620 631 620 630 C618 635 616 640 614 645 L614 645 L614 645 C583 715 498 759 383 759 C199 759 76 605 76 374 C76 143 199 -11 383 -11 C469 -11 566 33 645 100 L645 414 L419 414 L418 383 L418 383 Z " />
<glyph glyph-name="gdot" unicode="&#x121;" horiz-adv-x="473" d="M208 600 L268 600 L268 660 L208 660 L208 600 L208 600 Z M71 -80 C71 -145 138 -170 237 -170 C357 -170 404 -96 404 15 L404 507 L444 507 C444 507 448 510 454 513 C460 517 464 520 464 520 L404 520 L386 520 L368 520 L368 389 C344 477 293 530 227 530 C134 530 71 454 71 260 C71 73 134 0 227 0 C293 0 344 51 368 135 L368 -1 C368 -85 331 -141 234 -141 C160 -141 110 -124 110 -81 L71 -80 L71 -80 Z M239 500 C317 500 368 404 368 259 C368 120 317 28 239 28 C162 28 110 93 110 259 C110 433 162 500 239 500 L239 500 Z " />
<glyph glyph-name="Hcircumflex" unicode="&#x124;" horiz-adv-x="626" d="M325 952 L435 830 L468 830 L343 980 L307 980 L183 830 L215 830 L325 952 L325 952 Z M501 0 L521 0 L581 0 C581 0 578 3 571 7 C566 10 562 13 561 13 L521 13 L521 737 L561 737 C562 737 566 740 571 743 C578 747 582 750 581 750 L521 750 L501 750 L481 750 L421 750 C421 750 425 747 431 743 C437 740 441 737 441 737 L481 737 L481 411 L169 411 L169 737 L209 737 C209 737 213 740 219 743 C225 747 229 750 229 750 L169 750 L149 750 L129 750 L69 750 C69 750 73 747 79 743 C85 740 89 737 89 737 L129 737 L129 13 L89 13 C89 13 85 10 79 7 C73 3 69 0 69 0 L129 0 L149 0 L169 0 L229 0 C229 0 225 3 219 7 C213 10 209 13 209 13 L169 13 L169 379 L481 379 L481 13 L441 13 C441 13 437 10 431 7 C425 3 421 0 421 0 L481 0 L501 0 L501 0 Z " />
<glyph glyph-name="Itilde" unicode="&#x128;" horiz-adv-x="250" d="M80 830 C80 868 90 893 105 893 C150 893 94 820 149 820 C179 820 199 856 199 911 L172 911 C172 873 162 848 147 848 C101 848 158 921 103 921 C73 921 53 885 53 830 L80 830 L80 830 Z M126 0 L146 0 L206 0 C206 0 202 3 196 7 C190 10 186 13 186 13 L146 13 L146 737 L186 737 C186 737 190 740 196 743 C202 747 206 750 206 750 L146 750 L126 750 L106 750 L46 750 C46 750 50 747 56 743 C62 740 66 737 66 737 L106 737 L106 13 L66 13 C66 13 62 10 56 7 C50 3 46 0 46 0 L106 0 L126 0 L126 0 Z " />
<glyph glyph-name="itilde" unicode="&#x129;" horiz-adv-x="197" d="M44 600 C44 638 54 663 69 663 C115 663 58 590 113 590 C143 590 163 626 163 681 L136 681 C136 643 126 618 111 618 C65 618 122 691 67 691 C37 691 17 655 17 600 L44 600 L44 600 Z M72 520 L12 520 C12 520 16 517 22 513 C28 510 32 507 32 507 L72 507 L72 0 L108 0 L108 520 L90 520 L72 520 L72 520 Z " />
<glyph glyph-name="Imacron" unicode="&#x12a;" horiz-adv-x="250" d="M45 830 L207 830 L207 855 L45 855 L45 830 L45 830 Z M126 0 L146 0 L206 0 C206 0 202 3 196 7 C190 10 186 13 186 13 L146 13 L146 737 L186 737 C186 737 190 740 196 743 C202 747 206 750 206 750 L146 750 L126 750 L106 750 L46 750 C46 750 50 747 56 743 C62 740 66 737 66 737 L106 737 L106 13 L66 13 C66 13 62 10 56 7 C50 3 46 0 46 0 L106 0 L126 0 L126 0 Z " />
<glyph glyph-name="imacron" unicode="&#x12b;" horiz-adv-x="197" d="M9 600 L171 600 L171 625 L9 625 L9 600 L9 600 Z M90 0 L108 0 L168 0 C168 0 164 3 158 7 C152 10 148 13 148 13 L108 13 L108 520 L90 520 L72 520 L12 520 C12 520 16 517 22 513 C28 510 32 507 32 507 L72 507 L72 13 L32 13 C32 13 28 10 22 7 C16 3 12 0 12 0 L72 0 L90 0 L90 0 Z " />
<glyph glyph-name="Ibreve" unicode="&#x12c;" horiz-adv-x="250" d="M44 941 C44 868 77 820 126 820 C175 820 208 868 208 941 L181 941 C181 883 159 845 126 845 C93 845 71 883 71 941 L44 941 L44 941 Z M126 0 L146 0 L206 0 C206 0 202 3 196 7 C190 10 186 13 186 13 L146 13 L146 737 L186 737 C186 737 190 740 196 743 C202 747 206 750 206 750 L146 750 L126 750 L106 750 L46 750 C46 750 50 747 56 743 C62 740 66 737 66 737 L106 737 L106 13 L66 13 C66 13 62 10 56 7 C50 3 46 0 46 0 L106 0 L126 0 L126 0 Z " />
<glyph glyph-name="ibreve" unicode="&#x12d;" horiz-adv-x="197" d="M8 711 C8 638 41 590 90 590 C139 590 172 638 172 711 L145 711 C145 653 123 615 90 615 C57 615 35 653 35 711 L8 711 L8 711 Z M90 0 L108 0 L168 0 C168 0 164 3 158 7 C152 10 148 13 148 13 L108 13 L108 520 L90 520 L72 520 L12 520 C12 520 16 517 22 513 C28 510 32 507 32 507 L72 507 L72 13 L32 13 C32 13 28 10 22 7 C16 3 12 0 12 0 L72 0 L90 0 L90 0 Z " />
<glyph glyph-name="Idot" unicode="&#x130;" horiz-adv-x="250" d="M96 830 L156 830 L156 890 L96 890 L96 830 L96 830 Z M126 0 L146 0 L206 0 C206 0 202 3 196 7 C190 10 186 13 186 13 L146 13 L146 737 L186 737 C186 737 190 740 196 743 C202 747 206 750 206 750 L146 750 L126 750 L106 750 L46 750 C46 750 50 747 56 743 C62 740 66 737 66 737 L106 737 L106 13 L66 13 C66 13 62 10 56 7 C50 3 46 0 46 0 L106 0 L126 0 L126 0 Z " />
<glyph glyph-name="dotlessi" unicode="&#x131;" horiz-adv-x="254" d="M149 0 L185 0 L185 520 L149 520 L149 0 L149 0 Z " />
<glyph glyph-name="Jcircumflex" unicode="&#x134;" horiz-adv-x="392" d="M287 952 L397 830 L430 830 L305 980 L269 980 L145 830 L178 830 L287 952 L287 952 Z M71 283 L71 222 C71 62 108 -10 189 -10 C267 -10 307 82 307 220 L307 737 L347 737 C348 737 352 740 357 743 C364 747 368 750 367 750 L307 750 L287 750 L267 750 L207 750 C207 750 211 747 217 743 C223 740 227 737 227 737 L267 737 L267 220 C267 104 241 27 189 27 C135 27 111 91 111 234 L111 290 L71 283 L71 283 Z " />
<glyph glyph-name="Lacute" unicode="&#x139;" horiz-adv-x="436" d="M110 830 L142 830 L193 980 L146 980 L110 830 L110 830 Z M386 16 L386 33 L386 93 C386 93 383 89 380 83 C376 76 373 72 373 73 L373 33 L146 33 L146 737 L186 737 C186 737 190 740 196 743 C202 747 206 750 206 750 L146 750 L126 750 L106 750 L46 750 C46 750 50 747 56 743 C62 740 66 737 66 737 L106 737 L106 13 L66 13 C66 13 62 10 56 7 C50 3 46 0 46 0 L106 0 L126 0 L146 0 L386 0 L386 16 L386 16 Z " />
<glyph glyph-name="lacute" unicode="&#x13a;" horiz-adv-x="294" d="M142 790 L174 790 L225 940 L178 940 L142 790 L142 790 Z M167 0 L185 0 L245 0 C245 0 241 3 235 7 C229 10 225 13 225 13 L185 13 L185 740 L185 750 L167 750 L149 750 L89 750 C89 750 93 747 99 743 C105 740 109 737 109 737 L149 737 L149 13 L109 13 C109 13 105 10 99 7 C93 3 89 0 89 0 L149 0 L167 0 L167 0 Z " />
<glyph glyph-name="Lcaron" unicode="&#x13d;" horiz-adv-x="436" d="M287 760 L281 610 L308 610 L326 760 L287 760 L287 760 Z M386 16 L386 33 L386 93 C386 93 383 89 380 83 C376 76 373 72 373 73 L373 33 L146 33 L146 737 L186 737 C186 737 190 740 196 743 C202 747 206 750 206 750 L146 750 L126 750 L106 750 L46 750 C46 750 50 747 56 743 C62 740 66 737 66 737 L106 737 L106 13 L66 13 C66 13 62 10 56 7 C50 3 46 0 46 0 L106 0 L126 0 L146 0 L386 0 L386 16 L386 16 Z " />
<glyph glyph-name="lcaron" unicode="&#x13e;" horiz-adv-x="294" d="M235 760 L230 610 L256 610 L274 760 L235 760 L235 760 Z M167 0 L185 0 L245 0 C245 0 241 3 235 7 C229 10 225 13 225 13 L185 13 L185 740 L185 750 L167 750 L149 750 L89 750 C89 750 93 747 99 743 C105 740 109 737 109 737 L149 737 L149 13 L109 13 C109 13 105 10 99 7 C93 3 89 0 89 0 L149 0 L167 0 L167 0 Z " />
<glyph glyph-name="Lslash" unicode="&#x141;" horiz-adv-x="436" d="M26 312 L106 345 L106 13 L66 13 C66 13 62 10 56 7 C50 3 46 0 46 0 L106 0 L126 0 L146 0 L386 0 L386 16 L386 33 L386 93 C386 93 383 89 380 83 C376 76 373 72 373 73 L373 33 L146 33 L146 362 L266 412 L266 438 L146 388 L146 737 L186 737 C186 737 190 740 196 743 C202 747 206 750 206 750 L146 750 L126 750 L106 750 L46 750 C46 750 50 747 56 743 C62 740 66 737 66 737 L106 737 L106 371 L26 338 L26 312 L26 312 Z " />
<glyph glyph-name="lslash" unicode="&#x142;" horiz-adv-x="294" d="M69 312 L149 353 L149 13 L109 13 C109 13 105 10 99 7 C93 3 89 0 89 0 L149 0 L167 0 L185 0 L245 0 C245 0 241 3 235 7 C229 10 225 13 225 13 L185 13 L185 371 L265 412 L265 438 L185 397 L185 740 L185 750 L167 750 L149 750 L89 750 C89 750 93 747 99 743 C105 740 109 737 109 737 L149 737 L149 379 L69 338 L69 312 L69 312 Z " />
<glyph glyph-name="Nacute" unicode="&#x143;" horiz-adv-x="584" d="M188 830 L221 830 L271 980 L224 980 L188 830 L188 830 Z M439 737 L439 72 L169 740 L169 750 L165 750 L149 750 L129 750 L69 750 C69 750 73 747 79 743 C85 740 89 737 89 737 L129 737 L129 13 L89 13 C89 13 85 10 79 7 C73 3 69 0 69 0 L129 0 L149 0 L169 0 L229 0 C229 0 225 3 219 7 C213 10 209 13 209 13 L169 13 L169 651 L432 0 L439 0 L468 0 L479 0 L479 737 L519 737 C520 737 524 740 529 743 C536 747 540 750 539 750 L479 750 L459 750 L439 750 L379 750 C379 750 383 747 389 743 C395 740 399 737 399 737 L439 737 L439 737 Z " />
<glyph glyph-name="nacute" unicode="&#x144;" horiz-adv-x="465" d="M229 600 L262 600 L312 750 L265 750 L229 600 L229 600 Z M362 0 L380 0 L440 0 C440 0 437 3 430 7 C425 10 421 13 420 13 L380 13 L380 315 C380 454 336 525 269 525 C211 525 167 490 147 432 L147 511 L147 521 L129 521 L120 521 L111 521 L51 521 C51 521 55 518 61 514 C67 511 71 508 71 508 L111 508 L111 14 L71 14 C71 14 67 11 61 8 C55 4 51 1 51 1 L111 1 L129 1 L147 1 L207 1 C207 1 203 4 197 8 C191 11 187 14 187 14 L147 14 L147 355 C147 439 191 494 257 494 C310 494 346 433 346 316 L346 14 L305 14 C305 14 301 11 295 8 C289 4 285 1 285 1 L346 1 L362 0 L362 0 Z " />
<glyph glyph-name="Ncaron" unicode="&#x147;" horiz-adv-x="584" d="M304 858 L414 980 L447 980 L322 830 L286 830 L162 980 L194 980 L304 858 L304 858 Z M439 737 L439 72 L169 740 L169 750 L165 750 L149 750 L129 750 L69 750 C69 750 73 747 79 743 C85 740 89 737 89 737 L129 737 L129 13 L89 13 C89 13 85 10 79 7 C73 3 69 0 69 0 L129 0 L149 0 L169 0 L229 0 C229 0 225 3 219 7 C213 10 209 13 209 13 L169 13 L169 651 L432 0 L439 0 L468 0 L479 0 L479 737 L519 737 C520 737 524 740 529 743 C536 747 540 750 539 750 L479 750 L459 750 L439 750 L379 750 C379 750 383 747 389 743 C395 740 399 737 399 737 L439 737 L439 737 Z " />
<glyph glyph-name="ncaron" unicode="&#x148;" horiz-adv-x="465" d="M245 628 L355 750 L388 750 L263 600 L227 600 L103 750 L135 750 L245 628 L245 628 Z M362 0 L380 0 L440 0 C440 0 437 3 430 7 C425 10 421 13 420 13 L380 13 L380 315 C380 454 336 525 269 525 C211 525 167 490 147 432 L147 511 L147 521 L129 521 L120 521 L111 521 L51 521 C51 521 55 518 61 514 C67 511 71 508 71 508 L111 508 L111 14 L71 14 C71 14 67 11 61 8 C55 4 51 1 51 1 L111 1 L129 1 L147 1 L207 1 C207 1 203 4 197 8 C191 11 187 14 187 14 L147 14 L147 355 C147 439 191 494 257 494 C310 494 346 433 346 316 L346 14 L305 14 C305 14 301 11 295 8 C289 4 285 1 285 1 L346 1 L362 0 L362 0 Z " />
<glyph glyph-name="Omacron" unicode="&#x14c;" horiz-adv-x="729" d="M297 830 L458 830 L458 855 L297 855 L297 830 L297 830 Z M377 23 C225 23 123 164 123 375 C123 576 232 727 377 727 C522 727 631 576 631 375 C631 164 530 23 377 23 L377 23 Z M80 375 C80 144 199 -10 377 -10 C555 -10 674 144 674 375 C674 594 546 760 377 760 C208 760 80 594 80 375 L80 375 Z " />
<glyph glyph-name="omacron" unicode="&#x14d;" horiz-adv-x="505" d="M183 600 L344 600 L344 625 L183 625 L183 600 L183 600 Z M263 16 C158 16 110 114 110 260 C110 428 171 504 263 504 C369 504 416 406 416 260 C416 92 355 16 263 16 L263 16 Z M71 260 C71 98 131 -10 263 -10 C378 -10 455 74 455 260 C455 422 396 530 263 530 C148 530 71 446 71 260 L71 260 Z " />
<glyph glyph-name="Obreve" unicode="&#x14e;" horiz-adv-x="729" d="M296 941 C296 868 329 820 377 820 C426 820 459 868 459 941 L432 941 C432 883 410 845 377 845 C344 845 322 883 322 941 L296 941 L296 941 Z M377 23 C225 23 123 164 123 375 C123 576 232 727 377 727 C522 727 631 576 631 375 C631 164 530 23 377 23 L377 23 Z M80 375 C80 144 199 -10 377 -10 C555 -10 674 144 674 375 C674 594 546 760 377 760 C208 760 80 594 80 375 L80 375 Z " />
<glyph glyph-name="obreve" unicode="&#x14f;" horiz-adv-x="505" d="M182 711 C182 638 215 590 263 590 C312 590 345 638 345 711 L318 711 C318 653 296 615 263 615 C230 615 208 653 208 711 L182 711 L182 711 Z M263 16 C158 16 110 114 110 260 C110 428 171 504 263 504 C369 504 416 406 416 260 C416 92 355 16 263 16 L263 16 Z M71 260 C71 98 131 -10 263 -10 C378 -10 455 74 455 260 C455 422 396 530 263 530 C148 530 71 446 71 260 L71 260 Z " />
<glyph glyph-name="Racute" unicode="&#x154;" horiz-adv-x="579" d="M310 830 L343 830 L393 980 L347 980 L310 830 L310 830 Z M511 0 L534 0 L567 0 L567 7 L567 13 L528 13 L375 339 C474 348 524 411 524 525 C524 674 465 750 349 750 L169 750 L149 750 L139 750 L129 750 L69 750 C69 750 73 747 79 743 C85 740 89 737 89 737 L129 737 L129 13 L89 13 C89 13 85 10 79 7 C73 3 69 0 69 0 L129 0 L149 0 L169 0 L229 0 C229 0 225 3 219 7 C213 10 209 13 209 13 L169 13 L169 338 L329 338 L488 0 L511 0 L511 0 Z M169 369 L169 719 L348 719 C438 719 484 653 484 525 C484 422 439 369 351 369 L169 369 L169 369 Z " />
<glyph glyph-name="racute" unicode="&#x155;" horiz-adv-x="281" d="M169 600 L202 600 L252 750 L206 750 L169 600 L169 600 Z M261 481 L261 520 L255 520 C197 520 163 475 146 399 L146 510 L146 520 L128 520 L119 520 L110 520 L50 520 C50 520 54 517 60 513 C66 510 70 507 70 507 L110 507 L110 13 L70 13 C70 13 66 10 60 7 C54 3 50 0 50 0 L110 0 L128 0 L146 0 L206 0 C206 0 202 3 196 7 C190 10 186 13 186 13 L146 13 L146 264 C146 394 176 481 252 481 L261 481 L261 481 Z " />
<glyph glyph-name="Rcaron" unicode="&#x158;" horiz-adv-x="579" d="M327 858 L437 980 L469 980 L345 830 L309 830 L184 980 L217 980 L327 858 L327 858 Z M511 0 L534 0 L567 0 L567 7 L567 13 L528 13 L375 339 C474 348 524 411 524 525 C524 674 465 750 349 750 L169 750 L149 750 L139 750 L129 750 L69 750 C69 750 73 747 79 743 C85 740 89 737 89 737 L129 737 L129 13 L89 13 C89 13 85 10 79 7 C73 3 69 0 69 0 L129 0 L149 0 L169 0 L229 0 C229 0 225 3 219 7 C213 10 209 13 209 13 L169 13 L169 338 L329 338 L488 0 L511 0 L511 0 Z M169 369 L169 719 L348 719 C438 719 484 653 484 525 C484 422 439 369 351 369 L169 369 L169 369 Z " />
<glyph glyph-name="rcaron" unicode="&#x159;" horiz-adv-x="281" d="M186 628 L295 750 L328 750 L204 600 L168 600 L43 750 L76 750 L186 628 L186 628 Z M261 481 L261 520 L255 520 C197 520 163 475 146 399 L146 510 L146 520 L128 520 L119 520 L110 520 L50 520 C50 520 54 517 60 513 C66 510 70 507 70 507 L110 507 L110 13 L70 13 C70 13 66 10 60 7 C54 3 50 0 50 0 L110 0 L128 0 L146 0 L206 0 C206 0 202 3 196 7 C190 10 186 13 186 13 L146 13 L146 264 C146 394 176 481 252 481 L261 481 L261 481 Z " />
<glyph glyph-name="Sacute" unicode="&#x15a;" horiz-adv-x="450" d="M199 830 L232 830 L282 980 L235 980 L199 830 L199 830 Z M61 123 C80 35 151 -10 249 -10 C358 -10 414 78 414 209 C414 302 353 368 234 406 C145 434 100 483 100 552 C100 655 142 724 204 724 C289 724 346 678 346 589 L374 614 L374 674 C372 671 370 667 368 664 L368 664 C348 728 287 761 204 761 C117 761 59 676 59 549 C59 463 115 401 223 367 C323 335 374 282 374 209 C374 99 331 26 249 26 C152 26 88 85 88 199 L71 187 L71 187 L55 175 L55 115 C57 118 59 121 61 124 L61 123 L61 123 Z " />
<glyph glyph-name="sacute" unicode="&#x15b;" horiz-adv-x="415" d="M209 600 L242 600 L292 750 L245 750 L209 600 L209 600 Z M58 78 L58 78 L58 78 C83 27 143 -5 222 -5 C320 -5 385 53 385 141 C385 203 332 255 228 276 C151 291 112 332 112 382 C112 452 157 499 226 499 C297 499 344 446 344 367 L374 380 L374 440 C371 437 369 433 367 430 L367 430 C349 489 297 526 226 526 C136 526 77 468 77 380 C77 317 125 264 219 245 C305 228 349 187 349 139 C349 70 298 24 222 24 C135 24 77 75 77 150 L61 144 L45 138 L45 78 C47 81 49 85 51 88 C52 89 53 90 54 91 C55 87 57 83 59 79 L58 78 L58 78 Z " />
<glyph glyph-name="Scircumflex" unicode="&#x15c;" horiz-adv-x="450" d="M215 952 L325 830 L358 830 L233 980 L197 980 L73 830 L106 830 L215 952 L215 952 Z M61 123 C80 35 151 -10 249 -10 C358 -10 414 78 414 209 C414 302 353 368 234 406 C145 434 100 483 100 552 C100 655 142 724 204 724 C289 724 346 678 346 589 L374 614 L374 674 C372 671 370 667 368 664 L368 664 C348 728 287 761 204 761 C117 761 59 676 59 549 C59 463 115 401 223 367 C323 335 374 282 374 209 C374 99 331 26 249 26 C152 26 88 85 88 199 L71 187 L71 187 L55 175 L55 115 C57 118 59 121 61 124 L61 123 L61 123 Z " />
<glyph glyph-name="Scedilla" unicode="&#x15e;" horiz-adv-x="450" d="M229 -90 L250 -10 C359 -10 415 78 415 209 C415 302 354 368 235 406 C146 434 101 483 101 552 C101 655 143 724 205 724 C290 724 347 678 347 589 L375 614 L375 674 C373 671 371 667 369 664 L369 664 C349 728 288 761 205 761 C118 761 60 676 60 549 C60 463 116 401 224 367 C324 335 375 282 375 209 C375 99 332 26 250 26 C153 26 89 85 89 199 L72 187 L72 187 L56 175 L56 115 C58 118 60 121 62 124 C81 40 147 -5 239 -8 L214 -101 L225 -108 C228 -98 237 -92 250 -92 C266 -92 276 -113 276 -144 C276 -175 265 -196 249 -196 C235 -196 224 -184 221 -165 L207 -176 C210 -199 227 -214 250 -214 C278 -214 296 -186 296 -144 C296 -103 279 -75 253 -75 C244 -75 236 -80 231 -88 L229 -90 L229 -90 Z " />
<glyph glyph-name="scedilla" unicode="&#x15f;" horiz-adv-x="415" d="M201 -90 L223 -5 C320 -4 384 54 384 142 C384 204 331 256 227 277 C150 292 111 333 111 383 C111 453 156 500 225 500 C296 500 343 447 343 368 L373 381 L373 441 C370 438 368 434 366 431 L366 431 C348 490 296 527 225 527 C135 527 76 469 76 381 C76 318 124 265 218 246 C304 229 348 188 348 140 C348 71 297 25 221 25 C134 25 76 76 76 151 L60 145 L44 139 L44 79 C46 82 48 86 50 89 C51 90 52 91 53 92 C54 88 56 84 58 80 L58 80 L58 80 C82 31 137 0 211 -3 L185 -101 L195 -108 C198 -98 207 -92 220 -92 C236 -92 246 -113 246 -144 C246 -175 235 -196 219 -196 C205 -196 194 -184 192 -165 L178 -176 C180 -199 197 -214 220 -214 C248 -214 266 -186 266 -144 C266 -103 249 -75 223 -75 C213 -75 205 -80 200 -88 L201 -90 L201 -90 Z " />
<glyph glyph-name="Scaron" unicode="&#x160;" horiz-adv-x="450" d="M215 858 L325 980 L358 980 L233 830 L197 830 L73 980 L106 980 L215 858 L215 858 Z M61 123 C80 35 151 -10 249 -10 C358 -10 414 78 414 209 C414 302 353 368 234 406 C145 434 100 483 100 552 C100 655 142 724 204 724 C289 724 346 678 346 589 L374 614 L374 674 C372 671 370 667 368 664 L368 664 C348 728 287 761 204 761 C117 761 59 676 59 549 C59 463 115 401 223 367 C323 335 374 282 374 209 C374 99 331 26 249 26 C152 26 88 85 88 199 L71 187 L71 187 L55 175 L55 115 C57 118 59 121 61 124 L61 123 L61 123 Z " />
<glyph glyph-name="scaron" unicode="&#x161;" horiz-adv-x="415" d="M226 628 L335 750 L368 750 L244 600 L207 600 L83 750 L116 750 L226 628 L226 628 Z M58 78 L58 78 L58 78 C83 27 143 -5 222 -5 C320 -5 385 53 385 141 C385 203 332 255 228 276 C151 291 112 332 112 382 C112 452 157 499 226 499 C297 499 344 446 344 367 L374 380 L374 440 C371 437 369 433 367 430 L367 430 C349 489 297 526 226 526 C136 526 77 468 77 380 C77 317 125 264 219 245 C305 228 349 187 349 139 C349 70 298 24 222 24 C135 24 77 75 77 150 L61 144 L45 138 L45 78 C47 81 49 85 51 88 C52 89 53 90 54 91 C55 87 57 83 59 79 L58 78 L58 78 Z " />
<glyph glyph-name="Tcaron" unicode="&#x164;" horiz-adv-x="510" d="M255 858 L365 980 L398 980 L273 830 L237 830 L113 980 L145 980 L255 858 L255 858 Z M255 0 L275 0 L335 0 C335 0 331 3 325 7 C319 10 315 13 315 13 L275 13 L275 717 L487 717 L487 677 C487 677 490 673 494 667 C498 661 500 657 500 657 L500 717 L500 734 L500 750 L275 750 L235 750 L10 750 L10 734 L10 717 L10 657 C10 657 13 661 17 667 C20 673 23 677 23 677 L23 717 L235 717 L235 13 L195 13 C195 13 191 10 185 7 C179 3 175 0 175 0 L235 0 L255 0 L255 0 Z " />
<glyph glyph-name="tcaron" unicode="&#x165;" horiz-adv-x="260" d="M177 760 L172 610 L198 610 L216 760 L177 760 L177 760 Z M230 520 L127 520 L127 685 L91 655 L91 520 L10 520 L10 492 L91 492 L91 135 C91 34 94 0 161 0 L230 0 L230 29 L176 29 C129 29 127 55 127 135 L127 492 L230 492 L230 520 L230 520 Z " />
<glyph glyph-name="Utilde" unicode="&#x168;" horiz-adv-x="598" d="M264 820 C264 858 274 883 290 883 C335 883 278 810 333 810 C363 810 383 846 383 901 L356 901 C356 863 346 838 331 838 C286 838 342 911 287 911 C258 911 238 875 238 820 L264 820 L264 820 Z M122 737 L122 293 C122 93 186 -10 310 -10 C434 -10 498 93 498 293 L498 737 L538 737 C539 737 543 740 548 743 C555 747 559 750 558 750 L498 750 L478 750 L458 750 L398 750 C398 750 402 747 408 743 C414 740 418 737 418 737 L458 737 L458 300 C458 120 408 27 310 27 C212 27 162 120 162 300 L162 737 L202 737 C202 737 206 740 212 743 C218 747 222 750 222 750 L162 750 L142 750 L122 750 L62 750 C62 750 66 747 72 743 C78 740 82 737 82 737 L122 737 L122 737 Z " />
<glyph glyph-name="utilde" unicode="&#x169;" horiz-adv-x="466" d="M195 600 C195 638 205 663 220 663 C265 663 209 590 264 590 C293 590 313 626 313 681 L287 681 C287 643 277 618 261 618 C216 618 273 691 218 691 C188 691 168 655 168 600 L195 600 L195 600 Z M376 13 L376 520 L358 520 L340 520 L280 520 C280 520 284 517 290 513 C296 510 300 507 300 507 L340 507 L340 146 C340 72 301 22 243 22 C164 22 141 71 141 166 L141 520 L123 520 L105 520 L45 520 C45 520 49 517 55 513 C61 510 65 507 65 507 L105 507 L105 166 C105 50 133 -10 232 -10 C284 -10 323 23 340 77 L340 10 L340 0 L358 0 L376 0 L436 0 C436 0 433 3 426 7 C421 10 417 13 416 13 L376 13 L376 13 Z " />
<glyph glyph-name="Umacron" unicode="&#x16a;" horiz-adv-x="598" d="M229 820 L391 820 L391 845 L229 845 L229 820 L229 820 Z M122 737 L122 293 C122 93 186 -10 310 -10 C434 -10 498 93 498 293 L498 737 L538 737 C539 737 543 740 548 743 C555 747 559 750 558 750 L498 750 L478 750 L458 750 L398 750 C398 750 402 747 408 743 C414 740 418 737 418 737 L458 737 L458 300 C458 120 408 27 310 27 C212 27 162 120 162 300 L162 737 L202 737 C202 737 206 740 212 743 C218 747 222 750 222 750 L162 750 L142 750 L122 750 L62 750 C62 750 66 747 72 743 C78 740 82 737 82 737 L122 737 L122 737 Z " />
<glyph glyph-name="umacron" unicode="&#x16b;" horiz-adv-x="466" d="M160 600 L321 600 L321 625 L160 625 L160 600 L160 600 Z M376 13 L376 520 L358 520 L340 520 L280 520 C280 520 284 517 290 513 C296 510 300 507 300 507 L340 507 L340 146 C340 72 301 22 243 22 C164 22 141 71 141 166 L141 520 L123 520 L105 520 L45 520 C45 520 49 517 55 513 C61 510 65 507 65 507 L105 507 L105 166 C105 50 133 -10 232 -10 C284 -10 323 23 340 77 L340 10 L340 0 L358 0 L376 0 L436 0 C436 0 433 3 426 7 C421 10 417 13 416 13 L376 13 L376 13 Z " />
<glyph glyph-name="Ubreve" unicode="&#x16c;" horiz-adv-x="598" d="M229 931 C229 858 261 810 310 810 C359 810 392 858 392 931 L365 931 C365 873 343 835 310 835 C277 835 255 873 255 931 L229 931 L229 931 Z M122 737 L122 293 C122 93 186 -10 310 -10 C434 -10 498 93 498 293 L498 737 L538 737 C539 737 543 740 548 743 C555 747 559 750 558 750 L498 750 L478 750 L458 750 L398 750 C398 750 402 747 408 743 C414 740 418 737 418 737 L458 737 L458 300 C458 120 408 27 310 27 C212 27 162 120 162 300 L162 737 L202 737 C202 737 206 740 212 743 C218 747 222 750 222 750 L162 750 L142 750 L122 750 L62 750 C62 750 66 747 72 743 C78 740 82 737 82 737 L122 737 L122 737 Z " />
<glyph glyph-name="ubreve" unicode="&#x16d;" horiz-adv-x="466" d="M159 711 C159 638 192 590 241 590 C289 590 322 638 322 711 L296 711 C296 653 274 615 241 615 C208 615 186 653 186 711 L159 711 L159 711 Z M376 13 L376 520 L358 520 L340 520 L280 520 C280 520 284 517 290 513 C296 510 300 507 300 507 L340 507 L340 146 C340 72 301 22 243 22 C164 22 141 71 141 166 L141 520 L123 520 L105 520 L45 520 C45 520 49 517 55 513 C61 510 65 507 65 507 L105 507 L105 166 C105 50 133 -10 232 -10 C284 -10 323 23 340 77 L340 10 L340 0 L358 0 L376 0 L436 0 C436 0 433 3 426 7 C421 10 417 13 416 13 L376 13 L376 13 Z " />
<glyph glyph-name="Uring" unicode="&#x16e;" horiz-adv-x="598" d="M310 837 C269 837 248 860 248 905 C248 948 271 973 310 973 C349 973 372 948 372 905 C372 860 351 837 310 837 L310 837 Z M230 905 C230 849 257 820 310 820 C363 820 390 849 390 905 C390 959 360 990 310 990 C260 990 230 959 230 905 L230 905 Z M122 737 L122 293 C122 93 186 -10 310 -10 C434 -10 498 93 498 293 L498 737 L538 737 C539 737 543 740 548 743 C555 747 559 750 558 750 L498 750 L478 750 L458 750 L398 750 C398 750 402 747 408 743 C414 740 418 737 418 737 L458 737 L458 300 C458 120 408 27 310 27 C212 27 162 120 162 300 L162 737 L202 737 C202 737 206 740 212 743 C218 747 222 750 222 750 L162 750 L142 750 L122 750 L62 750 C62 750 66 747 72 743 C78 740 82 737 82 737 L122 737 L122 737 Z " />
<glyph glyph-name="uring" unicode="&#x16f;" horiz-adv-x="466" d="M241 617 C200 617 179 640 179 685 C179 728 202 753 241 753 C280 753 303 728 303 685 C303 640 282 617 241 617 L241 617 Z M161 685 C161 629 188 600 241 600 C293 600 320 629 320 685 C320 739 291 770 241 770 C190 770 161 739 161 685 L161 685 Z M376 13 L376 520 L358 520 L340 520 L280 520 C280 520 284 517 290 513 C296 510 300 507 300 507 L340 507 L340 146 C340 72 301 22 243 22 C164 22 141 71 141 166 L141 520 L123 520 L105 520 L45 520 C45 520 49 517 55 513 C61 510 65 507 65 507 L105 507 L105 166 C105 50 133 -10 232 -10 C284 -10 323 23 340 77 L340 10 L340 0 L358 0 L376 0 L436 0 C436 0 433 3 426 7 C421 10 417 13 416 13 L376 13 L376 13 Z " />
<glyph glyph-name="Wcircumflex" unicode="&#x174;" horiz-adv-x="723" d="M374 952 L484 830 L517 830 L392 980 L356 980 L232 830 L265 830 L374 952 L374 952 Z M671 737 L671 737 L711 737 L711 743 L711 750 L673 750 L652 750 L630 750 L570 750 C571 750 575 747 580 743 C587 740 591 737 590 737 L628 737 L518 97 L394 750 L355 750 L232 97 L120 737 L158 737 C158 737 162 740 168 743 C174 747 178 750 178 750 L118 750 L97 750 L75 750 L38 750 L38 743 L38 737 L77 737 L211 0 L214 0 L249 0 L374 648 L498 0 L501 0 L536 0 L671 737 L671 737 Z " />
<glyph glyph-name="Ycircumflex" unicode="&#x176;" horiz-adv-x="560" d="M295 952 L405 830 L437 830 L313 980 L277 980 L152 830 L185 830 L295 952 L295 952 Z M275 13 L235 13 C235 13 231 10 225 7 C219 3 215 0 215 0 L275 0 L295 0 L315 0 L375 0 C375 0 371 3 365 7 C359 10 355 13 355 13 L315 13 L315 330 L523 737 L524 737 L564 737 L564 743 L564 750 L530 750 L510 750 L490 750 L430 750 C430 750 434 747 440 743 C446 740 450 737 450 737 L483 737 L294 366 L105 737 L105 737 L138 737 C138 737 142 740 148 743 C154 747 158 750 158 750 L98 750 L78 750 L58 750 L25 750 L25 743 L25 737 L65 737 L274 330 L275 13 L275 13 Z " />
<glyph glyph-name="Ydieresis" unicode="&#x178;" horiz-adv-x="560" d="M328 830 L388 830 L388 890 L328 890 L328 830 L328 830 Z M201 830 L261 830 L261 890 L201 890 L201 830 L201 830 Z M275 13 L235 13 C235 13 231 10 225 7 C219 3 215 0 215 0 L275 0 L295 0 L315 0 L375 0 C375 0 371 3 365 7 C359 10 355 13 355 13 L315 13 L315 330 L523 737 L524 737 L564 737 L564 743 L564 750 L530 750 L510 750 L490 750 L430 750 C430 750 434 747 440 743 C446 740 450 737 450 737 L483 737 L294 366 L105 737 L105 737 L138 737 C138 737 142 740 148 743 C154 747 158 750 158 750 L98 750 L78 750 L58 750 L25 750 L25 743 L25 737 L65 737 L274 330 L275 13 L275 13 Z " />
<glyph glyph-name="Zacute" unicode="&#x179;" horiz-adv-x="570" d="M276 830 L309 830 L359 980 L313 980 L276 830 L276 830 Z M525 16 L525 33 L525 93 C525 93 523 89 519 83 C515 76 512 72 512 73 L512 33 L88 33 L525 717 L525 750 L60 750 L60 734 L60 717 L60 657 C60 657 63 661 67 667 C70 673 73 677 73 677 L73 717 L482 717 L45 33 L45 0 L525 0 L525 16 L525 16 Z " />
<glyph glyph-name="zacute" unicode="&#x17a;" horiz-adv-x="375" d="M184 600 L217 600 L267 750 L220 750 L184 600 L184 600 Z M45 520 L45 506 L45 492 L45 432 C45 432 48 436 52 442 C55 448 58 452 58 452 L58 492 L295 492 L30 22 L30 0 L69 0 L355 0 L355 14 L355 28 L355 88 C355 88 353 84 349 78 C345 72 342 68 342 68 L342 28 L74 28 L339 498 L339 520 L301 520 L45 520 L45 520 Z " />
<glyph glyph-name="Zdot" unicode="&#x17b;" horiz-adv-x="570" d="M263 830 L323 830 L323 890 L263 890 L263 830 L263 830 Z M525 16 L525 33 L525 93 C525 93 523 89 519 83 C515 76 512 72 512 73 L512 33 L88 33 L525 717 L525 750 L60 750 L60 734 L60 717 L60 657 C60 657 63 661 67 667 C70 673 73 677 73 677 L73 717 L482 717 L45 33 L45 0 L525 0 L525 16 L525 16 Z " />
<glyph glyph-name="zdot" unicode="&#x17c;" horiz-adv-x="375" d="M170 600 L230 600 L230 660 L170 660 L170 600 L170 600 Z M45 520 L45 506 L45 492 L45 432 C45 432 48 436 52 442 C55 448 58 452 58 452 L58 492 L295 492 L30 22 L30 0 L69 0 L355 0 L355 14 L355 28 L355 88 C355 88 353 84 349 78 C345 72 342 68 342 68 L342 28 L74 28 L339 498 L339 520 L301 520 L45 520 L45 520 Z " />
<glyph glyph-name="Zcaron" unicode="&#x17d;" horiz-adv-x="570" d="M293 858 L402 980 L435 980 L311 830 L275 830 L150 980 L183 980 L293 858 L293 858 Z M525 16 L525 33 L525 93 C525 93 523 89 519 83 C515 76 512 72 512 73 L512 33 L88 33 L525 717 L525 750 L60 750 L60 734 L60 717 L60 657 C60 657 63 661 67 667 C70 673 73 677 73 677 L73 717 L482 717 L45 33 L45 0 L525 0 L525 16 L525 16 Z " />
<glyph glyph-name="zcaron" unicode="&#x17e;" horiz-adv-x="375" d="M200 628 L310 750 L343 750 L218 600 L182 600 L58 750 L90 750 L200 628 L200 628 Z M45 520 L45 506 L45 492 L45 432 C45 432 48 436 52 442 C55 448 58 452 58 452 L58 492 L295 492 L30 22 L30 0 L69 0 L355 0 L355 14 L355 28 L355 88 C355 88 353 84 349 78 C345 72 342 68 342 68 L342 28 L74 28 L339 498 L339 520 L301 520 L45 520 L45 520 Z " />
<glyph glyph-name="oogonek" unicode="&#x1eb;" horiz-adv-x="694" d="M81 298 C81 113 193 -10 361 -10 C395 -10 426 -5 455 4 L596 -90 L617 -69 L487 18 C582 64 640 165 640 298 C640 474 520 607 361 607 C201 607 81 474 81 298 L81 298 Z M422 26 C403 21 383 19 362 19 C217 19 121 131 121 298 C121 457 224 577 362 577 C499 577 602 457 602 298 C602 171 547 76 458 37 L401 75 L381 54 L422 26 L422 26 Z " />
<glyph glyph-name="Adotabove" unicode="&#x226;" horiz-adv-x="680" d="M323 830 L383 830 L383 890 L323 890 L323 830 L323 830 Z M646 13 L645 13 L373 750 L370 750 L350 750 L334 750 L331 750 L271 750 C271 750 275 747 281 743 C287 740 291 737 291 737 L326 737 L326 737 L59 13 L19 13 L19 7 L19 0 L54 0 L74 0 L95 0 L155 0 C155 0 151 3 145 7 C139 10 135 13 135 13 L100 13 L180 232 L179 229 L525 229 L514 260 L190 260 L352 701 L605 13 L605 13 L570 13 C570 13 566 10 560 7 C554 3 550 0 550 0 L610 0 L630 0 L650 0 L686 0 L686 7 L686 13 L646 13 L646 13 Z " />
<glyph glyph-name="G_sc" unicode="&#x262;" horiz-adv-x="654" d="M405 319 L575 319 L575 119 C504 59 424 19 363 19 C214 19 115 131 115 298 C115 466 214 577 363 577 C485 577 566 509 566 407 L579 418 L592 429 L592 489 C590 486 588 482 586 479 L586 479 C562 558 479 608 364 608 C192 608 77 485 77 299 C77 114 192 -9 364 -9 C439 -9 531 36 611 103 L611 349 L406 349 L405 319 L405 319 Z " />
<glyph glyph-name="I_sc" unicode="&#x26a;" horiz-adv-x="248" d="M126 0 L144 0 L204 0 C204 0 200 3 194 7 C188 10 184 13 184 13 L144 13 L144 584 L184 584 C184 583 188 586 194 590 C200 594 204 596 204 597 C186 596 164 596 144 596 L144 597 L126 597 L108 597 L108 596 C88 596 65 596 48 597 C48 596 52 594 58 590 C64 586 68 583 68 584 L108 584 L108 13 L68 13 C68 13 64 10 58 7 C52 3 48 0 48 0 L108 0 L126 0 L126 0 Z " />
<glyph glyph-name="N_sc" unicode="&#x274;" horiz-adv-x="534" d="M393 596 C373 596 351 596 333 597 C333 596 337 594 343 590 C349 586 353 583 353 584 L393 584 L393 59 L166 578 L166 596 L158 596 L148 596 L130 596 L130 595 C110 595 87 595 70 596 C70 595 74 593 80 589 C86 585 90 582 90 583 L130 583 L130 12 L90 12 C90 12 86 9 80 6 C74 2 70 -1 70 -1 L130 -1 L148 -1 L166 -1 L226 -1 C226 -1 222 2 216 6 C210 9 206 12 206 12 L166 12 L166 514 L391 -1 L393 -1 L419 -1 L429 -1 L429 583 L469 583 C470 582 474 585 479 589 C486 593 490 595 489 596 C471 595 449 595 429 595 L429 596 L411 596 L393 596 L393 596 Z " />
<glyph glyph-name="R_sc" unicode="&#x280;" horiz-adv-x="544" d="M491 13 L491 13 L341 275 C440 281 490 330 490 419 C490 537 432 598 319 598 L166 598 L148 598 L139 598 L130 598 L130 597 C110 597 87 597 70 598 C70 597 74 595 80 591 C86 587 90 584 90 585 L130 585 L130 14 L90 14 C90 14 86 11 80 8 C74 4 70 1 70 1 L130 1 L148 1 L166 1 L226 1 C226 1 222 4 216 8 C210 11 206 14 206 14 L166 14 L166 275 L300 275 L457 1 L477 1 L498 1 L531 1 L531 8 L531 14 L491 13 L491 13 Z M166 303 L166 570 L317 570 C408 570 454 519 454 419 C454 342 408 303 320 303 L166 303 L166 303 Z " />
<glyph glyph-name="Y_sc" unicode="&#x28f;" horiz-adv-x="525" d="M446 584 L446 584 L277 357 L109 584 L139 584 C139 583 143 586 149 590 C155 594 159 596 159 597 C141 596 119 596 99 596 L99 597 L79 597 L59 597 L60 596 C49 596 38 596 29 597 L29 590 L29 584 L69 584 L259 330 L259 13 L219 13 C219 13 215 10 209 7 C203 3 199 0 199 0 L259 0 L277 0 L295 0 L355 0 C355 0 352 3 345 7 C340 10 336 13 335 13 L295 13 L295 330 L486 584 L526 584 L526 590 L526 597 C517 596 506 596 495 596 L496 597 L476 597 L456 597 L456 596 C436 596 414 596 396 597 C396 596 400 594 406 590 C412 586 416 583 416 584 L446 584 L446 584 Z " />
<glyph glyph-name="B_sc" unicode="&#x299;" horiz-adv-x="624" d="M403 336 C475 351 520 388 520 438 C520 553 460 597 305 597 L166 597 L148 597 L130 597 L130 596 C110 596 87 596 70 597 C70 596 74 594 80 590 C86 586 90 583 90 584 L130 584 L130 13 L90 13 C90 13 86 10 80 7 C74 3 70 0 70 0 L130 0 L148 0 L166 0 L374 0 C529 0 589 49 589 174 C589 271 515 336 404 336 L403 336 L403 336 Z M166 343 L166 569 L306 569 C433 569 483 532 483 436 C483 380 415 343 313 343 L166 343 L166 343 Z M166 28 L166 316 L380 316 C483 316 551 261 551 178 C551 70 499 28 364 28 L166 28 L166 28 Z " />
<glyph glyph-name="H_sc" unicode="&#x29c;" horiz-adv-x="579" d="M457 0 L475 0 L535 0 C535 0 531 3 525 7 C519 10 515 13 515 13 L475 13 L475 584 L515 584 C515 583 519 586 525 590 C531 594 535 596 535 597 C517 596 495 596 475 596 L475 597 L457 597 L439 597 L439 596 C419 596 396 596 379 597 C379 596 383 594 389 590 C395 586 399 583 399 584 L439 584 L439 318 L166 318 L166 584 L206 584 C206 583 210 586 216 590 C222 594 226 596 226 597 C209 596 186 596 166 596 L166 597 L148 597 L130 597 L130 596 C110 596 87 596 70 597 C70 596 74 594 80 590 C86 586 90 583 90 584 L130 584 L130 13 L90 13 C90 13 86 10 80 7 C74 3 70 0 70 0 L130 0 L148 0 L166 0 L226 0 C226 0 222 3 216 7 C210 10 206 13 206 13 L166 13 L166 288 L439 288 L439 13 L399 13 C399 13 395 10 389 7 C383 3 379 0 379 0 L439 0 L457 0 L457 0 Z " />
<glyph glyph-name="L_sc" unicode="&#x29f;" horiz-adv-x="399" d="M350 15 L350 29 L350 89 C350 89 347 85 343 79 C339 73 337 69 337 69 L337 29 L144 29 L144 584 L184 584 C184 583 188 586 194 590 C200 594 204 596 204 597 C186 596 164 596 144 596 L144 597 L126 597 L108 597 L108 596 C88 596 65 596 48 597 C48 596 52 594 58 590 C64 586 68 583 68 584 L108 584 L108 13 L68 13 C68 13 64 10 58 7 C52 3 48 0 48 0 L108 0 L126 0 L144 0 L350 0 L350 15 L350 15 Z " />
<glyph glyph-name="A_sc" unicode="&#x1d00;" horiz-adv-x="645" d="M310 584 L310 584 L60 13 L20 13 L20 7 L20 0 L54 0 L72 0 L90 0 L150 0 C150 0 146 3 140 7 C134 10 130 13 130 13 L96 13 L169 180 L501 180 L497 190 L575 13 L575 13 L541 13 C541 13 537 10 531 7 C525 3 521 0 521 0 L581 0 L599 0 L617 0 L651 0 L651 7 L651 13 L611 13 L355 597 L352 597 L334 597 L320 597 L317 597 L317 596 C297 596 275 596 257 597 C257 596 261 594 267 590 C273 586 277 583 277 584 L310 584 L310 584 Z M182 207 L336 560 L490 207 L182 207 L182 207 Z " />
<glyph glyph-name="C_sc" unicode="&#x1d04;" horiz-adv-x="602" d="M556 190 C556 87 468 19 336 19 C203 19 115 147 115 298 C115 449 203 577 336 577 C468 577 556 509 556 407 L570 418 L570 418 L583 429 L583 489 C580 486 578 482 576 479 L576 479 C574 484 572 489 570 494 L570 495 L570 495 C538 565 452 609 336 609 C180 609 76 467 76 300 C76 134 180 -8 336 -8 C484 -8 583 63 583 169 L556 190 L556 190 Z " />
<glyph glyph-name="D_sc" unicode="&#x1d05;" horiz-adv-x="664" d="M148 0 L166 0 L309 0 C512 0 609 96 609 298 C609 495 497 597 279 597 L166 597 L148 597 L130 597 L130 596 C110 596 87 596 70 597 C70 596 74 594 80 590 C86 586 90 583 90 584 L130 584 L130 13 L90 13 C90 13 86 10 80 7 C74 3 70 0 70 0 L130 0 L148 0 L148 0 Z M166 28 L166 569 L281 569 C472 569 571 477 571 298 C571 115 486 28 307 28 L166 28 L166 28 Z " />
<glyph glyph-name="E_sc" unicode="&#x1d07;" horiz-adv-x="471" d="M422 15 L422 29 L422 89 C422 89 419 85 415 79 C411 73 409 69 409 69 L409 29 L166 29 L166 294 L374 294 L374 254 C374 254 376 250 380 244 C384 238 387 234 387 234 L387 294 L387 308 L387 322 L387 382 C387 382 384 378 380 372 C376 366 374 362 374 362 L374 322 L166 322 L166 567 L394 567 L394 527 C394 527 396 523 400 517 C404 511 407 507 407 507 L407 567 L407 582 L407 597 L166 597 L165 597 L148 597 L130 597 L130 596 C110 596 87 596 70 597 C70 596 74 594 80 590 C86 586 90 583 90 584 L130 584 L130 13 L90 13 C90 13 86 10 80 7 C74 3 70 0 70 0 L130 0 L148 0 L165 0 L166 0 L422 0 L422 15 L422 15 Z " />
<glyph glyph-name="J_sc" unicode="&#x1d0a;" horiz-adv-x="353" d="M72 283 L72 222 C72 62 102 -10 170 -10 C235 -10 269 64 269 175 L269 584 L309 584 C309 583 313 586 319 590 C325 594 329 596 329 597 C311 596 289 596 269 596 L269 597 L251 597 L233 597 L233 596 C213 596 191 596 173 597 C173 596 177 594 183 590 C189 586 193 583 193 584 L233 584 L233 175 C233 84 212 23 170 23 C127 23 108 88 108 233 L108 290 L72 283 L72 283 Z " />
<glyph glyph-name="K_sc" unicode="&#x1d0b;" horiz-adv-x="466" d="M357 584 L357 584 L146 272 L146 584 L186 584 C186 583 190 586 196 590 C202 594 206 596 206 597 C189 596 166 596 146 596 L146 597 L128 597 L110 597 L110 596 C90 596 67 596 50 597 C50 596 54 594 60 590 C66 586 70 583 70 584 L110 584 L110 13 L70 13 C70 13 66 10 60 7 C54 3 50 0 50 0 L110 0 L128 0 L146 0 L206 0 C206 0 202 3 196 7 C190 10 186 13 186 13 L146 13 L146 218 L225 334 L410 13 L378 13 C378 13 374 10 368 7 C362 3 358 0 358 0 L418 0 L437 0 L456 0 L489 0 L489 7 L489 13 L449 13 L449 13 L247 366 L396 584 L436 584 L436 590 L436 597 C427 596 416 596 405 596 L405 597 L386 597 L366 597 L366 596 C346 596 324 596 306 597 C306 596 310 594 316 590 C322 586 326 583 326 584 L357 584 L357 584 Z " />
<glyph glyph-name="M_sc" unicode="&#x1d0d;" horiz-adv-x="735" d="M613 0 L630 0 L690 0 C690 0 687 3 680 7 C675 10 671 13 670 13 L630 13 L630 584 L670 584 C671 583 675 586 680 590 C687 594 691 596 690 597 C672 596 650 596 630 596 L630 597 L613 597 L607 597 L596 597 L574 597 L380 45 L185 597 L165 597 L152 597 L148 597 L130 597 L130 596 C110 596 88 596 70 597 C70 596 74 594 80 590 C86 586 90 583 90 584 L130 584 L130 13 L90 13 C90 13 86 10 80 7 C74 3 70 0 70 0 L130 0 L148 0 L165 0 L225 0 C225 0 221 3 215 7 C209 10 205 13 205 13 L165 13 L165 560 L364 0 L396 0 L596 566 L596 13 L556 13 C556 13 552 10 546 7 C540 3 536 0 536 0 L596 0 L613 0 L613 0 Z " />
<glyph glyph-name="O_sc" unicode="&#x1d0f;" horiz-adv-x="694" d="M361 19 C216 19 120 131 120 298 C120 457 223 577 361 577 C498 577 601 457 601 298 C601 131 505 19 361 19 L361 19 Z M81 298 C81 113 193 -10 361 -10 C528 -10 640 113 640 298 C640 474 520 607 361 607 C201 607 81 474 81 298 L81 298 Z " />
<glyph glyph-name="P_sc" unicode="&#x1d18;" horiz-adv-x="524" d="M148 0 L166 0 L226 0 C226 0 222 3 216 7 C210 10 206 13 206 13 L166 13 L166 258 L319 258 C432 258 490 312 490 418 C490 536 432 597 319 597 L166 597 L148 597 L139 597 L130 597 L130 596 C110 596 87 596 70 597 C70 596 74 594 80 590 C86 586 90 583 90 584 L130 584 L130 13 L90 13 C90 13 86 10 80 7 C74 3 70 0 70 0 L130 0 L148 0 L148 0 Z M166 286 L166 569 L317 569 C408 569 454 518 454 418 C454 331 409 286 320 286 L166 286 L166 286 Z " />
<glyph glyph-name="T_sc" unicode="&#x1d1b;" horiz-adv-x="475" d="M238 0 L256 0 L316 0 C316 0 312 3 306 7 C300 10 296 13 296 13 L256 13 L256 567 L453 567 L453 527 C453 527 455 523 459 517 C463 511 466 507 466 507 L466 567 L466 582 L466 597 L256 597 L220 597 L10 597 L10 582 L10 567 L10 507 C10 507 13 511 17 517 C20 523 23 527 23 527 L23 567 L220 567 L220 13 L180 13 C180 13 176 10 170 7 C164 3 160 0 160 0 L220 0 L238 0 L238 0 Z " />
<glyph glyph-name="U_sc" unicode="&#x1d1c;" horiz-adv-x="559" d="M123 596 C103 596 80 596 63 597 C63 596 67 594 73 590 C79 586 83 583 83 584 L123 584 L123 233 C123 73 180 -10 291 -10 C403 -10 460 73 460 233 L460 584 L500 584 C500 583 504 586 510 590 C516 594 520 596 520 597 C502 596 480 596 460 596 L460 597 L442 597 L424 597 L424 596 C404 596 381 596 364 597 C364 596 368 594 374 590 C380 586 384 583 384 584 L424 584 L424 239 C424 97 379 23 291 23 C204 23 159 97 159 239 L159 584 L199 584 C199 583 203 586 209 590 C215 594 219 596 219 597 C202 596 179 596 159 596 L159 597 L141 597 L123 597 L123 596 L123 596 Z " />
<glyph glyph-name="V_sc" unicode="&#x1d20;" horiz-adv-x="494" d="M402 584 L402 584 L260 59 L118 584 L118 584 L154 584 C154 583 158 586 164 590 C170 594 174 596 174 597 C156 596 134 596 114 596 L114 597 L95 597 L75 597 L75 596 C63 596 50 596 39 597 L39 590 L39 584 L79 584 L243 0 L244 0 L276 0 L277 0 L439 584 L440 584 L480 584 L480 590 L480 597 C469 596 456 596 443 596 L443 597 L424 597 L405 597 L405 596 C385 596 363 596 345 597 C345 596 349 594 355 590 C361 586 365 583 365 584 L402 584 L402 584 Z " />
<glyph glyph-name="W_sc" unicode="&#x1d21;" horiz-adv-x="684" d="M593 584 L593 584 L489 75 L373 597 L338 597 L223 75 L118 584 L118 584 L155 584 C155 583 159 586 165 590 C171 594 175 596 175 597 C157 596 135 596 115 596 L115 597 L96 597 L76 597 L76 596 C63 596 50 596 39 597 L39 590 L39 584 L79 584 L203 0 L206 0 L238 0 L355 519 L472 0 L474 0 L506 0 L631 584 L632 584 L672 584 L672 590 L672 597 C661 596 647 596 634 596 L634 597 L615 597 L596 597 L596 596 C576 596 554 596 536 597 C536 596 540 594 546 590 C552 586 556 583 556 584 L593 584 L593 584 Z " />
<glyph glyph-name="Z_sc" unicode="&#x1d22;" horiz-adv-x="535" d="M491 15 L491 29 L491 89 C491 89 488 85 484 79 C480 73 478 69 478 69 L478 29 L83 29 L491 567 L491 597 L60 597 L60 582 L60 567 L60 507 C60 507 63 511 67 517 C70 523 73 527 73 527 L73 567 L453 567 L45 29 L45 0 L491 0 L491 15 L491 15 Z " />
<glyph glyph-name="Wgrave" unicode="&#x1e80;" horiz-adv-x="723" d="M358 830 L391 830 L354 980 L308 980 L358 830 L358 830 Z M671 737 L671 737 L711 737 L711 743 L711 750 L673 750 L652 750 L630 750 L570 750 C571 750 575 747 580 743 C587 740 591 737 590 737 L628 737 L518 97 L394 750 L355 750 L232 97 L120 737 L158 737 C158 737 162 740 168 743 C174 747 178 750 178 750 L118 750 L97 750 L75 750 L38 750 L38 743 L38 737 L77 737 L211 0 L214 0 L249 0 L374 648 L498 0 L501 0 L536 0 L671 737 L671 737 Z " />
<glyph glyph-name="Wacute" unicode="&#x1e82;" horiz-adv-x="723" d="M358 830 L391 830 L441 980 L394 980 L358 830 L358 830 Z M671 737 L671 737 L711 737 L711 743 L711 750 L673 750 L652 750 L630 750 L570 750 C571 750 575 747 580 743 C587 740 591 737 590 737 L628 737 L518 97 L394 750 L355 750 L232 97 L120 737 L158 737 C158 737 162 740 168 743 C174 747 178 750 178 750 L118 750 L97 750 L75 750 L38 750 L38 743 L38 737 L77 737 L211 0 L214 0 L249 0 L374 648 L498 0 L501 0 L536 0 L671 737 L671 737 Z " />
<glyph glyph-name="Wdieresis" unicode="&#x1e84;" horiz-adv-x="723" d="M408 830 L468 830 L468 890 L408 890 L408 830 L408 830 Z M281 830 L341 830 L341 890 L281 890 L281 830 L281 830 Z M671 737 L671 737 L711 737 L711 743 L711 750 L673 750 L652 750 L630 750 L570 750 C571 750 575 747 580 743 C587 740 591 737 590 737 L628 737 L518 97 L394 750 L355 750 L232 97 L120 737 L158 737 C158 737 162 740 168 743 C174 747 178 750 178 750 L118 750 L97 750 L75 750 L38 750 L38 743 L38 737 L77 737 L211 0 L214 0 L249 0 L374 648 L498 0 L501 0 L536 0 L671 737 L671 737 Z " />
<glyph glyph-name="Etilde" unicode="&#x1ebc;" horiz-adv-x="509" d="M241 830 C241 868 251 893 266 893 C311 893 255 820 310 820 C339 820 359 856 359 911 L333 911 C333 873 323 848 307 848 C262 848 319 921 264 921 C234 921 214 885 214 830 L241 830 L241 830 Z M459 16 L459 33 L459 93 C459 93 457 89 453 83 C449 76 446 72 446 73 L446 33 L169 33 L169 371 L411 371 L411 331 C411 331 414 327 418 321 C422 315 424 311 424 311 L424 371 L424 387 L424 403 L424 463 C424 463 422 459 418 453 C414 447 411 443 411 443 L411 403 L169 403 L169 717 L431 717 L431 677 C431 677 434 673 438 667 C442 661 444 657 444 657 L444 717 L444 734 L444 750 L169 750 L168 750 L149 750 L129 750 L69 750 C69 750 73 747 79 743 C85 740 89 737 89 737 L129 737 L129 13 L89 13 C89 13 85 10 79 7 C73 3 69 0 69 0 L129 0 L149 0 L168 0 L169 0 L459 0 L459 16 L459 16 Z " />
<glyph glyph-name="Ygrave" unicode="&#x1ef2;" horiz-adv-x="560" d="M278 830 L311 830 L275 980 L228 980 L278 830 L278 830 Z M275 13 L235 13 C235 13 231 10 225 7 C219 3 215 0 215 0 L275 0 L295 0 L315 0 L375 0 C375 0 371 3 365 7 C359 10 355 13 355 13 L315 13 L315 330 L523 737 L524 737 L564 737 L564 743 L564 750 L530 750 L510 750 L490 750 L430 750 C430 750 434 747 440 743 C446 740 450 737 450 737 L483 737 L294 366 L105 737 L105 737 L138 737 C138 737 142 740 148 743 C154 747 158 750 158 750 L98 750 L78 750 L58 750 L25 750 L25 743 L25 737 L65 737 L274 330 L275 13 L275 13 Z " />
<glyph glyph-name="endash" unicode="&#x2013;" horiz-adv-x="325" d="M5 248 L320 248 L320 278 L5 278 L5 248 L5 248 Z " />
<glyph glyph-name="emdash" unicode="&#x2014;" horiz-adv-x="615" d="M50 248 L565 248 L565 278 L50 278 L50 248 L50 248 Z " />
<glyph glyph-name="quoteleft" unicode="&#x2018;" horiz-adv-x="160" d="M110 760 C67 760 50 729 50 681 L50 621 L110 621 L110 681 L73 681 C73 717 83 741 110 741 L110 760 L110 760 Z " />
<glyph glyph-name="quoteright" unicode="&#x2019;" horiz-adv-x="160" d="M80 760 L80 700 L117 700 C117 657 107 640 80 640 L80 621 C123 621 140 643 140 700 L140 760 L80 760 L80 760 Z " />
<glyph glyph-name="quotedblleft" unicode="&#x201c;" horiz-adv-x="280" d="M230 760 C187 760 170 729 170 681 L170 621 L230 621 L230 681 L193 681 C193 717 203 741 230 741 L230 760 L230 760 Z M140 760 C97 760 80 729 80 681 L80 621 L140 621 L140 681 L103 681 C103 717 113 741 140 741 L140 760 L140 760 Z " />
<glyph glyph-name="quotedblright" unicode="&#x201d;" horiz-adv-x="280" d="M170 760 L170 700 L207 700 C207 657 197 640 170 640 L170 621 C213 621 230 643 230 700 L230 760 L170 760 L170 760 Z M80 760 L80 700 L117 700 C117 657 107 640 80 640 L80 621 C123 621 140 643 140 700 L140 760 L80 760 L80 760 Z " />
<glyph glyph-name="dagger" unicode="&#x2020;" horiz-adv-x="495" d="M436 580 L266 580 L266 750 L230 750 L230 580 L60 580 L60 549 L230 549 L230 -50 L266 -50 L266 549 L436 549 L436 580 L436 580 Z " />
<glyph glyph-name="daggerdbl" unicode="&#x2021;" horiz-adv-x="495" d="M60 120 L230 120 L230 -50 L266 -50 L266 120 L436 120 L436 151 L266 151 L266 549 L436 549 L436 580 L266 580 L266 750 L230 750 L230 580 L60 580 L60 549 L230 549 L230 151 L60 151 L60 120 L60 120 Z " />
<glyph glyph-name="bullet" unicode="&#x2022;" horiz-adv-x="160" d="M43 230 L118 230 L118 305 L43 305 L43 230 L43 230 Z " />
<glyph glyph-name="ellipsis" unicode="&#x2026;" horiz-adv-x="430" d="M320 0 L380 0 L380 60 L320 60 L320 0 L320 0 Z M185 0 L245 0 L245 60 L185 60 L185 0 L185 0 Z M50 0 L110 0 L110 60 L50 60 L50 0 L50 0 Z " />
<glyph glyph-name="perthousand" unicode="&#x2030;" horiz-adv-x="564" d="M647 140 C647 61 628 9 590 9 C552 9 533 61 533 140 C533 219 552 271 590 271 C628 271 647 219 647 140 L647 140 Z M590 -10 C641 -10 667 50 667 140 C667 230 641 290 590 290 C539 290 513 230 513 140 C513 50 539 -10 590 -10 L590 -10 Z M491 140 C491 61 472 9 434 9 C397 9 378 61 378 140 C378 219 397 271 434 271 C472 271 491 219 491 140 L491 140 Z M434 -10 C485 -10 511 50 511 140 C511 230 485 290 434 290 C383 290 357 230 357 140 C357 50 383 -10 434 -10 L434 -10 Z M73 610 C73 689 92 741 130 741 C167 741 187 689 187 610 C187 531 167 479 130 479 C92 479 73 531 73 610 L73 610 Z M130 760 C79 760 53 700 53 610 C53 520 79 460 130 460 C181 460 207 520 207 610 C207 700 181 760 130 760 L130 760 Z M122 0 L134 0 L442 750 L430 750 L122 0 L122 0 Z " />
<glyph glyph-name="guilsinglleft" unicode="&#x2039;" horiz-adv-x="205" d="M148 470 L67 260 L148 50 L179 50 L98 260 L179 470 L148 470 L148 470 Z " />
<glyph glyph-name="guilsinglright" unicode="&#x203a;" horiz-adv-x="205" d="M102 470 L182 260 L102 50 L133 50 L214 260 L133 470 L102 470 L102 470 Z " />
<glyph glyph-name="fraction" unicode="&#x2044;" horiz-adv-x="524" d="M60 0 L72 0 L465 750 L452 750 L60 0 L60 0 Z " />
<glyph glyph-name="Euro" unicode="&#x20ac;" horiz-adv-x="636" d="M22 325 L77 325 C93 139 199 -10 352 -10 C510 -10 616 61 616 167 L587 191 C587 90 493 23 352 23 C224 23 135 157 120 325 L397 325 L400 345 L119 345 C118 355 118 365 118 375 C118 385 118 395 119 405 L400 405 L403 425 L120 425 C135 593 224 727 352 727 C493 727 587 660 587 559 L616 583 C616 689 510 760 352 760 C199 760 93 611 77 425 L28 425 L25 405 L76 405 C75 395 75 385 75 375 C75 365 75 355 76 345 L25 345 L22 325 L22 325 Z " />
<glyph glyph-name="minus" unicode="&#x2212;" horiz-adv-x="530" d="M50 252 L480 252 L480 274 L50 274 L50 252 L50 252 Z " />
<glyph glyph-name="divisionslash" unicode="&#x2215;" horiz-adv-x="404" d="M0 0 L12 0 L405 750 L392 750 L0 0 L0 0 Z " />
<glyph glyph-name="bulletoperator" unicode="&#x2219;" horiz-adv-x="160" d="M50 230 L110 230 L110 290 L50 290 L50 230 L50 230 Z " />
<glyph glyph-name="F_sc" unicode="&#xa730;" horiz-adv-x="436" d="M364 294 L364 254 C364 254 366 250 370 244 C374 238 377 234 377 234 L377 294 L377 308 L377 322 L377 382 C377 382 374 378 370 372 C366 366 364 362 364 362 L364 322 L166 322 L166 567 L394 567 L394 527 C394 527 396 523 400 517 C404 511 407 507 407 507 L407 567 L407 582 L407 597 L166 597 L165 597 L148 597 L130 597 L130 596 C110 596 87 596 70 597 C70 596 74 594 80 590 C86 586 90 583 90 584 L130 584 L130 13 L90 13 C90 13 86 10 80 7 C74 3 70 0 70 0 L130 0 L148 0 L166 0 L226 0 C226 0 222 3 216 7 C210 10 206 13 206 13 L166 13 L166 294 L364 294 L364 294 Z " />
<glyph glyph-name="S_sc" unicode="&#xa731;" horiz-adv-x="411" d="M69 93 L69 92 L69 92 C94 24 152 -11 229 -11 C327 -11 377 60 377 165 C377 242 322 296 215 324 C138 345 98 384 98 440 C98 520 134 574 187 574 C261 574 310 527 310 436 L336 459 L336 519 C334 516 332 512 329 509 C327 516 325 522 322 528 L322 528 L322 528 C300 579 251 605 186 605 C111 605 60 537 60 435 C60 362 109 311 204 287 C294 264 340 222 340 163 C340 77 302 19 228 19 C143 19 86 79 86 194 L55 173 L55 113 C57 115 59 117 60 119 C62 109 65 99 68 90 L69 93 L69 93 Z " />
<glyph glyph-name="X_sc" unicode="&#xf078;" horiz-adv-x="540" d="M90 13 L90 13 L50 13 L50 7 L50 0 L82 0 L102 0 L121 0 L181 0 C181 0 177 3 171 7 C165 10 161 13 161 13 L129 13 L298 288 L442 13 L409 13 C409 13 405 10 399 7 C393 3 389 0 389 0 L449 0 L468 0 L486 0 L519 0 L519 7 L519 13 L479 13 L318 320 L480 584 L480 584 L520 584 C521 583 521 586 520 590 C521 594 521 596 520 597 C510 596 498 596 487 596 L487 597 L468 597 L449 597 L449 596 C429 596 407 596 389 597 C389 596 393 594 399 590 C405 586 409 583 409 584 L441 584 L299 354 L179 584 L212 584 C212 584 215 586 222 590 C227 594 231 596 232 597 C214 596 192 596 172 596 L172 597 L153 597 L135 597 L135 596 C124 596 112 596 102 597 L102 590 L102 584 L142 584 L279 322 L90 13 L90 13 Z " />
</font>
</svg>
