<svg id="Layer_1" data-name="Layer 1" xmlns="http://www.w3.org/2000/svg" viewBox="0 0 490.01 115.13"><path d="M1,90v-84L16.88-.07V37.54H16L50.27.65H70.85L29.33,44.28,73.56,90H52L15.85,52.59h1V90Z" transform="translate(-0.99 0.32)"/><path d="M72.55,59A32.92,32.92,0,0,1,76.37,43.2,28.38,28.38,0,0,1,87.05,31.94a28.71,28.71,0,0,1,15.11-4.09,25,25,0,0,1,9.5,1.75,21,21,0,0,1,7.53,5.11v-1l14.44-6.32V89.54H119.19V83.28q-6.63,6.73-17,6.74a28.65,28.65,0,0,1-15-4.06A29,29,0,0,1,76.46,74.73,31.87,31.87,0,0,1,72.55,59Zm16.24,9a14.65,14.65,0,0,0,5.84,6.11v.06a15.51,15.51,0,0,0,8.43,2.23,16.2,16.2,0,0,0,8.42-2.2,15.16,15.16,0,0,0,5.84-6.23,18.07,18.07,0,0,0,2.05-8.66V59a19.61,19.61,0,0,0-2.05-9,14.47,14.47,0,0,0-5.84-6.2,17.13,17.13,0,0,0-16.85,0,15.31,15.31,0,0,0-5.84,6.17,18.49,18.49,0,0,0-2,8.78A19.94,19.94,0,0,0,88.79,68Z" transform="translate(-0.99 0.32)"/><path d="M134.53,42.05l6.38-13.66h5.66V15.93l14.81-6.25V28.39H183l-6.32,13.66H161.38V66.89q0,4.89,2.16,7.51A7.66,7.66,0,0,0,169.8,77q5.65,0,12.52-4.58V87.81a31.44,31.44,0,0,1-13.6,3.11q-10.83,0-16.49-6.08t-5.66-17.75v-25Z" transform="translate(-0.99 0.32)"/><path d="M184.25,28H201l17.87,32.14L237.57,28h16.49l-51.94,86.79H185.57l23.65-39.73Z" transform="translate(-0.99 0.32)"/><path d="M255.56,62.76V32.91L270,26.77v34.9q0,7.11,3.43,10.78c2.3,2.44,5.63,3.67,10,3.67s7.71-1.24,10-3.7,3.41-6,3.41-10.75V32.91l14.8-6.14v36A29.11,29.11,0,0,1,308,77.71a22.54,22.54,0,0,1-10.62,9.42A34.1,34.1,0,0,1,283.61,90a31.57,31.57,0,0,1-14.21-3.1A24.31,24.31,0,0,1,259.47,78Q255.51,71.85,255.56,62.76Z" transform="translate(-0.99 0.32)"/><path d="M314.3,47.05a16.44,16.44,0,0,1,3.38-10.14A21.32,21.32,0,0,1,327.22,30a36.55,36.55,0,0,1,13.29-2.29,47.16,47.16,0,0,1,19.81,4l-.24,14.93a36.28,36.28,0,0,0-9.31-4.4,32.68,32.68,0,0,0-9.84-1.68,20.53,20.53,0,0,0-6,.81,10.62,10.62,0,0,0-4.23,2.26h.06a3.83,3.83,0,0,0-1.38,2.76,3.43,3.43,0,0,0,1.9,3.1,22.77,22.77,0,0,0,6.7,2l6,1q20.56,3.52,20.49,18.11a15.92,15.92,0,0,1-3.71,10.38,23.06,23.06,0,0,1-10.47,7,41.6,41.6,0,0,1-14.42,2.29,50,50,0,0,1-11.19-1.26,39,39,0,0,1-9.91-3.67L315,72.93l.3-.54,2.31-.55A26.07,26.07,0,0,0,326,76.09a37,37,0,0,0,10.48,1.35,27.81,27.81,0,0,0,7-.78A12.13,12.13,0,0,0,348,74.53a3.9,3.9,0,0,0,1.65-3q0-4.2-9.21-5.53L334.4,65q-9.81-1.56-14.95-6.13A15.15,15.15,0,0,1,314.3,47.05Z" transform="translate(-0.99 0.32)"/><path d="M370.09,90V6.73l14.81-7V34.41a20.44,20.44,0,0,1,7.4-5.08,25.07,25.07,0,0,1,9.63-1.78,26.69,26.69,0,0,1,12.94,3.13,22.37,22.37,0,0,1,9,8.73,25.63,25.63,0,0,1,3,12.63L426,90H411.2L412,56.14v-.67q0-6.37-3.19-10-3.37-3.78-9.63-3.79a15.28,15.28,0,0,0-7.49,1.78,12.17,12.17,0,0,0-5,5.08,15.83,15.83,0,0,0-1.86,7.77V90Z" transform="translate(-0.99 0.32)"/><path d="M429.91,59a32.93,32.93,0,0,1,3.83-15.77,28.31,28.31,0,0,1,10.68-11.26,28.7,28.7,0,0,1,15.1-4.09A25.11,25.11,0,0,1,469,29.6a21,21,0,0,1,7.53,5.11v-1L491,27.43V89.54H476.56V83.28q-6.63,6.73-17,6.74a28.86,28.86,0,0,1-25.69-15.29A31.87,31.87,0,0,1,429.91,59Zm16.25,9A14.65,14.65,0,0,0,452,74.07v.06a15.51,15.51,0,0,0,8.43,2.23,16.23,16.23,0,0,0,8.42-2.2,15.16,15.16,0,0,0,5.84-6.23,18.18,18.18,0,0,0,2.05-8.66V59a19.73,19.73,0,0,0-2.05-9,14.47,14.47,0,0,0-5.84-6.2,17.13,17.13,0,0,0-16.85,0,15.31,15.31,0,0,0-5.84,6.17,18.49,18.49,0,0,0-2,8.78A19.94,19.94,0,0,0,446.16,68Z" transform="translate(-0.99 0.32)"/></svg>