<svg id="svg" version="1.1" xmlns="http://www.w3.org/2000/svg" xmlns:xlink="http://www.w3.org/1999/xlink" width="400" height="400" viewBox="0, 0, 400,400"><g id="svgg"><path id="path0" d="M201.400 58.848 C 175.086 62.696,159.081 70.137,143.300 85.860 L 137.600 91.539 137.603 93.869 C 137.605 95.151,137.867 98.180,138.185 100.600 C 143.140 138.281,142.493 171.107,136.637 179.168 C 134.670 181.876,123.594 198.558,121.611 201.800 C 108.538 223.173,102.415 235.838,99.175 248.200 C 98.409 251.124,98.308 253.036,98.002 270.400 C 97.818 280.850,97.442 297.425,97.168 307.233 C 96.559 329.000,96.794 330.626,101.193 335.103 C 106.873 340.881,111.589 341.709,137.800 341.529 L 156.600 341.400 159.099 340.246 C 161.806 338.996,164.495 336.428,165.423 334.207 L 165.985 332.863 173.492 332.731 C 186.789 332.499,191.193 328.524,191.206 316.743 C 191.209 313.804,191.360 311.167,191.540 310.883 C 191.820 310.442,199.453 310.211,207.850 310.390 C 208.156 310.397,208.358 312.305,208.478 316.300 C 208.729 324.697,210.737 328.539,216.306 331.283 L 218.979 332.600 226.327 332.732 L 233.674 332.865 234.337 334.109 C 236.102 337.421,239.572 340.140,243.400 341.207 C 246.240 342.000,284.271 341.515,288.000 340.639 C 294.213 339.180,299.242 335.728,301.266 331.535 C 303.139 327.655,303.292 325.554,302.834 310.000 C 302.605 302.190,302.225 285.990,301.991 274.000 C 301.525 250.143,301.475 249.620,298.901 242.000 C 293.767 226.803,279.584 202.012,261.636 176.866 C 257.782 171.466,257.873 172.523,260.752 166.622 C 265.261 157.376,267.729 149.222,268.247 141.857 L 268.518 138.008 266.159 136.963 C 262.528 135.354,260.133 134.517,256.064 133.433 C 251.796 132.297,251.200 131.927,251.200 130.413 C 251.200 128.351,248.171 109.347,246.423 100.445 C 246.190 99.260,246.000 98.123,246.000 97.918 C 246.000 97.695,247.286 97.657,249.192 97.823 C 261.801 98.923,249.352 84.285,233.100 78.900 C 229.710 77.777,229.390 77.333,231.198 76.265 C 235.870 73.505,229.556 69.381,218.249 67.807 C 214.680 67.310,214.359 66.845,216.747 65.627 C 226.087 60.862,216.521 56.636,201.400 58.848 M198.671 94.810 C 203.306 95.418,205.347 95.899,210.057 97.496 L 214.314 98.939 216.257 97.700 C 221.759 94.191,229.236 93.916,235.206 97.003 C 236.743 97.798,236.644 97.538,237.975 104.261 C 240.162 115.306,240.679 118.103,242.178 127.000 C 243.652 135.749,243.817 135.248,239.637 134.690 C 235.701 134.164,211.712 134.199,206.400 134.739 C 203.870 134.996,199.730 135.392,197.200 135.619 C 194.670 135.846,190.710 136.234,188.400 136.481 C 181.478 137.223,168.443 137.145,167.867 136.359 C 167.526 135.892,167.481 134.308,167.705 130.559 C 167.874 127.721,167.964 119.551,167.906 112.403 L 167.800 99.405 170.188 98.457 C 178.144 95.299,190.415 93.728,198.671 94.810 M197.000 114.071 C 190.096 116.621,190.530 125.779,197.642 127.630 C 203.538 129.164,208.416 121.567,204.679 116.668 C 202.826 114.238,199.548 113.130,197.000 114.071 M224.075 114.106 C 220.788 115.158,218.646 119.193,219.588 122.558 C 221.052 127.787,227.420 129.474,231.247 125.647 C 236.488 120.406,231.163 111.837,224.075 114.106 M199.200 116.213 C 199.200 116.331,198.660 116.955,198.000 117.600 C 195.792 119.758,196.715 123.356,199.629 123.952 C 201.443 124.323,201.459 125.356,199.653 125.529 C 194.516 126.020,192.255 119.046,196.757 116.599 C 197.800 116.032,199.200 115.811,199.200 116.213 M226.400 116.328 C 226.400 116.508,225.955 117.043,225.411 117.516 C 222.963 119.644,224.171 124.000,227.209 124.000 C 227.791 124.000,228.385 124.118,228.530 124.263 C 229.064 124.797,227.860 125.600,226.525 125.600 C 221.356 125.600,219.695 119.088,224.200 116.486 C 225.135 115.947,226.400 115.856,226.400 116.328 M233.200 138.796 C 242.406 139.343,247.186 139.917,251.600 141.005 C 258.050 142.596,258.177 142.682,257.563 145.038 C 251.081 169.904,236.413 187.144,218.000 191.539 C 197.413 196.452,172.812 191.608,162.958 180.701 C 161.296 178.861,161.295 178.837,162.765 171.000 C 163.526 166.945,165.878 150.779,166.665 144.200 L 167.000 141.400 173.400 141.529 C 179.218 141.646,182.679 141.432,198.200 139.991 C 201.810 139.655,210.600 138.996,215.800 138.670 C 220.413 138.380,227.013 138.428,233.200 138.796 M258.054 187.109 C 270.106 203.173,285.853 229.890,291.113 243.200 C 294.645 252.136,294.400 248.635,294.400 290.098 L 294.400 326.811 293.508 328.172 C 291.464 331.291,281.562 335.515,283.474 332.453 C 284.954 330.083,286.178 327.232,286.641 325.076 C 287.308 321.967,287.430 267.198,286.786 260.000 C 285.110 241.276,277.432 222.939,258.815 193.200 C 250.685 180.213,250.247 176.702,258.054 187.109 M140.183 192.100 C 139.905 193.022,136.404 199.404,135.191 201.200 C 130.352 208.365,120.841 227.965,117.767 237.105 C 112.951 251.426,112.807 253.012,112.808 291.800 C 112.810 327.369,112.753 326.707,116.259 332.084 C 118.449 335.443,108.822 331.653,106.479 328.233 L 105.600 326.950 105.600 289.967 C 105.600 247.835,105.290 251.871,109.295 241.800 C 111.242 236.901,117.141 224.704,120.127 219.400 C 129.355 203.011,137.555 191.200,139.705 191.200 C 140.295 191.200,140.396 191.391,140.183 192.100 M219.000 216.575 C 237.242 219.472,247.796 226.247,250.626 236.879 C 251.353 239.609,251.449 267.223,250.745 270.976 C 248.448 283.224,244.706 288.271,233.541 294.174 C 216.646 303.107,195.352 304.826,176.663 298.764 C 173.027 297.585,172.233 297.266,168.000 295.284 C 157.308 290.277,151.603 282.745,149.213 270.480 C 148.971 269.239,148.800 261.727,148.800 252.355 L 148.800 236.350 149.879 234.147 C 154.769 224.159,168.500 217.861,189.800 215.835 C 194.020 215.434,215.191 215.971,219.000 216.575 M143.766 278.500 C 144.202 304.631,144.358 305.433,150.389 312.400 C 158.797 322.112,161.396 329.058,158.132 333.094 C 156.304 335.353,155.671 335.287,155.904 332.860 C 156.143 330.371,153.285 324.553,150.766 322.400 C 149.564 321.373,141.878 311.103,140.971 309.313 L 139.800 307.000 139.812 292.000 C 139.824 276.368,140.369 269.503,142.005 264.400 C 142.181 263.850,142.426 263.085,142.550 262.700 C 143.274 260.447,143.518 263.613,143.766 278.500 M257.683 263.426 C 259.625 270.406,260.152 276.482,260.177 292.200 L 260.200 306.600 258.912 309.200 C 257.575 311.901,256.321 313.612,250.085 321.250 C 245.428 326.954,243.864 329.945,244.059 332.771 C 244.228 335.207,243.774 335.359,242.082 333.432 C 238.437 329.281,240.953 322.114,249.400 312.590 C 255.225 306.023,255.985 303.005,255.997 286.400 C 256.010 267.824,256.615 259.587,257.683 263.426 M182.780 308.833 C 183.891 309.071,184.808 309.476,184.818 309.733 C 185.274 321.490,184.595 324.706,181.177 326.968 C 178.652 328.639,177.327 328.329,178.700 326.389 C 179.300 325.542,179.416 324.255,179.515 317.400 C 179.660 307.283,179.349 308.097,182.780 308.833 M220.085 316.300 C 220.272 324.160,220.354 324.673,221.912 327.700 C 222.176 328.213,220.417 328.029,219.240 327.420 C 215.694 325.587,214.738 322.884,214.889 315.116 L 215.000 309.400 216.800 308.932 C 220.141 308.064,219.876 307.469,220.085 316.300 " stroke="none" fill-rule="evenodd"></path><path id="path1" d="M0.000 200.000 L 0.000 400.000 200.000 400.000 L 400.000 400.000 400.000 200.000 L 400.000 0.000 200.000 0.000 L 0.000 0.000 0.000 200.000 M215.814 58.036 C 222.255 59.227,223.286 61.986,218.537 65.327 L 216.729 66.600 217.865 66.873 C 218.489 67.024,220.941 67.607,223.314 68.169 C 232.406 70.321,235.469 72.993,232.382 76.079 C 231.712 76.749,231.217 77.339,231.282 77.390 C 231.347 77.441,232.750 77.985,234.400 78.598 C 243.241 81.887,248.841 85.711,252.670 91.078 C 256.620 96.612,255.538 99.213,249.533 98.621 C 248.030 98.473,246.800 98.443,246.800 98.555 C 246.800 98.668,247.155 100.614,247.589 102.880 C 248.826 109.343,250.658 120.490,251.447 126.345 C 251.843 129.284,252.354 131.741,252.584 131.805 C 252.813 131.869,254.800 132.400,257.000 132.985 C 261.635 134.218,267.355 136.457,268.503 137.487 C 270.827 139.574,267.306 154.473,261.776 165.945 C 258.680 172.369,258.709 171.742,261.337 175.304 C 274.687 193.399,290.619 220.047,296.908 234.800 C 301.796 246.266,302.253 248.907,302.575 267.600 C 302.721 276.070,303.008 288.940,303.214 296.200 C 303.815 317.455,303.748 326.607,302.970 329.200 C 301.152 335.261,296.425 339.155,288.324 341.267 C 283.739 342.463,247.411 342.906,243.126 341.819 C 239.195 340.821,235.424 337.885,233.967 334.686 L 233.515 333.696 226.258 333.528 C 213.023 333.222,208.007 328.696,207.994 317.046 C 207.986 310.440,208.726 311.000,200.000 311.000 C 191.303 311.000,192.014 310.494,192.006 316.685 C 191.991 328.970,186.540 333.600,172.094 333.600 C 166.783 333.600,166.439 333.647,166.197 334.410 C 165.650 336.133,161.668 339.860,159.113 341.040 L 156.600 342.200 138.400 342.325 C 114.455 342.489,109.682 341.904,103.769 338.075 C 96.554 333.404,95.767 330.354,96.371 309.408 C 96.600 301.484,96.986 285.190,97.230 273.200 L 97.673 251.400 98.788 247.000 C 102.586 231.999,115.180 208.937,135.812 179.200 C 141.738 170.659,142.446 139.758,137.590 101.600 C 136.269 91.214,135.951 92.145,143.267 84.970 C 150.860 77.523,156.639 73.214,164.974 68.783 C 178.860 61.401,204.593 55.962,215.814 58.036 M186.000 95.451 C 181.125 96.066,175.704 97.340,169.998 99.214 L 168.596 99.674 168.598 115.494 C 168.599 124.195,168.736 130.613,168.902 129.757 C 170.175 123.190,171.184 113.386,171.192 107.490 L 171.200 101.980 172.300 101.559 C 182.794 97.539,199.012 97.514,210.784 101.501 C 214.937 102.907,214.978 102.912,216.184 102.191 C 223.747 97.671,232.813 97.338,234.460 101.519 C 235.060 103.042,237.090 110.103,237.818 113.200 C 238.586 116.464,239.149 118.653,239.627 120.228 C 239.832 120.904,240.000 121.939,240.000 122.528 C 240.000 123.118,240.191 123.600,240.425 123.600 C 240.967 123.600,240.799 122.501,238.202 109.100 C 236.878 102.265,235.909 98.186,235.557 97.960 C 230.264 94.568,221.109 94.910,216.072 98.687 C 214.587 99.801,214.626 99.805,209.600 98.047 C 203.269 95.833,192.430 94.641,186.000 95.451 M223.229 118.254 C 221.522 120.424,222.981 124.800,225.412 124.800 C 225.918 124.800,225.790 124.525,224.893 123.687 C 223.364 122.259,222.972 120.519,223.757 118.641 C 224.473 116.927,224.346 116.834,223.229 118.254 M195.771 118.432 C 194.044 120.341,195.770 124.800,198.237 124.800 C 198.649 124.800,198.446 124.451,197.644 123.776 C 196.237 122.592,195.713 120.600,196.337 118.810 C 196.836 117.377,196.767 117.331,195.771 118.432 M210.800 139.642 C 208.270 139.823,201.070 140.462,194.800 141.062 C 187.021 141.807,180.890 142.161,175.499 142.177 L 167.599 142.200 167.423 143.400 C 167.154 145.231,165.589 158.159,165.595 158.500 C 165.605 159.101,166.400 158.782,166.400 158.177 C 166.400 157.605,167.897 152.674,169.550 147.800 L 170.229 145.800 178.214 145.543 C 182.606 145.401,187.730 145.098,189.600 144.868 C 193.880 144.342,199.602 143.664,204.000 143.161 C 220.326 141.295,238.257 141.622,249.800 143.997 C 250.900 144.224,252.401 144.523,253.135 144.662 C 255.031 145.023,255.142 146.513,253.784 153.400 C 253.312 155.792,255.007 151.558,256.159 147.467 C 257.454 142.866,257.704 143.370,253.528 142.154 C 245.323 139.765,225.457 138.597,210.800 139.642 " stroke="none" fill="#f2f3f3" fill-rule="evenodd"></path><path id="path2" d="M205.700 57.887 C 206.305 57.978,207.295 57.978,207.900 57.887 C 208.505 57.795,208.010 57.720,206.800 57.720 C 205.590 57.720,205.095 57.795,205.700 57.887 M211.900 57.882 C 212.395 57.978,213.205 57.978,213.700 57.882 C 214.195 57.787,213.790 57.709,212.800 57.709 C 211.810 57.709,211.405 57.787,211.900 57.882 M201.700 58.276 C 202.085 58.376,202.715 58.376,203.100 58.276 C 203.485 58.175,203.170 58.093,202.400 58.093 C 201.630 58.093,201.315 58.175,201.700 58.276 M216.411 66.385 C 215.700 66.834,216.801 67.425,217.687 67.069 C 218.000 66.943,217.918 66.851,217.476 66.832 C 217.078 66.814,216.864 66.620,217.000 66.400 C 217.304 65.907,217.171 65.904,216.411 66.385 M146.581 81.700 L 145.000 83.400 146.700 81.819 C 147.635 80.949,148.400 80.184,148.400 80.119 C 148.400 79.816,148.052 80.119,146.581 81.700 M249.400 87.600 C 250.483 88.700,251.460 89.600,251.570 89.600 C 251.680 89.600,250.883 88.700,249.800 87.600 C 248.717 86.500,247.740 85.600,247.630 85.600 C 247.520 85.600,248.317 86.500,249.400 87.600 M138.981 89.300 L 137.400 91.000 139.100 89.419 C 140.681 87.948,140.984 87.600,140.681 87.600 C 140.616 87.600,139.851 88.365,138.981 89.300 M136.928 94.400 C 136.928 95.830,137.001 96.415,137.089 95.700 C 137.178 94.985,137.178 93.815,137.089 93.100 C 137.001 92.385,136.928 92.970,136.928 94.400 M185.105 95.483 C 185.602 95.579,186.322 95.575,186.705 95.475 C 187.087 95.375,186.680 95.296,185.800 95.301 C 184.920 95.305,184.607 95.387,185.105 95.483 M198.100 95.476 C 198.485 95.576,199.115 95.576,199.500 95.476 C 199.885 95.375,199.570 95.293,198.800 95.293 C 198.030 95.293,197.715 95.375,198.100 95.476 M224.311 95.493 C 225.251 95.578,226.691 95.577,227.511 95.491 C 228.330 95.405,227.560 95.336,225.800 95.337 C 224.040 95.339,223.370 95.409,224.311 95.493 M254.500 96.900 C 254.070 98.075,254.080 98.126,254.612 97.424 C 255.121 96.752,255.421 95.600,255.088 95.600 C 255.026 95.600,254.761 96.185,254.500 96.900 M184.400 99.010 C 180.212 99.637,173.779 100.992,172.300 101.559 L 171.200 101.980 171.192 107.490 C 171.184 113.369,170.231 122.621,168.876 130.000 C 168.621 131.387,168.616 131.382,168.372 129.400 C 168.183 127.867,168.111 128.360,168.063 131.510 L 168.000 135.620 169.100 136.053 C 170.803 136.725,184.744 136.168,196.200 134.971 C 207.572 133.783,230.403 133.210,238.000 133.921 C 243.067 134.395,242.637 134.800,242.057 130.098 C 241.235 123.430,241.190 123.229,240.569 123.467 C 240.161 123.624,240.000 123.370,240.000 122.571 C 240.000 121.958,239.832 120.904,239.627 120.228 C 239.149 118.653,238.586 116.464,237.818 113.200 C 237.090 110.103,235.060 103.042,234.460 101.519 C 232.813 97.338,223.747 97.671,216.184 102.191 C 214.978 102.912,214.937 102.907,210.784 101.501 C 201.874 98.484,193.314 97.676,184.400 99.010 M250.105 98.687 C 250.714 98.779,251.614 98.777,252.105 98.682 C 252.597 98.587,252.100 98.511,251.000 98.514 C 249.900 98.517,249.497 98.595,250.105 98.687 M168.124 102.200 C 168.126 103.520,168.201 104.012,168.290 103.293 C 168.379 102.574,168.377 101.494,168.286 100.893 C 168.195 100.292,168.122 100.880,168.124 102.200 M138.093 105.200 C 138.093 105.970,138.175 106.285,138.276 105.900 C 138.376 105.515,138.376 104.885,138.276 104.500 C 138.175 104.115,138.093 104.430,138.093 105.200 M168.571 116.000 C 168.571 120.950,168.628 122.975,168.699 120.500 C 168.769 118.025,168.769 113.975,168.699 111.500 C 168.628 109.025,168.571 111.050,168.571 116.000 M138.901 112.200 C 138.905 113.080,138.987 113.393,139.083 112.895 C 139.179 112.398,139.175 111.678,139.075 111.295 C 138.975 110.913,138.896 111.320,138.901 112.200 M201.874 113.625 C 207.036 115.576,208.283 122.614,204.150 126.475 C 200.066 130.290,193.052 128.194,191.578 122.718 C 189.983 116.795,196.059 111.429,201.874 113.625 M230.037 114.019 C 234.942 116.521,235.327 124.052,230.705 127.110 C 225.546 130.524,218.800 126.948,218.800 120.800 C 218.800 114.956,224.789 111.342,230.037 114.019 M195.970 117.888 C 195.436 118.486,195.315 118.734,195.700 118.439 C 196.272 118.000,196.400 117.998,196.400 118.427 C 196.400 118.747,196.630 118.649,196.987 118.176 C 198.246 116.512,197.408 116.274,195.970 117.888 M223.270 117.726 C 222.791 118.235,222.400 118.809,222.400 119.002 C 222.400 119.195,222.655 119.004,222.968 118.576 C 223.280 118.149,223.760 117.800,224.034 117.800 C 224.309 117.800,224.608 117.575,224.700 117.300 C 224.967 116.498,224.212 116.722,223.270 117.726 M139.701 121.000 C 139.705 121.880,139.787 122.193,139.883 121.695 C 139.979 121.198,139.975 120.478,139.875 120.095 C 139.775 119.713,139.696 120.120,139.701 121.000 M222.093 120.800 C 222.093 121.570,222.175 121.885,222.276 121.500 C 222.376 121.115,222.376 120.485,222.276 120.100 C 222.175 119.715,222.093 120.030,222.093 120.800 M196.400 122.320 C 196.400 122.545,196.930 123.175,197.578 123.720 C 198.226 124.265,198.646 124.821,198.511 124.956 C 198.377 125.090,198.612 125.194,199.033 125.187 C 199.715 125.175,199.689 125.084,198.800 124.367 C 198.250 123.924,197.485 123.190,197.100 122.736 C 196.715 122.283,196.400 122.095,196.400 122.320 M196.088 123.813 C 196.686 124.443,197.247 124.877,197.335 124.779 C 197.423 124.680,196.933 124.165,196.247 123.634 L 195.000 122.669 196.088 123.813 M225.733 124.638 C 225.733 124.947,225.973 125.200,226.267 125.200 C 226.560 125.200,226.800 125.039,226.800 124.843 C 226.800 124.646,226.560 124.393,226.267 124.281 C 225.973 124.168,225.733 124.329,225.733 124.638 M140.101 127.400 C 140.105 128.280,140.187 128.593,140.283 128.095 C 140.379 127.598,140.375 126.878,140.275 126.495 C 140.175 126.113,140.096 126.520,140.101 127.400 M140.524 133.000 C 140.526 134.320,140.601 134.812,140.690 134.093 C 140.779 133.374,140.777 132.294,140.686 131.693 C 140.595 131.092,140.522 131.680,140.524 133.000 M268.924 140.200 C 268.926 141.520,269.001 142.012,269.090 141.293 C 269.179 140.574,269.177 139.494,269.086 138.893 C 268.995 138.292,268.922 138.880,268.924 140.200 M211.500 139.489 C 212.215 139.578,213.385 139.578,214.100 139.489 C 214.815 139.401,214.230 139.328,212.800 139.328 C 211.370 139.328,210.785 139.401,211.500 139.489 M232.291 139.489 C 233.001 139.577,234.261 139.579,235.091 139.492 C 235.921 139.405,235.340 139.333,233.800 139.331 C 232.260 139.329,231.581 139.400,232.291 139.489 M206.900 139.876 C 207.285 139.976,207.915 139.976,208.300 139.876 C 208.685 139.775,208.370 139.693,207.600 139.693 C 206.830 139.693,206.515 139.775,206.900 139.876 M238.100 139.876 C 238.485 139.976,239.115 139.976,239.500 139.876 C 239.885 139.775,239.570 139.693,238.800 139.693 C 238.030 139.693,237.715 139.775,238.100 139.876 M201.505 140.283 C 202.002 140.379,202.722 140.375,203.105 140.275 C 203.487 140.175,203.080 140.096,202.200 140.101 C 201.320 140.105,201.007 140.187,201.505 140.283 M243.105 140.283 C 243.602 140.379,244.322 140.375,244.705 140.275 C 245.087 140.175,244.680 140.096,243.800 140.101 C 242.920 140.105,242.607 140.187,243.105 140.283 M140.964 147.000 C 140.963 150.740,141.023 152.324,141.097 150.520 C 141.171 148.715,141.172 145.655,141.098 143.720 C 141.025 141.784,140.964 143.260,140.964 147.000 M192.705 141.083 C 193.202 141.179,193.922 141.175,194.305 141.075 C 194.687 140.975,194.280 140.896,193.400 140.901 C 192.520 140.905,192.207 140.987,192.705 141.083 M167.338 142.217 C 167.208 142.557,167.213 142.947,167.351 143.084 C 167.488 143.221,167.600 143.046,167.600 142.694 C 167.600 142.343,168.005 141.978,168.500 141.882 L 169.400 141.709 168.487 141.654 C 167.986 141.625,167.468 141.878,167.338 142.217 M183.305 141.887 C 183.914 141.979,184.814 141.977,185.305 141.882 C 185.797 141.787,185.300 141.711,184.200 141.714 C 183.100 141.717,182.697 141.795,183.305 141.887 M222.800 141.891 C 217.967 142.023,207.955 142.702,203.800 143.180 C 199.550 143.668,193.781 144.354,189.600 144.868 C 187.730 145.098,182.606 145.401,178.214 145.543 L 170.229 145.800 169.550 147.800 C 167.897 152.674,166.400 157.605,166.400 158.177 C 166.400 158.921,165.739 159.010,165.495 158.300 C 165.400 158.025,165.189 159.240,165.026 161.000 C 164.864 162.760,164.476 165.550,164.165 167.200 C 163.485 170.810,163.473 171.200,164.038 171.200 C 164.279 171.200,164.954 171.536,165.538 171.947 C 177.216 180.164,200.855 185.188,215.600 182.585 C 229.971 180.049,244.283 173.103,247.988 166.867 C 249.656 164.059,255.224 152.327,255.168 151.739 C 255.150 151.553,254.779 152.120,254.343 153.000 C 253.639 154.423,253.577 154.467,253.786 153.400 C 255.141 146.476,255.032 145.023,253.135 144.662 C 252.401 144.523,250.903 144.224,249.807 143.999 C 245.240 143.060,239.844 142.440,234.200 142.204 C 230.900 142.066,227.840 141.916,227.400 141.871 C 226.960 141.825,224.890 141.835,222.800 141.891 M178.300 142.282 C 178.795 142.378,179.605 142.378,180.100 142.282 C 180.595 142.187,180.190 142.109,179.200 142.109 C 178.210 142.109,177.805 142.187,178.300 142.282 M166.493 149.200 C 166.493 149.970,166.575 150.285,166.676 149.900 C 166.776 149.515,166.776 148.885,166.676 148.500 C 166.575 148.115,166.493 148.430,166.493 149.200 M140.501 159.000 C 140.505 159.880,140.587 160.193,140.683 159.695 C 140.779 159.198,140.775 158.478,140.675 158.095 C 140.575 157.713,140.496 158.120,140.501 159.000 M263.200 178.400 C 263.670 179.060,264.144 179.600,264.254 179.600 C 264.364 179.600,264.070 179.060,263.600 178.400 C 263.130 177.740,262.656 177.200,262.546 177.200 C 262.436 177.200,262.730 177.740,263.200 178.400 M253.744 183.399 C 253.871 183.729,255.268 186.114,256.850 188.699 C 271.377 212.448,276.333 221.614,280.696 232.800 C 287.426 250.054,287.400 249.830,287.400 291.421 L 287.400 326.241 285.900 329.276 C 284.026 333.068,283.981 332.901,286.640 331.986 C 289.446 331.021,291.276 329.900,292.583 328.347 L 293.600 327.139 293.600 290.014 L 293.600 252.889 292.587 249.394 C 290.253 241.339,284.185 229.075,274.878 213.600 C 267.079 200.633,252.197 179.366,253.744 183.399 M128.553 189.700 C 127.176 192.036,127.086 192.235,127.787 191.400 C 128.600 190.432,129.300 189.200,129.038 189.200 C 128.933 189.200,128.715 189.425,128.553 189.700 M136.665 194.700 C 126.953 206.786,111.409 235.714,107.112 249.700 C 106.083 253.047,105.420 323.180,106.386 326.477 C 106.954 328.417,109.390 330.471,112.691 331.792 C 115.891 333.073,115.917 333.049,114.447 330.148 C 112.312 325.937,112.351 326.764,112.502 288.800 C 112.640 253.904,112.654 253.344,113.531 249.488 C 116.718 235.478,123.370 220.020,133.967 202.000 C 140.347 191.150,141.054 189.237,136.665 194.700 M191.403 216.439 C 170.208 217.868,155.420 224.422,150.364 234.627 L 149.162 237.055 149.281 251.427 L 149.400 265.800 150.939 268.508 C 161.079 286.351,192.394 294.383,223.600 287.146 C 236.352 284.189,248.257 276.798,250.074 270.710 C 251.120 267.209,250.789 239.127,249.666 236.000 C 244.409 221.367,223.321 214.287,191.403 216.439 M97.369 271.600 C 97.369 276.110,97.427 277.955,97.498 275.700 C 97.570 273.445,97.570 269.755,97.498 267.500 C 97.427 265.245,97.369 267.090,97.369 271.600 M302.563 276.800 C 302.563 280.430,302.623 281.915,302.698 280.100 C 302.772 278.285,302.772 275.315,302.698 273.500 C 302.623 271.685,302.563 273.170,302.563 276.800 M96.946 288.600 C 96.947 290.800,97.014 291.649,97.095 290.487 C 97.176 289.324,97.176 287.524,97.093 286.487 C 97.011 285.449,96.945 286.400,96.946 288.600 M302.946 291.800 C 302.947 294.000,303.014 294.849,303.095 293.687 C 303.176 292.524,303.176 290.724,303.093 289.687 C 303.011 288.649,302.945 289.600,302.946 291.800 M96.559 306.800 C 96.559 309.990,96.621 311.295,96.697 309.700 C 96.773 308.105,96.773 305.495,96.697 303.900 C 96.621 302.305,96.559 303.610,96.559 306.800 M303.358 309.400 C 303.358 312.480,303.421 313.687,303.497 312.082 C 303.573 310.478,303.573 307.958,303.496 306.482 C 303.419 305.007,303.357 306.320,303.358 309.400 M193.700 311.076 C 194.085 311.176,194.715 311.176,195.100 311.076 C 195.485 310.975,195.170 310.893,194.400 310.893 C 193.630 310.893,193.315 310.975,193.700 311.076 M204.500 311.076 C 204.885 311.176,205.515 311.176,205.900 311.076 C 206.285 310.975,205.970 310.893,205.200 310.893 C 204.430 310.893,204.115 310.975,204.500 311.076 M96.151 320.800 C 96.151 323.330,96.216 324.365,96.296 323.100 C 96.375 321.835,96.375 319.765,96.296 318.500 C 96.216 317.235,96.151 318.270,96.151 320.800 M212.200 329.200 C 213.059 330.080,213.852 330.800,213.962 330.800 C 214.072 330.800,213.459 330.080,212.600 329.200 C 211.741 328.320,210.948 327.600,210.838 327.600 C 210.728 327.600,211.341 328.320,212.200 329.200 M187.178 329.500 L 185.800 331.000 187.300 329.622 C 188.696 328.338,188.984 328.000,188.678 328.000 C 188.612 328.000,187.937 328.675,187.178 329.500 M169.519 333.498 C 171.344 333.572,174.224 333.572,175.919 333.497 C 177.614 333.422,176.120 333.361,172.600 333.362 C 169.080 333.362,167.694 333.424,169.519 333.498 M224.319 333.498 C 226.144 333.572,229.024 333.572,230.719 333.497 C 232.414 333.422,230.920 333.361,227.400 333.362 C 223.880 333.362,222.494 333.424,224.319 333.498 M100.600 335.600 C 101.459 336.480,102.252 337.200,102.362 337.200 C 102.472 337.200,101.859 336.480,101.000 335.600 C 100.141 334.720,99.348 334.000,99.238 334.000 C 99.128 334.000,99.741 334.720,100.600 335.600 M127.328 342.300 C 132.568 342.363,141.028 342.363,146.128 342.300 C 151.227 342.236,146.940 342.185,136.600 342.185 C 126.260 342.185,122.087 342.237,127.328 342.300 M254.128 342.300 C 259.368 342.363,267.828 342.363,272.928 342.300 C 278.027 342.236,273.740 342.185,263.400 342.185 C 253.060 342.185,248.887 342.237,254.128 342.300 " stroke="none" fill="#e4cbac" fill-rule="evenodd"></path><path id="path3" d="M209.300 57.876 C 209.685 57.976,210.315 57.976,210.700 57.876 C 211.085 57.775,210.770 57.693,210.000 57.693 C 209.230 57.693,208.915 57.775,209.300 57.876 M142.778 85.500 L 141.400 87.000 142.900 85.622 C 143.725 84.863,144.400 84.188,144.400 84.122 C 144.400 83.816,144.062 84.104,142.778 85.500 M190.115 95.096 C 191.388 95.176,193.368 95.175,194.515 95.094 C 195.662 95.014,194.620 94.949,192.200 94.950 C 189.780 94.951,188.842 95.016,190.115 95.096 M168.124 106.600 C 168.126 107.920,168.201 108.412,168.290 107.693 C 168.379 106.974,168.377 105.894,168.286 105.293 C 168.195 104.692,168.122 105.280,168.124 106.600 M201.633 113.721 C 201.725 113.788,202.340 114.158,203.000 114.545 L 204.200 115.247 203.256 114.424 C 202.736 113.971,202.121 113.600,201.889 113.600 C 201.657 113.600,201.542 113.654,201.633 113.721 M229.210 113.726 C 229.809 114.374,232.495 115.997,232.018 115.422 C 231.710 115.051,230.905 114.466,230.229 114.123 C 229.553 113.779,229.095 113.601,229.210 113.726 M221.451 114.831 C 220.870 115.288,220.204 116.053,219.971 116.531 C 219.591 117.309,219.627 117.300,220.317 116.444 C 220.741 115.918,221.518 115.157,222.044 114.753 C 222.570 114.349,222.889 114.014,222.754 114.009 C 222.619 114.004,222.032 114.374,221.451 114.831 M193.241 115.814 C 192.559 116.592,192.000 117.348,192.000 117.494 C 192.000 117.640,192.136 117.589,192.303 117.380 C 192.470 117.171,193.133 116.415,193.778 115.700 C 194.422 114.985,194.845 114.400,194.716 114.400 C 194.588 114.400,193.924 115.036,193.241 115.814 M206.509 120.800 C 206.509 121.790,206.587 122.195,206.682 121.700 C 206.778 121.205,206.778 120.395,206.682 119.900 C 206.587 119.405,206.509 119.810,206.509 120.800 M191.293 120.800 C 191.293 121.570,191.375 121.885,191.476 121.500 C 191.576 121.115,191.576 120.485,191.476 120.100 C 191.375 119.715,191.293 120.030,191.293 120.800 M168.124 125.400 C 168.126 126.720,168.201 127.212,168.290 126.493 C 168.379 125.774,168.377 124.694,168.286 124.093 C 168.195 123.492,168.122 124.080,168.124 125.400 M140.093 124.800 C 140.093 125.570,140.175 125.885,140.276 125.500 C 140.376 125.115,140.376 124.485,140.276 124.100 C 140.175 123.715,140.093 124.030,140.093 124.800 M192.314 124.600 C 192.541 125.040,193.238 125.849,193.863 126.399 L 195.000 127.397 193.803 125.999 C 191.907 123.782,191.880 123.758,192.314 124.600 M219.964 125.133 C 220.180 125.536,220.671 126.121,221.055 126.433 C 221.487 126.784,221.390 126.504,220.801 125.700 C 219.751 124.265,219.357 123.998,219.964 125.133 M204.562 125.657 C 204.143 126.129,203.260 126.848,202.600 127.256 C 201.940 127.663,201.632 127.998,201.915 127.999 C 202.415 128.000,206.040 124.830,205.562 124.810 C 205.431 124.805,204.981 125.186,204.562 125.657 M140.501 129.400 C 140.505 130.280,140.587 130.593,140.683 130.095 C 140.779 129.598,140.775 128.878,140.675 128.495 C 140.575 128.113,140.496 128.520,140.501 129.400 M197.907 128.290 C 198.626 128.379,199.706 128.377,200.307 128.286 C 200.908 128.195,200.320 128.122,199.000 128.124 C 197.680 128.126,197.188 128.201,197.907 128.290 M225.107 128.290 C 225.826 128.379,226.906 128.377,227.507 128.286 C 228.108 128.195,227.520 128.122,226.200 128.124 C 224.880 128.126,224.388 128.201,225.107 128.290 M242.093 130.000 C 242.093 130.770,242.175 131.085,242.276 130.700 C 242.376 130.315,242.376 129.685,242.276 129.300 C 242.175 128.915,242.093 129.230,242.093 130.000 M211.100 133.889 C 211.815 133.978,212.985 133.978,213.700 133.889 C 214.415 133.801,213.830 133.728,212.400 133.728 C 210.970 133.728,210.385 133.801,211.100 133.889 M233.107 133.890 C 233.826 133.979,234.906 133.977,235.507 133.886 C 236.108 133.795,235.520 133.722,234.200 133.724 C 232.880 133.726,232.388 133.801,233.107 133.890 M205.907 134.290 C 206.626 134.379,207.706 134.377,208.307 134.286 C 208.908 134.195,208.320 134.122,207.000 134.124 C 205.680 134.126,205.188 134.201,205.907 134.290 M238.505 134.287 C 239.114 134.379,240.014 134.377,240.505 134.282 C 240.997 134.187,240.500 134.111,239.400 134.114 C 238.300 134.117,237.897 134.195,238.505 134.287 M201.105 134.683 C 201.602 134.779,202.322 134.775,202.705 134.675 C 203.087 134.575,202.680 134.496,201.800 134.501 C 200.920 134.505,200.607 134.587,201.105 134.683 M196.905 135.087 C 197.514 135.179,198.414 135.177,198.905 135.082 C 199.397 134.987,198.900 134.911,197.800 134.914 C 196.700 134.917,196.297 134.995,196.905 135.087 M192.500 135.476 C 192.885 135.576,193.515 135.576,193.900 135.476 C 194.285 135.375,193.970 135.293,193.200 135.293 C 192.430 135.293,192.115 135.375,192.500 135.476 M188.300 135.882 C 188.795 135.978,189.605 135.978,190.100 135.882 C 190.595 135.787,190.190 135.709,189.200 135.709 C 188.210 135.709,187.805 135.787,188.300 135.882 M183.100 136.282 C 183.595 136.378,184.405 136.378,184.900 136.282 C 185.395 136.187,184.990 136.109,184.000 136.109 C 183.010 136.109,182.605 136.187,183.100 136.282 M172.918 136.698 C 174.633 136.773,177.333 136.772,178.918 136.697 C 180.503 136.621,179.100 136.559,175.800 136.560 C 172.500 136.561,171.203 136.622,172.918 136.698 M140.909 138.800 C 140.909 139.790,140.987 140.195,141.082 139.700 C 141.178 139.205,141.178 138.395,141.082 137.900 C 140.987 137.405,140.909 137.810,140.909 138.800 M221.116 139.097 C 222.499 139.175,224.659 139.174,225.916 139.095 C 227.172 139.016,226.040 138.952,223.400 138.953 C 220.760 138.953,219.732 139.018,221.116 139.097 M208.500 139.476 C 208.885 139.576,209.515 139.576,209.900 139.476 C 210.285 139.375,209.970 139.293,209.200 139.293 C 208.430 139.293,208.115 139.375,208.500 139.476 M180.500 141.876 C 180.885 141.976,181.515 141.976,181.900 141.876 C 182.285 141.775,181.970 141.693,181.200 141.693 C 180.430 141.693,180.115 141.775,180.500 141.876 M173.300 142.291 C 174.125 142.378,175.475 142.378,176.300 142.291 C 177.125 142.205,176.450 142.134,174.800 142.134 C 173.150 142.134,172.475 142.205,173.300 142.291 M141.324 147.000 C 141.326 148.320,141.401 148.812,141.490 148.093 C 141.579 147.374,141.577 146.294,141.486 145.693 C 141.395 145.092,141.322 145.680,141.324 147.000 M140.893 154.800 C 140.893 155.570,140.975 155.885,141.076 155.500 C 141.176 155.115,141.176 154.485,141.076 154.100 C 140.975 153.715,140.893 154.030,140.893 154.800 M252.672 157.419 C 251.732 159.389,251.864 159.724,252.847 157.862 C 253.293 157.016,253.587 156.254,253.501 156.167 C 253.414 156.081,253.041 156.644,252.672 157.419 M247.639 167.424 C 247.177 168.207,246.980 168.736,247.202 168.599 C 247.636 168.331,248.934 166.000,248.650 166.000 C 248.556 166.000,248.101 166.641,247.639 167.424 M243.200 171.620 C 227.620 182.404,207.726 185.897,188.355 181.251 C 180.528 179.374,169.982 175.074,165.538 171.947 C 164.954 171.536,164.292 171.200,164.066 171.200 C 163.840 171.200,163.576 170.795,163.479 170.300 C 163.377 169.784,163.310 169.997,163.320 170.800 C 163.337 172.074,162.644 176.428,162.163 178.067 C 161.525 180.241,169.746 185.973,177.860 189.012 C 189.933 193.534,209.105 193.962,221.200 189.979 C 227.596 187.873,235.286 182.887,239.846 177.888 C 241.501 176.075,246.998 169.131,246.698 169.234 C 246.644 169.252,245.070 170.326,243.200 171.620 M253.062 182.617 C 253.192 182.957,253.397 183.136,253.517 183.016 C 253.637 182.896,254.110 183.112,254.568 183.496 C 255.174 184.005,255.137 183.896,254.430 183.097 C 253.363 181.890,252.693 181.655,253.062 182.617 M256.175 185.732 C 256.791 186.539,257.376 187.200,257.475 187.200 C 257.753 187.200,256.021 184.860,255.509 184.544 C 255.259 184.389,255.559 184.924,256.175 185.732 M259.008 189.558 C 259.815 190.681,260.557 191.600,260.657 191.600 C 260.932 191.600,258.452 188.080,257.966 187.779 C 257.732 187.635,258.201 188.435,259.008 189.558 M259.149 193.000 C 259.365 193.440,259.834 194.160,260.193 194.600 L 260.844 195.400 260.451 194.600 C 260.235 194.160,259.766 193.440,259.407 193.000 L 258.756 192.200 259.149 193.000 M134.352 201.300 C 134.090 201.795,133.615 202.650,133.296 203.200 C 132.739 204.159,132.743 204.167,133.388 203.400 C 134.186 202.452,135.305 200.400,135.024 200.400 C 134.916 200.400,134.614 200.805,134.352 201.300 M127.200 214.000 C 126.751 214.880,126.474 215.600,126.584 215.600 C 126.694 215.600,127.151 214.880,127.600 214.000 C 128.049 213.120,128.326 212.400,128.216 212.400 C 128.106 212.400,127.649 213.120,127.200 214.000 M274.749 213.400 C 274.965 213.840,275.434 214.560,275.793 215.000 L 276.444 215.800 276.051 215.000 C 275.835 214.560,275.366 213.840,275.007 213.400 L 274.356 212.600 274.749 213.400 M272.400 215.600 C 272.849 216.480,273.306 217.200,273.416 217.200 C 273.526 217.200,273.249 216.480,272.800 215.600 C 272.351 214.720,271.894 214.000,271.784 214.000 C 271.674 214.000,271.951 214.720,272.400 215.600 M191.700 216.291 C 192.525 216.378,193.875 216.378,194.700 216.291 C 195.525 216.205,194.850 216.134,193.200 216.134 C 191.550 216.134,190.875 216.205,191.700 216.291 M207.300 216.291 C 208.125 216.378,209.475 216.378,210.300 216.291 C 211.125 216.205,210.450 216.134,208.800 216.134 C 207.150 216.134,206.475 216.205,207.300 216.291 M187.300 216.676 C 187.685 216.776,188.315 216.776,188.700 216.676 C 189.085 216.575,188.770 216.493,188.000 216.493 C 187.230 216.493,186.915 216.575,187.300 216.676 M213.105 216.683 C 213.602 216.779,214.322 216.775,214.705 216.675 C 215.087 216.575,214.680 216.496,213.800 216.501 C 212.920 216.505,212.607 216.587,213.105 216.683 M183.300 217.076 C 183.685 217.176,184.315 217.176,184.700 217.076 C 185.085 216.975,184.770 216.893,184.000 216.893 C 183.230 216.893,182.915 216.975,183.300 217.076 M217.300 217.076 C 217.685 217.176,218.315 217.176,218.700 217.076 C 219.085 216.975,218.770 216.893,218.000 216.893 C 217.230 216.893,216.915 216.975,217.300 217.076 M277.160 217.400 C 277.834 218.705,278.388 219.428,278.385 219.000 C 278.383 218.780,278.014 218.150,277.564 217.600 C 277.021 216.936,276.885 216.869,277.160 217.400 M173.800 218.800 C 172.781 219.238,173.832 219.238,175.200 218.800 C 176.004 218.543,176.043 218.477,175.400 218.468 C 174.960 218.462,174.240 218.611,173.800 218.800 M119.800 220.800 C 119.459 221.460,119.269 222.000,119.379 222.000 C 119.489 222.000,119.859 221.460,120.200 220.800 C 120.541 220.140,120.731 219.600,120.621 219.600 C 120.511 219.600,120.141 220.140,119.800 220.800 M123.072 222.219 C 122.132 224.189,122.264 224.524,123.247 222.662 C 123.693 221.816,123.987 221.054,123.901 220.967 C 123.814 220.881,123.441 221.444,123.072 222.219 M163.100 222.626 C 162.055 223.170,161.200 223.705,161.200 223.814 C 161.200 223.993,165.160 222.123,165.567 221.752 C 166.062 221.301,164.761 221.762,163.100 222.626 M235.633 221.749 C 236.045 222.117,238.400 223.200,238.400 223.021 C 238.400 222.790,236.182 221.600,235.753 221.600 C 235.596 221.600,235.542 221.667,235.633 221.749 M276.034 222.600 C 276.034 222.820,276.378 223.630,276.800 224.400 C 277.222 225.170,277.566 225.620,277.566 225.400 C 277.566 225.180,277.222 224.370,276.800 223.600 C 276.378 222.830,276.034 222.380,276.034 222.600 M239.800 223.865 C 240.822 224.833,243.333 226.471,242.727 225.774 C 242.357 225.348,241.457 224.659,240.727 224.243 C 239.997 223.827,239.580 223.657,239.800 223.865 M158.060 225.603 C 157.147 226.264,156.400 226.903,156.400 227.023 C 156.400 227.211,158.654 225.677,159.780 224.722 C 160.727 223.919,159.556 224.518,158.060 225.603 M115.379 229.242 C 114.373 231.245,113.614 232.948,113.693 233.026 C 113.771 233.104,114.681 231.466,115.715 229.384 C 116.749 227.303,117.508 225.600,117.401 225.600 C 117.295 225.600,116.385 227.239,115.379 229.242 M154.181 228.900 L 152.600 230.600 154.300 229.019 C 155.881 227.548,156.184 227.200,155.881 227.200 C 155.816 227.200,155.051 227.965,154.181 228.900 M151.923 231.500 C 151.218 232.321,150.690 233.200,150.901 233.200 C 150.983 233.200,151.449 232.660,151.937 232.000 C 152.901 230.696,152.892 230.372,151.923 231.500 M148.980 250.800 C 148.980 258.390,149.034 261.495,149.099 257.700 C 149.165 253.905,149.165 247.695,149.099 243.900 C 149.034 240.105,148.980 243.210,148.980 250.800 M250.493 240.400 C 250.493 241.170,250.575 241.485,250.676 241.100 C 250.776 240.715,250.776 240.085,250.676 239.700 C 250.575 239.315,250.493 239.630,250.493 240.400 M110.065 240.617 C 109.395 242.088,109.523 242.402,110.247 241.065 C 110.586 240.440,110.788 239.854,110.696 239.763 C 110.605 239.671,110.321 240.056,110.065 240.617 M290.028 242.200 C 290.028 242.420,290.286 243.050,290.600 243.600 C 290.914 244.150,291.172 244.420,291.172 244.200 C 291.172 243.980,290.914 243.350,290.600 242.800 C 290.286 242.250,290.028 241.980,290.028 242.200 M292.868 250.000 C 292.888 251.039,293.518 252.746,293.532 251.800 C 293.538 251.360,293.389 250.640,293.200 250.200 C 292.989 249.710,292.861 249.632,292.868 250.000 M293.792 290.000 C 293.792 310.350,293.840 318.675,293.900 308.500 C 293.959 298.325,293.959 281.675,293.900 271.500 C 293.840 261.325,293.792 269.650,293.792 290.000 M302.160 259.400 C 302.161 262.700,302.222 263.997,302.298 262.282 C 302.373 260.567,302.372 257.867,302.297 256.282 C 302.221 254.697,302.159 256.100,302.160 259.400 M112.520 258.000 C 112.520 259.210,112.595 259.705,112.687 259.100 C 112.778 258.495,112.778 257.505,112.687 256.900 C 112.595 256.295,112.520 256.790,112.520 258.000 M287.391 291.600 C 287.391 309.970,287.440 317.485,287.500 308.300 C 287.560 299.115,287.560 284.085,287.500 274.900 C 287.440 265.715,287.391 273.230,287.391 291.600 M141.854 268.100 C 140.423 276.360,139.703 291.906,140.301 301.627 C 140.759 309.071,140.756 309.064,150.287 320.843 C 154.835 326.463,156.512 329.455,156.563 332.036 C 156.605 334.187,157.282 334.058,158.262 331.713 C 160.070 327.387,157.429 321.449,149.760 312.600 C 145.964 308.219,144.628 305.732,144.017 301.904 C 143.523 298.812,142.667 267.977,143.017 265.900 C 143.165 265.024,143.109 264.400,142.882 264.400 C 142.669 264.400,142.206 266.065,141.854 268.100 M256.840 275.375 C 256.676 303.791,256.376 305.398,249.804 313.004 C 242.503 321.453,239.730 327.997,241.774 331.949 C 242.728 333.794,243.493 334.212,243.281 332.773 C 242.878 330.027,244.495 327.278,252.066 317.835 C 254.873 314.335,257.671 310.465,258.285 309.235 L 259.400 307.000 259.527 294.400 C 259.654 281.710,259.352 276.067,258.140 268.500 C 257.136 262.238,256.909 263.441,256.840 275.375 M149.455 266.800 C 151.061 283.349,159.500 292.873,177.400 298.341 C 204.378 306.580,238.978 297.964,247.036 281.000 C 248.395 278.141,250.205 272.072,249.816 271.682 C 249.697 271.564,249.600 271.673,249.600 271.925 C 249.600 272.703,243.932 278.212,241.400 279.895 C 224.263 291.285,188.087 293.056,168.000 283.489 C 159.753 279.560,151.034 271.052,149.464 265.400 C 149.342 264.960,149.338 265.590,149.455 266.800 M250.514 267.000 C 250.517 268.100,250.595 268.503,250.687 267.895 C 250.779 267.286,250.777 266.386,250.682 265.895 C 250.587 265.403,250.511 265.900,250.514 267.000 M97.346 283.400 C 97.347 285.600,97.414 286.449,97.495 285.287 C 97.576 284.124,97.576 282.324,97.493 281.287 C 97.411 280.249,97.345 281.200,97.346 283.400 M302.544 286.800 C 302.544 288.890,302.612 289.745,302.694 288.700 C 302.776 287.655,302.776 285.945,302.694 284.900 C 302.612 283.855,302.544 284.710,302.544 286.800 M96.940 295.600 C 96.940 297.470,97.009 298.235,97.093 297.300 C 97.177 296.365,97.177 294.835,97.093 293.900 C 97.009 292.965,96.940 293.730,96.940 295.600 M302.937 298.600 C 302.939 300.360,303.009 301.030,303.093 300.089 C 303.178 299.149,303.177 297.709,303.091 296.889 C 303.005 296.070,302.936 296.840,302.937 298.600 M180.382 316.362 C 180.370 321.711,180.206 324.245,179.800 325.385 C 179.111 327.320,179.255 327.516,180.688 326.587 C 183.906 324.501,184.482 322.733,184.322 315.444 L 184.200 309.887 182.300 309.406 L 180.400 308.924 180.382 316.362 M217.500 309.367 L 215.600 309.734 215.600 315.932 C 215.600 322.971,216.142 324.634,219.018 326.411 C 220.658 327.425,221.092 327.268,220.332 325.934 C 219.960 325.280,219.740 322.603,219.600 317.000 L 219.400 309.000 217.500 309.367 M196.305 311.083 C 196.802 311.179,197.522 311.175,197.905 311.075 C 198.287 310.975,197.880 310.896,197.000 310.901 C 196.120 310.905,195.807 310.987,196.305 311.083 M201.905 311.083 C 202.402 311.179,203.122 311.175,203.505 311.075 C 203.887 310.975,203.480 310.896,202.600 310.901 C 201.720 310.905,201.407 310.987,201.905 311.083 M96.546 316.200 C 96.547 318.400,96.614 319.249,96.695 318.087 C 96.776 316.924,96.776 315.124,96.693 314.087 C 96.611 313.049,96.545 314.000,96.546 316.200 M303.353 321.000 C 303.353 323.640,303.418 324.668,303.497 323.284 C 303.575 321.901,303.574 319.741,303.495 318.484 C 303.416 317.228,303.352 318.360,303.353 321.000 M286.629 326.629 C 286.481 327.215,286.438 327.772,286.532 327.866 C 286.627 327.960,286.824 327.558,286.971 326.971 C 287.119 326.385,287.162 325.828,287.068 325.734 C 286.973 325.640,286.776 326.042,286.629 326.629 M106.412 327.453 C 106.399 327.927,109.387 330.800,109.892 330.800 C 110.052 330.800,109.514 330.249,108.698 329.576 C 107.881 328.903,107.036 328.048,106.819 327.676 C 106.602 327.304,106.419 327.204,106.412 327.453 M291.400 329.468 C 290.520 330.257,290.160 330.716,290.600 330.488 C 291.341 330.104,293.551 327.979,293.170 328.017 C 293.076 328.026,292.280 328.679,291.400 329.468 M170.120 333.098 C 172.055 333.172,175.115 333.171,176.920 333.097 C 178.724 333.023,177.140 332.963,173.400 332.964 C 169.660 332.964,168.184 333.025,170.120 333.098 M223.320 333.098 C 225.255 333.172,228.315 333.171,230.120 333.097 C 231.924 333.023,230.340 332.963,226.600 332.964 C 222.860 332.964,221.384 333.025,223.320 333.098 M298.778 335.500 L 297.400 337.000 298.900 335.622 C 299.725 334.863,300.400 334.188,300.400 334.122 C 300.400 333.816,300.062 334.104,298.778 335.500 M116.900 341.876 C 117.285 341.976,117.915 341.976,118.300 341.876 C 118.685 341.775,118.370 341.693,117.600 341.693 C 116.830 341.693,116.515 341.775,116.900 341.876 M281.700 341.876 C 282.085 341.976,282.715 341.976,283.100 341.876 C 283.485 341.775,283.170 341.693,282.400 341.693 C 281.630 341.693,281.315 341.775,281.700 341.876 " stroke="none" fill="#c8a58c" fill-rule="evenodd"></path><path id="path4" d="M207.500 58.295 C 208.655 58.376,210.545 58.376,211.700 58.295 C 212.855 58.214,211.910 58.148,209.600 58.148 C 207.290 58.148,206.345 58.214,207.500 58.295 M199.600 58.800 C 197.601 59.221,199.652 59.238,202.000 58.820 C 203.624 58.532,203.663 58.500,202.400 58.503 C 201.630 58.504,200.370 58.638,199.600 58.800 M216.000 58.800 C 217.368 59.238,218.419 59.238,217.400 58.800 C 216.960 58.611,216.240 58.462,215.800 58.468 C 215.157 58.477,215.196 58.543,216.000 58.800 M194.800 59.600 C 193.456 60.031,194.908 60.031,196.600 59.600 C 197.678 59.326,197.698 59.294,196.800 59.287 C 196.250 59.283,195.350 59.424,194.800 59.600 M219.469 59.977 C 220.167 60.402,220.817 61.167,220.914 61.675 C 221.088 62.584,221.092 62.585,221.146 61.716 C 221.206 60.731,219.792 59.199,218.825 59.201 C 218.479 59.202,218.767 59.549,219.469 59.977 M190.800 60.400 C 190.008 60.654,189.967 60.720,190.600 60.720 C 191.040 60.720,191.850 60.576,192.400 60.400 C 193.192 60.146,193.233 60.080,192.600 60.080 C 192.160 60.080,191.350 60.224,190.800 60.400 M187.400 61.200 C 186.896 61.417,186.822 61.544,187.200 61.544 C 187.530 61.544,188.160 61.389,188.600 61.200 C 189.104 60.983,189.178 60.856,188.800 60.856 C 188.470 60.856,187.840 61.011,187.400 61.200 M184.200 62.000 C 183.696 62.217,183.622 62.344,184.000 62.344 C 184.330 62.344,184.960 62.189,185.400 62.000 C 185.904 61.783,185.978 61.656,185.600 61.656 C 185.270 61.656,184.640 61.811,184.200 62.000 M181.000 62.800 C 180.496 63.017,180.422 63.144,180.800 63.144 C 181.130 63.144,181.760 62.989,182.200 62.800 C 182.704 62.583,182.778 62.456,182.400 62.456 C 182.070 62.456,181.440 62.611,181.000 62.800 M219.962 63.446 C 219.668 63.801,218.475 64.628,217.313 65.284 C 214.364 66.948,214.513 67.340,218.249 67.750 L 220.200 67.964 218.400 67.543 C 215.331 66.826,215.329 66.823,217.418 65.627 C 219.165 64.628,221.293 62.800,220.711 62.800 C 220.594 62.800,220.257 63.091,219.962 63.446 M171.800 66.024 C 169.289 67.264,169.638 67.232,173.000 65.914 C 175.202 65.050,175.622 64.790,174.767 64.820 C 174.455 64.831,173.120 65.373,171.800 66.024 M165.900 68.629 C 164.349 69.470,164.525 69.761,166.100 68.959 C 167.608 68.193,167.875 67.994,167.367 68.016 C 167.165 68.025,166.505 68.301,165.900 68.629 M221.600 68.400 C 222.968 68.838,224.019 68.838,223.000 68.400 C 222.560 68.211,221.840 68.062,221.400 68.068 C 220.757 68.077,220.796 68.143,221.600 68.400 M225.000 69.200 C 225.440 69.389,226.070 69.544,226.400 69.544 C 226.778 69.544,226.704 69.417,226.200 69.200 C 225.760 69.011,225.130 68.856,224.800 68.856 C 224.422 68.856,224.496 68.983,225.000 69.200 M160.900 71.426 C 159.965 71.987,159.200 72.540,159.200 72.655 C 159.200 72.871,161.899 71.338,162.580 70.736 C 163.267 70.128,162.627 70.391,160.900 71.426 M230.488 71.221 C 233.018 72.557,233.452 74.224,231.700 75.875 C 230.742 76.778,230.718 76.850,231.520 76.431 C 234.186 75.039,232.513 70.293,229.400 70.419 C 229.180 70.428,229.669 70.789,230.488 71.221 M154.300 75.814 C 153.255 76.580,152.400 77.307,152.400 77.429 C 152.400 77.687,155.974 75.166,156.257 74.709 C 156.574 74.195,156.281 74.360,154.300 75.814 M230.000 77.344 C 230.000 77.964,231.475 78.658,231.897 78.237 C 232.027 78.106,231.936 78.000,231.695 78.000 C 231.454 78.000,230.974 77.717,230.629 77.371 C 230.081 76.824,230.000 76.820,230.000 77.344 M148.575 80.500 L 147.400 81.800 148.700 80.625 C 149.912 79.530,150.184 79.200,149.875 79.200 C 149.806 79.200,149.221 79.785,148.575 80.500 M238.138 80.847 C 238.984 81.293,239.768 81.565,239.881 81.452 C 240.076 81.257,237.380 79.980,236.851 80.018 C 236.713 80.027,237.292 80.400,238.138 80.847 M142.987 85.613 C 140.802 87.806,139.112 89.600,139.231 89.600 C 139.522 89.600,147.220 81.887,147.074 81.741 C 147.011 81.678,145.172 83.420,142.987 85.613 M242.000 82.552 C 242.000 82.646,242.788 83.186,243.750 83.750 C 244.713 84.314,246.648 85.719,248.050 86.873 C 249.453 88.027,250.241 88.554,249.802 88.045 C 248.362 86.376,242.000 81.896,242.000 82.552 M137.324 94.200 C 137.326 95.520,137.401 96.012,137.490 95.293 C 137.579 94.574,137.577 93.494,137.486 92.893 C 137.395 92.292,137.322 92.880,137.324 94.200 M186.200 94.763 C 185.100 94.893,187.800 95.000,192.200 95.000 C 196.600 95.000,199.300 94.881,198.200 94.735 C 195.800 94.417,188.983 94.433,186.200 94.763 M224.311 95.093 C 225.251 95.178,226.691 95.177,227.511 95.091 C 228.330 95.005,227.560 94.936,225.800 94.937 C 224.040 94.939,223.370 95.009,224.311 95.093 M180.600 95.600 C 179.530 95.872,179.508 95.905,180.400 95.905 C 180.950 95.905,181.940 95.768,182.600 95.600 C 183.670 95.328,183.692 95.295,182.800 95.295 C 182.250 95.295,181.260 95.432,180.600 95.600 M202.000 95.600 C 202.550 95.776,203.360 95.920,203.800 95.920 C 204.433 95.920,204.392 95.854,203.600 95.600 C 203.050 95.424,202.240 95.280,201.800 95.280 C 201.167 95.280,201.208 95.346,202.000 95.600 M230.200 95.600 C 231.396 96.114,232.395 96.114,231.600 95.600 C 231.270 95.387,230.640 95.222,230.200 95.234 L 229.400 95.256 230.200 95.600 M176.800 96.400 C 175.996 96.657,175.957 96.723,176.600 96.732 C 177.040 96.738,177.760 96.589,178.200 96.400 C 179.219 95.962,178.168 95.962,176.800 96.400 M205.800 96.400 C 206.240 96.589,206.870 96.744,207.200 96.744 C 207.578 96.744,207.504 96.617,207.000 96.400 C 206.560 96.211,205.930 96.056,205.600 96.056 C 205.222 96.056,205.296 96.183,205.800 96.400 M217.900 96.629 C 216.349 97.470,216.525 97.761,218.100 96.959 C 219.608 96.193,219.875 95.994,219.367 96.016 C 219.165 96.025,218.505 96.301,217.900 96.629 M232.800 96.195 C 232.800 96.302,233.475 96.668,234.300 97.008 C 235.125 97.348,236.046 97.935,236.346 98.313 C 236.752 98.823,236.846 98.846,236.715 98.400 C 236.467 97.559,232.800 95.493,232.800 96.195 M173.800 97.200 C 173.296 97.417,173.222 97.544,173.600 97.544 C 173.930 97.544,174.560 97.389,175.000 97.200 C 175.504 96.983,175.578 96.856,175.200 96.856 C 174.870 96.856,174.240 97.011,173.800 97.200 M253.400 97.450 C 252.783 97.931,251.959 98.028,249.800 97.873 C 248.111 97.752,247.318 97.805,247.800 98.008 C 249.690 98.801,254.400 98.179,254.400 97.136 C 254.400 96.696,254.343 96.714,253.400 97.450 M137.673 98.600 C 137.658 99.260,137.795 100.520,137.977 101.400 C 138.413 103.506,138.450 101.614,138.020 99.200 C 137.780 97.850,137.693 97.700,137.673 98.600 M215.400 98.238 C 214.891 98.627,214.164 98.768,213.400 98.625 C 212.529 98.463,212.365 98.509,212.800 98.794 C 213.764 99.427,215.020 99.261,215.800 98.400 C 216.658 97.452,216.507 97.391,215.400 98.238 M167.765 99.748 C 167.649 100.049,167.613 101.264,167.684 102.448 L 167.813 104.600 168.007 101.899 C 168.201 99.181,168.152 98.739,167.765 99.748 M236.887 100.000 C 236.883 100.550,237.024 101.450,237.200 102.000 C 237.631 103.344,237.631 101.892,237.200 100.200 C 236.926 99.122,236.894 99.102,236.887 100.000 M246.480 100.600 C 246.480 101.040,246.624 101.850,246.800 102.400 C 247.054 103.192,247.120 103.233,247.120 102.600 C 247.120 102.160,246.976 101.350,246.800 100.800 C 246.546 100.008,246.480 99.967,246.480 100.600 M237.680 104.200 C 237.680 104.640,237.824 105.450,238.000 106.000 C 238.254 106.792,238.320 106.833,238.320 106.200 C 238.320 105.760,238.176 104.950,238.000 104.400 C 237.746 103.608,237.680 103.567,237.680 104.200 M138.480 105.000 C 138.468 105.660,138.603 107.010,138.780 108.000 C 139.016 109.328,139.105 109.485,139.120 108.600 C 139.132 107.940,138.997 106.590,138.820 105.600 C 138.584 104.272,138.495 104.115,138.480 105.000 M247.280 104.800 C 247.280 105.350,247.424 106.250,247.600 106.800 L 247.920 107.800 247.920 106.800 C 247.920 106.250,247.776 105.350,247.600 104.800 L 247.280 103.800 247.280 104.800 M238.468 108.400 C 238.462 108.950,238.611 109.760,238.800 110.200 L 239.144 111.000 239.132 110.200 C 239.126 109.760,238.976 108.950,238.800 108.400 L 238.480 107.400 238.468 108.400 M248.095 109.200 C 248.095 109.750,248.232 110.740,248.400 111.400 C 248.672 112.470,248.705 112.492,248.705 111.600 C 248.705 111.050,248.568 110.060,248.400 109.400 C 248.128 108.330,248.095 108.308,248.095 109.200 M168.166 116.000 C 168.166 120.070,168.225 121.735,168.298 119.700 C 168.371 117.665,168.371 114.335,168.298 112.300 C 168.225 110.265,168.166 111.930,168.166 116.000 M139.288 112.200 C 139.278 113.080,139.410 114.700,139.582 115.800 C 139.884 117.739,139.894 117.751,139.912 116.200 C 139.922 115.320,139.790 113.700,139.618 112.600 C 139.316 110.661,139.306 110.649,139.288 112.200 M239.287 112.400 C 239.283 112.950,239.424 113.850,239.600 114.400 C 240.031 115.744,240.031 114.292,239.600 112.600 C 239.326 111.522,239.294 111.502,239.287 112.400 M248.887 114.000 C 248.891 114.550,249.032 115.540,249.200 116.200 L 249.505 117.400 249.513 116.200 C 249.517 115.540,249.376 114.550,249.200 114.000 L 248.880 113.000 248.887 114.000 M195.346 114.367 C 189.786 117.758,191.362 128.194,197.400 127.967 C 197.982 127.945,197.873 127.821,197.000 127.511 C 194.992 126.799,193.710 125.679,192.834 123.871 C 190.923 119.923,192.768 115.589,197.000 114.089 C 197.873 113.779,197.982 113.655,197.400 113.633 C 196.960 113.617,196.036 113.947,195.346 114.367 M201.400 114.197 C 207.383 116.298,207.488 124.990,201.558 127.278 C 200.591 127.651,200.124 127.966,200.520 127.978 C 202.085 128.026,204.858 125.855,205.951 123.726 C 207.832 120.066,204.336 113.528,200.546 113.618 C 200.135 113.627,200.520 113.888,201.400 114.197 M222.334 114.587 C 220.712 115.689,219.179 117.900,219.241 119.047 C 219.265 119.493,219.454 119.260,219.706 118.475 C 220.250 116.776,222.376 114.650,224.075 114.106 C 224.966 113.821,225.135 113.668,224.593 113.641 C 224.149 113.618,223.132 114.044,222.334 114.587 M228.200 114.000 C 229.301 114.473,229.692 114.473,229.400 114.000 C 229.264 113.780,228.758 113.613,228.276 113.628 C 227.431 113.655,227.429 113.669,228.200 114.000 M231.178 115.723 C 231.937 116.535,232.634 117.200,232.727 117.200 C 233.146 117.200,231.645 115.398,230.771 114.852 C 230.030 114.390,230.127 114.596,231.178 115.723 M196.500 116.796 C 195.785 117.232,195.200 117.675,195.200 117.781 C 195.200 117.886,195.830 117.601,196.600 117.147 C 197.989 116.327,198.551 116.645,197.400 117.600 C 197.070 117.874,196.800 118.250,196.800 118.435 C 196.800 118.621,197.340 118.245,198.000 117.600 C 199.863 115.779,198.961 115.295,196.500 116.796 M224.200 116.486 C 219.695 119.088,221.356 125.600,226.525 125.600 C 227.860 125.600,229.064 124.797,228.530 124.263 C 228.385 124.118,227.812 124.000,227.257 124.000 C 226.283 124.000,226.275 124.021,227.024 124.587 C 227.750 125.137,227.701 125.175,226.260 125.187 C 222.690 125.217,220.702 120.804,223.036 118.031 C 224.067 116.805,225.200 116.395,225.200 117.249 C 225.200 117.559,225.385 117.544,225.800 117.200 C 227.118 116.106,225.843 115.537,224.200 116.486 M240.068 116.800 C 240.062 117.350,240.211 118.160,240.400 118.600 L 240.744 119.400 240.732 118.600 C 240.726 118.160,240.576 117.350,240.400 116.800 L 240.080 115.800 240.068 116.800 M233.040 118.666 C 233.408 120.199,233.600 120.344,233.600 119.090 C 233.600 118.517,233.413 117.932,233.184 117.790 C 232.911 117.621,232.862 117.923,233.040 118.666 M249.670 118.600 C 249.657 119.040,249.795 120.120,249.977 121.000 C 250.255 122.345,250.308 122.409,250.307 121.400 C 250.305 119.999,249.708 117.370,249.670 118.600 M140.108 121.000 C 140.100 122.100,140.225 124.170,140.386 125.600 C 140.662 128.055,140.679 128.089,140.692 126.200 C 140.700 125.100,140.575 123.030,140.414 121.600 C 140.138 119.145,140.121 119.111,140.108 121.000 M196.493 120.400 C 196.493 121.170,196.575 121.485,196.676 121.100 C 196.776 120.715,196.776 120.085,196.676 119.700 C 196.575 119.315,196.493 119.630,196.493 120.400 M240.880 121.200 C 240.880 121.750,241.024 122.650,241.200 123.200 L 241.520 124.200 241.520 123.200 C 241.520 122.650,241.376 121.750,241.200 121.200 L 240.880 120.200 240.880 121.200 M233.101 122.694 C 232.725 124.440,230.555 126.708,228.600 127.399 C 227.720 127.710,227.322 127.973,227.716 127.982 C 230.034 128.039,233.826 124.303,233.514 122.270 C 233.407 121.577,233.324 121.663,233.101 122.694 M196.800 122.275 C 196.800 122.720,198.335 124.224,198.524 123.964 C 198.590 123.874,198.229 123.366,197.722 122.837 C 197.215 122.307,196.800 122.054,196.800 122.275 M219.232 122.607 C 219.191 123.649,220.957 126.247,222.108 126.839 C 222.749 127.169,222.592 126.863,221.548 125.749 C 220.750 124.897,219.909 123.660,219.680 123.000 C 219.374 122.119,219.255 122.015,219.232 122.607 M250.469 124.000 C 250.456 124.550,250.595 125.720,250.777 126.600 C 250.989 127.626,251.116 127.841,251.131 127.200 C 251.144 126.650,251.005 125.480,250.823 124.600 C 250.611 123.574,250.484 123.359,250.469 124.000 M195.524 124.109 C 196.290 125.032,198.153 125.672,199.653 125.529 C 201.266 125.375,201.542 124.248,200.000 124.110 C 199.450 124.061,199.225 124.121,199.500 124.244 C 200.386 124.639,200.033 125.200,198.900 125.199 C 198.295 125.198,197.175 124.816,196.411 124.350 C 195.565 123.835,195.218 123.740,195.524 124.109 M241.695 125.600 C 241.695 126.150,241.832 127.140,242.000 127.800 C 242.272 128.870,242.305 128.892,242.305 128.000 C 242.305 127.450,242.168 126.460,242.000 125.800 C 241.728 124.730,241.695 124.708,241.695 125.600 M223.390 127.584 C 223.532 127.813,224.117 128.000,224.690 128.000 C 225.944 128.000,225.799 127.808,224.266 127.440 C 223.523 127.262,223.221 127.311,223.390 127.584 M167.593 131.532 C 167.377 136.158,167.569 136.817,169.120 136.760 L 170.200 136.720 169.200 136.443 C 168.228 136.174,168.194 136.042,167.993 131.783 L 167.787 127.400 167.593 131.532 M251.232 130.277 C 251.199 131.609,252.356 132.832,253.589 132.768 C 253.925 132.751,253.705 132.556,253.099 132.335 C 252.394 132.077,251.914 131.550,251.764 130.866 C 251.369 129.065,251.264 128.950,251.232 130.277 M242.584 131.881 L 242.721 134.362 240.460 134.483 L 238.200 134.603 240.338 134.802 C 243.294 135.076,243.404 134.952,242.885 131.939 L 242.447 129.400 242.584 131.881 M140.916 133.200 C 140.908 134.850,141.028 138.180,141.183 140.600 L 141.464 145.000 141.487 141.400 C 141.500 139.420,141.380 136.090,141.220 134.000 L 140.929 130.200 140.916 133.200 M255.200 133.200 C 256.568 133.638,257.619 133.638,256.600 133.200 C 256.160 133.011,255.440 132.862,255.000 132.868 C 254.357 132.877,254.396 132.943,255.200 133.200 M212.000 133.972 C 210.350 134.097,215.480 134.201,223.400 134.203 C 231.320 134.204,236.270 134.087,234.400 133.943 C 230.364 133.630,216.256 133.649,212.000 133.972 M258.200 134.000 C 258.640 134.189,259.270 134.344,259.600 134.344 C 259.978 134.344,259.904 134.217,259.400 134.000 C 258.960 133.811,258.330 133.656,258.000 133.656 C 257.622 133.656,257.696 133.783,258.200 134.000 M201.400 134.800 L 199.400 135.074 201.600 135.094 C 202.810 135.104,204.880 134.979,206.200 134.815 L 208.600 134.518 206.000 134.522 C 204.570 134.524,202.500 134.649,201.400 134.800 M192.600 135.600 L 190.600 135.874 192.800 135.898 C 194.010 135.910,195.990 135.784,197.200 135.617 L 199.400 135.313 197.000 135.319 C 195.680 135.323,193.700 135.449,192.600 135.600 M263.960 136.016 C 264.927 136.455,265.802 136.732,265.903 136.631 C 266.116 136.417,263.322 135.196,262.651 135.209 C 262.403 135.214,262.992 135.577,263.960 136.016 M183.600 136.400 L 181.400 136.670 183.800 136.695 C 185.120 136.709,187.190 136.584,188.400 136.417 L 190.600 136.113 188.200 136.122 C 186.880 136.126,184.810 136.252,183.600 136.400 M172.917 137.097 C 174.411 137.174,176.751 137.174,178.117 137.096 C 179.482 137.018,178.260 136.955,175.400 136.955 C 172.540 136.956,171.422 137.020,172.917 137.097 M268.166 141.543 C 268.146 143.875,268.246 144.925,268.419 144.200 C 268.811 142.556,268.869 138.089,268.500 137.867 C 268.335 137.767,268.185 139.422,268.166 141.543 M214.000 138.777 C 211.910 138.899,216.140 139.000,223.400 139.000 C 231.171 139.000,234.873 138.897,232.400 138.749 C 227.432 138.452,219.311 138.464,214.000 138.777 M202.600 139.600 L 200.600 139.874 202.400 139.902 C 203.390 139.917,205.100 139.790,206.200 139.618 L 208.200 139.307 206.400 139.316 C 205.410 139.321,203.700 139.449,202.600 139.600 M240.200 139.618 C 241.300 139.790,242.920 139.922,243.800 139.912 C 245.351 139.894,245.339 139.884,243.400 139.582 C 242.300 139.410,240.680 139.278,239.800 139.288 C 238.249 139.306,238.261 139.316,240.200 139.618 M193.800 140.400 L 191.800 140.674 193.600 140.702 C 194.590 140.717,196.300 140.590,197.400 140.418 L 199.400 140.107 197.600 140.116 C 196.610 140.121,194.900 140.249,193.800 140.400 M247.400 140.400 C 249.092 140.831,250.544 140.831,249.200 140.400 C 248.650 140.224,247.750 140.083,247.200 140.087 C 246.302 140.094,246.322 140.126,247.400 140.400 M184.600 141.200 L 182.200 141.466 184.400 141.498 C 185.610 141.515,187.500 141.390,188.600 141.218 L 190.600 140.907 188.800 140.921 C 187.810 140.928,185.920 141.054,184.600 141.200 M251.400 141.200 C 251.840 141.389,252.470 141.544,252.800 141.544 C 253.178 141.544,253.104 141.417,252.600 141.200 C 252.160 141.011,251.530 140.856,251.200 140.856 C 250.822 140.856,250.896 140.983,251.400 141.200 M167.053 141.514 C 166.947 141.687,166.766 142.992,166.653 144.414 L 166.446 147.000 166.867 144.322 C 167.253 141.869,167.377 141.631,168.344 141.482 L 169.400 141.320 168.324 141.260 C 167.732 141.227,167.160 141.341,167.053 141.514 M172.700 141.896 C 174.075 141.974,176.325 141.974,177.700 141.896 C 179.075 141.818,177.950 141.754,175.200 141.754 C 172.450 141.754,171.325 141.818,172.700 141.896 M257.000 145.600 C 256.848 146.291,256.807 146.941,256.909 147.042 C 257.011 147.144,257.209 146.653,257.350 145.950 C 257.683 144.283,257.360 143.960,257.000 145.600 M267.422 147.822 C 267.272 148.625,267.228 149.362,267.326 149.460 C 267.424 149.557,267.627 148.981,267.778 148.178 C 267.928 147.375,267.972 146.638,267.874 146.540 C 267.776 146.443,267.573 147.019,267.422 147.822 M256.200 148.400 C 256.050 148.873,256.017 149.350,256.127 149.460 C 256.237 149.570,256.450 149.273,256.600 148.800 C 256.750 148.327,256.783 147.850,256.673 147.740 C 256.563 147.630,256.350 147.927,256.200 148.400 M165.829 150.829 C 165.676 152.179,165.633 153.366,165.733 153.467 C 165.834 153.567,166.044 152.547,166.200 151.200 C 166.356 149.853,166.399 148.666,166.295 148.562 C 166.191 148.458,165.981 149.478,165.829 150.829 M141.087 154.554 C 140.915 157.608,140.852 160.185,140.947 160.280 C 141.202 160.535,141.693 152.461,141.536 150.600 C 141.461 149.720,141.259 151.499,141.087 154.554 M266.650 151.250 C 266.317 152.917,266.640 153.240,267.000 151.600 C 267.152 150.909,267.193 150.259,267.091 150.158 C 266.989 150.056,266.791 150.547,266.650 151.250 M165.015 156.615 C 164.861 157.854,164.824 158.957,164.934 159.067 C 165.044 159.177,165.261 158.254,165.415 157.015 C 165.570 155.777,165.607 154.673,165.497 154.563 C 165.387 154.453,165.170 155.377,165.015 156.615 M251.490 160.690 C 250.465 162.819,249.708 164.641,249.807 164.740 C 249.906 164.839,250.812 163.165,251.821 161.021 C 252.830 158.876,253.587 157.053,253.503 156.970 C 253.420 156.887,252.514 158.561,251.490 160.690 M164.216 162.325 C 164.051 163.713,164.010 164.943,164.125 165.058 C 164.406 165.339,164.935 160.997,164.701 160.328 C 164.600 160.038,164.382 160.936,164.216 162.325 M140.215 164.215 C 140.061 165.454,140.017 166.550,140.119 166.652 C 140.220 166.754,140.430 165.823,140.585 164.585 C 140.739 163.346,140.783 162.250,140.681 162.148 C 140.580 162.046,140.370 162.977,140.215 164.215 M262.272 163.419 C 261.332 165.389,261.464 165.724,262.447 163.862 C 262.893 163.016,263.187 162.254,263.101 162.167 C 263.014 162.081,262.641 162.644,262.272 163.419 M248.578 166.442 C 246.434 170.588,239.227 178.962,234.646 182.628 C 217.960 195.985,185.369 196.341,166.963 183.368 C 163.722 181.083,161.934 179.027,162.194 177.882 C 163.036 174.176,163.456 171.340,163.268 170.634 C 163.023 169.715,161.678 175.674,161.629 177.899 C 161.592 179.572,163.397 181.609,167.304 184.301 C 184.897 196.423,214.850 196.786,232.400 185.089 C 237.865 181.446,250.720 166.587,249.479 165.346 C 249.358 165.225,248.953 165.718,248.578 166.442 M163.382 167.382 C 163.229 168.402,163.202 169.335,163.322 169.455 C 163.442 169.575,163.665 168.839,163.818 167.818 C 163.971 166.798,163.998 165.865,163.878 165.745 C 163.758 165.625,163.535 166.361,163.382 167.382 M139.418 169.418 C 139.265 170.439,139.222 171.355,139.322 171.455 C 139.422 171.555,139.629 170.802,139.782 169.782 C 139.935 168.761,139.978 167.845,139.878 167.745 C 139.778 167.645,139.571 168.398,139.418 169.418 M258.411 172.246 C 258.417 172.441,258.912 173.147,259.511 173.816 C 260.717 175.162,260.611 174.819,259.272 173.046 C 258.792 172.411,258.405 172.051,258.411 172.246 M138.622 173.822 C 138.472 174.625,138.428 175.362,138.526 175.460 C 138.624 175.557,138.827 174.981,138.978 174.178 C 139.128 173.375,139.172 172.638,139.074 172.540 C 138.976 172.443,138.773 173.019,138.622 173.822 M136.985 178.100 C 136.368 179.035,136.120 179.589,136.432 179.331 C 137.033 178.834,138.564 176.400,138.276 176.400 C 138.183 176.400,137.602 177.165,136.985 178.100 M263.401 179.435 C 264.464 180.956,265.600 182.470,265.926 182.800 C 266.252 183.130,265.566 181.999,264.401 180.287 C 263.236 178.575,262.099 177.061,261.875 176.923 C 261.651 176.784,262.337 177.915,263.401 179.435 M252.630 181.552 C 252.242 182.180,253.999 185.494,258.809 193.200 C 262.592 199.262,267.236 206.939,268.681 209.521 C 269.457 210.907,270.167 211.966,270.259 211.874 C 270.510 211.623,265.665 203.397,258.789 192.400 C 251.961 181.479,251.130 178.550,257.127 186.541 C 262.416 193.589,270.466 205.702,275.973 214.900 C 277.126 216.825,278.161 218.400,278.273 218.400 C 278.755 218.400,272.883 208.918,265.956 198.509 C 257.941 186.468,253.267 180.520,252.630 181.552 M133.128 183.700 C 130.151 187.700,123.926 197.389,125.096 196.200 C 125.663 195.624,134.434 182.400,134.250 182.400 C 134.165 182.400,133.660 182.985,133.128 183.700 M270.237 189.300 C 271.049 190.565,271.788 191.600,271.879 191.600 C 272.147 191.600,270.700 189.282,269.690 188.094 C 269.179 187.492,269.425 188.035,270.237 189.300 M137.757 192.500 C 134.099 196.463,121.931 214.864,122.555 215.489 C 122.647 215.580,123.758 213.887,125.026 211.727 C 131.978 199.882,138.685 190.987,140.036 191.822 C 140.236 191.946,140.400 191.857,140.400 191.624 C 140.400 190.753,138.916 191.245,137.757 192.500 M139.331 193.043 C 139.172 193.459,138.161 195.329,137.083 197.198 C 134.593 201.516,134.082 202.542,134.983 201.417 C 136.121 199.995,140.082 192.748,139.848 192.515 C 139.722 192.389,139.489 192.626,139.331 193.043 M275.697 197.700 C 276.021 198.195,276.867 199.545,277.577 200.700 C 278.866 202.795,279.657 203.606,278.749 201.900 C 277.984 200.462,275.505 196.800,275.297 196.800 C 275.193 196.800,275.373 197.205,275.697 197.700 M121.508 201.300 C 121.187 201.795,120.707 202.650,120.440 203.200 C 119.760 204.603,120.994 203.106,121.841 201.500 C 122.539 200.174,122.323 200.044,121.508 201.300 M132.469 205.100 C 131.608 206.585,130.274 208.970,129.506 210.400 C 128.738 211.830,127.538 214.058,126.840 215.352 C 126.141 216.645,125.647 217.780,125.741 217.874 C 125.835 217.968,127.187 215.650,128.745 212.723 C 130.303 209.795,132.224 206.275,133.012 204.900 C 133.801 203.525,134.354 202.400,134.241 202.400 C 134.128 202.400,133.331 203.615,132.469 205.100 M280.586 205.500 C 280.935 206.215,281.306 206.800,281.410 206.800 C 281.808 206.800,281.552 206.163,280.767 205.200 L 279.952 204.200 280.586 205.500 M118.308 206.500 C 117.987 206.995,117.507 207.850,117.240 208.400 C 116.560 209.803,117.794 208.306,118.641 206.700 C 119.339 205.374,119.123 205.244,118.308 206.500 M282.986 209.500 C 283.335 210.215,283.706 210.800,283.810 210.800 C 284.208 210.800,283.952 210.163,283.167 209.200 L 282.352 208.200 282.986 209.500 M115.800 210.800 C 115.459 211.460,115.269 212.000,115.379 212.000 C 115.489 212.000,115.859 211.460,116.200 210.800 C 116.541 210.140,116.731 209.600,116.621 209.600 C 116.511 209.600,116.141 210.140,115.800 210.800 M284.496 212.100 C 284.820 212.595,285.483 213.782,285.970 214.739 C 286.457 215.695,286.941 216.393,287.045 216.289 C 287.262 216.071,284.477 211.200,284.135 211.200 C 284.010 211.200,284.173 211.605,284.496 212.100 M114.214 213.435 C 113.841 214.004,113.627 214.561,113.739 214.672 C 113.850 214.783,114.229 214.318,114.581 213.637 C 115.359 212.133,115.144 212.015,114.214 213.435 M270.460 212.600 C 270.548 212.820,272.248 216.240,274.238 220.200 C 276.229 224.160,278.070 228.014,278.331 228.765 C 278.591 229.516,278.907 230.027,279.033 229.900 C 279.417 229.516,271.791 213.675,270.704 212.600 C 270.435 212.333,270.353 212.333,270.460 212.600 M112.600 216.400 C 112.259 217.060,112.069 217.600,112.179 217.600 C 112.289 217.600,112.659 217.060,113.000 216.400 C 113.341 215.740,113.531 215.200,113.421 215.200 C 113.311 215.200,112.941 215.740,112.600 216.400 M196.123 215.899 C 198.941 215.968,203.441 215.968,206.123 215.899 C 208.805 215.830,206.500 215.773,201.000 215.773 C 195.500 215.774,193.305 215.830,196.123 215.899 M121.546 216.866 C 121.260 217.380,120.527 218.700,119.917 219.800 C 115.974 226.912,109.362 240.695,109.721 241.054 C 109.804 241.137,110.561 239.629,111.404 237.702 C 113.145 233.722,119.250 221.681,121.163 218.452 C 121.864 217.270,122.353 216.219,122.251 216.117 C 122.148 216.015,121.831 216.352,121.546 216.866 M184.600 216.400 L 183.000 216.686 184.600 216.704 C 185.480 216.713,187.190 216.584,188.400 216.417 L 190.600 216.113 188.400 216.113 C 187.190 216.113,185.480 216.242,184.600 216.400 M213.600 216.417 C 214.810 216.584,216.520 216.716,217.400 216.710 L 219.000 216.700 217.200 216.380 C 216.210 216.203,214.500 216.071,213.400 216.086 L 211.400 216.113 213.600 216.417 M179.200 217.200 C 177.801 217.648,180.039 217.648,181.800 217.200 L 183.000 216.895 181.600 216.887 C 180.830 216.883,179.750 217.024,179.200 217.200 M220.800 217.221 C 230.631 219.407,234.892 220.850,239.565 223.580 C 249.431 229.342,250.923 233.625,250.694 255.530 C 250.444 279.420,248.087 285.084,235.303 292.527 C 216.325 303.576,189.440 304.676,169.377 295.224 C 156.345 289.084,152.020 282.886,149.263 266.400 L 148.895 264.200 148.848 266.280 C 148.623 276.090,154.329 286.723,162.800 292.284 C 165.506 294.061,167.247 294.983,171.600 296.945 C 189.500 305.015,215.214 303.864,233.541 294.174 C 244.706 288.271,248.448 283.224,250.745 270.976 C 251.449 267.223,251.353 239.609,250.626 236.879 C 247.950 226.826,235.429 218.409,221.090 217.023 L 219.000 216.821 220.800 217.221 M287.800 218.000 C 288.141 218.660,288.511 219.200,288.621 219.200 C 288.731 219.200,288.541 218.660,288.200 218.000 C 287.859 217.340,287.489 216.800,287.379 216.800 C 287.269 216.800,287.459 217.340,287.800 218.000 M175.400 218.000 C 174.671 218.313,174.688 218.344,175.600 218.344 C 176.150 218.344,176.960 218.189,177.400 218.000 C 178.129 217.687,178.112 217.656,177.200 217.656 C 176.650 217.656,175.840 217.811,175.400 218.000 M110.600 220.000 C 110.043 221.100,109.677 222.000,109.787 222.000 C 109.897 222.000,110.443 221.100,111.000 220.000 C 111.557 218.900,111.923 218.000,111.813 218.000 C 111.703 218.000,111.157 218.900,110.600 220.000 M123.982 221.066 C 121.791 225.738,120.799 228.011,120.820 228.311 C 120.831 228.470,121.912 226.366,123.222 223.636 C 124.532 220.905,125.528 218.595,125.434 218.501 C 125.341 218.408,124.688 219.562,123.982 221.066 M169.200 219.761 C 158.709 223.398,148.800 231.705,148.800 236.864 C 148.800 237.146,149.427 236.069,150.194 234.469 C 153.116 228.371,160.037 223.274,169.803 220.029 C 172.441 219.153,174.240 218.437,173.800 218.439 C 173.360 218.442,171.290 219.036,169.200 219.761 M278.409 219.100 C 278.414 219.265,278.770 219.850,279.200 220.400 C 279.630 220.950,279.990 221.580,280.000 221.800 C 280.021 222.263,281.578 224.339,281.591 223.921 C 281.603 223.549,278.811 218.800,278.581 218.800 C 278.481 218.800,278.404 218.935,278.409 219.100 M291.886 225.783 C 293.140 228.304,294.231 230.303,294.308 230.225 C 294.485 230.048,290.064 221.200,289.799 221.200 C 289.692 221.200,290.631 223.262,291.886 225.783 M281.600 224.640 C 281.600 224.860,281.761 225.211,281.958 225.420 C 282.497 225.991,287.609 236.108,289.378 240.102 C 291.062 243.906,291.750 244.668,290.335 241.163 C 288.318 236.167,281.600 223.459,281.600 224.640 M119.971 229.845 C 118.936 232.489,118.400 234.133,118.529 234.262 C 118.604 234.337,119.143 233.196,119.726 231.726 C 120.310 230.256,120.705 228.971,120.605 228.871 C 120.504 228.771,120.219 229.209,119.971 229.845 M104.672 231.819 C 103.732 233.789,103.864 234.124,104.847 232.262 C 105.293 231.416,105.587 230.654,105.501 230.567 C 105.414 230.481,105.041 231.044,104.672 231.819 M280.859 234.800 C 280.859 235.130,281.193 236.120,281.600 237.000 C 282.007 237.880,282.341 238.330,282.341 238.000 C 282.341 237.670,282.007 236.680,281.600 235.800 C 281.193 234.920,280.859 234.470,280.859 234.800 M117.000 238.000 C 116.405 239.788,116.001 241.334,116.102 241.436 C 116.204 241.537,116.772 240.155,117.364 238.364 C 117.956 236.572,118.360 235.026,118.261 234.928 C 118.163 234.830,117.595 236.212,117.000 238.000 M297.850 238.800 C 298.225 240.305,299.134 242.284,299.138 241.600 C 299.139 241.270,298.794 240.280,298.371 239.400 C 297.948 238.520,297.714 238.250,297.850 238.800 M282.431 239.300 C 282.472 239.958,283.929 243.900,283.969 243.462 C 284.015 242.955,282.770 238.800,282.572 238.800 C 282.477 238.800,282.414 239.025,282.431 239.300 M115.600 242.122 C 115.600 242.263,115.152 244.138,114.604 246.289 C 114.056 248.440,113.624 250.650,113.645 251.200 C 113.672 251.912,113.790 251.739,114.056 250.600 C 114.262 249.720,114.803 247.505,115.259 245.677 C 115.714 243.849,115.978 242.244,115.844 242.110 C 115.710 241.976,115.600 241.982,115.600 242.122 M299.212 242.800 C 299.212 243.130,299.387 243.670,299.600 244.000 C 299.945 244.533,299.988 244.533,299.988 244.000 C 299.988 243.670,299.813 243.130,299.600 242.800 C 299.255 242.267,299.212 242.267,299.212 242.800 M107.875 245.291 C 105.494 251.647,105.600 249.563,105.600 289.967 L 105.600 326.950 106.479 328.233 C 107.642 329.930,110.425 331.712,113.696 332.854 C 116.656 333.887,117.307 333.691,116.259 332.084 C 115.228 330.503,113.947 327.662,113.336 325.600 L 112.803 323.800 112.991 325.400 C 113.095 326.280,113.814 328.285,114.590 329.856 C 115.365 331.426,116.000 332.809,116.000 332.928 C 116.000 333.818,109.133 330.582,107.545 328.943 L 106.200 327.555 106.200 289.478 L 106.200 251.400 107.508 247.641 C 108.806 243.908,109.102 242.018,107.875 245.291 M284.034 244.400 C 284.046 244.730,284.211 245.360,284.400 245.800 L 284.744 246.600 284.766 245.800 C 284.778 245.360,284.613 244.730,284.400 244.400 C 284.055 243.867,284.015 243.867,284.034 244.400 M291.450 244.800 C 291.825 246.305,292.734 248.284,292.738 247.600 C 292.739 247.270,292.394 246.280,291.971 245.400 C 291.548 244.520,291.314 244.250,291.450 244.800 M99.473 245.353 C 99.323 245.745,99.211 246.366,99.225 246.733 C 99.242 247.175,99.381 247.074,99.637 246.434 C 99.849 245.903,99.961 245.282,99.885 245.054 C 99.809 244.827,99.624 244.961,99.473 245.353 M300.068 245.200 C 300.088 246.239,300.718 247.946,300.732 247.000 C 300.738 246.560,300.589 245.840,300.400 245.400 C 300.189 244.910,300.061 244.832,300.068 245.200 M284.868 247.400 C 284.874 247.840,285.024 248.650,285.200 249.200 L 285.520 250.200 285.532 249.200 C 285.538 248.650,285.389 247.840,285.200 247.400 L 284.856 246.600 284.868 247.400 M98.578 248.978 C 98.427 249.781,98.394 250.527,98.504 250.637 C 98.614 250.747,98.827 250.181,98.978 249.378 C 99.128 248.575,99.162 247.828,99.052 247.718 C 98.942 247.608,98.728 248.175,98.578 248.978 M301.062 249.400 C 301.196 250.280,301.372 251.075,301.453 251.167 C 301.756 251.510,301.529 249.368,301.181 248.600 C 300.929 248.042,300.893 248.285,301.062 249.400 M292.856 248.800 C 292.856 249.130,293.011 249.760,293.200 250.200 C 293.417 250.704,293.544 250.778,293.544 250.400 C 293.544 250.070,293.389 249.440,293.200 249.000 C 292.983 248.496,292.856 248.422,292.856 248.800 M285.687 251.200 C 285.691 251.750,285.832 252.740,286.000 253.400 L 286.305 254.600 286.313 253.400 C 286.317 252.740,286.176 251.750,286.000 251.200 L 285.680 250.200 285.687 251.200 M293.915 288.475 C 293.978 309.004,293.933 326.191,293.815 326.669 C 293.411 328.302,291.417 330.135,288.607 331.453 C 287.063 332.178,286.070 332.774,286.400 332.777 C 287.931 332.792,292.211 330.001,293.516 328.138 L 294.400 326.877 294.360 289.938 C 294.338 269.622,294.203 252.584,294.060 252.075 C 293.917 251.566,293.852 267.946,293.915 288.475 M97.860 253.690 C 97.721 254.851,97.641 261.650,97.682 268.800 L 97.757 281.800 97.987 266.800 C 98.114 258.550,98.194 251.751,98.165 251.690 C 98.137 251.630,98.000 252.530,97.860 253.690 M301.911 268.400 C 302.018 277.530,302.172 285.075,302.253 285.167 C 302.491 285.436,302.321 267.653,302.006 259.400 C 301.831 254.804,301.793 258.361,301.911 268.400 M113.099 253.800 C 112.939 254.680,112.829 256.210,112.853 257.200 C 112.897 258.960,112.906 258.947,113.256 256.600 C 113.689 253.704,113.554 251.294,113.099 253.800 M286.683 258.600 C 286.805 260.800,286.971 262.675,287.053 262.767 C 287.345 263.097,287.146 257.763,286.807 256.200 C 286.571 255.111,286.531 255.878,286.683 258.600 M112.591 291.600 C 112.591 309.090,112.640 316.245,112.700 307.500 C 112.760 298.755,112.760 284.445,112.700 275.700 C 112.640 266.955,112.591 274.110,112.591 291.600 M142.550 262.700 C 142.426 263.085,142.181 263.850,142.005 264.400 C 140.369 269.503,139.824 276.368,139.812 292.000 L 139.800 307.000 140.971 309.313 C 141.878 311.103,149.564 321.373,150.766 322.400 C 153.285 324.553,156.143 330.371,155.904 332.860 C 155.671 335.287,156.304 335.353,158.132 333.094 C 161.396 329.058,158.797 322.112,150.389 312.400 C 144.358 305.433,144.202 304.631,143.766 278.500 C 143.518 263.613,143.274 260.447,142.550 262.700 M256.265 270.688 C 256.120 275.480,256.000 282.550,255.997 286.400 C 255.985 303.005,255.225 306.023,249.400 312.590 C 240.953 322.114,238.437 329.281,242.082 333.432 C 243.774 335.359,244.228 335.207,244.059 332.771 C 243.864 329.945,245.428 326.954,250.085 321.250 C 256.321 313.612,257.575 311.901,258.912 309.200 L 260.200 306.600 260.177 292.200 C 260.154 277.977,259.887 273.836,258.579 267.400 C 256.994 259.602,256.582 260.186,256.265 270.688 M143.017 265.900 C 142.667 267.977,143.523 298.812,144.017 301.904 C 144.628 305.732,145.964 308.219,149.760 312.600 C 157.429 321.449,160.070 327.387,158.262 331.713 C 157.282 334.058,156.605 334.187,156.563 332.036 C 156.512 329.455,154.835 326.463,150.287 320.843 C 140.756 309.064,140.759 309.071,140.301 301.627 C 139.543 289.303,141.269 264.400,142.882 264.400 C 143.109 264.400,143.165 265.024,143.017 265.900 M258.140 268.500 C 259.352 276.067,259.654 281.710,259.527 294.400 L 259.400 307.000 258.285 309.235 C 257.671 310.465,254.873 314.335,252.066 317.835 C 244.495 327.278,242.878 330.027,243.281 332.773 C 243.493 334.212,242.728 333.794,241.774 331.949 C 239.730 327.997,242.503 321.453,249.804 313.004 C 256.376 305.398,256.676 303.791,256.840 275.375 C 256.909 263.441,257.136 262.238,258.140 268.500 M97.005 298.880 C 96.847 305.326,96.786 311.140,96.870 311.800 C 96.954 312.460,97.171 307.273,97.351 300.273 C 97.531 293.273,97.592 287.459,97.486 287.353 C 97.380 287.246,97.163 292.433,97.005 298.880 M302.704 303.400 C 302.812 310.660,302.968 316.675,303.050 316.767 C 303.287 317.031,303.121 303.634,302.799 296.600 C 302.616 292.595,302.581 295.139,302.704 303.400 M179.802 308.900 C 179.707 309.175,179.578 313.000,179.515 317.400 C 179.416 324.255,179.300 325.542,178.700 326.389 C 177.327 328.329,178.652 328.639,181.177 326.968 C 184.595 324.706,185.274 321.490,184.818 309.733 C 184.808 309.476,183.891 309.071,182.780 308.833 C 180.228 308.286,180.013 308.291,179.802 308.900 M216.800 308.932 L 215.000 309.400 214.889 315.116 C 214.738 322.884,215.694 325.587,219.240 327.420 C 220.417 328.029,222.176 328.213,221.912 327.700 C 220.354 324.673,220.272 324.160,220.085 316.300 C 219.876 307.469,220.141 308.064,216.800 308.932 M184.322 315.444 C 184.482 322.733,183.906 324.501,180.688 326.587 C 179.255 327.516,179.111 327.320,179.800 325.385 C 180.206 324.245,180.370 321.711,180.382 316.362 L 180.400 308.924 182.300 309.406 L 184.200 309.887 184.322 315.444 M220.332 325.934 C 221.092 327.268,220.658 327.425,219.018 326.411 C 216.142 324.634,215.600 322.971,215.600 315.932 L 215.600 309.734 217.500 309.367 L 219.400 309.000 219.600 317.000 C 219.740 322.603,219.960 325.280,220.332 325.934 M191.500 310.933 C 191.335 311.336,191.218 313.946,191.240 316.733 C 191.272 320.796,191.354 321.485,191.653 320.209 C 192.087 318.353,191.947 309.841,191.500 310.933 M196.788 310.821 C 198.431 310.993,201.221 310.993,202.988 310.821 C 205.810 310.547,205.448 310.509,200.000 310.509 C 194.744 310.509,194.255 310.556,196.788 310.821 M208.094 315.200 C 208.086 317.950,208.206 320.650,208.360 321.200 C 208.514 321.750,208.577 319.860,208.501 317.000 C 208.314 309.977,208.112 309.084,208.094 315.200 M96.524 322.200 C 96.526 323.520,96.601 324.012,96.690 323.293 C 96.779 322.574,96.777 321.494,96.686 320.893 C 96.595 320.292,96.522 320.880,96.524 322.200 M190.457 323.611 C 190.191 324.375,189.498 325.720,188.918 326.600 C 188.270 327.584,188.133 327.979,188.563 327.625 C 189.449 326.897,191.296 323.287,191.093 322.679 C 191.009 322.427,190.723 322.847,190.457 323.611 M286.654 324.754 C 286.500 325.718,286.458 326.591,286.561 326.694 C 286.830 326.963,287.315 324.145,287.107 323.522 C 287.012 323.236,286.808 323.790,286.654 324.754 M209.624 324.928 C 209.467 327.116,216.561 332.816,219.400 332.783 C 219.840 332.778,219.267 332.451,218.126 332.057 C 214.457 330.789,212.627 329.254,210.124 325.344 C 209.861 324.935,209.636 324.748,209.624 324.928 M302.654 327.154 C 302.500 328.118,302.458 328.991,302.561 329.094 C 302.830 329.363,303.315 326.545,303.107 325.922 C 303.012 325.636,302.808 326.190,302.654 327.154 M96.846 327.200 C 96.827 327.750,96.987 328.470,97.200 328.800 C 97.694 329.564,97.694 328.742,97.200 327.200 L 96.880 326.200 96.846 327.200 M284.246 331.030 C 282.837 333.550,283.275 334.529,285.200 333.162 C 285.658 332.836,285.530 332.795,284.655 332.986 L 283.511 333.238 284.561 331.358 C 285.139 330.324,285.540 329.406,285.452 329.318 C 285.364 329.230,284.821 330.000,284.246 331.030 M97.632 329.920 C 97.596 330.498,98.707 332.800,99.021 332.800 C 99.131 332.800,98.971 332.305,98.665 331.700 C 98.360 331.095,98.009 330.330,97.886 330.000 C 97.736 329.597,97.653 329.571,97.632 329.920 M185.636 330.157 C 185.381 330.463,184.634 330.938,183.974 331.211 C 183.314 331.484,182.858 331.792,182.961 331.894 C 183.218 332.151,186.400 330.331,186.400 329.926 C 186.400 329.452,186.161 329.524,185.636 330.157 M300.641 332.721 C 300.067 333.830,297.531 336.340,295.600 337.709 L 294.600 338.418 295.836 337.832 C 297.097 337.234,301.600 332.660,301.600 331.977 C 301.600 331.295,301.230 331.582,300.641 332.721 M180.800 332.400 C 179.976 332.664,179.941 332.726,180.600 332.754 C 181.040 332.773,181.670 332.613,182.000 332.400 C 182.701 331.947,182.214 331.947,180.800 332.400 M234.039 334.176 C 234.501 334.959,234.956 335.600,235.050 335.600 C 235.334 335.600,234.036 333.269,233.602 333.001 C 233.380 332.864,233.577 333.393,234.039 334.176 M100.068 334.400 C 101.114 335.825,105.662 339.203,106.526 339.196 C 106.787 339.194,106.074 338.661,104.942 338.012 C 103.810 337.363,102.020 335.970,100.963 334.916 C 99.402 333.360,99.234 333.263,100.068 334.400 M165.200 334.690 C 165.200 334.923,164.354 336.078,163.320 337.257 C 162.148 338.593,161.935 338.948,162.756 338.200 C 164.405 336.697,165.764 334.831,165.444 334.510 C 165.310 334.376,165.200 334.457,165.200 334.690 M236.000 336.995 C 237.199 338.412,237.931 339.063,239.000 339.661 C 239.440 339.907,239.710 340.027,239.600 339.927 C 236.442 337.061,235.202 336.051,236.000 336.995 M159.800 339.885 C 159.140 340.244,157.880 340.764,157.000 341.042 C 156.120 341.319,155.760 341.557,156.200 341.569 C 157.033 341.593,161.200 339.801,161.200 339.418 C 161.200 339.127,161.182 339.133,159.800 339.885 M109.800 340.400 C 110.240 340.589,110.870 340.744,111.200 340.744 C 111.578 340.744,111.504 340.617,111.000 340.400 C 110.560 340.211,109.930 340.056,109.600 340.056 C 109.222 340.056,109.296 340.183,109.800 340.400 M288.800 340.400 C 287.996 340.657,287.957 340.723,288.600 340.732 C 289.040 340.738,289.760 340.589,290.200 340.400 C 291.219 339.962,290.168 339.962,288.800 340.400 M113.200 341.187 C 114.191 341.517,117.087 341.735,116.767 341.454 C 116.675 341.374,115.610 341.206,114.400 341.081 C 112.980 340.934,112.554 340.971,113.200 341.187 M242.200 341.200 C 242.640 341.389,243.270 341.544,243.600 341.544 C 243.978 341.544,243.904 341.417,243.400 341.200 C 242.960 341.011,242.330 340.856,242.000 340.856 C 241.622 340.856,241.696 340.983,242.200 341.200 M284.400 341.200 L 283.000 341.495 284.400 341.507 C 285.170 341.515,286.250 341.376,286.800 341.200 L 287.800 340.880 286.800 340.893 C 286.250 340.900,285.170 341.038,284.400 341.200 M127.700 341.900 C 132.705 341.963,140.895 341.963,145.900 341.900 C 150.905 341.836,146.810 341.784,136.800 341.784 C 126.790 341.784,122.695 341.836,127.700 341.900 M254.100 341.900 C 259.105 341.963,267.295 341.963,272.300 341.900 C 277.305 341.836,273.210 341.784,263.200 341.784 C 253.190 341.784,249.095 341.836,254.100 341.900 " stroke="none" fill="#ae8a76" fill-rule="evenodd"></path></g></svg>
